<svg width="1424" height="400" viewBox="0 0 1424 400" fill="none" xmlns="http://www.w3.org/2000/svg">
<circle cx="8" cy="200" r="8" fill="black"/>
<circle cx="136" cy="200" r="8" fill="black"/>
<circle cx="520" cy="200" r="8" fill="black"/>
<circle cx="1032" cy="200" r="8" fill="black"/>
<circle cx="264" cy="200" r="8" fill="black"/>
<circle cx="776" cy="136" r="8" fill="black"/>
<circle cx="391.283" cy="136" r="8" fill="black"/>
<circle cx="392" cy="264" r="8" fill="black"/>
<circle cx="904" cy="136" r="8" fill="black"/>
<circle cx="519.283" cy="136" r="8" fill="black"/>
<circle cx="520" cy="264" r="8" fill="black"/>
<circle cx="520" cy="328" r="8" fill="black"/>
<circle cx="648" cy="264" r="8" fill="black"/>
<circle cx="778" cy="72" r="8" fill="black"/>
<circle cx="648" cy="328" r="8" fill="black"/>
<circle cx="778.44" cy="264" r="8" fill="black"/>
<circle cx="904" cy="264" r="8" fill="black"/>
<circle cx="1032" cy="72" r="8" fill="black"/>
<circle cx="778.44" cy="328" r="8" fill="black"/>
<circle cx="1032" cy="264" r="8" fill="black"/>
<circle cx="904" cy="8" r="8" fill="black"/>
<circle cx="904" cy="328" r="8" fill="black"/>
<circle cx="1160" cy="264" r="8" fill="black"/>
<circle cx="1032" cy="328" r="8" fill="black"/>
<circle cx="1288" cy="72" r="8" fill="black"/>
<circle cx="1032" cy="8" r="8" fill="black"/>
<circle cx="1288" cy="264" r="8" fill="black"/>
<circle cx="1416" cy="264" r="8" fill="black"/>
<circle cx="1160" cy="328" r="8" fill="black"/>
<circle cx="1160" cy="392" r="8" fill="black"/>
<circle cx="1160" cy="8" r="8" fill="black"/>
<circle cx="1288" cy="328" r="8" fill="black"/>
<circle cx="1288" cy="392" r="8" fill="black"/>
<circle cx="1288" cy="8" r="8" fill="black"/>
<circle cx="648" cy="200" r="8" fill="black"/>
<circle cx="1160" cy="200" r="8" fill="black"/>
<circle cx="392" cy="200" r="8" fill="black"/>
<circle cx="778.44" cy="200" r="8" fill="black"/>
<circle cx="1288" cy="200" r="8" fill="black"/>
<circle cx="904" cy="200" r="8" fill="black"/>
<circle cx="1416" cy="200" r="8" fill="black"/>
<path d="M20 200H124" stroke="black" stroke-width="3" stroke-miterlimit="0" stroke-linecap="round" stroke-linejoin="bevel"/>
<path d="M1404 200H1300" stroke="black" stroke-width="3" stroke-miterlimit="0" stroke-linecap="round" stroke-linejoin="bevel"/>
<path d="M1276 200H1172" stroke="black" stroke-width="3" stroke-miterlimit="0" stroke-linecap="round" stroke-linejoin="bevel"/>
<path d="M1148 200H1044" stroke="black" stroke-width="3" stroke-miterlimit="0" stroke-linecap="round" stroke-linejoin="bevel"/>
<path d="M276 200H380" stroke="black" stroke-width="3" stroke-miterlimit="0" stroke-linecap="round" stroke-linejoin="bevel"/>
<path d="M508 200H404" stroke="black" stroke-width="3" stroke-miterlimit="0" stroke-linecap="round" stroke-linejoin="bevel"/>
<path d="M1020 200H916" stroke="black" stroke-width="3" stroke-miterlimit="0" stroke-linecap="round" stroke-linejoin="bevel"/>
<path d="M636 200H532" stroke="black" stroke-width="3" stroke-miterlimit="0" stroke-linecap="round" stroke-linejoin="bevel"/>
<path d="M660 200H766.44" stroke="black" stroke-width="3" stroke-miterlimit="0" stroke-linecap="round" stroke-linejoin="bevel"/>
<path d="M892 200H790.44" stroke="black" stroke-width="3" stroke-miterlimit="0" stroke-linecap="round" stroke-linejoin="bevel"/>
<path d="M252 200H148" stroke="black" stroke-width="3" stroke-miterlimit="0" stroke-linecap="round" stroke-linejoin="bevel"/>
<path d="M658.733 194.634L765.267 141.367" stroke="black" stroke-width="3" stroke-miterlimit="0" stroke-linecap="round" stroke-linejoin="bevel"/>
<path d="M656.551 191.581L769.449 80.4194" stroke="black" stroke-width="3" stroke-miterlimit="0" stroke-linecap="round" stroke-linejoin="bevel"/>
<path d="M788 136H892" stroke="black" stroke-width="3" stroke-miterlimit="0" stroke-linecap="round" stroke-linejoin="bevel"/>
<path d="M790 72H1020" stroke="black" stroke-width="3" stroke-miterlimit="0" stroke-linecap="round" stroke-linejoin="bevel"/>
<path d="M1044 72H1276" stroke="black" stroke-width="3" stroke-miterlimit="0" stroke-linecap="round" stroke-linejoin="bevel"/>
<path d="M274.733 205.367L381.267 258.634" stroke="black" stroke-width="3" stroke-miterlimit="0" stroke-linecap="round" stroke-linejoin="bevel"/>
<path d="M404 264H508" stroke="black" stroke-width="3" stroke-miterlimit="0" stroke-linecap="round" stroke-linejoin="bevel"/>
<path d="M532 264H636" stroke="black" stroke-width="3" stroke-miterlimit="0" stroke-linecap="round" stroke-linejoin="bevel"/>
<path d="M660 264H766.44" stroke="black" stroke-width="3" stroke-miterlimit="0" stroke-linecap="round" stroke-linejoin="bevel"/>
<path d="M790.44 264H892" stroke="black" stroke-width="3" stroke-miterlimit="0" stroke-linecap="round" stroke-linejoin="bevel"/>
<path d="M916 264H1020" stroke="black" stroke-width="3" stroke-miterlimit="0" stroke-linecap="round" stroke-linejoin="bevel"/>
<path d="M1044 264H1148" stroke="black" stroke-width="3" stroke-miterlimit="0" stroke-linecap="round" stroke-linejoin="bevel"/>
<path d="M1172 264H1276" stroke="black" stroke-width="3" stroke-miterlimit="0" stroke-linecap="round" stroke-linejoin="bevel"/>
<path d="M402.733 269.367L509.267 322.634" stroke="black" stroke-width="3" stroke-miterlimit="0" stroke-linecap="round" stroke-linejoin="bevel"/>
<path d="M532 328H636" stroke="black" stroke-width="3" stroke-miterlimit="0" stroke-linecap="round" stroke-linejoin="bevel"/>
<path d="M790.44 328H892" stroke="black" stroke-width="3" stroke-miterlimit="0" stroke-linecap="round" stroke-linejoin="bevel"/>
<path d="M790.44 328H892" stroke="black" stroke-width="3" stroke-miterlimit="0" stroke-linecap="round" stroke-linejoin="bevel"/>
<path d="M1020 328H916" stroke="black" stroke-width="3" stroke-miterlimit="0" stroke-linecap="round" stroke-linejoin="bevel"/>
<path d="M788.699 66.5658L893.301 13.4346" stroke="black" stroke-width="3" stroke-miterlimit="0" stroke-linecap="round" stroke-linejoin="bevel"/>
<path d="M916 8H1020" stroke="black" stroke-width="3" stroke-miterlimit="0" stroke-linecap="round" stroke-linejoin="bevel"/>
<path d="M1042.73 269.367L1149.27 322.634" stroke="black" stroke-width="3" stroke-miterlimit="0" stroke-linecap="round" stroke-linejoin="bevel"/>
<path d="M1172 8H1288" stroke="black" stroke-width="3" stroke-miterlimit="0" stroke-linecap="round" stroke-linejoin="bevel"/>
<path d="M1172 328H1276" stroke="black" stroke-width="3" stroke-miterlimit="0" stroke-linecap="round" stroke-linejoin="bevel"/>
<path d="M1172 392H1276" stroke="black" stroke-width="3" stroke-miterlimit="0" stroke-linecap="round" stroke-linejoin="bevel"/>
<path d="M1044 8H1148" stroke="black" stroke-width="3" stroke-miterlimit="0" stroke-linecap="round" stroke-linejoin="bevel"/>
<path d="M1042.73 333.367L1149.27 386.634" stroke="black" stroke-width="3" stroke-miterlimit="0" stroke-linecap="round" stroke-linejoin="bevel"/>
<path d="M660 328H766.44" stroke="black" stroke-width="3" stroke-miterlimit="0" stroke-linecap="round" stroke-linejoin="bevel"/>
<path d="M914.733 141.367L1021.27 194.634" stroke="black" stroke-width="3" stroke-miterlimit="0" stroke-linecap="round" stroke-linejoin="bevel"/>
<path d="M147.64 197.082L379.643 138.918" stroke="black" stroke-width="3" stroke-miterlimit="0" stroke-linecap="round" stroke-linejoin="bevel"/>
<path d="M403.283 136H507.283" stroke="black" stroke-width="3" stroke-miterlimit="0" stroke-linecap="round" stroke-linejoin="bevel"/>
<path d="M1300 264H1404" stroke="black" stroke-width="3" stroke-miterlimit="0" stroke-linecap="round" stroke-linejoin="bevel"/>
</svg>
