<svg width="695" height="292" viewBox="0 0 695 292" fill="none" xmlns="http://www.w3.org/2000/svg">
<g clip-path="url(#clip0_11674_30351)">
<path d="M385.41 142.79L386.41 142.93C394.04 143.93 401.53 145.34 407.27 147.93C412.59 150.28 415.7 153.26 418.54 158.55C422.87 166.55 423.15 177.82 419.24 186.34C416.32 192.67 409.91 197.98 404.06 200.8C398.1 203.607 391.692 205.344 385.13 205.93C372.837 207.119 360.453 204.908 349.33 199.54C342.94 196.42 335.13 191.04 331.19 184.11C329.726 181.577 329.016 178.678 329.144 175.755C329.271 172.832 330.231 170.006 331.91 167.61C337.53 159.92 349.55 158.23 358.62 158.55C365.53 158.81 377.97 160.95 384.53 163.28C386.35 163.94 393.05 166.55 394.22 167.75C394.657 168.137 394.98 168.636 395.156 169.192C395.332 169.748 395.354 170.342 395.22 170.91C393.72 175.5 382.58 177.91 379.37 178.4C370.75 179.72 366.28 176.46 356.49 172.6C353.882 171.512 351.147 170.759 348.35 170.36C343.91 169.94 338.54 171.18 337.69 176.03C337.27 178.54 340.2 180.87 342.44 181.85C347.062 183.929 352.072 185.003 357.14 185C372.4 185.25 389.57 182.74 402.05 173.89C403.76 172.67 405.44 170.89 405.46 168.64C405.51 164.09 397.54 161.31 397.54 161.31C389.13 157.8 373.54 156.09 365.54 155.44C357.14 154.71 343.92 153.62 340.74 153.15C337.431 152.782 334.186 151.975 331.09 150.75C329.56 150.047 328.195 149.031 327.084 147.766C325.973 146.502 325.14 145.017 324.64 143.41C323.18 137.68 325.05 130.65 328.23 126.07C336.58 114.07 356.12 109.51 370.72 107.71C384.86 105.95 407.72 105.96 421.59 113.34C423.73 114.49 424.83 115.56 424.38 117.85C423.47 122.15 420.24 124.92 416.32 126.14C412.21 127.45 403.71 127.96 399.97 128.14C383.24 129.08 362.97 128.59 347.07 132.94C345.82 133.29 343.66 133.87 342.96 134.65C340.47 137.37 347.59 138.14 349.12 138.45C349.448 138.535 349.782 138.592 350.12 138.62L385.35 142.78M285.78 68.15C285.78 68.15 288.5 64.06 290.78 60.97C295.948 54.3176 301.752 48.1853 308.11 42.66C309.84 41.18 311.89 39.51 311.89 39.51C311.89 39.51 308.69 39.83 306.89 40.2C302.6 41.04 296.3 45.2 293.15 47.93C287.96 52.38 282.26 59.6 284.84 66.02C285.21 66.93 285.79 68.15 285.79 68.15M314.65 75.87C322.733 75.3063 330.589 72.9529 337.65 68.98C344.65 65.06 354.99 57.4 353.91 48.4C353.756 47.0552 353.245 45.7762 352.428 44.6963C351.612 43.6165 350.522 42.7751 349.27 42.26C346.15 40.91 344.52 41.13 340.52 42.26C338.076 42.9051 335.735 43.8951 333.57 45.2C325.52 49.87 314.11 59.88 307.92 67.86C306.49 69.75 305.04 71.86 303.92 73.3C303.2 74.18 302.65 75 302.72 75.22C302.96 76.12 311.42 76.04 314.62 75.82M293.74 91.16C292.89 92.06 292 94.22 291.07 95.78C290.538 96.6657 289.862 97.4565 289.07 98.12C286.93 99.69 285.13 99.77 283.07 97.95C281.639 96.6221 280.488 95.0216 279.684 93.2425C278.88 91.4634 278.44 89.5415 278.39 87.59C278.33 85.92 278.62 84.06 278.3 82.64C277.78 80.25 275.38 77.8 274.1 75.51C272.466 72.262 271.484 68.7254 271.21 65.1C270.69 55.66 275.66 46.96 282.13 40.1C289.003 32.9482 297.275 27.2875 306.43 23.47C315.19 19.78 328.03 17.26 337.64 20.59C341.359 21.9351 344.687 24.1783 347.33 27.12C347.692 27.6893 348.137 28.2016 348.65 28.64C349.437 28.9219 350.257 29.1034 351.09 29.18C354.466 29.9713 357.633 31.4749 360.38 33.59C364 36.71 365.98 39.7 366.9 44.04C368.75 52.76 363.72 62.34 358 68.17C348.19 78.17 338.51 85.25 326 90.17C320.5 92.32 311.91 94.33 305.67 93.77C303.73 93.61 301.73 93.1 299.84 92.97C298.183 92.711 296.556 92.2924 294.98 91.72C294.51 91.36 293.91 91.05 293.8 91.17M305 110.57C305.504 110.675 305.998 110.819 306.48 111C310.87 112.68 312.68 116.75 313.77 121.21C316.28 131.59 317.35 154.55 317.77 163.54C318.08 170.28 318.24 176.92 318.53 183.54C318.76 189.19 319.22 196.7 318.04 201.99C317.567 204.12 316.311 205.994 314.52 207.24C312.43 208.57 307.68 208.67 305.07 208.13C298.63 206.8 296.54 202.66 295.62 196.3C293.44 181.11 294.49 151.3 295.78 138.71C296.21 134.56 297.78 121.25 299.94 115.71C300.68 113.83 302.26 110.04 305.01 110.57M109.2 135.85C109.2 135.85 99.62 136.52 93.03 137.25C84.64 138.16 68.87 140.88 59.78 144.13C57.05 145.13 51.51 147.43 51.02 150.23C50.53 153.03 52.32 155.42 54.33 157.77C55.49 159.13 62.06 165.46 63.91 167C71.63 173.44 87.29 183.38 98.82 188.22C102.82 189.85 109.34 192.22 109.34 192.22C109.34 192.22 108.85 173.56 108.94 155.17C108.94 145.46 109.2 135.87 109.2 135.87M284.86 143.29C285.4 148.29 284.12 157.79 283.86 159.04C283.163 162.546 282.207 165.995 281 169.36C279.395 172.995 277.606 176.546 275.64 180C271.48 186.805 266.417 193.014 260.59 198.46C244.1 212.71 218.59 220.83 196.67 223.46C180.801 225.354 164.739 224.906 149 222.13C143.58 221.13 135.52 219.28 135.52 219.28C135.52 219.28 135.52 222.51 135.29 224.78C135.003 226.369 134.55 227.925 133.94 229.42C133.405 230.533 132.597 231.492 131.592 232.209C130.587 232.926 129.416 233.377 128.19 233.52C124.89 234.14 121.39 234.34 118.34 233.04C113.34 230.93 111.54 226.25 110.67 220.85C109.96 216.53 109.22 209.02 109.22 209.02C109.22 209.02 105.48 207.25 102.36 205.69C93.01 201.036 84.0858 195.572 75.69 189.36C73.49 187.71 64 179.77 61.91 177.79C56.04 172.22 50.76 166.67 46.74 159.56C43.62 154.01 42.74 149.07 45.09 143.18C48.37 134.98 60.14 128.8 68.19 125.28C74.1 122.67 92.48 116.67 100.12 115.56C103.72 115.04 109.32 114.03 109.66 113.81C109.785 113.72 109.899 113.616 110 113.5C110.18 113.25 110.47 105.12 110.41 102.16C110.35 99.2 112.57 80 113.29 76C113.67 73.81 115.29 65.36 117.02 63.14C118.13 61.64 120.1 61.76 121.7 62.74C130.45 68.19 133.11 87.07 133.76 96.68C134.15 102.54 134.35 111.34 134.35 111.34C134.35 111.34 144.35 111.05 150.57 111.22C156.896 111.504 163.196 112.202 169.43 113.31C177.43 114.58 192.96 117.98 201.88 122.5C209.23 126.22 216.1 132.5 218.33 139.14C220.4 145.23 220.09 149.44 216.94 154.93C213.4 161.13 206.69 165.75 199.89 166.13C197.89 166.24 190.26 165.24 187.89 163.42C187.482 163.058 187.232 162.551 187.193 162.008C187.154 161.464 187.329 160.927 187.68 160.51C187.93 160.19 191.49 158.31 193.59 157.2C194.585 156.673 195.509 156.021 196.34 155.26C198.09 153.72 199.66 152.03 199.48 150.05C199.24 147.47 196.48 145.89 193.92 144.86C181.74 140.03 157.42 136.01 145.66 135.31C141.07 135.04 134.52 134.81 134.52 134.81L135.91 199.71C135.91 199.71 141.31 200.71 145.58 201.43C148.02 201.81 158.39 202.74 161.15 202.8C182.15 203.36 205.52 201.48 224.77 192.4C233.22 188.4 240.97 183.47 246.84 176.77C250.787 172.157 253.768 166.8 255.61 161.015C257.451 155.23 258.114 149.135 257.56 143.09C256.38 129.24 246.63 112.81 238.85 102.81C218.3 76.36 183.06 54.62 152.06 41.87C120.41 28.87 89.12 21.38 55.53 20.13C46.87 19.8 27.99 20.24 18.45 22.88C17.09 23.27 15.71 23.72 14.45 24.01C13.3921 24.2759 12.3806 24.7008 11.45 25.27C11.2849 25.4109 11.128 25.5612 10.98 25.72C10.98 25.72 11.57 26.05 12.13 26.29C13.13 26.73 17.4 27 19.6 27.4C21.6 27.77 23.6 28.81 24.43 30.25C25.26 31.69 25.3 32.7 24.38 33.85C22.22 36.48 14.08 36.03 10.49 35.47C6.90001 34.91 2.13001 33.74 1.28001 30.47C0.280008 26.65 2.10001 22.91 4.06001 19.47C8.00001 12.55 13.64 8.95 21.91 6.69C34.2085 3.40837 46.8177 1.4275 59.53 0.779993C84.61 -0.160007 108.34 4.22 132.64 11.6C148.181 16.4257 163.364 22.3335 178.08 29.28C189.435 34.8995 200.484 41.1182 211.18 47.91C213.85 49.67 229.47 61.15 231.9 63.17C236.96 67.31 243.58 73.26 248.37 78.01C257.65 87.21 269.19 101.3 274.8 112.48C276.15 115.16 277.19 117.8 278.93 120.9C280.332 123.902 281.528 126.996 282.51 130.16C282.94 131.98 283.56 134.65 283.64 134.76C283.77 135.7 285 141.17 284.86 143.27V143.29ZM600.12 128.95C588.37 131.65 557.49 133.16 557.49 133.16L553.6 145.36C553.6 145.36 569.03 144.04 580.26 145.21C580.26 145.21 583.9 144.79 584.32 149.34C584.386 152.278 584.266 155.217 583.96 158.14C583.96 158.14 583.73 160.9 579.82 161.6C575.59 162.31 546.56 163.42 546.56 163.42L541.86 179.33C541.86 179.33 540.11 183 544.03 181.95C547.67 180.95 578.08 175.27 582.03 176.09C586.27 177.15 590.97 182.81 589.61 187.97C587.99 194.36 557.61 213.72 539.14 212.37C539.14 212.37 529.43 213 521.22 199.88C513.57 187.39 524.12 163.73 524.12 163.73C524.12 163.73 519.28 152.73 522.79 148.95C522.79 148.95 524.87 147.05 530.95 146.63L538.39 131.23C538.39 131.23 529.91 131.81 524.87 125.58C520.17 119.66 519.78 116.95 523.38 115.31C527.23 113.41 562.53 106.97 586.82 107.78C586.82 107.78 595.26 106.96 602.58 121.6C602.58 121.6 606.13 127.52 600.1 128.95H600.12ZM508.76 188.13C505.65 195.46 497.43 203.27 487.21 198.42C476.99 193.57 461.07 160.67 461.07 160.67C461.07 160.67 454.97 148.41 453.79 148.73C453.79 148.73 452.48 146.34 451.67 159.73C450.86 173.12 451.83 199.07 446.51 203.16C441.51 207.27 435.37 205.64 432.2 200.84C429.33 196.11 428.13 184.89 429.7 165.17C431.54 145.41 436.13 124.4 442 117.85C447.87 111.3 452.55 116.07 454.38 117.78C454.38 117.78 462.22 124.88 475.13 145.78L477.41 149.63C477.41 149.63 489.15 169.33 490.41 169.28C490.41 169.28 491.36 170.18 492.22 169.53C493.45 169.18 492.95 162.87 492.95 162.87C492.95 162.87 490.52 141.41 479.81 105.08C478.869 102.25 478.69 99.2216 479.29 96.3C480.37 92.01 484.68 94.02 484.68 94.02C484.68 94.02 501.27 102.37 509.32 129.39C517.37 156.41 511.95 180.8 508.79 188.17L508.76 188.13ZM687.38 171.95C679.82 185.13 658.49 212.73 630.15 206.22C620.79 228.92 612.93 251.88 608.43 286.22C608.43 286.22 607.43 292.89 601.89 290.57C596.4 288.64 587.34 279.5 585.5 266.86C583.5 250.25 590.93 222.16 606.05 189.95C601.64 182.79 598.63 172.55 601.2 157.95C601.2 157.95 605 130.88 632.2 106.47C632.2 106.47 635.46 103.65 637.35 104.47C639.43 105.35 638.46 114.15 636.81 118.47C635.16 122.79 623 143.72 623 143.72C623 143.72 615.45 157.88 617.57 169.05C631.84 147.12 664.26 102.9 684.35 116.85C691.1 121.68 694.21 132.18 694.22 143.51C694.22 153.44 691.82 164.01 687.39 171.93L687.38 171.95ZM681.51 137.23C681.51 137.23 680.39 128.51 671.87 138.11C664.54 146.22 651.32 161.4 640.68 182.03C651.84 180.78 662.62 174.71 665.87 171.63C671.17 166.93 683.5 154.18 681.51 137.23Z" fill="white"/>
</g>
<defs>
<clipPath id="clip0_11674_30351">
<rect width="695" height="292" fill="white"/>
</clipPath>
</defs>
</svg>
