<svg viewBox="0 0 76 28" xmlns="http://www.w3.org/2000/svg"><g clip-path="url(#clip0_564_2120)"><path fill-rule="evenodd" d="M4 0H0V18C0 23.5228 4.47715 28 10 28C15.5228 28 20 23.5228 20 18C20 12.4772 15.5228 8 10 8C7.74879 8 5.67132 8.74389 4 9.99927V0ZM4 18C4 21.3137 6.68629 24 10 24C13.3137 24 16 21.3137 16 18C16 14.6863 13.3137 12 10 12C6.68629 12 4 14.6863 4 18Z" fill="currentColor"/><path d="M44 12C46.2091 12 48 13.7909 48 16V28H52V16C52 11.5817 48.4183 8 44 8C41.6106 8 39.4659 9.04751 38 10.7084C36.5341 9.04751 34.3894 8 32 8C27.5817 8 24 11.5817 24 16V28H28V16C28 13.7909 29.7909 12 32 12C34.2091 12 36 13.7909 36 16V28H40V16C40 13.7909 41.7909 12 44 12Z" fill="currentColor"/><path d="M75.8 20C74.8734 24.5645 70.8379 28 66 28C60.4772 28 56 23.5228 56 18C56 12.4772 60.4772 8 66 8C70.8379 8 74.8734 11.4355 75.8 16H71.6586C70.8349 13.6696 68.6124 12 66 12C62.6863 12 60 14.6863 60 18C60 21.3137 62.6863 24 66 24C68.6124 24 70.8349 22.3304 71.6586 20H75.8Z" fill="currentColor"/></g><defs><clipPath id="clip0_564_2120"><rect width="76" height="28" fill="currentColor"/></clipPath></defs></svg>