<?xml version="1.0" standalone="no"?>
<!DOCTYPE svg PUBLIC "-//W3C//DTD SVG 1.1//EN" "http://www.w3.org/Graphics/SVG/1.1/DTD/svg11.dtd" >
<svg xmlns="http://www.w3.org/2000/svg" width="100%" height="100%">
<metadata>
Created by FontXChange 20110222 at Wed Mar  6 10:23:04 2019
 By McConnell, Brian
Based on DIN 1451 the German Industrial standard by the Deutsches Institut Normung - (1936/1986)
</metadata>
<defs>
<font id="PFDinTextPro-ExtraThin" horiz-adv-x="1818" >
  <font-face 
    font-family="PFDinTextPro"
    font-weight="100"
    font-stretch="normal"
    units-per-em="1000"
    panose-1="2 0 5 6 5 0 0 2 0 4"
    ascent="750"
    descent="-250"
    x-height="494"
    cap-height="696"
    bbox="-358 -250 1760 913"
    underline-thickness="26"
    underline-position="-57"
    stemh="24"
    stemv="25"
    unicode-range="U+0020-FB05"
  />
<missing-glyph horiz-adv-x="428" 
d="M0 0v700h428v-700h-428zM229 350l179 -323v650zM20 672v-643l179 321zM214 369l170 310h-340zM44 21h340l-170 310z" />
    <glyph glyph-name="fj" unicode="fj" horiz-adv-x="405" 
d="M119 496h205v-577c0 -70 -34 -123 -112 -123h-17v23h17c60 4 86 37 86 105v552h-179v-476h-25v476h-59v20h59v114c0 85 52 113 115 113c58 0 94 -18 123 -46l-17 -19c-38 36 -71 39 -107 39c-56 0 -89 -24 -89 -92v-109z" />
    <glyph glyph-name="ffj" unicode="ffj" horiz-adv-x="609" 
d="M209 698c46 0 78 -12 104 -30c20 34 57 47 100 47c58 0 94 -18 123 -46l-17 -19c-38 36 -71 39 -107 39c-56 0 -89 -24 -89 -92v-101h205v-577c0 -70 -34 -123 -112 -123h-17v23h17c60 4 86 37 86 105v552h-179v-476h-25v476h-179v-476h-25v476h-59v20h59v89
c0 85 52 113 115 113zM119 496h179v106c0 15 1 29 5 41c-33 27 -63 29 -95 29c-56 0 -89 -24 -89 -92v-84z" />
    <glyph glyph-name="ff" unicode="ff" horiz-adv-x="451" 
d="M209 712c46 0 78 -12 104 -30c18 32 52 49 90 49h41v-23h-32c-76 0 -89 -58 -89 -101v-111h121v-19h-121v-477h-25v477h-179v-477h-25v477h-59v19h59v103c0 85 52 113 115 113zM119 496h179v123c0 14 1 27 5 38c-33 27 -63 29 -95 29c-56 0 -89 -24 -89 -92v-98z" />
    <glyph glyph-name="fi" unicode="fi" horiz-adv-x="405" 
d="M324 0h-26v476h-179v-476h-25v476h-59v20h59v114c0 85 52 113 115 113c58 0 94 -18 123 -46l-17 -19c-38 36 -71 39 -107 39c-56 0 -89 -24 -89 -92v-109h205v-496z" />
    <glyph glyph-name="fl" unicode="fl" horiz-adv-x="432" 
d="M405 0c-70 0 -106 25 -106 97v581c-34 15 -61 19 -91 19c-56 0 -89 -24 -89 -92v-110h124v-20h-124v-475h-25v475h-59v20h59v115c0 85 52 113 115 113c35 0 70 -6 115 -28v-589c0 -58 21 -81 82 -81h7v-25h-8z" />
    <glyph glyph-name="ffi" unicode="ffi" horiz-adv-x="609" 
d="M528 0h-26v476h-179v-476h-25v476h-179v-476h-25v476h-59v20h59v89c0 85 52 113 115 113c46 0 78 -12 104 -30c20 34 57 47 100 47c58 0 94 -18 123 -46l-17 -19c-38 36 -71 39 -107 39c-56 0 -89 -24 -89 -92v-101h205v-496zM119 496h179v106c0 15 1 29 5 41
c-33 27 -67 30 -95 30c-56 0 -89 -25 -89 -93v-84z" />
    <glyph glyph-name="ffl" unicode="ffl" horiz-adv-x="636" 
d="M413 723c35 0 70 -6 115 -28v-589c0 -58 21 -81 82 -81h7v-25h-8c-70 0 -106 25 -106 97v581c-34 15 -61 19 -91 19c-56 0 -89 -24 -89 -92v-109h124v-20h-124v-476h-25v476h-179v-476h-25v476h-59v20h59v89c0 85 52 113 115 113c44 0 75 -11 101 -28c19 39 58 53 103 53
zM119 580v-84h179v114c0 12 1 24 3 34c-32 26 -66 29 -93 29c-56 0 -89 -25 -89 -93z" />
    <glyph glyph-name="ft" unicode="ft" horiz-adv-x="451" 
d="M119 477v-477h-25v477h-59v19h59v113c0 74 48 112 105 112h41v-23h-32c-76 0 -89 -58 -89 -101v-101h179v135h26v-135h100v-19h-100v-364c0 -56 15 -90 85 -90h25v-23h-37c-61 0 -99 35 -99 100v377h-179z" />
    <glyph glyph-name=".notdef" horiz-adv-x="428" 
d="M0 0v700h428v-700h-428zM229 350l179 -323v650zM20 672v-643l179 321zM214 369l170 310h-340zM44 21h340l-170 310z" />
    <glyph glyph-name="quotedbl" unicode="&#x22;" horiz-adv-x="210" 
d="M140 523v173h20v-173h-20zM59 523v173h20v-173h-20z" />
    <glyph glyph-name="numbersign" unicode="#" horiz-adv-x="450" 
d="M338 453l-29 -207h105v-18h-107l-28 -228h-23l31 228h-161l-32 -228h-22l33 228h-100v18h102l30 207h-102v19h104l30 223h19l-30 -223h162l32 223h18l-30 -223h104v-19h-106zM156 453l-28 -207h161l29 207h-162z" />
    <glyph glyph-name="dollar" unicode="$" horiz-adv-x="450" 
d="M230 338v-320c96 1 181 54 181 158c0 128 -105 152 -178 162h-3zM211 368v310c-85 -4 -163 -59 -163 -161c0 -110 94 -137 163 -149zM230 -123h-19v115c-76 3 -145 28 -196 67l16 22c52 -35 114 -59 180 -63v323c-96 16 -189 53 -189 178c0 101 71 177 189 183v72h19v-72
c61 -1 119 -17 168 -46l-15 -24c-47 26 -99 44 -153 46v-314c23 -4 46 -8 68 -13c78 -20 139 -67 139 -175c0 -109 -80 -182 -207 -184v-115z" />
    <glyph glyph-name="ampersand" unicode="&#x26;" horiz-adv-x="619" 
d="M235 397l-22 28c-45 59 -67 106 -67 147c0 63 41 134 146 134c63 0 105 -11 146 -49l-20 -22c-36 31 -72 45 -125 45c-94 0 -119 -68 -119 -108c0 -41 30 -92 77 -153l215 -281c24 40 36 106 38 150h26c-5 -60 -17 -117 -45 -171l93 -117h-36l-73 95
c-61 -71 -128 -101 -211 -101c-101 0 -181 59 -181 166c0 95 62 171 158 237zM251 375c-76 -50 -148 -123 -148 -211c0 -101 82 -147 156 -147c73 0 140 35 190 98z" />
    <glyph glyph-name="quotesingle" unicode="'" horiz-adv-x="164" 
d="M74 523v173h20v-173h-20z" />
    <glyph glyph-name="parenleft" unicode="(" horiz-adv-x="248" 
d="M232 -112l-8 -6c-86 102 -151 261 -151 415c0 145 56 308 149 418l9 -6c-80 -120 -127 -268 -127 -406c0 -150 50 -299 128 -415z" />
    <glyph glyph-name="parenright" unicode=")" horiz-adv-x="248" 
d="M189 294c0 -153 -65 -313 -150 -415l-9 6c78 116 128 265 128 415c0 139 -47 286 -127 406l9 6c93 -110 149 -273 149 -418z" />
    <glyph glyph-name="asterisk" unicode="*" horiz-adv-x="334" 
d="M186 549l82 -99l-25 -20l-73 111l-70 -111l-25 20l79 99l-123 38l10 30l121 -50l-6 127h28l-7 -127l123 50l10 -30z" />
    <glyph glyph-name="plus" unicode="+" horiz-adv-x="450" 
d="M235 261v-196h-23v196h-188v24h188v193h23v-193h188v-24h-188z" />
    <glyph glyph-name="comma" unicode="," horiz-adv-x="136" 
d="M54 -93h-17l23 93h-10v44h39v-47z" />
    <glyph glyph-name="hyphen" unicode="-" horiz-adv-x="359" 
d="M54 253v26h251v-26h-251z" />
    <glyph glyph-name="period" unicode="." horiz-adv-x="129" 
d="M87 0h-38v43h38v-43z" />
    <glyph glyph-name="slash" unicode="/" horiz-adv-x="689" 
d="M104 -17h-25l423 731h27z" />
    <glyph glyph-name="zero" unicode="0" horiz-adv-x="450" 
d="M225 -5c-95 0 -179 63 -179 179v347c0 116 84 180 179 180s179 -64 179 -180v-347c0 -116 -84 -179 -179 -179zM381 515c0 98 -62 164 -156 164s-156 -66 -156 -164v-334c0 -98 62 -165 156 -165s156 67 156 165v334z" />
    <glyph glyph-name="one" unicode="1" horiz-adv-x="450" 
d="M236 0v666l-107 -69v30l106 69h26v-696h-25z" />
    <glyph glyph-name="two" unicode="2" horiz-adv-x="450" 
d="M77 567l-25 6c23 76 98 126 175 126c118 0 181 -77 181 -162c0 -43 -14 -91 -46 -132l-290 -381h332v-24h-361v25l299 392c21 27 39 83 39 117c0 78 -55 141 -154 141c-68 0 -129 -43 -150 -108z" />
    <glyph glyph-name="three" unicode="3" horiz-adv-x="450" 
d="M41 101l25 4c19 -52 67 -90 143 -90c87 0 176 64 176 170c0 105 -66 164 -151 164h-42v24h34c82 0 147 56 147 148c0 90 -61 160 -160 160c-58 0 -123 -35 -142 -95l-24 5c24 69 89 111 168 111c126 0 184 -87 184 -179c0 -48 -25 -134 -113 -161
c102 -26 124 -121 124 -173c0 -119 -90 -195 -203 -195c-69 0 -141 25 -166 107z" />
    <glyph glyph-name="four" unicode="4" horiz-adv-x="450" 
d="M372 115v-115h-25v115h-318v23l252 558h29l-257 -557h294v220h25v-220h63v-24h-63z" />
    <glyph glyph-name="five" unicode="5" horiz-adv-x="450" 
d="M56 101l21 7c21 -55 72 -93 149 -93c99 0 159 66 159 157v108c0 88 -48 157 -159 157c-46 0 -115 -34 -142 -74h-22v333h331v-24h-308v-276c51 51 113 62 149 62c127 0 174 -81 174 -183v-93c0 -109 -59 -188 -185 -188c-91 0 -144 46 -167 107z" />
    <glyph glyph-name="six" unicode="6" horiz-adv-x="450" 
d="M236 384c88 0 179 -62 179 -184c0 -150 -92 -206 -188 -206c-85 0 -174 63 -174 194c0 40 8 78 25 111l199 397h26l-176 -349l1 -2c30 28 76 39 108 39zM234 363c-90 0 -158 -66 -158 -173c0 -104 59 -176 158 -176c81 0 158 62 158 176c0 107 -69 173 -158 173z" />
    <glyph glyph-name="seven" unicode="7" horiz-adv-x="450" 
d="M152 0h-27l261 672h-314v-112h-24v136h363v-24z" />
    <glyph glyph-name="eight" unicode="8" horiz-adv-x="450" 
d="M427 184c0 -112 -87 -190 -195 -190s-195 78 -195 190c0 59 33 145 125 175c-91 33 -111 109 -111 161c0 102 79 180 181 180c106 0 181 -78 181 -180c0 -62 -28 -128 -115 -161l1 -1c95 -27 128 -114 128 -174zM232 681c-78 0 -158 -56 -158 -159
c0 -104 81 -152 158 -152s158 47 158 152c0 103 -80 159 -158 159zM232 350c-90 0 -172 -66 -172 -165c0 -98 81 -172 172 -172s172 74 172 172c0 99 -82 165 -172 165z" />
    <glyph glyph-name="nine" unicode="9" horiz-adv-x="450" 
d="M233 312c-88 0 -179 65 -179 190c0 150 96 200 188 200c88 0 174 -63 174 -194c0 -40 -8 -78 -25 -111l-199 -397h-26l172 341l-1 1c-42 -26 -80 -30 -104 -30zM235 333c90 0 158 66 158 173c0 104 -62 177 -158 177c-81 0 -158 -63 -158 -177c0 -107 69 -173 158 -173z
" />
    <glyph glyph-name="colon" unicode=":" horiz-adv-x="143" 
d="M91 328h-38v43h38v-43zM91 0h-38v43h38v-43z" />
    <glyph glyph-name="semicolon" unicode=";" horiz-adv-x="143" 
d="M56 -93h-17l23 93h-10v44h39v-47zM91 328h-38v43h38v-43z" />
    <glyph glyph-name="less" unicode="&#x3c;" horiz-adv-x="450" 
d="M421 456v-26l-369 -158l371 -156v-28l-399 173v24z" />
    <glyph glyph-name="equal" unicode="=" horiz-adv-x="450" 
d="M24 331v23h399v-23h-399zM24 162v24h399v-24h-399z" />
    <glyph glyph-name="greater" unicode="&#x3e;" horiz-adv-x="450" 
d="M27 430v26l397 -171v-24l-399 -173v28l371 156z" />
    <glyph glyph-name="question" unicode="?" horiz-adv-x="419" 
d="M55 540l-25 5c24 100 102 157 187 157c104 0 174 -72 174 -168c0 -73 -43 -119 -84 -165c-38 -42 -76 -84 -81 -146v-74h-25v76c0 61 42 112 87 159c34 36 79 89 79 145c0 61 -37 151 -154 151c-90 0 -150 -84 -158 -140zM235 0h-38v43h38v-43z" />
    <glyph glyph-name="at" unicode="@" horiz-adv-x="748" 
d="M501 412v-186c0 -30 0 -61 58 -61c104 0 145 113 145 225c0 199 -158 297 -311 297c-204 0 -342 -144 -342 -351c0 -220 148 -355 353 -355c85 0 151 16 197 39l9 -20c-65 -23 -126 -39 -202 -39c-220 0 -377 144 -377 375c0 210 140 369 357 369
c186 0 337 -110 337 -315c0 -160 -68 -245 -165 -245c-14 0 -70 2 -78 48c-27 -52 -103 -54 -136 -54c-66 0 -130 25 -130 100c0 62 40 106 120 106h144v65c0 59 -22 90 -103 90c-32 0 -82 -6 -120 -35l-11 17c46 31 96 38 130 38c72 0 125 -16 125 -108zM480 327h-138
c-58 0 -105 -26 -105 -84c0 -57 46 -86 112 -86c48 0 131 15 131 82v88z" />
    <glyph glyph-name="A" unicode="A" horiz-adv-x="578" 
d="M529 0l-61 175h-358l-62 -175h-30l253 696h36l253 -696h-31zM290 670h-2l-169 -470h340z" />
    <glyph glyph-name="B" unicode="B" horiz-adv-x="578" 
d="M355 0h-275v696h249c124 0 194 -78 194 -174c0 -52 -30 -139 -123 -162v-1c103 -18 139 -109 139 -176c0 -111 -80 -183 -184 -183zM322 672h-216v-302h216c103 0 175 59 175 152c0 88 -65 150 -175 150zM335 346h-229v-322h231c115 0 173 66 173 161
c0 86 -56 161 -175 161z" />
    <glyph glyph-name="C" unicode="C" horiz-adv-x="520" 
d="M480 139l22 -9c-34 -82 -111 -137 -212 -137c-164 0 -237 115 -237 250v215c0 131 78 243 237 243c99 0 173 -49 208 -122l-22 -13c-30 64 -96 112 -185 112c-143 0 -212 -99 -212 -222v-218c0 -120 69 -223 212 -223c92 0 153 48 189 124z" />
    <glyph glyph-name="D" unicode="D" horiz-adv-x="600" 
d="M80 696h222c105 0 177 -36 218 -124c22 -47 24 -123 24 -211c0 -101 -1 -176 -23 -229c-41 -98 -118 -132 -231 -132h-210v696zM518 271v148c0 191 -86 253 -224 253h-187v-648h187c171 0 224 106 224 247z" />
    <glyph glyph-name="E" unicode="E" horiz-adv-x="520" 
d="M80 0v696h413v-24h-386v-306h330v-24h-330v-318h386v-24h-413z" />
    <glyph glyph-name="F" unicode="F" horiz-adv-x="499" 
d="M109 672v-307h328v-23h-328v-342h-29v696h413v-24h-384z" />
    <glyph glyph-name="G" unicode="G" horiz-adv-x="578" 
d="M288 701c99 0 173 -49 208 -122c-7 -5 -14 -8 -22 -13c-30 64 -96 112 -185 112c-143 0 -212 -99 -212 -222v-218c0 -120 69 -223 212 -223c132 0 210 102 210 214v89h-163v24h189v-100c0 -137 -85 -249 -237 -249c-164 0 -237 115 -237 250v215c0 131 78 243 237 243z
" />
    <glyph glyph-name="H" unicode="H" horiz-adv-x="619" 
d="M513 0v342h-407v-342h-26v696h26v-330h407v330h26v-696h-26z" />
    <glyph glyph-name="I" unicode="I" horiz-adv-x="198" 
d="M86 0v696h26v-696h-26z" />
    <glyph glyph-name="J" unicode="J" horiz-adv-x="439" 
d="M177 -6c-47 0 -100 16 -136 46l16 20c41 -32 84 -41 121 -41c96 0 164 49 164 190v487h26v-506c0 -134 -85 -196 -191 -196z" />
    <glyph glyph-name="K" unicode="K" horiz-adv-x="600" 
d="M538 0l-243 414l-189 -233v-181h-26v696h26v-477l388 477h28l-210 -262l254 -434h-28z" />
    <glyph glyph-name="L" unicode="L" horiz-adv-x="520" 
d="M80 0v696h26v-672h387v-24h-413z" />
    <glyph glyph-name="M" unicode="M" horiz-adv-x="738" 
d="M642 0v639l-258 -527h-21l-259 526v-638h-25v696h28l267 -547l268 547h25v-696h-25z" />
    <glyph glyph-name="N" unicode="N" horiz-adv-x="658" 
d="M549 0l-440 653v-653h-26v696h29l440 -654v654h26v-696h-29z" />
    <glyph glyph-name="O" unicode="O" horiz-adv-x="559" 
d="M280 701c147 0 233 -101 233 -243v-215c0 -153 -88 -250 -233 -250c-164 0 -237 115 -237 250v215c0 131 78 243 237 243zM281 676c-141 0 -211 -99 -211 -220v-218c0 -118 70 -221 211 -221c128 0 205 94 205 227v212c0 125 -76 220 -205 220z" />
    <glyph glyph-name="P" unicode="P" horiz-adv-x="546" 
d="M82 696h245c109 0 209 -52 209 -198c0 -89 -60 -191 -201 -191h-226v-307h-27v696zM109 672v-340h221c128 0 177 85 177 169c0 116 -82 171 -181 171h-217z" />
    <glyph glyph-name="Q" unicode="Q" horiz-adv-x="578" 
d="M280 701c147 0 233 -101 233 -243v-215c0 -58 -13 -107 -36 -147l104 -82l-15 -17c-34 26 -53 41 -102 80c-40 -54 -103 -84 -184 -84c-164 0 -237 115 -237 250v215c0 131 78 243 237 243zM281 676c-141 0 -210 -99 -210 -220v-218c0 -118 69 -221 210 -221
c71 0 126 29 161 77l-104 84l15 18l101 -81c20 36 31 79 31 129v212c0 125 -75 220 -204 220z" />
    <glyph glyph-name="R" unicode="R" horiz-adv-x="578" 
d="M497 0l-166 331h-223v-331h-26v696h260c117 0 197 -63 197 -175c0 -102 -68 -178 -178 -189l169 -332h-33zM332 672h-224v-316h221c102 0 181 56 181 165s-90 151 -178 151z" />
    <glyph glyph-name="S" unicode="S" horiz-adv-x="523" 
d="M259 -6c-87 0 -160 20 -229 65l15 22c63 -40 138 -63 216 -63c116 0 207 53 207 158c0 128 -114 156 -200 172c-100 19 -202 46 -202 169c0 109 76 185 211 185c68 0 134 -17 187 -46l-13 -23c-53 28 -114 45 -176 45c-87 0 -182 -44 -182 -161c0 -116 105 -128 182 -144
c114 -24 220 -55 220 -197c0 -110 -87 -182 -236 -182z" />
    <glyph glyph-name="T" unicode="T" horiz-adv-x="474" 
d="M252 672v-672h-25v672h-215v24h452v-24h-212z" />
    <glyph glyph-name="U" unicode="U" horiz-adv-x="600" 
d="M300 -6c-131 0 -234 93 -234 238v464h26v-451c0 -130 84 -226 208 -226c119 0 207 81 207 215v462h27v-474c0 -137 -101 -228 -234 -228z" />
    <glyph glyph-name="V" unicode="V" horiz-adv-x="520" 
d="M274 0h-28l-228 696h25l217 -662h1l216 662h25z" />
    <glyph glyph-name="W" unicode="W" horiz-adv-x="802" 
d="M783 696l-168 -696h-28l-184 651h-1l-182 -651h-28l-168 696h25l157 -659h1l184 659h25l184 -659h1l156 659h26z" />
    <glyph glyph-name="X" unicode="X" horiz-adv-x="489" 
d="M442 0l-198 333l-198 -333h-29l213 357l-198 339h29l183 -314l183 314h29l-198 -339l213 -357h-29z" />
    <glyph glyph-name="Y" unicode="Y" horiz-adv-x="459" 
d="M242 289v-289h-25v289l-208 407h27l194 -381l193 381h26z" />
    <glyph glyph-name="Z" unicode="Z" horiz-adv-x="480" 
d="M33 0v25l385 647h-368v24h396v-25l-384 -647h384v-24h-413z" />
    <glyph glyph-name="bracketleft" unicode="[" horiz-adv-x="220" 
d="M78 -111v807h128v-24h-101v-760h101v-23h-128z" />
    <glyph glyph-name="backslash" unicode="\" horiz-adv-x="279" 
d="M268 -42h-21l-252 767h21z" />
    <glyph glyph-name="bracketright" unicode="]" horiz-adv-x="220" 
d="M39 -111v23h101v760h-101v24h127v-807h-127z" />
    <glyph glyph-name="asciicircum" unicode="^" horiz-adv-x="450" 
d="M388 337h-26l-140 327l-138 -329h-28l155 357h24z" />
    <glyph glyph-name="underscore" unicode="_" horiz-adv-x="490" 
d="M0 -96v26h490v-26h-490z" />
    <glyph glyph-name="grave" unicode="`" horiz-adv-x="477" 
d="M326 577l-15 -8l-99 134l32 16z" />
    <glyph glyph-name="a" unicode="a" horiz-adv-x="465" 
d="M387 60h-2c-37 -59 -111 -67 -179 -67c-87 0 -174 40 -174 140c0 82 55 135 160 135h195v78c0 83 -39 133 -158 133c-43 0 -99 -8 -148 -51l-16 17c42 38 96 56 167 56c99 0 180 -28 180 -150v-351h-25v60zM387 246h-190c-86 0 -140 -35 -140 -113s63 -118 153 -118
c64 0 177 19 177 112v119z" />
    <glyph glyph-name="b" unicode="b" horiz-adv-x="450" 
d="M230 -7c-50 0 -120 11 -163 108h-1v-101h-25v721h25v-331h1c25 55 68 110 161 110c156 0 190 -128 190 -249c0 -144 -49 -258 -188 -258zM227 480c-115 0 -161 -105 -161 -236c0 -91 23 -230 161 -230c143 0 164 137 164 233c0 102 -23 233 -164 233z" />
    <glyph glyph-name="c" unicode="c" horiz-adv-x="405" 
d="M249 -7c-109 0 -218 66 -218 254s109 254 218 254c53 0 99 -18 136 -47l-15 -19c-28 23 -71 45 -115 45c-127 0 -199 -85 -199 -233s72 -234 199 -234c44 0 87 23 115 45l15 -17c-37 -29 -83 -48 -136 -48z" />
    <glyph glyph-name="d" unicode="d" horiz-adv-x="450" 
d="M404 0h-24v102h-1c-48 -100 -118 -109 -170 -109c-142 0 -181 114 -181 258c0 121 37 249 190 249c95 0 136 -56 161 -105h1v326h24v-721zM380 244c0 131 -47 235 -161 235c-142 0 -165 -130 -165 -232c0 -96 14 -233 161 -233c138 0 165 139 165 230z" />
    <glyph glyph-name="e" unicode="e" horiz-adv-x="465" 
d="M66 251c-1 -128 42 -238 186 -238c43 0 87 15 122 39l15 -18c-40 -28 -86 -41 -135 -41c-99 0 -211 42 -211 252c0 204 106 256 197 256c141 0 192 -107 192 -230v-20h-366zM241 480c-106 0 -167 -76 -173 -208h338c-5 141 -66 208 -165 208z" />
    <glyph glyph-name="f" unicode="f" horiz-adv-x="247" 
d="M119 477v-477h-25v477h-59v19h59v113c0 74 48 112 105 112h41v-23h-32c-76 0 -89 -58 -89 -101v-101h121v-19h-121z" />
    <glyph glyph-name="g" unicode="g" horiz-adv-x="491" 
d="M426 496v-493c0 -151 -94 -207 -204 -207c-42 0 -89 13 -126 41l15 19c30 -21 68 -38 111 -38c108 0 180 61 180 172v117h-1c-29 -64 -75 -112 -164 -112c-153 0 -188 130 -188 252c0 138 52 254 189 254c59 0 121 -15 163 -105h1v100h24zM402 252c0 91 -30 227 -161 227
c-144 0 -166 -136 -166 -232c0 -103 25 -231 166 -231c111 0 161 105 161 236z" />
    <glyph glyph-name="h" unicode="h" horiz-adv-x="509" 
d="M417 0v327c0 100 -58 151 -154 151c-94 0 -171 -73 -171 -176v-302h-24v721h24v-323h2c33 73 111 102 171 102c119 0 176 -63 176 -166v-334h-24z" />
    <glyph glyph-name="i" unicode="i" horiz-adv-x="186" 
d="M76 665v32h33v-32h-33zM106 0h-25v496h25v-496z" />
    <glyph glyph-name="j" unicode="j" horiz-adv-x="206" 
d="M91 666v31h34v-31h-34zM9 -204h-17v23h17c60 4 86 37 86 105v571h26v-576c0 -70 -34 -123 -112 -123z" />
    <glyph glyph-name="k" unicode="k" horiz-adv-x="465" 
d="M433 0l-194 301l-142 -164v-137h-24v721h24v-549l287 324h30l-158 -180l204 -316h-27z" />
    <glyph glyph-name="l" unicode="l" horiz-adv-x="206" 
d="M179 0c-70 0 -106 25 -106 97v624h25v-615c0 -58 21 -81 82 -81h7v-25h-8z" />
    <glyph glyph-name="m" unicode="m" horiz-adv-x="839" 
d="M750 0v327c0 100 -62 151 -149 151c-95 0 -171 -69 -171 -172v-306h-24v327c0 100 -67 151 -154 151c-95 0 -165 -69 -165 -172v-306h-24v496h24v-92h2c32 73 105 96 164 96c88 0 147 -42 169 -113c31 73 98 113 180 113c108 0 173 -63 173 -166v-334h-25z" />
    <glyph glyph-name="n" unicode="n" horiz-adv-x="500" 
d="M412 0v327c0 100 -58 151 -154 151c-94 0 -171 -73 -171 -176v-302h-24v494h24v-96h2c33 73 111 102 171 102c119 0 176 -63 176 -166v-334h-24z" />
    <glyph glyph-name="o" unicode="o" horiz-adv-x="477" 
d="M241 501c71 0 126 -28 159 -79c21 -33 36 -80 36 -178c0 -102 -25 -160 -57 -195c-33 -36 -81 -55 -143 -55c-58 0 -101 17 -132 47c-39 39 -63 101 -63 210c0 107 29 168 70 204c32 28 75 46 130 46zM240 479c-51 0 -91 -19 -119 -48c-33 -34 -55 -82 -55 -183
c0 -102 22 -154 56 -189c28 -28 68 -44 117 -44c50 0 93 19 121 48c30 32 51 78 51 182c0 98 -15 139 -34 166c-29 42 -78 68 -137 68z" />
    <glyph glyph-name="p" unicode="p" horiz-adv-x="489" 
d="M59 496h25v-98h1c43 88 112 105 166 105c145 0 184 -114 184 -258c0 -121 -43 -249 -190 -249c-89 0 -133 49 -160 105h-1v-301h-25v696zM84 252c0 -131 46 -235 161 -235c140 0 165 129 165 232c0 96 -14 233 -159 233c-138 0 -167 -139 -167 -230z" />
    <glyph glyph-name="q" unicode="q" horiz-adv-x="489" 
d="M421 -200h-25v310h-1c-23 -59 -67 -114 -164 -114c-151 0 -186 133 -186 249c0 138 45 258 191 258c64 0 126 -24 159 -110h1v103h25v-696zM396 252c0 91 -30 230 -161 230c-140 0 -165 -137 -165 -233c0 -103 27 -231 164 -231c110 0 162 103 162 234z" />
    <glyph glyph-name="r" unicode="r" horiz-adv-x="327" 
d="M324 467c-23 9 -47 12 -64 12c-95 0 -163 -70 -163 -173v-306h-24v496h24v-96h2c34 78 103 101 162 101c26 0 51 -3 70 -9z" />
    <glyph glyph-name="s" unicode="s" horiz-adv-x="440" 
d="M402 128c0 -73 -59 -135 -190 -135c-70 0 -137 18 -188 55l14 20c49 -37 115 -53 183 -53c60 0 155 23 155 116c0 78 -81 104 -149 114c-96 15 -175 33 -175 119c0 85 68 137 177 137c68 0 113 -13 156 -40l-14 -21c-39 24 -84 39 -138 39c-86 0 -153 -36 -155 -111
c0 -77 76 -87 147 -99c85 -14 177 -39 177 -141z" />
    <glyph glyph-name="t" unicode="t" horiz-adv-x="250" 
d="M228 0h-37c-61 0 -99 35 -99 100v376h-72v20h72v135h26v-135h100v-20h-100v-363c0 -57 18 -90 85 -90h25v-23z" />
    <glyph glyph-name="u" unicode="u" horiz-adv-x="518" 
d="M443 0h-24v92h-2c-31 -69 -112 -97 -171 -97c-115 0 -176 70 -176 172v329h25v-327c0 -100 65 -152 152 -152c95 0 173 70 173 173v306h23v-496z" />
    <glyph glyph-name="v" unicode="v" horiz-adv-x="425" 
d="M408 494l-182 -494h-27l-183 494h28l168 -460h2l166 460h28z" />
    <glyph glyph-name="w" unicode="w" horiz-adv-x="695" 
d="M686 494l-152 -494h-28l-158 453h-1l-158 -453h-27l-153 494h28l138 -460h2l157 460h28l156 -460h2l139 460h27z" />
    <glyph glyph-name="x" unicode="x" horiz-adv-x="430" 
d="M394 0h-29l-151 238l-150 -238h-29l163 254l-154 241h29l141 -224l140 224h31l-156 -241z" />
    <glyph glyph-name="y" unicode="y" horiz-adv-x="409" 
d="M184 -115c-19 -55 -60 -86 -105 -86h-17v23h15c36 0 69 25 87 78l29 86l-186 508h28l171 -474h1l168 474h27z" />
    <glyph glyph-name="z" unicode="z" horiz-adv-x="414" 
d="M36 0v20l314 454h-299v21h327v-20l-313 -454h313v-21h-342z" />
    <glyph glyph-name="braceleft" unicode="{" horiz-adv-x="220" 
d="M104 128c0 94 -9 141 -68 159v13c63 19 69 99 69 161v135c0 59 25 100 73 100h36v-16h-31c-54 0 -59 -59 -59 -98v-139c0 -79 -28 -136 -63 -148v-1c41 -13 63 -66 63 -140v-152c0 -38 5 -97 59 -97h31v-17h-36c-48 0 -74 41 -74 100v140z" />
    <glyph glyph-name="bar" unicode="|" horiz-adv-x="159" 
d="M73 -162v878h19v-878h-19z" />
    <glyph glyph-name="braceright" unicode="}" horiz-adv-x="220" 
d="M146 128v-140c0 -59 -26 -100 -74 -100h-36v17h31c54 0 59 59 59 97v152c0 74 22 127 63 140v1c-35 12 -63 69 -63 148v139c0 39 -5 98 -59 98h-31v16h36c48 0 73 -41 73 -100v-135c0 -62 6 -142 69 -161v-13c-59 -18 -68 -65 -68 -159z" />
    <glyph glyph-name="asciitilde" unicode="~" horiz-adv-x="450" 
d="M157 297c47 0 106 -42 146 -42c26 0 43 15 66 43l23 -15c-28 -41 -57 -56 -90 -56c-43 0 -103 42 -148 42c-31 0 -57 -18 -80 -42l-20 15c29 35 65 55 103 55z" />
    <glyph glyph-name="Adieresis" unicode="&#xc4;" horiz-adv-x="578" 
d="M357 753v36h38v-36h-38zM179 753v36h38v-36h-38zM529 0l-61 175h-358l-62 -175h-30l253 696h36l253 -696h-31zM290 670h-2l-169 -470h340z" />
    <glyph glyph-name="Ccedilla" unicode="&#xc7;" horiz-adv-x="520" 
d="M480 139l22 -9c-34 -80 -108 -134 -206 -137l-13 -39c77 -7 91 -46 91 -73s-21 -67 -92 -67c-25 0 -45 5 -62 12l7 19c23 -8 35 -10 55 -10c29 0 66 10 66 48c0 34 -41 52 -86 52l-5 4l17 55c-153 6 -221 118 -221 249v215c0 131 78 243 237 243c99 0 173 -49 208 -122
l-22 -13c-30 64 -96 112 -185 112c-143 0 -212 -99 -212 -222v-218c0 -120 69 -223 212 -223c92 0 153 48 189 124z" />
    <glyph glyph-name="Eacute" unicode="&#xc9;" horiz-adv-x="520" 
d="M242 724l-11 13l129 101l24 -26zM80 0v696h413v-24h-386v-306h330v-24h-330v-318h386v-24h-413z" />
    <glyph glyph-name="Odieresis" unicode="&#xd6;" horiz-adv-x="559" 
d="M349 753v36h38v-36h-38zM171 753v36h38v-36h-38zM280 701c147 0 233 -101 233 -243v-215c0 -153 -88 -250 -233 -250c-164 0 -237 115 -237 250v215c0 131 78 243 237 243zM281 676c-141 0 -211 -99 -211 -220v-218c0 -118 70 -221 211 -221c128 0 205 94 205 227v212
c0 125 -76 220 -205 220z" />
    <glyph glyph-name="Udieresis" unicode="&#xdc;" horiz-adv-x="600" 
d="M372 753v36h38v-36h-38zM194 753v36h38v-36h-38zM300 -6c-131 0 -234 93 -234 238v464h26v-451c0 -130 84 -226 208 -226c119 0 207 81 207 215v462h27v-474c0 -137 -101 -228 -234 -228z" />
    <glyph glyph-name="dieresistonos" unicode="&#x385;" horiz-adv-x="477" 
d="M190 569l-15 8l82 142l32 -16zM294 614v36h38v-36h-38zM125 614v36h38v-36h-38z" />
    <glyph glyph-name="agrave" unicode="&#xe0;" horiz-adv-x="465" 
d="M387 60h-2c-37 -59 -111 -67 -179 -67c-87 0 -174 40 -174 140c0 82 55 135 160 135h195v78c0 83 -39 133 -158 133c-43 0 -99 -8 -148 -51l-16 17c42 38 96 56 167 56c99 0 180 -28 180 -150v-351h-25v60zM387 246h-190c-86 0 -140 -35 -140 -113s63 -118 153 -118
c64 0 177 19 177 112v119zM276 577l-15 -8l-99 134l32 16z" />
    <glyph glyph-name="acircumflex" unicode="&#xe2;" horiz-adv-x="465" 
d="M387 60h-2c-37 -59 -111 -67 -179 -67c-87 0 -174 40 -174 140c0 82 55 135 160 135h195v78c0 83 -39 133 -158 133c-43 0 -99 -8 -148 -51l-16 17c42 38 96 56 167 56c99 0 180 -28 180 -150v-351h-25v60zM387 246h-190c-86 0 -140 -35 -140 -113s63 -118 153 -118
c64 0 177 19 177 112v119zM359 559l-122 92l-123 -93l-12 13l122 110h29l118 -110z" />
    <glyph glyph-name="adieresis" unicode="&#xe4;" horiz-adv-x="465" 
d="M387 60h-2c-37 -59 -111 -67 -179 -67c-87 0 -174 40 -174 140c0 82 55 135 160 135h195v78c0 83 -39 133 -158 133c-43 0 -99 -8 -148 -51l-16 17c42 38 96 56 167 56c99 0 180 -28 180 -150v-351h-25v60zM387 246h-190c-86 0 -140 -35 -140 -113s63 -118 153 -118
c64 0 177 19 177 112v119zM322 614v36h38v-36h-38zM128 614v36h38v-36h-38z" />
    <glyph glyph-name="tonos" unicode="&#x384;" horiz-adv-x="477" 
d="M227 569l-15 8l82 142l32 -16z" />
    <glyph glyph-name="dieresis" unicode="&#xa8;" horiz-adv-x="477" 
d="M322 614v36h38v-36h-38zM128 614v36h38v-36h-38z" />
    <glyph glyph-name="ccedilla" unicode="&#xe7;" horiz-adv-x="405" 
d="M249 -7h-3l-13 -39c77 -7 91 -46 91 -73s-21 -67 -92 -67c-25 0 -45 5 -62 12l7 19c23 -8 35 -10 55 -10c29 0 66 10 66 48c0 34 -41 52 -86 52l-5 4l18 55c-101 9 -194 79 -194 253c0 188 109 254 218 254c53 0 99 -18 136 -47l-15 -19c-28 23 -71 45 -115 45
c-127 0 -199 -85 -199 -233s72 -234 199 -234c44 0 87 23 115 45l15 -17c-37 -29 -83 -48 -136 -48z" />
    <glyph glyph-name="eacute" unicode="&#xe9;" horiz-adv-x="465" 
d="M66 251c-1 -128 42 -238 186 -238c43 0 87 15 122 39l15 -18c-40 -28 -86 -41 -135 -41c-99 0 -211 42 -211 252c0 204 106 256 197 256c141 0 192 -107 192 -230v-20h-366zM241 480c-106 0 -167 -76 -173 -208h338c-5 141 -66 208 -165 208zM227 569l-15 8l82 142
l32 -16z" />
    <glyph glyph-name="egrave" unicode="&#xe8;" horiz-adv-x="465" 
d="M66 251c-1 -128 42 -238 186 -238c43 0 87 15 122 39l15 -18c-40 -28 -86 -41 -135 -41c-99 0 -211 42 -211 252c0 204 106 256 197 256c141 0 192 -107 192 -230v-20h-366zM241 480c-106 0 -167 -76 -173 -208h338c-5 141 -66 208 -165 208zM280 577l-15 -8l-99 134
l32 16z" />
    <glyph glyph-name="ecircumflex" unicode="&#xea;" horiz-adv-x="465" 
d="M66 251c-1 -128 42 -238 186 -238c43 0 87 15 122 39l15 -18c-40 -28 -86 -41 -135 -41c-99 0 -211 42 -211 252c0 204 106 256 197 256c141 0 192 -107 192 -230v-20h-366zM241 480c-106 0 -167 -76 -173 -208h338c-5 141 -66 208 -165 208zM359 559l-122 92l-123 -93
l-12 13l122 110h29l118 -110z" />
    <glyph glyph-name="edieresis" unicode="&#xeb;" horiz-adv-x="465" 
d="M66 251c-1 -128 42 -238 186 -238c43 0 87 15 122 39l15 -18c-40 -28 -86 -41 -135 -41c-99 0 -211 42 -211 252c0 204 106 256 197 256c141 0 192 -107 192 -230v-20h-366zM241 480c-106 0 -167 -76 -173 -208h338c-5 141 -66 208 -165 208zM322 614v36h38v-36h-38z
M128 614v36h38v-36h-38z" />
    <glyph glyph-name="sterling" unicode="&#xa3;" horiz-adv-x="450" 
d="M30 0v24c55 73 87 161 84 284h-86v18h84c-4 31 -9 47 -14 63c-14 46 -39 98 -39 146c0 85 51 164 169 164c85 0 136 -35 171 -82l-19 -11c-36 50 -86 74 -155 74c-57 0 -143 -31 -143 -145c0 -28 10 -62 22 -95c13 -34 22 -60 31 -114h146v-18h-145
c0 -104 -16 -198 -83 -284h368v-24h-391z" />
    <glyph glyph-name="trademark" unicode="&#x2122;" horiz-adv-x="787" 
d="M682 320v330c-47 -90 -95 -183 -143 -273h-15l-144 273v-330h-21v375h21l152 -291c50 96 103 195 152 291h19v-375h-21zM181 673v-353h-22v353h-118v23h258v-23h-118z" />
    <glyph glyph-name="icircumflex" unicode="&#xee;" horiz-adv-x="229" 
d="M127 0h-25v496h25v-496zM237 559l-122 92l-123 -93l-12 13l122 110h29l118 -110z" />
    <glyph glyph-name="idieresis" unicode="&#xef;" horiz-adv-x="202" 
d="M114 0h-25v496h25v-496zM179 614v36h38v-36h-38zM-15 614v36h38v-36h-38z" />
    <glyph glyph-name="bullet" unicode="&#x2022;" horiz-adv-x="328" 
d="M167 189c-40 0 -72 33 -72 73c0 41 32 74 72 74c39 0 71 -33 71 -74s-32 -73 -71 -73z" />
    <glyph glyph-name="ocircumflex" unicode="&#xf4;" horiz-adv-x="477" 
d="M241 501c71 0 126 -28 159 -79c21 -33 36 -80 36 -178c0 -102 -25 -160 -57 -195c-33 -36 -81 -55 -143 -55c-58 0 -101 17 -132 47c-39 39 -63 101 -63 210c0 107 29 168 70 204c32 28 75 46 130 46zM240 479c-51 0 -91 -19 -119 -48c-33 -34 -55 -82 -55 -183
c0 -102 22 -154 56 -189c28 -28 68 -44 117 -44c50 0 93 19 121 48c30 32 51 78 51 182c0 98 -15 139 -34 166c-29 42 -78 68 -137 68zM361 559l-122 92l-123 -93l-12 13l122 110h29l118 -110z" />
    <glyph glyph-name="odieresis" unicode="&#xf6;" horiz-adv-x="477" 
d="M241 501c71 0 126 -28 159 -79c21 -33 36 -80 36 -178c0 -102 -25 -160 -57 -195c-33 -36 -81 -55 -143 -55c-58 0 -101 17 -132 47c-39 39 -63 101 -63 210c0 107 29 168 70 204c32 28 75 46 130 46zM240 479c-51 0 -91 -19 -119 -48c-33 -34 -55 -82 -55 -183
c0 -102 22 -154 56 -189c28 -28 68 -44 117 -44c50 0 93 19 121 48c30 32 51 78 51 182c0 98 -15 139 -34 166c-29 42 -78 68 -137 68zM316 614v36h38v-36h-38zM122 614v36h38v-36h-38z" />
    <glyph glyph-name="otilde" unicode="&#xf5;" horiz-adv-x="477" 
d="M241 501c71 0 126 -28 159 -79c21 -33 36 -80 36 -178c0 -102 -25 -160 -57 -195c-33 -36 -81 -55 -143 -55c-58 0 -101 17 -132 47c-39 39 -63 101 -63 210c0 107 29 168 70 204c32 28 75 46 130 46zM240 479c-51 0 -91 -19 -119 -48c-33 -34 -55 -82 -55 -183
c0 -102 22 -154 56 -189c28 -28 68 -44 117 -44c50 0 93 19 121 48c30 32 51 78 51 182c0 98 -15 139 -34 166c-29 42 -78 68 -137 68zM193 659c39 0 88 -40 121 -40c21 0 34 12 53 39l20 -12c-23 -40 -47 -54 -74 -54c-36 0 -85 40 -122 40c-26 0 -45 -15 -64 -38l-19 12
c24 34 54 53 85 53z" />
    <glyph glyph-name="sfthyphen" unicode="&#xad;" horiz-adv-x="359" 
d="M54 253v26h251v-26h-251z" />
    <glyph glyph-name="ugrave" unicode="&#xf9;" horiz-adv-x="518" 
d="M443 0h-24v92h-2c-31 -69 -112 -97 -171 -97c-115 0 -176 70 -176 172v329h25v-327c0 -100 65 -152 152 -152c95 0 173 70 173 173v306h23v-496zM296 577l-15 -8l-99 134l32 16z" />
    <glyph glyph-name="ucircumflex" unicode="&#xfb;" horiz-adv-x="518" 
d="M443 0h-24v92h-2c-31 -69 -112 -97 -171 -97c-115 0 -176 70 -176 172v329h25v-327c0 -100 65 -152 152 -152c95 0 173 70 173 173v306h23v-496zM381 559l-122 92l-123 -93l-12 13l122 110h29l118 -110z" />
    <glyph glyph-name="udieresis" unicode="&#xfc;" horiz-adv-x="518" 
d="M443 0h-24v92h-2c-31 -69 -112 -97 -171 -97c-115 0 -176 70 -176 172v329h25v-327c0 -100 65 -152 152 -152c95 0 173 70 173 173v306h23v-496zM333 614v36h38v-36h-38zM139 614v36h38v-36h-38z" />
    <glyph glyph-name="dagger" unicode="&#x2020;" horiz-adv-x="438" 
d="M233 422v-620h-29v620h-181v28h181v246h29v-246h182v-28h-182z" />
    <glyph glyph-name="Gamma" unicode="&#x393;" horiz-adv-x="499" 
d="M109 672v-672h-29v696h413v-24h-384z" />
    <glyph glyph-name="Delta" unicode="&#x394;" horiz-adv-x="578" 
d="M18 0l253 696h36l253 -696h-542zM290 670h-2l-231 -646h465z" />
    <glyph glyph-name="Delta" unicode="&#x2206;" horiz-adv-x="578" 
d="M18 0l253 696h36l253 -696h-542zM290 670h-2l-231 -646h465z" />
    <glyph glyph-name="Theta" unicode="&#x398;" horiz-adv-x="559" 
d="M280 701c147 0 233 -101 233 -243v-215c0 -153 -88 -250 -233 -250c-164 0 -237 115 -237 250v215c0 131 78 243 237 243zM281 676c-141 0 -210 -99 -210 -220v-218c0 -118 69 -221 210 -221c128 0 204 94 204 227v212c0 125 -75 220 -204 220zM123 344v24h313v-24h-313z
" />
    <glyph glyph-name="Lambda" unicode="&#x39b;" horiz-adv-x="578" 
d="M560 0h-31c-72 208 -27 82 -239 670h-2c-212 -588 -167 -462 -240 -670h-30l253 696h36z" />
    <glyph glyph-name="Xi" unicode="&#x39e;" horiz-adv-x="547" 
d="M59 672v24h424v-24h-424zM118 341v24h307v-24h-307zM59 0v24h424v-24h-424z" />
    <glyph glyph-name="Pi" unicode="&#x3a0;" horiz-adv-x="619" 
d="M513 0v672h-407v-672h-26v696h459v-696h-26z" />
    <glyph glyph-name="germandbls" unicode="&#xdf;" horiz-adv-x="505" 
d="M454 228c0 -177 -87 -228 -173 -228h-27v23h21c107 0 153 86 153 206c0 112 -68 173 -149 173h-7v21h9c76 0 120 74 120 134s-35 142 -149 142c-122 0 -152 -101 -152 -168v-531h-25v533c0 109 60 188 181 188c111 0 171 -77 171 -154c0 -50 -18 -118 -86 -150v-3
c80 -25 113 -104 113 -186z" />
    <glyph glyph-name="registered" unicode="&#xae;" horiz-adv-x="539" 
d="M273 280c-112 0 -201 92 -201 212c0 121 89 212 201 212c115 0 201 -91 201 -212c0 -120 -88 -212 -201 -212zM273 688c-103 0 -180 -86 -180 -196s77 -196 180 -196s181 86 181 196s-78 196 -181 196zM310 484l60 -114h-21l-59 113h-71v-113h-18v244h96
c42 0 73 -23 73 -63c0 -35 -23 -62 -60 -67zM293 598h-74v-99h73c34 0 59 17 59 52c0 33 -28 47 -58 47z" />
    <glyph glyph-name="copyright" unicode="&#xa9;" horiz-adv-x="768" 
d="M497 217l23 -10c-23 -49 -70 -80 -128 -80c-100 0 -144 70 -144 150v124c0 79 51 147 144 147c57 0 103 -29 126 -73l-22 -13c-18 36 -56 63 -103 63c-82 0 -121 -56 -121 -125v-125c0 -67 39 -125 121 -125c48 0 83 25 104 67zM388 -11c-191 0 -338 152 -338 352
c0 201 147 353 338 353c192 0 340 -152 340 -353c0 -200 -148 -352 -340 -352zM388 672c-176 0 -312 -146 -312 -331c0 -184 136 -331 312 -331c177 0 315 147 315 331c0 185 -138 331 -315 331z" />
    <glyph glyph-name="Sigma" unicode="&#x3a3;" horiz-adv-x="473" 
d="M436 672h-373l197 -310l-198 -338h384v-24h-413v25l198 337l-195 309v25h400v-24z" />
    <glyph glyph-name="Iotadieresis" unicode="&#x3aa;" horiz-adv-x="198" 
d="M170 753v36h38v-36h-38zM-8 753v36h38v-36h-38zM86 0v696h26v-696h-26z" />
    <glyph glyph-name="section" unicode="&#xa7;" horiz-adv-x="438" 
d="M54 -22l16 16c41 -33 89 -51 133 -51c84 0 151 34 151 124c0 75 -66 108 -150 138c-118 43 -156 77 -156 152c0 38 22 80 62 111c-24 22 -47 59 -47 96c0 84 58 139 149 139c58 0 109 -18 146 -48l-17 -22c-37 31 -80 46 -129 46c-74 0 -124 -44 -124 -110
c0 -83 86 -108 158 -135c76 -28 149 -68 149 -155c0 -42 -16 -84 -55 -115c27 -31 38 -61 38 -99c0 -83 -59 -145 -173 -145c-55 0 -116 26 -151 58zM218 418c-31 11 -58 24 -86 39c-34 -26 -60 -65 -60 -100c0 -90 87 -104 137 -128c39 -16 82 -34 111 -51
c35 26 50 62 50 100c0 79 -65 109 -152 140z" />
    <glyph glyph-name="degree" unicode="&#xb0;" horiz-adv-x="351" 
d="M176 465c-66 0 -117 52 -117 117s53 116 117 116c68 0 117 -51 117 -116s-51 -117 -117 -117zM176 678c-53 0 -94 -43 -94 -96s41 -96 94 -96c52 0 94 38 94 96c0 53 -42 96 -94 96z" />
    <glyph glyph-name="periodcentered" unicode="&#xb7;" horiz-adv-x="143" 
d="M90 241h-38v43h38v-43z" />
    <glyph glyph-name="Alpha" unicode="&#x391;" horiz-adv-x="578" 
d="M529 0l-61 175h-358l-62 -175h-30l253 696h36l253 -696h-31zM290 670h-2l-169 -470h340z" />
    <glyph glyph-name="plusminus" unicode="&#xb1;" horiz-adv-x="450" 
d="M24 0v24h401v-24h-401zM235 261v-196h-23v196h-188v24h188v193h23v-193h188v-24h-188z" />
    <glyph glyph-name="yen" unicode="&#xa5;" horiz-adv-x="450" 
d="M420 236v-23h-182v-213h-25v213h-180v23h180v53l-13 26h-167v22h156l-184 359h27l194 -381l193 381h26l-182 -359h157v-22h-169l-13 -26v-53h182z" />
    <glyph glyph-name="Beta" unicode="&#x392;" horiz-adv-x="578" 
d="M355 0h-275v696h249c124 0 194 -78 194 -174c0 -52 -30 -139 -123 -162v-1c103 -18 139 -109 139 -176c0 -111 -80 -183 -184 -183zM322 672h-216v-302h216c103 0 175 59 175 152c0 88 -65 150 -175 150zM335 346h-229v-322h231c115 0 173 66 173 161
c0 86 -56 161 -175 161z" />
    <glyph glyph-name="Epsilon" unicode="&#x395;" horiz-adv-x="520" 
d="M80 0v696h413v-24h-386v-306h330v-24h-330v-318h386v-24h-413z" />
    <glyph glyph-name="Zeta" unicode="&#x396;" horiz-adv-x="480" 
d="M33 0v25l385 647h-368v24h396v-25l-384 -647h384v-24h-413z" />
    <glyph glyph-name="Eta" unicode="&#x397;" horiz-adv-x="619" 
d="M513 0v342h-407v-342h-26v696h26v-330h407v330h26v-696h-26z" />
    <glyph glyph-name="Iota" unicode="&#x399;" horiz-adv-x="198" 
d="M86 0v696h26v-696h-26z" />
    <glyph glyph-name="Kappa" unicode="&#x39a;" horiz-adv-x="600" 
d="M538 0l-243 414l-189 -233v-181h-26v696h26v-477l388 477h28l-210 -262l254 -434h-28z" />
    <glyph glyph-name="Mu" unicode="&#x39c;" horiz-adv-x="738" 
d="M642 0v639l-258 -527h-21l-259 526v-638h-25v696h28l267 -547l268 547h25v-696h-25z" />
    <glyph glyph-name="Phi" unicode="&#x3a6;" horiz-adv-x="723" 
d="M683 357c0 -213 -159 -295 -307 -298v-59h-26v60c-210 7 -304 125 -304 297c0 115 48 297 304 305v34h26v-33c210 -4 307 -132 307 -306zM656 356c0 202 -130 281 -280 283v-557c135 6 280 69 280 274zM73 356c3 -167 89 -266 277 -274v557c-156 -4 -277 -91 -277 -283z
" />
    <glyph glyph-name="Upsilondieresis" unicode="&#x3ab;" horiz-adv-x="459" 
d="M299 753v36h38v-36h-38zM121 753v36h38v-36h-38zM242 289v-289h-25v289l-208 407h27l194 -381l193 381h26z" />
    <glyph glyph-name="Psi" unicode="&#x3a8;" horiz-adv-x="714" 
d="M370 151v-151h-26v151c-181 6 -274 111 -274 254v291h24v-291c0 -132 89 -224 250 -229v520h26v-519c155 2 248 81 248 217v302h26v-302c0 -141 -94 -236 -274 -243z" />
    <glyph glyph-name="Omega" unicode="&#x3a9;" horiz-adv-x="559" 
d="M163 24v2c-83 41 -120 125 -120 223v209c0 131 78 243 237 243c147 0 233 -101 233 -243v-209c0 -106 -42 -185 -116 -224l1 -2h132v-23h-185v30c89 27 140 111 140 220v206c0 125 -75 220 -204 220c-141 0 -210 -99 -210 -220v-206c0 -97 47 -193 141 -221v-29h-185v24
h136z" />
    <glyph glyph-name="alphatonos" unicode="&#x3ac;" horiz-adv-x="498" 
d="M435 0h-25v108h-1c-19 -53 -71 -112 -160 -112c-145 0 -190 128 -190 249c0 144 51 258 192 258c54 0 122 -14 158 -106h1v99h25v-496zM410 252c0 91 -23 230 -161 230c-143 0 -164 -137 -164 -233c0 -103 29 -232 164 -232c115 0 161 104 161 235zM237 569l-15 8l82 142
l32 -16z" />
    <glyph glyph-name="Nu" unicode="&#x39d;" horiz-adv-x="658" 
d="M549 0l-440 653v-653h-26v696h29l440 -654v654h26v-696h-29z" />
    <glyph glyph-name="Omicron" unicode="&#x39f;" horiz-adv-x="559" 
d="M280 701c147 0 233 -101 233 -243v-215c0 -153 -88 -250 -233 -250c-164 0 -237 115 -237 250v215c0 131 78 243 237 243zM281 676c-141 0 -211 -99 -211 -220v-218c0 -118 70 -221 211 -221c128 0 205 94 205 227v212c0 125 -76 220 -205 220z" />
    <glyph glyph-name="Rho" unicode="&#x3a1;" horiz-adv-x="546" 
d="M82 696h245c109 0 209 -52 209 -198c0 -89 -60 -191 -201 -191h-226v-307h-27v696zM109 672v-340h221c128 0 177 85 177 169c0 116 -82 171 -181 171h-217z" />
    <glyph glyph-name="Tau" unicode="&#x3a4;" horiz-adv-x="474" 
d="M252 672v-672h-25v672h-215v24h452v-24h-212z" />
    <glyph glyph-name="guillemotleft" unicode="&#xab;" horiz-adv-x="381" 
d="M211 46h-29l-111 166l113 165h27l-110 -165zM328 46h-29l-111 166l113 165h27l-110 -165z" />
    <glyph glyph-name="guillemotright" unicode="&#xbb;" horiz-adv-x="381" 
d="M218 46h-29l110 166l-110 165h27l113 -165zM101 46h-29l110 166l-110 165h27l113 -165z" />
    <glyph glyph-name="ellipsis" unicode="&#x2026;" horiz-adv-x="460" 
d="M87 0h-38v43h38v-43zM247 0h-38v43h38v-43zM407 0h-38v43h38v-43z" />
    <glyph glyph-name="Upsilon" unicode="&#x3a5;" horiz-adv-x="459" 
d="M242 289v-289h-25v289l-208 407h27l194 -381l193 381h26z" />
    <glyph glyph-name="Chi" unicode="&#x3a7;" horiz-adv-x="489" 
d="M442 0l-198 333l-198 -333h-29l213 357l-198 339h29l183 -314l183 314h29l-198 -339l213 -357h-29z" />
    <glyph glyph-name="Alphatonos" unicode="&#x386;" horiz-adv-x="578" 
d="M529 0l-61 175h-358l-62 -175h-30l253 696h36l253 -696h-31zM290 670h-2l-169 -470h340zM14 569l-15 8l82 142l32 -16z" />
    <glyph glyph-name="Epsilontonos" unicode="&#x388;" horiz-adv-x="520" 
d="M80 0v696h413v-24h-386v-306h330v-24h-330v-318h386v-24h-413zM-71 569l-15 8l82 142l32 -16z" />
    <glyph glyph-name="oe" unicode="&#x153;" horiz-adv-x="830" 
d="M437 251c-1 -128 39 -238 186 -238c43 0 87 15 122 39l15 -18c-40 -28 -86 -41 -135 -41c-80 0 -169 27 -200 149c-10 -43 -27 -72 -46 -93c-33 -36 -81 -55 -143 -55c-58 0 -101 17 -132 47c-39 39 -63 101 -63 210c0 107 29 168 70 204c32 28 75 46 130 46
c71 0 126 -28 159 -79c11 -17 20 -38 27 -68c31 114 112 147 184 147c141 0 192 -107 192 -230v-20h-366zM240 479c-51 0 -91 -19 -119 -48c-33 -34 -55 -82 -55 -183c0 -102 22 -154 56 -189c28 -28 68 -44 117 -44c50 0 93 19 121 48c30 32 51 78 51 182
c0 98 -15 139 -34 166c-29 42 -78 68 -137 68zM612 480c-106 0 -167 -76 -173 -208h338c-5 141 -66 208 -165 208z" />
    <glyph glyph-name="endash" unicode="&#x2013;" horiz-adv-x="490" 
d="M20 250v25h450v-25h-450z" />
    <glyph glyph-name="afii00208" unicode="&#x2015;" horiz-adv-x="990" 
d="M20 250v25h950v-25h-950z" />
    <glyph glyph-name="quotedblleft" unicode="&#x201c;" horiz-adv-x="224" 
d="M81 711h17l-23 -93h10v-44h-39v47zM160 711h17l-23 -93h10v-44h-39v47z" />
    <glyph glyph-name="quotedblright" unicode="&#x201d;" horiz-adv-x="224" 
d="M143 575h-17l23 93h-10v44h39v-47zM64 575h-17l23 93h-10v44h39v-47z" />
    <glyph glyph-name="quoteleft" unicode="&#x2018;" horiz-adv-x="173" 
d="M101 711h17l-23 -93h10v-44h-39v47z" />
    <glyph glyph-name="quoteright" unicode="&#x2019;" horiz-adv-x="173" 
d="M83 575h-17l23 93h-10v44h39v-47z" />
    <glyph glyph-name="divide" unicode="&#xf7;" horiz-adv-x="450" 
d="M227 406c-17 0 -30 13 -30 29c0 19 15 28 30 28s29 -9 29 -28c0 -16 -13 -29 -29 -29zM227 78c-17 0 -30 13 -30 29c0 18 16 28 31 28c14 0 28 -9 28 -28c0 -16 -13 -29 -29 -29zM423 261h-399v24h399v-24z" />
    <glyph glyph-name="Etatonos" unicode="&#x389;" horiz-adv-x="619" 
d="M513 0v342h-407v-342h-26v696h26v-330h407v330h26v-696h-26zM-69 569l-15 8l82 142l32 -16z" />
    <glyph glyph-name="Iotatonos" unicode="&#x38a;" horiz-adv-x="198" 
d="M86 0v696h26v-696h-26zM-76 569l-15 8l82 142l32 -16z" />
    <glyph glyph-name="Omicrontonos" unicode="&#x38c;" horiz-adv-x="559" 
d="M280 701c147 0 233 -101 233 -243v-215c0 -153 -88 -250 -233 -250c-164 0 -237 115 -237 250v215c0 131 78 243 237 243zM281 676c-141 0 -211 -99 -211 -220v-218c0 -118 70 -221 211 -221c128 0 205 94 205 227v212c0 125 -76 220 -205 220zM-76 569l-15 8l82 142
l32 -16z" />
    <glyph glyph-name="Upsilontonos" unicode="&#x38e;" horiz-adv-x="459" 
d="M242 289v-289h-25v289l-208 407h27l194 -381l193 381h26zM-111 569l-15 8l82 142l32 -16z" />
    <glyph glyph-name="epsilontonos" unicode="&#x3ad;" horiz-adv-x="421" 
d="M151 261c-79 19 -86 84 -86 111c0 60 45 129 177 129c53 0 109 -15 148 -44l-15 -17c-36 25 -92 41 -136 41c-80 0 -149 -37 -149 -110c0 -68 51 -98 129 -98h63v-23h-64c-69 0 -140 -39 -140 -117c0 -81 80 -116 168 -116c38 0 99 14 136 40l13 -18
c-40 -29 -99 -43 -154 -43c-129 0 -188 56 -188 141c0 25 12 97 99 122zM217 569l-15 8l82 142l32 -16z" />
    <glyph glyph-name="etatonos" unicode="&#x3ae;" horiz-adv-x="500" 
d="M412 0v327c0 100 -58 151 -154 151c-94 0 -171 -73 -171 -176v-302h-24v494h24v-96h2c33 73 111 102 171 102c119 0 176 -63 176 -166v-334h-24zM207 569l-15 8l82 142l32 -16z" />
    <glyph glyph-name="iotatonos" unicode="&#x3af;" horiz-adv-x="197" 
d="M160 20v-23h-12c-54 0 -71 35 -71 83v415h25v-413c0 -40 15 -62 49 -62h9zM85 569l-15 8l82 142l32 -16z" />
    <glyph glyph-name="omicrontonos" unicode="&#x3cc;" horiz-adv-x="477" 
d="M241 501c71 0 126 -28 159 -79c21 -33 36 -80 36 -178c0 -102 -25 -160 -57 -195c-33 -36 -81 -55 -143 -55c-58 0 -101 17 -132 47c-39 39 -63 101 -63 210c0 107 29 168 70 204c32 28 75 46 130 46zM240 479c-51 0 -91 -19 -119 -48c-33 -34 -55 -82 -55 -183
c0 -102 22 -154 56 -189c28 -28 68 -44 117 -44c50 0 93 19 121 48c30 32 51 78 51 182c0 98 -15 139 -34 166c-29 42 -78 68 -137 68zM227 569l-15 8l82 142l32 -16z" />
    <glyph glyph-name="Omegatonos" unicode="&#x38f;" horiz-adv-x="559" 
d="M163 24v2c-83 41 -120 125 -120 223v209c0 131 78 243 237 243c147 0 233 -101 233 -243v-209c0 -106 -42 -185 -116 -224l1 -2h132v-23h-185v30c89 27 140 111 140 220v206c0 125 -75 220 -204 220c-141 0 -210 -99 -210 -220v-206c0 -97 47 -193 141 -221v-29h-185v24
h136zM-78 569l-15 8l82 142l32 -16z" />
    <glyph glyph-name="upsilontonos" unicode="&#x3cd;" horiz-adv-x="518" 
d="M259 -7c-112 0 -186 75 -186 184v318h24v-304c0 -104 60 -176 163 -176c104 0 162 64 162 162v318h25v-314c0 -126 -75 -188 -188 -188zM230 569l-15 8l82 142l32 -16z" />
    <glyph glyph-name="alpha" unicode="&#x3b1;" horiz-adv-x="498" 
d="M435 0h-25v108h-1c-19 -53 -71 -112 -160 -112c-145 0 -190 128 -190 249c0 144 51 258 192 258c54 0 122 -14 158 -106h1v99h25v-496zM410 252c0 91 -23 230 -161 230c-143 0 -164 -137 -164 -233c0 -103 29 -232 164 -232c115 0 161 104 161 235z" />
    <glyph glyph-name="beta" unicode="&#x3b2;" horiz-adv-x="499" 
d="M447 227c0 -150 -73 -234 -186 -234c-39 0 -128 14 -165 113h-1v-242h-24v664c0 108 54 193 179 193c117 0 162 -88 162 -162c0 -54 -29 -122 -84 -141l1 -2c86 -18 118 -109 118 -189zM267 402h-71v21h56c88 0 134 60 134 135c0 53 -29 142 -137 142
c-120 0 -154 -97 -154 -168v-315c0 -73 41 -202 167 -202c117 0 160 106 160 210c0 92 -39 177 -155 177z" />
    <glyph glyph-name="psi" unicode="&#x3c8;" horiz-adv-x="603" 
d="M312 -1v-199h-23v199c-150 2 -226 97 -226 195v299h24v-288c0 -101 66 -175 202 -184v493h23v-493c116 3 203 66 203 190v282h24v-288c0 -123 -83 -204 -227 -206z" />
    <glyph glyph-name="delta" unicode="&#x3b4;" horiz-adv-x="477" 
d="M263 721c53 0 97 -14 129 -30l-12 -22c-33 16 -76 30 -119 30c-79 0 -132 -43 -132 -110c0 -69 64 -101 108 -113c62 -17 119 -40 156 -90c22 -30 40 -70 40 -154c0 -95 -19 -144 -54 -182c-33 -36 -81 -56 -143 -56c-53 0 -93 13 -123 38c-47 39 -71 100 -71 199
c0 78 26 144 66 182c19 18 50 41 90 50l-1 1c-66 27 -95 71 -95 124c0 63 40 133 161 133zM239 15c49 0 91 18 120 48c31 32 49 73 49 168c0 79 -16 115 -37 143c-29 40 -74 65 -137 76c-46 -8 -83 -27 -110 -54c-34 -33 -57 -87 -57 -164c0 -92 22 -141 57 -176
c24 -23 67 -41 115 -41z" />
    <glyph glyph-name="epsilon" unicode="&#x3b5;" horiz-adv-x="421" 
d="M151 261c-79 19 -86 84 -86 111c0 60 45 129 177 129c53 0 109 -15 148 -44l-15 -17c-36 25 -92 41 -136 41c-80 0 -149 -37 -149 -110c0 -68 51 -98 129 -98h63v-23h-64c-69 0 -140 -39 -140 -117c0 -81 80 -116 168 -116c38 0 99 14 136 40l13 -18
c-40 -29 -99 -43 -154 -43c-129 0 -188 56 -188 141c0 25 12 97 99 122z" />
    <glyph glyph-name="phi" unicode="&#x3c6;" horiz-adv-x="564" 
d="M295 478v-463c60 0 108 17 141 47c36 32 55 78 55 184c0 90 -10 134 -33 164c-31 41 -85 68 -163 68zM268 -200v195c-64 0 -113 14 -149 42c-48 37 -71 93 -71 208c0 114 23 196 122 241l11 -20c-92 -47 -108 -115 -108 -223c0 -109 20 -153 57 -185
c33 -28 79 -43 138 -43v484h29c92 0 152 -30 185 -78c23 -34 34 -77 34 -176c0 -103 -19 -158 -58 -195c-36 -35 -90 -55 -163 -55v-195h-27z" />
    <glyph glyph-name="gamma" unicode="&#x3b3;" horiz-adv-x="406" 
d="M221 11v-211h-25v211c-50 144 -102 293 -157 438c-7 20 -14 26 -28 26c-3 0 -7 0 -11 -1l-3 22c8 2 15 3 22 3c21 0 34 -11 45 -41c51 -139 98 -272 145 -415c57 158 108 300 169 452h28c-65 -160 -122 -315 -185 -484z" />
    <glyph glyph-name="eta" unicode="&#x3b7;" horiz-adv-x="500" 
d="M412 0v327c0 100 -58 151 -154 151c-94 0 -171 -73 -171 -176v-302h-24v494h24v-96h2c33 73 111 102 171 102c119 0 176 -63 176 -166v-334h-24z" />
    <glyph glyph-name="iota" unicode="&#x3b9;" horiz-adv-x="197" 
d="M160 20v-23h-12c-54 0 -71 35 -71 83v415h25v-413c0 -40 15 -62 49 -62h9z" />
    <glyph glyph-name="xi" unicode="&#x3be;" horiz-adv-x="386" 
d="M208 44l131 -47c45 -16 60 -41 60 -68c0 -15 -6 -38 -26 -69l-28 -43l-21 12l23 37c10 16 23 42 23 58c0 22 -13 40 -52 54l-123 43c-89 31 -155 82 -155 183c0 51 21 157 151 197c-111 24 -127 112 -127 153c0 108 94 167 203 167c46 0 90 -8 132 -28l-11 -21
c-41 19 -84 27 -126 27c-96 0 -172 -55 -173 -145c-1 -102 96 -143 180 -143h79v-23h-107c-107 0 -176 -94 -176 -185c0 -89 75 -135 143 -159z" />
    <glyph glyph-name="kappa" unicode="&#x3ba;" horiz-adv-x="465" 
d="M434 0l-195 301l-142 -164v-137h-24v496h24v-324l287 324h30l-158 -180l208 -316h-30z" />
    <glyph glyph-name="lambda" unicode="&#x3bb;" horiz-adv-x="418" 
d="M416 0c-5 -1 -10 -1 -15 -1c-28 0 -39 15 -53 55l-132 397l-188 -451h-26l201 483l-56 165c-12 35 -24 49 -53 49c-5 0 -12 0 -18 -1l-2 23c10 2 18 3 26 3c38 0 56 -19 72 -66l207 -611c7 -21 20 -23 37 -23v-22z" />
    <glyph glyph-name="mu" unicode="&#xb5;" horiz-adv-x="510" 
d="M97 -200h-25v696h25v-327c0 -100 74 -152 161 -152c95 0 164 70 164 173v306h23v-496h-23v92h-2c-33 -73 -104 -97 -163 -97c-70 0 -128 30 -159 76h-1v-271z" />
    <glyph glyph-name="mu" unicode="&#x3bc;" horiz-adv-x="510" 
d="M97 -200h-25v696h25v-327c0 -100 74 -152 161 -152c95 0 164 70 164 173v306h23v-496h-23v92h-2c-33 -73 -104 -97 -163 -97c-70 0 -128 30 -159 76h-1v-271z" />
    <glyph glyph-name="nu" unicode="&#x3bd;" horiz-adv-x="425" 
d="M408 494l-182 -494h-27l-183 494h28l168 -460h2l166 460h28z" />
    <glyph glyph-name="omicron" unicode="&#x3bf;" horiz-adv-x="477" 
d="M241 501c71 0 126 -28 159 -79c21 -33 36 -80 36 -178c0 -102 -25 -160 -57 -195c-33 -36 -81 -55 -143 -55c-58 0 -101 17 -132 47c-39 39 -63 101 -63 210c0 107 29 168 70 204c32 28 75 46 130 46zM240 479c-51 0 -91 -19 -119 -48c-33 -34 -55 -82 -55 -183
c0 -102 22 -154 56 -189c28 -28 68 -44 117 -44c50 0 93 19 121 48c30 32 51 78 51 182c0 98 -15 139 -34 166c-29 42 -78 68 -137 68z" />
    <glyph glyph-name="pi" unicode="&#x3c0;" horiz-adv-x="518" 
d="M421 0v476h-324v-476h-24v495h373v-495h-25z" />
    <glyph glyph-name="omegatonos" unicode="&#x3ce;" horiz-adv-x="729" 
d="M513 -5c-57 0 -127 25 -150 114c-29 -85 -90 -115 -147 -115c-125 0 -174 101 -174 254c0 140 50 226 147 248l6 -23c-83 -19 -128 -95 -128 -226c0 -142 43 -232 151 -232c89 0 131 86 131 157v192h25v-192c0 -69 40 -156 139 -156c97 0 149 83 149 230
c0 133 -37 211 -126 228l6 23c104 -19 145 -108 145 -251c0 -155 -56 -251 -174 -251zM350 569l-15 8l82 142l32 -16z" />
    <glyph glyph-name="rho" unicode="&#x3c1;" horiz-adv-x="490" 
d="M63 -200v451c0 97 22 166 63 202c32 28 73 48 128 48c71 0 126 -28 159 -79c21 -33 36 -80 36 -178c0 -102 -25 -160 -57 -195c-33 -36 -78 -53 -135 -53c-58 0 -125 16 -168 98h-1v-294h-25zM88 248v-44c0 -75 34 -186 168 -186c50 0 89 16 117 45c30 32 51 78 51 182
c0 98 -15 139 -34 166c-29 42 -78 68 -137 68c-46 0 -88 -21 -116 -50c-26 -26 -49 -82 -49 -181z" />
    <glyph glyph-name="sigma" unicode="&#x3c3;" horiz-adv-x="492" 
d="M332 475v-2c28 -14 49 -33 66 -56c21 -33 36 -77 36 -175c0 -102 -25 -158 -57 -193c-33 -36 -80 -55 -142 -55c-58 0 -100 17 -131 47c-39 39 -62 99 -62 208c0 107 28 165 69 201c32 28 74 46 129 46h237v-21h-145zM239 474c-51 0 -90 -19 -118 -48
c-33 -34 -54 -79 -54 -180c0 -102 21 -152 55 -187c28 -28 67 -44 116 -44c50 0 92 19 120 48c30 32 51 76 51 180c0 98 -15 136 -34 163c-29 42 -77 68 -136 68z" />
    <glyph glyph-name="tau" unicode="&#x3c4;" horiz-adv-x="308" 
d="M278 0h-42c-61 0 -99 35 -99 100v376h-122v20h286v-20h-139v-363c0 -19 2 -43 11 -60c11 -20 37 -32 75 -32h30v-21z" />
    <glyph glyph-name="theta" unicode="&#x3b8;" horiz-adv-x="477" 
d="M242 720c69 0 117 -28 150 -79c21 -33 45 -85 45 -284c0 -208 -35 -276 -65 -308c-33 -36 -73 -55 -135 -55c-58 0 -95 18 -126 48c-36 36 -69 110 -69 318c0 214 36 273 76 313c30 30 69 47 124 47zM240 15c50 0 85 19 113 48c30 32 59 94 59 299h-345
c0 -209 27 -268 61 -303c28 -28 63 -44 112 -44zM241 698c-51 0 -87 -20 -112 -48c-29 -33 -60 -78 -62 -266h345c-2 174 -25 221 -42 246c-29 42 -65 68 -129 68z" />
    <glyph glyph-name="omega" unicode="&#x3c9;" horiz-adv-x="729" 
d="M513 -5c-57 0 -127 25 -150 114c-29 -85 -90 -115 -147 -115c-125 0 -174 101 -174 254c0 140 50 226 147 248l6 -23c-83 -19 -128 -95 -128 -226c0 -142 43 -232 151 -232c89 0 131 86 131 157v192h25v-192c0 -69 40 -156 139 -156c97 0 149 83 149 230
c0 133 -37 211 -126 228l6 23c104 -19 145 -108 145 -251c0 -155 -56 -251 -174 -251z" />
    <glyph glyph-name="sigma1" unicode="&#x3c2;" horiz-adv-x="411" 
d="M304 -9l-109 40c-113 41 -145 108 -145 221c0 184 116 249 221 249c54 0 105 -15 143 -43l-17 -22c-33 26 -80 41 -125 41c-116 0 -195 -80 -195 -225c0 -92 23 -156 126 -195l120 -45c43 -16 62 -44 62 -71c0 -16 -8 -48 -53 -112l-21 13c10 14 14 21 21 33
c10 16 24 44 24 60c0 22 -17 43 -52 56z" />
    <glyph glyph-name="chi" unicode="&#x3c7;" horiz-adv-x="430" 
d="M394 0h-29l-151 238l-150 -238h-29l163 254l-154 241h29l141 -224l140 224h31l-156 -241z" />
    <glyph glyph-name="upsilon" unicode="&#x3c5;" horiz-adv-x="518" 
d="M259 -7c-112 0 -186 75 -186 184v318h24v-304c0 -104 60 -176 163 -176c104 0 162 64 162 162v318h25v-314c0 -126 -75 -188 -188 -188z" />
    <glyph glyph-name="zeta" unicode="&#x3b6;" horiz-adv-x="361" 
d="M431 689c-170 -125 -359 -337 -359 -486c0 -97 67 -136 134 -160l126 -44c46 -16 65 -41 65 -71c0 -33 -33 -86 -53 -113l-20 12l22 37c13 22 21 43 22 61c0 21 -13 39 -50 52l-125 44c-85 30 -147 80 -147 181s90 287 348 486h-306v23h343v-22z" />
    <glyph glyph-name="iotadieresis" unicode="&#x3ca;" horiz-adv-x="197" 
d="M160 20v-23h-12c-54 0 -71 35 -71 83v415h25v-413c0 -40 15 -62 49 -62h9zM168 614v36h38v-36h-38zM-26 614v36h38v-36h-38z" />
    <glyph glyph-name="upsilondieresis" unicode="&#x3cb;" horiz-adv-x="518" 
d="M259 -7c-112 0 -186 75 -186 184v318h24v-304c0 -104 60 -176 163 -176c104 0 162 64 162 162v318h25v-314c0 -126 -75 -188 -188 -188zM335 614v36h38v-36h-38zM141 614v36h38v-36h-38z" />
    <glyph glyph-name="iotadieresistonos" unicode="&#x390;" horiz-adv-x="197" 
d="M160 20v-23h-12c-54 0 -71 35 -71 83v415h25v-413c0 -40 15 -62 49 -62h9zM49 569l-15 8l82 142l32 -16zM153 614v36h38v-36h-38zM-16 614v36h38v-36h-38z" />
    <glyph glyph-name="upsilondieresistonos" unicode="&#x3b0;" horiz-adv-x="518" 
d="M259 -7c-112 0 -186 75 -186 184v318h24v-304c0 -104 60 -176 163 -176c104 0 162 64 162 162v318h25v-314c0 -126 -75 -188 -188 -188zM220 569l-15 8l82 142l32 -16zM324 614v36h38v-36h-38zM155 614v36h38v-36h-38z" />
    <glyph glyph-name="space" unicode=" " horiz-adv-x="220" 
 />
    <glyph glyph-name="AE" unicode="&#xc6;" horiz-adv-x="892" 
d="M451 0v175h-308l-111 -175h-31l436 696h427v-24h-386v-306h330v-24h-330v-318h386v-24h-413zM159 200h292v470z" />
    <glyph glyph-name="ae" unicode="&#xe6;" horiz-adv-x="814" 
d="M411 247c-1 -128 39 -234 186 -234c43 0 86 14 122 39l15 -18c-40 -28 -86 -41 -135 -41c-74 0 -154 23 -191 121c-17 -52 -72 -121 -202 -121c-87 0 -173 34 -173 134c0 82 54 142 159 142h195v83c0 80 -44 126 -140 126c-43 0 -111 -8 -161 -46l-15 19
c55 42 126 50 171 50c89 0 155 -25 168 -119c36 92 109 119 175 119c141 0 192 -107 192 -230v-24h-366zM387 247h-187c-78 0 -142 -36 -142 -114s62 -118 152 -118c100 0 177 55 177 148v84zM586 480c-106 0 -167 -80 -173 -212h338c-5 141 -66 212 -165 212z" />
    <glyph glyph-name="Euro" unicode="&#x20ac;" horiz-adv-x="450" 
d="M13 291v23h38v75h-38v23h38v47c0 132 69 244 210 244c83 0 146 -38 184 -102l-22 -13c-37 63 -97 92 -162 92c-126 0 -185 -108 -185 -223v-45h260v-23h-260v-75h262v-23h-262v-52c0 -114 59 -224 185 -224c76 0 128 34 161 99l23 -10c-38 -78 -100 -111 -184 -111
c-145 0 -210 115 -210 251v47h-38z" />
    <glyph glyph-name="florin" unicode="&#x192;" horiz-adv-x="450" 
d="M128 378v23h97l19 134c15 105 58 167 151 167c21 0 46 -3 69 -9c0 0 -1 -4 -8 -24c-23 7 -41 10 -61 10c-59 0 -112 -34 -127 -148l-18 -130h113v-23h-116l-40 -292c-16 -113 -57 -181 -155 -181c-21 0 -46 3 -69 9c0 0 1 4 8 24c19 -5 41 -9 61 -9c67 0 111 34 128 154
l42 295h-94z" />
    <glyph glyph-name="circumflex" unicode="&#x2c6;" horiz-adv-x="477" 
d="M359 559l-122 92l-123 -93l-12 13l122 110h29l118 -110z" />
    <glyph glyph-name="multiply" unicode="&#xd7;" horiz-adv-x="450" 
d="M224 255l-159 -159l-17 16l160 160l-154 154l17 17l154 -154l158 157l16 -16l-158 -158l155 -154l-17 -17z" />
    <glyph glyph-name="brokenbar" unicode="&#xa6;" horiz-adv-x="159" 
d="M92 305h-19v411h19v-411zM73 251h19v-413h-19v413z" />
    <glyph glyph-name="acute" unicode="&#xb4;" horiz-adv-x="477" 
d="M227 569l-15 8l82 142l32 -16z" />
    <glyph glyph-name="dotlessi" unicode="&#x131;" horiz-adv-x="186" 
d="M106 0h-25v496h25v-496z" />
    <glyph glyph-name="logicalnot" unicode="&#xac;" horiz-adv-x="450" 
d="M423 285v-220h-23v196h-376v24h399z" />
    <glyph glyph-name="cedilla" unicode="&#xb8;" horiz-adv-x="405" 
d="M250 4l-17 -50c77 -7 91 -46 91 -73s-21 -67 -92 -67c-25 0 -45 5 -62 12l7 19c23 -8 35 -10 55 -10c29 0 66 10 66 48c0 34 -41 52 -86 52l-5 4l21 65h22z" />
    <glyph glyph-name="eth" unicode="&#xf0;" horiz-adv-x="491" 
d="M472 666l-75 -53c37 -67 47 -160 47 -266c0 -110 0 -229 -61 -297c-30 -33 -75 -54 -142 -56c-56 0 -101 15 -132 45c-41 40 -65 103 -65 193c0 101 27 159 71 198c32 28 75 46 130 46c85 0 155 -51 172 -122h3c0 101 -12 185 -44 245l-79 -56l-11 16l80 57
c-34 50 -85 80 -162 87l3 22c88 -6 144 -41 180 -94l73 52zM244 453c-56 0 -100 -21 -128 -55c-28 -33 -47 -78 -47 -169c0 -83 23 -136 57 -171c28 -29 68 -43 118 -43c47 0 87 17 116 46c33 34 54 84 54 175c0 96 -23 145 -59 177c-28 25 -66 40 -111 40z" />
    <glyph glyph-name="tilde" unicode="&#x2dc;" horiz-adv-x="477" 
d="M192 659c39 0 88 -40 121 -40c21 0 34 12 53 39l20 -12c-23 -40 -47 -54 -74 -54c-36 0 -85 40 -122 40c-26 0 -45 -15 -64 -38l-19 12c24 34 54 53 85 53z" />
    <glyph glyph-name="caron" unicode="&#x2c7;" horiz-adv-x="477" 
d="M237 589l122 92l12 -12l-118 -110h-29l-122 110l12 13z" />
    <glyph glyph-name="breve" unicode="&#x2d8;" horiz-adv-x="491" 
d="M245 585c42 0 81 16 97 78h22c-8 -49 -46 -101 -119 -101s-112 52 -119 101h22c10 -52 55 -78 97 -78z" />
    <glyph glyph-name="exclam" unicode="!" horiz-adv-x="198" 
d="M108 194h-16l-6 502h28zM117 0h-36v41h36v-41z" />
    <glyph glyph-name="Ntilde" unicode="&#xd1;" horiz-adv-x="658" 
d="M549 0l-440 653v-653h-26v696h29l440 -654v654h26v-696h-29zM284 809c39 0 88 -40 121 -40c21 0 34 12 53 39l20 -12c-23 -40 -47 -54 -74 -54c-36 0 -85 40 -122 40c-26 0 -45 -15 -64 -38l-19 12c24 34 54 53 85 53z" />
    <glyph glyph-name="uni1FBD" unicode="&#x1fbd;" horiz-adv-x="465" 
d="M252 580l-15 9c34 61 42 109 -21 129l15 29c78 -25 83 -100 21 -167z" />
    <glyph glyph-name="uni1FBE" unicode="&#x1fbe;" horiz-adv-x="498" 
d="M354 -250h-18c-61 0 -90 35 -90 100v78h25v-65c0 -48 8 -91 73 -91h10v-22z" />
    <glyph glyph-name="uni1FC1" unicode="&#x1fc1;" horiz-adv-x="518" 
d="M326 621v36h38v-36h-38zM179 621v36h38v-36h-38zM219 763c39 0 88 -40 121 -40c21 0 34 12 53 39l20 -12c-23 -40 -47 -54 -74 -54c-36 0 -85 40 -122 40c-26 0 -45 -15 -64 -38l-19 12c24 34 54 53 85 53z" />
    <glyph glyph-name="uni1FCD" unicode="&#x1fcd;" horiz-adv-x="498" 
d="M189 580l-15 9c34 61 42 109 -21 129l15 29c78 -25 83 -100 21 -167zM363 585l-16 -6l-101 159l38 9z" />
    <glyph glyph-name="uni1FCE" unicode="&#x1fce;" horiz-adv-x="465" 
d="M217 580l-15 9c34 61 42 109 -21 129l15 29c78 -25 83 -100 21 -167zM272 579l-16 6l89 162l38 -9z" />
    <glyph glyph-name="uni1FCF" unicode="&#x1fcf;" horiz-adv-x="465" 
d="M249 545l-12 4c16 28 25 52 25 71c0 23 -13 39 -47 50l13 29c43 -14 63 -38 63 -69c0 -25 -14 -54 -42 -85zM191 793c39 0 88 -40 121 -40c21 0 34 12 53 39l20 -12c-23 -40 -47 -54 -74 -54c-36 0 -85 40 -122 40c-26 0 -45 -15 -64 -38l-19 12c24 34 54 53 85 53z" />
    <glyph glyph-name="uni1FDD" unicode="&#x1fdd;" horiz-adv-x="465" 
d="M204 589l-15 -9c-62 67 -57 142 21 167l15 -29c-63 -20 -55 -68 -21 -129zM362 585l-16 -6l-101 159l38 9z" />
    <glyph glyph-name="uni1FDE" unicode="&#x1fde;" horiz-adv-x="465" 
d="M234 589l-15 -9c-62 67 -57 142 21 167l15 -29c-63 -20 -55 -68 -21 -129zM272 579l-16 6l89 162l38 -9z" />
    <glyph glyph-name="uni1FDF" unicode="&#x1fdf;" horiz-adv-x="465" 
d="M264 549l-12 -4c-28 31 -42 60 -42 85c0 31 20 55 63 69l13 -29c-34 -11 -47 -27 -47 -50c0 -19 9 -43 25 -71zM203 793c39 0 88 -40 121 -40c21 0 34 12 53 39l20 -12c-23 -40 -47 -54 -74 -54c-36 0 -85 40 -122 40c-26 0 -45 -15 -64 -38l-19 12c24 34 54 53 85 53z
" />
    <glyph glyph-name="uni1FED" unicode="&#x1fed;" horiz-adv-x="465" 
d="M158 657v-36h-38v36h38zM355 657v-36h-38v36h38zM285 585l-16 -6l-101 159l38 9z" />
    <glyph glyph-name="uni1FEE" unicode="&#x1fee;" horiz-adv-x="465" 
d="M330 621v36h38v-36h-38zM133 621v36h38v-36h-38zM213 579l-16 6l89 162l38 -9z" />
    <glyph glyph-name="uni1FFE" unicode="&#x1ffe;" horiz-adv-x="465" 
d="M279 589l-15 -9c-62 67 -57 142 21 167l15 -29c-63 -20 -55 -68 -21 -129z" />
    <glyph glyph-name="macron" unicode="&#xaf;" horiz-adv-x="465" 
d="M130 590v24h248v-24h-248z" />
    <glyph glyph-name="dotaccent" unicode="&#x2d9;" horiz-adv-x="465" 
d="M225 614v36h38v-36h-38z" />
    <glyph glyph-name="ring" unicode="&#x2da;" horiz-adv-x="465" 
d="M247 557c-47 0 -86 39 -86 86c0 48 39 85 86 85c48 0 87 -37 87 -85c0 -47 -39 -86 -87 -86zM247 710c-37 0 -66 -30 -66 -67s29 -67 66 -67c38 0 67 30 67 67s-29 67 -67 67z" />
    <glyph glyph-name="ogonek" unicode="&#x2db;" horiz-adv-x="465" 
d="M154 -93c0 25 12 64 44 94h23l1 -1c-25 -28 -42 -67 -42 -90c0 -40 25 -57 58 -57c17 0 37 4 58 15l9 -18c-16 -10 -43 -20 -71 -20c-51 0 -80 36 -80 77z" />
    <glyph glyph-name="hungarumlaut" unicode="&#x2dd;" horiz-adv-x="465" 
d="M204 569l-15 8l82 142l32 -16zM291 569l-15 8l82 142l32 -16z" />
    <glyph glyph-name="uni1F00" unicode="&#x1f00;" horiz-adv-x="498" 
d="M435 0h-25v108h-1c-19 -53 -71 -112 -160 -112c-145 0 -190 128 -190 249c0 144 51 258 192 258c54 0 122 -14 158 -106h1v99h25v-496zM410 252c0 91 -23 230 -161 230c-143 0 -164 -137 -164 -233c0 -103 29 -232 164 -232c115 0 161 104 161 235zM252 580l-15 9
c34 61 42 109 -21 129l15 29c78 -25 83 -100 21 -167z" />
    <glyph glyph-name="uni1F01" unicode="&#x1f01;" horiz-adv-x="498" 
d="M435 0h-25v108h-1c-19 -53 -71 -112 -160 -112c-145 0 -190 128 -190 249c0 144 51 258 192 258c54 0 122 -14 158 -106h1v99h25v-496zM410 252c0 91 -23 230 -161 230c-143 0 -164 -137 -164 -233c0 -103 29 -232 164 -232c115 0 161 104 161 235zM286 589l-15 -9
c-62 67 -57 142 21 167l15 -29c-63 -20 -55 -68 -21 -129z" />
    <glyph glyph-name="uni1F02" unicode="&#x1f02;" horiz-adv-x="498" 
d="M435 0h-25v108h-1c-19 -53 -71 -112 -160 -112c-145 0 -190 128 -190 249c0 144 51 258 192 258c54 0 122 -14 158 -106h1v99h25v-496zM410 252c0 91 -23 230 -161 230c-143 0 -164 -137 -164 -233c0 -103 29 -232 164 -232c115 0 161 104 161 235zM189 580l-15 9
c34 61 42 109 -21 129l15 29c78 -25 83 -100 21 -167zM363 585l-16 -6l-101 159l38 9z" />
    <glyph glyph-name="uni1F03" unicode="&#x1f03;" horiz-adv-x="498" 
d="M435 0h-25v108h-1c-19 -53 -71 -112 -160 -112c-145 0 -190 128 -190 249c0 144 51 258 192 258c54 0 122 -14 158 -106h1v99h25v-496zM410 252c0 91 -23 230 -161 230c-143 0 -164 -137 -164 -233c0 -103 29 -232 164 -232c115 0 161 104 161 235zM204 589l-15 -9
c-62 67 -57 142 21 167l15 -29c-63 -20 -55 -68 -21 -129zM362 585l-16 -6l-101 159l38 9z" />
    <glyph glyph-name="uni1F04" unicode="&#x1f04;" horiz-adv-x="498" 
d="M435 0h-25v108h-1c-19 -53 -71 -112 -160 -112c-145 0 -190 128 -190 249c0 144 51 258 192 258c54 0 122 -14 158 -106h1v99h25v-496zM410 252c0 91 -23 230 -161 230c-143 0 -164 -137 -164 -233c0 -103 29 -232 164 -232c115 0 161 104 161 235zM217 580l-15 9
c34 61 42 109 -21 129l15 29c78 -25 83 -100 21 -167zM272 579l-16 6l89 162l38 -9z" />
    <glyph glyph-name="uni1F05" unicode="&#x1f05;" horiz-adv-x="498" 
d="M435 0h-25v108h-1c-19 -53 -71 -112 -160 -112c-145 0 -190 128 -190 249c0 144 51 258 192 258c54 0 122 -14 158 -106h1v99h25v-496zM410 252c0 91 -23 230 -161 230c-143 0 -164 -137 -164 -233c0 -103 29 -232 164 -232c115 0 161 104 161 235zM234 589l-15 -9
c-62 67 -57 142 21 167l15 -29c-63 -20 -55 -68 -21 -129zM272 579l-16 6l89 162l38 -9z" />
    <glyph glyph-name="uni1F06" unicode="&#x1f06;" horiz-adv-x="498" 
d="M435 0h-25v108h-1c-19 -53 -71 -112 -160 -112c-145 0 -190 128 -190 249c0 144 51 258 192 258c54 0 122 -14 158 -106h1v99h25v-496zM410 252c0 91 -23 230 -161 230c-143 0 -164 -137 -164 -233c0 -103 29 -232 164 -232c115 0 161 104 161 235zM249 545l-12 4
c16 28 25 52 25 71c0 23 -13 39 -47 50l13 29c43 -14 63 -38 63 -69c0 -25 -14 -54 -42 -85zM191 793c39 0 88 -40 121 -40c21 0 34 12 53 39l20 -12c-23 -40 -47 -54 -74 -54c-36 0 -85 40 -122 40c-26 0 -45 -15 -64 -38l-19 12c24 34 54 53 85 53z" />
    <glyph glyph-name="uni1F07" unicode="&#x1f07;" horiz-adv-x="498" 
d="M435 0h-25v108h-1c-19 -53 -71 -112 -160 -112c-145 0 -190 128 -190 249c0 144 51 258 192 258c54 0 122 -14 158 -106h1v99h25v-496zM410 252c0 91 -23 230 -161 230c-143 0 -164 -137 -164 -233c0 -103 29 -232 164 -232c115 0 161 104 161 235zM264 549l-12 -4
c-28 31 -42 60 -42 85c0 31 20 55 63 69l13 -29c-34 -11 -47 -27 -47 -50c0 -19 9 -43 25 -71zM203 793c39 0 88 -40 121 -40c21 0 34 12 53 39l20 -12c-23 -40 -47 -54 -74 -54c-36 0 -85 40 -122 40c-26 0 -45 -15 -64 -38l-19 12c24 34 54 53 85 53z" />
    <glyph glyph-name="uni1F08" unicode="&#x1f08;" horiz-adv-x="578" 
d="M529 0l-61 175h-358l-62 -175h-30l253 696h36l253 -696h-31zM290 670h-2l-169 -470h340zM38 524l-15 9c34 61 42 109 -21 129l15 29c78 -25 83 -100 21 -167z" />
    <glyph glyph-name="uni1F09" unicode="&#x1f09;" horiz-adv-x="578" 
d="M529 0l-61 175h-358l-62 -175h-30l253 696h36l253 -696h-31zM290 670h-2l-169 -470h340zM61 534l-15 -9c-62 67 -57 142 21 167l15 -29c-63 -20 -55 -68 -21 -129z" />
    <glyph glyph-name="uni1F0A" unicode="&#x1f0a;" horiz-adv-x="578" 
d="M529 0l-61 175h-358l-62 -175h-30l253 696h36l253 -696h-31zM290 670h-2l-169 -470h340zM-68 524l-15 9c34 61 42 109 -21 129l15 29c78 -25 83 -100 21 -167zM106 529l-16 -6l-101 159l38 9z" />
    <glyph glyph-name="uni1F0B" unicode="&#x1f0b;" horiz-adv-x="578" 
d="M529 0l-61 175h-358l-62 -175h-30l253 696h36l253 -696h-31zM290 670h-2l-169 -470h340zM-32 534l-15 -9c-62 67 -57 142 21 167l15 -29c-63 -20 -55 -68 -21 -129zM126 530l-16 -6l-101 159l38 9z" />
    <glyph glyph-name="uni1F0C" unicode="&#x1f0c;" horiz-adv-x="578" 
d="M529 0l-61 175h-358l-62 -175h-30l253 696h36l253 -696h-31zM290 670h-2l-169 -470h340zM-66 523l-15 9c34 61 42 109 -21 129l15 29c78 -25 83 -100 21 -167zM-11 522l-16 6l89 162l38 -9z" />
    <glyph glyph-name="uni1F0D" unicode="&#x1f0d;" horiz-adv-x="578" 
d="M529 0l-61 175h-358l-62 -175h-30l253 696h36l253 -696h-31zM290 670h-2l-169 -470h340zM-46 534l-15 -9c-62 67 -57 142 21 167l15 -29c-63 -20 -55 -68 -21 -129zM-8 524l-16 6l89 162l38 -9z" />
    <glyph glyph-name="uni1F0E" unicode="&#x1f0e;" horiz-adv-x="578" 
d="M529 0l-61 175h-358l-62 -175h-30l253 696h36l253 -696h-31zM290 670h-2l-169 -470h340zM-3 435l-12 4c16 28 25 52 25 71c0 23 -13 39 -47 50l13 29c43 -14 63 -38 63 -69c0 -25 -14 -54 -42 -85zM-61 683c39 0 88 -40 121 -40c21 0 34 12 53 39l20 -12
c-23 -40 -47 -54 -74 -54c-36 0 -85 40 -122 40c-26 0 -45 -15 -64 -38l-19 12c24 34 54 53 85 53z" />
    <glyph glyph-name="uni1F0F" unicode="&#x1f0f;" horiz-adv-x="578" 
d="M529 0l-61 175h-358l-62 -175h-30l253 696h36l253 -696h-31zM290 670h-2l-169 -470h340zM11 440l-12 -4c-28 31 -42 60 -42 85c0 31 20 55 63 69l13 -29c-34 -11 -47 -27 -47 -50c0 -19 9 -43 25 -71zM-50 684c39 0 88 -40 121 -40c21 0 34 12 53 39l20 -12
c-23 -40 -47 -54 -74 -54c-36 0 -85 40 -122 40c-26 0 -45 -15 -64 -38l-19 12c24 34 54 53 85 53z" />
    <glyph glyph-name="uni1F10" unicode="&#x1f10;" horiz-adv-x="421" 
d="M151 261c-79 19 -86 84 -86 111c0 60 45 129 177 129c53 0 109 -15 148 -44l-15 -17c-36 25 -92 41 -136 41c-80 0 -149 -37 -149 -110c0 -68 51 -98 129 -98h63v-23h-64c-69 0 -140 -39 -140 -117c0 -81 80 -116 168 -116c38 0 99 14 136 40l13 -18
c-40 -29 -99 -43 -154 -43c-129 0 -188 56 -188 141c0 25 12 97 99 122zM242 580l-15 9c34 61 42 109 -21 129l15 29c78 -25 83 -100 21 -167z" />
    <glyph glyph-name="uni1F11" unicode="&#x1f11;" horiz-adv-x="421" 
d="M151 261c-79 19 -86 84 -86 111c0 60 45 129 177 129c53 0 109 -15 148 -44l-15 -17c-36 25 -92 41 -136 41c-80 0 -149 -37 -149 -110c0 -68 51 -98 129 -98h63v-23h-64c-69 0 -140 -39 -140 -117c0 -81 80 -116 168 -116c38 0 99 14 136 40l13 -18
c-40 -29 -99 -43 -154 -43c-129 0 -188 56 -188 141c0 25 12 97 99 122zM262 589l-15 -9c-62 67 -57 142 21 167l15 -29c-63 -20 -55 -68 -21 -129z" />
    <glyph glyph-name="uni1F12" unicode="&#x1f12;" horiz-adv-x="421" 
d="M151 261c-79 19 -86 84 -86 111c0 60 45 129 177 129c53 0 109 -15 148 -44l-15 -17c-36 25 -92 41 -136 41c-80 0 -149 -37 -149 -110c0 -68 51 -98 129 -98h63v-23h-64c-69 0 -140 -39 -140 -117c0 -81 80 -116 168 -116c38 0 99 14 136 40l13 -18
c-40 -29 -99 -43 -154 -43c-129 0 -188 56 -188 141c0 25 12 97 99 122zM155 580l-15 9c34 61 42 109 -21 129l15 29c78 -25 83 -100 21 -167zM329 585l-16 -6l-101 159l38 9z" />
    <glyph glyph-name="uni1F13" unicode="&#x1f13;" horiz-adv-x="421" 
d="M151 261c-79 19 -86 84 -86 111c0 60 45 129 177 129c53 0 109 -15 148 -44l-15 -17c-36 25 -92 41 -136 41c-80 0 -149 -37 -149 -110c0 -68 51 -98 129 -98h63v-23h-64c-69 0 -140 -39 -140 -117c0 -81 80 -116 168 -116c38 0 99 14 136 40l13 -18
c-40 -29 -99 -43 -154 -43c-129 0 -188 56 -188 141c0 25 12 97 99 122zM169 589l-15 -9c-62 67 -57 142 21 167l15 -29c-63 -20 -55 -68 -21 -129zM327 585l-16 -6l-101 159l38 9z" />
    <glyph glyph-name="uni1F14" unicode="&#x1f14;" horiz-adv-x="421" 
d="M151 261c-79 19 -86 84 -86 111c0 60 45 129 177 129c53 0 109 -15 148 -44l-15 -17c-36 25 -92 41 -136 41c-80 0 -149 -37 -149 -110c0 -68 51 -98 129 -98h63v-23h-64c-69 0 -140 -39 -140 -117c0 -81 80 -116 168 -116c38 0 99 14 136 40l13 -18
c-40 -29 -99 -43 -154 -43c-129 0 -188 56 -188 141c0 25 12 97 99 122zM193 580l-15 9c34 61 42 109 -21 129l15 29c78 -25 83 -100 21 -167zM248 579l-16 6l89 162l38 -9z" />
    <glyph glyph-name="uni1F15" unicode="&#x1f15;" horiz-adv-x="421" 
d="M151 261c-79 19 -86 84 -86 111c0 60 45 129 177 129c53 0 109 -15 148 -44l-15 -17c-36 25 -92 41 -136 41c-80 0 -149 -37 -149 -110c0 -68 51 -98 129 -98h63v-23h-64c-69 0 -140 -39 -140 -117c0 -81 80 -116 168 -116c38 0 99 14 136 40l13 -18
c-40 -29 -99 -43 -154 -43c-129 0 -188 56 -188 141c0 25 12 97 99 122zM211 589l-15 -9c-62 67 -57 142 21 167l15 -29c-63 -20 -55 -68 -21 -129zM249 579l-16 6l89 162l38 -9z" />
    <glyph glyph-name="uni1F18" unicode="&#x1f18;" horiz-adv-x="520" 
d="M80 0v696h413v-24h-386v-306h330v-24h-330v-318h386v-24h-413zM-60 530l-15 9c34 61 42 109 -21 129l15 29c78 -25 83 -100 21 -167z" />
    <glyph glyph-name="uni1F19" unicode="&#x1f19;" horiz-adv-x="520" 
d="M80 0v696h413v-24h-386v-306h330v-24h-330v-318h386v-24h-413zM-20 539l-15 -9c-62 67 -57 142 21 167l15 -29c-63 -20 -55 -68 -21 -129z" />
    <glyph glyph-name="uni1F1A" unicode="&#x1f1a;" horiz-adv-x="520" 
d="M80 0v696h413v-24h-386v-306h330v-24h-330v-318h386v-24h-413zM-172 530l-15 9c34 61 42 109 -21 129l15 29c78 -25 83 -100 21 -167zM2 535l-16 -6l-101 159l38 9z" />
    <glyph glyph-name="uni1F1B" unicode="&#x1f1b;" horiz-adv-x="520" 
d="M80 0v696h413v-24h-386v-306h330v-24h-330v-318h386v-24h-413zM-156 539l-15 -9c-62 67 -57 142 21 167l15 -29c-63 -20 -55 -68 -21 -129zM2 535l-16 -6l-101 159l38 9z" />
    <glyph glyph-name="uni1F1C" unicode="&#x1f1c;" horiz-adv-x="520" 
d="M80 0v696h413v-24h-386v-306h330v-24h-330v-318h386v-24h-413zM-164 530l-15 9c34 61 42 109 -21 129l15 29c78 -25 83 -100 21 -167zM-109 529l-16 6l89 162l38 -9z" />
    <glyph glyph-name="uni1F1D" unicode="&#x1f1d;" horiz-adv-x="520" 
d="M80 0v696h413v-24h-386v-306h330v-24h-330v-318h386v-24h-413zM-147 539l-15 -9c-62 67 -57 142 21 167l15 -29c-63 -20 -55 -68 -21 -129zM-109 529l-16 6l89 162l38 -9z" />
    <glyph glyph-name="uni1F20" unicode="&#x1f20;" horiz-adv-x="500" 
d="M412 0v327c0 100 -58 151 -154 151c-94 0 -171 -73 -171 -176v-302h-24v494h24v-96h2c33 73 111 102 171 102c119 0 176 -63 176 -166v-334h-24zM240 580l-15 9c34 61 42 109 -21 129l15 29c78 -25 83 -100 21 -167z" />
    <glyph glyph-name="uni1F21" unicode="&#x1f21;" horiz-adv-x="500" 
d="M412 0v327c0 100 -58 151 -154 151c-94 0 -171 -73 -171 -176v-302h-24v494h24v-96h2c33 73 111 102 171 102c119 0 176 -63 176 -166v-334h-24zM267 589l-15 -9c-62 67 -57 142 21 167l15 -29c-63 -20 -55 -68 -21 -129z" />
    <glyph glyph-name="uni1F22" unicode="&#x1f22;" horiz-adv-x="500" 
d="M412 0v327c0 100 -58 151 -154 151c-94 0 -171 -73 -171 -176v-302h-24v494h24v-96h2c33 73 111 102 171 102c119 0 176 -63 176 -166v-334h-24zM164 580l-15 9c34 61 42 109 -21 129l15 29c78 -25 83 -100 21 -167zM338 585l-16 -6l-101 159l38 9z" />
    <glyph glyph-name="uni1F23" unicode="&#x1f23;" horiz-adv-x="500" 
d="M412 0v327c0 100 -58 151 -154 151c-94 0 -171 -73 -171 -176v-302h-24v494h24v-96h2c33 73 111 102 171 102c119 0 176 -63 176 -166v-334h-24zM179 589l-15 -9c-62 67 -57 142 21 167l15 -29c-63 -20 -55 -68 -21 -129zM337 585l-16 -6l-101 159l38 9z" />
    <glyph glyph-name="uni1F24" unicode="&#x1f24;" horiz-adv-x="500" 
d="M412 0v327c0 100 -58 151 -154 151c-94 0 -171 -73 -171 -176v-302h-24v494h24v-96h2c33 73 111 102 171 102c119 0 176 -63 176 -166v-334h-24zM208 580l-15 9c34 61 42 109 -21 129l15 29c78 -25 83 -100 21 -167zM263 579l-16 6l89 162l38 -9z" />
    <glyph glyph-name="uni1F25" unicode="&#x1f25;" horiz-adv-x="500" 
d="M412 0v327c0 100 -58 151 -154 151c-94 0 -171 -73 -171 -176v-302h-24v494h24v-96h2c33 73 111 102 171 102c119 0 176 -63 176 -166v-334h-24zM225 589l-15 -9c-62 67 -57 142 21 167l15 -29c-63 -20 -55 -68 -21 -129zM263 579l-16 6l89 162l38 -9z" />
    <glyph glyph-name="uni1F26" unicode="&#x1f26;" horiz-adv-x="500" 
d="M412 0v327c0 100 -58 151 -154 151c-94 0 -171 -73 -171 -176v-302h-24v494h24v-96h2c33 73 111 102 171 102c119 0 176 -63 176 -166v-334h-24zM227 545l-12 4c16 28 25 52 25 71c0 23 -13 39 -47 50l13 29c43 -14 63 -38 63 -69c0 -25 -14 -54 -42 -85zM169 793
c39 0 88 -40 121 -40c21 0 34 12 53 39l20 -12c-23 -40 -47 -54 -74 -54c-36 0 -85 40 -122 40c-26 0 -45 -15 -64 -38l-19 12c24 34 54 53 85 53z" />
    <glyph glyph-name="uni1F27" unicode="&#x1f27;" horiz-adv-x="500" 
d="M412 0v327c0 100 -58 151 -154 151c-94 0 -171 -73 -171 -176v-302h-24v494h24v-96h2c33 73 111 102 171 102c119 0 176 -63 176 -166v-334h-24zM240 548l-12 -4c-28 31 -42 60 -42 85c0 31 20 55 63 69l13 -29c-34 -11 -47 -27 -47 -50c0 -19 9 -43 25 -71zM179 792
c39 0 88 -40 121 -40c21 0 34 12 53 39l20 -12c-23 -40 -47 -54 -74 -54c-36 0 -85 40 -122 40c-26 0 -45 -15 -64 -38l-19 12c24 34 54 53 85 53z" />
    <glyph glyph-name="uni1F28" unicode="&#x1f28;" horiz-adv-x="619" 
d="M513 0v342h-407v-342h-26v696h26v-330h407v330h26v-696h-26zM-42 530l-15 9c34 61 42 109 -21 129l15 29c78 -25 83 -100 21 -167z" />
    <glyph glyph-name="uni1F29" unicode="&#x1f29;" horiz-adv-x="619" 
d="M513 0v342h-407v-342h-26v696h26v-330h407v330h26v-696h-26zM-19 539l-15 -9c-62 67 -57 142 21 167l15 -29c-63 -20 -55 -68 -21 -129z" />
    <glyph glyph-name="uni1F2A" unicode="&#x1f2a;" horiz-adv-x="619" 
d="M513 0v342h-407v-342h-26v696h26v-330h407v330h26v-696h-26zM-172 530l-15 9c34 61 42 109 -21 129l15 29c78 -25 83 -100 21 -167zM2 535l-16 -6l-101 159l38 9z" />
    <glyph glyph-name="uni1F2B" unicode="&#x1f2b;" horiz-adv-x="619" 
d="M513 0v342h-407v-342h-26v696h26v-330h407v330h26v-696h-26zM-157 539l-15 -9c-62 67 -57 142 21 167l15 -29c-63 -20 -55 -68 -21 -129zM1 535l-16 -6l-101 159l38 9z" />
    <glyph glyph-name="uni1F2C" unicode="&#x1f2c;" horiz-adv-x="619" 
d="M513 0v342h-407v-342h-26v696h26v-330h407v330h26v-696h-26zM-165 530l-15 9c34 61 42 109 -21 129l15 29c78 -25 83 -100 21 -167zM-110 529l-16 6l89 162l38 -9z" />
    <glyph glyph-name="uni1F2D" unicode="&#x1f2d;" horiz-adv-x="619" 
d="M513 0v342h-407v-342h-26v696h26v-330h407v330h26v-696h-26zM-150 539l-15 -9c-62 67 -57 142 21 167l15 -29c-63 -20 -55 -68 -21 -129zM-112 529l-16 6l89 162l38 -9z" />
    <glyph glyph-name="uni1F2E" unicode="&#x1f2e;" horiz-adv-x="619" 
d="M513 0v342h-407v-342h-26v696h26v-330h407v330h26v-696h-26zM-118 436l-12 4c16 28 25 52 25 71c0 23 -13 39 -47 50l13 29c43 -14 63 -38 63 -69c0 -25 -14 -54 -42 -85zM-176 684c39 0 88 -40 121 -40c21 0 34 12 53 39l20 -12c-23 -40 -47 -54 -74 -54
c-36 0 -85 40 -122 40c-26 0 -45 -15 -64 -38l-19 12c24 34 54 53 85 53z" />
    <glyph glyph-name="uni1F2F" unicode="&#x1f2f;" horiz-adv-x="619" 
d="M513 0v342h-407v-342h-26v696h26v-330h407v330h26v-696h-26zM-106 440l-12 -4c-28 31 -42 60 -42 85c0 31 20 55 63 69l13 -29c-34 -11 -47 -27 -47 -50c0 -19 9 -43 25 -71zM-167 684c39 0 88 -40 121 -40c21 0 34 12 53 39l20 -12c-23 -40 -47 -54 -74 -54
c-36 0 -85 40 -122 40c-26 0 -45 -15 -64 -38l-19 12c24 34 54 53 85 53z" />
    <glyph glyph-name="uni1F30" unicode="&#x1f30;" horiz-adv-x="197" 
d="M160 20v-23h-12c-54 0 -71 35 -71 83v415h25v-413c0 -40 15 -62 49 -62h9zM95 580l-15 9c34 61 42 109 -21 129l15 29c78 -25 83 -100 21 -167z" />
    <glyph glyph-name="uni1F31" unicode="&#x1f31;" horiz-adv-x="197" 
d="M160 20v-23h-12c-54 0 -71 35 -71 83v415h25v-413c0 -40 15 -62 49 -62h9zM118 589l-15 -9c-62 67 -57 142 21 167l15 -29c-63 -20 -55 -68 -21 -129z" />
    <glyph glyph-name="uni1F32" unicode="&#x1f32;" horiz-adv-x="197" 
d="M160 20v-23h-12c-54 0 -71 35 -71 83v415h25v-413c0 -40 15 -62 49 -62h9zM23 580l-15 9c34 61 42 109 -21 129l15 29c78 -25 83 -100 21 -167zM197 585l-16 -6l-101 159l38 9z" />
    <glyph glyph-name="uni1F33" unicode="&#x1f33;" horiz-adv-x="197" 
d="M160 20v-23h-12c-54 0 -71 35 -71 83v415h25v-413c0 -40 15 -62 49 -62h9zM37 591l-15 -9c-62 67 -57 142 21 167l15 -29c-63 -20 -55 -68 -21 -129zM195 587l-16 -6l-101 159l38 9z" />
    <glyph glyph-name="uni1F34" unicode="&#x1f34;" horiz-adv-x="197" 
d="M160 20v-23h-12c-54 0 -71 35 -71 83v415h25v-413c0 -40 15 -62 49 -62h9zM55 580l-15 9c34 61 42 109 -21 129l15 29c78 -25 83 -100 21 -167zM110 579l-16 6l89 162l38 -9z" />
    <glyph glyph-name="uni1F35" unicode="&#x1f35;" horiz-adv-x="197" 
d="M160 20v-23h-12c-54 0 -71 35 -71 83v415h25v-413c0 -40 15 -62 49 -62h9zM81 589l-15 -9c-62 67 -57 142 21 167l15 -29c-63 -20 -55 -68 -21 -129zM119 579l-16 6l89 162l38 -9z" />
    <glyph glyph-name="uni1F36" unicode="&#x1f36;" horiz-adv-x="197" 
d="M160 20v-23h-12c-54 0 -71 35 -71 83v415h25v-413c0 -40 15 -62 49 -62h9zM87 545l-12 4c16 28 25 52 25 71c0 23 -13 39 -47 50l13 29c43 -14 63 -38 63 -69c0 -25 -14 -54 -42 -85zM29 793c39 0 88 -40 121 -40c21 0 34 12 53 39l20 -12c-23 -40 -47 -54 -74 -54
c-36 0 -85 40 -122 40c-26 0 -45 -15 -64 -38l-19 12c24 34 54 53 85 53z" />
    <glyph glyph-name="uni1F37" unicode="&#x1f37;" horiz-adv-x="197" 
d="M160 20v-23h-12c-54 0 -71 35 -71 83v415h25v-413c0 -40 15 -62 49 -62h9zM105 549l-12 -4c-28 31 -42 60 -42 85c0 31 20 55 63 69l13 -29c-34 -11 -47 -27 -47 -50c0 -19 9 -43 25 -71zM44 793c39 0 88 -40 121 -40c21 0 34 12 53 39l20 -12c-23 -40 -47 -54 -74 -54
c-36 0 -85 40 -122 40c-26 0 -45 -15 -64 -38l-19 12c24 34 54 53 85 53z" />
    <glyph glyph-name="uni1F38" unicode="&#x1f38;" horiz-adv-x="198" 
d="M86 0v696h26v-696h-26zM-43 530l-15 9c34 61 42 109 -21 129l15 29c78 -25 83 -100 21 -167z" />
    <glyph glyph-name="uni1F39" unicode="&#x1f39;" horiz-adv-x="198" 
d="M86 0v696h26v-696h-26zM-18 539l-15 -9c-62 67 -57 142 21 167l15 -29c-63 -20 -55 -68 -21 -129z" />
    <glyph glyph-name="uni1F3A" unicode="&#x1f3a;" horiz-adv-x="198" 
d="M86 0v696h26v-696h-26zM-172 530l-15 9c34 61 42 109 -21 129l15 29c78 -25 83 -100 21 -167zM2 535l-16 -6l-101 159l38 9z" />
    <glyph glyph-name="uni1F3B" unicode="&#x1f3b;" horiz-adv-x="198" 
d="M86 0v696h26v-696h-26zM-155 539l-15 -9c-62 67 -57 142 21 167l15 -29c-63 -20 -55 -68 -21 -129zM3 535l-16 -6l-101 159l38 9z" />
    <glyph glyph-name="uni1F3C" unicode="&#x1f3c;" horiz-adv-x="198" 
d="M86 0v696h26v-696h-26zM-165 530l-15 9c34 61 42 109 -21 129l15 29c78 -25 83 -100 21 -167zM-110 529l-16 6l89 162l38 -9z" />
    <glyph glyph-name="uni1F3D" unicode="&#x1f3d;" horiz-adv-x="198" 
d="M86 0v696h26v-696h-26zM-147 539l-15 -9c-62 67 -57 142 21 167l15 -29c-63 -20 -55 -68 -21 -129zM-109 529l-16 6l89 162l38 -9z" />
    <glyph glyph-name="uni1F3E" unicode="&#x1f3e;" horiz-adv-x="198" 
d="M86 0v696h26v-696h-26zM-165 435l-12 4c16 28 25 52 25 71c0 23 -13 39 -47 50l13 29c43 -14 63 -38 63 -69c0 -25 -14 -54 -42 -85zM-223 683c39 0 88 -40 121 -40c21 0 34 12 53 39l20 -12c-23 -40 -47 -54 -74 -54c-36 0 -85 40 -122 40c-26 0 -45 -15 -64 -38l-19 12
c24 34 54 53 85 53z" />
    <glyph glyph-name="uni1F3F" unicode="&#x1f3f;" horiz-adv-x="198" 
d="M86 0v696h26v-696h-26zM-132 439l-12 -4c-28 31 -42 60 -42 85c0 31 20 55 63 69l13 -29c-34 -11 -47 -27 -47 -50c0 -19 9 -43 25 -71zM-193 683c39 0 88 -40 121 -40c21 0 34 12 53 39l20 -12c-23 -40 -47 -54 -74 -54c-36 0 -85 40 -122 40c-26 0 -45 -15 -64 -38
l-19 12c24 34 54 53 85 53z" />
    <glyph glyph-name="uni1F40" unicode="&#x1f40;" horiz-adv-x="477" 
d="M241 501c71 0 126 -28 159 -79c21 -33 36 -80 36 -178c0 -102 -25 -160 -57 -195c-33 -36 -81 -55 -143 -55c-58 0 -101 17 -132 47c-39 39 -63 101 -63 210c0 107 29 168 70 204c32 28 75 46 130 46zM240 479c-51 0 -91 -19 -119 -48c-33 -34 -55 -82 -55 -183
c0 -102 22 -154 56 -189c28 -28 68 -44 117 -44c50 0 93 19 121 48c30 32 51 78 51 182c0 98 -15 139 -34 166c-29 42 -78 68 -137 68zM224 580l-15 9c34 61 42 109 -21 129l15 29c78 -25 83 -100 21 -167z" />
    <glyph glyph-name="uni1F41" unicode="&#x1f41;" horiz-adv-x="477" 
d="M241 501c71 0 126 -28 159 -79c21 -33 36 -80 36 -178c0 -102 -25 -160 -57 -195c-33 -36 -81 -55 -143 -55c-58 0 -101 17 -132 47c-39 39 -63 101 -63 210c0 107 29 168 70 204c32 28 75 46 130 46zM240 479c-51 0 -91 -19 -119 -48c-33 -34 -55 -82 -55 -183
c0 -102 22 -154 56 -189c28 -28 68 -44 117 -44c50 0 93 19 121 48c30 32 51 78 51 182c0 98 -15 139 -34 166c-29 42 -78 68 -137 68zM265 589l-15 -9c-62 67 -57 142 21 167l15 -29c-63 -20 -55 -68 -21 -129z" />
    <glyph glyph-name="uni1F42" unicode="&#x1f42;" horiz-adv-x="477" 
d="M241 501c71 0 126 -28 159 -79c21 -33 36 -80 36 -178c0 -102 -25 -160 -57 -195c-33 -36 -81 -55 -143 -55c-58 0 -101 17 -132 47c-39 39 -63 101 -63 210c0 107 29 168 70 204c32 28 75 46 130 46zM240 479c-51 0 -91 -19 -119 -48c-33 -34 -55 -82 -55 -183
c0 -102 22 -154 56 -189c28 -28 68 -44 117 -44c50 0 93 19 121 48c30 32 51 78 51 182c0 98 -15 139 -34 166c-29 42 -78 68 -137 68zM174 580l-15 9c34 61 42 109 -21 129l15 29c78 -25 83 -100 21 -167zM348 585l-16 -6l-101 159l38 9z" />
    <glyph glyph-name="uni1F43" unicode="&#x1f43;" horiz-adv-x="477" 
d="M241 501c71 0 126 -28 159 -79c21 -33 36 -80 36 -178c0 -102 -25 -160 -57 -195c-33 -36 -81 -55 -143 -55c-58 0 -101 17 -132 47c-39 39 -63 101 -63 210c0 107 29 168 70 204c32 28 75 46 130 46zM240 479c-51 0 -91 -19 -119 -48c-33 -34 -55 -82 -55 -183
c0 -102 22 -154 56 -189c28 -28 68 -44 117 -44c50 0 93 19 121 48c30 32 51 78 51 182c0 98 -15 139 -34 166c-29 42 -78 68 -137 68zM200 589l-15 -9c-62 67 -57 142 21 167l15 -29c-63 -20 -55 -68 -21 -129zM358 585l-16 -6l-101 159l38 9z" />
    <glyph glyph-name="uni1F44" unicode="&#x1f44;" horiz-adv-x="477" 
d="M241 501c71 0 126 -28 159 -79c21 -33 36 -80 36 -178c0 -102 -25 -160 -57 -195c-33 -36 -81 -55 -143 -55c-58 0 -101 17 -132 47c-39 39 -63 101 -63 210c0 107 29 168 70 204c32 28 75 46 130 46zM240 479c-51 0 -91 -19 -119 -48c-33 -34 -55 -82 -55 -183
c0 -102 22 -154 56 -189c28 -28 68 -44 117 -44c50 0 93 19 121 48c30 32 51 78 51 182c0 98 -15 139 -34 166c-29 42 -78 68 -137 68zM216 580l-15 9c34 61 42 109 -21 129l15 29c78 -25 83 -100 21 -167zM271 579l-16 6l89 162l38 -9z" />
    <glyph glyph-name="uni1F45" unicode="&#x1f45;" horiz-adv-x="477" 
d="M241 501c71 0 126 -28 159 -79c21 -33 36 -80 36 -178c0 -102 -25 -160 -57 -195c-33 -36 -81 -55 -143 -55c-58 0 -101 17 -132 47c-39 39 -63 101 -63 210c0 107 29 168 70 204c32 28 75 46 130 46zM240 479c-51 0 -91 -19 -119 -48c-33 -34 -55 -82 -55 -183
c0 -102 22 -154 56 -189c28 -28 68 -44 117 -44c50 0 93 19 121 48c30 32 51 78 51 182c0 98 -15 139 -34 166c-29 42 -78 68 -137 68zM227 589l-15 -9c-62 67 -57 142 21 167l15 -29c-63 -20 -55 -68 -21 -129zM265 579l-16 6l89 162l38 -9z" />
    <glyph glyph-name="uni1F48" unicode="&#x1f48;" horiz-adv-x="559" 
d="M280 701c147 0 233 -101 233 -243v-215c0 -153 -88 -250 -233 -250c-164 0 -237 115 -237 250v215c0 131 78 243 237 243zM281 676c-141 0 -211 -99 -211 -220v-218c0 -118 70 -221 211 -221c128 0 205 94 205 227v212c0 125 -76 220 -205 220zM-44 530l-15 9
c34 61 42 109 -21 129l15 29c78 -25 83 -100 21 -167z" />
    <glyph glyph-name="uni1F49" unicode="&#x1f49;" horiz-adv-x="559" 
d="M280 701c147 0 233 -101 233 -243v-215c0 -153 -88 -250 -233 -250c-164 0 -237 115 -237 250v215c0 131 78 243 237 243zM281 676c-141 0 -211 -99 -211 -220v-218c0 -118 70 -221 211 -221c128 0 205 94 205 227v212c0 125 -76 220 -205 220zM-19 539l-15 -9
c-62 67 -57 142 21 167l15 -29c-63 -20 -55 -68 -21 -129z" />
    <glyph glyph-name="uni1F4A" unicode="&#x1f4a;" horiz-adv-x="559" 
d="M280 701c147 0 233 -101 233 -243v-215c0 -153 -88 -250 -233 -250c-164 0 -237 115 -237 250v215c0 131 78 243 237 243zM281 676c-141 0 -211 -99 -211 -220v-218c0 -118 70 -221 211 -221c128 0 205 94 205 227v212c0 125 -76 220 -205 220zM-172 530l-15 9
c34 61 42 109 -21 129l15 29c78 -25 83 -100 21 -167zM2 535l-16 -6l-101 159l38 9z" />
    <glyph glyph-name="uni1F4B" unicode="&#x1f4b;" horiz-adv-x="559" 
d="M280 701c147 0 233 -101 233 -243v-215c0 -153 -88 -250 -233 -250c-164 0 -237 115 -237 250v215c0 131 78 243 237 243zM281 676c-141 0 -211 -99 -211 -220v-218c0 -118 70 -221 211 -221c128 0 205 94 205 227v212c0 125 -76 220 -205 220zM-155 539l-15 -9
c-62 67 -57 142 21 167l15 -29c-63 -20 -55 -68 -21 -129zM3 535l-16 -6l-101 159l38 9z" />
    <glyph glyph-name="uni1F4C" unicode="&#x1f4c;" horiz-adv-x="559" 
d="M280 701c147 0 233 -101 233 -243v-215c0 -153 -88 -250 -233 -250c-164 0 -237 115 -237 250v215c0 131 78 243 237 243zM281 676c-141 0 -211 -99 -211 -220v-218c0 -118 70 -221 211 -221c128 0 205 94 205 227v212c0 125 -76 220 -205 220zM-165 530l-15 9
c34 61 42 109 -21 129l15 29c78 -25 83 -100 21 -167zM-110 529l-16 6l89 162l38 -9z" />
    <glyph glyph-name="uni1F4D" unicode="&#x1f4d;" horiz-adv-x="559" 
d="M280 701c147 0 233 -101 233 -243v-215c0 -153 -88 -250 -233 -250c-164 0 -237 115 -237 250v215c0 131 78 243 237 243zM281 676c-141 0 -211 -99 -211 -220v-218c0 -118 70 -221 211 -221c128 0 205 94 205 227v212c0 125 -76 220 -205 220zM-147 539l-15 -9
c-62 67 -57 142 21 167l15 -29c-63 -20 -55 -68 -21 -129zM-109 529l-16 6l89 162l38 -9z" />
    <glyph glyph-name="uni1F50" unicode="&#x1f50;" horiz-adv-x="518" 
d="M259 -7c-112 0 -186 75 -186 184v318h24v-304c0 -104 60 -176 163 -176c104 0 162 64 162 162v318h25v-314c0 -126 -75 -188 -188 -188zM242 580l-15 9c34 61 42 109 -21 129l15 29c78 -25 83 -100 21 -167z" />
    <glyph glyph-name="uni1F51" unicode="&#x1f51;" horiz-adv-x="518" 
d="M259 -7c-112 0 -186 75 -186 184v318h24v-304c0 -104 60 -176 163 -176c104 0 162 64 162 162v318h25v-314c0 -126 -75 -188 -188 -188zM283 589l-15 -9c-62 67 -57 142 21 167l15 -29c-63 -20 -55 -68 -21 -129z" />
    <glyph glyph-name="uni1F52" unicode="&#x1f52;" horiz-adv-x="518" 
d="M259 -7c-112 0 -186 75 -186 184v318h24v-304c0 -104 60 -176 163 -176c104 0 162 64 162 162v318h25v-314c0 -126 -75 -188 -188 -188zM184 580l-15 9c34 61 42 109 -21 129l15 29c78 -25 83 -100 21 -167zM358 585l-16 -6l-101 159l38 9z" />
    <glyph glyph-name="uni1F53" unicode="&#x1f53;" horiz-adv-x="518" 
d="M259 -7c-112 0 -186 75 -186 184v318h24v-304c0 -104 60 -176 163 -176c104 0 162 64 162 162v318h25v-314c0 -126 -75 -188 -188 -188zM218 589l-15 -9c-62 67 -57 142 21 167l15 -29c-63 -20 -55 -68 -21 -129zM376 585l-16 -6l-101 159l38 9z" />
    <glyph glyph-name="uni1F54" unicode="&#x1f54;" horiz-adv-x="518" 
d="M259 -7c-112 0 -186 75 -186 184v318h24v-304c0 -104 60 -176 163 -176c104 0 162 64 162 162v318h25v-314c0 -126 -75 -188 -188 -188zM238 580l-15 9c34 61 42 109 -21 129l15 29c78 -25 83 -100 21 -167zM293 579l-16 6l89 162l38 -9z" />
    <glyph glyph-name="uni1F55" unicode="&#x1f55;" horiz-adv-x="518" 
d="M259 -7c-112 0 -186 75 -186 184v318h24v-304c0 -104 60 -176 163 -176c104 0 162 64 162 162v318h25v-314c0 -126 -75 -188 -188 -188zM252 589l-15 -9c-62 67 -57 142 21 167l15 -29c-63 -20 -55 -68 -21 -129zM290 579l-16 6l89 162l38 -9z" />
    <glyph glyph-name="uni1F56" unicode="&#x1f56;" horiz-adv-x="518" 
d="M259 -7c-112 0 -186 75 -186 184v318h24v-304c0 -104 60 -176 163 -176c104 0 162 64 162 162v318h25v-314c0 -126 -75 -188 -188 -188zM255 545l-12 4c16 28 25 52 25 71c0 23 -13 39 -47 50l13 29c43 -14 63 -38 63 -69c0 -25 -14 -54 -42 -85zM197 793
c39 0 88 -40 121 -40c21 0 34 12 53 39l20 -12c-23 -40 -47 -54 -74 -54c-36 0 -85 40 -122 40c-26 0 -45 -15 -64 -38l-19 12c24 34 54 53 85 53z" />
    <glyph glyph-name="uni1F57" unicode="&#x1f57;" horiz-adv-x="518" 
d="M259 -7c-112 0 -186 75 -186 184v318h24v-304c0 -104 60 -176 163 -176c104 0 162 64 162 162v318h25v-314c0 -126 -75 -188 -188 -188zM272 549l-12 -4c-28 31 -42 60 -42 85c0 31 20 55 63 69l13 -29c-34 -11 -47 -27 -47 -50c0 -19 9 -43 25 -71zM211 793
c39 0 88 -40 121 -40c21 0 34 12 53 39l20 -12c-23 -40 -47 -54 -74 -54c-36 0 -85 40 -122 40c-26 0 -45 -15 -64 -38l-19 12c24 34 54 53 85 53z" />
    <glyph glyph-name="uni1F59" unicode="&#x1f59;" horiz-adv-x="459" 
d="M242 289v-289h-25v289l-208 407h27l194 -381l193 381h26zM-69 539l-15 -9c-62 67 -57 142 21 167l15 -29c-63 -20 -55 -68 -21 -129z" />
    <glyph glyph-name="uni1F5B" unicode="&#x1f5b;" horiz-adv-x="459" 
d="M242 289v-289h-25v289l-208 407h27l194 -381l193 381h26zM-181 539l-15 -9c-62 67 -57 142 21 167l15 -29c-63 -20 -55 -68 -21 -129zM-23 535l-16 -6l-101 159l38 9z" />
    <glyph glyph-name="uni1F5D" unicode="&#x1f5d;" horiz-adv-x="459" 
d="M242 289v-289h-25v289l-208 407h27l194 -381l193 381h26zM-197 539l-15 -9c-62 67 -57 142 21 167l15 -29c-63 -20 -55 -68 -21 -129zM-159 529l-16 6l89 162l38 -9z" />
    <glyph glyph-name="uni1F5F" unicode="&#x1f5f;" horiz-adv-x="459" 
d="M242 289v-289h-25v289l-208 407h27l194 -381l193 381h26zM-161 441l-12 -4c-28 31 -42 60 -42 85c0 31 20 55 63 69l13 -29c-34 -11 -47 -27 -47 -50c0 -19 9 -43 25 -71zM-222 685c39 0 88 -40 121 -40c21 0 34 12 53 39l20 -12c-23 -40 -47 -54 -74 -54
c-36 0 -85 40 -122 40c-26 0 -45 -15 -64 -38l-19 12c24 34 54 53 85 53z" />
    <glyph glyph-name="uni1F60" unicode="&#x1f60;" horiz-adv-x="729" 
d="M513 -5c-57 0 -127 25 -150 114c-29 -85 -90 -115 -147 -115c-125 0 -174 101 -174 254c0 140 50 226 147 248l6 -23c-83 -19 -128 -95 -128 -226c0 -142 43 -232 151 -232c89 0 131 86 131 157v192h25v-192c0 -69 40 -156 139 -156c97 0 149 83 149 230
c0 133 -37 211 -126 228l6 23c104 -19 145 -108 145 -251c0 -155 -56 -251 -174 -251zM349 580l-15 9c34 61 42 109 -21 129l15 29c78 -25 83 -100 21 -167z" />
    <glyph glyph-name="uni1F61" unicode="&#x1f61;" horiz-adv-x="729" 
d="M513 -5c-57 0 -127 25 -150 114c-29 -85 -90 -115 -147 -115c-125 0 -174 101 -174 254c0 140 50 226 147 248l6 -23c-83 -19 -128 -95 -128 -226c0 -142 43 -232 151 -232c89 0 131 86 131 157v192h25v-192c0 -69 40 -156 139 -156c97 0 149 83 149 230
c0 133 -37 211 -126 228l6 23c104 -19 145 -108 145 -251c0 -155 -56 -251 -174 -251zM390 589l-15 -9c-62 67 -57 142 21 167l15 -29c-63 -20 -55 -68 -21 -129z" />
    <glyph glyph-name="uni1F62" unicode="&#x1f62;" horiz-adv-x="729" 
d="M513 -5c-57 0 -127 25 -150 114c-29 -85 -90 -115 -147 -115c-125 0 -174 101 -174 254c0 140 50 226 147 248l6 -23c-83 -19 -128 -95 -128 -226c0 -142 43 -232 151 -232c89 0 131 86 131 157v192h25v-192c0 -69 40 -156 139 -156c97 0 149 83 149 230
c0 133 -37 211 -126 228l6 23c104 -19 145 -108 145 -251c0 -155 -56 -251 -174 -251zM293 580l-15 9c34 61 42 109 -21 129l15 29c78 -25 83 -100 21 -167zM467 585l-16 -6l-101 159l38 9z" />
    <glyph glyph-name="uni1F63" unicode="&#x1f63;" horiz-adv-x="729" 
d="M513 -5c-57 0 -127 25 -150 114c-29 -85 -90 -115 -147 -115c-125 0 -174 101 -174 254c0 140 50 226 147 248l6 -23c-83 -19 -128 -95 -128 -226c0 -142 43 -232 151 -232c89 0 131 86 131 157v192h25v-192c0 -69 40 -156 139 -156c97 0 149 83 149 230
c0 133 -37 211 -126 228l6 23c104 -19 145 -108 145 -251c0 -155 -56 -251 -174 -251zM303 589l-15 -9c-62 67 -57 142 21 167l15 -29c-63 -20 -55 -68 -21 -129zM461 585l-16 -6l-101 159l38 9z" />
    <glyph glyph-name="uni1F64" unicode="&#x1f64;" horiz-adv-x="729" 
d="M513 -5c-57 0 -127 25 -150 114c-29 -85 -90 -115 -147 -115c-125 0 -174 101 -174 254c0 140 50 226 147 248l6 -23c-83 -19 -128 -95 -128 -226c0 -142 43 -232 151 -232c89 0 131 86 131 157v192h25v-192c0 -69 40 -156 139 -156c97 0 149 83 149 230
c0 133 -37 211 -126 228l6 23c104 -19 145 -108 145 -251c0 -155 -56 -251 -174 -251zM340 580l-15 9c34 61 42 109 -21 129l15 29c78 -25 83 -100 21 -167zM395 579l-16 6l89 162l38 -9z" />
    <glyph glyph-name="uni1F65" unicode="&#x1f65;" horiz-adv-x="729" 
d="M513 -5c-57 0 -127 25 -150 114c-29 -85 -90 -115 -147 -115c-125 0 -174 101 -174 254c0 140 50 226 147 248l6 -23c-83 -19 -128 -95 -128 -226c0 -142 43 -232 151 -232c89 0 131 86 131 157v192h25v-192c0 -69 40 -156 139 -156c97 0 149 83 149 230
c0 133 -37 211 -126 228l6 23c104 -19 145 -108 145 -251c0 -155 -56 -251 -174 -251zM352 589l-15 -9c-62 67 -57 142 21 167l15 -29c-63 -20 -55 -68 -21 -129zM390 579l-16 6l89 162l38 -9z" />
    <glyph glyph-name="uni1F66" unicode="&#x1f66;" horiz-adv-x="729" 
d="M513 -5c-57 0 -127 25 -150 114c-29 -85 -90 -115 -147 -115c-125 0 -174 101 -174 254c0 140 50 226 147 248l6 -23c-83 -19 -128 -95 -128 -226c0 -142 43 -232 151 -232c89 0 131 86 131 157v192h25v-192c0 -69 40 -156 139 -156c97 0 149 83 149 230
c0 133 -37 211 -126 228l6 23c104 -19 145 -108 145 -251c0 -155 -56 -251 -174 -251zM358 545l-12 4c16 28 25 52 25 71c0 23 -13 39 -47 50l13 29c43 -14 63 -38 63 -69c0 -25 -14 -54 -42 -85zM300 793c39 0 88 -40 121 -40c21 0 34 12 53 39l20 -12
c-23 -40 -47 -54 -74 -54c-36 0 -85 40 -122 40c-26 0 -45 -15 -64 -38l-19 12c24 34 54 53 85 53z" />
    <glyph glyph-name="uni1F67" unicode="&#x1f67;" horiz-adv-x="729" 
d="M513 -5c-57 0 -127 25 -150 114c-29 -85 -90 -115 -147 -115c-125 0 -174 101 -174 254c0 140 50 226 147 248l6 -23c-83 -19 -128 -95 -128 -226c0 -142 43 -232 151 -232c89 0 131 86 131 157v192h25v-192c0 -69 40 -156 139 -156c97 0 149 83 149 230
c0 133 -37 211 -126 228l6 23c104 -19 145 -108 145 -251c0 -155 -56 -251 -174 -251zM371 549l-12 -4c-28 31 -42 60 -42 85c0 31 20 55 63 69l13 -29c-34 -11 -47 -27 -47 -50c0 -19 9 -43 25 -71zM310 793c39 0 88 -40 121 -40c21 0 34 12 53 39l20 -12
c-23 -40 -47 -54 -74 -54c-36 0 -85 40 -122 40c-26 0 -45 -15 -64 -38l-19 12c24 34 54 53 85 53z" />
    <glyph glyph-name="uni1F68" unicode="&#x1f68;" horiz-adv-x="559" 
d="M163 24v2c-83 41 -120 125 -120 223v209c0 131 78 243 237 243c147 0 233 -101 233 -243v-209c0 -106 -42 -185 -116 -224l1 -2h132v-23h-185v30c89 27 140 111 140 220v206c0 125 -75 220 -204 220c-141 0 -210 -99 -210 -220v-206c0 -97 47 -193 141 -221v-29h-185v24
h136zM-42 530l-15 9c34 61 42 109 -21 129l15 29c78 -25 83 -100 21 -167z" />
    <glyph glyph-name="uni1F69" unicode="&#x1f69;" horiz-adv-x="559" 
d="M163 24v2c-83 41 -120 125 -120 223v209c0 131 78 243 237 243c147 0 233 -101 233 -243v-209c0 -106 -42 -185 -116 -224l1 -2h132v-23h-185v30c89 27 140 111 140 220v206c0 125 -75 220 -204 220c-141 0 -210 -99 -210 -220v-206c0 -97 47 -193 141 -221v-29h-185v24
h136zM-18 539l-15 -9c-62 67 -57 142 21 167l15 -29c-63 -20 -55 -68 -21 -129z" />
    <glyph glyph-name="uni1F6A" unicode="&#x1f6a;" horiz-adv-x="559" 
d="M163 24v2c-83 41 -120 125 -120 223v209c0 131 78 243 237 243c147 0 233 -101 233 -243v-209c0 -106 -42 -185 -116 -224l1 -2h132v-23h-185v30c89 27 140 111 140 220v206c0 125 -75 220 -204 220c-141 0 -210 -99 -210 -220v-206c0 -97 47 -193 141 -221v-29h-185v24
h136zM-174 530l-15 9c34 61 42 109 -21 129l15 29c78 -25 83 -100 21 -167zM0 535l-16 -6l-101 159l38 9z" />
    <glyph glyph-name="uni1F6B" unicode="&#x1f6b;" horiz-adv-x="559" 
d="M163 24v2c-83 41 -120 125 -120 223v209c0 131 78 243 237 243c147 0 233 -101 233 -243v-209c0 -106 -42 -185 -116 -224l1 -2h132v-23h-185v30c89 27 140 111 140 220v206c0 125 -75 220 -204 220c-141 0 -210 -99 -210 -220v-206c0 -97 47 -193 141 -221v-29h-185v24
h136zM-156 539l-15 -9c-62 67 -57 142 21 167l15 -29c-63 -20 -55 -68 -21 -129zM2 535l-16 -6l-101 159l38 9z" />
    <glyph glyph-name="uni1F6C" unicode="&#x1f6c;" horiz-adv-x="559" 
d="M163 24v2c-83 41 -120 125 -120 223v209c0 131 78 243 237 243c147 0 233 -101 233 -243v-209c0 -106 -42 -185 -116 -224l1 -2h132v-23h-185v30c89 27 140 111 140 220v206c0 125 -75 220 -204 220c-141 0 -210 -99 -210 -220v-206c0 -97 47 -193 141 -221v-29h-185v24
h136zM-165 530l-15 9c34 61 42 109 -21 129l15 29c78 -25 83 -100 21 -167zM-110 529l-16 6l89 162l38 -9z" />
    <glyph glyph-name="uni1F6D" unicode="&#x1f6d;" horiz-adv-x="559" 
d="M163 24v2c-83 41 -120 125 -120 223v209c0 131 78 243 237 243c147 0 233 -101 233 -243v-209c0 -106 -42 -185 -116 -224l1 -2h132v-23h-185v30c89 27 140 111 140 220v206c0 125 -75 220 -204 220c-141 0 -210 -99 -210 -220v-206c0 -97 47 -193 141 -221v-29h-185v24
h136zM-147 539l-15 -9c-62 67 -57 142 21 167l15 -29c-63 -20 -55 -68 -21 -129zM-109 529l-16 6l89 162l38 -9z" />
    <glyph glyph-name="uni1F6E" unicode="&#x1f6e;" horiz-adv-x="559" 
d="M163 24v2c-83 41 -120 125 -120 223v209c0 131 78 243 237 243c147 0 233 -101 233 -243v-209c0 -106 -42 -185 -116 -224l1 -2h132v-23h-185v30c89 27 140 111 140 220v206c0 125 -75 220 -204 220c-141 0 -210 -99 -210 -220v-206c0 -97 47 -193 141 -221v-29h-185v24
h136zM-135 434l-12 4c16 28 25 52 25 71c0 23 -13 39 -47 50l13 29c43 -14 63 -38 63 -69c0 -25 -14 -54 -42 -85zM-193 682c39 0 88 -40 121 -40c21 0 34 12 53 39l20 -12c-23 -40 -47 -54 -74 -54c-36 0 -85 40 -122 40c-26 0 -45 -15 -64 -38l-19 12c24 34 54 53 85 53z
" />
    <glyph glyph-name="uni1F6F" unicode="&#x1f6f;" horiz-adv-x="559" 
d="M163 24v2c-83 41 -120 125 -120 223v209c0 131 78 243 237 243c147 0 233 -101 233 -243v-209c0 -106 -42 -185 -116 -224l1 -2h132v-23h-185v30c89 27 140 111 140 220v206c0 125 -75 220 -204 220c-141 0 -210 -99 -210 -220v-206c0 -97 47 -193 141 -221v-29h-185v24
h136zM-132 439l-12 -4c-28 31 -42 60 -42 85c0 31 20 55 63 69l13 -29c-34 -11 -47 -27 -47 -50c0 -19 9 -43 25 -71zM-193 683c39 0 88 -40 121 -40c21 0 34 12 53 39l20 -12c-23 -40 -47 -54 -74 -54c-36 0 -85 40 -122 40c-26 0 -45 -15 -64 -38l-19 12
c24 34 54 53 85 53z" />
    <glyph glyph-name="uni1F70" unicode="&#x1f70;" horiz-adv-x="498" 
d="M277 585l-16 -6l-101 154l38 9zM435 0h-25v108h-1c-19 -53 -71 -112 -160 -112c-145 0 -190 128 -190 249c0 144 51 258 192 258c54 0 122 -14 158 -106h1v99h25v-496zM410 252c0 91 -23 230 -161 230c-143 0 -164 -137 -164 -233c0 -103 29 -232 164 -232
c115 0 161 104 161 235z" />
    <glyph glyph-name="uni1F71" unicode="&#x1f71;" horiz-adv-x="498" 
d="M257 579l-16 6l89 157l38 -9zM435 0h-25v108h-1c-19 -53 -71 -112 -160 -112c-145 0 -190 128 -190 249c0 144 51 258 192 258c54 0 122 -14 158 -106h1v99h25v-496zM410 252c0 91 -23 230 -161 230c-143 0 -164 -137 -164 -233c0 -103 29 -232 164 -232
c115 0 161 104 161 235z" />
    <glyph glyph-name="uni1F72" unicode="&#x1f72;" horiz-adv-x="421" 
d="M257 585l-16 -6l-101 154l38 9zM151 261c-79 19 -86 84 -86 111c0 60 45 129 177 129c53 0 109 -15 148 -44l-15 -17c-36 25 -92 41 -136 41c-80 0 -149 -37 -149 -110c0 -68 51 -98 129 -98h63v-23h-64c-69 0 -140 -39 -140 -117c0 -81 80 -116 168 -116
c38 0 99 14 136 40l13 -18c-40 -29 -99 -43 -154 -43c-129 0 -188 56 -188 141c0 25 12 97 99 122z" />
    <glyph glyph-name="uni1F73" unicode="&#x1f73;" horiz-adv-x="421" 
d="M227 579l-16 6l89 157l38 -9zM151 261c-79 19 -86 84 -86 111c0 60 45 129 177 129c53 0 109 -15 148 -44l-15 -17c-36 25 -92 41 -136 41c-80 0 -149 -37 -149 -110c0 -68 51 -98 129 -98h63v-23h-64c-69 0 -140 -39 -140 -117c0 -81 80 -116 168 -116
c38 0 99 14 136 40l13 -18c-40 -29 -99 -43 -154 -43c-129 0 -188 56 -188 141c0 25 12 97 99 122z" />
    <glyph glyph-name="uni1F74" unicode="&#x1f74;" horiz-adv-x="500" 
d="M257 585l-16 -6l-101 154l38 9zM412 0v327c0 100 -58 151 -154 151c-94 0 -171 -73 -171 -176v-302h-24v494h24v-96h2c33 73 111 102 171 102c119 0 176 -63 176 -166v-334h-24z" />
    <glyph glyph-name="uni1F75" unicode="&#x1f75;" horiz-adv-x="500" 
d="M237 579l-16 6l89 157l38 -9zM412 0v327c0 100 -58 151 -154 151c-94 0 -171 -73 -171 -176v-302h-24v494h24v-96h2c33 73 111 102 171 102c119 0 176 -63 176 -166v-334h-24z" />
    <glyph glyph-name="uni1F76" unicode="&#x1f76;" horiz-adv-x="197" 
d="M104 585l-16 -6l-101 154l38 9zM160 20v-23h-12c-54 0 -71 35 -71 83v415h25v-413c0 -40 15 -62 49 -62h9z" />
    <glyph glyph-name="uni1F77" unicode="&#x1f77;" horiz-adv-x="197" 
d="M85 579l-16 6l89 157l38 -9zM160 20v-23h-12c-54 0 -71 35 -71 83v415h25v-413c0 -40 15 -62 49 -62h9z" />
    <glyph glyph-name="uni1F78" unicode="&#x1f78;" horiz-adv-x="477" 
d="M259 585l-16 -6l-101 154l38 9zM241 501c71 0 126 -28 159 -79c21 -33 36 -80 36 -178c0 -102 -25 -160 -57 -195c-33 -36 -81 -55 -143 -55c-58 0 -101 17 -132 47c-39 39 -63 101 -63 210c0 107 29 168 70 204c32 28 75 46 130 46zM240 479c-51 0 -91 -19 -119 -48
c-33 -34 -55 -82 -55 -183c0 -102 22 -154 56 -189c28 -28 68 -44 117 -44c50 0 93 19 121 48c30 32 51 78 51 182c0 98 -15 139 -34 166c-29 42 -78 68 -137 68z" />
    <glyph glyph-name="uni1F79" unicode="&#x1f79;" horiz-adv-x="477" 
d="M234 579l-16 6l89 157l38 -9zM241 501c71 0 126 -28 159 -79c21 -33 36 -80 36 -178c0 -102 -25 -160 -57 -195c-33 -36 -81 -55 -143 -55c-58 0 -101 17 -132 47c-39 39 -63 101 -63 210c0 107 29 168 70 204c32 28 75 46 130 46zM240 479c-51 0 -91 -19 -119 -48
c-33 -34 -55 -82 -55 -183c0 -102 22 -154 56 -189c28 -28 68 -44 117 -44c50 0 93 19 121 48c30 32 51 78 51 182c0 98 -15 139 -34 166c-29 42 -78 68 -137 68z" />
    <glyph glyph-name="uni1F7A" unicode="&#x1f7a;" horiz-adv-x="518" 
d="M271 585l-16 -6l-101 154l38 9zM259 -7c-112 0 -186 75 -186 184v318h24v-304c0 -104 60 -176 163 -176c104 0 162 64 162 162v318h25v-314c0 -126 -75 -188 -188 -188z" />
    <glyph glyph-name="uni1F7B" unicode="&#x1f7b;" horiz-adv-x="518" 
d="M243 579l-16 6l89 157l38 -9zM259 -7c-112 0 -186 75 -186 184v318h24v-304c0 -104 60 -176 163 -176c104 0 162 64 162 162v318h25v-314c0 -126 -75 -188 -188 -188z" />
    <glyph glyph-name="uni1F7C" unicode="&#x1f7c;" horiz-adv-x="729" 
d="M382 585l-16 -6l-101 154l38 9zM513 -5c-57 0 -127 25 -150 114c-29 -85 -90 -115 -147 -115c-125 0 -174 101 -174 254c0 140 50 226 147 248l6 -23c-83 -19 -128 -95 -128 -226c0 -142 43 -232 151 -232c89 0 131 86 131 157v192h25v-192c0 -69 40 -156 139 -156
c97 0 149 83 149 230c0 133 -37 211 -126 228l6 23c104 -19 145 -108 145 -251c0 -155 -56 -251 -174 -251z" />
    <glyph glyph-name="uni1F7D" unicode="&#x1f7d;" horiz-adv-x="729" 
d="M360 579l-16 6l89 157l38 -9zM513 -5c-57 0 -127 25 -150 114c-29 -85 -90 -115 -147 -115c-125 0 -174 101 -174 254c0 140 50 226 147 248l6 -23c-83 -19 -128 -95 -128 -226c0 -142 43 -232 151 -232c89 0 131 86 131 157v192h25v-192c0 -69 40 -156 139 -156
c97 0 149 83 149 230c0 133 -37 211 -126 228l6 23c104 -19 145 -108 145 -251c0 -155 -56 -251 -174 -251z" />
    <glyph glyph-name="uni1F80" unicode="&#x1f80;" horiz-adv-x="498" 
d="M435 0h-25v108h-1c-19 -53 -71 -112 -160 -112c-145 0 -190 128 -190 249c0 144 51 258 192 258c54 0 122 -14 158 -106h1v99h25v-496zM410 252c0 91 -23 230 -161 230c-143 0 -164 -137 -164 -233c0 -103 29 -232 164 -232c115 0 161 104 161 235zM252 580l-15 9
c34 61 42 109 -21 129l15 29c78 -25 83 -100 21 -167zM354 -250h-18c-61 0 -90 35 -90 100v78h25v-65c0 -48 8 -91 73 -91h10v-22z" />
    <glyph glyph-name="uni1F81" unicode="&#x1f81;" horiz-adv-x="498" 
d="M435 0h-25v108h-1c-19 -53 -71 -112 -160 -112c-145 0 -190 128 -190 249c0 144 51 258 192 258c54 0 122 -14 158 -106h1v99h25v-496zM410 252c0 91 -23 230 -161 230c-143 0 -164 -137 -164 -233c0 -103 29 -232 164 -232c115 0 161 104 161 235zM286 589l-15 -9
c-62 67 -57 142 21 167l15 -29c-63 -20 -55 -68 -21 -129zM354 -250h-18c-61 0 -90 35 -90 100v78h25v-65c0 -48 8 -91 73 -91h10v-22z" />
    <glyph glyph-name="uni1F82" unicode="&#x1f82;" horiz-adv-x="498" 
d="M435 0h-25v108h-1c-19 -53 -71 -112 -160 -112c-145 0 -190 128 -190 249c0 144 51 258 192 258c54 0 122 -14 158 -106h1v99h25v-496zM410 252c0 91 -23 230 -161 230c-143 0 -164 -137 -164 -233c0 -103 29 -232 164 -232c115 0 161 104 161 235zM189 580l-15 9
c34 61 42 109 -21 129l15 29c78 -25 83 -100 21 -167zM363 585l-16 -6l-101 159l38 9zM354 -250h-18c-61 0 -90 35 -90 100v78h25v-65c0 -48 8 -91 73 -91h10v-22z" />
    <glyph glyph-name="uni1F83" unicode="&#x1f83;" horiz-adv-x="498" 
d="M435 0h-25v108h-1c-19 -53 -71 -112 -160 -112c-145 0 -190 128 -190 249c0 144 51 258 192 258c54 0 122 -14 158 -106h1v99h25v-496zM410 252c0 91 -23 230 -161 230c-143 0 -164 -137 -164 -233c0 -103 29 -232 164 -232c115 0 161 104 161 235zM204 589l-15 -9
c-62 67 -57 142 21 167l15 -29c-63 -20 -55 -68 -21 -129zM362 585l-16 -6l-101 159l38 9zM354 -250h-18c-61 0 -90 35 -90 100v78h25v-65c0 -48 8 -91 73 -91h10v-22z" />
    <glyph glyph-name="uni1F84" unicode="&#x1f84;" horiz-adv-x="498" 
d="M435 0h-25v108h-1c-19 -53 -71 -112 -160 -112c-145 0 -190 128 -190 249c0 144 51 258 192 258c54 0 122 -14 158 -106h1v99h25v-496zM410 252c0 91 -23 230 -161 230c-143 0 -164 -137 -164 -233c0 -103 29 -232 164 -232c115 0 161 104 161 235zM217 580l-15 9
c34 61 42 109 -21 129l15 29c78 -25 83 -100 21 -167zM272 579l-16 6l89 162l38 -9zM354 -250h-18c-61 0 -90 35 -90 100v78h25v-65c0 -48 8 -91 73 -91h10v-22z" />
    <glyph glyph-name="uni1F85" unicode="&#x1f85;" horiz-adv-x="498" 
d="M435 0h-25v108h-1c-19 -53 -71 -112 -160 -112c-145 0 -190 128 -190 249c0 144 51 258 192 258c54 0 122 -14 158 -106h1v99h25v-496zM410 252c0 91 -23 230 -161 230c-143 0 -164 -137 -164 -233c0 -103 29 -232 164 -232c115 0 161 104 161 235zM234 589l-15 -9
c-62 67 -57 142 21 167l15 -29c-63 -20 -55 -68 -21 -129zM272 579l-16 6l89 162l38 -9zM354 -250h-18c-61 0 -90 35 -90 100v78h25v-65c0 -48 8 -91 73 -91h10v-22z" />
    <glyph glyph-name="uni1F86" unicode="&#x1f86;" horiz-adv-x="498" 
d="M435 0h-25v108h-1c-19 -53 -71 -112 -160 -112c-145 0 -190 128 -190 249c0 144 51 258 192 258c54 0 122 -14 158 -106h1v99h25v-496zM410 252c0 91 -23 230 -161 230c-143 0 -164 -137 -164 -233c0 -103 29 -232 164 -232c115 0 161 104 161 235zM249 545l-12 4
c16 28 25 52 25 71c0 23 -13 39 -47 50l13 29c43 -14 63 -38 63 -69c0 -25 -14 -54 -42 -85zM191 793c39 0 88 -40 121 -40c21 0 34 12 53 39l20 -12c-23 -40 -47 -54 -74 -54c-36 0 -85 40 -122 40c-26 0 -45 -15 -64 -38l-19 12c24 34 54 53 85 53zM354 -250h-18
c-61 0 -90 35 -90 100v78h25v-65c0 -48 8 -91 73 -91h10v-22z" />
    <glyph glyph-name="uni1F87" unicode="&#x1f87;" horiz-adv-x="498" 
d="M435 0h-25v108h-1c-19 -53 -71 -112 -160 -112c-145 0 -190 128 -190 249c0 144 51 258 192 258c54 0 122 -14 158 -106h1v99h25v-496zM410 252c0 91 -23 230 -161 230c-143 0 -164 -137 -164 -233c0 -103 29 -232 164 -232c115 0 161 104 161 235zM264 549l-12 -4
c-28 31 -42 60 -42 85c0 31 20 55 63 69l13 -29c-34 -11 -47 -27 -47 -50c0 -19 9 -43 25 -71zM203 793c39 0 88 -40 121 -40c21 0 34 12 53 39l20 -12c-23 -40 -47 -54 -74 -54c-36 0 -85 40 -122 40c-26 0 -45 -15 -64 -38l-19 12c24 34 54 53 85 53zM354 -250h-18
c-61 0 -90 35 -90 100v78h25v-65c0 -48 8 -91 73 -91h10v-22z" />
    <glyph glyph-name="uni1F88" unicode="&#x1f88;" horiz-adv-x="783" 
d="M763 0h-16c-61 0 -99 35 -99 100v396h25v-383c0 -19 2 -43 11 -60c11 -20 37 -32 75 -32h4v-21zM529 0l-61 175h-358l-62 -175h-30l253 696h36l253 -696h-31zM290 670h-2l-169 -470h340zM38 524l-15 9c34 61 42 109 -21 129l15 29c78 -25 83 -100 21 -167z" />
    <glyph glyph-name="uni1F89" unicode="&#x1f89;" horiz-adv-x="783" 
d="M763 0h-16c-61 0 -99 35 -99 100v396h25v-383c0 -19 2 -43 11 -60c11 -20 37 -32 75 -32h4v-21zM529 0l-61 175h-358l-62 -175h-30l253 696h36l253 -696h-31zM290 670h-2l-169 -470h340zM61 534l-15 -9c-62 67 -57 142 21 167l15 -29c-63 -20 -55 -68 -21 -129z" />
    <glyph glyph-name="uni1F8A" unicode="&#x1f8a;" horiz-adv-x="783" 
d="M763 0h-16c-61 0 -99 35 -99 100v396h25v-383c0 -19 2 -43 11 -60c11 -20 37 -32 75 -32h4v-21zM529 0l-61 175h-358l-62 -175h-30l253 696h36l253 -696h-31zM290 670h-2l-169 -470h340zM-68 524l-15 9c34 61 42 109 -21 129l15 29c78 -25 83 -100 21 -167zM106 529
l-16 -6l-101 159l38 9z" />
    <glyph glyph-name="uni1F8B" unicode="&#x1f8b;" horiz-adv-x="783" 
d="M763 0h-16c-61 0 -99 35 -99 100v396h25v-383c0 -19 2 -43 11 -60c11 -20 37 -32 75 -32h4v-21zM529 0l-61 175h-358l-62 -175h-30l253 696h36l253 -696h-31zM290 670h-2l-169 -470h340zM-32 534l-15 -9c-62 67 -57 142 21 167l15 -29c-63 -20 -55 -68 -21 -129zM126 530
l-16 -6l-101 159l38 9z" />
    <glyph glyph-name="uni1F8C" unicode="&#x1f8c;" horiz-adv-x="783" 
d="M763 0h-16c-61 0 -99 35 -99 100v396h25v-383c0 -19 2 -43 11 -60c11 -20 37 -32 75 -32h4v-21zM529 0l-61 175h-358l-62 -175h-30l253 696h36l253 -696h-31zM290 670h-2l-169 -470h340zM-66 523l-15 9c34 61 42 109 -21 129l15 29c78 -25 83 -100 21 -167zM-11 522
l-16 6l89 162l38 -9z" />
    <glyph glyph-name="uni1F8D" unicode="&#x1f8d;" horiz-adv-x="783" 
d="M763 0h-16c-61 0 -99 35 -99 100v396h25v-383c0 -19 2 -43 11 -60c11 -20 37 -32 75 -32h4v-21zM529 0l-61 175h-358l-62 -175h-30l253 696h36l253 -696h-31zM290 670h-2l-169 -470h340zM-46 534l-15 -9c-62 67 -57 142 21 167l15 -29c-63 -20 -55 -68 -21 -129zM-8 524
l-16 6l89 162l38 -9z" />
    <glyph glyph-name="uni1F8E" unicode="&#x1f8e;" horiz-adv-x="783" 
d="M763 0h-16c-61 0 -99 35 -99 100v396h25v-383c0 -19 2 -43 11 -60c11 -20 37 -32 75 -32h4v-21zM529 0l-61 175h-358l-62 -175h-30l253 696h36l253 -696h-31zM290 670h-2l-169 -470h340zM-3 435l-12 4c16 28 25 52 25 71c0 23 -13 39 -47 50l13 29c43 -14 63 -38 63 -69
c0 -25 -14 -54 -42 -85zM-61 683c39 0 88 -40 121 -40c21 0 34 12 53 39l20 -12c-23 -40 -47 -54 -74 -54c-36 0 -85 40 -122 40c-26 0 -45 -15 -64 -38l-19 12c24 34 54 53 85 53z" />
    <glyph glyph-name="uni1F8F" unicode="&#x1f8f;" horiz-adv-x="783" 
d="M763 0h-16c-61 0 -99 35 -99 100v396h25v-383c0 -19 2 -43 11 -60c11 -20 37 -32 75 -32h4v-21zM529 0l-61 175h-358l-62 -175h-30l253 696h36l253 -696h-31zM290 670h-2l-169 -470h340zM11 440l-12 -4c-28 31 -42 60 -42 85c0 31 20 55 63 69l13 -29
c-34 -11 -47 -27 -47 -50c0 -19 9 -43 25 -71zM-50 684c39 0 88 -40 121 -40c21 0 34 12 53 39l20 -12c-23 -40 -47 -54 -74 -54c-36 0 -85 40 -122 40c-26 0 -45 -15 -64 -38l-19 12c24 34 54 53 85 53z" />
    <glyph glyph-name="uni1F90" unicode="&#x1f90;" horiz-adv-x="500" 
d="M412 0v327c0 100 -58 151 -154 151c-94 0 -171 -73 -171 -176v-302h-24v494h24v-96h2c33 73 111 102 171 102c119 0 176 -63 176 -166v-334h-24zM240 580l-15 9c34 61 42 109 -21 129l15 29c78 -25 83 -100 21 -167zM346 -250h-18c-61 0 -90 35 -90 100v78h25v-65
c0 -48 8 -91 73 -91h10v-22z" />
    <glyph glyph-name="uni1F91" unicode="&#x1f91;" horiz-adv-x="500" 
d="M412 0v327c0 100 -58 151 -154 151c-94 0 -171 -73 -171 -176v-302h-24v494h24v-96h2c33 73 111 102 171 102c119 0 176 -63 176 -166v-334h-24zM267 589l-15 -9c-62 67 -57 142 21 167l15 -29c-63 -20 -55 -68 -21 -129zM346 -250h-18c-61 0 -90 35 -90 100v78h25v-65
c0 -48 8 -91 73 -91h10v-22z" />
    <glyph glyph-name="uni1F92" unicode="&#x1f92;" horiz-adv-x="500" 
d="M412 0v327c0 100 -58 151 -154 151c-94 0 -171 -73 -171 -176v-302h-24v494h24v-96h2c33 73 111 102 171 102c119 0 176 -63 176 -166v-334h-24zM164 580l-15 9c34 61 42 109 -21 129l15 29c78 -25 83 -100 21 -167zM338 585l-16 -6l-101 159l38 9zM346 -250h-18
c-61 0 -90 35 -90 100v78h25v-65c0 -48 8 -91 73 -91h10v-22z" />
    <glyph glyph-name="uni1F93" unicode="&#x1f93;" horiz-adv-x="500" 
d="M412 0v327c0 100 -58 151 -154 151c-94 0 -171 -73 -171 -176v-302h-24v494h24v-96h2c33 73 111 102 171 102c119 0 176 -63 176 -166v-334h-24zM179 589l-15 -9c-62 67 -57 142 21 167l15 -29c-63 -20 -55 -68 -21 -129zM337 585l-16 -6l-101 159l38 9zM346 -250h-18
c-61 0 -90 35 -90 100v78h25v-65c0 -48 8 -91 73 -91h10v-22z" />
    <glyph glyph-name="uni1F94" unicode="&#x1f94;" horiz-adv-x="500" 
d="M412 0v327c0 100 -58 151 -154 151c-94 0 -171 -73 -171 -176v-302h-24v494h24v-96h2c33 73 111 102 171 102c119 0 176 -63 176 -166v-334h-24zM208 580l-15 9c34 61 42 109 -21 129l15 29c78 -25 83 -100 21 -167zM263 579l-16 6l89 162l38 -9zM346 -250h-18
c-61 0 -90 35 -90 100v78h25v-65c0 -48 8 -91 73 -91h10v-22z" />
    <glyph glyph-name="uni1F95" unicode="&#x1f95;" horiz-adv-x="500" 
d="M412 0v327c0 100 -58 151 -154 151c-94 0 -171 -73 -171 -176v-302h-24v494h24v-96h2c33 73 111 102 171 102c119 0 176 -63 176 -166v-334h-24zM225 589l-15 -9c-62 67 -57 142 21 167l15 -29c-63 -20 -55 -68 -21 -129zM263 579l-16 6l89 162l38 -9zM346 -250h-18
c-61 0 -90 35 -90 100v78h25v-65c0 -48 8 -91 73 -91h10v-22z" />
    <glyph glyph-name="uni1F96" unicode="&#x1f96;" horiz-adv-x="500" 
d="M412 0v327c0 100 -58 151 -154 151c-94 0 -171 -73 -171 -176v-302h-24v494h24v-96h2c33 73 111 102 171 102c119 0 176 -63 176 -166v-334h-24zM227 545l-12 4c16 28 25 52 25 71c0 23 -13 39 -47 50l13 29c43 -14 63 -38 63 -69c0 -25 -14 -54 -42 -85zM169 793
c39 0 88 -40 121 -40c21 0 34 12 53 39l20 -12c-23 -40 -47 -54 -74 -54c-36 0 -85 40 -122 40c-26 0 -45 -15 -64 -38l-19 12c24 34 54 53 85 53zM346 -250h-18c-61 0 -90 35 -90 100v78h25v-65c0 -48 8 -91 73 -91h10v-22z" />
    <glyph glyph-name="uni1F97" unicode="&#x1f97;" horiz-adv-x="500" 
d="M412 0v327c0 100 -58 151 -154 151c-94 0 -171 -73 -171 -176v-302h-24v494h24v-96h2c33 73 111 102 171 102c119 0 176 -63 176 -166v-334h-24zM240 548l-12 -4c-28 31 -42 60 -42 85c0 31 20 55 63 69l13 -29c-34 -11 -47 -27 -47 -50c0 -19 9 -43 25 -71zM179 792
c39 0 88 -40 121 -40c21 0 34 12 53 39l20 -12c-23 -40 -47 -54 -74 -54c-36 0 -85 40 -122 40c-26 0 -45 -15 -64 -38l-19 12c24 34 54 53 85 53zM346 -250h-18c-61 0 -90 35 -90 100v78h25v-65c0 -48 8 -91 73 -91h10v-22z" />
    <glyph glyph-name="uni1F98" unicode="&#x1f98;" horiz-adv-x="803" 
d="M783 0h-16c-61 0 -99 35 -99 100v396h25v-383c0 -19 2 -43 11 -60c11 -20 37 -32 75 -32h4v-21zM513 0v342h-407v-342h-26v696h26v-330h407v330h26v-696h-26zM-42 530l-15 9c34 61 42 109 -21 129l15 29c78 -25 83 -100 21 -167z" />
    <glyph glyph-name="uni1F99" unicode="&#x1f99;" horiz-adv-x="803" 
d="M783 0h-16c-61 0 -99 35 -99 100v396h25v-383c0 -19 2 -43 11 -60c11 -20 37 -32 75 -32h4v-21zM513 0v342h-407v-342h-26v696h26v-330h407v330h26v-696h-26zM-19 539l-15 -9c-62 67 -57 142 21 167l15 -29c-63 -20 -55 -68 -21 -129z" />
    <glyph glyph-name="uni1F9A" unicode="&#x1f9a;" horiz-adv-x="803" 
d="M783 0h-16c-61 0 -99 35 -99 100v396h25v-383c0 -19 2 -43 11 -60c11 -20 37 -32 75 -32h4v-21zM513 0v342h-407v-342h-26v696h26v-330h407v330h26v-696h-26zM-172 530l-15 9c34 61 42 109 -21 129l15 29c78 -25 83 -100 21 -167zM2 535l-16 -6l-101 159l38 9z" />
    <glyph glyph-name="uni1F9B" unicode="&#x1f9b;" horiz-adv-x="803" 
d="M783 0h-16c-61 0 -99 35 -99 100v396h25v-383c0 -19 2 -43 11 -60c11 -20 37 -32 75 -32h4v-21zM513 0v342h-407v-342h-26v696h26v-330h407v330h26v-696h-26zM-157 539l-15 -9c-62 67 -57 142 21 167l15 -29c-63 -20 -55 -68 -21 -129zM1 535l-16 -6l-101 159l38 9z" />
    <glyph glyph-name="uni1F9C" unicode="&#x1f9c;" horiz-adv-x="803" 
d="M783 0h-16c-61 0 -99 35 -99 100v396h25v-383c0 -19 2 -43 11 -60c11 -20 37 -32 75 -32h4v-21zM513 0v342h-407v-342h-26v696h26v-330h407v330h26v-696h-26zM-165 530l-15 9c34 61 42 109 -21 129l15 29c78 -25 83 -100 21 -167zM-110 529l-16 6l89 162l38 -9z" />
    <glyph glyph-name="uni1F9D" unicode="&#x1f9d;" horiz-adv-x="803" 
d="M783 0h-16c-61 0 -99 35 -99 100v396h25v-383c0 -19 2 -43 11 -60c11 -20 37 -32 75 -32h4v-21zM513 0v342h-407v-342h-26v696h26v-330h407v330h26v-696h-26zM-150 539l-15 -9c-62 67 -57 142 21 167l15 -29c-63 -20 -55 -68 -21 -129zM-112 529l-16 6l89 162l38 -9z" />
    <glyph glyph-name="uni1F9E" unicode="&#x1f9e;" horiz-adv-x="803" 
d="M783 0h-16c-61 0 -99 35 -99 100v396h25v-383c0 -19 2 -43 11 -60c11 -20 37 -32 75 -32h4v-21zM513 0v342h-407v-342h-26v696h26v-330h407v330h26v-696h-26zM-154 436l-12 4c16 28 25 52 25 71c0 23 -13 39 -47 50l13 29c43 -14 63 -38 63 -69c0 -25 -14 -54 -42 -85z
M-212 684c39 0 88 -40 121 -40c21 0 34 12 53 39l20 -12c-23 -40 -47 -54 -74 -54c-36 0 -85 40 -122 40c-26 0 -45 -15 -64 -38l-19 12c24 34 54 53 85 53z" />
    <glyph glyph-name="uni1F9F" unicode="&#x1f9f;" horiz-adv-x="803" 
d="M783 0h-16c-61 0 -99 35 -99 100v396h25v-383c0 -19 2 -43 11 -60c11 -20 37 -32 75 -32h4v-21zM513 0v342h-407v-342h-26v696h26v-330h407v330h26v-696h-26zM-140 440l-12 -4c-28 31 -42 60 -42 85c0 31 20 55 63 69l13 -29c-34 -11 -47 -27 -47 -50c0 -19 9 -43 25 -71
zM-201 684c39 0 88 -40 121 -40c21 0 34 12 53 39l20 -12c-23 -40 -47 -54 -74 -54c-36 0 -85 40 -122 40c-26 0 -45 -15 -64 -38l-19 12c24 34 54 53 85 53z" />
    <glyph glyph-name="uni1FA0" unicode="&#x1fa0;" horiz-adv-x="729" 
d="M513 -5c-57 0 -127 25 -150 114c-29 -85 -90 -115 -147 -115c-125 0 -174 101 -174 254c0 140 50 226 147 248l6 -23c-83 -19 -128 -95 -128 -226c0 -142 43 -232 151 -232c89 0 131 86 131 157v192h25v-192c0 -69 40 -156 139 -156c97 0 149 83 149 230
c0 133 -37 211 -126 228l6 23c104 -19 145 -108 145 -251c0 -155 -56 -251 -174 -251zM349 580l-15 9c34 61 42 109 -21 129l15 29c78 -25 83 -100 21 -167zM457 -250h-18c-61 0 -90 35 -90 100v78h25v-65c0 -48 8 -91 73 -91h10v-22z" />
    <glyph glyph-name="uni1FA1" unicode="&#x1fa1;" horiz-adv-x="729" 
d="M513 -5c-57 0 -127 25 -150 114c-29 -85 -90 -115 -147 -115c-125 0 -174 101 -174 254c0 140 50 226 147 248l6 -23c-83 -19 -128 -95 -128 -226c0 -142 43 -232 151 -232c89 0 131 86 131 157v192h25v-192c0 -69 40 -156 139 -156c97 0 149 83 149 230
c0 133 -37 211 -126 228l6 23c104 -19 145 -108 145 -251c0 -155 -56 -251 -174 -251zM390 589l-15 -9c-62 67 -57 142 21 167l15 -29c-63 -20 -55 -68 -21 -129zM457 -250h-18c-61 0 -90 35 -90 100v78h25v-65c0 -48 8 -91 73 -91h10v-22z" />
    <glyph glyph-name="uni1FA2" unicode="&#x1fa2;" horiz-adv-x="729" 
d="M513 -5c-57 0 -127 25 -150 114c-29 -85 -90 -115 -147 -115c-125 0 -174 101 -174 254c0 140 50 226 147 248l6 -23c-83 -19 -128 -95 -128 -226c0 -142 43 -232 151 -232c89 0 131 86 131 157v192h25v-192c0 -69 40 -156 139 -156c97 0 149 83 149 230
c0 133 -37 211 -126 228l6 23c104 -19 145 -108 145 -251c0 -155 -56 -251 -174 -251zM293 580l-15 9c34 61 42 109 -21 129l15 29c78 -25 83 -100 21 -167zM467 585l-16 -6l-101 159l38 9zM457 -250h-18c-61 0 -90 35 -90 100v78h25v-65c0 -48 8 -91 73 -91h10v-22z" />
    <glyph glyph-name="uni1FA3" unicode="&#x1fa3;" horiz-adv-x="729" 
d="M513 -5c-57 0 -127 25 -150 114c-29 -85 -90 -115 -147 -115c-125 0 -174 101 -174 254c0 140 50 226 147 248l6 -23c-83 -19 -128 -95 -128 -226c0 -142 43 -232 151 -232c89 0 131 86 131 157v192h25v-192c0 -69 40 -156 139 -156c97 0 149 83 149 230
c0 133 -37 211 -126 228l6 23c104 -19 145 -108 145 -251c0 -155 -56 -251 -174 -251zM303 589l-15 -9c-62 67 -57 142 21 167l15 -29c-63 -20 -55 -68 -21 -129zM461 585l-16 -6l-101 159l38 9zM457 -250h-18c-61 0 -90 35 -90 100v78h25v-65c0 -48 8 -91 73 -91h10v-22z
" />
    <glyph glyph-name="uni1FA4" unicode="&#x1fa4;" horiz-adv-x="729" 
d="M513 -5c-57 0 -127 25 -150 114c-29 -85 -90 -115 -147 -115c-125 0 -174 101 -174 254c0 140 50 226 147 248l6 -23c-83 -19 -128 -95 -128 -226c0 -142 43 -232 151 -232c89 0 131 86 131 157v192h25v-192c0 -69 40 -156 139 -156c97 0 149 83 149 230
c0 133 -37 211 -126 228l6 23c104 -19 145 -108 145 -251c0 -155 -56 -251 -174 -251zM340 580l-15 9c34 61 42 109 -21 129l15 29c78 -25 83 -100 21 -167zM395 579l-16 6l89 162l38 -9zM457 -250h-18c-61 0 -90 35 -90 100v78h25v-65c0 -48 8 -91 73 -91h10v-22z" />
    <glyph glyph-name="uni1FA5" unicode="&#x1fa5;" horiz-adv-x="729" 
d="M513 -5c-57 0 -127 25 -150 114c-29 -85 -90 -115 -147 -115c-125 0 -174 101 -174 254c0 140 50 226 147 248l6 -23c-83 -19 -128 -95 -128 -226c0 -142 43 -232 151 -232c89 0 131 86 131 157v192h25v-192c0 -69 40 -156 139 -156c97 0 149 83 149 230
c0 133 -37 211 -126 228l6 23c104 -19 145 -108 145 -251c0 -155 -56 -251 -174 -251zM352 589l-15 -9c-62 67 -57 142 21 167l15 -29c-63 -20 -55 -68 -21 -129zM390 579l-16 6l89 162l38 -9zM457 -250h-18c-61 0 -90 35 -90 100v78h25v-65c0 -48 8 -91 73 -91h10v-22z" />
    <glyph glyph-name="uni1FA6" unicode="&#x1fa6;" horiz-adv-x="729" 
d="M513 -5c-57 0 -127 25 -150 114c-29 -85 -90 -115 -147 -115c-125 0 -174 101 -174 254c0 140 50 226 147 248l6 -23c-83 -19 -128 -95 -128 -226c0 -142 43 -232 151 -232c89 0 131 86 131 157v192h25v-192c0 -69 40 -156 139 -156c97 0 149 83 149 230
c0 133 -37 211 -126 228l6 23c104 -19 145 -108 145 -251c0 -155 -56 -251 -174 -251zM358 545l-12 4c16 28 25 52 25 71c0 23 -13 39 -47 50l13 29c43 -14 63 -38 63 -69c0 -25 -14 -54 -42 -85zM300 793c39 0 88 -40 121 -40c21 0 34 12 53 39l20 -12
c-23 -40 -47 -54 -74 -54c-36 0 -85 40 -122 40c-26 0 -45 -15 -64 -38l-19 12c24 34 54 53 85 53zM457 -250h-18c-61 0 -90 35 -90 100v78h25v-65c0 -48 8 -91 73 -91h10v-22z" />
    <glyph glyph-name="uni1FA7" unicode="&#x1fa7;" horiz-adv-x="729" 
d="M513 -5c-57 0 -127 25 -150 114c-29 -85 -90 -115 -147 -115c-125 0 -174 101 -174 254c0 140 50 226 147 248l6 -23c-83 -19 -128 -95 -128 -226c0 -142 43 -232 151 -232c89 0 131 86 131 157v192h25v-192c0 -69 40 -156 139 -156c97 0 149 83 149 230
c0 133 -37 211 -126 228l6 23c104 -19 145 -108 145 -251c0 -155 -56 -251 -174 -251zM371 549l-12 -4c-28 31 -42 60 -42 85c0 31 20 55 63 69l13 -29c-34 -11 -47 -27 -47 -50c0 -19 9 -43 25 -71zM310 793c39 0 88 -40 121 -40c21 0 34 12 53 39l20 -12
c-23 -40 -47 -54 -74 -54c-36 0 -85 40 -122 40c-26 0 -45 -15 -64 -38l-19 12c24 34 54 53 85 53zM457 -250h-18c-61 0 -90 35 -90 100v78h25v-65c0 -48 8 -91 73 -91h10v-22z" />
    <glyph glyph-name="uni1FA8" unicode="&#x1fa8;" horiz-adv-x="783" 
d="M763 0h-16c-61 0 -99 35 -99 100v396h25v-383c0 -19 2 -43 11 -60c11 -20 37 -32 75 -32h4v-21zM163 24v2c-83 41 -120 125 -120 223v209c0 131 78 243 237 243c147 0 233 -101 233 -243v-209c0 -106 -42 -185 -116 -224l1 -2h132v-23h-185v30c89 27 140 111 140 220v206
c0 125 -75 220 -204 220c-141 0 -210 -99 -210 -220v-206c0 -97 47 -193 141 -221v-29h-185v24h136zM-42 530l-15 9c34 61 42 109 -21 129l15 29c78 -25 83 -100 21 -167z" />
    <glyph glyph-name="uni1FA9" unicode="&#x1fa9;" horiz-adv-x="783" 
d="M763 0h-16c-61 0 -99 35 -99 100v396h25v-383c0 -19 2 -43 11 -60c11 -20 37 -32 75 -32h4v-21zM163 24v2c-83 41 -120 125 -120 223v209c0 131 78 243 237 243c147 0 233 -101 233 -243v-209c0 -106 -42 -185 -116 -224l1 -2h132v-23h-185v30c89 27 140 111 140 220v206
c0 125 -75 220 -204 220c-141 0 -210 -99 -210 -220v-206c0 -97 47 -193 141 -221v-29h-185v24h136zM-18 539l-15 -9c-62 67 -57 142 21 167l15 -29c-63 -20 -55 -68 -21 -129z" />
    <glyph glyph-name="uni1FAA" unicode="&#x1faa;" horiz-adv-x="783" 
d="M763 0h-16c-61 0 -99 35 -99 100v396h25v-383c0 -19 2 -43 11 -60c11 -20 37 -32 75 -32h4v-21zM163 24v2c-83 41 -120 125 -120 223v209c0 131 78 243 237 243c147 0 233 -101 233 -243v-209c0 -106 -42 -185 -116 -224l1 -2h132v-23h-185v30c89 27 140 111 140 220v206
c0 125 -75 220 -204 220c-141 0 -210 -99 -210 -220v-206c0 -97 47 -193 141 -221v-29h-185v24h136zM-174 530l-15 9c34 61 42 109 -21 129l15 29c78 -25 83 -100 21 -167zM0 535l-16 -6l-101 159l38 9z" />
    <glyph glyph-name="uni1FAB" unicode="&#x1fab;" horiz-adv-x="783" 
d="M763 0h-16c-61 0 -99 35 -99 100v396h25v-383c0 -19 2 -43 11 -60c11 -20 37 -32 75 -32h4v-21zM163 24v2c-83 41 -120 125 -120 223v209c0 131 78 243 237 243c147 0 233 -101 233 -243v-209c0 -106 -42 -185 -116 -224l1 -2h132v-23h-185v30c89 27 140 111 140 220v206
c0 125 -75 220 -204 220c-141 0 -210 -99 -210 -220v-206c0 -97 47 -193 141 -221v-29h-185v24h136zM-156 539l-15 -9c-62 67 -57 142 21 167l15 -29c-63 -20 -55 -68 -21 -129zM2 535l-16 -6l-101 159l38 9z" />
    <glyph glyph-name="uni1FAC" unicode="&#x1fac;" horiz-adv-x="783" 
d="M763 0h-16c-61 0 -99 35 -99 100v396h25v-383c0 -19 2 -43 11 -60c11 -20 37 -32 75 -32h4v-21zM163 24v2c-83 41 -120 125 -120 223v209c0 131 78 243 237 243c147 0 233 -101 233 -243v-209c0 -106 -42 -185 -116 -224l1 -2h132v-23h-185v30c89 27 140 111 140 220v206
c0 125 -75 220 -204 220c-141 0 -210 -99 -210 -220v-206c0 -97 47 -193 141 -221v-29h-185v24h136zM-165 530l-15 9c34 61 42 109 -21 129l15 29c78 -25 83 -100 21 -167zM-110 529l-16 6l89 162l38 -9z" />
    <glyph glyph-name="uni1FAD" unicode="&#x1fad;" horiz-adv-x="783" 
d="M763 0h-16c-61 0 -99 35 -99 100v396h25v-383c0 -19 2 -43 11 -60c11 -20 37 -32 75 -32h4v-21zM163 24v2c-83 41 -120 125 -120 223v209c0 131 78 243 237 243c147 0 233 -101 233 -243v-209c0 -106 -42 -185 -116 -224l1 -2h132v-23h-185v30c89 27 140 111 140 220v206
c0 125 -75 220 -204 220c-141 0 -210 -99 -210 -220v-206c0 -97 47 -193 141 -221v-29h-185v24h136zM-147 539l-15 -9c-62 67 -57 142 21 167l15 -29c-63 -20 -55 -68 -21 -129zM-109 529l-16 6l89 162l38 -9z" />
    <glyph glyph-name="uni1FAE" unicode="&#x1fae;" horiz-adv-x="783" 
d="M763 0h-16c-61 0 -99 35 -99 100v396h25v-383c0 -19 2 -43 11 -60c11 -20 37 -32 75 -32h4v-21zM163 24v2c-83 41 -120 125 -120 223v209c0 131 78 243 237 243c147 0 233 -101 233 -243v-209c0 -106 -42 -185 -116 -224l1 -2h132v-23h-185v30c89 27 140 111 140 220v206
c0 125 -75 220 -204 220c-141 0 -210 -99 -210 -220v-206c0 -97 47 -193 141 -221v-29h-185v24h136zM-165 434l-12 4c16 28 25 52 25 71c0 23 -13 39 -47 50l13 29c43 -14 63 -38 63 -69c0 -25 -14 -54 -42 -85zM-223 682c39 0 88 -40 121 -40c21 0 34 12 53 39l20 -12
c-23 -40 -47 -54 -74 -54c-36 0 -85 40 -122 40c-26 0 -45 -15 -64 -38l-19 12c24 34 54 53 85 53z" />
    <glyph glyph-name="uni1FAF" unicode="&#x1faf;" horiz-adv-x="783" 
d="M763 0h-16c-61 0 -99 35 -99 100v396h25v-383c0 -19 2 -43 11 -60c11 -20 37 -32 75 -32h4v-21zM163 24v2c-83 41 -120 125 -120 223v209c0 131 78 243 237 243c147 0 233 -101 233 -243v-209c0 -106 -42 -185 -116 -224l1 -2h132v-23h-185v30c89 27 140 111 140 220v206
c0 125 -75 220 -204 220c-141 0 -210 -99 -210 -220v-206c0 -97 47 -193 141 -221v-29h-185v24h136zM-152 439l-12 -4c-28 31 -42 60 -42 85c0 31 20 55 63 69l13 -29c-34 -11 -47 -27 -47 -50c0 -19 9 -43 25 -71zM-213 683c39 0 88 -40 121 -40c21 0 34 12 53 39l20 -12
c-23 -40 -47 -54 -74 -54c-36 0 -85 40 -122 40c-26 0 -45 -15 -64 -38l-19 12c24 34 54 53 85 53z" />
    <glyph glyph-name="uni1FB0" unicode="&#x1fb0;" horiz-adv-x="498" 
d="M435 0h-25v108h-1c-19 -53 -71 -112 -160 -112c-145 0 -190 128 -190 249c0 144 51 258 192 258c54 0 122 -14 158 -106h1v99h25v-496zM410 252c0 91 -23 230 -161 230c-143 0 -164 -137 -164 -233c0 -103 29 -232 164 -232c115 0 161 104 161 235zM253 585
c42 0 81 16 97 78h22c-8 -49 -46 -101 -119 -101s-112 52 -119 101h22c10 -52 55 -78 97 -78z" />
    <glyph glyph-name="uni1FB1" unicode="&#x1fb1;" horiz-adv-x="498" 
d="M435 0h-25v108h-1c-19 -53 -71 -112 -160 -112c-145 0 -190 128 -190 249c0 144 51 258 192 258c54 0 122 -14 158 -106h1v99h25v-496zM410 252c0 91 -23 230 -161 230c-143 0 -164 -137 -164 -233c0 -103 29 -232 164 -232c115 0 161 104 161 235zM138 590v24h248v-24
h-248z" />
    <glyph glyph-name="uni1FB2" unicode="&#x1fb2;" horiz-adv-x="498" 
d="M267 585l-16 -6l-101 154l38 9zM435 0h-25v108h-1c-19 -53 -71 -112 -160 -112c-145 0 -190 128 -190 249c0 144 51 258 192 258c54 0 122 -14 158 -106h1v99h25v-496zM410 252c0 91 -23 230 -161 230c-143 0 -164 -137 -164 -233c0 -103 29 -232 164 -232
c115 0 161 104 161 235zM354 -250h-18c-61 0 -90 35 -90 100v78h25v-65c0 -48 8 -91 73 -91h10v-22z" />
    <glyph glyph-name="uni1FB3" unicode="&#x1fb3;" horiz-adv-x="498" 
d="M435 0h-25v108h-1c-19 -53 -71 -112 -160 -112c-145 0 -190 128 -190 249c0 144 51 258 192 258c54 0 122 -14 158 -106h1v99h25v-496zM410 252c0 91 -23 230 -161 230c-143 0 -164 -137 -164 -233c0 -103 29 -232 164 -232c115 0 161 104 161 235zM354 -250h-18
c-61 0 -90 35 -90 100v78h25v-65c0 -48 8 -91 73 -91h10v-22z" />
    <glyph glyph-name="uni1FB4" unicode="&#x1fb4;" horiz-adv-x="498" 
d="M257 579l-16 6l89 157l38 -9zM435 0h-25v108h-1c-19 -53 -71 -112 -160 -112c-145 0 -190 128 -190 249c0 144 51 258 192 258c54 0 122 -14 158 -106h1v99h25v-496zM410 252c0 91 -23 230 -161 230c-143 0 -164 -137 -164 -233c0 -103 29 -232 164 -232
c115 0 161 104 161 235zM354 -250h-18c-61 0 -90 35 -90 100v78h25v-65c0 -48 8 -91 73 -91h10v-22z" />
    <glyph glyph-name="uni1FB6" unicode="&#x1fb6;" horiz-adv-x="498" 
d="M336 616c-57 0 -114 32 -166 32c-22 0 -40 -9 -55 -26l-15 19c24 28 56 35 74 35c58 0 107 -33 166 -33c28 0 55 11 70 36l18 -11c-20 -37 -57 -52 -92 -52zM435 0h-25v108h-1c-19 -53 -71 -112 -160 -112c-145 0 -190 128 -190 249c0 144 51 258 192 258
c54 0 122 -14 158 -106h1v99h25v-496zM410 252c0 91 -23 230 -161 230c-143 0 -164 -137 -164 -233c0 -103 29 -232 164 -232c115 0 161 104 161 235z" />
    <glyph glyph-name="uni1FB7" unicode="&#x1fb7;" horiz-adv-x="498" 
d="M343 616c-57 0 -114 32 -166 32c-22 0 -40 -9 -55 -26l-15 19c24 28 56 35 74 35c58 0 107 -33 166 -33c28 0 55 11 70 36l18 -11c-20 -37 -57 -52 -92 -52zM435 0h-25v108h-1c-19 -53 -71 -112 -160 -112c-145 0 -190 128 -190 249c0 144 51 258 192 258
c54 0 122 -14 158 -106h1v99h25v-496zM410 252c0 91 -23 230 -161 230c-143 0 -164 -137 -164 -233c0 -103 29 -232 164 -232c115 0 161 104 161 235zM354 -250h-18c-61 0 -90 35 -90 100v78h25v-65c0 -48 8 -91 73 -91h10v-22z" />
    <glyph glyph-name="uni1FBA" unicode="&#x1fba;" horiz-adv-x="578" 
d="M84 535l-16 -6l-101 154l38 9zM529 0l-61 175h-358l-62 -175h-30l253 696h36l253 -696h-31zM290 670h-2l-169 -470h340z" />
    <glyph glyph-name="uni1FBB" unicode="&#x1fbb;" horiz-adv-x="578" 
d="M-10 529l-16 6l89 157l38 -9zM529 0l-61 175h-358l-62 -175h-30l253 696h36l253 -696h-31zM290 670h-2l-169 -470h340z" />
    <glyph glyph-name="uni1FBC" unicode="&#x1fbc;" horiz-adv-x="783" 
d="M763 0h-16c-61 0 -99 35 -99 100v396h25v-383c0 -19 2 -43 11 -60c11 -20 37 -32 75 -32h4v-21zM529 0l-61 175h-358l-62 -175h-30l253 696h36l253 -696h-31zM290 670h-2l-169 -470h340z" />
    <glyph glyph-name="uni1FC2" unicode="&#x1fc2;" horiz-adv-x="500" 
d="M267 585l-16 -6l-101 154l38 9zM412 0v327c0 100 -58 151 -154 151c-94 0 -171 -73 -171 -176v-302h-24v494h24v-96h2c33 73 111 102 171 102c119 0 176 -63 176 -166v-334h-24zM354 -250h-18c-61 0 -90 35 -90 100v78h25v-65c0 -48 8 -91 73 -91h10v-22z" />
    <glyph glyph-name="uni1FC3" unicode="&#x1fc3;" horiz-adv-x="500" 
d="M412 0v327c0 100 -58 151 -154 151c-94 0 -171 -73 -171 -176v-302h-24v494h24v-96h2c33 73 111 102 171 102c119 0 176 -63 176 -166v-334h-24zM352 -250h-18c-61 0 -90 35 -90 100v78h25v-65c0 -48 8 -91 73 -91h10v-22z" />
    <glyph glyph-name="uni1FC4" unicode="&#x1fc4;" horiz-adv-x="500" 
d="M217 579l-16 6l89 157l38 -9zM412 0v327c0 100 -58 151 -154 151c-94 0 -171 -73 -171 -176v-302h-24v494h24v-96h2c33 73 111 102 171 102c119 0 176 -63 176 -166v-334h-24zM354 -250h-18c-61 0 -90 35 -90 100v78h25v-65c0 -48 8 -91 73 -91h10v-22z" />
    <glyph glyph-name="uni1FC8" unicode="&#x1fc8;" horiz-adv-x="520" 
d="M3 535l-16 -6l-101 154l38 9zM80 0v696h413v-24h-386v-306h330v-24h-330v-318h386v-24h-413z" />
    <glyph glyph-name="uni1FC9" unicode="&#x1fc9;" horiz-adv-x="520" 
d="M-108 529l-16 6l89 157l38 -9zM80 0v696h413v-24h-386v-306h330v-24h-330v-318h386v-24h-413z" />
    <glyph glyph-name="uni1FCA" unicode="&#x1fca;" horiz-adv-x="619" 
d="M-22 535l-16 -6l-101 154l38 9zM513 0v342h-407v-342h-26v696h26v-330h407v330h26v-696h-26z" />
    <glyph glyph-name="uni1FCB" unicode="&#x1fcb;" horiz-adv-x="619" 
d="M-142 529l-16 6l89 157l38 -9zM513 0v342h-407v-342h-26v696h26v-330h407v330h26v-696h-26z" />
    <glyph glyph-name="uni1FCC" unicode="&#x1fcc;" horiz-adv-x="803" 
d="M783 0h-16c-61 0 -99 35 -99 100v396h25v-383c0 -19 2 -43 11 -60c11 -20 37 -32 75 -32h4v-21zM513 0v342h-407v-342h-26v696h26v-330h407v330h26v-696h-26z" />
    <glyph glyph-name="uni1FD8" unicode="&#x1fd8;" horiz-adv-x="198" 
d="M98 754c50 0 89 33 97 78h22c-8 -49 -46 -101 -119 -101s-112 52 -119 101h21c8 -45 51 -78 98 -78zM86 0v696h26v-696h-26z" />
    <glyph glyph-name="uni1FD9" unicode="&#x1fd9;" horiz-adv-x="198" 
d="M-25 764v24h248v-24h-248zM86 0v696h26v-696h-26z" />
    <glyph glyph-name="uni1FDA" unicode="&#x1fda;" horiz-adv-x="198" 
d="M2 535l-16 -6l-101 154l38 9zM86 0v696h26v-696h-26z" />
    <glyph glyph-name="uni1FDB" unicode="&#x1fdb;" horiz-adv-x="198" 
d="M-108 529l-16 6l89 157l38 -9zM86 0v696h26v-696h-26z" />
    <glyph glyph-name="uni1FE0" unicode="&#x1fe0;" horiz-adv-x="518" 
d="M259 -7c-112 0 -186 75 -186 184v318h24v-304c0 -104 60 -176 163 -176c104 0 162 64 162 162v318h25v-314c0 -126 -75 -188 -188 -188zM263 585c42 0 81 16 97 78h22c-8 -49 -46 -101 -119 -101s-112 52 -119 101h22c10 -52 55 -78 97 -78z" />
    <glyph glyph-name="uni1FE1" unicode="&#x1fe1;" horiz-adv-x="518" 
d="M259 -7c-112 0 -186 75 -186 184v318h24v-304c0 -104 60 -176 163 -176c104 0 162 64 162 162v318h25v-314c0 -126 -75 -188 -188 -188zM132 580v24h248v-24h-248z" />
    <glyph glyph-name="uni1FE2" unicode="&#x1fe2;" horiz-adv-x="518" 
d="M259 -7c-112 0 -186 75 -186 184v318h24v-304c0 -104 60 -176 163 -176c104 0 162 64 162 162v318h25v-314c0 -126 -75 -188 -188 -188zM184 657v-36h-38v36h38zM381 657v-36h-38v36h38zM311 585l-16 -6l-101 159l38 9z" />
    <glyph glyph-name="uni1FE3" unicode="&#x1fe3;" horiz-adv-x="518" 
d="M259 -7c-112 0 -186 75 -186 184v318h24v-304c0 -104 60 -176 163 -176c104 0 162 64 162 162v318h25v-314c0 -126 -75 -188 -188 -188zM344 625v36h38v-36h-38zM147 625v36h38v-36h-38zM227 583l-16 6l89 162l38 -9z" />
    <glyph glyph-name="uni1FE4" unicode="&#x1fe4;" horiz-adv-x="493" 
d="M63 -200v451c0 97 22 166 63 202c32 28 73 48 128 48c71 0 126 -28 159 -79c21 -33 36 -80 36 -178c0 -102 -25 -160 -57 -195c-33 -36 -78 -53 -135 -53c-58 0 -125 16 -168 98h-1v-294h-25zM88 248v-44c0 -75 34 -186 168 -186c50 0 89 16 117 45c30 32 51 78 51 182
c0 98 -15 139 -34 166c-29 42 -78 68 -137 68c-46 0 -88 -21 -116 -50c-26 -26 -49 -82 -49 -181zM260 580l-15 9c34 61 42 109 -21 129l15 29c78 -25 83 -100 21 -167z" />
    <glyph glyph-name="uni1FE5" unicode="&#x1fe5;" horiz-adv-x="493" 
d="M63 -200v451c0 97 22 166 63 202c32 28 73 48 128 48c71 0 126 -28 159 -79c21 -33 36 -80 36 -178c0 -102 -25 -160 -57 -195c-33 -36 -78 -53 -135 -53c-58 0 -125 16 -168 98h-1v-294h-25zM88 248v-44c0 -75 34 -186 168 -186c50 0 89 16 117 45c30 32 51 78 51 182
c0 98 -15 139 -34 166c-29 42 -78 68 -137 68c-46 0 -88 -21 -116 -50c-26 -26 -49 -82 -49 -181zM279 589l-15 -9c-62 67 -57 142 21 167l15 -29c-63 -20 -55 -68 -21 -129z" />
    <glyph glyph-name="uni1FE6" unicode="&#x1fe6;" horiz-adv-x="518" 
d="M330 616c-57 0 -114 32 -166 32c-22 0 -40 -9 -55 -26l-15 19c24 28 56 35 74 35c58 0 107 -33 166 -33c28 0 55 11 70 36l18 -11c-20 -37 -57 -52 -92 -52zM259 -7c-112 0 -186 75 -186 184v318h24v-304c0 -104 60 -176 163 -176c104 0 162 64 162 162v318h25v-314
c0 -126 -75 -188 -188 -188z" />
    <glyph glyph-name="uni1FE7" unicode="&#x1fe7;" horiz-adv-x="518" 
d="M259 -7c-112 0 -186 75 -186 184v318h24v-304c0 -104 60 -176 163 -176c104 0 162 64 162 162v318h25v-314c0 -126 -75 -188 -188 -188zM314 560v36h38v-36h-38zM167 560v36h38v-36h-38zM207 702c39 0 88 -40 121 -40c21 0 34 12 53 39l20 -12c-23 -40 -47 -54 -74 -54
c-36 0 -85 40 -122 40c-26 0 -45 -15 -64 -38l-19 12c24 34 54 53 85 53z" />
    <glyph glyph-name="uni1FE8" unicode="&#x1fe8;" horiz-adv-x="459" 
d="M229 752c50 0 89 33 97 78h22c-8 -49 -46 -101 -119 -101s-112 52 -119 101h21c8 -45 51 -78 98 -78zM242 289v-289h-25v289l-208 407h27l194 -381l193 381h26z" />
    <glyph glyph-name="uni1FE9" unicode="&#x1fe9;" horiz-adv-x="459" 
d="M106 764v24h248v-24h-248zM242 289v-289h-25v289l-208 407h27l194 -381l193 381h26z" />
    <glyph glyph-name="uni1FEA" unicode="&#x1fea;" horiz-adv-x="459" 
d="M-49 535l-16 -6l-101 154l38 9zM242 289v-289h-25v289l-208 407h27l194 -381l193 381h26z" />
    <glyph glyph-name="uni1FEB" unicode="&#x1feb;" horiz-adv-x="459" 
d="M-153 529l-16 6l89 157l38 -9zM242 289v-289h-25v289l-208 407h27l194 -381l193 381h26z" />
    <glyph glyph-name="uni1FEC" unicode="&#x1fec;" horiz-adv-x="546" 
d="M82 696h245c109 0 209 -52 209 -198c0 -89 -60 -191 -201 -191h-226v-307h-27v696zM109 672v-340h221c128 0 177 85 177 169c0 116 -82 171 -181 171h-217zM-47 530l-15 9c34 61 42 109 -21 129l15 29c78 -25 83 -100 21 -167z" />
    <glyph glyph-name="uni1FF2" unicode="&#x1ff2;" horiz-adv-x="729" 
d="M380 585l-16 -6l-101 154l38 9zM513 -5c-57 0 -127 25 -150 114c-29 -85 -90 -115 -147 -115c-125 0 -174 101 -174 254c0 140 50 226 147 248l6 -23c-83 -19 -128 -95 -128 -226c0 -142 43 -232 151 -232c89 0 131 86 131 157v192h25v-192c0 -69 40 -156 139 -156
c97 0 149 83 149 230c0 133 -37 211 -126 228l6 23c104 -19 145 -108 145 -251c0 -155 -56 -251 -174 -251zM457 -250h-18c-61 0 -90 35 -90 100v78h25v-65c0 -48 8 -91 73 -91h10v-22z" />
    <glyph glyph-name="uni1FF3" unicode="&#x1ff3;" horiz-adv-x="729" 
d="M513 -5c-57 0 -127 25 -150 114c-29 -85 -90 -115 -147 -115c-125 0 -174 101 -174 254c0 140 50 226 147 248l6 -23c-83 -19 -128 -95 -128 -226c0 -142 43 -232 151 -232c89 0 131 86 131 157v192h25v-192c0 -69 40 -156 139 -156c97 0 149 83 149 230
c0 133 -37 211 -126 228l6 23c104 -19 145 -108 145 -251c0 -155 -56 -251 -174 -251zM457 -250h-18c-61 0 -90 35 -90 100v78h25v-65c0 -48 8 -91 73 -91h10v-22z" />
    <glyph glyph-name="uni1FF4" unicode="&#x1ff4;" horiz-adv-x="729" 
d="M347 579l-16 6l89 157l38 -9zM513 -5c-57 0 -127 25 -150 114c-29 -85 -90 -115 -147 -115c-125 0 -174 101 -174 254c0 140 50 226 147 248l6 -23c-83 -19 -128 -95 -128 -226c0 -142 43 -232 151 -232c89 0 131 86 131 157v192h25v-192c0 -69 40 -156 139 -156
c97 0 149 83 149 230c0 133 -37 211 -126 228l6 23c104 -19 145 -108 145 -251c0 -155 -56 -251 -174 -251zM457 -250h-18c-61 0 -90 35 -90 100v78h25v-65c0 -48 8 -91 73 -91h10v-22z" />
    <glyph glyph-name="uni1FF6" unicode="&#x1ff6;" horiz-adv-x="729" 
d="M452 616c-57 0 -114 32 -166 32c-22 0 -40 -9 -55 -26l-15 19c24 28 56 35 74 35c58 0 107 -33 166 -33c28 0 55 11 70 36l18 -11c-20 -37 -57 -52 -92 -52zM513 -5c-57 0 -127 25 -150 114c-29 -85 -90 -115 -147 -115c-125 0 -174 101 -174 254c0 140 50 226 147 248
l6 -23c-83 -19 -128 -95 -128 -226c0 -142 43 -232 151 -232c89 0 131 86 131 157v192h25v-192c0 -69 40 -156 139 -156c97 0 149 83 149 230c0 133 -37 211 -126 228l6 23c104 -19 145 -108 145 -251c0 -155 -56 -251 -174 -251z" />
    <glyph glyph-name="uni1FF7" unicode="&#x1ff7;" horiz-adv-x="729" 
d="M452 616c-57 0 -114 32 -166 32c-22 0 -40 -9 -55 -26l-15 19c24 28 56 35 74 35c58 0 107 -33 166 -33c28 0 55 11 70 36l18 -11c-20 -37 -57 -52 -92 -52zM513 -5c-57 0 -127 25 -150 114c-29 -85 -90 -115 -147 -115c-125 0 -174 101 -174 254c0 140 50 226 147 248
l6 -23c-83 -19 -128 -95 -128 -226c0 -142 43 -232 151 -232c89 0 131 86 131 157v192h25v-192c0 -69 40 -156 139 -156c97 0 149 83 149 230c0 133 -37 211 -126 228l6 23c104 -19 145 -108 145 -251c0 -155 -56 -251 -174 -251zM457 -250h-18c-61 0 -90 35 -90 100v78h25
v-65c0 -48 8 -91 73 -91h10v-22z" />
    <glyph glyph-name="uni1FF8" unicode="&#x1ff8;" horiz-adv-x="559" 
d="M-5 535l-16 -6l-101 154l38 9zM280 701c147 0 233 -101 233 -243v-215c0 -153 -88 -250 -233 -250c-164 0 -237 115 -237 250v215c0 131 78 243 237 243zM281 676c-141 0 -211 -99 -211 -220v-218c0 -118 70 -221 211 -221c128 0 205 94 205 227v212
c0 125 -76 220 -205 220z" />
    <glyph glyph-name="uni1FF9" unicode="&#x1ff9;" horiz-adv-x="559" 
d="M-109 529l-16 6l89 157l38 -9zM280 701c147 0 233 -101 233 -243v-215c0 -153 -88 -250 -233 -250c-164 0 -237 115 -237 250v215c0 131 78 243 237 243zM281 676c-141 0 -211 -99 -211 -220v-218c0 -118 70 -221 211 -221c128 0 205 94 205 227v212
c0 125 -76 220 -205 220z" />
    <glyph glyph-name="uni1FFA" unicode="&#x1ffa;" horiz-adv-x="559" 
d="M0 535l-16 -6l-101 154l38 9zM163 24v2c-83 41 -120 125 -120 223v209c0 131 78 243 237 243c147 0 233 -101 233 -243v-209c0 -106 -42 -185 -116 -224l1 -2h132v-23h-185v30c89 27 140 111 140 220v206c0 125 -75 220 -204 220c-141 0 -210 -99 -210 -220v-206
c0 -97 47 -193 141 -221v-29h-185v24h136z" />
    <glyph glyph-name="uni1FFB" unicode="&#x1ffb;" horiz-adv-x="559" 
d="M-111 529l-16 6l89 157l38 -9zM163 24v2c-83 41 -120 125 -120 223v209c0 131 78 243 237 243c147 0 233 -101 233 -243v-209c0 -106 -42 -185 -116 -224l1 -2h132v-23h-185v30c89 27 140 111 140 220v206c0 125 -75 220 -204 220c-141 0 -210 -99 -210 -220v-206
c0 -97 47 -193 141 -221v-29h-185v24h136z" />
    <glyph glyph-name="uni1FFC" unicode="&#x1ffc;" horiz-adv-x="783" 
d="M763 0h-16c-61 0 -99 35 -99 100v396h25v-383c0 -19 2 -43 11 -60c11 -20 37 -32 75 -32h4v-21zM163 24v2c-83 41 -120 125 -120 223v209c0 131 78 243 237 243c147 0 233 -101 233 -243v-209c0 -106 -42 -185 -116 -224l1 -2h132v-23h-185v30c89 27 140 111 140 220v206
c0 125 -75 220 -204 220c-141 0 -210 -99 -210 -220v-206c0 -97 47 -193 141 -221v-29h-185v24h136z" />
    <glyph glyph-name="uni1FD0" unicode="&#x1fd0;" horiz-adv-x="197" 
d="M160 20v-23h-12c-54 0 -71 35 -71 83v415h25v-413c0 -40 15 -62 49 -62h9zM90 585c42 0 81 16 97 78h22c-8 -49 -46 -101 -119 -101s-112 52 -119 101h22c10 -52 55 -78 97 -78z" />
    <glyph glyph-name="uni1FD1" unicode="&#x1fd1;" horiz-adv-x="197" 
d="M160 20v-23h-12c-54 0 -71 35 -71 83v415h25v-413c0 -40 15 -62 49 -62h9zM-34 580v24h248v-24h-248z" />
    <glyph glyph-name="uni1FD2" unicode="&#x1fd2;" horiz-adv-x="197" 
d="M12 657v-36h-38v36h38zM209 657v-36h-38v36h38zM139 585l-16 -6l-101 159l38 9zM160 20v-23h-12c-54 0 -71 35 -71 83v415h25v-413c0 -40 15 -62 49 -62h9z" />
    <glyph glyph-name="uni1FD3" unicode="&#x1fd3;" horiz-adv-x="197" 
d="M160 20v-23h-12c-54 0 -71 35 -71 83v415h25v-413c0 -40 15 -62 49 -62h9zM174 621v36h38v-36h-38zM-23 621v36h38v-36h-38zM57 579l-16 6l89 162l38 -9z" />
    <glyph glyph-name="uni1FD6" unicode="&#x1fd6;" horiz-adv-x="197" 
d="M160 20v-23h-12c-54 0 -71 35 -71 83v415h25v-413c0 -40 15 -62 49 -62h9zM34 659c39 0 88 -40 121 -40c21 0 34 12 53 39l20 -12c-23 -40 -47 -54 -74 -54c-36 0 -85 40 -122 40c-26 0 -45 -15 -64 -38l-19 12c24 34 54 53 85 53z" />
    <glyph glyph-name="uni1FD7" unicode="&#x1fd7;" horiz-adv-x="197" 
d="M160 20v-23h-12c-54 0 -71 35 -71 83v415h25v-413c0 -40 15 -62 49 -62h9zM145 566v36h38v-36h-38zM-2 566v36h38v-36h-38zM38 708c39 0 88 -40 121 -40c21 0 34 12 53 39l20 -12c-23 -40 -47 -54 -74 -54c-36 0 -85 40 -122 40c-26 0 -45 -15 -64 -38l-19 12
c24 34 54 53 85 53z" />
    <glyph glyph-name="uni1FB8" unicode="&#x1fb8;" horiz-adv-x="578" 
d="M289 752c50 0 89 33 97 78h22c-8 -49 -46 -101 -119 -101s-112 52 -119 101h21c8 -45 51 -78 98 -78zM529 0l-61 175h-358l-62 -175h-30l253 696h36l253 -696h-31zM290 670h-2l-169 -470h340z" />
    <glyph glyph-name="uni1FB9" unicode="&#x1fb9;" horiz-adv-x="578" 
d="M165 764v24h248v-24h-248zM529 0l-61 175h-358l-62 -175h-30l253 696h36l253 -696h-31zM290 670h-2l-169 -470h340z" />
    <glyph glyph-name="guilsinglright" unicode="&#x203a;" horiz-adv-x="264" 
d="M101 46h-29l110 166l-110 165h27l113 -165z" />
    <glyph glyph-name="guilsinglleft" unicode="&#x2039;" horiz-adv-x="264" 
d="M212 46h-29l-111 166l113 165h27l-110 -165z" />
    <glyph glyph-name="exclamdown" unicode="&#xa1;" horiz-adv-x="198" 
d="M90 294h16l6 -502h-28zM81 488h36v-41h-36v41z" />
    <glyph glyph-name="questiondown" unicode="&#xbf;" horiz-adv-x="419" 
d="M365 -50l25 -5c-24 -100 -102 -157 -187 -157c-104 0 -173 72 -174 168c1 73 43 119 84 165c38 42 76 84 81 146v74h25v-76c-2 -61 -42 -112 -87 -159c-34 -36 -79 -89 -79 -145c0 -61 37 -151 154 -151c90 0 150 84 158 140zM185 490h38v-43h-38v43z" />
    <glyph glyph-name="emdash" unicode="&#x2014;" horiz-adv-x="990" 
d="M20 250v25h950v-25h-950z" />
    <glyph glyph-name="Thorn" unicode="&#xde;" horiz-adv-x="546" 
d="M82 696h27v-153h218c109 0 209 -52 209 -198c0 -89 -60 -191 -201 -191h-226v-154h-27v696zM109 519v-340h221c128 0 177 85 177 169c0 116 -82 171 -181 171h-217z" />
    <glyph glyph-name="thorn" unicode="&#xfe;" horiz-adv-x="489" 
d="M59 696h25v-298h1c43 88 106 105 160 105c139 0 190 -114 190 -258c0 -121 -45 -249 -190 -249c-89 0 -133 49 -160 105h-1v-301h-25v896zM84 252c0 -131 46 -236 161 -236c135 0 164 130 164 233c0 96 -21 233 -164 233c-138 0 -161 -139 -161 -230z" />
    <glyph glyph-name="OE" unicode="&#x152;" horiz-adv-x="780" 
d="M280 701c22 0 44 -1 64 -5h409v-24h-386v-306h330v-24h-330v-318h386v-24h-409c-20 -4 -41 -7 -64 -7c-174 0 -237 115 -237 250v215c0 131 78 243 237 243zM281 17c21 0 41 2 59 7v647c-18 4 -38 5 -59 5c-141 0 -210 -99 -210 -220v-218c0 -118 61 -221 210 -221z" />
    <glyph glyph-name="quotesinglbase" unicode="&#x201a;" horiz-adv-x="136" 
d="M54 -93h-17l23 93h-10v44h39v-47z" />
    <glyph glyph-name="quotedblbase" unicode="&#x201e;" horiz-adv-x="295" 
d="M74 -93h-17l23 93h-10v44h39v-47zM190 -93h-17l23 93h-10v44h39v-47z" />
    <glyph glyph-name="daggerdbl" unicode="&#x2021;" horiz-adv-x="438" 
d="M204 134v288h-181v28h181v246h29v-246h182v-28h-182v-288h182v-28h-182v-304h-29v304h-181v28h181z" />
    <glyph glyph-name="cent" unicode="&#xa2;" horiz-adv-x="450" 
d="M269 -7h-11v-105h-19v107c-98 11 -188 81 -188 252c0 170 90 241 188 252v112h19v-110h11c53 0 98 -18 135 -47l-14 -19c-28 23 -71 45 -115 45c-6 0 -12 0 -17 -1v-466h15c44 0 85 19 117 45l14 -17c-37 -29 -82 -48 -135 -48zM76 247c0 -134 58 -217 163 -232v462
c-105 -15 -163 -97 -163 -230z" />
    <glyph glyph-name="currency" unicode="&#xa4;" horiz-adv-x="493" 
d="M94 173l53 53c-22 29 -34 64 -34 100c-1 38 13 73 38 104l-53 53l17 17l53 -53c32 26 68 38 103 38s69 -13 100 -35l53 53l17 -17l-53 -54c29 -31 44 -67 44 -105c0 -39 -15 -75 -38 -105l53 -53c-4 -5 -14 -14 -18 -18l-53 53c-29 -25 -67 -39 -104 -40
c-41 1 -75 15 -108 44l-53 -53c-4 5 -14 14 -17 18zM272 460c-75 -1 -133 -58 -133 -133c0 -76 57 -135 132 -135c76 0 134 59 134 134s-58 134 -133 134z" />
    <glyph glyph-name="paragraph" unicode="&#xb6;" horiz-adv-x="460" 
d="M341 703h-107v-784h-32v458c-95 0 -181 62 -181 181c0 97 55 176 181 176h243v-31h-72v-784h-32v784z" />
    <glyph glyph-name="Oslash" unicode="&#xd8;" horiz-adv-x="559" 
d="M280 701c73 0 131 -25 171 -68l43 67l19 -12l-47 -73c30 -41 47 -95 47 -157v-215c0 -153 -88 -250 -233 -250c-79 0 -136 26 -175 69l-43 -66l-19 13l46 71c-31 44 -46 102 -46 163v215c0 131 78 243 237 243zM486 456c0 51 -13 97 -37 134l-329 -504
c35 -42 89 -69 161 -69c128 0 205 94 205 227v212zM281 676c-141 0 -211 -99 -211 -220v-218c0 -49 12 -95 36 -133l329 504c-35 42 -88 67 -154 67z" />
    <glyph glyph-name="oslash" unicode="&#xf8;" horiz-adv-x="477" 
d="M241 501c58 0 105 -19 138 -53l40 52l16 -13l-42 -55c2 -4 5 -7 7 -10c21 -33 36 -80 36 -178c0 -102 -25 -160 -57 -195c-33 -36 -81 -55 -143 -55c-58 0 -101 17 -132 47l-6 6l-38 -50l-17 13l41 54c-27 39 -43 97 -43 187c0 107 29 168 70 204c32 28 75 46 130 46z
M411 245c0 98 -15 139 -34 166l-263 -344c2 -3 5 -5 8 -8c28 -28 68 -44 117 -44c50 0 93 19 121 48c30 32 51 78 51 182zM240 479c-51 0 -91 -19 -119 -48c-33 -34 -55 -82 -55 -183c0 -79 13 -128 35 -163l262 342c-29 32 -72 52 -123 52z" />
    <glyph glyph-name="Scaron" unicode="&#x160;" horiz-adv-x="523" 
d="M269 756l122 82l12 -12l-118 -100h-29l-122 100l12 13zM259 -6c-87 0 -160 20 -229 65l15 22c63 -40 138 -63 216 -63c116 0 207 53 207 158c0 128 -114 156 -200 172c-100 19 -202 46 -202 169c0 109 76 185 211 185c68 0 134 -17 187 -46l-13 -23
c-53 28 -114 45 -176 45c-87 0 -182 -44 -182 -161c0 -116 105 -128 182 -144c114 -24 220 -55 220 -197c0 -110 -87 -182 -236 -182z" />
    <glyph glyph-name="Zcaron" unicode="&#x17d;" horiz-adv-x="480" 
d="M255 756l122 82l12 -12l-118 -100h-29l-122 100l12 13zM33 0v25l385 647h-368v24h396v-25l-384 -647h384v-24h-413z" />
    <glyph glyph-name="scaron" unicode="&#x161;" horiz-adv-x="454" 
d="M402 128c0 -73 -59 -135 -190 -135c-70 0 -137 18 -188 55l14 20c49 -37 115 -53 183 -53c60 0 155 23 155 116c0 78 -81 104 -149 114c-96 15 -175 33 -175 119c0 85 68 137 177 137c68 0 113 -13 156 -40l-14 -21c-39 24 -84 39 -138 39c-86 0 -153 -36 -155 -111
c0 -77 76 -87 147 -99c85 -14 177 -39 177 -141zM210 589l122 92l12 -12l-118 -110h-29l-122 110l12 13z" />
    <glyph glyph-name="zcaron" unicode="&#x17e;" horiz-adv-x="414" 
d="M36 0v20l314 454h-299v21h327v-20l-313 -454h313v-21h-342zM207 589l122 92l12 -12l-118 -110h-29l-122 110l12 13z" />
    <glyph glyph-name="Ydieresis" unicode="&#x178;" horiz-adv-x="459" 
d="M313 753v36h38v-36h-38zM135 753v36h38v-36h-38zM242 289v-289h-25v289l-208 407h27l194 -381l193 381h26z" />
    <glyph glyph-name="Agrave" unicode="&#xc0;" horiz-adv-x="598" 
d="M314 737l-11 -13l-142 88l24 26zM529 0l-61 175h-358l-62 -175h-30l253 696h36l253 -696h-31zM290 670h-2l-169 -470h340z" />
    <glyph glyph-name="Aacute" unicode="&#xc1;" horiz-adv-x="578" 
d="M280 724l-11 13l129 101l24 -26zM529 0l-61 175h-358l-62 -175h-30l253 696h36l253 -696h-31zM290 670h-2l-169 -470h340z" />
    <glyph glyph-name="Acircumflex" unicode="&#xc2;" horiz-adv-x="578" 
d="M412 726l-122 82l-123 -83l-12 13l122 100h29l118 -100zM529 0l-61 175h-358l-62 -175h-30l253 696h36l253 -696h-31zM290 670h-2l-169 -470h340z" />
    <glyph glyph-name="Atilde" unicode="&#xc3;" horiz-adv-x="578" 
d="M529 0l-61 175h-358l-62 -175h-30l253 696h36l253 -696h-31zM290 670h-2l-169 -470h340zM237 809c39 0 88 -40 121 -40c21 0 34 12 53 39l20 -12c-23 -40 -47 -54 -74 -54c-36 0 -85 40 -122 40c-26 0 -45 -15 -64 -38l-19 12c24 34 54 53 85 53z" />
    <glyph glyph-name="Aring" unicode="&#xc5;" horiz-adv-x="578" 
d="M529 0l-61 175h-358l-62 -175h-30l253 696h36l253 -696h-31zM290 670h-2l-169 -470h340zM288 715c-47 0 -86 39 -86 86c0 48 39 85 86 85c48 0 87 -37 87 -85c0 -47 -39 -86 -87 -86zM288 868c-37 0 -66 -30 -66 -67s29 -67 66 -67c38 0 67 30 67 67s-29 67 -67 67z" />
    <glyph glyph-name="Egrave" unicode="&#xc8;" horiz-adv-x="520" 
d="M332 737l-11 -13l-142 88l24 26zM80 0v696h413v-24h-386v-306h330v-24h-330v-318h386v-24h-413z" />
    <glyph glyph-name="Ecircumflex" unicode="&#xca;" horiz-adv-x="520" 
d="M411 726l-122 82l-123 -83l-12 13l122 100h29l118 -100zM80 0v696h413v-24h-386v-306h330v-24h-330v-318h386v-24h-413z" />
    <glyph glyph-name="Edieresis" unicode="&#xcb;" horiz-adv-x="520" 
d="M357 753v36h38v-36h-38zM179 753v36h38v-36h-38zM80 0v696h413v-24h-386v-306h330v-24h-330v-318h386v-24h-413z" />
    <glyph glyph-name="Igrave" unicode="&#xcc;" horiz-adv-x="198" 
d="M118 737l-11 -13l-142 88l24 26zM86 0v696h26v-696h-26z" />
    <glyph glyph-name="Iacute" unicode="&#xcd;" horiz-adv-x="198" 
d="M100 724l-11 13l129 101l24 -26zM86 0v696h26v-696h-26z" />
    <glyph glyph-name="Icircumflex" unicode="&#xce;" horiz-adv-x="284" 
d="M244 726l-122 82l-123 -83l-12 13l122 100h29l118 -100zM107 0v696h26v-696h-26z" />
    <glyph glyph-name="Idieresis" unicode="&#xcf;" horiz-adv-x="198" 
d="M170 753v36h38v-36h-38zM-8 753v36h38v-36h-38zM86 0v696h26v-696h-26z" />
    <glyph glyph-name="Eth" unicode="&#xd0;" horiz-adv-x="600" 
d="M16 365v23h64v308h222c105 0 177 -36 218 -124c22 -47 24 -123 24 -211c0 -101 -1 -176 -23 -229c-41 -98 -118 -132 -231 -132h-210v365h-64zM518 271v148c0 191 -86 253 -224 253h-187v-284h172v-23h-172v-341h187c171 0 224 106 224 247z" />
    <glyph glyph-name="Ograve" unicode="&#xd2;" horiz-adv-x="559" 
d="M346 737l-11 -13l-142 88l24 26zM280 701c147 0 233 -101 233 -243v-215c0 -153 -88 -250 -233 -250c-164 0 -237 115 -237 250v215c0 131 78 243 237 243zM281 676c-141 0 -211 -99 -211 -220v-218c0 -118 70 -221 211 -221c128 0 205 94 205 227v212
c0 125 -76 220 -205 220z" />
    <glyph glyph-name="Oacute" unicode="&#xd3;" horiz-adv-x="559" 
d="M242 724l-11 13l129 101l24 -26zM280 701c147 0 233 -101 233 -243v-215c0 -153 -88 -250 -233 -250c-164 0 -237 115 -237 250v215c0 131 78 243 237 243zM281 676c-141 0 -211 -99 -211 -220v-218c0 -118 70 -221 211 -221c128 0 205 94 205 227v212
c0 125 -76 220 -205 220z" />
    <glyph glyph-name="Ocircumflex" unicode="&#xd4;" horiz-adv-x="559" 
d="M401 726l-122 82l-123 -83l-12 13l122 100h29l118 -100zM280 701c147 0 233 -101 233 -243v-215c0 -153 -88 -250 -233 -250c-164 0 -237 115 -237 250v215c0 131 78 243 237 243zM281 676c-141 0 -211 -99 -211 -220v-218c0 -118 70 -221 211 -221c128 0 205 94 205 227
v212c0 125 -76 220 -205 220z" />
    <glyph glyph-name="Otilde" unicode="&#xd5;" horiz-adv-x="559" 
d="M280 701c147 0 233 -101 233 -243v-215c0 -153 -88 -250 -233 -250c-164 0 -237 115 -237 250v215c0 131 78 243 237 243zM281 676c-141 0 -211 -99 -211 -220v-218c0 -118 70 -221 211 -221c128 0 205 94 205 227v212c0 125 -76 220 -205 220zM228 809
c39 0 88 -40 121 -40c21 0 34 12 53 39l20 -12c-23 -40 -47 -54 -74 -54c-36 0 -85 40 -122 40c-26 0 -45 -15 -64 -38l-19 12c24 34 54 53 85 53z" />
    <glyph glyph-name="Ugrave" unicode="&#xd9;" horiz-adv-x="600" 
d="M346 737l-11 -13l-142 88l24 26zM300 -6c-131 0 -234 93 -234 238v464h26v-451c0 -130 84 -226 208 -226c119 0 207 81 207 215v462h27v-474c0 -137 -101 -228 -234 -228z" />
    <glyph glyph-name="Uacute" unicode="&#xda;" horiz-adv-x="600" 
d="M242 724l-11 13l129 101l24 -26zM300 -6c-131 0 -234 93 -234 238v464h26v-451c0 -130 84 -226 208 -226c119 0 207 81 207 215v462h27v-474c0 -137 -101 -228 -234 -228z" />
    <glyph glyph-name="Ucircumflex" unicode="&#xdb;" horiz-adv-x="600" 
d="M420 726l-122 82l-123 -83l-12 13l122 100h29l118 -100zM300 -6c-131 0 -234 93 -234 238v464h26v-451c0 -130 84 -226 208 -226c119 0 207 81 207 215v462h27v-474c0 -137 -101 -228 -234 -228z" />
    <glyph glyph-name="Yacute" unicode="&#xdd;" horiz-adv-x="459" 
d="M185 724l-11 13l129 101l24 -26zM242 289v-289h-25v289l-208 407h27l194 -381l193 381h26z" />
    <glyph glyph-name="aacute" unicode="&#xe1;" horiz-adv-x="465" 
d="M387 60h-2c-37 -59 -111 -67 -179 -67c-87 0 -174 40 -174 140c0 82 55 135 160 135h195v78c0 83 -39 133 -158 133c-43 0 -99 -8 -148 -51l-16 17c42 38 96 56 167 56c99 0 180 -28 180 -150v-351h-25v60zM387 246h-190c-86 0 -140 -35 -140 -113s63 -118 153 -118
c64 0 177 19 177 112v119zM247 569l-15 8l82 142l32 -16z" />
    <glyph glyph-name="atilde" unicode="&#xe3;" horiz-adv-x="465" 
d="M387 60h-2c-37 -59 -111 -67 -179 -67c-87 0 -174 40 -174 140c0 82 55 135 160 135h195v78c0 83 -39 133 -158 133c-43 0 -99 -8 -148 -51l-16 17c42 38 96 56 167 56c99 0 180 -28 180 -150v-351h-25v60zM387 246h-190c-86 0 -140 -35 -140 -113s63 -118 153 -118
c64 0 177 19 177 112v119zM183 659c39 0 88 -40 121 -40c21 0 34 12 53 39l20 -12c-23 -40 -47 -54 -74 -54c-36 0 -85 40 -122 40c-26 0 -45 -15 -64 -38l-19 12c24 34 54 53 85 53z" />
    <glyph glyph-name="igrave" unicode="&#xec;" horiz-adv-x="200" 
d="M106 0h-25v496h25v-496zM102 577l-15 -8l-99 134l32 16z" />
    <glyph glyph-name="iacute" unicode="&#xed;" horiz-adv-x="200" 
d="M106 0h-25v496h25v-496zM101 569l-15 8l82 142l32 -16z" />
    <glyph glyph-name="ntilde" unicode="&#xf1;" horiz-adv-x="500" 
d="M412 0v327c0 100 -58 151 -154 151c-94 0 -171 -73 -171 -176v-302h-24v494h24v-96h2c33 73 111 102 171 102c119 0 176 -63 176 -166v-334h-24zM182 659c39 0 88 -40 121 -40c21 0 34 12 53 39l20 -12c-23 -40 -47 -54 -74 -54c-36 0 -85 40 -122 40
c-26 0 -45 -15 -64 -38l-19 12c24 34 54 53 85 53z" />
    <glyph glyph-name="ograve" unicode="&#xf2;" horiz-adv-x="477" 
d="M241 501c71 0 126 -28 159 -79c21 -33 36 -80 36 -178c0 -102 -25 -160 -57 -195c-33 -36 -81 -55 -143 -55c-58 0 -101 17 -132 47c-39 39 -63 101 -63 210c0 107 29 168 70 204c32 28 75 46 130 46zM240 479c-51 0 -91 -19 -119 -48c-33 -34 -55 -82 -55 -183
c0 -102 22 -154 56 -189c28 -28 68 -44 117 -44c50 0 93 19 121 48c30 32 51 78 51 182c0 98 -15 139 -34 166c-29 42 -78 68 -137 68zM269 577l-15 -8l-99 134l32 16z" />
    <glyph glyph-name="oacute" unicode="&#xf3;" horiz-adv-x="477" 
d="M241 501c71 0 126 -28 159 -79c21 -33 36 -80 36 -178c0 -102 -25 -160 -57 -195c-33 -36 -81 -55 -143 -55c-58 0 -101 17 -132 47c-39 39 -63 101 -63 210c0 107 29 168 70 204c32 28 75 46 130 46zM240 479c-51 0 -91 -19 -119 -48c-33 -34 -55 -82 -55 -183
c0 -102 22 -154 56 -189c28 -28 68 -44 117 -44c50 0 93 19 121 48c30 32 51 78 51 182c0 98 -15 139 -34 166c-29 42 -78 68 -137 68zM238 569l-15 8l82 142l32 -16z" />
    <glyph glyph-name="uacute" unicode="&#xfa;" horiz-adv-x="518" 
d="M443 0h-24v92h-2c-31 -69 -112 -97 -171 -97c-115 0 -176 70 -176 172v329h25v-327c0 -100 65 -152 152 -152c95 0 173 70 173 173v306h23v-496zM263 569l-15 8l82 142l32 -16z" />
    <glyph glyph-name="aring" unicode="&#xe5;" horiz-adv-x="465" 
d="M387 60h-2c-37 -59 -111 -67 -179 -67c-87 0 -174 40 -174 140c0 82 55 135 160 135h195v78c0 83 -39 133 -158 133c-43 0 -99 -8 -148 -51l-16 17c42 38 96 56 167 56c99 0 180 -28 180 -150v-351h-25v60zM387 246h-190c-86 0 -140 -35 -140 -113s63 -118 153 -118
c64 0 177 19 177 112v119zM237 557c-47 0 -86 39 -86 86c0 48 39 85 86 85c48 0 87 -37 87 -85c0 -47 -39 -86 -87 -86zM237 710c-37 0 -66 -30 -66 -67s29 -67 66 -67c38 0 67 30 67 67s-29 67 -67 67z" />
    <glyph glyph-name="yacute" unicode="&#xfd;" horiz-adv-x="409" 
d="M184 -115c-19 -55 -60 -86 -105 -86h-17v23h15c36 0 69 25 87 78l29 86l-186 508h28l171 -474h1l168 474h27zM201 569l-15 8l82 142l32 -16z" />
    <glyph glyph-name="ydieresis" unicode="&#xff;" horiz-adv-x="409" 
d="M184 -115c-19 -55 -60 -86 -105 -86h-17v23h15c36 0 69 25 87 78l29 86l-186 508h28l171 -474h1l168 474h27zM288 614v36h38v-36h-38zM94 614v36h38v-36h-38z" />
    <glyph glyph-name="Amacron" unicode="&#x100;" horiz-adv-x="578" 
d="M164 764v24h248v-24h-248zM529 0l-61 175h-358l-62 -175h-30l253 696h36l253 -696h-31zM290 670h-2l-169 -470h340z" />
    <glyph glyph-name="amacron" unicode="&#x101;" horiz-adv-x="465" 
d="M387 60h-2c-37 -59 -111 -67 -179 -67c-87 0 -174 40 -174 140c0 82 55 135 160 135h195v78c0 83 -39 133 -158 133c-43 0 -99 -8 -148 -51l-16 17c42 38 96 56 167 56c99 0 180 -28 180 -150v-351h-25v60zM387 246h-190c-86 0 -140 -35 -140 -113s63 -118 153 -118
c64 0 177 19 177 112v119zM120 590v24h248v-24h-248z" />
    <glyph glyph-name="Abreve" unicode="&#x102;" horiz-adv-x="578" 
d="M289 752c50 0 89 33 97 78h22c-8 -49 -46 -101 -119 -101s-112 52 -119 101h21c8 -45 51 -78 98 -78zM529 0l-61 175h-358l-62 -175h-30l253 696h36l253 -696h-31zM290 670h-2l-169 -470h340z" />
    <glyph glyph-name="abreve" unicode="&#x103;" horiz-adv-x="465" 
d="M387 60h-2c-37 -59 -111 -67 -179 -67c-87 0 -174 40 -174 140c0 82 55 135 160 135h195v78c0 83 -39 133 -158 133c-43 0 -99 -8 -148 -51l-16 17c42 38 96 56 167 56c99 0 180 -28 180 -150v-351h-25v60zM387 246h-190c-86 0 -140 -35 -140 -113s63 -118 153 -118
c64 0 177 19 177 112v119zM245 585c42 0 81 16 97 78h22c-8 -49 -46 -101 -119 -101s-112 52 -119 101h22c10 -52 55 -78 97 -78z" />
    <glyph glyph-name="Aogonek" unicode="&#x104;" horiz-adv-x="578" 
d="M484 -93c0 25 12 64 44 94l-60 174h-358l-62 -175h-30l253 696h36l253 -696h-8c-25 -28 -42 -67 -42 -90c0 -40 25 -57 58 -57c17 0 37 4 58 15l9 -18c-16 -10 -43 -20 -71 -20c-51 0 -80 36 -80 77zM290 670h-2l-169 -470h340z" />
    <glyph glyph-name="aogonek" unicode="&#x105;" horiz-adv-x="465" 
d="M344 -93c0 25 12 63 43 93v60h-2c-37 -59 -111 -67 -179 -67c-87 0 -174 40 -174 140c0 82 55 135 160 135h195v78c0 83 -39 133 -158 133c-43 0 -99 -8 -148 -51l-16 17c42 38 96 56 167 56c99 0 180 -28 180 -150v-351c-25 -28 -42 -67 -42 -90c0 -40 25 -57 58 -57
c17 0 37 4 58 15l9 -18c-16 -10 -43 -20 -71 -20c-51 0 -80 36 -80 77zM387 246h-190c-86 0 -140 -35 -140 -113s63 -118 153 -118c64 0 177 19 177 112v119z" />
    <glyph glyph-name="Cacute" unicode="&#x106;" horiz-adv-x="520" 
d="M242 724l-11 13l129 101l24 -26zM480 139l22 -9c-34 -82 -111 -137 -212 -137c-164 0 -237 115 -237 250v215c0 131 78 243 237 243c99 0 173 -49 208 -122l-22 -13c-30 64 -96 112 -185 112c-143 0 -212 -99 -212 -222v-218c0 -120 69 -223 212 -223
c92 0 153 48 189 124z" />
    <glyph glyph-name="cacute" unicode="&#x107;" horiz-adv-x="405" 
d="M249 -7c-109 0 -218 66 -218 254s109 254 218 254c53 0 99 -18 136 -47l-15 -19c-28 23 -71 45 -115 45c-127 0 -199 -85 -199 -233s72 -234 199 -234c44 0 87 23 115 45l15 -17c-37 -29 -83 -48 -136 -48zM230 569l-15 8l82 142l32 -16z" />
    <glyph glyph-name="Ccircumflex" unicode="&#x108;" horiz-adv-x="520" 
d="M411 726l-122 82l-123 -83l-12 13l122 100h29l118 -100zM480 139l22 -9c-34 -82 -111 -137 -212 -137c-164 0 -237 115 -237 250v215c0 131 78 243 237 243c99 0 173 -49 208 -122l-22 -13c-30 64 -96 112 -185 112c-143 0 -212 -99 -212 -222v-218
c0 -120 69 -223 212 -223c92 0 153 48 189 124z" />
    <glyph glyph-name="ccircumflex" unicode="&#x109;" horiz-adv-x="405" 
d="M249 -7c-109 0 -218 66 -218 254s109 254 218 254c53 0 99 -18 136 -47l-15 -19c-28 23 -71 45 -115 45c-127 0 -199 -85 -199 -233s72 -234 199 -234c44 0 87 23 115 45l15 -17c-37 -29 -83 -48 -136 -48zM355 559l-122 92l-123 -93l-12 13l122 110h29l118 -110z" />
    <glyph glyph-name="Cdotaccent" unicode="&#x10a;" horiz-adv-x="520" 
d="M480 139l22 -9c-34 -82 -111 -137 -212 -137c-164 0 -237 115 -237 250v215c0 131 78 243 237 243c99 0 173 -49 208 -122l-22 -13c-30 64 -96 112 -185 112c-143 0 -212 -99 -212 -222v-218c0 -120 69 -223 212 -223c92 0 153 48 189 124zM268 764v36h38v-36h-38z" />
    <glyph glyph-name="cdotaccent" unicode="&#x10b;" horiz-adv-x="405" 
d="M249 -7c-109 0 -218 66 -218 254s109 254 218 254c53 0 99 -18 136 -47l-15 -19c-28 23 -71 45 -115 45c-127 0 -199 -85 -199 -233s72 -234 199 -234c44 0 87 23 115 45l15 -17c-37 -29 -83 -48 -136 -48zM223 614v36h38v-36h-38z" />
    <glyph glyph-name="Ccaron" unicode="&#x10c;" horiz-adv-x="520" 
d="M286 756l122 82l12 -12l-118 -100h-29l-122 100l12 13zM480 139l22 -9c-34 -82 -111 -137 -212 -137c-164 0 -237 115 -237 250v215c0 131 78 243 237 243c99 0 173 -49 208 -122l-22 -13c-30 64 -96 112 -185 112c-143 0 -212 -99 -212 -222v-218
c0 -120 69 -223 212 -223c92 0 153 48 189 124z" />
    <glyph glyph-name="ccaron" unicode="&#x10d;" horiz-adv-x="405" 
d="M249 -7c-109 0 -218 66 -218 254s109 254 218 254c53 0 99 -18 136 -47l-15 -19c-28 23 -71 45 -115 45c-127 0 -199 -85 -199 -233s72 -234 199 -234c44 0 87 23 115 45l15 -17c-37 -29 -83 -48 -136 -48zM241 589l122 92l12 -12l-118 -110h-29l-122 110l12 13z" />
    <glyph glyph-name="Dcaron" unicode="&#x10e;" horiz-adv-x="600" 
d="M266 756l122 82l12 -12l-118 -100h-29l-122 100l12 13zM80 696h222c105 0 177 -36 218 -124c22 -47 24 -123 24 -211c0 -101 -1 -176 -23 -229c-41 -98 -118 -132 -231 -132h-210v696zM518 271v148c0 191 -86 253 -224 253h-187v-648h187c171 0 224 106 224 247z" />
    <glyph glyph-name="dcaron" unicode="&#x10f;" horiz-adv-x="505" 
d="M478 585h-17l23 93h-10v44h39v-47zM404 0h-24v102h-1c-48 -100 -118 -109 -170 -109c-142 0 -181 114 -181 258c0 121 37 249 190 249c95 0 136 -56 161 -105h1v326h24v-721zM380 244c0 131 -47 235 -161 235c-142 0 -165 -130 -165 -232c0 -96 14 -233 161 -233
c138 0 165 139 165 230z" />
    <glyph glyph-name="Dcroat" unicode="&#x110;" horiz-adv-x="600" 
d="M16 365v23h64v308h222c105 0 177 -36 218 -124c22 -47 24 -123 24 -211c0 -101 -1 -176 -23 -229c-41 -98 -118 -132 -231 -132h-210v365h-64zM518 271v148c0 191 -86 253 -224 253h-187v-284h172v-23h-172v-341h187c171 0 224 106 224 247z" />
    <glyph glyph-name="dcroat" unicode="&#x111;" horiz-adv-x="450" 
d="M232 586v20h148v115h24v-115h57v-20h-57v-586h-24v102h-1c-48 -100 -118 -109 -170 -109c-142 0 -181 114 -181 258c0 121 37 249 190 249c95 0 136 -56 161 -105h1v191h-148zM380 244c0 131 -47 235 -161 235c-142 0 -165 -130 -165 -232c0 -96 14 -233 161 -233
c138 0 165 139 165 230z" />
    <glyph glyph-name="Emacron" unicode="&#x112;" horiz-adv-x="520" 
d="M165 764v24h248v-24h-248zM80 0v696h413v-24h-386v-306h330v-24h-330v-318h386v-24h-413z" />
    <glyph glyph-name="emacron" unicode="&#x113;" horiz-adv-x="465" 
d="M66 251c-1 -128 42 -238 186 -238c43 0 87 15 122 39l15 -18c-40 -28 -86 -41 -135 -41c-99 0 -211 42 -211 252c0 204 106 256 197 256c141 0 192 -107 192 -230v-20h-366zM241 480c-106 0 -167 -76 -173 -208h338c-5 141 -66 208 -165 208zM117 590v24h248v-24h-248z
" />
    <glyph glyph-name="Ebreve" unicode="&#x114;" horiz-adv-x="520" 
d="M284 752c50 0 89 33 97 78h22c-8 -49 -46 -101 -119 -101s-112 52 -119 101h21c8 -45 51 -78 98 -78zM80 0v696h413v-24h-386v-306h330v-24h-330v-318h386v-24h-413z" />
    <glyph glyph-name="ebreve" unicode="&#x115;" horiz-adv-x="465" 
d="M66 251c-1 -128 42 -238 186 -238c43 0 87 15 122 39l15 -18c-40 -28 -86 -41 -135 -41c-99 0 -211 42 -211 252c0 204 106 256 197 256c141 0 192 -107 192 -230v-20h-366zM241 480c-106 0 -167 -76 -173 -208h338c-5 141 -66 208 -165 208zM237 585c42 0 81 16 97 78
h22c-8 -49 -46 -101 -119 -101s-112 52 -119 101h22c10 -52 55 -78 97 -78z" />
    <glyph glyph-name="Edotaccent" unicode="&#x116;" horiz-adv-x="520" 
d="M80 0v696h413v-24h-386v-306h330v-24h-330v-318h386v-24h-413zM263 764v36h38v-36h-38z" />
    <glyph glyph-name="edotaccent" unicode="&#x117;" horiz-adv-x="465" 
d="M66 251c-1 -128 42 -238 186 -238c43 0 87 15 122 39l15 -18c-40 -28 -86 -41 -135 -41c-99 0 -211 42 -211 252c0 204 106 256 197 256c141 0 192 -107 192 -230v-20h-366zM241 480c-106 0 -167 -76 -173 -208h338c-5 141 -66 208 -165 208zM222 614v36h38v-36h-38z" />
    <glyph glyph-name="Eogonek" unicode="&#x118;" horiz-adv-x="520" 
d="M80 0v696h413v-24h-386v-306h330v-24h-330v-318h386v-24c-25 -28 -42 -67 -42 -90c0 -40 25 -57 58 -57c17 0 37 4 58 15l9 -18c-16 -10 -43 -20 -71 -20c-51 0 -80 36 -80 77c0 25 12 63 43 93h-388z" />
    <glyph glyph-name="eogonek" unicode="&#x119;" horiz-adv-x="465" 
d="M315 -63c0 19 7 46 24 70c-27 -9 -56 -14 -85 -14c-99 0 -211 42 -211 252c0 204 106 256 197 256c141 0 192 -107 192 -230v-20h-366c-1 -128 42 -238 186 -238c43 0 87 15 122 39l15 -18c-2 -2 -4 -3 -6 -4c-25 -28 -42 -67 -42 -90c0 -40 25 -57 58 -57
c17 0 37 4 58 15l9 -18c-16 -10 -43 -20 -71 -20c-51 0 -80 36 -80 77zM241 480c-106 0 -167 -76 -173 -208h338c-5 141 -66 208 -165 208z" />
    <glyph glyph-name="Ecaron" unicode="&#x11a;" horiz-adv-x="520" 
d="M282 756l122 82l12 -12l-118 -100h-29l-122 100l12 13zM80 0v696h413v-24h-386v-306h330v-24h-330v-318h386v-24h-413z" />
    <glyph glyph-name="ecaron" unicode="&#x11b;" horiz-adv-x="465" 
d="M66 251c-1 -128 42 -238 186 -238c43 0 87 15 122 39l15 -18c-40 -28 -86 -41 -135 -41c-99 0 -211 42 -211 252c0 204 106 256 197 256c141 0 192 -107 192 -230v-20h-366zM241 480c-106 0 -167 -76 -173 -208h338c-5 141 -66 208 -165 208zM244 589l122 92l12 -12
l-118 -110h-29l-122 110l12 13z" />
    <glyph glyph-name="Gcircumflex" unicode="&#x11c;" horiz-adv-x="578" 
d="M410 726l-122 82l-123 -83l-12 13l122 100h29l118 -100zM288 701c99 0 173 -49 208 -122c-7 -5 -14 -8 -22 -13c-30 64 -96 112 -185 112c-143 0 -212 -99 -212 -222v-218c0 -120 69 -223 212 -223c132 0 210 102 210 214v89h-163v24h189v-100c0 -137 -85 -249 -237 -249
c-164 0 -237 115 -237 250v215c0 131 78 243 237 243z" />
    <glyph glyph-name="gcircumflex" unicode="&#x11d;" horiz-adv-x="491" 
d="M426 496v-493c0 -151 -94 -207 -204 -207c-42 0 -89 13 -126 41l15 19c30 -21 68 -38 111 -38c108 0 180 61 180 172v117h-1c-29 -64 -75 -112 -164 -112c-153 0 -188 130 -188 252c0 138 52 254 189 254c59 0 121 -15 163 -105h1v100h24zM402 252c0 91 -30 227 -161 227
c-144 0 -166 -136 -166 -232c0 -103 25 -231 166 -231c111 0 161 105 161 236zM359 559l-122 92l-123 -93l-12 13l122 110h29l118 -110z" />
    <glyph glyph-name="Gbreve" unicode="&#x11e;" horiz-adv-x="578" 
d="M289 752c50 0 89 33 97 78h22c-8 -49 -46 -101 -119 -101s-112 52 -119 101h21c8 -45 51 -78 98 -78zM288 701c99 0 173 -49 208 -122c-7 -5 -14 -8 -22 -13c-30 64 -96 112 -185 112c-143 0 -212 -99 -212 -222v-218c0 -120 69 -223 212 -223c132 0 210 102 210 214v89
h-163v24h189v-100c0 -137 -85 -249 -237 -249c-164 0 -237 115 -237 250v215c0 131 78 243 237 243z" />
    <glyph glyph-name="gbreve" unicode="&#x11f;" horiz-adv-x="491" 
d="M426 496v-493c0 -151 -94 -207 -204 -207c-42 0 -89 13 -126 41l15 19c30 -21 68 -38 111 -38c108 0 180 61 180 172v117h-1c-29 -64 -75 -112 -164 -112c-153 0 -188 130 -188 252c0 138 52 254 189 254c59 0 121 -15 163 -105h1v100h24zM402 252c0 91 -30 227 -161 227
c-144 0 -166 -136 -166 -232c0 -103 25 -231 166 -231c111 0 161 105 161 236zM245 585c42 0 81 16 97 78h22c-8 -49 -46 -101 -119 -101s-112 52 -119 101h22c10 -52 55 -78 97 -78z" />
    <glyph glyph-name="Gdotaccent" unicode="&#x120;" horiz-adv-x="578" 
d="M288 701c99 0 173 -49 208 -122c-7 -5 -14 -8 -22 -13c-30 64 -96 112 -185 112c-143 0 -212 -99 -212 -222v-218c0 -120 69 -223 212 -223c132 0 210 102 210 214v89h-163v24h189v-100c0 -137 -85 -249 -237 -249c-164 0 -237 115 -237 250v215c0 131 78 243 237 243z
M280 764v36h38v-36h-38z" />
    <glyph glyph-name="gdotaccent" unicode="&#x121;" horiz-adv-x="491" 
d="M426 496v-493c0 -151 -94 -207 -204 -207c-42 0 -89 13 -126 41l15 19c30 -21 68 -38 111 -38c108 0 180 61 180 172v117h-1c-29 -64 -75 -112 -164 -112c-153 0 -188 130 -188 252c0 138 52 254 189 254c59 0 121 -15 163 -105h1v100h24zM402 252c0 91 -30 227 -161 227
c-144 0 -166 -136 -166 -232c0 -103 25 -231 166 -231c111 0 161 105 161 236zM235 614v36h38v-36h-38z" />
    <glyph glyph-name="Gcommaaccent" unicode="&#x122;" horiz-adv-x="578" 
d="M277 -226h-17l23 93h-10v44h39v-47zM288 701c99 0 173 -49 208 -122c-7 -5 -14 -8 -22 -13c-30 64 -96 112 -185 112c-143 0 -212 -99 -212 -222v-218c0 -120 69 -223 212 -223c132 0 210 102 210 214v89h-163v24h189v-100c0 -137 -85 -249 -237 -249
c-164 0 -237 115 -237 250v215c0 131 78 243 237 243z" />
    <glyph glyph-name="gcommaaccent" unicode="&#x123;" horiz-adv-x="491" 
d="M276 722h17l-23 -93h10v-44h-39v47zM426 496v-493c0 -151 -94 -207 -204 -207c-42 0 -89 13 -126 41l15 19c30 -21 68 -38 111 -38c108 0 180 61 180 172v117h-1c-29 -64 -75 -112 -164 -112c-153 0 -188 130 -188 252c0 138 52 254 189 254c59 0 121 -15 163 -105h1v100
h24zM402 252c0 91 -30 227 -161 227c-144 0 -166 -136 -166 -232c0 -103 25 -231 166 -231c111 0 161 105 161 236z" />
    <glyph glyph-name="Hcircumflex" unicode="&#x124;" horiz-adv-x="619" 
d="M427 726l-122 82l-123 -83l-12 13l122 100h29l118 -100zM513 0v342h-407v-342h-26v696h26v-330h407v330h26v-696h-26z" />
    <glyph glyph-name="hcircumflex" unicode="&#x125;" horiz-adv-x="509" 
d="M204 726l-122 82l-123 -83l-12 13l122 100h29l118 -100zM417 0v327c0 100 -58 151 -154 151c-94 0 -171 -73 -171 -176v-302h-24v721h24v-323h2c33 73 111 102 171 102c119 0 176 -63 176 -166v-334h-24z" />
    <glyph glyph-name="Hbar" unicode="&#x126;" horiz-adv-x="619" 
d="M513 0v342h-407v-342h-26v575h-58v20h58v101h26v-101h407v101h26v-101h61v-20h-61v-575h-26zM106 366h407v209h-407v-209z" />
    <glyph glyph-name="hbar" unicode="&#x127;" horiz-adv-x="501" 
d="M13 594v23h59v104h24v-104h243v-23h-243v-208h2c33 73 111 102 171 102c119 0 176 -63 176 -166v-322h-24v315c0 100 -58 151 -154 151c-94 0 -171 -73 -171 -176v-290h-24v594h-59z" />
    <glyph glyph-name="Itilde" unicode="&#x128;" horiz-adv-x="239" 
d="M104 0v696h26v-696h-26zM65 809c39 0 88 -40 121 -40c21 0 34 12 53 39l20 -12c-23 -40 -47 -54 -74 -54c-36 0 -85 40 -122 40c-26 0 -45 -15 -64 -38l-19 12c24 34 54 53 85 53z" />
    <glyph glyph-name="Imacron" unicode="&#x12a;" horiz-adv-x="208" 
d="M-20 764v24h248v-24h-248zM91 0v696h26v-696h-26z" />
    <glyph glyph-name="Ibreve" unicode="&#x12c;" horiz-adv-x="271" 
d="M145 752c50 0 89 33 97 78h22c-8 -49 -46 -101 -119 -101s-112 52 -119 101h21c8 -45 51 -78 98 -78zM132 0v696h26v-696h-26z" />
    <glyph glyph-name="Iogonek" unicode="&#x12e;" horiz-adv-x="198" 
d="M43 -93c0 25 12 63 43 93v696h26v-696h-1c-25 -28 -42 -67 -42 -90c0 -40 25 -57 58 -57c17 0 37 4 58 15l9 -18c-16 -10 -43 -20 -71 -20c-51 0 -80 36 -80 77z" />
    <glyph glyph-name="iogonek" unicode="&#x12f;" horiz-adv-x="186" 
d="M38 -93c0 25 12 63 43 93v496h25v-496c-25 -28 -42 -67 -42 -90c0 -40 25 -57 58 -57c17 0 37 4 58 15l9 -18c-16 -10 -43 -20 -71 -20c-51 0 -80 36 -80 77zM76 665v32h33v-32h-33z" />
    <glyph glyph-name="Idotaccent" unicode="&#x130;" horiz-adv-x="198" 
d="M86 0v696h26v-696h-26zM78 764v36h38v-36h-38z" />
    <glyph glyph-name="IJ" unicode="&#x132;" horiz-adv-x="601" 
d="M87 0v696h26v-696h-26zM329 -6c-47 0 -100 16 -136 46l16 20c41 -32 84 -41 121 -41c96 0 164 49 164 190v487h26v-506c0 -134 -85 -196 -191 -196z" />
    <glyph glyph-name="ij" unicode="&#x133;" horiz-adv-x="340" 
d="M77 665v32h33v-32h-33zM107 0h-25v496h25v-496zM225 666v31h34v-31h-34zM143 -204h-17v23h17c60 4 86 37 86 105v571h26v-576c0 -70 -34 -123 -112 -123z" />
    <glyph glyph-name="Jcircumflex" unicode="&#x134;" horiz-adv-x="439" 
d="M478 728l-122 82l-123 -83l-12 13l122 100h29l118 -100zM177 -5c-47 0 -100 16 -136 46l16 20c41 -32 84 -41 121 -41c96 0 164 49 164 190v487h26v-506c0 -134 -85 -196 -191 -196z" />
    <glyph glyph-name="jcircumflex" unicode="&#x135;" horiz-adv-x="229" 
d="M16 -204h-17v23h17c60 4 86 37 86 105v571h26v-576c0 -70 -34 -123 -112 -123zM237 559l-122 92l-123 -93l-12 13l122 110h29l118 -110z" />
    <glyph glyph-name="Kcommaaccent" unicode="&#x136;" horiz-adv-x="600" 
d="M272 -206h-17l23 93h-10v44h39v-47zM538 0l-243 414l-189 -233v-181h-26v696h26v-477l388 477h28l-210 -262l254 -434h-28z" />
    <glyph glyph-name="kcommaaccent" unicode="&#x137;" horiz-adv-x="465" 
d="M240 -226h-17l23 93h-10v44h39v-47zM433 0l-194 301l-142 -164v-137h-24v721h24v-549l287 324h30l-158 -180l204 -316h-27z" />
    <glyph glyph-name="kgreenlandic" unicode="&#x138;" horiz-adv-x="465" 
d="M434 0l-195 301l-142 -164v-137h-24v496h24v-324l287 324h30l-158 -180l208 -316h-30z" />
    <glyph glyph-name="Lacute" unicode="&#x139;" horiz-adv-x="520" 
d="M92 724l-11 13l129 101l24 -26zM80 0v696h26v-672h387v-24h-413z" />
    <glyph glyph-name="lacute" unicode="&#x13a;" horiz-adv-x="206" 
d="M85 744l-11 13l129 101l24 -26zM179 0c-70 0 -106 25 -106 97v624h25v-615c0 -58 21 -81 82 -81h7v-25h-8z" />
    <glyph glyph-name="Lcommaaccent" unicode="&#x13b;" horiz-adv-x="520" 
d="M277 -226h-17l23 93h-10v44h39v-47zM80 0v696h26v-672h387v-24h-413z" />
    <glyph glyph-name="lcommaaccent" unicode="&#x13c;" horiz-adv-x="206" 
d="M104 -226h-17l23 93h-10v44h39v-47zM179 0c-70 0 -106 25 -106 97v624h25v-615c0 -58 21 -81 82 -81h7v-25h-8z" />
    <glyph glyph-name="Lcaron" unicode="&#x13d;" horiz-adv-x="520" 
d="M348 559h-17l23 93h-10v44h39v-47zM80 0v696h26v-672h387v-24h-413z" />
    <glyph glyph-name="lcaron" unicode="&#x13e;" horiz-adv-x="233" 
d="M189 584h-17l23 93h-10v44h39v-47zM179 0c-70 0 -106 25 -106 97v624h25v-615c0 -58 21 -81 82 -81h7v-25h-8z" />
    <glyph glyph-name="Ldot" unicode="&#x13f;" horiz-adv-x="520" 
d="M80 0v696h26v-672h387v-24h-413zM281 364v36h38v-36h-38z" />
    <glyph glyph-name="ldot" unicode="&#x140;" horiz-adv-x="239" 
d="M188 364v36h38v-36h-38zM179 0c-70 0 -106 25 -106 97v624h25v-615c0 -58 21 -81 82 -81h7v-25h-8z" />
    <glyph glyph-name="Lslash" unicode="&#x141;" horiz-adv-x="538" 
d="M98 0v280l-86 -49l-12 20l98 56v389h26v-374l136 79l12 -20l-148 -86v-271h387v-24h-413z" />
    <glyph glyph-name="lslash" unicode="&#x142;" horiz-adv-x="249" 
d="M13 286l-12 20l103 59v356h25v-341l108 62l12 -20l-120 -69v-247c0 -58 21 -81 82 -81h7v-25h-8c-70 0 -106 25 -106 97v241z" />
    <glyph glyph-name="Nacute" unicode="&#x143;" horiz-adv-x="658" 
d="M272 724l-11 13l129 101l24 -26zM549 0l-440 653v-653h-26v696h29l440 -654v654h26v-696h-29z" />
    <glyph glyph-name="nacute" unicode="&#x144;" horiz-adv-x="500" 
d="M412 0v327c0 100 -58 151 -154 151c-94 0 -171 -73 -171 -176v-302h-24v494h24v-96h2c33 73 111 102 171 102c119 0 176 -63 176 -166v-334h-24zM237 569l-15 8l82 142l32 -16z" />
    <glyph glyph-name="Ncommaaccent" unicode="&#x145;" horiz-adv-x="658" 
d="M310 -186h-17l23 93h-10v44h39v-47zM549 0l-440 653v-653h-26v696h29l440 -654v654h26v-696h-29z" />
    <glyph glyph-name="ncommaaccent" unicode="&#x146;" horiz-adv-x="500" 
d="M233 -226h-17l23 93h-10v44h39v-47zM412 0v327c0 100 -58 151 -154 151c-94 0 -171 -73 -171 -176v-302h-24v494h24v-96h2c33 73 111 102 171 102c119 0 176 -63 176 -166v-334h-24z" />
    <glyph glyph-name="Ncaron" unicode="&#x147;" horiz-adv-x="658" 
d="M329 756l122 82l12 -12l-118 -100h-29l-122 100l12 13zM549 0l-440 653v-653h-26v696h29l440 -654v654h26v-696h-29z" />
    <glyph glyph-name="ncaron" unicode="&#x148;" horiz-adv-x="500" 
d="M412 0v327c0 100 -58 151 -154 151c-94 0 -171 -73 -171 -176v-302h-24v494h24v-96h2c33 73 111 102 171 102c119 0 176 -63 176 -166v-334h-24zM237 589l122 92l12 -12l-118 -110h-29l-122 110l12 13z" />
    <glyph glyph-name="napostrophe" unicode="&#x149;" horiz-adv-x="539" 
d="M29 501h-17l23 93h-10v44h39v-47zM451 0v327c0 100 -58 151 -154 151c-94 0 -171 -73 -171 -176v-302h-24v494h24v-96h2c33 73 111 102 171 102c119 0 176 -63 176 -166v-334h-24z" />
    <glyph glyph-name="Eng" unicode="&#x14a;" horiz-adv-x="673" 
d="M492 -141c36 0 60 24 60 65v72l-443 657v-653h-26v696h29l440 -654v654h26v-763c0 -70 -39 -98 -83 -98c-28 0 -51 8 -70 21l10 21c20 -12 40 -18 57 -18z" />
    <glyph glyph-name="eng" unicode="&#x14b;" horiz-adv-x="500" 
d="M411 327c0 100 -59 151 -155 151c-95 0 -169 -69 -169 -172v-306h-24v496h24v-92h2c32 73 109 96 168 96c116 0 179 -63 179 -166v-401c0 -70 -38 -98 -82 -98c-28 0 -51 8 -70 21l10 21c20 -12 40 -18 57 -18c36 0 60 24 60 65v403z" />
    <glyph glyph-name="Omacron" unicode="&#x14c;" horiz-adv-x="559" 
d="M161 764v24h248v-24h-248zM280 701c147 0 233 -101 233 -243v-215c0 -153 -88 -250 -233 -250c-164 0 -237 115 -237 250v215c0 131 78 243 237 243zM281 676c-141 0 -211 -99 -211 -220v-218c0 -118 70 -221 211 -221c128 0 205 94 205 227v212c0 125 -76 220 -205 220z
" />
    <glyph glyph-name="omacron" unicode="&#x14d;" horiz-adv-x="477" 
d="M241 501c71 0 126 -28 159 -79c21 -33 36 -80 36 -178c0 -102 -25 -160 -57 -195c-33 -36 -81 -55 -143 -55c-58 0 -101 17 -132 47c-39 39 -63 101 -63 210c0 107 29 168 70 204c32 28 75 46 130 46zM240 479c-51 0 -91 -19 -119 -48c-33 -34 -55 -82 -55 -183
c0 -102 22 -154 56 -189c28 -28 68 -44 117 -44c50 0 93 19 121 48c30 32 51 78 51 182c0 98 -15 139 -34 166c-29 42 -78 68 -137 68zM121 590v24h248v-24h-248z" />
    <glyph glyph-name="Obreve" unicode="&#x14e;" horiz-adv-x="559" 
d="M284 752c50 0 89 33 97 78h22c-8 -49 -46 -101 -119 -101s-112 52 -119 101h21c8 -45 51 -78 98 -78zM280 701c147 0 233 -101 233 -243v-215c0 -153 -88 -250 -233 -250c-164 0 -237 115 -237 250v215c0 131 78 243 237 243zM281 676c-141 0 -211 -99 -211 -220v-218
c0 -118 70 -221 211 -221c128 0 205 94 205 227v212c0 125 -76 220 -205 220z" />
    <glyph glyph-name="obreve" unicode="&#x14f;" horiz-adv-x="477" 
d="M241 501c71 0 126 -28 159 -79c21 -33 36 -80 36 -178c0 -102 -25 -160 -57 -195c-33 -36 -81 -55 -143 -55c-58 0 -101 17 -132 47c-39 39 -63 101 -63 210c0 107 29 168 70 204c32 28 75 46 130 46zM240 479c-51 0 -91 -19 -119 -48c-33 -34 -55 -82 -55 -183
c0 -102 22 -154 56 -189c28 -28 68 -44 117 -44c50 0 93 19 121 48c30 32 51 78 51 182c0 98 -15 139 -34 166c-29 42 -78 68 -137 68zM236 585c42 0 81 16 97 78h22c-8 -49 -46 -101 -119 -101s-112 52 -119 101h22c10 -52 55 -78 97 -78z" />
    <glyph glyph-name="Ohungarumlaut" unicode="&#x150;" horiz-adv-x="559" 
d="M315 724l-11 13l129 101l24 -26zM215 724l-11 13l129 101l24 -26zM280 701c147 0 233 -101 233 -243v-215c0 -153 -88 -250 -233 -250c-164 0 -237 115 -237 250v215c0 131 78 243 237 243zM281 676c-141 0 -211 -99 -211 -220v-218c0 -118 70 -221 211 -221
c128 0 205 94 205 227v212c0 125 -76 220 -205 220z" />
    <glyph glyph-name="ohungarumlaut" unicode="&#x151;" horiz-adv-x="477" 
d="M241 501c71 0 126 -28 159 -79c21 -33 36 -80 36 -178c0 -102 -25 -160 -57 -195c-33 -36 -81 -55 -143 -55c-58 0 -101 17 -132 47c-39 39 -63 101 -63 210c0 107 29 168 70 204c32 28 75 46 130 46zM240 479c-51 0 -91 -19 -119 -48c-33 -34 -55 -82 -55 -183
c0 -102 22 -154 56 -189c28 -28 68 -44 117 -44c50 0 93 19 121 48c30 32 51 78 51 182c0 98 -15 139 -34 166c-29 42 -78 68 -137 68zM204 569l-15 8l82 142l32 -16zM291 569l-15 8l82 142l32 -16z" />
    <glyph glyph-name="Racute" unicode="&#x154;" horiz-adv-x="578" 
d="M222 724l-11 13l129 101l24 -26zM497 0l-166 331h-223v-331h-26v696h260c117 0 197 -63 197 -175c0 -102 -68 -178 -178 -189l169 -332h-33zM332 672h-224v-316h221c102 0 181 56 181 165s-90 151 -178 151z" />
    <glyph glyph-name="racute" unicode="&#x155;" horiz-adv-x="327" 
d="M324 467c-23 9 -47 12 -64 12c-95 0 -163 -70 -163 -173v-306h-24v496h24v-96h2c34 78 103 101 162 101c26 0 51 -3 70 -9zM154 569l-15 8l82 142l32 -16z" />
    <glyph glyph-name="Rcommaaccent" unicode="&#x156;" horiz-adv-x="578" 
d="M277 -206h-17l23 93h-10v44h39v-47zM497 0l-166 331h-223v-331h-26v696h260c117 0 197 -63 197 -175c0 -102 -68 -178 -178 -189l169 -332h-33zM332 672h-224v-316h221c102 0 181 56 181 165s-90 151 -178 151z" />
    <glyph glyph-name="rcommaaccent" unicode="&#x157;" horiz-adv-x="327" 
d="M75 -226h-17l23 93h-10v44h39v-47zM324 467c-23 9 -47 12 -64 12c-95 0 -163 -70 -163 -173v-306h-24v496h24v-96h2c34 78 103 101 162 101c26 0 51 -3 70 -9z" />
    <glyph glyph-name="Rcaron" unicode="&#x158;" horiz-adv-x="578" 
d="M272 756l122 82l12 -12l-118 -100h-29l-122 100l12 13zM497 0l-166 331h-223v-331h-26v696h260c117 0 197 -63 197 -175c0 -102 -68 -178 -178 -189l169 -332h-33zM332 672h-224v-316h221c102 0 181 56 181 165s-90 151 -178 151z" />
    <glyph glyph-name="rcaron" unicode="&#x159;" horiz-adv-x="327" 
d="M324 467c-23 9 -47 12 -64 12c-95 0 -163 -70 -163 -173v-306h-24v496h24v-96h2c34 78 103 101 162 101c26 0 51 -3 70 -9zM175 589l122 92l12 -12l-118 -110h-29l-122 110l12 13z" />
    <glyph glyph-name="Sacute" unicode="&#x15a;" horiz-adv-x="523" 
d="M212 724l-11 13l129 101l24 -26zM259 -6c-87 0 -160 20 -229 65l15 22c63 -40 138 -63 216 -63c116 0 207 53 207 158c0 128 -114 156 -200 172c-100 19 -202 46 -202 169c0 109 76 185 211 185c68 0 134 -17 187 -46l-13 -23c-53 28 -114 45 -176 45
c-87 0 -182 -44 -182 -161c0 -116 105 -128 182 -144c114 -24 220 -55 220 -197c0 -110 -87 -182 -236 -182z" />
    <glyph glyph-name="sacute" unicode="&#x15b;" horiz-adv-x="454" 
d="M402 128c0 -73 -59 -135 -190 -135c-70 0 -137 18 -188 55l14 20c49 -37 115 -53 183 -53c60 0 155 23 155 116c0 78 -81 104 -149 114c-96 15 -175 33 -175 119c0 85 68 137 177 137c68 0 113 -13 156 -40l-14 -21c-39 24 -84 39 -138 39c-86 0 -153 -36 -155 -111
c0 -77 76 -87 147 -99c85 -14 177 -39 177 -141zM217 569l-15 8l82 142l32 -16z" />
    <glyph glyph-name="Scircumflex" unicode="&#x15c;" horiz-adv-x="523" 
d="M381 726l-122 82l-123 -83l-12 13l122 100h29l118 -100zM259 -6c-87 0 -160 20 -229 65l15 22c63 -40 138 -63 216 -63c116 0 207 53 207 158c0 128 -114 156 -200 172c-100 19 -202 46 -202 169c0 109 76 185 211 185c68 0 134 -17 187 -46l-13 -23
c-53 28 -114 45 -176 45c-87 0 -182 -44 -182 -161c0 -116 105 -128 182 -144c114 -24 220 -55 220 -197c0 -110 -87 -182 -236 -182z" />
    <glyph glyph-name="scircumflex" unicode="&#x15d;" horiz-adv-x="454" 
d="M402 128c0 -73 -59 -135 -190 -135c-70 0 -137 18 -188 55l14 20c49 -37 115 -53 183 -53c60 0 155 23 155 116c0 78 -81 104 -149 114c-96 15 -175 33 -175 119c0 85 68 137 177 137c68 0 113 -13 156 -40l-14 -21c-39 24 -84 39 -138 39c-86 0 -153 -36 -155 -111
c0 -77 76 -87 147 -99c85 -14 177 -39 177 -141zM339 559l-122 92l-123 -93l-12 13l122 110h29l118 -110z" />
    <glyph glyph-name="Scedilla" unicode="&#x15e;" horiz-adv-x="523" 
d="M259 -6c-87 0 -160 20 -229 65l15 22c63 -40 138 -63 216 -63c116 0 207 53 207 158c0 128 -114 156 -200 172c-100 19 -202 46 -202 169c0 109 76 185 211 185c68 0 134 -17 187 -46l-13 -23c-53 28 -114 45 -176 45c-87 0 -182 -44 -182 -161c0 -116 105 -128 182 -144
c114 -24 220 -55 220 -197c0 -103 -76 -173 -208 -181l-14 -41c77 -7 91 -46 91 -73s-21 -67 -92 -67c-25 0 -45 5 -62 12l7 19c23 -8 35 -10 55 -10c29 0 66 10 66 48c0 34 -41 52 -86 52l-5 4l18 55h-6z" />
    <glyph glyph-name="scedilla" unicode="&#x15f;" horiz-adv-x="454" 
d="M402 128c0 -68 -51 -126 -164 -134l-13 -40c77 -7 91 -46 91 -73s-21 -67 -92 -67c-25 0 -45 5 -62 12l7 19c23 -8 35 -10 55 -10c29 0 66 10 66 48c0 34 -41 52 -86 52l-5 4l17 54h-4c-70 0 -137 18 -188 55l14 20c49 -37 115 -53 183 -53c60 0 155 23 155 116
c0 78 -81 104 -149 114c-96 15 -175 33 -175 119c0 85 68 137 177 137c68 0 113 -13 156 -40l-14 -21c-39 24 -84 39 -138 39c-86 0 -153 -36 -155 -111c0 -77 76 -87 147 -99c85 -14 177 -39 177 -141z" />
    <glyph glyph-name="Tcommaaccent" unicode="&#x162;" horiz-adv-x="474" 
d="M224 -226h-17l23 93h-10v44h39v-47zM252 672v-672h-25v672h-215v24h452v-24h-212z" />
    <glyph glyph-name="tcommaaccent" unicode="&#x163;" horiz-adv-x="250" 
d="M117 -226h-17l23 93h-10v44h39v-47zM228 0h-37c-61 0 -99 35 -99 100v376h-72v20h72v135h26v-135h100v-20h-100v-363c0 -57 18 -90 85 -90h25v-23z" />
    <glyph glyph-name="Tcaron" unicode="&#x164;" horiz-adv-x="474" 
d="M236 756l122 82l12 -12l-118 -100h-29l-122 100l12 13zM252 672v-672h-25v672h-215v24h452v-24h-212z" />
    <glyph glyph-name="tcaron" unicode="&#x165;" horiz-adv-x="278" 
d="M246 583h-17l23 93h-10v44h39v-47zM242 0h-37c-61 0 -99 35 -99 100v376h-72v20h72v135h26v-135h100v-20h-100v-363c0 -57 18 -90 85 -90h25v-23z" />
    <glyph glyph-name="Tbar" unicode="&#x166;" horiz-adv-x="474" 
d="M252 672v-289h159v-20h-159v-363h-25v363h-160v20h160v289h-215v24h452v-24h-212z" />
    <glyph glyph-name="tbar" unicode="&#x167;" horiz-adv-x="250" 
d="M20 273v20h72v183h-72v20h72v135h26v-135h100v-20h-100v-183h100v-20h-100v-160c0 -57 18 -90 85 -90h25v-23h-37c-61 0 -99 35 -99 100v173h-72z" />
    <glyph glyph-name="Utilde" unicode="&#x168;" horiz-adv-x="600" 
d="M300 -6c-131 0 -234 93 -234 238v464h26v-451c0 -130 84 -226 208 -226c119 0 207 81 207 215v462h27v-474c0 -137 -101 -228 -234 -228zM252 809c39 0 88 -40 121 -40c21 0 34 12 53 39l20 -12c-23 -40 -47 -54 -74 -54c-36 0 -85 40 -122 40c-26 0 -45 -15 -64 -38
l-19 12c24 34 54 53 85 53z" />
    <glyph glyph-name="utilde" unicode="&#x169;" horiz-adv-x="518" 
d="M443 0h-24v92h-2c-31 -69 -112 -97 -171 -97c-115 0 -176 70 -176 172v329h25v-327c0 -100 65 -152 152 -152c95 0 173 70 173 173v306h23v-496zM205 659c39 0 88 -40 121 -40c21 0 34 12 53 39l20 -12c-23 -40 -47 -54 -74 -54c-36 0 -85 40 -122 40
c-26 0 -45 -15 -64 -38l-19 12c24 34 54 53 85 53z" />
    <glyph glyph-name="Umacron" unicode="&#x16a;" horiz-adv-x="600" 
d="M165 764v24h248v-24h-248zM300 -6c-131 0 -234 93 -234 238v464h26v-451c0 -130 84 -226 208 -226c119 0 207 81 207 215v462h27v-474c0 -137 -101 -228 -234 -228z" />
    <glyph glyph-name="umacron" unicode="&#x16b;" horiz-adv-x="518" 
d="M443 0h-24v92h-2c-31 -69 -112 -97 -171 -97c-115 0 -176 70 -176 172v329h25v-327c0 -100 65 -152 152 -152c95 0 173 70 173 173v306h23v-496zM130 590v24h248v-24h-248z" />
    <glyph glyph-name="Ubreve" unicode="&#x16c;" horiz-adv-x="600" 
d="M300 -6c-131 0 -234 93 -234 238v464h26v-451c0 -130 84 -226 208 -226c119 0 207 81 207 215v462h27v-474c0 -137 -101 -228 -234 -228zM291 735c42 0 81 16 97 78h22c-8 -49 -46 -101 -119 -101s-112 52 -119 101h22c10 -52 55 -78 97 -78z" />
    <glyph glyph-name="ubreve" unicode="&#x16d;" horiz-adv-x="518" 
d="M443 0h-24v92h-2c-31 -69 -112 -97 -171 -97c-115 0 -176 70 -176 172v329h25v-327c0 -100 65 -152 152 -152c95 0 173 70 173 173v306h23v-496zM257 585c42 0 81 16 97 78h22c-8 -49 -46 -101 -119 -101s-112 52 -119 101h22c10 -52 55 -78 97 -78z" />
    <glyph glyph-name="Uring" unicode="&#x16e;" horiz-adv-x="600" 
d="M300 -6c-131 0 -234 93 -234 238v464h26v-451c0 -130 84 -226 208 -226c119 0 207 81 207 215v462h27v-474c0 -137 -101 -228 -234 -228zM299 719c-47 0 -86 39 -86 86c0 48 39 85 86 85c48 0 87 -37 87 -85c0 -47 -39 -86 -87 -86zM299 872c-37 0 -66 -30 -66 -67
s29 -67 66 -67c38 0 67 30 67 67s-29 67 -67 67z" />
    <glyph glyph-name="uring" unicode="&#x16f;" horiz-adv-x="518" 
d="M443 0h-24v92h-2c-31 -69 -112 -97 -171 -97c-115 0 -176 70 -176 172v329h25v-327c0 -100 65 -152 152 -152c95 0 173 70 173 173v306h23v-496zM250 557c-47 0 -86 39 -86 86c0 48 39 85 86 85c48 0 87 -37 87 -85c0 -47 -39 -86 -87 -86zM250 710
c-37 0 -66 -30 -66 -67s29 -67 66 -67c38 0 67 30 67 67s-29 67 -67 67z" />
    <glyph glyph-name="Uhungarumlaut" unicode="&#x170;" horiz-adv-x="600" 
d="M335 724l-11 13l129 101l24 -26zM235 724l-11 13l129 101l24 -26zM300 -6c-131 0 -234 93 -234 238v464h26v-451c0 -130 84 -226 208 -226c119 0 207 81 207 215v462h27v-474c0 -137 -101 -228 -234 -228z" />
    <glyph glyph-name="uhungarumlaut" unicode="&#x171;" horiz-adv-x="518" 
d="M443 0h-24v92h-2c-31 -69 -112 -97 -171 -97c-115 0 -176 70 -176 172v329h25v-327c0 -100 65 -152 152 -152c95 0 173 70 173 173v306h23v-496zM204 569l-15 8l82 142l32 -16zM291 569l-15 8l82 142l32 -16z" />
    <glyph glyph-name="Uogonek" unicode="&#x172;" horiz-adv-x="600" 
d="M255 -91c0 23 9 57 35 85c-127 5 -224 96 -224 238v464h26v-451c0 -130 84 -226 208 -226c119 0 207 81 207 215v462h27v-474c0 -132 -93 -221 -218 -227c-22 -27 -35 -62 -35 -83c0 -40 25 -57 58 -57c17 0 37 4 58 15l9 -18c-16 -10 -43 -20 -71 -20
c-51 0 -80 36 -80 77z" />
    <glyph glyph-name="uogonek" unicode="&#x173;" horiz-adv-x="518" 
d="M375 -93c0 25 12 64 44 94v91h-2c-31 -69 -112 -97 -171 -97c-115 0 -176 70 -176 172v329h25v-327c0 -100 65 -152 152 -152c95 0 173 70 173 173v306h23v-496c-25 -28 -42 -67 -42 -90c0 -40 25 -57 58 -57c17 0 37 4 58 15l9 -18c-16 -10 -43 -20 -71 -20
c-51 0 -80 36 -80 77z" />
    <glyph glyph-name="Wcircumflex" unicode="&#x174;" horiz-adv-x="802" 
d="M525 726l-122 82l-123 -83l-12 13l122 100h29l118 -100zM783 696l-168 -696h-28l-184 651h-1l-182 -651h-28l-168 696h25l157 -659h1l184 659h25l184 -659h1l156 659h26z" />
    <glyph glyph-name="wcircumflex" unicode="&#x175;" horiz-adv-x="695" 
d="M686 494l-152 -494h-28l-158 453h-1l-158 -453h-27l-153 494h28l138 -460h2l157 460h28l156 -460h2l139 460h27zM470 559l-122 92l-123 -93l-12 13l122 110h29l118 -110z" />
    <glyph glyph-name="Ycircumflex" unicode="&#x176;" horiz-adv-x="459" 
d="M352 726l-122 82l-123 -83l-12 13l122 100h29l118 -100zM242 289v-289h-25v289l-208 407h27l194 -381l193 381h26z" />
    <glyph glyph-name="ycircumflex" unicode="&#x177;" horiz-adv-x="409" 
d="M184 -115c-19 -55 -60 -86 -105 -86h-17v23h15c36 0 69 25 87 78l29 86l-186 508h28l171 -474h1l168 474h27zM335 559l-122 92l-123 -93l-12 13l122 110h29l118 -110z" />
    <glyph glyph-name="Zacute" unicode="&#x179;" horiz-adv-x="480" 
d="M218 724l-11 13l129 101l24 -26zM33 0v25l385 647h-368v24h396v-25l-384 -647h384v-24h-413z" />
    <glyph glyph-name="zacute" unicode="&#x17a;" horiz-adv-x="414" 
d="M36 0v20l314 454h-299v21h327v-20l-313 -454h313v-21h-342zM217 569l-15 8l82 142l32 -16z" />
    <glyph glyph-name="Zdotaccent" unicode="&#x17b;" horiz-adv-x="480" 
d="M33 0v25l385 647h-368v24h396v-25l-384 -647h384v-24h-413zM234 764v36h38v-36h-38z" />
    <glyph glyph-name="zdotaccent" unicode="&#x17c;" horiz-adv-x="414" 
d="M36 0v20l314 454h-299v21h327v-20l-313 -454h313v-21h-342zM200 614v36h38v-36h-38z" />
    <glyph glyph-name="AEacute" unicode="&#x1fc;" horiz-adv-x="891" 
d="M591 724l-11 13l129 101l24 -26zM451 0v175h-308l-111 -175h-31l436 696h427v-24h-386v-306h330v-24h-330v-318h386v-24h-413zM159 200h292v470z" />
    <glyph glyph-name="aeacute" unicode="&#x1fd;" horiz-adv-x="799" 
d="M411 247c-1 -128 39 -234 186 -234c43 0 86 14 122 39l15 -18c-40 -28 -86 -41 -135 -41c-74 0 -154 23 -191 121c-17 -52 -72 -121 -202 -121c-87 0 -173 34 -173 134c0 82 54 142 159 142h195v83c0 80 -44 126 -140 126c-43 0 -111 -8 -161 -46l-15 19
c55 42 126 50 171 50c89 0 155 -25 168 -119c36 92 109 119 175 119c141 0 192 -107 192 -230v-24h-366zM387 247h-187c-78 0 -142 -36 -142 -114s62 -118 152 -118c100 0 177 55 177 148v84zM586 480c-106 0 -167 -80 -173 -212h338c-5 141 -66 212 -165 212zM427 569
l-15 8l82 142l32 -16z" />
    <glyph glyph-name="Oslashacute" unicode="&#x1fe;" horiz-adv-x="559" 
d="M280 701c73 0 131 -25 171 -68l43 67l19 -12l-47 -73c30 -41 47 -95 47 -157v-215c0 -153 -88 -250 -233 -250c-79 0 -136 26 -175 69l-43 -66l-19 13l46 71c-31 44 -46 102 -46 163v215c0 131 78 243 237 243zM486 456c0 51 -13 97 -37 134l-329 -504
c35 -42 89 -69 161 -69c128 0 205 94 205 227v212zM281 676c-141 0 -211 -99 -211 -220v-218c0 -49 12 -95 36 -133l329 504c-35 42 -88 67 -154 67zM242 724l-11 13l129 101l24 -26z" />
    <glyph glyph-name="oslashacute" unicode="&#x1ff;" horiz-adv-x="477" 
d="M241 501c58 0 105 -19 138 -53l40 52l16 -13l-42 -55c2 -4 5 -7 7 -10c21 -33 36 -80 36 -178c0 -102 -25 -160 -57 -195c-33 -36 -81 -55 -143 -55c-58 0 -101 17 -132 47l-6 6l-38 -50l-17 13l41 54c-27 39 -43 97 -43 187c0 107 29 168 70 204c32 28 75 46 130 46z
M411 245c0 98 -15 139 -34 166l-263 -344c2 -3 5 -5 8 -8c28 -28 68 -44 117 -44c50 0 93 19 121 48c30 32 51 78 51 182zM240 479c-51 0 -91 -19 -119 -48c-33 -34 -55 -82 -55 -183c0 -79 13 -128 35 -163l262 342c-29 32 -72 52 -123 52zM227 569l-15 8l82 142l32 -16z
" />
    <glyph glyph-name="itilde" unicode="&#x129;" horiz-adv-x="236" 
d="M72 659c39 0 88 -40 121 -40c21 0 34 12 53 39l20 -12c-23 -40 -47 -54 -74 -54c-36 0 -85 40 -122 40c-26 0 -45 -15 -64 -38l-19 12c24 34 54 53 85 53zM135 0h-25v496h25v-496z" />
    <glyph glyph-name="imacron" unicode="&#x12b;" horiz-adv-x="215" 
d="M121 0h-25v496h25v-496zM-15 590v24h248v-24h-248z" />
    <glyph glyph-name="ibreve" unicode="&#x12d;" horiz-adv-x="233" 
d="M133 0h-25v496h25v-496zM120 591c42 0 81 16 97 78h22c-8 -49 -46 -101 -119 -101s-112 52 -119 101h22c10 -52 55 -78 97 -78z" />
    <glyph glyph-name="afii10023" unicode="&#x401;" horiz-adv-x="520" 
d="M360 753v36h38v-36h-38zM182 753v36h38v-36h-38zM80 0v696h413v-24h-386v-306h330v-24h-330v-318h386v-24h-413z" />
    <glyph glyph-name="afii10052" unicode="&#x403;" horiz-adv-x="499" 
d="M226 724l-11 13l129 101l24 -26zM109 672v-672h-29v696h413v-24h-384z" />
    <glyph glyph-name="afii10054" unicode="&#x405;" horiz-adv-x="523" 
d="M259 -6c-87 0 -160 20 -229 65l15 22c63 -40 138 -63 216 -63c116 0 207 53 207 158c0 128 -114 156 -200 172c-100 19 -202 46 -202 169c0 109 76 185 211 185c68 0 134 -17 187 -46l-13 -23c-53 28 -114 45 -176 45c-87 0 -182 -44 -182 -161c0 -116 105 -128 182 -144
c114 -24 220 -55 220 -197c0 -110 -87 -182 -236 -182z" />
    <glyph glyph-name="afii10055" unicode="&#x406;" horiz-adv-x="198" 
d="M86 0v696h26v-696h-26z" />
    <glyph glyph-name="afii10056" unicode="&#x407;" horiz-adv-x="198" 
d="M86 0v696h26v-696h-26zM178 793v36h38v-36h-38zM-16 793v36h38v-36h-38z" />
    <glyph glyph-name="afii10057" unicode="&#x408;" horiz-adv-x="439" 
d="M177 -6c-47 0 -100 16 -136 46l16 20c41 -32 84 -41 121 -41c96 0 164 49 164 190v487h26v-506c0 -134 -85 -196 -191 -196z" />
    <glyph glyph-name="afii10017" unicode="&#x410;" horiz-adv-x="578" 
d="M529 0l-61 175h-358l-62 -175h-30l253 696h36l253 -696h-31zM290 670h-2l-169 -470h340z" />
    <glyph glyph-name="afii10019" unicode="&#x412;" horiz-adv-x="578" 
d="M355 0h-275v696h249c124 0 194 -78 194 -174c0 -52 -30 -139 -123 -162v-1c103 -18 139 -109 139 -176c0 -111 -80 -183 -184 -183zM322 672h-216v-302h216c103 0 175 59 175 152c0 88 -65 150 -175 150zM335 346h-229v-322h231c115 0 173 66 173 161
c0 86 -56 161 -175 161z" />
    <glyph glyph-name="afii10020" unicode="&#x413;" horiz-adv-x="499" 
d="M109 672v-672h-29v696h413v-24h-384z" />
    <glyph glyph-name="afii10022" unicode="&#x415;" horiz-adv-x="520" 
d="M80 0v696h413v-24h-386v-306h330v-24h-330v-318h386v-24h-413z" />
    <glyph glyph-name="afii10028" unicode="&#x41a;" horiz-adv-x="561" 
d="M106 0h-26v696h26v-322h193c53 0 108 25 136 110l69 212h24l-62 -197c-21 -67 -49 -119 -103 -133c68 -14 91 -67 111 -135l67 -231h-27l-68 235c-27 93 -72 115 -132 115h-208v-350z" />
    <glyph glyph-name="afii10030" unicode="&#x41c;" horiz-adv-x="738" 
d="M642 0v639l-258 -527h-21l-259 526v-638h-25v696h28l267 -547l268 547h25v-696h-25z" />
    <glyph glyph-name="afii10031" unicode="&#x41d;" horiz-adv-x="619" 
d="M513 0v342h-407v-342h-26v696h26v-330h407v330h26v-696h-26z" />
    <glyph glyph-name="afii10032" unicode="&#x41e;" horiz-adv-x="559" 
d="M280 701c147 0 233 -101 233 -243v-215c0 -153 -88 -250 -233 -250c-164 0 -237 115 -237 250v215c0 131 78 243 237 243zM281 676c-141 0 -211 -99 -211 -220v-218c0 -118 70 -221 211 -221c128 0 205 94 205 227v212c0 125 -76 220 -205 220z" />
    <glyph glyph-name="afii10033" unicode="&#x41f;" horiz-adv-x="619" 
d="M513 0v672h-407v-672h-26v696h459v-696h-26z" />
    <glyph glyph-name="afii10034" unicode="&#x420;" horiz-adv-x="546" 
d="M82 696h245c109 0 209 -52 209 -198c0 -89 -60 -191 -201 -191h-226v-307h-27v696zM109 672v-340h221c128 0 177 85 177 169c0 116 -82 171 -181 171h-217z" />
    <glyph glyph-name="afii10035" unicode="&#x421;" horiz-adv-x="520" 
d="M480 139l22 -9c-34 -82 -111 -137 -212 -137c-164 0 -237 115 -237 250v215c0 131 78 243 237 243c99 0 173 -49 208 -122l-22 -13c-30 64 -96 112 -185 112c-143 0 -212 -99 -212 -222v-218c0 -120 69 -223 212 -223c92 0 153 48 189 124z" />
    <glyph glyph-name="afii10036" unicode="&#x422;" horiz-adv-x="474" 
d="M252 672v-672h-25v672h-215v24h452v-24h-212z" />
    <glyph glyph-name="afii10038" unicode="&#x424;" horiz-adv-x="723" 
d="M683 357c0 -213 -159 -295 -307 -298v-59h-26v60c-210 7 -304 125 -304 297c0 115 48 297 304 305v34h26v-33c210 -4 307 -132 307 -306zM656 356c0 202 -130 281 -280 283v-557c135 6 280 69 280 274zM73 356c3 -167 89 -266 277 -274v557c-156 -4 -277 -91 -277 -283z
" />
    <glyph glyph-name="afii10039" unicode="&#x425;" horiz-adv-x="489" 
d="M442 0l-198 333l-198 -333h-29l213 357l-198 339h29l183 -314l183 314h29l-198 -339l213 -357h-29z" />
    <glyph glyph-name="afii10065" unicode="&#x430;" horiz-adv-x="465" 
d="M387 60h-2c-37 -59 -111 -67 -179 -67c-87 0 -174 40 -174 140c0 82 55 135 160 135h195v78c0 83 -39 133 -158 133c-43 0 -99 -8 -148 -51l-16 17c42 38 96 56 167 56c99 0 180 -28 180 -150v-351h-25v60zM387 246h-190c-86 0 -140 -35 -140 -113s63 -118 153 -118
c64 0 177 19 177 112v119z" />
    <glyph glyph-name="afii10070" unicode="&#x435;" horiz-adv-x="465" 
d="M66 251c-1 -128 42 -238 186 -238c43 0 87 15 122 39l15 -18c-40 -28 -86 -41 -135 -41c-99 0 -211 42 -211 252c0 204 106 256 197 256c141 0 192 -107 192 -230v-20h-366zM241 480c-106 0 -167 -76 -173 -208h338c-5 141 -66 208 -165 208z" />
    <glyph glyph-name="afii10076" unicode="&#x43a;" horiz-adv-x="466" 
d="M97 0h-24v495h24v-230h156c38 0 77 16 97 76l49 154h22l-44 -143c-15 -48 -32 -84 -70 -94c47 -12 62 -48 76 -97l48 -161h-25l-48 164c-19 66 -51 80 -99 80h-162v-244z" />
    <glyph glyph-name="afii10080" unicode="&#x43e;" horiz-adv-x="477" 
d="M241 501c71 0 126 -28 159 -79c21 -33 36 -80 36 -178c0 -102 -25 -160 -57 -195c-33 -36 -81 -55 -143 -55c-58 0 -101 17 -132 47c-39 39 -63 101 -63 210c0 107 29 168 70 204c32 28 75 46 130 46zM240 479c-51 0 -91 -19 -119 -48c-33 -34 -55 -82 -55 -183
c0 -102 22 -154 56 -189c28 -28 68 -44 117 -44c50 0 93 19 121 48c30 32 51 78 51 182c0 98 -15 139 -34 166c-29 42 -78 68 -137 68z" />
    <glyph glyph-name="afii10081" unicode="&#x43f;" horiz-adv-x="493" 
d="M408 0v476h-324v-476h-24v495h373v-495h-25z" />
    <glyph glyph-name="afii10082" unicode="&#x440;" horiz-adv-x="489" 
d="M59 496h25v-98h1c43 88 112 105 166 105c145 0 184 -114 184 -258c0 -121 -43 -249 -190 -249c-89 0 -133 49 -160 105h-1v-301h-25v696zM84 252c0 -131 46 -235 161 -235c140 0 165 129 165 232c0 96 -14 233 -159 233c-138 0 -167 -139 -167 -230z" />
    <glyph glyph-name="afii10083" unicode="&#x441;" horiz-adv-x="405" 
d="M249 -7c-109 0 -218 66 -218 254s109 254 218 254c53 0 99 -18 136 -47l-15 -19c-28 23 -71 45 -115 45c-127 0 -199 -85 -199 -233s72 -234 199 -234c44 0 87 23 115 45l15 -17c-37 -29 -83 -48 -136 -48z" />
    <glyph glyph-name="afii10085" unicode="&#x443;" horiz-adv-x="409" 
d="M184 -115c-19 -55 -60 -86 -105 -86h-17v23h15c36 0 69 25 87 78l29 86l-186 508h28l171 -474h1l168 474h27z" />
    <glyph glyph-name="afii10087" unicode="&#x445;" horiz-adv-x="430" 
d="M394 0h-29l-151 238l-150 -238h-29l163 254l-154 241h29l141 -224l140 224h31l-156 -241z" />
    <glyph glyph-name="afii10071" unicode="&#x451;" horiz-adv-x="465" 
d="M66 251c-1 -128 42 -238 186 -238c43 0 87 15 122 39l15 -18c-40 -28 -86 -41 -135 -41c-99 0 -211 42 -211 252c0 204 106 256 197 256c141 0 192 -107 192 -230v-20h-366zM241 480c-106 0 -167 -76 -173 -208h338c-5 141 -66 208 -165 208zM324 621v36h38v-36h-38z
M130 621v36h38v-36h-38z" />
    <glyph glyph-name="afii10102" unicode="&#x455;" horiz-adv-x="454" 
d="M402 128c0 -73 -59 -135 -190 -135c-70 0 -137 18 -188 55l14 20c49 -37 115 -53 183 -53c60 0 155 23 155 116c0 78 -81 104 -149 114c-96 15 -175 33 -175 119c0 85 68 137 177 137c68 0 113 -13 156 -40l-14 -21c-39 24 -84 39 -138 39c-86 0 -153 -36 -155 -111
c0 -77 76 -87 147 -99c85 -14 177 -39 177 -141z" />
    <glyph glyph-name="afii10103" unicode="&#x456;" horiz-adv-x="186" 
d="M76 665v32h33v-32h-33zM106 0h-25v496h25v-496z" />
    <glyph glyph-name="afii10104" unicode="&#x457;" horiz-adv-x="186" 
d="M171 614v36h38v-36h-38zM-23 614v36h38v-36h-38zM106 0h-25v496h25v-496z" />
    <glyph glyph-name="afii10105" unicode="&#x458;" horiz-adv-x="206" 
d="M91 666v31h34v-31h-34zM9 -204h-17v23h17c60 4 86 37 86 105v571h26v-576c0 -70 -34 -123 -112 -123z" />
    <glyph glyph-name="afii10110" unicode="&#x45e;" horiz-adv-x="409" 
d="M184 -115c-19 -55 -60 -86 -105 -86h-17v23h15c36 0 69 25 87 78l29 86l-186 508h28l171 -474h1l168 474h27zM212 585c42 0 81 16 97 78h22c-8 -49 -46 -101 -119 -101s-112 52 -119 101h22c10 -52 55 -78 97 -78z" />
    <glyph glyph-name="afii10051" unicode="&#x402;" horiz-adv-x="672" 
d="M652 235c0 -144 -71 -250 -243 -250v23c148 0 219 83 219 222c0 123 -53 216 -180 216c-69 0 -143 -33 -196 -98v-348h-25v672h-215v24h536v-24h-296l1 -288c49 50 119 86 193 86c118 0 206 -72 206 -235z" />
    <glyph glyph-name="afii10053" unicode="&#x404;" horiz-adv-x="510" 
d="M480 139l22 -9c-34 -82 -111 -137 -212 -137c-164 0 -237 115 -237 250v215c0 131 78 243 237 243c99 0 173 -49 208 -122l-22 -13c-30 64 -96 112 -185 112c-143 0 -212 -99 -212 -222v-90h288v-24h-288v-104c0 -120 69 -223 212 -223c92 0 153 48 189 124z" />
    <glyph glyph-name="afii10058" unicode="&#x409;" horiz-adv-x="905" 
d="M164 672v-332c0 -207 -38 -298 -143 -353l-13 25c93 57 128 117 128 360v324h315v-326h228c139 0 198 -96 198 -185c0 -133 -92 -185 -212 -185h-242l-1 672h-258zM673 25c98 0 176 44 176 160c0 85 -62 161 -175 161h-223v-321h222z" />
    <glyph glyph-name="afii10059" unicode="&#x40a;" horiz-adv-x="892" 
d="M449 370h228c139 0 198 -96 198 -185c0 -133 -92 -185 -212 -185h-242v346h-313v-346h-28v696h28v-326h313v326h28v-326zM671 25c98 0 176 44 176 160c0 85 -62 161 -175 161h-223v-321h222z" />
    <glyph glyph-name="afii10060" unicode="&#x40b;" horiz-adv-x="663" 
d="M609 0v275c0 109 -45 171 -151 171c-55 0 -132 -27 -206 -93v-353h-25v672h-215v24h536v-24h-296v-289h1c67 56 143 87 205 87c119 0 175 -69 175 -184v-286h-24z" />
    <glyph glyph-name="afii10145" unicode="&#x40f;" horiz-adv-x="609" 
d="M534 0h-213v-167h-34v167h-212v695h29v-672h401v672h29v-695z" />
    <glyph glyph-name="afii10018" unicode="&#x411;" horiz-adv-x="564" 
d="M108 370h228c139 0 198 -96 198 -185c0 -133 -92 -185 -212 -185h-242v696h393v-23h-365v-303zM330 25c98 0 176 44 176 160c0 85 -62 161 -175 161h-223v-321h222z" />
    <glyph glyph-name="afii10021" unicode="&#x414;" horiz-adv-x="688" 
d="M595 696v-670h43v-183h-29v157h-559v-157h-30v181l32 5c61 30 105 114 120 382l16 285h407zM566 25v647h-351l-16 -293c-10 -180 -39 -297 -101 -354h468z" />
    <glyph glyph-name="afii10024" unicode="&#x416;" horiz-adv-x="836" 
d="M405 0v350h-163c-60 0 -105 -22 -132 -115l-68 -235h-27l67 231c20 68 43 121 111 135c-54 14 -82 66 -103 133l-62 197h24l69 -212c28 -85 83 -110 136 -110h148v322h26v-322h148c53 0 108 25 136 110l69 212h24l-62 -197c-21 -67 -49 -119 -103 -133
c68 -14 91 -67 111 -135l67 -231h-27l-68 235c-27 93 -72 115 -132 115h-163v-350h-26z" />
    <glyph glyph-name="afii10025" unicode="&#x417;" horiz-adv-x="545" 
d="M268 -7c-109 0 -208 55 -243 137l23 9c37 -76 127 -124 222 -124c112 0 209 69 209 193c0 108 -99 154 -166 154h-93v24h90c70 0 152 57 152 151c0 98 -85 143 -189 143c-92 0 -176 -49 -205 -110l-22 11c36 73 126 122 228 122c147 0 215 -73 215 -164
c0 -49 -23 -132 -120 -165c109 -26 136 -114 136 -165c0 -132 -102 -216 -237 -216z" />
    <glyph glyph-name="afii10026" unicode="&#x418;" horiz-adv-x="645" 
d="M570 0h-25v657l-443 -657h-27v696h26v-656l443 656h26v-696z" />
    <glyph glyph-name="afii10027" unicode="&#x419;" horiz-adv-x="645" 
d="M570 0h-25v657l-443 -657h-27v696h26v-656l443 656h26v-696zM326 752c50 0 89 33 97 78h22c-8 -49 -46 -101 -119 -101s-112 52 -119 101h21c8 -45 51 -78 98 -78z" />
    <glyph glyph-name="afii10029" unicode="&#x41b;" horiz-adv-x="612" 
d="M133 696h394v-696h-29v672h-337v-332c0 -207 -38 -298 -143 -353l-13 25c93 57 128 117 128 360v324z" />
    <glyph glyph-name="afii10037" unicode="&#x423;" horiz-adv-x="472" 
d="M461 697l-223 -563c-43 -108 -74 -141 -141 -141h-31v25h28c54 0 79 27 109 101l21 52l-211 525h30l195 -492h2l192 493h29z" />
    <glyph glyph-name="afii10040" unicode="&#x426;" horiz-adv-x="609" 
d="M554 0h-474v696h26v-673h407v673h26v-673h44v-179h-29v156z" />
    </font>
</defs>
</svg>
