<?xml version="1.0" standalone="no"?>
<!DOCTYPE svg PUBLIC "-//W3C//DTD SVG 1.1//EN" "http://www.w3.org/Graphics/SVG/1.1/DTD/svg11.dtd" >
<svg xmlns="http://www.w3.org/2000/svg" width="100%" height="100%">
<metadata>
Created by FontXChange 20110222 at Wed Mar  6 10:22:53 2019
 By McConnell, Brian
Based on DIN 1451 the German Industrial standard by the Deutsches Institut Normung - (1936/1986)
</metadata>
<defs>
<font id="PFDinTextPro-Thin" horiz-adv-x="1818" >
  <font-face 
    font-family="PFDinTextPro"
    font-weight="200"
    font-stretch="normal"
    units-per-em="1000"
    panose-1="2 0 0 0 0 0 0 0 0 0"
    ascent="750"
    descent="-250"
    x-height="494"
    cap-height="696"
    bbox="-327 -255 1760 913"
    underline-thickness="50"
    underline-position="-50"
    stemh="41"
    stemv="44"
    unicode-range="U+0020-FB05"
  />
<missing-glyph horiz-adv-x="432" 
d="M0 0v700h432v-700h-432zM216 378l160 291h-320zM236 350l166 -301v604zM56 31h320l-160 291zM30 650v-599l166 299z" />
    <glyph glyph-name="fj" unicode="fj" horiz-adv-x="429" 
d="M31 496h59v103c0 98 62 128 134 128c61 0 103 -19 135 -52l-30 -31c-33 33 -66 40 -107 40c-56 0 -87 -25 -87 -88v-100h216v-572c0 -74 -42 -127 -121 -127h-21v40c1 0 20 -1 21 0c52 3 77 33 77 92v530h-172v-459h-45v459h-59v37z" />
    <glyph glyph-name="ffj" unicode="ffj" horiz-adv-x="648" 
d="M351 591v-95h217v-572c0 -74 -42 -127 -122 -127h-21v40c1 0 20 -1 21 0c52 3 77 33 77 92v530h-172v-459h-44v459h-172v-459h-45v459h-59v37h59v79c0 99 62 129 134 129c45 0 78 -11 106 -28c24 34 64 46 110 46c62 0 104 -19 135 -52l-30 -31c-32 32 -65 40 -107 40
c-56 0 -87 -25 -87 -88zM222 661c-56 0 -87 -25 -87 -88v-77h172v97c0 16 1 30 4 43c-28 21 -57 25 -89 25z" />
    <glyph glyph-name="ff" unicode="ff" horiz-adv-x="474" 
d="M224 713c43 0 76 -11 103 -27c20 29 54 45 92 45h48v-41h-40c-65 0 -77 -48 -77 -89v-105h116v-37h-116v-459h-44v459h-172v-459h-44v459h-60v37h60v82c0 93 54 135 134 135zM134 496h172v108c0 8 0 15 1 22c0 6 1 13 3 19c-29 22 -57 25 -89 25c-56 0 -87 -25 -87 -88
v-86z" />
    <glyph glyph-name="fi" unicode="fi" horiz-adv-x="429" 
d="M351 0h-44v459h-172v-459h-45v459h-59v37h59v103c0 98 62 128 134 128c61 0 103 -19 135 -52l-30 -31c-33 33 -66 40 -107 40c-56 0 -87 -25 -87 -88v-100h216v-496z" />
    <glyph glyph-name="fl" unicode="fl" horiz-adv-x="454" 
d="M421 0c-71 0 -114 26 -114 102c-1 487 0 342 0 564c-27 14 -55 18 -86 18c-56 0 -87 -25 -87 -88v-100h118v-38h-118v-458h-44v458h-60v38h60v102c0 90 59 129 134 129c36 0 73 -7 127 -31v-587c0 -45 23 -71 77 -71h8v-38h-15z" />
    <glyph glyph-name="ffi" unicode="ffi" horiz-adv-x="648" 
d="M568 0h-45v459h-172v-459h-44v459h-172v-459h-45v459h-59v37h59v79c0 99 62 129 134 129c45 0 78 -11 106 -28c24 34 64 46 110 46c62 0 104 -19 135 -52l-30 -31c-32 32 -65 40 -107 40c-56 0 -87 -25 -87 -88v-95h217v-496zM222 662c-56 0 -87 -26 -87 -89v-77h172v97
c0 16 1 30 4 43c-28 21 -59 26 -89 26z" />
    <glyph glyph-name="ffl" unicode="ffl" horiz-adv-x="671" 
d="M224 704c43 0 76 -10 103 -27c24 37 66 50 114 50c36 0 73 -7 127 -31v-587c0 -45 23 -71 77 -71h8v-38h-15c-71 0 -114 26 -114 102v564c-27 14 -58 18 -86 18c-56 0 -87 -25 -87 -88v-100h117v-37h-117v-459h-44v459h-172v-459h-45v459h-59v37h59v79
c0 99 62 129 134 129zM222 662c-56 0 -87 -26 -87 -89v-77h172v103c0 13 1 26 3 37c-28 21 -59 26 -88 26z" />
    <glyph glyph-name="ft" unicode="ft" horiz-adv-x="471" 
d="M307 460h-172v-460h-45v460h-59v36h59v110c0 79 51 118 113 118h47v-40h-38c-65 0 -77 -49 -77 -89v-99h172v131h44v-131h92v-36h-92v-339c0 -48 13 -81 73 -81h31v-40h-44c-63 0 -104 37 -104 105v355z" />
    <glyph glyph-name=".notdef" horiz-adv-x="432" 
d="M0 0v700h432v-700h-432zM216 378l160 291h-320zM236 350l166 -301v604zM56 31h320l-160 291zM30 650v-599l166 299z" />
    <glyph glyph-name="quotedbl" unicode="&#x22;" horiz-adv-x="243" 
d="M188 513h-34v183h34v-183zM94 513h-34v183h34v-183z" />
    <glyph glyph-name="numbersign" unicode="#" horiz-adv-x="467" 
d="M8 224v31h102c6 45 20 144 27 189h-99v31h103l29 220h33l-29 -220h145c7 47 25 172 31 220h33l-30 -220h102v-31h-106l-26 -189h103v-31h-107l-29 -224h-35l30 224h-145l-31 -224h-35l32 224h-98zM170 444l-26 -189h145l26 189h-145z" />
    <glyph glyph-name="dollar" unicode="$" horiz-adv-x="467" 
d="M247 324v-288c84 4 153 53 153 143c0 102 -79 128 -139 140c-5 2 -10 3 -14 5zM217 377v279c-74 -5 -140 -55 -140 -147s79 -119 140 -132zM247 -120h-30v113c-74 4 -144 28 -196 71c9 11 18 25 27 36c48 -35 106 -60 169 -64v294c-95 20 -186 60 -186 181
c0 103 71 180 186 187v75h30v-76c59 -2 117 -19 164 -49c-8 -12 -16 -26 -23 -39c-43 25 -91 43 -141 46v-285c110 -26 199 -52 199 -191c0 -110 -79 -181 -199 -186v-113z" />
    <glyph glyph-name="ampersand" unicode="&#x26;" horiz-adv-x="625" 
d="M228 392c-54 68 -86 117 -86 170c0 72 47 143 158 143c60 0 108 -13 151 -53l-30 -34c-40 33 -74 45 -125 45c-83 0 -109 -58 -109 -101c0 -14 5 -29 19 -51c53 -85 223 -310 256 -354c24 41 36 97 41 140c14 -1 28 -2 43 -4c-8 -60 -24 -117 -55 -171l96 -122h-56
l-69 88c-57 -64 -123 -94 -201 -94c-112 0 -186 66 -186 168c0 92 56 165 153 230zM253 358c-74 -47 -134 -112 -134 -192c0 -86 68 -132 143 -132c66 0 129 35 172 87c-61 80 -120 158 -181 237z" />
    <glyph glyph-name="quotesingle" unicode="'" horiz-adv-x="189" 
d="M112 513h-34v183h34v-183z" />
    <glyph glyph-name="parenleft" unicode="(" horiz-adv-x="262" 
d="M229 -119c-90 104 -163 260 -163 419c0 153 66 311 160 420l22 -13c-82 -117 -132 -265 -132 -402c0 -148 53 -296 132 -409z" />
    <glyph glyph-name="parenright" unicode=")" horiz-adv-x="262" 
d="M47 -121l-20 15c79 113 131 261 131 409c0 138 -49 285 -131 402l21 13c95 -109 161 -267 161 -420c0 -158 -73 -315 -162 -419z" />
    <glyph glyph-name="asterisk" unicode="*" horiz-adv-x="343" 
d="M198 543l81 -96c-7 -5 -29 -23 -36 -27l-69 108l-68 -109l-35 28l79 96c-13 3 -108 33 -120 36c2 7 11 33 13 41l118 -49l-8 125h42l-8 -125l119 49l13 -42z" />
    <glyph glyph-name="plus" unicode="+" horiz-adv-x="467" 
d="M439 261h-188v-194h-37v194h-188v38h188v192h37v-192h188v-38z" />
    <glyph glyph-name="comma" unicode="," horiz-adv-x="174" 
d="M74 -99h-29l26 99h-16v66h61v-56c-11 -39 -26 -73 -42 -109z" />
    <glyph glyph-name="hyphen" unicode="-" horiz-adv-x="370" 
d="M317 239h-264v42h264v-42z" />
    <glyph glyph-name="period" unicode="." horiz-adv-x="167" 
d="M115 0h-59v65h59v-65z" />
    <glyph glyph-name="slash" unicode="/" horiz-adv-x="407" 
d="M406 718l-367 -743h-38l366 743h39z" />
    <glyph glyph-name="zero" unicode="0" horiz-adv-x="467" 
d="M417 179c0 -119 -87 -184 -184 -184s-184 65 -184 184v337c0 119 87 185 184 185s184 -66 184 -185v-337zM375 186v324c0 90 -57 150 -142 150s-141 -60 -141 -150v-324c0 -90 56 -151 141 -151s142 61 142 151z" />
    <glyph glyph-name="one" unicode="1" horiz-adv-x="467" 
d="M274 696v-696h-44v648l-102 -68v48l101 68h45z" />
    <glyph glyph-name="two" unicode="2" horiz-adv-x="467" 
d="M416 0h-371v44l290 375c22 29 39 77 39 111c0 70 -48 128 -138 128c-65 0 -121 -44 -138 -108l-45 7c21 87 99 142 183 142c115 0 185 -71 185 -166c0 -43 -15 -93 -48 -134l-274 -356h317v-43z" />
    <glyph glyph-name="three" unicode="3" horiz-adv-x="467" 
d="M424 196c0 -122 -89 -202 -206 -202c-73 0 -150 29 -174 122l44 6c17 -54 64 -89 132 -89c84 0 159 63 159 159s-61 151 -140 151h-45v40h36c78 0 138 52 138 135c0 82 -57 144 -144 144c-54 0 -113 -34 -131 -93l-43 7c22 76 92 126 176 126c129 0 187 -87 187 -182
c0 -49 -23 -124 -104 -156c92 -31 115 -115 115 -168z" />
    <glyph glyph-name="four" unicode="4" horiz-adv-x="467" 
d="M447 112h-62v-112h-43v112h-313v42l248 542h49l-252 -542h268v215h43v-215h62v-42z" />
    <glyph glyph-name="five" unicode="5" horiz-adv-x="467" 
d="M52 115l41 9c18 -58 67 -92 137 -92c102 0 148 78 148 162v72c0 85 -39 156 -145 156c-45 0 -102 -31 -128 -70h-41v344h341v-42h-300v-249c49 47 103 56 141 56c122 0 174 -83 174 -190v-45c0 -130 -43 -231 -192 -231c-91 0 -153 41 -176 120z" />
    <glyph glyph-name="six" unicode="6" horiz-adv-x="467" 
d="M426 204c0 -152 -96 -210 -194 -210c-88 0 -179 66 -179 199c0 40 8 78 25 112l197 391h47l-168 -334l2 -1c26 21 64 30 92 30c94 0 178 -70 178 -187zM382 195c0 99 -63 158 -143 158c-81 0 -144 -59 -144 -158c0 -97 55 -163 144 -163c76 0 143 60 143 163z" />
    <glyph glyph-name="seven" unicode="7" horiz-adv-x="467" 
d="M422 652l-253 -652h-49l255 653h-282v-109h-43v152h372v-44z" />
    <glyph glyph-name="eight" unicode="8" horiz-adv-x="467" 
d="M437 188c0 -115 -90 -194 -200 -194s-199 79 -199 194c0 59 36 141 116 171c-81 31 -103 102 -103 156c0 104 81 185 186 185c112 0 186 -81 186 -185c0 -62 -29 -124 -104 -156l1 -1c85 -27 117 -108 117 -170zM237 341c-82 0 -157 -61 -157 -152
c0 -89 74 -157 157 -157c84 0 158 68 158 157c0 91 -75 152 -158 152zM237 662c-71 0 -143 -52 -143 -145c0 -95 73 -140 143 -140c71 0 144 44 144 140c0 93 -72 145 -144 145z" />
    <glyph glyph-name="nine" unicode="9" horiz-adv-x="467" 
d="M53 495c0 152 97 207 193 207c91 0 181 -66 181 -199c0 -40 -8 -79 -25 -112l-198 -391h-48l169 331l-2 1c-33 -21 -68 -25 -91 -25c-95 0 -179 69 -179 188zM95 501c0 -99 64 -158 145 -158s143 59 143 158c0 97 -56 163 -143 163c-77 0 -145 -60 -145 -163z" />
    <glyph glyph-name="colon" unicode=":" horiz-adv-x="174" 
d="M116 0h-59v65h59v-65zM116 314h-59v65h59v-65z" />
    <glyph glyph-name="semicolon" unicode=";" horiz-adv-x="174" 
d="M75 -99h-29l26 99h-16v66h61v-56c-2 -7 -2 -13 -4 -20zM117 313h-60v66h60v-66z" />
    <glyph glyph-name="less" unicode="&#x3c;" horiz-adv-x="467" 
d="M432 122v-42l-402 182v36l401 182v-41l-355 -159c81 -35 274 -123 356 -158z" />
    <glyph glyph-name="equal" unicode="=" horiz-adv-x="467" 
d="M439 340h-413v37h413v-37zM439 163h-413v38h413v-38z" />
    <glyph glyph-name="greater" unicode="&#x3e;" horiz-adv-x="467" 
d="M31 80v42c83 35 275 123 356 158l-354 159v41l400 -182v-36z" />
    <glyph glyph-name="question" unicode="?" horiz-adv-x="445" 
d="M78 524l-45 8c27 111 108 169 198 169c109 0 181 -74 181 -173c1 -65 -39 -113 -75 -155c-38 -45 -83 -85 -86 -147v-66h-46v68c0 36 15 68 35 97c36 51 126 116 126 197c0 54 -32 137 -141 137c-87 0 -140 -85 -147 -135zM257 0h-56v61h56v-61z" />
    <glyph glyph-name="at" unicode="@" horiz-adv-x="774" 
d="M514 413v-176c0 -33 9 -62 57 -62c87 0 133 86 133 213c0 188 -151 285 -299 285c-197 0 -334 -141 -334 -337c0 -211 141 -342 342 -342c83 0 146 13 200 40c5 -11 9 -22 13 -33c-65 -23 -131 -40 -209 -40c-221 0 -382 143 -382 375c0 209 147 369 365 369
c189 0 341 -119 341 -317c0 -168 -75 -245 -171 -245c-18 0 -75 6 -85 52h-2c-23 -44 -89 -53 -128 -53c-63 0 -132 29 -132 104c0 61 45 108 126 108h130v52c0 53 -22 87 -106 87c-35 0 -79 -11 -111 -36c-7 8 -12 19 -19 27c41 32 91 42 131 42c78 0 140 -20 140 -113z
M479 324h-127c-48 0 -95 -24 -95 -74c0 -49 39 -78 102 -78c53 0 120 19 120 80v72z" />
    <glyph glyph-name="A" unicode="A" horiz-adv-x="585" 
d="M519 0l-60 170h-335l-60 -170h-50l253 696h49c85 -232 170 -464 254 -696h-51zM293 639h-3c-15 -43 -133 -376 -152 -428h307l-90 254c-21 58 -42 116 -62 174z" />
    <glyph glyph-name="B" unicode="B" horiz-adv-x="585" 
d="M546 186c0 -113 -83 -186 -187 -186h-280v696h253c128 0 198 -77 198 -177c0 -53 -26 -130 -117 -158v-2c96 -18 133 -105 133 -173zM324 655h-199v-277h199c97 0 159 56 159 139c0 79 -57 138 -159 138zM338 337h-213v-294h214c106 0 158 63 158 147
c0 78 -51 147 -159 147z" />
    <glyph glyph-name="C" unicode="C" horiz-adv-x="528" 
d="M469 153l42 -19c-35 -86 -113 -141 -218 -141c-165 0 -240 117 -240 253v207c0 133 79 248 240 248c103 0 179 -52 215 -130l-42 -21c-28 62 -89 108 -172 108c-131 0 -195 -96 -195 -207v-206c0 -111 64 -209 195 -209c85 0 143 46 175 117z" />
    <glyph glyph-name="D" unicode="D" horiz-adv-x="606" 
d="M79 696h224c104 0 181 -37 224 -126c22 -49 25 -122 25 -209c0 -100 -2 -174 -24 -227c-44 -100 -126 -134 -239 -134h-210v696zM505 274v143c0 178 -82 236 -209 236h-170v-610h170c158 0 209 97 209 231z" />
    <glyph glyph-name="E" unicode="E" horiz-adv-x="528" 
d="M501 0h-422v696h422v-43h-375v-279h320v-42h-320v-289h375v-43z" />
    <glyph glyph-name="F" unicode="F" horiz-adv-x="507" 
d="M501 653h-374v-281h319v-41h-319v-331h-48v696h422v-43z" />
    <glyph glyph-name="G" unicode="G" horiz-adv-x="585" 
d="M292 34c119 0 193 94 193 198v80h-157v40h204v-111c0 -139 -91 -248 -241 -248c-165 0 -240 117 -240 253v207c0 133 79 248 240 248c104 0 180 -52 215 -130c-5 -4 -37 -18 -42 -21c-28 62 -89 108 -172 108c-131 0 -195 -96 -195 -207v-208c0 -111 64 -209 195 -209z
" />
    <glyph glyph-name="H" unicode="H" horiz-adv-x="625" 
d="M546 0h-47v332h-374v-332h-46v696h46v-322h374v322h47v-696z" />
    <glyph glyph-name="I" unicode="I" horiz-adv-x="212" 
d="M129 0h-46v696h46v-696z" />
    <glyph glyph-name="J" unicode="J" horiz-adv-x="448" 
d="M378 696v-499c0 -146 -97 -203 -207 -203c-55 0 -104 21 -141 55l34 32c35 -29 66 -43 103 -43c88 0 165 42 165 176v482h46z" />
    <glyph glyph-name="K" unicode="K" horiz-adv-x="606" 
d="M528 0c-77 131 -155 262 -233 393l-170 -209v-184h-47v696h47v-444h1c58 71 114 141 172 211l191 233h52l-216 -266c86 -144 170 -287 256 -430h-53z" />
    <glyph glyph-name="L" unicode="L" horiz-adv-x="528" 
d="M501 0h-422v696h46v-653h376v-43z" />
    <glyph glyph-name="M" unicode="M" horiz-adv-x="741" 
d="M626 0v591h-1l-104 -220l-126 -262h-40l-126 264l-105 218c0 -1 0 -1 -1 -1v-590h-45v696h47l156 -328c32 -66 63 -133 94 -200h1l95 200l156 328h45v-696h-46z" />
    <glyph glyph-name="N" unicode="N" horiz-adv-x="663" 
d="M537 0l-261 392c-50 75 -99 149 -148 225c-1 0 -1 -1 -1 -1v-616h-47v696h48l258 -388c51 -77 101 -154 151 -231c1 0 1 0 1 1v618h46v-696h-47z" />
    <glyph glyph-name="O" unicode="O" horiz-adv-x="571" 
d="M286 701c149 0 238 -104 238 -248v-207c0 -155 -91 -253 -238 -253c-165 0 -241 117 -241 253v207c0 133 79 248 241 248zM287 657c-130 0 -194 -95 -194 -206v-207c0 -109 64 -208 194 -208c118 0 189 89 189 212v203c0 116 -70 206 -189 206z" />
    <glyph glyph-name="P" unicode="P" horiz-adv-x="555" 
d="M544 494c0 -92 -66 -196 -206 -196h-211v-298h-47v696h248c111 0 216 -55 216 -202zM494 497c0 105 -74 156 -166 156h-201v-311h205c115 0 162 78 162 155z" />
    <glyph glyph-name="Q" unicode="Q" horiz-adv-x="585" 
d="M286 701c149 0 238 -104 238 -248v-207c0 -56 -12 -103 -34 -143l100 -79l-26 -31c-23 17 -65 51 -98 77c-41 -49 -102 -77 -180 -77c-165 0 -240 117 -240 253v207c0 133 79 248 240 248zM287 656c-130 0 -194 -95 -194 -205v-206c0 -109 64 -208 194 -208
c61 0 109 24 141 63l-102 82l27 32l97 -79c17 33 26 71 26 114v202c0 115 -70 205 -189 205z" />
    <glyph glyph-name="R" unicode="R" horiz-adv-x="585" 
d="M539 0h-56l-155 323h-201v-323h-47v696h269c116 0 199 -68 199 -180c0 -100 -66 -173 -169 -190zM498 516c0 99 -77 139 -161 139h-210v-290h207c93 0 164 52 164 151z" />
    <glyph glyph-name="S" unicode="S" horiz-adv-x="530" 
d="M503 183c0 -115 -92 -189 -241 -189c-87 0 -171 24 -241 75l28 38c61 -44 136 -69 216 -69c107 0 190 47 190 146c0 111 -101 136 -187 153c-103 19 -210 44 -210 177c0 115 86 188 218 188c76 0 144 -18 199 -53l-25 -40c-53 30 -113 49 -176 49
c-89 0 -169 -43 -169 -144c0 -102 93 -117 186 -136c106 -22 212 -51 212 -195z" />
    <glyph glyph-name="T" unicode="T" horiz-adv-x="478" 
d="M471 655h-207v-655h-46v655h-210v41h463v-41z" />
    <glyph glyph-name="U" unicode="U" horiz-adv-x="606" 
d="M494 696h48v-464c0 -144 -100 -238 -239 -238c-143 0 -238 102 -238 245v457h46v-446c0 -118 74 -212 192 -212c112 0 191 76 191 204v454z" />
    <glyph glyph-name="V" unicode="V" horiz-adv-x="528" 
d="M284 0h-42c-77 232 -153 464 -229 696h48c36 -113 73 -227 110 -339l91 -285h3c30 96 61 190 91 285l108 339h49z" />
    <glyph glyph-name="W" unicode="W" horiz-adv-x="809" 
d="M790 696l-171 -696h-43l-105 376c-22 79 -45 158 -67 238h-1l-169 -614h-44c-57 232 -114 464 -170 696h48c29 -127 60 -252 89 -378l56 -239h2c21 79 43 161 65 239l105 378h40c36 -127 70 -254 106 -380l66 -237h1l54 236l89 381h49z" />
    <glyph glyph-name="X" unicode="X" horiz-adv-x="500" 
d="M488 0h-51l-187 318l-187 -318h-52l213 357l-198 339h52l172 -300l172 300h52l-199 -339z" />
    <glyph glyph-name="Y" unicode="Y" horiz-adv-x="475" 
d="M259 288v-288h-44v288l-209 408h49c27 -52 161 -322 182 -365c25 49 49 98 73 148c37 72 74 144 109 217h48c-70 -136 -139 -272 -208 -408z" />
    <glyph glyph-name="Z" unicode="Z" horiz-adv-x="488" 
d="M455 0h-422v42l370 613h-354v41h406v-40l-370 -613h370v-43z" />
    <glyph glyph-name="bracketleft" unicode="[" horiz-adv-x="234" 
d="M218 -109h-142v806h142v-35h-99v-737h99v-34z" />
    <glyph glyph-name="backslash" unicode="\" horiz-adv-x="292" 
d="M248 -42l-252 767h36l252 -767h-36z" />
    <glyph glyph-name="bracketright" unicode="]" horiz-adv-x="234" 
d="M176 -109h-141v34h98v737h-98v35h141v-806z" />
    <glyph glyph-name="asciicircum" unicode="^" horiz-adv-x="467" 
d="M87 333h-42l171 360h36l169 -359h-41l-147 316c-30 -72 -115 -244 -146 -317z" />
    <glyph glyph-name="underscore" unicode="_" horiz-adv-x="493" 
d="M493 -107h-493v37h493v-37z" />
    <glyph glyph-name="grave" unicode="`" horiz-adv-x="482" 
d="M333 575l-28 -12l-99 147l48 19z" />
    <glyph glyph-name="a" unicode="a" horiz-adv-x="474" 
d="M377 54h-1c-31 -49 -98 -60 -166 -60c-95 0 -174 46 -174 141c0 80 54 139 159 139h182v71c0 73 -37 115 -143 115c-49 0 -98 -11 -138 -48l-28 30c40 39 97 59 167 59c101 0 186 -30 186 -154v-347h-44v54zM377 237h-172c-79 0 -127 -33 -127 -100
c0 -68 54 -105 138 -105c64 0 161 19 161 106v99z" />
    <glyph glyph-name="b" unicode="b" horiz-adv-x="465" 
d="M91 418l4 -2c31 47 73 84 150 84c145 0 185 -126 185 -248c0 -149 -50 -259 -190 -259c-48 0 -105 5 -145 78l-4 -1v-70h-44v723h44v-305zM384 247c0 95 -24 213 -148 213c-110 0 -145 -102 -145 -215c0 -85 19 -213 145 -213c130 0 148 119 148 215z" />
    <glyph glyph-name="c" unicode="c" horiz-adv-x="414" 
d="M395 49c-38 -34 -87 -56 -145 -56c-110 0 -220 68 -220 254s110 254 220 254c58 0 106 -21 145 -54l-28 -33c-27 26 -69 47 -111 47c-116 0 -182 -76 -182 -214s66 -215 182 -215c43 0 85 24 111 47z" />
    <glyph glyph-name="d" unicode="d" horiz-adv-x="465" 
d="M417 0h-43v77h-2c-43 -70 -100 -84 -152 -84c-140 0 -186 118 -186 255c0 124 42 253 191 253c78 0 120 -40 147 -80h2v302h43v-723zM374 245c0 113 -36 215 -146 215c-125 0 -148 -118 -148 -213c0 -89 17 -213 148 -213c123 0 146 126 146 211z" />
    <glyph glyph-name="e" unicode="e" horiz-adv-x="474" 
d="M438 241h-353c-2 -113 41 -210 170 -210c43 0 86 18 120 43l25 -32c-42 -34 -91 -49 -143 -49c-100 0 -214 44 -214 252c0 201 108 256 200 256c130 0 195 -98 195 -226v-34zM395 277c-3 125 -61 185 -152 185c-94 0 -151 -67 -157 -185h309z" />
    <glyph glyph-name="f" unicode="f" horiz-adv-x="258" 
d="M250 460h-115v-460h-45v460h-59v36h59v110c0 79 51 118 113 118h47v-40h-38c-65 0 -77 -49 -77 -89v-99h115v-36z" />
    <glyph glyph-name="g" unicode="g" horiz-adv-x="498" 
d="M385 417h3v79h43l1 -493c0 -150 -99 -209 -211 -209c-46 0 -94 16 -133 49l28 33c28 -22 67 -42 109 -42c91 0 163 56 163 157l1 99h-2c-32 -58 -79 -95 -155 -95c-144 0 -183 127 -184 249c-1 134 44 257 184 257c49 0 112 -12 153 -84zM93 247c0 -95 25 -211 150 -211
c107 0 145 102 145 215c0 85 -24 210 -145 210c-131 0 -150 -124 -150 -214z" />
    <glyph glyph-name="h" unicode="h" horiz-adv-x="508" 
d="M444 0h-44v317c0 92 -47 142 -139 142c-84 0 -154 -65 -154 -159v-300h-43v723h43v-313h3c33 63 102 90 160 90c111 0 174 -61 174 -168v-332z" />
    <glyph glyph-name="i" unicode="i" horiz-adv-x="199" 
d="M124 648h-50v49h50v-49zM122 0h-44v496h44v-496z" />
    <glyph glyph-name="j" unicode="j" horiz-adv-x="218" 
d="M87 648v48h50v-48h-50zM-8 -205v39h17c52 0 81 34 81 93v568h45v-573c0 -77 -51 -127 -121 -127h-22z" />
    <glyph glyph-name="k" unicode="k" horiz-adv-x="479" 
d="M423 0c-62 94 -122 189 -184 283c-42 -47 -84 -94 -125 -142v-141h-43v722h43v-522h1c88 98 175 197 263 296h52l-162 -183l204 -313h-49z" />
    <glyph glyph-name="l" unicode="l" horiz-adv-x="218" 
d="M185 0c-71 0 -114 26 -114 102v620h44v-613c0 -45 23 -71 77 -71h8v-38h-15z" />
    <glyph glyph-name="m" unicode="m" horiz-adv-x="853" 
d="M735 0v317c0 92 -52 141 -134 141c-85 0 -156 -61 -156 -155v-303h-43v317c0 92 -58 141 -140 141c-86 0 -149 -61 -149 -155v-303h-43v496h43v-82h2c32 63 99 86 156 86c81 0 135 -37 161 -99h1c35 67 101 99 177 99c99 0 169 -63 169 -168v-332h-44z" />
    <glyph glyph-name="n" unicode="n" horiz-adv-x="502" 
d="M440 0h-43v317c0 92 -47 142 -140 142c-85 0 -153 -65 -153 -159v-300h-43v495h43v-85h2c33 63 103 90 160 90c111 0 174 -61 174 -168v-332z" />
    <glyph glyph-name="o" unicode="o" horiz-adv-x="489" 
d="M249 501c71 0 127 -29 160 -80c23 -37 35 -87 35 -177s-21 -146 -49 -182c-36 -46 -89 -68 -154 -68c-63 0 -110 20 -142 56c-36 41 -55 102 -55 199c0 91 22 147 54 185c34 41 85 67 151 67zM247 462c-51 0 -90 -23 -116 -56s-43 -77 -43 -159c0 -83 17 -129 43 -162
s64 -52 113 -52c51 0 92 22 119 61c21 30 37 69 37 151c0 81 -11 120 -27 147c-26 44 -71 70 -126 70z" />
    <glyph glyph-name="p" unicode="p" horiz-adv-x="492" 
d="M58 496h44v-84h1c42 73 104 90 156 90c144 0 182 -118 182 -255c0 -123 -41 -252 -191 -252c-76 0 -119 38 -147 87h-1v-281h-44v695zM102 250c0 -112 35 -214 145 -214c127 0 149 117 149 212c0 90 -12 214 -144 214c-125 0 -150 -127 -150 -212z" />
    <glyph glyph-name="q" unicode="q" horiz-adv-x="496" 
d="M49 243c0 141 45 259 191 259c59 0 110 -23 146 -91h1v85h44v-696h-44v286h-1c-29 -47 -80 -91 -156 -91c-147 0 -181 130 -181 248zM93 248c0 -95 23 -212 149 -212c107 0 145 102 145 214c0 85 -24 214 -145 214c-128 0 -149 -126 -149 -216z" />
    <glyph glyph-name="r" unicode="r" horiz-adv-x="340" 
d="M344 489l-18 -44c-22 11 -45 15 -65 15c-85 0 -147 -61 -147 -156v-304h-43v496h43v-85h3c35 70 96 90 153 90c28 0 54 -3 74 -12z" />
    <glyph glyph-name="s" unicode="s" horiz-adv-x="446" 
d="M408 134c0 -79 -66 -141 -191 -141c-71 0 -141 19 -195 61l26 34c48 -38 109 -56 176 -56c60 0 140 24 140 104c0 69 -70 90 -138 99c-89 13 -175 29 -175 124c0 88 73 142 178 142c71 0 119 -15 163 -45l-24 -35c-39 24 -82 40 -136 40c-78 0 -136 -34 -137 -98
c0 -67 66 -78 143 -89c80 -12 170 -38 170 -140z" />
    <glyph glyph-name="t" unicode="t" horiz-adv-x="264" 
d="M241 0h-47c-75 0 -102 44 -102 116v343h-68v37h68v131h45v-131h92v-37h-92v-339c0 -46 11 -81 73 -81h31v-39z" />
    <glyph glyph-name="u" unicode="u" horiz-adv-x="517" 
d="M445 0h-43v80h-2c-33 -63 -103 -85 -159 -85c-103 0 -176 63 -176 167v334h44v-317c0 -93 56 -144 141 -144s153 64 153 158v303h42v-496z" />
    <glyph glyph-name="v" unicode="v" horiz-adv-x="434" 
d="M420 494c-61 -164 -122 -330 -182 -494h-42c-61 164 -123 330 -183 494h48c31 -84 61 -172 91 -256l64 -178h3c20 57 42 121 61 178c31 84 61 171 91 256h49z" />
    <glyph glyph-name="w" unicode="w" horiz-adv-x="703" 
d="M694 494l-155 -494h-44c-30 87 -58 173 -88 261l-57 166c-19 -55 -37 -112 -56 -166c-29 -87 -58 -174 -88 -261h-44l-154 494h48l80 -271l48 -160h2l53 159c30 91 61 181 90 272h44c30 -90 60 -181 89 -271l53 -162h3l48 163l80 270h48z" />
    <glyph glyph-name="x" unicode="x" horiz-adv-x="441" 
d="M412 0h-52l-140 223l-139 -223h-52l165 254l-157 241h52l131 -211l130 211h53l-157 -241z" />
    <glyph glyph-name="y" unicode="y" horiz-adv-x="419" 
d="M197 -111c-21 -61 -66 -89 -114 -89h-21v39h20c33 0 65 25 79 71c9 28 18 56 28 84c-62 166 -123 333 -185 500h49l84 -233c25 -70 48 -140 73 -210h2c19 56 135 385 155 443h46z" />
    <glyph glyph-name="z" unicode="z" horiz-adv-x="421" 
d="M385 0h-350v36l300 421h-285v38h335v-37l-298 -419h298v-39z" />
    <glyph glyph-name="braceleft" unicode="{" horiz-adv-x="234" 
d="M227 -109h-47c-49 0 -80 41 -80 102v140c0 86 -14 135 -71 149v25c60 15 72 88 72 151v135c0 62 30 103 79 103h47v-29h-34c-48 0 -55 -55 -55 -94v-134c0 -82 -37 -132 -67 -143v-1c34 -11 67 -60 67 -137v-144c0 -39 7 -94 55 -94h34v-29z" />
    <glyph glyph-name="bar" unicode="|" horiz-adv-x="174" 
d="M106 -162h-34v878h34v-878z" />
    <glyph glyph-name="braceright" unicode="}" horiz-adv-x="234" 
d="M226 282c-57 -14 -71 -63 -71 -149v-140c0 -61 -31 -102 -80 -102h-47v29h34c48 0 55 55 55 94v144c0 77 32 126 67 137v1c-31 11 -67 61 -67 143v134c0 39 -3 94 -55 94h-34v28h46c53 0 80 -42 80 -102v-135c0 -63 12 -136 72 -151v-25z" />
    <glyph glyph-name="asciitilde" unicode="~" horiz-adv-x="467" 
d="M420 293c-31 -47 -63 -68 -105 -68c-46 0 -111 50 -159 50c-33 0 -55 -18 -79 -45l-32 23c31 43 70 65 113 65c52 0 113 -50 158 -50c29 0 46 18 70 49z" />
    <glyph glyph-name="Adieresis" unicode="&#xc4;" horiz-adv-x="585" 
d="M519 0l-60 170h-335l-60 -170h-50l253 696h49c85 -232 170 -464 254 -696h-51zM293 639h-3c-15 -43 -133 -376 -152 -428h307l-90 254c-21 58 -42 116 -62 174zM352 758v53h55v-53h-55zM174 758v53h54v-53h-54z" />
    <glyph glyph-name="Ccedilla" unicode="&#xc7;" horiz-adv-x="528" 
d="M468 153l42 -20c-34 -83 -111 -137 -213 -139c-3 -13 -8 -25 -12 -37c77 -6 94 -48 94 -77s-25 -72 -91 -72c-12 0 -46 1 -79 13l9 25c25 -9 51 -12 68 -12c19 0 57 12 57 47c0 31 -34 50 -78 50c-7 0 -10 5 -14 8c6 18 11 38 17 56c-148 9 -216 121 -216 250v208
c0 133 79 248 240 248c104 0 180 -52 215 -131c-14 -6 -28 -14 -42 -21c-27 63 -88 108 -172 108c-131 0 -195 -95 -195 -207v-206c0 -110 64 -209 195 -209c86 0 144 46 175 118z" />
    <glyph glyph-name="Eacute" unicode="&#xc9;" horiz-adv-x="528" 
d="M501 0h-422v696h422v-43h-375v-279h320v-42h-320v-289h375v-43zM250 729l-19 22l135 108l35 -37z" />
    <glyph glyph-name="Odieresis" unicode="&#xd6;" horiz-adv-x="571" 
d="M286 701c149 0 238 -104 238 -248v-207c0 -155 -91 -253 -238 -253c-165 0 -241 117 -241 253v207c0 133 79 248 241 248zM287 657c-130 0 -194 -95 -194 -206v-207c0 -109 64 -208 194 -208c118 0 189 89 189 212v203c0 116 -70 206 -189 206zM400 759h-54v53h54v-53z
M222 759h-55v53h55v-53z" />
    <glyph glyph-name="Udieresis" unicode="&#xdc;" horiz-adv-x="606" 
d="M494 696h48v-464c0 -144 -100 -238 -239 -238c-143 0 -238 102 -238 245v457h46v-446c0 -118 74 -212 192 -212c112 0 191 76 191 204v454zM421 759h-54v53h54v-53zM243 759h-55v53h55v-53z" />
    <glyph glyph-name="dieresistonos" unicode="&#x385;" horiz-adv-x="449" 
d="M348 606h-55v53h55v-53zM140 606h-54v53h54v-53zM187 563l-28 12l79 154l48 -19z" />
    <glyph glyph-name="agrave" unicode="&#xe0;" horiz-adv-x="474" 
d="M377 54h-1c-31 -49 -98 -60 -166 -60c-95 0 -174 46 -174 141c0 80 54 139 159 139h182v71c0 73 -37 115 -143 115c-49 0 -98 -11 -138 -48l-28 30c40 39 97 59 167 59c101 0 186 -30 186 -154v-347h-44v54zM377 237h-172c-79 0 -127 -33 -127 -100
c0 -68 54 -105 138 -105c64 0 161 19 161 106v99zM282 575c-9 -5 -18 -8 -27 -12l-99 146c16 6 31 13 48 19z" />
    <glyph glyph-name="acircumflex" unicode="&#xe2;" horiz-adv-x="474" 
d="M377 54h-1c-31 -49 -98 -60 -166 -60c-95 0 -174 46 -174 141c0 80 54 139 159 139h182v71c0 73 -37 115 -143 115c-49 0 -98 -11 -138 -48l-28 30c40 39 97 59 167 59c101 0 186 -30 186 -154v-347h-44v54zM377 237h-172c-79 0 -127 -33 -127 -100
c0 -68 54 -105 138 -105c64 0 161 19 161 106v99zM367 557l-126 96c-42 -33 -84 -65 -126 -97c-7 6 -14 14 -21 21l131 124h37l126 -124z" />
    <glyph glyph-name="adieresis" unicode="&#xe4;" horiz-adv-x="474" 
d="M377 54h-1c-31 -49 -98 -60 -166 -60c-95 0 -174 46 -174 141c0 80 54 139 159 139h182v71c0 73 -37 115 -143 115c-49 0 -98 -11 -138 -48l-28 30c40 39 97 59 167 59c101 0 186 -30 186 -154v-347h-44v54zM377 237h-172c-79 0 -127 -33 -127 -100
c0 -68 54 -105 138 -105c64 0 161 19 161 106v99zM315 608v53h54v-53h-54zM126 608v53h54v-53h-54z" />
    <glyph glyph-name="tonos" unicode="&#x384;" horiz-adv-x="482" 
d="M233 563l-27 12l78 154l49 -19z" />
    <glyph glyph-name="dieresis" unicode="&#xa8;" horiz-adv-x="482" 
d="M366 608h-55v54h55v-54zM176 608h-54v54h54v-54z" />
    <glyph glyph-name="ccedilla" unicode="&#xe7;" horiz-adv-x="414" 
d="M250 -6h-3l-12 -37c77 -6 94 -48 94 -77s-25 -72 -91 -72c-12 0 -46 1 -80 13l10 25c25 -9 50 -12 68 -12c23 0 57 15 57 47c0 31 -34 50 -79 50c-7 0 -8 5 -14 8l19 57c-100 10 -189 82 -189 251c0 186 109 254 220 254c57 0 106 -22 144 -55l-27 -32
c-28 25 -69 46 -112 46c-115 0 -182 -75 -182 -213s66 -215 182 -215c44 0 85 24 112 47c9 -11 18 -20 28 -31c-39 -33 -88 -54 -145 -54z" />
    <glyph glyph-name="eacute" unicode="&#xe9;" horiz-adv-x="474" 
d="M438 241h-353c-2 -113 41 -210 170 -210c40 0 85 16 119 41l27 -30c-42 -34 -92 -49 -144 -49c-100 0 -214 44 -214 252c0 201 107 256 199 256c130 0 196 -98 196 -226v-34zM392 277c-4 125 -60 185 -149 185c-94 0 -151 -67 -157 -185h306zM236 563l-27 12l78 154
l49 -19z" />
    <glyph glyph-name="egrave" unicode="&#xe8;" horiz-adv-x="474" 
d="M438 241h-353c-2 -113 41 -210 170 -210c40 0 85 16 119 41l27 -30c-42 -34 -92 -49 -144 -49c-100 0 -214 44 -214 252c0 201 107 256 199 256c130 0 196 -98 196 -226v-34zM392 277c-4 125 -60 185 -149 185c-94 0 -151 -67 -157 -185h306zM285 575l-28 -12l-99 147
l48 19z" />
    <glyph glyph-name="ecircumflex" unicode="&#xea;" horiz-adv-x="474" 
d="M438 241h-353c-2 -113 41 -210 170 -210c40 0 85 16 119 41l27 -30c-42 -34 -92 -49 -144 -49c-100 0 -214 44 -214 252c0 201 107 256 199 256c130 0 196 -98 196 -226v-34zM392 277c-4 125 -60 185 -149 185c-94 0 -151 -67 -157 -185h306zM368 557l-126 97l-127 -98
l-21 21l132 124h37l126 -123z" />
    <glyph glyph-name="edieresis" unicode="&#xeb;" horiz-adv-x="474" 
d="M438 241h-353c-2 -113 41 -210 170 -210c40 0 85 16 119 41l27 -30c-42 -34 -92 -49 -144 -49c-100 0 -214 44 -214 252c0 201 107 256 199 256c130 0 196 -98 196 -226v-34zM392 277c-4 125 -60 185 -149 185c-94 0 -151 -67 -157 -185h306zM369 608h-55v54h55v-54z
M180 608h-55v54h55v-54z" />
    <glyph glyph-name="sterling" unicode="&#xa3;" horiz-adv-x="467" 
d="M34 0v37c53 70 85 154 85 266h-86v34h79c-11 72 -49 126 -49 193c0 87 57 169 174 169c87 0 139 -26 181 -86l-37 -24c-37 52 -85 72 -147 72c-50 0 -125 -31 -125 -131c0 -56 34 -110 49 -193h150v-34h-147c-1 -94 -16 -182 -76 -262h347v-41h-398z" />
    <glyph glyph-name="trademark" unicode="&#x2122;" horiz-adv-x="806" 
d="M730 311h-34l-1 305l-128 -248h-28l-129 248v-305h-35v384h35l144 -280c34 64 111 216 144 280h32v-384zM315 661h-120v-350h-35v350h-120v35h275v-35z" />
    <glyph glyph-name="icircumflex" unicode="&#xee;" horiz-adv-x="255" 
d="M151 0h-46v496h46v-496zM253 557l-125 97l-127 -98l-21 21l131 124h37l127 -123z" />
    <glyph glyph-name="idieresis" unicode="&#xef;" horiz-adv-x="204" 
d="M126 0h-46v496h46v-496zM224 608h-55v54h55v-54zM35 608h-55v54h55v-54z" />
    <glyph glyph-name="bullet" unicode="&#x2022;" horiz-adv-x="354" 
d="M180 358c50 0 91 -42 91 -93s-41 -92 -91 -92c-51 0 -92 41 -92 92s41 93 92 93z" />
    <glyph glyph-name="ocircumflex" unicode="&#xf4;" horiz-adv-x="489" 
d="M370 557l-126 97l-126 -98l-21 21l131 124h37l126 -123zM249 501c71 0 127 -29 160 -80c23 -37 35 -87 35 -177s-21 -146 -49 -182c-36 -46 -89 -68 -154 -68c-63 0 -110 20 -142 56c-36 41 -55 102 -55 199c0 91 22 147 54 185c34 41 85 67 151 67zM247 462
c-51 0 -90 -23 -116 -56s-43 -77 -43 -159c0 -83 17 -129 43 -162s64 -52 113 -52c51 0 92 22 119 61c21 30 37 69 37 151c0 81 -11 120 -27 147c-26 44 -71 70 -126 70z" />
    <glyph glyph-name="odieresis" unicode="&#xf6;" horiz-adv-x="489" 
d="M365 608h-55v54h55v-54zM176 608h-55v54h55v-54zM249 501c71 0 127 -29 160 -80c23 -37 35 -87 35 -177s-21 -146 -49 -182c-36 -46 -89 -68 -154 -68c-63 0 -110 20 -142 56c-36 41 -55 102 -55 199c0 91 22 147 54 185c34 41 85 67 151 67zM247 462
c-51 0 -90 -23 -116 -56s-43 -77 -43 -159c0 -83 17 -129 43 -162s64 -52 113 -52c51 0 92 22 119 61c21 30 37 69 37 151c0 81 -11 120 -27 147c-26 44 -71 70 -126 70z" />
    <glyph glyph-name="sfthyphen" unicode="&#xad;" horiz-adv-x="370" 
d="M317 239h-264v42h264v-42z" />
    <glyph glyph-name="ugrave" unicode="&#xf9;" horiz-adv-x="517" 
d="M445 0h-43v80h-2c-33 -63 -98 -85 -154 -85c-101 0 -181 63 -181 167v334h44v-317c0 -93 61 -144 146 -144s148 64 148 158v303h42v-496zM296 575l-27 -12l-100 147l49 19z" />
    <glyph glyph-name="ucircumflex" unicode="&#xfb;" horiz-adv-x="517" 
d="M445 0h-43v80h-2c-33 -63 -98 -85 -154 -85c-101 0 -181 63 -181 167v334h44v-317c0 -93 61 -144 146 -144s148 64 148 158v303h42v-496zM382 557l-125 97l-127 -98l-21 21l131 124h37l127 -123z" />
    <glyph glyph-name="udieresis" unicode="&#xfc;" horiz-adv-x="517" 
d="M445 0h-43v80h-2c-33 -63 -98 -85 -154 -85c-101 0 -181 63 -181 167v334h44v-317c0 -93 61 -144 146 -144s148 64 148 158v303h42v-496zM373 608h-55v54h55v-54zM184 608h-55v54h55v-54z" />
    <glyph glyph-name="dagger" unicode="&#x2020;" horiz-adv-x="447" 
d="M424 411h-178v-605h-46v605h-177v41h177v244h46v-244h178v-41z" />
    <glyph glyph-name="Gamma" unicode="&#x393;" horiz-adv-x="507" 
d="M501 653h-374v-653h-48v696h422v-43z" />
    <glyph glyph-name="Delta" unicode="&#x394;" horiz-adv-x="585" 
d="M14 0l253 696h49c85 -232 170 -464 254 -696h-556zM293 643h-3l-78 -227c-15 -45 -117 -330 -133 -375h426l-133 376c-26 75 -53 150 -79 226z" />
    <glyph glyph-name="Delta" unicode="&#x2206;" horiz-adv-x="585" 
d="M14 0l253 696h49c85 -232 170 -464 254 -696h-556zM293 643h-3l-78 -227c-15 -45 -117 -330 -133 -375h426l-133 376c-26 75 -53 150 -79 226z" />
    <glyph glyph-name="Theta" unicode="&#x398;" horiz-adv-x="566" 
d="M283 701c149 0 238 -104 238 -248v-207c0 -155 -91 -253 -238 -253c-165 0 -240 117 -240 253v207c0 133 79 248 240 248zM284 656c-130 0 -194 -95 -194 -205v-206c0 -109 64 -208 194 -208c118 0 189 89 189 212v202c0 115 -70 205 -189 205zM136 335v41h294v-41h-294z
" />
    <glyph glyph-name="Lambda" unicode="&#x39b;" horiz-adv-x="585" 
d="M570 0h-51c-28 81 -160 453 -226 637h-3c-98 -279 -137 -385 -160 -450l-66 -187h-50l253 696h49c85 -232 170 -464 254 -696z" />
    <glyph glyph-name="Xi" unicode="&#x39e;" horiz-adv-x="554" 
d="M491 653h-433v43h433v-43zM434 332h-318v41h318v-41zM491 0h-433v43h433v-43z" />
    <glyph glyph-name="Pi" unicode="&#x3a0;" horiz-adv-x="625" 
d="M546 0h-47v655h-374v-655h-46v696h467v-696z" />
    <glyph glyph-name="germandbls" unicode="&#xdf;" horiz-adv-x="509" 
d="M457 228c0 -155 -75 -228 -182 -228h-30v37h26c103 0 140 88 140 192c0 97 -55 163 -135 163h-16v38h16c73 0 111 70 111 124c0 60 -36 131 -135 131c-111 0 -137 -93 -137 -156v-529h-43v533c0 113 65 190 185 190c113 0 174 -80 174 -160c0 -50 -20 -119 -84 -148v-2
c79 -24 110 -104 110 -185z" />
    <glyph glyph-name="registered" unicode="&#xae;" horiz-adv-x="546" 
d="M479 492c0 -120 -89 -210 -204 -210c-114 0 -204 90 -204 210c0 121 90 211 204 211c116 0 204 -90 204 -211zM452 492c0 106 -76 188 -177 188s-176 -82 -176 -188s75 -187 176 -187s177 81 177 187zM344 370l-56 109h-61v-109h-26v244h97c42 0 73 -25 73 -65
c0 -34 -22 -60 -56 -67l59 -112h-30zM294 591h-67v-88h66c30 0 52 15 52 46c0 29 -24 42 -51 42z" />
    <glyph glyph-name="copyright" unicode="&#xa9;" horiz-adv-x="780" 
d="M496 226l35 -16c-23 -53 -72 -86 -134 -86c-101 0 -147 71 -147 153v122c0 81 51 151 147 151c62 0 109 -32 132 -81l-34 -17c-17 36 -52 62 -97 62c-75 0 -111 -54 -111 -117v-120c0 -62 36 -118 111 -118c46 0 79 26 98 67zM393 -10c-194 0 -341 151 -341 351
c0 201 148 352 341 352c194 0 343 -151 343 -352c0 -200 -149 -351 -343 -351zM393 658c-171 0 -303 -138 -303 -317c0 -177 132 -317 303 -317c173 0 305 140 305 317c0 179 -132 317 -305 317z" />
    <glyph glyph-name="Sigma" unicode="&#x3a3;" horiz-adv-x="484" 
d="M455 0h-422v42l188 319l-186 295v40h409v-41h-357l188 -294l-189 -318h369v-43z" />
    <glyph glyph-name="Iotadieresis" unicode="&#x3aa;" horiz-adv-x="212" 
d="M129 0h-46v696h46v-696zM223 759h-54v53h54v-53zM45 759h-55v53h55v-53z" />
    <glyph glyph-name="section" unicode="&#xa7;" horiz-adv-x="447" 
d="M410 281c0 -41 -16 -82 -51 -113c24 -28 37 -59 37 -96c0 -87 -65 -151 -181 -151c-61 0 -126 28 -163 65l26 28c41 -36 90 -54 136 -54c80 0 139 32 139 113c0 66 -60 96 -141 125c-114 40 -160 75 -160 155c0 39 21 80 57 110c-24 23 -44 57 -44 96
c0 86 64 144 159 144c61 0 114 -19 154 -52l-26 -34c-40 32 -83 46 -129 46c-70 0 -116 -40 -116 -99c0 -73 80 -97 150 -123c73 -25 153 -67 153 -160zM369 281c1 71 -61 98 -146 128c-28 10 -52 20 -78 34c-31 -22 -53 -56 -53 -88c0 -76 78 -94 130 -116
c36 -14 76 -30 104 -46c30 22 43 53 43 88z" />
    <glyph glyph-name="degree" unicode="&#xb0;" horiz-adv-x="362" 
d="M304 577c0 -68 -54 -122 -123 -122c-68 0 -122 54 -122 122s55 122 122 122c70 0 123 -54 123 -122zM271 577c0 50 -40 91 -90 91s-89 -41 -89 -91s39 -90 89 -90s90 37 90 90z" />
    <glyph glyph-name="periodcentered" unicode="&#xb7;" horiz-adv-x="174" 
d="M117 232h-59v65h59v-65z" />
    <glyph glyph-name="Alpha" unicode="&#x391;" horiz-adv-x="585" 
d="M519 0l-60 170h-335l-60 -170h-50l253 696h49c85 -232 170 -464 254 -696h-51zM293 639h-3c-15 -43 -133 -376 -152 -428h307l-90 254c-21 58 -42 116 -62 174z" />
    <glyph glyph-name="plusminus" unicode="&#xb1;" horiz-adv-x="467" 
d="M438 271h-186v-189h-37v189h-186v37h186v187h37v-187h186v-37zM440 0h-411v37h411v-37z" />
    <glyph glyph-name="yen" unicode="&#xa5;" horiz-adv-x="467" 
d="M429 228v-34h-174v-194h-43v194h-172v34h172v58c-3 9 -8 17 -12 26h-160v33h144c-58 117 -117 233 -175 351h47l177 -365h2l175 365h46c-57 -118 -114 -234 -172 -351h145v-33h-161l-13 -26v-58h174z" />
    <glyph glyph-name="Beta" unicode="&#x392;" horiz-adv-x="585" 
d="M546 186c0 -113 -83 -186 -187 -186h-280v696h253c128 0 198 -77 198 -177c0 -53 -26 -130 -117 -158v-2c96 -18 133 -105 133 -173zM324 655h-199v-277h199c97 0 159 56 159 139c0 79 -57 138 -159 138zM338 337h-213v-294h214c106 0 158 63 158 147
c0 78 -51 147 -159 147z" />
    <glyph glyph-name="Epsilon" unicode="&#x395;" horiz-adv-x="528" 
d="M501 0h-422v696h422v-43h-375v-279h320v-42h-320v-289h375v-43z" />
    <glyph glyph-name="Zeta" unicode="&#x396;" horiz-adv-x="488" 
d="M455 0h-422v42l370 613h-354v41h406v-40l-370 -613h370v-43z" />
    <glyph glyph-name="Eta" unicode="&#x397;" horiz-adv-x="625" 
d="M546 0h-47v332h-374v-332h-46v696h46v-322h374v322h47v-696z" />
    <glyph glyph-name="Iota" unicode="&#x399;" horiz-adv-x="212" 
d="M129 0h-46v696h46v-696z" />
    <glyph glyph-name="Kappa" unicode="&#x39a;" horiz-adv-x="606" 
d="M528 0c-77 131 -155 262 -233 393l-170 -209v-184h-47v696h47v-444h1c58 71 114 141 172 211l191 233h52l-216 -266c86 -144 170 -287 256 -430h-53z" />
    <glyph glyph-name="Mu" unicode="&#x39c;" horiz-adv-x="741" 
d="M626 0v591h-1l-104 -220l-126 -262h-40l-126 264l-105 218c0 -1 0 -1 -1 -1v-590h-45v696h47l156 -328c32 -66 63 -133 94 -200h1l251 528h45v-696h-46z" />
    <glyph glyph-name="Phi" unicode="&#x3a6;" horiz-adv-x="726" 
d="M685 356c0 -201 -127 -291 -298 -298v-58h-46v58c-203 8 -295 127 -295 298c0 134 51 296 295 306v34h46v-33c213 -5 298 -132 298 -307zM387 624v-527c143 4 254 73 254 259c0 182 -99 267 -254 268zM341 625c-168 -9 -252 -96 -252 -269c2 -156 74 -251 252 -259v528z
" />
    <glyph glyph-name="Upsilondieresis" unicode="&#x3ab;" horiz-adv-x="475" 
d="M259 288v-288h-44v288l-209 408h49c27 -52 161 -322 182 -365c25 49 49 98 73 148c37 72 74 144 109 217h48c-70 -136 -139 -272 -208 -408zM299 758v53h54v-53h-54zM120 758v53h54v-53h-54z" />
    <glyph glyph-name="Psi" unicode="&#x3a8;" horiz-adv-x="718" 
d="M651 389c0 -141 -99 -235 -269 -242v-147h-46v148c-172 5 -269 106 -269 252v296h45v-292c0 -123 83 -208 224 -212v504h46v-503c137 1 222 74 222 200v303h47v-307z" />
    <glyph glyph-name="Omega" unicode="&#x3a9;" horiz-adv-x="566" 
d="M147 42c-64 30 -105 117 -105 215v196c0 133 79 248 240 248c149 0 238 -104 238 -248v-196c0 -98 -34 -174 -102 -214c0 -1 1 -1 1 -1h117v-42h-191v51c81 26 127 105 127 205v195c0 116 -68 206 -189 206c-132 0 -194 -95 -194 -206v-195c0 -89 43 -178 129 -206v-50
h-191v42h120z" />
    <glyph glyph-name="alphatonos" unicode="&#x3ac;" horiz-adv-x="500" 
d="M55 242c0 140 46 260 189 260c52 0 112 -15 149 -91l1 1v84h44v-496h-44v91h-1c-27 -51 -76 -96 -152 -96c-144 0 -186 126 -186 247zM101 248c0 -95 24 -212 148 -212c110 0 145 104 145 214c0 85 -19 212 -145 212c-130 0 -148 -124 -148 -214zM242 563l-28 12l79 154
l48 -19z" />
    <glyph glyph-name="Nu" unicode="&#x39d;" horiz-adv-x="663" 
d="M537 0l-261 392c-50 75 -99 149 -148 225c-1 0 -1 -1 -1 -1v-616h-47v696h48l258 -388c18 -27 134 -204 151 -231c1 0 1 0 1 1v618h46v-696h-47z" />
    <glyph glyph-name="Omicron" unicode="&#x39f;" horiz-adv-x="571" 
d="M286 701c149 0 238 -104 238 -248v-207c0 -155 -91 -253 -238 -253c-165 0 -241 117 -241 253v207c0 133 79 248 241 248zM287 657c-130 0 -194 -95 -194 -206v-207c0 -109 64 -208 194 -208c118 0 189 89 189 212v203c0 116 -70 206 -189 206z" />
    <glyph glyph-name="Rho" unicode="&#x3a1;" horiz-adv-x="555" 
d="M544 494c0 -92 -66 -196 -206 -196h-211v-298h-47v696h248c111 0 216 -55 216 -202zM494 497c0 105 -74 156 -166 156h-201v-311h205c115 0 162 78 162 155z" />
    <glyph glyph-name="Tau" unicode="&#x3a4;" horiz-adv-x="478" 
d="M471 655h-207v-655h-46v655h-210v41h463v-41z" />
    <glyph glyph-name="guillemotleft" unicode="&#xab;" horiz-adv-x="407" 
d="M359 46h-45l-117 173l118 172h44l-115 -172zM224 46h-46l-116 173l118 172h44l-115 -172z" />
    <glyph glyph-name="guillemotright" unicode="&#xbb;" horiz-adv-x="407" 
d="M108 46h-44l115 173l-116 172h44l118 -172zM243 46h-45l115 173l-115 172h44l118 -172z" />
    <glyph glyph-name="ellipsis" unicode="&#x2026;" horiz-adv-x="575" 
d="M120 0h-60v65h60v-65zM511 0h-60v65h60v-65zM320 0h-60v65h60v-65z" />
    <glyph glyph-name="Upsilon" unicode="&#x3a5;" horiz-adv-x="475" 
d="M259 288v-288h-44v288l-209 408h49c27 -52 161 -322 182 -365c25 49 49 98 73 148c37 72 74 144 109 217h48c-70 -136 -139 -272 -208 -408z" />
    <glyph glyph-name="Chi" unicode="&#x3a7;" horiz-adv-x="500" 
d="M488 0h-51l-187 318l-187 -318h-52l213 357l-198 339h52l172 -300l172 300h52l-199 -339z" />
    <glyph glyph-name="Alphatonos" unicode="&#x386;" horiz-adv-x="585" 
d="M519 0l-60 170h-335l-60 -170h-50l253 696h49c85 -232 170 -464 254 -696h-51zM293 639h-3c-15 -43 -133 -376 -152 -428h307l-90 254c-21 58 -42 116 -62 174zM14 556l-26 12c25 51 52 103 78 153c16 -6 32 -13 48 -18z" />
    <glyph glyph-name="Epsilontonos" unicode="&#x388;" horiz-adv-x="528" 
d="M501 0h-422v696h422v-43h-375v-279h320v-42h-320v-289h375v-43zM-73 556l-28 12l79 154l48 -19z" />
    <glyph glyph-name="oe" unicode="&#x153;" horiz-adv-x="829" 
d="M442 241c0 -40 4 -77 16 -109c25 -64 80 -99 152 -99c42 0 86 13 121 40l27 -32c-42 -33 -92 -47 -144 -47c-75 0 -158 23 -193 126c-10 -33 -25 -57 -42 -74c-34 -35 -82 -52 -140 -52c-57 0 -101 16 -133 45c-42 43 -65 104 -65 210c0 103 26 168 72 206
c34 28 76 45 130 45c71 0 127 -28 161 -80c7 -11 14 -26 18 -46c35 97 110 127 177 127c131 0 196 -99 196 -226v-34h-353zM242 461c-46 0 -83 -17 -109 -45c-31 -36 -48 -82 -48 -169c0 -56 6 -97 20 -128c24 -53 70 -87 136 -87c45 0 83 16 109 43c14 15 27 34 35 61
c9 28 12 62 12 109c0 82 -11 120 -28 147c-26 44 -71 69 -127 69zM600 461c-94 0 -151 -66 -157 -184h306c-4 124 -60 184 -149 184z" />
    <glyph glyph-name="endash" unicode="&#x2013;" horiz-adv-x="493" 
d="M473 243h-453v43h453v-43z" />
    <glyph glyph-name="afii00208" unicode="&#x2015;" horiz-adv-x="993" 
d="M973 243h-953v43h953v-43z" />
    <glyph glyph-name="quotedblleft" unicode="&#x201c;" horiz-adv-x="251" 
d="M81 719h29l-26 -100h16v-66h-60v68c14 32 27 65 41 98zM182 719h28l-26 -100h16v-66h-60v68c14 32 27 65 42 98z" />
    <glyph glyph-name="quotedblright" unicode="&#x201d;" horiz-adv-x="251" 
d="M177 553h-29l26 100h-16v66h60v-68c-14 -32 -27 -65 -41 -98zM76 553h-28l26 100h-16v66h60v-68c-14 -32 -27 -65 -42 -98z" />
    <glyph glyph-name="quoteleft" unicode="&#x2018;" horiz-adv-x="189" 
d="M105 719h28l-26 -100h16v-66h-60v68c14 32 27 65 42 98z" />
    <glyph glyph-name="quoteright" unicode="&#x2019;" horiz-adv-x="189" 
d="M91 554h-28l26 100h-16v66h60v-68z" />
    <glyph glyph-name="divide" unicode="&#xf7;" horiz-adv-x="467" 
d="M274 448c0 -21 -17 -39 -38 -39c-22 0 -39 18 -39 39c0 23 18 37 39 37c20 0 38 -14 38 -37zM441 261h-416v37h416v-37zM237 147c19 0 37 -14 37 -37c0 -21 -17 -38 -38 -38c-22 0 -39 17 -39 38c0 22 19 37 40 37z" />
    <glyph glyph-name="Etatonos" unicode="&#x389;" horiz-adv-x="625" 
d="M546 0h-47v332h-374v-332h-46v696h46v-322h374v322h47v-696zM-69 556l-28 12l79 154l48 -19z" />
    <glyph glyph-name="Iotatonos" unicode="&#x38a;" horiz-adv-x="212" 
d="M129 0h-46v696h46v-696zM-75 556l-27 12l78 154l49 -19z" />
    <glyph glyph-name="Omicrontonos" unicode="&#x38c;" horiz-adv-x="571" 
d="M286 701c149 0 238 -104 238 -248v-207c0 -155 -91 -253 -238 -253c-165 0 -241 117 -241 253v207c0 133 79 248 241 248zM287 657c-130 0 -194 -95 -194 -206v-207c0 -109 64 -208 194 -208c118 0 189 89 189 212v203c0 116 -70 206 -189 206zM-69 556l-27 12l78 154
l49 -19z" />
    <glyph glyph-name="Upsilontonos" unicode="&#x38e;" horiz-adv-x="475" 
d="M259 288v-288h-44v288l-209 408h49c27 -52 161 -322 182 -365c25 49 49 98 73 148c37 72 74 144 109 217h48c-70 -136 -139 -272 -208 -408zM-116 556l-28 12l79 153c16 -6 32 -13 48 -18z" />
    <glyph glyph-name="epsilontonos" unicode="&#x3ad;" horiz-adv-x="427" 
d="M145 259v2c-73 20 -81 78 -81 107c0 64 52 133 180 133c58 0 115 -19 155 -52l-27 -32c-33 26 -85 44 -129 44c-75 0 -136 -33 -136 -94c0 -57 47 -87 120 -87h64v-37h-67c-64 0 -127 -39 -127 -105c0 -69 69 -102 152 -102c39 0 94 16 127 43l27 -32
c-41 -33 -101 -51 -160 -51c-125 0 -190 59 -190 145c0 28 16 94 92 118zM227 563l-28 12l79 154l48 -19z" />
    <glyph glyph-name="etatonos" unicode="&#x3ae;" horiz-adv-x="508" 
d="M443 0h-43v317c0 92 -47 142 -140 142c-85 0 -153 -65 -153 -159v-300h-43v495h43v-85h2c33 63 103 90 160 90c111 0 174 -61 174 -168v-332zM218 563l-27 12l78 154l49 -19z" />
    <glyph glyph-name="iotatonos" unicode="&#x3af;" horiz-adv-x="206" 
d="M168 36v-38h-15c-62 0 -79 33 -79 92v404h43v-406c0 -40 12 -52 47 -52h4zM100 563l-27 12l78 154l49 -19z" />
    <glyph glyph-name="omicrontonos" unicode="&#x3cc;" horiz-adv-x="489" 
d="M238 563l-28 12l79 154l48 -19zM249 501c71 0 127 -29 160 -80c23 -37 35 -87 35 -177s-21 -146 -49 -182c-36 -46 -89 -68 -154 -68c-63 0 -110 20 -142 56c-36 41 -55 102 -55 199c0 91 22 147 54 185c34 41 85 67 151 67zM247 462c-51 0 -90 -23 -116 -56
s-43 -77 -43 -159c0 -83 17 -129 43 -162s64 -52 113 -52c51 0 92 22 119 61c21 30 37 69 37 151c0 81 -11 120 -27 147c-26 44 -71 70 -126 70z" />
    <glyph glyph-name="Omegatonos" unicode="&#x38f;" horiz-adv-x="566" 
d="M147 42c-64 30 -105 117 -105 215v196c0 133 79 248 240 248c149 0 238 -104 238 -248v-196c0 -98 -34 -174 -102 -214c0 -1 1 -1 1 -1h117v-42h-191v51c81 26 127 105 127 205v195c0 116 -68 206 -189 206c-132 0 -194 -95 -194 -206v-195c0 -89 43 -178 129 -206v-50
h-191v42h120zM-70 556l-27 12l79 153c16 -6 30 -13 47 -18c-32 -49 -66 -98 -99 -147z" />
    <glyph glyph-name="upsilontonos" unicode="&#x3cd;" horiz-adv-x="522" 
d="M452 495v-317c0 -119 -77 -185 -191 -185s-190 75 -190 183v319h43v-302c0 -94 57 -159 148 -159s146 59 146 150v311h44zM242 563l-28 12l79 154l48 -19z" />
    <glyph glyph-name="alpha" unicode="&#x3b1;" horiz-adv-x="500" 
d="M55 242c0 140 46 260 189 260c52 0 112 -15 149 -91l1 1v84h44v-496h-44v91h-1c-27 -51 -76 -96 -152 -96c-144 0 -186 126 -186 247zM101 248c0 -95 24 -212 148 -212c110 0 145 104 145 214c0 85 -19 212 -145 212c-130 0 -148 -124 -148 -214z" />
    <glyph glyph-name="beta" unicode="&#x3b2;" horiz-adv-x="504" 
d="M453 228c-1 -140 -65 -234 -191 -234c-42 0 -111 13 -149 94l-1 -221h-43v662c0 112 58 194 182 194s168 -94 168 -165c0 -54 -24 -118 -78 -141v-2c85 -17 112 -108 112 -187zM271 394h-74v37h60c81 0 118 59 118 123c0 47 -28 131 -125 131c-109 0 -138 -87 -138 -152
v-307c0 -74 27 -194 144 -194c118 0 154 101 154 196c0 82 -35 166 -139 166z" />
    <glyph glyph-name="psi" unicode="&#x3c8;" horiz-adv-x="610" 
d="M547 197c0 -120 -88 -196 -221 -200v-197h-43v197c-137 4 -219 91 -219 191v306h43v-291c0 -92 61 -158 176 -165v476h43v-476c102 3 178 61 178 169v287h43v-297z" />
    <glyph glyph-name="delta" unicode="&#x3b4;" horiz-adv-x="482" 
d="M262 723c55 0 100 -14 138 -33c-7 -13 -14 -26 -20 -39c-36 19 -77 32 -119 32c-60 0 -117 -35 -117 -94c0 -78 87 -96 140 -117c45 -17 87 -39 114 -78c24 -34 40 -80 40 -160c0 -88 -13 -136 -55 -184c-35 -37 -85 -56 -145 -56c-55 0 -97 13 -129 41
c-46 41 -68 104 -68 199c0 60 13 111 37 150c25 39 56 65 107 82c-55 28 -87 70 -87 122c0 72 61 135 164 135zM240 32c44 0 81 16 108 43c42 42 46 91 46 159c0 69 -12 103 -30 131c-26 43 -67 66 -125 77c-56 -6 -101 -38 -127 -81c-18 -32 -27 -73 -27 -126
c0 -76 10 -126 49 -165c23 -24 64 -38 106 -38z" />
    <glyph glyph-name="epsilon" unicode="&#x3b5;" horiz-adv-x="427" 
d="M145 259v2c-73 20 -81 78 -81 107c0 64 52 133 180 133c58 0 115 -19 155 -52l-27 -32c-33 26 -85 44 -129 44c-75 0 -136 -33 -136 -94c0 -57 47 -87 120 -87h64v-37h-67c-64 0 -127 -39 -127 -105c0 -69 69 -102 152 -102c39 0 94 16 127 43l27 -32
c-41 -33 -101 -51 -160 -51c-125 0 -190 59 -190 145c0 28 16 94 92 118z" />
    <glyph glyph-name="phi" unicode="&#x3c6;" horiz-adv-x="576" 
d="M310 461v-428c58 0 109 20 137 60c26 30 39 71 39 154c0 75 -8 116 -27 146c-27 43 -81 68 -149 68zM264 -200v195c-66 0 -122 17 -157 53c-42 39 -61 96 -61 197c0 113 24 202 128 243l16 -37c-87 -41 -100 -110 -100 -207c0 -88 14 -129 43 -160c29 -33 76 -52 131 -52
v468h49c85 0 148 -29 182 -79c24 -37 35 -85 35 -175c0 -91 -16 -146 -50 -184c-34 -40 -91 -66 -170 -67v-195h-46z" />
    <glyph glyph-name="gamma" unicode="&#x3b3;" horiz-adv-x="421" 
d="M237 15v-215h-44v210c-46 140 -93 277 -145 414c-10 26 -18 34 -32 34c-3 0 -8 -1 -13 -2l-3 38c11 3 21 5 30 5c29 0 45 -17 58 -51c53 -145 89 -253 127 -370c21 60 139 376 156 417h47c-64 -159 -120 -311 -181 -480z" />
    <glyph glyph-name="eta" unicode="&#x3b7;" horiz-adv-x="508" 
d="M443 0h-43v317c0 92 -47 142 -140 142c-85 0 -153 -65 -153 -159v-300h-43v495h43v-85h2c33 63 103 90 160 90c111 0 174 -61 174 -168v-332z" />
    <glyph glyph-name="iota" unicode="&#x3b9;" horiz-adv-x="206" 
d="M168 36v-38h-15c-62 0 -79 33 -79 92v404h43v-406c0 -40 12 -52 47 -52h4z" />
    <glyph glyph-name="xi" unicode="&#x3be;" horiz-adv-x="395" 
d="M212 58c50 -18 92 -32 131 -48c45 -18 61 -41 61 -72c0 -18 -7 -42 -25 -71c-11 -18 -23 -37 -35 -54l-35 20c9 15 18 29 27 47c7 14 17 33 17 46c0 20 -14 37 -49 50c-56 21 -69 25 -115 41c-86 30 -151 85 -151 188c0 50 23 152 139 194c-98 25 -116 110 -116 151
c0 118 96 173 207 173c43 -1 97 -10 141 -33c-7 -12 -13 -25 -20 -38c-44 23 -85 30 -126 30c-90 0 -156 -53 -156 -133c0 -86 84 -132 164 -132h83v-39h-109c-99 0 -160 -87 -160 -172c0 -82 64 -125 127 -148z" />
    <glyph glyph-name="kappa" unicode="&#x3ba;" horiz-adv-x="479" 
d="M424 0l-185 283c-42 -47 -84 -94 -125 -142v-141h-43v496h43v-296h1c88 98 175 197 263 296h52l-162 -183l207 -313h-51z" />
    <glyph glyph-name="lambda" unicode="&#x3bb;" horiz-adv-x="430" 
d="M428 37l1 -37c-9 -2 -17 -2 -25 -2c-31 0 -47 15 -61 55c-15 48 -110 331 -123 372h-1l-170 -425h-47l195 485c-16 49 -31 98 -48 146c-12 35 -22 50 -56 50c-5 0 -13 0 -19 -1l-3 40c13 3 23 4 34 4c39 0 60 -18 78 -59c7 -17 14 -35 21 -55l181 -541
c10 -28 20 -32 43 -32z" />
    <glyph glyph-name="mu" unicode="&#xb5;" horiz-adv-x="514" 
d="M450 0h-42v80h-3c-33 -63 -97 -85 -154 -85c-56 0 -105 23 -135 59h-2v-254h-43v696h43v-317c0 -93 66 -143 146 -143c85 0 148 63 148 157v303h42v-496z" />
    <glyph glyph-name="mu" unicode="&#x3bc;" horiz-adv-x="514" 
d="M450 0h-42v80h-3c-33 -63 -97 -85 -154 -85c-56 0 -105 23 -135 59h-2v-254h-43v696h43v-317c0 -93 66 -143 146 -143c85 0 148 63 148 157v303h42v-496z" />
    <glyph glyph-name="nu" unicode="&#x3bd;" horiz-adv-x="429" 
d="M416 494l-182 -494h-41l-183 494h47c20 -54 140 -387 156 -433h2l63 180c30 84 62 169 91 253h47z" />
    <glyph glyph-name="omicron" unicode="&#x3bf;" horiz-adv-x="489" 
d="M249 501c71 0 127 -29 160 -80c23 -37 35 -87 35 -177s-21 -146 -49 -182c-36 -46 -89 -68 -154 -68c-63 0 -110 20 -142 56c-36 41 -55 102 -55 199c0 91 22 147 54 185c34 41 85 67 151 67zM247 462c-51 0 -90 -23 -116 -56s-43 -77 -43 -159c0 -83 17 -129 43 -162
s64 -52 113 -52c51 0 92 22 119 61c21 30 37 69 37 151c0 81 -11 120 -27 147c-26 44 -71 70 -126 70z" />
    <glyph glyph-name="pi" unicode="&#x3c0;" horiz-adv-x="522" 
d="M451 0h-44v459h-293v-459h-43v495h380v-495z" />
    <glyph glyph-name="omegatonos" unicode="&#x3ce;" horiz-adv-x="758" 
d="M537 -5c-59 0 -126 23 -157 100c-38 -80 -94 -101 -156 -101c-150 0 -178 120 -178 254c0 124 32 229 159 249l5 -41c-114 -21 -120 -131 -120 -244c0 -95 40 -179 134 -179c87 0 132 75 132 146v190h43v-190c0 -71 46 -145 139 -145c104 0 133 84 133 214
c0 100 -19 191 -120 209l5 41c128 -19 160 -125 160 -249c0 -134 -29 -254 -179 -254zM362 563c-9 4 -18 7 -27 12l79 153c16 -6 31 -13 48 -19z" />
    <glyph glyph-name="rho" unicode="&#x3c1;" horiz-adv-x="498" 
d="M256 501c71 0 128 -29 161 -80c24 -37 36 -87 36 -177s-20 -146 -49 -182c-34 -46 -85 -67 -147 -67c-56 0 -111 18 -151 84l-1 -1v-278h-44v449c0 84 20 148 50 184c34 40 80 68 145 68zM255 462c-47 0 -86 -23 -112 -57c-22 -27 -38 -77 -38 -158
c1 -94 13 -204 150 -212c51 0 92 19 117 59c23 29 37 69 37 151c0 81 -11 120 -27 147c-26 44 -72 70 -127 70z" />
    <glyph glyph-name="sigma" unicode="&#x3c3;" horiz-adv-x="497" 
d="M352 457v-3c52 -26 86 -82 86 -212c0 -185 -91 -248 -200 -248c-122 0 -196 76 -196 253c0 176 84 249 200 249h235v-39h-125zM241 455c-91 0 -155 -58 -155 -209c0 -156 62 -213 154 -213c83 0 154 41 154 210c0 123 -36 212 -153 212z" />
    <glyph glyph-name="tau" unicode="&#x3c4;" horiz-adv-x="327" 
d="M290 0h-51c-63 0 -104 36 -104 105v353h-120v38h299v-38h-136v-338c0 -56 23 -81 74 -81h38v-39z" />
    <glyph glyph-name="theta" unicode="&#x3b8;" horiz-adv-x="489" 
d="M249 724c70 0 120 -30 152 -81c21 -34 44 -91 44 -277c0 -194 -29 -267 -57 -304c-32 -42 -78 -68 -146 -68c-62 0 -105 21 -137 58c-33 38 -60 114 -60 311c0 186 32 254 62 292c33 42 77 69 142 69zM403 358h-316c-1 -186 21 -241 46 -274s60 -51 112 -51
c53 0 88 22 114 61c20 30 45 90 44 264zM247 684c-50 0 -86 -22 -110 -55c-23 -31 -48 -72 -50 -232h316c-1 150 -22 193 -35 217c-24 44 -61 70 -121 70z" />
    <glyph glyph-name="omega" unicode="&#x3c9;" horiz-adv-x="737" 
d="M533 457l8 41c112 -15 155 -108 155 -252c0 -154 -55 -251 -179 -251c-59 0 -121 24 -149 101c-32 -73 -88 -102 -146 -102c-129 0 -179 100 -179 253c0 142 50 233 157 250l7 -41c-79 -15 -120 -88 -120 -210c0 -128 39 -212 135 -212c82 0 122 74 122 146v189h44v-189
c0 -71 40 -145 129 -145s134 79 134 211c0 123 -35 197 -118 211z" />
    <glyph glyph-name="sigma1" unicode="&#x3c2;" horiz-adv-x="417" 
d="M295 -11l-92 33c-111 42 -152 100 -152 225c0 184 115 254 222 254c54 0 109 -15 152 -51c-10 -11 -19 -24 -29 -36c-33 29 -77 43 -119 43c-108 0 -180 -72 -180 -208c0 -83 23 -144 114 -180c40 -15 79 -30 118 -46c47 -18 67 -45 67 -76c0 -26 -17 -63 -60 -120
l-34 20c10 15 16 25 23 38c9 15 20 38 20 52c0 21 -16 39 -50 52z" />
    <glyph glyph-name="chi" unicode="&#x3c7;" horiz-adv-x="441" 
d="M412 0h-52l-140 223l-139 -223h-52l165 254l-157 241h52l131 -211l130 211h53l-157 -241z" />
    <glyph glyph-name="upsilon" unicode="&#x3c5;" horiz-adv-x="522" 
d="M452 495v-317c0 -119 -77 -185 -191 -185s-190 75 -190 183v319h43v-302c0 -94 57 -159 148 -159s146 59 146 150v311h44z" />
    <glyph glyph-name="zeta" unicode="&#x3b6;" horiz-adv-x="373" 
d="M88 207c0 -88 59 -124 121 -147l123 -45c53 -20 70 -46 70 -78c0 -38 -41 -95 -64 -126l-34 20l28 47c10 18 18 37 18 52c0 20 -13 35 -48 48l-115 41c-84 31 -145 86 -145 187c0 104 96 286 330 466h-290v39h352v-37c-165 -123 -346 -327 -346 -467z" />
    <glyph glyph-name="iotadieresis" unicode="&#x3ca;" horiz-adv-x="206" 
d="M168 36v-38h-15c-62 0 -79 33 -79 92v404h43v-406c0 -40 12 -52 47 -52h4zM217 608h-55v54h55v-54zM27 608h-54v54h54v-54z" />
    <glyph glyph-name="upsilondieresis" unicode="&#x3cb;" horiz-adv-x="522" 
d="M452 495v-317c0 -119 -77 -185 -191 -185s-190 75 -190 183v319h43v-302c0 -94 57 -159 148 -159s146 59 146 150v311h44zM381 608h-55v54h55v-54zM191 608h-54v54h54v-54z" />
    <glyph glyph-name="iotadieresistonos" unicode="&#x390;" horiz-adv-x="206" 
d="M168 36v-38h-15c-62 0 -79 33 -79 92v404h43v-406c0 -40 12 -52 47 -52h4zM232 606h-55v53h55v-53zM24 606h-54v53h54v-53zM71 563l-28 12l79 154l48 -19z" />
    <glyph glyph-name="upsilondieresistonos" unicode="&#x3b0;" horiz-adv-x="522" 
d="M452 495v-317c0 -119 -77 -185 -191 -185s-190 75 -190 183v319h43v-302c0 -94 57 -159 148 -159s146 59 146 150v311h44zM391 606h-54v53h54v-53zM184 606h-54v53h54v-53zM230 563l-27 12l78 154l49 -19z" />
    <glyph glyph-name="space" unicode=" " horiz-adv-x="221" 
 />
    <glyph glyph-name="AE" unicode="&#xc6;" horiz-adv-x="920" 
d="M886 0h-422v185h-292l-117 -185h-51l439 696h443v-43h-374v-279h320v-42h-320v-289h374v-43zM464 651l-265 -425h265v425z" />
    <glyph glyph-name="ae" unicode="&#xe6;" horiz-adv-x="809" 
d="M420 238c0 -114 41 -207 170 -207c40 0 84 15 119 42l27 -32c-42 -33 -91 -47 -144 -47c-70 0 -147 20 -186 106c-22 -52 -80 -106 -196 -106c-95 0 -174 42 -174 137c0 80 54 143 159 143h182v75c0 70 -41 111 -131 111c-49 0 -106 -11 -147 -45l-27 31
c49 42 117 55 170 55c82 0 150 -22 170 -100c38 76 105 100 165 100c134 0 196 -102 196 -226v-37h-353zM377 238h-170c-73 0 -128 -34 -128 -101c0 -68 53 -105 137 -105c89 0 161 43 161 130v76zM578 461c-94 0 -151 -69 -156 -187h306c-5 125 -61 187 -150 187z" />
    <glyph glyph-name="Euro" unicode="&#x20ac;" horiz-adv-x="467" 
d="M342 384h-243v-68h245v-34h-245v-43c0 -105 53 -206 169 -206c74 0 120 38 154 102l39 -18c-39 -82 -103 -124 -193 -124c-147 0 -215 114 -215 251v38h-40v34h40v68h-40v34h40v39c0 133 71 245 215 245c89 0 156 -44 193 -117l-42 -19c-32 61 -86 95 -151 95
c-119 0 -169 -101 -169 -207v-36h243v-34z" />
    <glyph glyph-name="florin" unicode="&#x192;" horiz-adv-x="467" 
d="M125 369v38h97c22 155 34 294 179 294c24 0 51 -4 73 -11l-12 -41c-21 7 -42 10 -62 10c-98 0 -110 -90 -132 -252h111v-38h-116l-34 -243c-18 -134 -51 -219 -164 -219c-21 0 -53 5 -76 12c3 9 6 17 12 39c21 -7 42 -11 61 -11c63 0 101 42 116 148l39 274h-92z" />
    <glyph glyph-name="circumflex" unicode="&#x2c6;" horiz-adv-x="482" 
d="M368 557l-126 97l-127 -98l-21 21l132 124h37l126 -123z" />
    <glyph glyph-name="multiply" unicode="&#xd7;" horiz-adv-x="495" 
d="M437 432l-159 -159l158 -158l-26 -26l-158 157l-160 -160l-26 26l160 161l-156 157l26 26l157 -157l159 159z" />
    <glyph glyph-name="brokenbar" unicode="&#xa6;" horiz-adv-x="174" 
d="M106 305h-34v411h34v-411zM72 249h34v-411h-34v411z" />
    <glyph glyph-name="acute" unicode="&#xb4;" horiz-adv-x="482" 
d="M233 563l-27 12l78 154l49 -19z" />
    <glyph glyph-name="dotlessi" unicode="&#x131;" horiz-adv-x="191" 
d="M119 0h-46v496h46v-496z" />
    <glyph glyph-name="logicalnot" unicode="&#xac;" horiz-adv-x="467" 
d="M439 299l-1 -232h-36v194h-376v38h413z" />
    <glyph glyph-name="cedilla" unicode="&#xb8;" horiz-adv-x="414" 
d="M254 14c-6 -19 -12 -38 -19 -57c77 -6 94 -48 94 -77s-25 -72 -91 -72c-12 0 -46 1 -80 13l10 25c25 -9 50 -12 68 -12c19 0 57 12 57 47c0 31 -34 50 -79 50h-4l-10 8l25 76c10 0 20 -1 29 -1z" />
    <glyph glyph-name="eth" unicode="&#xf0;" horiz-adv-x="491" 
d="M245 476c69 0 137 -40 158 -104h3c0 84 -11 164 -42 215l-73 -52l-15 22l73 52c-30 41 -75 70 -154 80l7 37c87 -6 146 -41 182 -90l74 53l17 -23l-75 -53c42 -72 49 -169 49 -281c0 -87 -5 -202 -57 -270c-33 -43 -85 -68 -153 -68c-61 0 -110 18 -142 55
c-37 41 -55 103 -55 188c0 86 23 137 55 174c35 40 83 65 148 65zM244 436c-54 0 -95 -23 -122 -60c-20 -28 -36 -69 -36 -142c0 -70 16 -116 42 -150c26 -33 65 -51 114 -51s89 22 117 60c23 31 40 74 40 146c0 80 -20 119 -44 147c-27 31 -65 50 -111 50z" />
    <glyph glyph-name="tilde" unicode="&#x2dc;" horiz-adv-x="482" 
d="M314 588c-40 0 -89 41 -127 41c-25 0 -43 -13 -64 -38l-28 16c25 42 58 65 92 65c42 0 92 -42 126 -42c20 0 38 11 57 40l29 -17c-25 -47 -53 -65 -85 -65z" />
    <glyph glyph-name="caron" unicode="&#x2c7;" horiz-adv-x="482" 
d="M242 605l126 96l21 -20l-126 -124h-37l-132 124l21 21z" />
    <glyph glyph-name="breve" unicode="&#x2d8;" horiz-adv-x="498" 
d="M126 674h39c8 -44 46 -73 89 -73c44 0 78 23 88 73h39c-8 -50 -43 -110 -127 -110c-85 0 -123 60 -128 110z" />
    <glyph glyph-name="exclam" unicode="!" horiz-adv-x="212" 
d="M129 696l-7 -508h-31l-7 508h45zM134 0h-54v60h54v-60z" />
    <glyph glyph-name="uni1FBD" unicode="&#x1fbd;" horiz-adv-x="478" 
d="M259 570l-24 12c15 27 25 53 25 74c0 24 -11 46 -52 55l20 46c51 -12 80 -43 80 -85c0 -29 -15 -67 -49 -102z" />
    <glyph glyph-name="uni1FBE" unicode="&#x1fbe;" horiz-adv-x="500" 
d="M239 -67h43v-75c0 -41 10 -75 64 -75h13v-38h-22c-63 0 -98 33 -98 103v85z" />
    <glyph glyph-name="uni1FC1" unicode="&#x1fc1;" horiz-adv-x="522" 
d="M374 570h-54v54h54v-54zM221 570h-54v54h54v-54zM337 671c-40 0 -89 41 -127 41c-25 0 -43 -13 -64 -38l-28 16c25 42 58 65 92 65c42 0 92 -42 126 -42c20 0 38 11 57 40l29 -17c-25 -47 -53 -65 -85 -65z" />
    <glyph glyph-name="uni1FCD" unicode="&#x1fcd;" horiz-adv-x="500" 
d="M180 570l-24 13c16 27 25 52 25 73c0 24 -10 45 -52 55l20 46c52 -12 81 -43 81 -85c0 -29 -15 -67 -50 -102zM382 580l-26 -10l-114 176l58 11z" />
    <glyph glyph-name="uni1FCE" unicode="&#x1fce;" horiz-adv-x="478" 
d="M197 570l-24 12c15 27 25 53 25 74c0 24 -12 45 -52 55l20 46c51 -13 80 -43 80 -86c0 -29 -15 -67 -49 -101zM277 570l-26 10l89 177l57 -11z" />
    <glyph glyph-name="uni1FCF" unicode="&#x1fcf;" horiz-adv-x="478" 
d="M258 541l-22 8c17 25 27 49 27 68c0 21 -13 37 -51 46l18 41c50 -12 77 -36 77 -71c0 -25 -13 -57 -49 -92zM326 721c-40 0 -89 41 -127 41c-25 0 -43 -13 -64 -38l-28 16c25 42 58 65 92 65c42 0 92 -42 126 -42c20 0 38 11 57 40l29 -17c-25 -47 -53 -65 -85 -65z" />
    <glyph glyph-name="uni1FDD" unicode="&#x1fdd;" horiz-adv-x="478" 
d="M202 582l-24 -12c-35 35 -50 73 -50 102c0 42 30 71 81 85c6 -16 13 -30 19 -46c-38 -10 -51 -30 -51 -53c0 -22 8 -48 25 -76zM383 580l-26 -10l-113 176l58 11z" />
    <glyph glyph-name="uni1FDE" unicode="&#x1fde;" horiz-adv-x="478" 
d="M224 582l-25 -12c-34 34 -49 72 -49 101c0 43 29 73 81 86c6 -16 13 -31 19 -46c-39 -10 -52 -31 -52 -56c0 -19 10 -48 26 -73zM277 570l-26 10l89 177l57 -11z" />
    <glyph glyph-name="uni1FDF" unicode="&#x1fdf;" horiz-adv-x="478" 
d="M276 548l-22 -7c-36 35 -49 67 -49 91c0 35 27 60 77 72l18 -41c-38 -10 -51 -25 -51 -47c0 -18 10 -42 27 -68zM326 721c-40 0 -89 41 -127 41c-25 0 -43 -13 -64 -38l-28 16c25 42 58 65 92 65c42 0 92 -42 126 -42c20 0 38 11 57 40l29 -17c-25 -47 -53 -65 -85 -65z
" />
    <glyph glyph-name="uni1FED" unicode="&#x1fed;" horiz-adv-x="486" 
d="M164 610h-54v54h54v-54zM384 610h-54v54h54v-54zM275 571l-113 175l58 12l81 -178z" />
    <glyph glyph-name="uni1FEE" unicode="&#x1fee;" horiz-adv-x="486" 
d="M392 610h-54v54h54v-54zM173 610h-54v54h54v-54zM345 746l-120 -175l-26 9l89 178z" />
    <glyph glyph-name="uni1FFE" unicode="&#x1ffe;" horiz-adv-x="478" 
d="M286 582l-24 -12c-35 35 -50 73 -50 102c0 42 30 71 81 85c6 -16 13 -30 19 -46c-39 -10 -52 -31 -52 -55c0 -21 10 -48 26 -74z" />
    <glyph glyph-name="macron" unicode="&#xaf;" horiz-adv-x="474" 
d="M384 593h-255v41h255v-41z" />
    <glyph glyph-name="dotaccent" unicode="&#x2d9;" horiz-adv-x="474" 
d="M273 608h-55v54h55v-54z" />
    <glyph glyph-name="ring" unicode="&#x2da;" horiz-adv-x="474" 
d="M256 553c-50 0 -90 41 -90 90c0 50 40 90 90 90s91 -40 91 -90c0 -49 -41 -90 -91 -90zM256 706c-35 0 -62 -28 -62 -63s27 -63 62 -63c36 0 63 28 63 63s-27 63 -63 63z" />
    <glyph glyph-name="ogonek" unicode="&#x2db;" horiz-adv-x="404" 
d="M123 -93c0 26 11 61 42 94h34l1 -1c-24 -29 -38 -63 -38 -86c0 -36 22 -52 54 -52c17 0 36 5 58 16l13 -30c-20 -11 -49 -21 -79 -21c-53 0 -85 37 -85 80z" />
    <glyph glyph-name="hungarumlaut" unicode="&#x2dd;" horiz-adv-x="497" 
d="M205 563l-28 12l79 154l48 -19zM306 563l-28 12l79 154l48 -19z" />
    <glyph glyph-name="uni1F00" unicode="&#x1f00;" horiz-adv-x="500" 
d="M437 0h-43v90h-2c-26 -50 -76 -94 -151 -94c-144 0 -186 125 -186 246c0 140 45 260 189 260c52 0 112 -15 148 -91h2v84h43v-495zM394 250c0 85 -20 211 -146 211c-130 0 -148 -123 -148 -213c0 -96 24 -212 148 -212c110 0 146 104 146 214zM259 570l-24 12
c15 27 25 53 25 74c0 24 -11 46 -52 55l20 46c51 -12 80 -43 80 -85c0 -29 -15 -67 -49 -102z" />
    <glyph glyph-name="uni1F01" unicode="&#x1f01;" horiz-adv-x="500" 
d="M437 0h-43v90h-2c-26 -50 -76 -94 -151 -94c-144 0 -186 125 -186 246c0 140 45 260 189 260c52 0 112 -15 148 -91h2v84h43v-495zM394 250c0 85 -20 211 -146 211c-130 0 -148 -123 -148 -213c0 -96 24 -212 148 -212c110 0 146 104 146 214zM293 582l-24 -12
c-35 35 -50 73 -50 102c0 42 30 71 81 85c6 -16 13 -30 19 -46c-39 -10 -52 -31 -52 -55c0 -21 10 -48 26 -74z" />
    <glyph glyph-name="uni1F02" unicode="&#x1f02;" horiz-adv-x="500" 
d="M437 0h-43v90h-2c-26 -50 -76 -94 -151 -94c-144 0 -186 125 -186 246c0 140 45 260 189 260c52 0 112 -15 148 -91h2v84h43v-495zM394 250c0 85 -20 211 -146 211c-130 0 -148 -123 -148 -213c0 -96 24 -212 148 -212c110 0 146 104 146 214zM180 570l-24 13
c16 27 25 52 25 73c0 24 -10 45 -52 55l20 46c52 -12 81 -43 81 -85c0 -29 -15 -67 -50 -102zM382 580l-26 -10l-114 176l58 11z" />
    <glyph glyph-name="uni1F03" unicode="&#x1f03;" horiz-adv-x="500" 
d="M437 0h-43v90h-2c-26 -50 -76 -94 -151 -94c-144 0 -186 125 -186 246c0 140 45 260 189 260c52 0 112 -15 148 -91h2v84h43v-495zM394 250c0 85 -20 211 -146 211c-130 0 -148 -123 -148 -213c0 -96 24 -212 148 -212c110 0 146 104 146 214zM202 582l-24 -12
c-35 35 -50 73 -50 102c0 42 30 71 81 85c6 -16 13 -30 19 -46c-38 -10 -51 -30 -51 -53c0 -22 8 -48 25 -76zM383 580l-26 -10l-113 176l58 11z" />
    <glyph glyph-name="uni1F04" unicode="&#x1f04;" horiz-adv-x="500" 
d="M437 0h-43v90h-2c-26 -50 -76 -94 -151 -94c-144 0 -186 125 -186 246c0 140 45 260 189 260c52 0 112 -15 148 -91h2v84h43v-495zM394 250c0 85 -20 211 -146 211c-130 0 -148 -123 -148 -213c0 -96 24 -212 148 -212c110 0 146 104 146 214zM197 570l-24 12
c15 27 25 53 25 74c0 24 -12 45 -52 55l20 46c51 -13 80 -43 80 -86c0 -29 -15 -67 -49 -101zM277 570l-26 10l89 177l57 -11z" />
    <glyph glyph-name="uni1F05" unicode="&#x1f05;" horiz-adv-x="500" 
d="M437 0h-43v90h-2c-26 -50 -76 -94 -151 -94c-144 0 -186 125 -186 246c0 140 45 260 189 260c52 0 112 -15 148 -91h2v84h43v-495zM394 250c0 85 -20 211 -146 211c-130 0 -148 -123 -148 -213c0 -96 24 -212 148 -212c110 0 146 104 146 214zM224 582l-25 -12
c-34 34 -49 72 -49 101c0 43 29 73 81 86c6 -16 13 -31 19 -46c-39 -10 -52 -31 -52 -56c0 -19 10 -48 26 -73zM277 570l-26 10l89 177l57 -11z" />
    <glyph glyph-name="uni1F08" unicode="&#x1f08;" horiz-adv-x="585" 
d="M519 0l-60 170h-335l-60 -170h-50l253 696h49c85 -232 170 -464 254 -696h-51zM293 639h-3c-15 -43 -133 -376 -152 -428h307l-90 254c-21 58 -42 116 -62 174zM45 514l-24 12c15 27 25 53 25 74c0 24 -12 46 -51 55c6 16 12 30 19 46c51 -12 80 -43 80 -85
c0 -29 -15 -67 -49 -102z" />
    <glyph glyph-name="uni1F09" unicode="&#x1f09;" horiz-adv-x="585" 
d="M519 0l-60 170h-335l-60 -170h-50l253 696h49c85 -232 170 -464 254 -696h-51zM293 639h-3c-15 -43 -133 -376 -152 -428h307l-90 254c-21 58 -42 116 -62 174zM68 527l-24 -12c-35 35 -49 72 -49 101c0 42 28 72 80 86c6 -16 13 -30 19 -46c-39 -10 -52 -31 -52 -55
c0 -21 10 -48 26 -74z" />
    <glyph glyph-name="uni1F0A" unicode="&#x1f0a;" horiz-adv-x="585" 
d="M519 0l-60 170h-335l-60 -170h-50l253 696h49c85 -232 170 -464 254 -696h-51zM293 639h-3c-15 -43 -133 -376 -152 -428h307zM-85 514l-24 13c15 27 25 52 25 73c0 24 -12 46 -52 55l20 46c51 -12 80 -43 80 -85c0 -29 -15 -67 -49 -102zM115 524l-25 -10
c-38 59 -76 117 -113 176l57 11z" />
    <glyph glyph-name="uni1F0B" unicode="&#x1f0b;" horiz-adv-x="585" 
d="M519 0l-60 170h-335l-60 -170h-50l253 696h49c85 -232 170 -464 254 -696h-51zM293 639h-3c-15 -43 -133 -376 -152 -428h307l-90 254c-21 58 -42 116 -62 174zM-49 527l-24 -12c-34 34 -49 70 -49 99c0 44 27 74 80 88l20 -46c-39 -10 -53 -30 -53 -53
c0 -22 9 -48 26 -76zM131 525l-25 -10c-38 59 -76 117 -113 176l57 11z" />
    <glyph glyph-name="uni1F0C" unicode="&#x1f0c;" horiz-adv-x="585" 
d="M519 0l-60 170h-335l-60 -170h-50l253 696h49c85 -232 170 -464 254 -696h-51zM293 639h-3c-15 -43 -133 -376 -152 -428h307l-90 254c-21 58 -42 116 -62 174zM-86 513l-24 12c16 27 25 52 25 73c0 24 -11 45 -51 56l19 46c51 -13 81 -43 81 -86c0 -29 -15 -67 -50 -101
zM-6 513l-26 10l89 177l56 -11c-40 -59 -80 -117 -119 -176z" />
    <glyph glyph-name="uni1F0D" unicode="&#x1f0d;" horiz-adv-x="585" 
d="M519 0l-60 170h-335l-60 -170h-50l253 696h49c85 -232 170 -464 254 -696h-51zM293 639h-3c-15 -43 -133 -376 -152 -428h307l-90 254c-21 58 -42 116 -62 174zM-57 527l-24 -12c-34 34 -49 72 -49 101c0 43 29 73 80 86l20 -46c-39 -10 -53 -30 -53 -54
c0 -21 10 -48 26 -75zM-4 515l-25 10c29 59 58 118 88 177l57 -11c-40 -59 -81 -117 -120 -176z" />
    <glyph glyph-name="uni1F10" unicode="&#x1f10;" horiz-adv-x="427" 
d="M144 261c-72 19 -81 78 -81 107c0 64 52 133 180 133c58 0 116 -20 156 -53c-10 -10 -19 -21 -28 -31c-32 25 -85 43 -128 43c-76 0 -136 -33 -136 -93c0 -58 47 -88 119 -88h64v-37h-67c-64 0 -127 -38 -127 -105c0 -68 69 -101 152 -101c39 0 94 16 128 43l26 -32
c-40 -33 -101 -51 -160 -51c-125 0 -189 59 -189 145c0 27 15 94 92 118c0 1 -1 1 -1 2zM249 570l-24 12c15 27 25 53 25 74c0 24 -11 46 -52 55l20 46c51 -12 80 -43 80 -85c0 -29 -15 -67 -49 -102z" />
    <glyph glyph-name="uni1F11" unicode="&#x1f11;" horiz-adv-x="427" 
d="M144 261c-72 19 -81 78 -81 107c0 64 52 133 180 133c58 0 116 -20 156 -53c-10 -10 -19 -21 -28 -31c-32 25 -85 43 -128 43c-76 0 -136 -33 -136 -93c0 -58 47 -88 119 -88h64v-37h-67c-64 0 -127 -38 -127 -105c0 -68 69 -101 152 -101c39 0 94 16 128 43l26 -32
c-40 -33 -101 -51 -160 -51c-125 0 -189 59 -189 145c0 27 15 94 92 118c0 1 -1 1 -1 2zM269 582l-24 -12c-35 35 -50 73 -50 102c0 42 30 71 81 85c6 -16 13 -30 19 -46c-39 -10 -52 -31 -52 -55c0 -21 10 -48 26 -74z" />
    <glyph glyph-name="uni1F12" unicode="&#x1f12;" horiz-adv-x="427" 
d="M144 261c-72 19 -81 78 -81 107c0 64 52 133 180 133c58 0 116 -20 156 -53c-10 -10 -19 -21 -28 -31c-32 25 -85 43 -128 43c-76 0 -136 -33 -136 -93c0 -58 47 -88 119 -88h64v-37h-67c-64 0 -127 -38 -127 -105c0 -68 69 -101 152 -101c39 0 94 16 128 43l26 -32
c-40 -33 -101 -51 -160 -51c-125 0 -189 59 -189 145c0 27 15 94 92 118c0 1 -1 1 -1 2zM146 570l-24 13c16 27 25 52 25 73c0 24 -10 45 -52 55l20 46c52 -12 81 -43 81 -85c0 -29 -15 -67 -50 -102zM348 580l-26 -10l-114 176l58 11z" />
    <glyph glyph-name="uni1F13" unicode="&#x1f13;" horiz-adv-x="427" 
d="M144 261c-72 19 -81 78 -81 107c0 64 52 133 180 133c58 0 116 -20 156 -53c-10 -10 -19 -21 -28 -31c-32 25 -85 43 -128 43c-76 0 -136 -33 -136 -93c0 -58 47 -88 119 -88h64v-37h-67c-64 0 -127 -38 -127 -105c0 -68 69 -101 152 -101c39 0 94 16 128 43l26 -32
c-40 -33 -101 -51 -160 -51c-125 0 -189 59 -189 145c0 27 15 94 92 118c0 1 -1 1 -1 2zM167 582l-24 -12c-35 35 -50 73 -50 102c0 42 30 71 81 85c6 -16 13 -30 19 -46c-38 -10 -51 -30 -51 -53c0 -22 8 -48 25 -76zM348 580l-26 -10l-113 176l58 11z" />
    <glyph glyph-name="uni1F14" unicode="&#x1f14;" horiz-adv-x="427" 
d="M144 261c-72 19 -81 78 -81 107c0 64 52 133 180 133c58 0 116 -20 156 -53c-10 -10 -19 -21 -28 -31c-32 25 -85 43 -128 43c-76 0 -136 -33 -136 -93c0 -58 47 -88 119 -88h64v-37h-67c-64 0 -127 -38 -127 -105c0 -68 69 -101 152 -101c39 0 94 16 128 43l26 -32
c-40 -33 -101 -51 -160 -51c-125 0 -189 59 -189 145c0 27 15 94 92 118c0 1 -1 1 -1 2zM191 570l-25 12c16 26 26 51 26 72c0 24 -11 46 -52 57c6 15 13 30 19 46c52 -13 81 -43 81 -86c0 -29 -15 -67 -49 -101zM270 570l-26 10l90 177l57 -11z" />
    <glyph glyph-name="uni1F15" unicode="&#x1f15;" horiz-adv-x="427" 
d="M144 261c-72 19 -81 78 -81 107c0 64 52 133 180 133c58 0 116 -20 156 -53c-10 -10 -19 -21 -28 -31c-32 25 -85 43 -128 43c-76 0 -136 -33 -136 -93c0 -58 47 -88 119 -88h64v-37h-67c-64 0 -127 -38 -127 -105c0 -68 69 -101 152 -101c39 0 94 16 128 43l26 -32
c-40 -33 -101 -51 -160 -51c-125 0 -189 59 -189 145c0 27 15 94 92 118c0 1 -1 1 -1 2zM230 582l-24 -12c-34 34 -49 72 -49 101c0 43 29 73 80 86l20 -46c-39 -10 -52 -30 -52 -54c0 -21 9 -48 25 -75zM283 570l-26 10l90 177l57 -11z" />
    <glyph glyph-name="uni1F18" unicode="&#x1f18;" horiz-adv-x="528" 
d="M78 0v696h422v-43h-375v-280h320v-41h-320v-290h375v-42h-422zM-60 520l-24 12c15 26 26 52 26 73c0 24 -11 46 -52 56c6 16 13 30 19 46c51 -12 81 -43 81 -85c0 -29 -15 -67 -50 -102z" />
    <glyph glyph-name="uni1F19" unicode="&#x1f19;" horiz-adv-x="528" 
d="M78 0v696h422v-43h-375v-280h320v-41h-320v-290h375v-42h-422zM-25 532l-24 -12c-35 35 -50 73 -50 102c0 42 29 71 81 85c7 -16 13 -30 19 -46c-38 -10 -52 -30 -52 -53c0 -22 9 -48 26 -76z" />
    <glyph glyph-name="uni1F1A" unicode="&#x1f1a;" horiz-adv-x="528" 
d="M78 0v696h422v-43h-375v-280h320v-41h-320v-290h375v-42h-422zM-191 520l-24 13c16 27 25 52 25 73c0 24 -11 45 -51 55c6 16 12 31 19 46c51 -12 81 -43 81 -85c0 -29 -15 -67 -50 -102zM10 530c-9 -3 -17 -7 -25 -10l-114 176l58 11c27 -59 55 -118 81 -177z" />
    <glyph glyph-name="uni1F1B" unicode="&#x1f1b;" horiz-adv-x="528" 
d="M78 0v696h422v-43h-375v-280h320v-41h-320v-290h375v-42h-422zM-173 532l-24 -12c-34 35 -49 73 -49 102c0 42 29 72 80 85l20 -46c-39 -10 -53 -30 -53 -53c0 -22 10 -48 26 -76zM8 530l-25 -10l-114 176l58 11c27 -59 55 -118 81 -177z" />
    <glyph glyph-name="uni1F1C" unicode="&#x1f1c;" horiz-adv-x="528" 
d="M78 0v696h422v-43h-375v-280h320v-41h-320v-290h375v-42h-422zM-190 520l-24 12c15 27 25 53 25 74c0 24 -12 45 -52 55l20 46c51 -13 80 -43 80 -86c0 -29 -15 -67 -49 -101zM-110 520l-26 10l89 177l56 -11c-39 -59 -80 -117 -119 -176z" />
    <glyph glyph-name="uni1F1D" unicode="&#x1f1d;" horiz-adv-x="528" 
d="M78 0v696h422v-43h-375v-280h320v-41h-320v-290h375v-42h-422zM-175 520c-34 34 -49 72 -49 101c0 43 29 73 80 86l20 -46c-40 -10 -52 -31 -52 -55c0 -21 10 -47 25 -74zM-103 520l-26 10l89 177l56 -11c-39 -59 -80 -117 -119 -176z" />
    <glyph glyph-name="uni1F20" unicode="&#x1f20;" horiz-adv-x="508" 
d="M399 0v317c0 92 -63 141 -146 141c-85 0 -146 -62 -146 -155v-303h-44v496h44v-82h2c32 63 97 86 154 86c101 0 180 -63 180 -168v-332h-44zM247 570l-24 12c15 27 25 53 25 74c0 24 -11 46 -52 55l20 46c51 -12 80 -43 80 -85c0 -29 -15 -67 -49 -102z" />
    <glyph glyph-name="uni1F21" unicode="&#x1f21;" horiz-adv-x="508" 
d="M399 0v317c0 92 -63 141 -146 141c-85 0 -146 -62 -146 -155v-303h-44v496h44v-82h2c32 63 97 86 154 86c101 0 180 -63 180 -168v-332h-44zM274 582l-24 -12c-35 35 -50 73 -50 102c0 42 30 71 81 85c6 -16 13 -30 19 -46c-39 -10 -52 -31 -52 -55c0 -21 10 -48 26 -74z
" />
    <glyph glyph-name="uni1F22" unicode="&#x1f22;" horiz-adv-x="508" 
d="M399 0v317c0 92 -63 141 -146 141c-85 0 -146 -62 -146 -155v-303h-44v496h44v-82h2c32 63 97 86 154 86c101 0 180 -63 180 -168v-332h-44zM160 570l-24 13c15 27 25 52 25 73c0 24 -11 46 -52 55l20 46c51 -12 80 -43 80 -85c0 -29 -15 -67 -49 -102zM361 580l-26 -10
l-113 176l58 11z" />
    <glyph glyph-name="uni1F23" unicode="&#x1f23;" horiz-adv-x="508" 
d="M399 0v317c0 92 -63 141 -146 141c-85 0 -146 -62 -146 -155v-303h-44v496h44v-82h2c32 63 97 86 154 86c101 0 180 -63 180 -168v-332h-44zM183 582l-24 -12c-35 35 -50 73 -50 102c0 42 30 71 81 85c6 -16 13 -30 19 -46c-39 -10 -52 -31 -52 -55c0 -21 10 -48 26 -74z
M364 580l-26 -10l-113 176l58 11z" />
    <glyph glyph-name="uni1F24" unicode="&#x1f24;" horiz-adv-x="508" 
d="M399 0v317c0 92 -63 141 -146 141c-85 0 -146 -62 -146 -155v-303h-44v496h44v-82h2c32 63 97 86 154 86c101 0 180 -63 180 -168v-332h-44zM205 570l-25 12c16 26 26 51 26 72c0 24 -11 46 -52 57c6 15 13 30 19 46c52 -13 81 -43 81 -86c0 -29 -15 -67 -49 -101z
M284 570l-26 10l90 177l57 -11z" />
    <glyph glyph-name="uni1F25" unicode="&#x1f25;" horiz-adv-x="508" 
d="M399 0v317c0 92 -63 141 -146 141c-85 0 -146 -62 -146 -155v-303h-44v496h44v-82h2c32 63 97 86 154 86c101 0 180 -63 180 -168v-332h-44zM231 582l-24 -12c-34 34 -49 72 -49 101c0 43 29 73 80 86l20 -46c-39 -10 -52 -30 -52 -54c0 -20 8 -48 25 -75zM284 570
l-26 10l90 177l57 -11z" />
    <glyph glyph-name="uni1F28" unicode="&#x1f28;" horiz-adv-x="625" 
d="M499 0v332h-374v-332h-47v696h47v-323h374v323h46v-696h-46zM-46 520l-24 12c15 27 25 53 25 74c0 24 -12 46 -52 55l20 46c52 -13 79 -44 79 -86c0 -29 -14 -66 -48 -101z" />
    <glyph glyph-name="uni1F29" unicode="&#x1f29;" horiz-adv-x="625" 
d="M499 0v332h-374v-332h-47v696h47v-323h374v323h46v-696h-46zM-23 532l-24 -12c-35 35 -50 73 -50 102c0 42 29 71 81 85c7 -16 13 -30 18 -46c-37 -10 -51 -29 -51 -53c0 -22 9 -48 26 -76z" />
    <glyph glyph-name="uni1F2A" unicode="&#x1f2a;" horiz-adv-x="625" 
d="M499 0v332h-374v-332h-47v696h47v-323h374v323h46v-696h-46zM-188 520l-24 13c15 27 25 52 25 73c0 24 -12 46 -52 55l20 46c51 -12 80 -43 80 -85c0 -29 -15 -67 -49 -102zM12 530c-7 -3 -16 -7 -25 -10l-113 176l58 11c27 -59 54 -118 80 -177z" />
    <glyph glyph-name="uni1F2B" unicode="&#x1f2b;" horiz-adv-x="625" 
d="M499 0v332h-374v-332h-47v696h47v-323h374v323h46v-696h-46zM-190 520c-34 35 -49 73 -49 102c0 42 29 73 80 85l20 -46c-40 -9 -52 -31 -52 -55c0 -21 10 -46 25 -73zM12 530c-7 -3 -16 -7 -25 -10l-113 176l58 11c27 -59 54 -118 80 -177z" />
    <glyph glyph-name="uni1F2C" unicode="&#x1f2c;" horiz-adv-x="625" 
d="M499 0v332h-374v-332h-47v696h47v-323h374v323h46v-696h-46zM-176 520l-24 13c15 27 25 52 25 73c0 24 -12 46 -52 55l20 46c51 -12 80 -43 80 -85c0 -29 -15 -67 -49 -102zM-114 530c26 59 53 118 80 177l58 -11l-113 -176c-9 3 -18 7 -25 10z" />
    <glyph glyph-name="uni1F2D" unicode="&#x1f2d;" horiz-adv-x="625" 
d="M499 0v332h-374v-332h-47v696h47v-323h374v323h46v-696h-46zM-178 520c-34 35 -49 73 -49 102c0 42 29 73 80 85l20 -46c-40 -9 -52 -31 -52 -55c0 -21 10 -46 25 -73zM-114 530c26 59 53 118 80 177l58 -11l-113 -176c-9 3 -18 7 -25 10z" />
    <glyph glyph-name="uni1F38" unicode="&#x1f38;" horiz-adv-x="212" 
d="M82 0v696h47v-696h-47zM-48 520l-25 12c15 26 26 52 26 73c0 24 -11 46 -52 56c6 16 13 30 19 46c53 -13 80 -43 80 -86c0 -29 -14 -66 -48 -101z" />
    <glyph glyph-name="uni1F39" unicode="&#x1f39;" horiz-adv-x="212" 
d="M82 0v696h47v-696h-47zM-23 532l-25 -12c-34 35 -49 73 -49 102c0 42 28 72 81 85c6 -16 13 -30 18 -46c-38 -10 -51 -31 -51 -55c0 -21 10 -48 26 -74z" />
    <glyph glyph-name="uni1F3A" unicode="&#x1f3a;" horiz-adv-x="212" 
d="M82 0v696h47v-696h-47zM-199 520l-24 13c15 26 26 51 26 72c0 24 -12 46 -52 56c6 16 13 31 19 46c51 -12 81 -43 81 -85c0 -29 -15 -67 -50 -102zM2 530l-25 -10l-114 176l59 11c27 -59 54 -118 80 -177z" />
    <glyph glyph-name="uni1F3B" unicode="&#x1f3b;" horiz-adv-x="212" 
d="M82 0v696h47v-696h-47zM-178 520c-35 35 -50 73 -50 102c0 42 30 73 81 85c6 -15 13 -30 19 -46c-40 -10 -52 -32 -52 -56c0 -21 11 -46 26 -72zM23 530l-25 -10l-114 176l59 11c27 -59 54 -118 80 -177z" />
    <glyph glyph-name="uni1F3C" unicode="&#x1f3c;" horiz-adv-x="212" 
d="M82 0v696h47v-696h-47zM-179 520l-24 13c15 26 26 51 26 72c0 24 -12 46 -52 56c6 16 13 31 19 46c51 -12 81 -43 81 -85c0 -29 -15 -67 -50 -102zM-118 530c26 59 53 118 80 177l59 -11l-114 -176z" />
    <glyph glyph-name="uni1F3D" unicode="&#x1f3d;" horiz-adv-x="212" 
d="M82 0v696h47v-696h-47zM-179 520c-35 35 -50 73 -50 102c0 42 30 73 81 85c6 -15 13 -30 19 -46c-40 -10 -52 -32 -52 -56c0 -21 11 -46 26 -72zM-118 530c26 59 53 118 80 177l59 -11l-114 -176z" />
    <glyph glyph-name="uni1F40" unicode="&#x1f40;" horiz-adv-x="489" 
d="M249 501c71 0 127 -29 160 -80c23 -37 35 -87 35 -177s-21 -146 -49 -182c-36 -46 -89 -68 -154 -68c-63 0 -110 20 -142 56c-36 41 -55 102 -55 199c0 91 22 147 54 185c34 41 85 67 151 67zM247 462c-51 0 -90 -23 -116 -56s-43 -77 -43 -159c0 -83 17 -129 43 -162
s64 -52 113 -52c51 0 92 22 119 61c21 30 37 69 37 151c0 81 -11 120 -27 147c-26 44 -71 70 -126 70zM252 570l-24 12c15 27 25 53 25 74c0 24 -11 46 -52 55l20 46c51 -12 80 -43 80 -85c0 -29 -15 -67 -49 -102z" />
    <glyph glyph-name="uni1F41" unicode="&#x1f41;" horiz-adv-x="489" 
d="M249 501c71 0 127 -29 160 -80c23 -37 35 -87 35 -177s-21 -146 -49 -182c-36 -46 -89 -68 -154 -68c-63 0 -110 20 -142 56c-36 41 -55 102 -55 199c0 91 22 147 54 185c34 41 85 67 151 67zM247 462c-51 0 -90 -23 -116 -56s-43 -77 -43 -159c0 -83 17 -129 43 -162
s64 -52 113 -52c51 0 92 22 119 61c21 30 37 69 37 151c0 81 -11 120 -27 147c-26 44 -71 70 -126 70zM283 582l-24 -12c-35 35 -50 73 -50 102c0 42 30 71 81 85c6 -16 13 -30 19 -46c-39 -10 -52 -31 -52 -55c0 -21 10 -48 26 -74z" />
    <glyph glyph-name="uni1F42" unicode="&#x1f42;" horiz-adv-x="489" 
d="M249 501c71 0 127 -29 160 -80c23 -37 35 -87 35 -177s-21 -146 -49 -182c-36 -46 -89 -68 -154 -68c-63 0 -110 20 -142 56c-36 41 -55 102 -55 199c0 91 22 147 54 185c34 41 85 67 151 67zM247 462c-51 0 -90 -23 -116 -56s-43 -77 -43 -159c0 -83 17 -129 43 -162
s64 -52 113 -52c51 0 92 22 119 61c21 30 37 69 37 151c0 81 -11 120 -27 147c-26 44 -71 70 -126 70zM165 570l-24 13c16 27 25 52 25 73c0 24 -10 45 -52 55l20 46c52 -12 81 -43 81 -85c0 -29 -15 -67 -50 -102zM367 580l-26 -10l-114 176l58 11z" />
    <glyph glyph-name="uni1F43" unicode="&#x1f43;" horiz-adv-x="489" 
d="M249 501c71 0 127 -29 160 -80c23 -37 35 -87 35 -177s-21 -146 -49 -182c-36 -46 -89 -68 -154 -68c-63 0 -110 20 -142 56c-36 41 -55 102 -55 199c0 91 22 147 54 185c34 41 85 67 151 67zM247 462c-51 0 -90 -23 -116 -56s-43 -77 -43 -159c0 -83 17 -129 43 -162
s64 -52 113 -52c51 0 92 22 119 61c21 30 37 69 37 151c0 81 -11 120 -27 147c-26 44 -71 70 -126 70zM198 582l-24 -12c-35 35 -50 73 -50 102c0 42 30 71 81 85c6 -16 13 -30 19 -46c-38 -10 -51 -30 -51 -53c0 -22 8 -48 25 -76zM379 580l-26 -10l-113 176l58 11z" />
    <glyph glyph-name="uni1F44" unicode="&#x1f44;" horiz-adv-x="489" 
d="M249 501c71 0 127 -29 160 -80c23 -37 35 -87 35 -177s-21 -146 -49 -182c-36 -46 -89 -68 -154 -68c-63 0 -110 20 -142 56c-36 41 -55 102 -55 199c0 91 22 147 54 185c34 41 85 67 151 67zM247 462c-51 0 -90 -23 -116 -56s-43 -77 -43 -159c0 -83 17 -129 43 -162
s64 -52 113 -52c51 0 92 22 119 61c21 30 37 69 37 151c0 81 -11 120 -27 147c-26 44 -71 70 -126 70zM213 570l-25 12c16 26 26 51 26 72c0 24 -11 46 -52 57c6 15 13 30 19 46c52 -13 81 -43 81 -86c0 -29 -15 -67 -49 -101zM292 570l-26 10l90 177l57 -11z" />
    <glyph glyph-name="uni1F45" unicode="&#x1f45;" horiz-adv-x="489" 
d="M249 501c71 0 127 -29 160 -80c23 -37 35 -87 35 -177s-21 -146 -49 -182c-36 -46 -89 -68 -154 -68c-63 0 -110 20 -142 56c-36 41 -55 102 -55 199c0 91 22 147 54 185c34 41 85 67 151 67zM247 462c-51 0 -90 -23 -116 -56s-43 -77 -43 -159c0 -83 17 -129 43 -162
s64 -52 113 -52c51 0 92 22 119 61c21 30 37 69 37 151c0 81 -11 120 -27 147c-26 44 -71 70 -126 70zM233 582l-24 -12c-34 34 -49 72 -49 101c0 43 29 73 80 86l20 -46c-39 -10 -52 -30 -52 -54c0 -20 8 -48 25 -75zM286 570l-26 10l90 177l57 -11z" />
    <glyph glyph-name="uni1F48" unicode="&#x1f48;" horiz-adv-x="571" 
d="M285 701c149 0 238 -104 238 -248v-208c0 -154 -91 -251 -238 -251c-165 0 -240 115 -240 251v208c0 133 79 248 240 248zM286 656c-130 0 -194 -95 -194 -205v-207c0 -110 64 -208 194 -208c118 0 189 89 189 212v203c0 116 -70 205 -189 205zM-47 520l-25 12
c15 26 26 52 26 73c0 24 -11 46 -52 56c6 16 13 30 19 46c53 -13 80 -43 80 -86c0 -29 -14 -66 -48 -101z" />
    <glyph glyph-name="uni1F49" unicode="&#x1f49;" horiz-adv-x="571" 
d="M285 701c149 0 238 -104 238 -248v-208c0 -154 -91 -251 -238 -251c-165 0 -240 115 -240 251v208c0 133 79 248 240 248zM286 656c-130 0 -194 -95 -194 -205v-207c0 -110 64 -208 194 -208c118 0 189 89 189 212v203c0 116 -70 205 -189 205zM-21 532l-24 -12
c-35 35 -50 73 -50 102c0 42 29 71 81 85c6 -16 13 -30 18 -46c-37 -10 -51 -29 -51 -53c0 -22 9 -48 26 -76z" />
    <glyph glyph-name="uni1F4A" unicode="&#x1f4a;" horiz-adv-x="571" 
d="M285 701c149 0 238 -104 238 -248v-208c0 -154 -91 -251 -238 -251c-165 0 -240 115 -240 251v208c0 133 79 248 240 248zM286 656c-130 0 -194 -95 -194 -205v-207c0 -110 64 -208 194 -208c118 0 189 89 189 212v203c0 116 -70 205 -189 205zM-198 520l-24 13
c15 26 26 51 26 72c0 24 -12 46 -52 56c6 16 13 31 19 46c51 -12 81 -43 81 -85c0 -29 -15 -67 -50 -102zM3 530l-25 -10l-114 176l59 11c26 -59 54 -118 80 -177z" />
    <glyph glyph-name="uni1F4B" unicode="&#x1f4b;" horiz-adv-x="571" 
d="M285 701c149 0 238 -104 238 -248v-208c0 -154 -91 -251 -238 -251c-165 0 -240 115 -240 251v208c0 133 79 248 240 248zM286 656c-130 0 -194 -95 -194 -205v-207c0 -110 64 -208 194 -208c118 0 189 89 189 212v203c0 116 -70 205 -189 205zM-198 520
c-35 35 -50 73 -50 102c0 42 30 73 81 85c6 -15 13 -30 19 -46c-40 -10 -52 -32 -52 -56c0 -21 11 -46 26 -72zM3 530l-25 -10l-114 176l59 11c26 -59 54 -118 80 -177z" />
    <glyph glyph-name="uni1F4C" unicode="&#x1f4c;" horiz-adv-x="571" 
d="M285 701c149 0 238 -104 238 -248v-208c0 -154 -91 -251 -238 -251c-165 0 -240 115 -240 251v208c0 133 79 248 240 248zM286 656c-130 0 -194 -95 -194 -205v-207c0 -110 64 -208 194 -208c118 0 189 89 189 212v203c0 116 -70 205 -189 205zM-187 520l-25 12
c15 26 26 51 26 72c0 24 -11 46 -52 57c7 15 13 30 19 46c52 -13 81 -43 81 -86c0 -29 -15 -67 -49 -101zM-108 520l-25 10l89 177l56 -11c-39 -59 -80 -117 -120 -176z" />
    <glyph glyph-name="uni1F4D" unicode="&#x1f4d;" horiz-adv-x="571" 
d="M285 701c149 0 238 -104 238 -248v-208c0 -154 -91 -251 -238 -251c-165 0 -240 115 -240 251v208c0 133 79 248 240 248zM286 656c-130 0 -194 -95 -194 -205v-207c0 -110 64 -208 194 -208c118 0 189 89 189 212v203c0 116 -70 205 -189 205zM-160 532l-24 -12
c-34 34 -49 72 -49 101c0 43 29 73 80 86l20 -46c-39 -10 -53 -30 -53 -54c0 -21 10 -48 26 -75zM-107 520l-25 10l89 177l56 -11c-39 -59 -80 -117 -120 -176z" />
    <glyph glyph-name="uni1F50" unicode="&#x1f50;" horiz-adv-x="522" 
d="M260 -6c-113 0 -189 74 -189 181v320h43v-302c0 -95 56 -159 147 -159c92 0 147 59 147 149v312h43v-317c0 -120 -77 -184 -191 -184zM252 570l-24 12c16 27 25 52 25 74c0 24 -11 46 -52 55l20 46c51 -12 80 -43 80 -85c0 -29 -15 -67 -49 -102z" />
    <glyph glyph-name="uni1F51" unicode="&#x1f51;" horiz-adv-x="522" 
d="M260 -6c-113 0 -189 74 -189 181v320h43v-302c0 -95 56 -159 147 -159c92 0 147 59 147 149v312h43v-317c0 -120 -77 -184 -191 -184zM290 582l-24 -12c-35 35 -50 73 -50 102c0 42 30 71 81 85c6 -16 13 -30 19 -46c-39 -10 -52 -31 -52 -55c0 -21 10 -48 26 -74z" />
    <glyph glyph-name="uni1F52" unicode="&#x1f52;" horiz-adv-x="522" 
d="M260 -6c-113 0 -189 74 -189 181v320h43v-302c0 -95 56 -159 147 -159c92 0 147 59 147 149v312h43v-317c0 -120 -77 -184 -191 -184zM175 570l-24 13c16 27 25 52 25 73c0 24 -10 45 -52 55l20 46c52 -12 81 -43 81 -85c0 -29 -15 -67 -50 -102zM377 580l-26 -10
l-114 176l58 11z" />
    <glyph glyph-name="uni1F53" unicode="&#x1f53;" horiz-adv-x="522" 
d="M260 -6c-113 0 -189 74 -189 181v320h43v-302c0 -95 56 -159 147 -159c92 0 147 59 147 149v312h43v-317c0 -120 -77 -184 -191 -184zM215 582l-25 -12c-34 35 -49 73 -49 102c0 42 29 72 81 85c6 -16 12 -30 19 -46c-39 -10 -52 -31 -52 -55c0 -21 10 -48 26 -74z
M396 580l-26 -10c-38 59 -76 117 -113 176l58 11z" />
    <glyph glyph-name="uni1F54" unicode="&#x1f54;" horiz-adv-x="522" 
d="M260 -6c-113 0 -189 74 -189 181v320h43v-302c0 -95 56 -159 147 -159c92 0 147 59 147 149v312h43v-317c0 -120 -77 -184 -191 -184zM230 570l-24 12c15 27 25 53 25 74c0 24 -12 45 -52 55l20 46c51 -13 80 -43 80 -86c0 -29 -15 -67 -49 -101zM310 570l-26 10l89 177
l57 -11z" />
    <glyph glyph-name="uni1F55" unicode="&#x1f55;" horiz-adv-x="522" 
d="M260 -6c-113 0 -189 74 -189 181v320h43v-302c0 -95 56 -159 147 -159c92 0 147 59 147 149v312h43v-317c0 -120 -77 -184 -191 -184zM252 582l-24 -12c-35 34 -50 72 -50 101c0 43 30 73 81 86c6 -16 13 -31 19 -46c-38 -10 -51 -30 -51 -54c0 -20 8 -48 25 -75z
M305 570l-26 10l89 177l57 -11z" />
    <glyph glyph-name="uni1F59" unicode="&#x1f59;" horiz-adv-x="475" 
d="M259 288v-288h-44v288l-209 408h49c27 -52 161 -322 182 -365c25 49 49 98 73 148c37 72 74 144 109 217h48c-70 -136 -139 -272 -208 -408zM-64 532l-24 -12c-34 35 -49 73 -49 102c0 42 29 72 80 85l20 -46c-39 -10 -53 -30 -53 -53c0 -22 10 -48 26 -76z" />
    <glyph glyph-name="uni1F5B" unicode="&#x1f5b;" horiz-adv-x="475" 
d="M259 288v-288h-44v288l-209 408h49c27 -52 161 -322 182 -365c25 49 49 98 73 148c37 72 74 144 109 217h48c-70 -136 -139 -272 -208 -408zM-198 520c-35 35 -50 73 -50 102c0 42 30 73 81 85c6 -15 13 -30 19 -46c-40 -10 -52 -32 -52 -56c0 -21 11 -46 26 -72zM3 530
l-25 -10l-114 176l59 11c26 -59 54 -118 80 -177z" />
    <glyph glyph-name="uni1F5D" unicode="&#x1f5d;" horiz-adv-x="475" 
d="M259 288v-288h-44v288l-209 408h49c27 -52 161 -322 182 -365c25 49 49 98 73 148c37 72 74 144 109 217h48c-70 -136 -139 -272 -208 -408zM-208 532l-24 -12c-34 34 -49 72 -49 101c0 43 29 73 80 86l20 -46c-39 -10 -53 -30 -53 -54c0 -21 10 -48 26 -75zM-155 520
l-25 10l89 177l57 -11z" />
    <glyph glyph-name="uni1F60" unicode="&#x1f60;" horiz-adv-x="758" 
d="M537 -5c-59 0 -126 23 -157 100c-38 -80 -94 -101 -156 -101c-150 0 -178 120 -178 254c0 124 32 229 159 249l5 -41c-114 -21 -120 -131 -120 -244c0 -95 40 -179 134 -179c87 0 132 75 132 146v190h43v-190c0 -71 46 -145 139 -145c104 0 133 84 133 214
c0 100 -19 191 -120 209l5 41c128 -19 160 -125 160 -249c0 -134 -29 -254 -179 -254zM373 570l-24 12c16 27 25 52 25 74c0 24 -10 45 -52 55l20 46c51 -12 80 -43 80 -85c0 -29 -15 -67 -49 -102z" />
    <glyph glyph-name="uni1F61" unicode="&#x1f61;" horiz-adv-x="758" 
d="M537 -5c-59 0 -126 23 -157 100c-38 -80 -94 -101 -156 -101c-150 0 -178 120 -178 254c0 124 32 229 159 249l5 -41c-114 -21 -120 -131 -120 -244c0 -95 40 -179 134 -179c87 0 132 75 132 146v190h43v-190c0 -71 46 -145 139 -145c104 0 133 84 133 214
c0 100 -19 191 -120 209l5 41c128 -19 160 -125 160 -249c0 -134 -29 -254 -179 -254zM409 582l-24 -12c-34 35 -49 73 -49 102c0 42 29 72 80 85l20 -46c-39 -10 -52 -30 -52 -53c0 -22 8 -48 25 -76z" />
    <glyph glyph-name="uni1F62" unicode="&#x1f62;" horiz-adv-x="758" 
d="M537 -5c-59 0 -126 23 -157 100c-38 -80 -94 -101 -156 -101c-150 0 -178 120 -178 254c0 124 32 229 159 249l5 -41c-114 -21 -120 -131 -120 -244c0 -95 40 -179 134 -179c87 0 132 75 132 146v190h43v-190c0 -71 46 -145 139 -145c104 0 133 84 133 214
c0 100 -19 191 -120 209l5 41c128 -19 160 -125 160 -249c0 -134 -29 -254 -179 -254zM298 570l-24 13c16 27 25 52 25 73c0 24 -10 45 -52 55l20 46c52 -12 81 -43 81 -85c0 -29 -15 -67 -50 -102zM500 580l-26 -10l-114 176l58 11z" />
    <glyph glyph-name="uni1F63" unicode="&#x1f63;" horiz-adv-x="758" 
d="M537 -5c-59 0 -126 23 -157 100c-38 -80 -94 -101 -156 -101c-150 0 -178 120 -178 254c0 124 32 229 159 249l5 -41c-114 -21 -120 -131 -120 -244c0 -95 40 -179 134 -179c87 0 132 75 132 146v190h43v-190c0 -71 46 -145 139 -145c104 0 133 84 133 214
c0 100 -19 191 -120 209l5 41c128 -19 160 -125 160 -249c0 -134 -29 -254 -179 -254zM322 582l-24 -12c-34 35 -49 73 -49 102c0 42 29 72 80 85l20 -46c-39 -10 -52 -30 -52 -53c0 -22 8 -48 25 -76zM504 580l-26 -10l-114 176l58 11z" />
    <glyph glyph-name="uni1F64" unicode="&#x1f64;" horiz-adv-x="758" 
d="M537 -5c-59 0 -126 23 -157 100c-38 -80 -94 -101 -156 -101c-150 0 -178 120 -178 254c0 124 32 229 159 249l5 -41c-114 -21 -120 -131 -120 -244c0 -95 40 -179 134 -179c87 0 132 75 132 146v190h43v-190c0 -71 46 -145 139 -145c104 0 133 84 133 214
c0 100 -19 191 -120 209l5 41c128 -19 160 -125 160 -249c0 -134 -29 -254 -179 -254zM347 570l-25 12c16 26 26 51 26 72c0 5 -1 9 -2 13c-3 19 -16 35 -50 44c6 15 13 30 19 46c52 -13 81 -43 81 -86c0 -29 -15 -67 -49 -101zM426 570l-26 10l90 177l57 -11z" />
    <glyph glyph-name="uni1F65" unicode="&#x1f65;" horiz-adv-x="758" 
d="M537 -5c-59 0 -126 23 -157 100c-38 -80 -94 -101 -156 -101c-150 0 -178 120 -178 254c0 124 32 229 159 249l5 -41c-114 -21 -120 -131 -120 -244c0 -95 40 -179 134 -179c87 0 132 75 132 146v190h43v-190c0 -71 46 -145 139 -145c104 0 133 84 133 214
c0 100 -19 191 -120 209l5 41c128 -19 160 -125 160 -249c0 -134 -29 -254 -179 -254zM369 582l-24 -12c-34 34 -49 72 -49 101c0 43 29 73 80 86l20 -46c-39 -10 -52 -30 -52 -54c0 -21 9 -48 25 -75zM422 570l-26 10l90 177l57 -11z" />
    <glyph glyph-name="uni1F68" unicode="&#x1f68;" horiz-adv-x="566" 
d="M147 42c-72 37 -105 117 -105 215v196c0 133 79 248 240 248c149 0 238 -104 238 -248v-196c0 -98 -34 -174 -102 -214c0 -1 1 -1 1 -1h117v-42h-191v51c81 26 127 105 127 205v195c0 116 -68 206 -189 206c-132 0 -194 -95 -194 -206v-195c0 -89 43 -178 129 -206v-50
h-191v42h120zM-47 520l-25 12c15 26 26 52 26 73c0 24 -11 46 -52 56c6 16 13 30 19 46c53 -13 80 -43 80 -86c0 -29 -14 -66 -48 -101z" />
    <glyph glyph-name="uni1F69" unicode="&#x1f69;" horiz-adv-x="566" 
d="M147 42c-72 37 -105 117 -105 215v196c0 133 79 248 240 248c149 0 238 -104 238 -248v-196c0 -98 -34 -174 -102 -214c0 -1 1 -1 1 -1h117v-42h-191v51c81 26 127 105 127 205v195c0 116 -68 206 -189 206c-132 0 -194 -95 -194 -206v-195c0 -89 43 -178 129 -206v-50
h-191v42h120zM-22 532l-25 -12c-34 35 -49 73 -49 102c0 42 28 72 81 85c6 -16 13 -30 18 -46c-38 -10 -51 -31 -51 -55c0 -21 10 -48 26 -74z" />
    <glyph glyph-name="uni1F6A" unicode="&#x1f6a;" horiz-adv-x="566" 
d="M147 42c-72 37 -105 117 -105 215v196c0 133 79 248 240 248c149 0 238 -104 238 -248v-196c0 -98 -34 -174 -102 -214c0 -1 1 -1 1 -1h117v-42h-191v51c81 26 127 105 127 205v195c0 116 -68 206 -189 206c-132 0 -194 -95 -194 -206v-195c0 -89 43 -178 129 -206v-50
h-191v42h120zM-199 520l-24 13c16 27 25 52 25 73c0 24 -12 46 -52 55l20 46c51 -12 80 -43 80 -85c0 -29 -15 -67 -49 -102zM1 530l-24 -10l-114 176l58 11c27 -59 54 -118 80 -177z" />
    <glyph glyph-name="uni1F6B" unicode="&#x1f6b;" horiz-adv-x="566" 
d="M147 42c-72 37 -105 117 -105 215v196c0 133 79 248 240 248c149 0 238 -104 238 -248v-196c0 -98 -34 -174 -102 -214c0 -1 1 -1 1 -1h117v-42h-191v51c81 26 127 105 127 205v195c0 116 -68 206 -189 206c-132 0 -194 -95 -194 -206v-195c0 -89 43 -178 129 -206v-50
h-191v42h120zM-198 520c-35 35 -50 73 -50 102c0 42 30 73 81 85c6 -15 13 -30 19 -46c-40 -10 -52 -32 -52 -56c0 -21 11 -46 26 -72zM3 530l-25 -10l-114 176l59 11c26 -59 54 -118 80 -177z" />
    <glyph glyph-name="uni1F6C" unicode="&#x1f6c;" horiz-adv-x="566" 
d="M147 42c-72 37 -105 117 -105 215v196c0 133 79 248 240 248c149 0 238 -104 238 -248v-196c0 -98 -34 -174 -102 -214c0 -1 1 -1 1 -1h117v-42h-191v51c81 26 127 105 127 205v195c0 116 -68 206 -189 206c-132 0 -194 -95 -194 -206v-195c0 -89 43 -178 129 -206v-50
h-191v42h120zM-184 520l-24 12c15 27 25 53 25 74c0 24 -12 45 -52 55l20 46c51 -13 80 -43 80 -86c0 -29 -15 -67 -49 -101zM-104 520l-26 10l89 177l56 -11c-39 -59 -79 -117 -119 -176z" />
    <glyph glyph-name="uni1F6D" unicode="&#x1f6d;" horiz-adv-x="566" 
d="M147 42c-72 37 -105 117 -105 215v196c0 133 79 248 240 248c149 0 238 -104 238 -248v-196c0 -98 -34 -174 -102 -214c0 -1 1 -1 1 -1h117v-42h-191v51c81 26 127 105 127 205v195c0 116 -68 206 -189 206c-132 0 -194 -95 -194 -206v-195c0 -89 43 -178 129 -206v-50
h-191v42h120zM-155 532l-24 -12c-34 34 -49 72 -49 101c0 43 29 73 80 86l20 -46c-39 -10 -53 -30 -53 -54c0 -21 10 -48 26 -75zM-102 520l-25 10l89 177l56 -11c-39 -59 -80 -117 -120 -176z" />
    <glyph glyph-name="uni1F70" unicode="&#x1f70;" horiz-adv-x="500" 
d="M55 242c0 140 46 260 189 260c52 0 112 -15 149 -91l1 1v84h44v-496h-44v91h-1c-27 -51 -76 -96 -152 -96c-144 0 -186 126 -186 247zM101 248c0 -95 24 -212 148 -212c110 0 145 104 145 214c0 85 -19 212 -145 212c-130 0 -148 -124 -148 -214zM256 571l-114 172l58 12
l82 -175z" />
    <glyph glyph-name="uni1F71" unicode="&#x1f71;" horiz-adv-x="500" 
d="M55 242c0 140 46 260 189 260c52 0 112 -15 149 -91l1 1v84h44v-496h-44v91h-1c-27 -51 -76 -96 -152 -96c-144 0 -186 126 -186 247zM101 248c0 -95 24 -212 148 -212c110 0 145 104 145 214c0 85 -19 212 -145 212c-130 0 -148 -124 -148 -214zM378 743l-121 -172
l-26 9l90 175z" />
    <glyph glyph-name="uni1F72" unicode="&#x1f72;" horiz-adv-x="427" 
d="M145 259v2c-73 20 -81 78 -81 107c0 64 52 133 180 133c58 0 115 -19 155 -52l-27 -32c-33 26 -85 44 -129 44c-75 0 -136 -33 -136 -94c0 -57 47 -87 120 -87h64v-37h-67c-64 0 -127 -39 -127 -105c0 -69 69 -102 152 -102c39 0 94 16 127 43l27 -32
c-41 -33 -101 -51 -160 -51c-125 0 -190 59 -190 145c0 28 16 94 92 118zM239 571l-114 172l59 12l81 -175z" />
    <glyph glyph-name="uni1F73" unicode="&#x1f73;" horiz-adv-x="427" 
d="M145 259v2c-73 20 -81 78 -81 107c0 64 52 133 180 133c58 0 115 -19 155 -52l-27 -32c-33 26 -85 44 -129 44c-75 0 -136 -33 -136 -94c0 -57 47 -87 120 -87h64v-37h-67c-64 0 -127 -39 -127 -105c0 -69 69 -102 152 -102c39 0 94 16 127 43l27 -32
c-41 -33 -101 -51 -160 -51c-125 0 -190 59 -190 145c0 28 16 94 92 118zM351 743l-120 -172l-26 9l89 175z" />
    <glyph glyph-name="uni1F74" unicode="&#x1f74;" horiz-adv-x="508" 
d="M443 0h-44v317c0 92 -63 142 -145 142c-85 0 -147 -63 -147 -156v-303h-43v496h43v-81h2c33 63 97 85 154 85c102 0 180 -62 180 -167v-333zM242 571l-113 172l58 12l81 -175z" />
    <glyph glyph-name="uni1F75" unicode="&#x1f75;" horiz-adv-x="508" 
d="M443 0h-44v317c0 92 -63 142 -145 142c-85 0 -147 -63 -147 -156v-303h-43v496h43v-81h2c33 63 97 85 154 85c102 0 180 -62 180 -167v-333zM361 743l-120 -172l-26 9l89 175z" />
    <glyph glyph-name="uni1F76" unicode="&#x1f76;" horiz-adv-x="206" 
d="M95 571l-114 172l58 12l82 -175zM168 36v-38h-15c-62 0 -79 33 -79 92v404h43v-406c0 -40 12 -52 47 -52h4z" />
    <glyph glyph-name="uni1F77" unicode="&#x1f77;" horiz-adv-x="206" 
d="M221 743l-120 -172l-26 9l89 175zM168 36v-38h-15c-62 0 -79 33 -79 92v404h43v-406c0 -40 12 -52 47 -52h4z" />
    <glyph glyph-name="uni1F78" unicode="&#x1f78;" horiz-adv-x="489" 
d="M244 571l-114 172l58 12l82 -175zM249 501c71 0 127 -29 160 -80c23 -37 35 -87 35 -177s-21 -146 -49 -182c-36 -46 -89 -68 -154 -68c-63 0 -110 20 -142 56c-36 41 -55 102 -55 199c0 91 22 147 54 185c34 41 85 67 151 67zM247 462c-51 0 -90 -23 -116 -56
s-43 -77 -43 -159c0 -83 17 -129 43 -162s64 -52 113 -52c51 0 92 22 119 61c21 30 37 69 37 151c0 81 -11 120 -27 147c-26 44 -71 70 -126 70z" />
    <glyph glyph-name="uni1F79" unicode="&#x1f79;" horiz-adv-x="489" 
d="M367 743l-120 -172l-26 9l89 175zM249 501c71 0 127 -29 160 -80c23 -37 35 -87 35 -177s-21 -146 -49 -182c-36 -46 -89 -68 -154 -68c-63 0 -110 20 -142 56c-36 41 -55 102 -55 199c0 91 22 147 54 185c34 41 85 67 151 67zM247 462c-51 0 -90 -23 -116 -56
s-43 -77 -43 -159c0 -83 17 -129 43 -162s64 -52 113 -52c51 0 92 22 119 61c21 30 37 69 37 151c0 81 -11 120 -27 147c-26 44 -71 70 -126 70z" />
    <glyph glyph-name="uni1F7A" unicode="&#x1f7a;" horiz-adv-x="522" 
d="M452 495v-317c0 -119 -77 -185 -191 -185s-190 75 -190 183v319h43v-302c0 -94 57 -159 148 -159s146 59 146 150v311h44zM258 571l-113 172l58 12l81 -175z" />
    <glyph glyph-name="uni1F7B" unicode="&#x1f7b;" horiz-adv-x="522" 
d="M452 495v-317c0 -119 -77 -185 -191 -185s-190 75 -190 183v319h43v-302c0 -94 57 -159 148 -159s146 59 146 150v311h44zM371 743l-120 -172l-26 9l90 175z" />
    <glyph glyph-name="uni1F7C" unicode="&#x1f7c;" horiz-adv-x="758" 
d="M537 -5c-59 0 -126 23 -157 100c-38 -80 -94 -101 -156 -101c-150 0 -178 120 -178 254c0 124 32 229 159 249l5 -41c-114 -21 -120 -131 -120 -244c0 -95 40 -179 134 -179c87 0 132 75 132 146v190h43v-190c0 -71 46 -145 139 -145c104 0 133 84 133 214
c0 100 -19 191 -120 209l5 41c128 -19 160 -125 160 -249c0 -134 -29 -254 -179 -254zM401 580l-26 -10l-114 172l58 12z" />
    <glyph glyph-name="uni1F7D" unicode="&#x1f7d;" horiz-adv-x="758" 
d="M537 -5c-59 0 -126 23 -157 100c-38 -80 -94 -101 -156 -101c-150 0 -178 120 -178 254c0 124 32 229 159 249l5 -41c-114 -21 -120 -131 -120 -244c0 -95 40 -179 134 -179c87 0 132 75 132 146v190h43v-190c0 -71 46 -145 139 -145c104 0 133 84 133 214
c0 100 -19 191 -120 209l5 41c128 -19 160 -125 160 -249c0 -134 -29 -254 -179 -254zM380 570l-26 10l90 174l56 -12z" />
    <glyph glyph-name="uni1F80" unicode="&#x1f80;" horiz-adv-x="500" 
d="M437 0h-43v90h-2c-26 -50 -76 -94 -151 -94c-144 0 -186 125 -186 246c0 140 45 260 189 260c52 0 112 -15 148 -91h2v84h43v-495zM394 250c0 85 -20 211 -146 211c-130 0 -148 -123 -148 -213c0 -96 24 -212 148 -212c110 0 146 104 146 214zM358 -254h-21
c-63 0 -98 32 -98 102v85h42v-67c0 -46 6 -83 65 -83h12v-37zM259 570l-24 12c15 27 25 53 25 74c0 24 -11 46 -52 55l20 46c51 -12 80 -43 80 -85c0 -29 -15 -67 -49 -102z" />
    <glyph glyph-name="uni1F81" unicode="&#x1f81;" horiz-adv-x="500" 
d="M437 0h-43v90h-2c-26 -50 -76 -94 -151 -94c-144 0 -186 125 -186 246c0 140 45 260 189 260c52 0 112 -15 148 -91h2v84h43v-495zM394 250c0 85 -20 211 -146 211c-130 0 -148 -123 -148 -213c0 -96 24 -212 148 -212c110 0 146 104 146 214zM358 -254h-21
c-63 0 -98 32 -98 102v85h42v-67c0 -46 6 -83 65 -83h12v-37zM293 582l-24 -12c-35 35 -50 73 -50 102c0 42 30 71 81 85c6 -16 13 -30 19 -46c-39 -10 -52 -31 -52 -55c0 -21 10 -48 26 -74z" />
    <glyph glyph-name="uni1F82" unicode="&#x1f82;" horiz-adv-x="500" 
d="M437 0h-43v90h-2c-26 -50 -76 -94 -151 -94c-144 0 -186 125 -186 246c0 140 45 260 189 260c52 0 112 -15 148 -91h2v84h43v-495zM394 250c0 85 -20 211 -146 211c-130 0 -148 -123 -148 -213c0 -96 24 -212 148 -212c110 0 146 104 146 214zM358 -254h-21
c-63 0 -98 32 -98 102v85h42v-67c0 -46 6 -83 65 -83h12v-37zM180 570l-24 13c16 27 25 52 25 73c0 24 -10 45 -52 55l20 46c52 -12 81 -43 81 -85c0 -29 -15 -67 -50 -102zM382 580l-26 -10l-114 176l58 11z" />
    <glyph glyph-name="uni1F83" unicode="&#x1f83;" horiz-adv-x="500" 
d="M437 0h-43v90h-2c-26 -50 -76 -94 -151 -94c-144 0 -186 125 -186 246c0 140 45 260 189 260c52 0 112 -15 148 -91h2v84h43v-495zM394 250c0 85 -20 211 -146 211c-130 0 -148 -123 -148 -213c0 -96 24 -212 148 -212c110 0 146 104 146 214zM358 -254h-21
c-63 0 -98 32 -98 102v85h42v-67c0 -46 6 -83 65 -83h12v-37zM202 582l-24 -12c-35 35 -50 73 -50 102c0 42 30 71 81 85c6 -16 13 -30 19 -46c-38 -10 -51 -30 -51 -53c0 -22 8 -48 25 -76zM383 580l-26 -10l-113 176l58 11z" />
    <glyph glyph-name="uni1F84" unicode="&#x1f84;" horiz-adv-x="500" 
d="M437 0h-43v90h-2c-26 -50 -76 -94 -151 -94c-144 0 -186 125 -186 246c0 140 45 260 189 260c52 0 112 -15 148 -91h2v84h43v-495zM394 250c0 85 -20 211 -146 211c-130 0 -148 -123 -148 -213c0 -96 24 -212 148 -212c110 0 146 104 146 214zM358 -254h-21
c-63 0 -98 32 -98 102v85h42v-67c0 -46 6 -83 65 -83h12v-37zM197 570l-24 12c15 27 25 53 25 74c0 24 -12 45 -52 55l20 46c51 -13 80 -43 80 -86c0 -29 -15 -67 -49 -101zM277 570l-26 10l89 177l57 -11z" />
    <glyph glyph-name="uni1F85" unicode="&#x1f85;" horiz-adv-x="500" 
d="M437 0h-43v90h-2c-26 -50 -76 -94 -151 -94c-144 0 -186 125 -186 246c0 140 45 260 189 260c52 0 112 -15 148 -91h2v84h43v-495zM394 250c0 85 -20 211 -146 211c-130 0 -148 -123 -148 -213c0 -96 24 -212 148 -212c110 0 146 104 146 214zM358 -254h-21
c-63 0 -98 32 -98 102v85h42v-67c0 -46 6 -83 65 -83h12v-37zM224 582l-25 -12c-34 34 -49 72 -49 101c0 43 29 73 81 86c6 -16 13 -31 19 -46c-39 -10 -52 -31 -52 -56c0 -19 10 -48 26 -73zM277 570l-26 10l89 177l57 -11z" />
    <glyph glyph-name="uni1F88" unicode="&#x1f88;" horiz-adv-x="801" 
d="M519 0l-60 170h-335l-60 -170h-50l253 696h49c85 -232 170 -464 254 -696h-51zM293 639h-3c-15 -43 -133 -376 -152 -428h307zM777 0h-22c-65 0 -107 33 -107 104v392h44v-350c0 -47 -3 -108 74 -108h11v-38zM45 514l-24 12c15 27 25 53 25 74c0 24 -12 46 -51 55
c6 16 12 30 19 46c51 -12 80 -43 80 -85c0 -29 -15 -67 -49 -102z" />
    <glyph glyph-name="uni1F89" unicode="&#x1f89;" horiz-adv-x="801" 
d="M519 0l-60 170h-335l-60 -170h-50l253 696h49c85 -232 170 -464 254 -696h-51zM293 639h-3c-15 -43 -133 -376 -152 -428h307zM777 0h-22c-65 0 -107 33 -107 104v392h44v-350c0 -47 -3 -108 74 -108h11v-38zM68 527l-24 -12c-35 35 -49 72 -49 101c0 42 28 72 80 86
c6 -16 13 -30 19 -46c-39 -10 -52 -31 -52 -55c0 -21 10 -48 26 -74z" />
    <glyph glyph-name="uni1F8A" unicode="&#x1f8a;" horiz-adv-x="801" 
d="M519 0l-60 170h-335l-60 -170h-50l253 696h49c85 -232 170 -464 254 -696h-51zM293 639h-3c-15 -43 -133 -376 -152 -428h307zM777 0h-22c-65 0 -107 33 -107 104v392h44v-350c0 -47 -3 -108 74 -108h11v-38zM-85 514l-24 13c15 27 25 52 25 73c0 24 -12 46 -52 55l20 46
c51 -12 80 -43 80 -85c0 -29 -15 -67 -49 -102zM115 524l-25 -10c-38 59 -76 117 -113 176l57 11z" />
    <glyph glyph-name="uni1F8B" unicode="&#x1f8b;" horiz-adv-x="801" 
d="M519 0l-60 170h-335l-60 -170h-50l253 696h49c85 -232 170 -464 254 -696h-51zM293 639h-3c-15 -43 -133 -376 -152 -428h307zM777 0h-22c-65 0 -107 33 -107 104v392h44v-350c0 -47 -3 -108 74 -108h11v-38zM-49 527l-24 -12c-34 34 -49 70 -49 99c0 44 27 74 80 88
l20 -46c-39 -10 -53 -30 -53 -53c0 -22 9 -48 26 -76zM131 525l-25 -10c-38 59 -76 117 -113 176l57 11z" />
    <glyph glyph-name="uni1F8C" unicode="&#x1f8c;" horiz-adv-x="801" 
d="M519 0l-60 170h-335l-60 -170h-50l253 696h49c85 -232 170 -464 254 -696h-51zM293 639h-3c-15 -43 -133 -376 -152 -428h307zM777 0h-22c-65 0 -107 33 -107 104v392h44v-350c0 -47 -3 -108 74 -108h11v-38zM-86 513l-24 12c16 27 25 52 25 73c0 24 -11 45 -51 56l19 46
c51 -13 81 -43 81 -86c0 -29 -15 -67 -50 -101zM-6 513l-26 10l89 177l56 -11c-40 -59 -80 -117 -119 -176z" />
    <glyph glyph-name="uni1F8D" unicode="&#x1f8d;" horiz-adv-x="801" 
d="M519 0l-60 170h-335l-60 -170h-50l253 696h49c85 -232 170 -464 254 -696h-51zM293 639h-3c-15 -43 -133 -376 -152 -428h307zM777 0h-22c-65 0 -107 33 -107 104v392h44v-350c0 -47 -3 -108 74 -108h11v-38zM-57 527l-24 -12c-34 34 -49 72 -49 101c0 43 29 73 80 86
l20 -46c-39 -10 -53 -30 -53 -54c0 -21 10 -48 26 -75zM-4 515l-25 10c29 59 58 118 88 177l57 -11c-40 -59 -81 -117 -120 -176z" />
    <glyph glyph-name="uni1F90" unicode="&#x1f90;" horiz-adv-x="508" 
d="M399 0v317c0 92 -63 141 -146 141c-85 0 -146 -62 -146 -155v-303h-44v496h44v-82h2c32 63 97 86 154 86c101 0 180 -63 180 -168v-332h-44zM353 -254h-22c-63 0 -97 32 -97 102v85h42v-67c0 -46 6 -83 64 -83h13v-37zM247 570l-24 12c15 27 25 53 25 74
c0 24 -11 46 -52 55l20 46c51 -12 80 -43 80 -85c0 -29 -15 -67 -49 -102z" />
    <glyph glyph-name="uni1F91" unicode="&#x1f91;" horiz-adv-x="508" 
d="M399 0v317c0 92 -63 141 -146 141c-85 0 -146 -62 -146 -155v-303h-44v496h44v-82h2c32 63 97 86 154 86c101 0 180 -63 180 -168v-332h-44zM353 -254h-22c-63 0 -97 32 -97 102v85h42v-67c0 -46 6 -83 64 -83h13v-37zM274 582l-24 -12c-35 35 -50 73 -50 102
c0 42 30 71 81 85c6 -16 13 -30 19 -46c-39 -10 -52 -31 -52 -55c0 -21 10 -48 26 -74z" />
    <glyph glyph-name="uni1F92" unicode="&#x1f92;" horiz-adv-x="508" 
d="M399 0v317c0 92 -63 141 -146 141c-85 0 -146 -62 -146 -155v-303h-44v496h44v-82h2c32 63 97 86 154 86c101 0 180 -63 180 -168v-332h-44zM353 -254h-22c-63 0 -97 32 -97 102v85h42v-67c0 -46 6 -83 64 -83h13v-37zM160 570l-24 13c15 27 25 52 25 73
c0 24 -11 46 -52 55l20 46c51 -12 80 -43 80 -85c0 -29 -15 -67 -49 -102zM361 580l-26 -10l-113 176l58 11z" />
    <glyph glyph-name="uni1F93" unicode="&#x1f93;" horiz-adv-x="508" 
d="M399 0v317c0 92 -63 141 -146 141c-85 0 -146 -62 -146 -155v-303h-44v496h44v-82h2c32 63 97 86 154 86c101 0 180 -63 180 -168v-332h-44zM353 -254h-22c-63 0 -97 32 -97 102v85h42v-67c0 -46 6 -83 64 -83h13v-37zM183 582l-24 -12c-35 35 -50 73 -50 102
c0 42 30 71 81 85c6 -16 13 -30 19 -46c-39 -10 -52 -31 -52 -55c0 -21 10 -48 26 -74zM364 580l-26 -10l-113 176l58 11z" />
    <glyph glyph-name="uni1F94" unicode="&#x1f94;" horiz-adv-x="508" 
d="M399 0v317c0 92 -63 141 -146 141c-85 0 -146 -62 -146 -155v-303h-44v496h44v-82h2c32 63 97 86 154 86c101 0 180 -63 180 -168v-332h-44zM353 -254h-22c-63 0 -97 32 -97 102v85h42v-67c0 -46 6 -83 64 -83h13v-37zM205 570l-25 12c16 26 26 51 26 72
c0 24 -11 46 -52 57c6 15 13 30 19 46c52 -13 81 -43 81 -86c0 -29 -15 -67 -49 -101zM284 570l-26 10l90 177l57 -11z" />
    <glyph glyph-name="uni1F95" unicode="&#x1f95;" horiz-adv-x="508" 
d="M399 0v317c0 92 -63 141 -146 141c-85 0 -146 -62 -146 -155v-303h-44v496h44v-82h2c32 63 97 86 154 86c101 0 180 -63 180 -168v-332h-44zM353 -254h-22c-63 0 -97 32 -97 102v85h42v-67c0 -46 6 -83 64 -83h13v-37zM231 582l-24 -12c-34 34 -49 72 -49 101
c0 43 29 73 80 86l20 -46c-39 -10 -52 -30 -52 -54c0 -20 8 -48 25 -75zM284 570l-26 10l90 177l57 -11z" />
    <glyph glyph-name="uni1F98" unicode="&#x1f98;" horiz-adv-x="827" 
d="M499 0v332h-374v-332h-47v696h47v-323h374v323h46v-696h-46zM804 0h-23c-64 0 -106 33 -106 104v392h44v-350c0 -46 -4 -108 74 -108h11v-38zM-46 520l-24 12c15 27 25 53 25 74c0 24 -12 46 -52 55l20 46c52 -13 79 -44 79 -86c0 -29 -14 -66 -48 -101z" />
    <glyph glyph-name="uni1F99" unicode="&#x1f99;" horiz-adv-x="827" 
d="M804 0h-23c-64 0 -106 33 -106 104v392h44v-350c0 -46 -4 -108 74 -108h11v-38zM499 0v332h-374v-332h-47v696h47v-323h374v323h46v-696h-46zM-23 532l-24 -12c-35 35 -50 73 -50 102c0 42 29 71 81 85c7 -16 13 -30 18 -46c-37 -10 -51 -29 -51 -53c0 -22 9 -48 26 -76z
" />
    <glyph glyph-name="uni1F9A" unicode="&#x1f9a;" horiz-adv-x="827" 
d="M499 0v332h-374v-332h-47v696h47v-323h374v323h46v-696h-46zM804 0h-23c-64 0 -106 33 -106 104v392h44v-350c0 -46 -4 -108 74 -108h11v-38zM-198 520l-24 13c15 27 25 52 25 73c0 24 -12 46 -52 55l20 46c51 -12 80 -43 80 -85c0 -29 -15 -67 -49 -102zM2 530
c-7 -3 -16 -7 -25 -10l-113 176l58 11c27 -59 54 -118 80 -177z" />
    <glyph glyph-name="uni1F9B" unicode="&#x1f9b;" horiz-adv-x="827" 
d="M499 0v332h-374v-332h-47v696h47v-323h374v323h46v-696h-46zM804 0h-23c-64 0 -106 33 -106 104v392h44v-350c0 -22 1 -49 7 -71c7 -23 30 -37 67 -37h11v-38zM-194 520c-34 35 -49 73 -49 102c0 42 29 73 80 85l20 -46c-40 -9 -52 -31 -52 -55c0 -21 10 -46 25 -73z
M8 530c-7 -3 -16 -7 -25 -10l-113 176l58 11c27 -59 54 -118 80 -177z" />
    <glyph glyph-name="uni1F9C" unicode="&#x1f9c;" horiz-adv-x="827" 
d="M499 0v332h-374v-332h-47v696h47v-323h374v323h46v-696h-46zM804 0h-23c-64 0 -106 33 -106 104v392h44v-350c0 -22 1 -49 7 -71c7 -23 30 -37 67 -37h11v-38zM-188 520l-24 13c15 27 25 52 25 73c0 24 -12 46 -52 55l20 46c51 -12 80 -43 80 -85c0 -29 -15 -67 -49 -102
zM-126 530c26 59 53 118 80 177l58 -11l-113 -176c-9 3 -18 7 -25 10z" />
    <glyph glyph-name="uni1F9D" unicode="&#x1f9d;" horiz-adv-x="827" 
d="M499 0v332h-374v-332h-47v696h47v-323h374v323h46v-696h-46zM804 0h-23c-64 0 -106 33 -106 104v392h44v-350c0 -22 1 -49 7 -71c7 -23 30 -37 67 -37h11v-38zM-190 520c-34 35 -49 73 -49 102c0 42 29 73 80 85l20 -46c-40 -9 -52 -31 -52 -55c0 -21 10 -46 25 -73z
M-126 530c26 59 53 118 80 177l58 -11l-113 -176c-9 3 -18 7 -25 10z" />
    <glyph glyph-name="uni1FA0" unicode="&#x1fa0;" horiz-adv-x="758" 
d="M537 -5c-59 0 -126 23 -157 100c-38 -80 -94 -101 -156 -101c-150 0 -178 120 -178 254c0 124 32 229 159 249l5 -41c-114 -21 -120 -131 -120 -244c0 -95 40 -179 134 -179c87 0 132 75 132 146v190h43v-190c0 -71 46 -145 139 -145c104 0 133 84 133 214
c0 100 -19 191 -120 209l5 41c128 -19 160 -125 160 -249c0 -134 -29 -254 -179 -254zM475 -254h-21c-63 0 -98 32 -98 102v85h42v-67c0 -45 8 -83 65 -83h12v-37zM373 570l-24 12c16 27 25 52 25 74c0 24 -10 45 -52 55l20 46c51 -12 80 -43 80 -85c0 -29 -15 -67 -49 -102
z" />
    <glyph glyph-name="uni1FA1" unicode="&#x1fa1;" horiz-adv-x="758" 
d="M537 -5c-59 0 -126 23 -157 100c-38 -80 -94 -101 -156 -101c-150 0 -178 120 -178 254c0 124 32 229 159 249l5 -41c-114 -21 -120 -131 -120 -244c0 -95 40 -179 134 -179c87 0 132 75 132 146v190h43v-190c0 -71 46 -145 139 -145c104 0 133 84 133 214
c0 100 -19 191 -120 209l5 41c128 -19 160 -125 160 -249c0 -134 -29 -254 -179 -254zM475 -254h-22c-63 0 -98 32 -98 102v85h42v-67c0 -45 8 -83 65 -83h13v-37zM409 582l-24 -12c-34 35 -49 73 -49 102c0 42 29 72 80 85l20 -46c-39 -10 -52 -30 -52 -53
c0 -22 8 -48 25 -76z" />
    <glyph glyph-name="uni1FA2" unicode="&#x1fa2;" horiz-adv-x="758" 
d="M537 -5c-59 0 -126 23 -157 100c-38 -80 -94 -101 -156 -101c-150 0 -178 120 -178 254c0 124 32 229 159 249l5 -41c-114 -21 -120 -131 -120 -244c0 -95 40 -179 134 -179c87 0 132 75 132 146v190h43v-190c0 -71 46 -145 139 -145c104 0 133 84 133 214
c0 100 -19 191 -120 209l5 41c128 -19 160 -125 160 -249c0 -134 -29 -254 -179 -254zM475 -254h-21c-63 0 -98 32 -98 102v85h42v-67c0 -45 8 -83 65 -83h12v-37zM298 570l-24 13c16 27 25 52 25 73c0 24 -10 45 -52 55l20 46c52 -12 81 -43 81 -85c0 -29 -15 -67 -50 -102
zM500 580l-26 -10l-114 176l58 11z" />
    <glyph glyph-name="uni1FA3" unicode="&#x1fa3;" horiz-adv-x="758" 
d="M537 -5c-59 0 -126 23 -157 100c-38 -80 -94 -101 -156 -101c-150 0 -178 120 -178 254c0 124 32 229 159 249l5 -41c-114 -21 -120 -131 -120 -244c0 -95 40 -179 134 -179c87 0 132 75 132 146v190h43v-190c0 -71 46 -145 139 -145c104 0 133 84 133 214
c0 100 -19 191 -120 209l5 41c128 -19 160 -125 160 -249c0 -134 -29 -254 -179 -254zM475 -254h-21c-63 0 -98 32 -98 102v85h42v-67c0 -45 8 -83 65 -83h12v-37zM322 582l-24 -12c-34 35 -49 73 -49 102c0 42 29 72 80 85l20 -46c-39 -10 -52 -30 -52 -53
c0 -22 8 -48 25 -76zM504 580l-26 -10l-114 176l58 11z" />
    <glyph glyph-name="uni1FA4" unicode="&#x1fa4;" horiz-adv-x="758" 
d="M537 -5c-59 0 -126 23 -157 100c-38 -80 -94 -101 -156 -101c-150 0 -178 120 -178 254c0 124 32 229 159 249l5 -41c-114 -21 -120 -131 -120 -244c0 -95 40 -179 134 -179c87 0 132 75 132 146v190h43v-190c0 -71 46 -145 139 -145c104 0 133 84 133 214
c0 100 -19 191 -120 209l5 41c128 -19 160 -125 160 -249c0 -134 -29 -254 -179 -254zM475 -254h-21c-63 0 -98 32 -98 102v85h42v-67c0 -45 8 -83 65 -83h12v-37zM347 570l-25 12c16 26 26 51 26 72c0 24 -11 46 -52 57c6 15 13 30 19 46c52 -13 81 -43 81 -86
c0 -29 -15 -67 -49 -101zM426 570l-26 10l90 177l57 -11z" />
    <glyph glyph-name="uni1FA5" unicode="&#x1fa5;" horiz-adv-x="758" 
d="M537 -5c-59 0 -126 23 -157 100c-38 -80 -94 -101 -156 -101c-150 0 -178 120 -178 254c0 124 32 229 159 249l5 -41c-114 -21 -120 -131 -120 -244c0 -95 40 -179 134 -179c87 0 132 75 132 146v190h43v-190c0 -71 46 -145 139 -145c104 0 133 84 133 214
c0 100 -19 191 -120 209l5 41c128 -19 160 -125 160 -249c0 -134 -29 -254 -179 -254zM475 -254h-21c-63 0 -98 32 -98 102v85h42v-67c0 -45 8 -83 65 -83h12v-37zM369 582l-24 -12c-34 34 -49 72 -49 101c0 43 29 73 80 86l20 -46c-39 -10 -52 -30 -52 -54
c0 -21 9 -48 25 -75zM422 570l-26 10l90 177l57 -11z" />
    <glyph glyph-name="uni1FA8" unicode="&#x1fa8;" horiz-adv-x="800" 
d="M147 42c-72 37 -105 117 -105 215v196c0 133 79 248 240 248c149 0 238 -104 238 -248v-196c0 -98 -34 -174 -102 -214c0 -1 1 -1 1 -1h117v-42h-191v51c81 26 127 105 127 205v195c0 116 -68 206 -189 206c-132 0 -194 -95 -194 -206v-195c0 -89 43 -178 129 -206v-50
h-191v42h120zM777 0h-23c-64 0 -106 33 -106 104v392h44v-350c0 -46 -4 -108 74 -108h11v-38zM-47 520l-25 12c15 26 26 52 26 73c0 24 -11 46 -52 56c6 16 13 30 19 46c53 -13 80 -43 80 -86c0 -29 -14 -66 -48 -101z" />
    <glyph glyph-name="uni1FA9" unicode="&#x1fa9;" horiz-adv-x="800" 
d="M147 42c-72 37 -105 117 -105 215v196c0 133 79 248 240 248c149 0 238 -104 238 -248v-196c0 -98 -34 -174 -102 -214c0 -1 1 -1 1 -1h117v-42h-191v51c81 26 127 105 127 205v195c0 116 -68 206 -189 206c-132 0 -194 -95 -194 -206v-195c0 -89 43 -178 129 -206v-50
h-191v42h120zM777 0h-23c-64 0 -106 33 -106 104v392h44v-350c0 -46 -4 -108 74 -108h11v-38zM-22 532l-25 -12c-34 35 -49 73 -49 102c0 42 28 72 81 85c6 -16 13 -30 18 -46c-38 -10 -51 -31 -51 -55c0 -21 10 -48 26 -74z" />
    <glyph glyph-name="uni1FAA" unicode="&#x1faa;" horiz-adv-x="800" 
d="M147 42c-72 37 -105 117 -105 215v196c0 133 79 248 240 248c149 0 238 -104 238 -248v-196c0 -98 -34 -174 -102 -214c0 -1 1 -1 1 -1h117v-42h-191v51c81 26 127 105 127 205v195c0 116 -68 206 -189 206c-132 0 -194 -95 -194 -206v-195c0 -89 43 -178 129 -206v-50
h-191v42h120zM777 0h-23c-64 0 -106 33 -106 104v392h44v-350c0 -46 -4 -108 74 -108h11v-38zM-199 520l-24 13c16 27 25 52 25 73c0 24 -12 46 -52 55l20 46c51 -12 80 -43 80 -85c0 -29 -15 -67 -49 -102zM1 530l-24 -10l-114 176l58 11c27 -59 54 -118 80 -177z" />
    <glyph glyph-name="uni1FAB" unicode="&#x1fab;" horiz-adv-x="800" 
d="M147 42c-72 37 -105 117 -105 215v196c0 133 79 248 240 248c149 0 238 -104 238 -248v-196c0 -98 -34 -174 -102 -214c0 -1 1 -1 1 -1h117v-42h-191v51c81 26 127 105 127 205v195c0 116 -68 206 -189 206c-132 0 -194 -95 -194 -206v-195c0 -89 43 -178 129 -206v-50
h-191v42h120zM777 0h-23c-64 0 -106 33 -106 104v392h44v-350c0 -46 -4 -108 74 -108h11v-38zM-201 520c-34 35 -49 73 -49 102c0 42 29 73 80 85l20 -46c-40 -9 -52 -31 -52 -55c0 -21 9 -46 25 -73zM1 530l-24 -10l-114 176l58 11c27 -59 54 -118 80 -177z" />
    <glyph glyph-name="uni1FAC" unicode="&#x1fac;" horiz-adv-x="800" 
d="M147 42c-72 37 -105 117 -105 215v196c0 133 79 248 240 248c149 0 238 -104 238 -248v-196c0 -98 -34 -174 -102 -214c0 -1 1 -1 1 -1h117v-42h-191v51c81 26 127 105 127 205v195c0 116 -68 206 -189 206c-132 0 -194 -95 -194 -206v-195c0 -89 43 -178 129 -206v-50
h-191v42h120zM777 0h-23c-64 0 -106 33 -106 104v392h44v-350c0 -46 -4 -108 74 -108h11v-38zM-184 520l-24 12c15 27 25 53 25 74c0 24 -12 45 -52 55l20 46c51 -13 80 -43 80 -86c0 -29 -15 -67 -49 -101zM-104 520l-26 10l89 177l56 -11c-39 -59 -79 -117 -119 -176z" />
    <glyph glyph-name="uni1FAD" unicode="&#x1fad;" horiz-adv-x="800" 
d="M147 42c-72 37 -105 117 -105 215v196c0 133 79 248 240 248c149 0 238 -104 238 -248v-196c0 -98 -34 -174 -102 -214c0 -1 1 -1 1 -1h117v-42h-191v51c81 26 127 105 127 205v195c0 116 -68 206 -189 206c-132 0 -194 -95 -194 -206v-195c0 -89 43 -178 129 -206v-50
h-191v42h120zM777 0h-23c-64 0 -106 33 -106 104v392h44v-350c0 -46 -4 -108 74 -108h11v-38zM-155 532l-24 -12c-34 34 -49 72 -49 101c0 43 29 73 80 86l20 -46c-39 -10 -53 -30 -53 -54c0 -21 10 -48 26 -75zM-102 520l-25 10l89 177l56 -11c-39 -59 -80 -117 -120 -176z
" />
    <glyph glyph-name="uni1FB0" unicode="&#x1fb0;" horiz-adv-x="500" 
d="M55 242c0 140 46 260 189 260c52 0 112 -15 149 -91l1 1v84h44v-496h-44v91h-1c-27 -51 -76 -96 -152 -96c-144 0 -186 126 -186 247zM101 248c0 -95 24 -212 148 -212c110 0 145 104 145 214c0 85 -19 212 -145 212c-130 0 -148 -124 -148 -214zM131 674h39
c7 -44 46 -73 88 -73c44 0 78 23 89 73h38c-7 -50 -42 -110 -127 -110s-122 60 -127 110z" />
    <glyph glyph-name="uni1FB1" unicode="&#x1fb1;" horiz-adv-x="500" 
d="M55 242c0 140 46 260 189 260c52 0 112 -15 149 -91l1 1v84h44v-496h-44v91h-1c-27 -51 -76 -96 -152 -96c-144 0 -186 126 -186 247zM101 248c0 -95 24 -212 148 -212c110 0 145 104 145 214c0 85 -19 212 -145 212c-130 0 -148 -124 -148 -214zM392 593h-255v41h255
v-41z" />
    <glyph glyph-name="uni1FB2" unicode="&#x1fb2;" horiz-adv-x="500" 
d="M55 242c0 140 46 260 189 260c52 0 112 -15 149 -91l1 1v84h44v-496h-44v91h-1c-27 -51 -76 -96 -152 -96c-144 0 -186 126 -186 247zM101 248c0 -95 24 -212 148 -212c110 0 145 104 145 214c0 85 -19 212 -145 212c-130 0 -148 -124 -148 -214zM249 571l-114 172l59 12
l81 -175zM239 -67h43v-75c0 -41 10 -75 64 -75h13v-38h-22c-63 0 -98 33 -98 103v85z" />
    <glyph glyph-name="uni1FB3" unicode="&#x1fb3;" horiz-adv-x="500" 
d="M55 242c0 140 46 260 189 260c52 0 112 -15 149 -91l1 1v84h44v-496h-44v91h-1c-27 -51 -76 -96 -152 -96c-144 0 -186 126 -186 247zM101 248c0 -95 24 -212 148 -212c110 0 145 104 145 214c0 85 -19 212 -145 212c-130 0 -148 -124 -148 -214zM239 -67h43v-75
c0 -41 10 -75 64 -75h13v-38h-22c-63 0 -98 33 -98 103v85z" />
    <glyph glyph-name="uni1FB4" unicode="&#x1fb4;" horiz-adv-x="500" 
d="M55 242c0 140 46 260 189 260c52 0 112 -15 149 -91l1 1v84h44v-496h-44v91h-1c-27 -51 -76 -96 -152 -96c-144 0 -186 126 -186 247zM101 248c0 -95 24 -212 148 -212c110 0 145 104 145 214c0 85 -19 212 -145 212c-130 0 -148 -124 -148 -214zM384 743l-120 -172
l-26 9l89 175zM239 -67h43v-75c0 -41 10 -75 64 -75h13v-38h-22c-63 0 -98 33 -98 103v85z" />
    <glyph glyph-name="uni1FBA" unicode="&#x1fba;" horiz-adv-x="585" 
d="M519 0l-60 170h-335l-60 -170h-50l253 696h49c85 -232 170 -464 254 -696h-51zM293 639h-3c-15 -43 -133 -376 -152 -428h307l-90 254c-21 58 -42 116 -62 174zM88 530l-26 -10c-38 58 -74 115 -112 172l57 12z" />
    <glyph glyph-name="uni1FBB" unicode="&#x1fbb;" horiz-adv-x="585" 
d="M519 0l-60 170h-335l-60 -170h-50l253 696h49c85 -232 170 -464 254 -696h-51zM293 639h-3c-15 -43 -133 -376 -152 -428h307l-90 254c-21 58 -42 116 -62 174zM0 520l-25 10c29 57 58 116 88 174l57 -12z" />
    <glyph glyph-name="uni1FBC" unicode="&#x1fbc;" horiz-adv-x="801" 
d="M519 0l-60 170h-335l-60 -170h-50l253 696h49c85 -232 170 -464 254 -696h-51zM293 639h-3c-15 -43 -133 -376 -152 -428h307zM777 0h-22c-65 0 -107 33 -107 104v392h44v-350c0 -47 -3 -108 74 -108h11v-38z" />
    <glyph glyph-name="uni1FC2" unicode="&#x1fc2;" horiz-adv-x="508" 
d="M443 0h-44v317c0 92 -63 142 -145 142c-85 0 -147 -63 -147 -156v-303h-43v496h43v-81h2c33 63 97 85 154 85c102 0 180 -62 180 -167v-333zM249 571l-114 172l59 12l81 -175zM239 -67h43v-75c0 -41 10 -75 64 -75h13v-38h-22c-63 0 -98 33 -98 103v85z" />
    <glyph glyph-name="uni1FC3" unicode="&#x1fc3;" horiz-adv-x="508" 
d="M443 0h-44v317c0 92 -63 142 -145 142c-85 0 -147 -63 -147 -156v-303h-43v496h43v-81h2c33 63 97 85 154 85c102 0 180 -62 180 -167v-333zM237 -67h43v-75c0 -41 10 -75 64 -75h13v-38h-22c-63 0 -98 33 -98 103v85z" />
    <glyph glyph-name="uni1FC4" unicode="&#x1fc4;" horiz-adv-x="508" 
d="M443 0h-44v317c0 92 -63 142 -145 142c-85 0 -147 -63 -147 -156v-303h-43v496h43v-81h2c33 63 97 85 154 85c102 0 180 -62 180 -167v-333zM371 743l-120 -172l-26 9l89 175zM239 -67h43v-75c0 -41 10 -75 64 -75h13v-38h-22c-63 0 -98 33 -98 103v85z" />
    <glyph glyph-name="uni1FC8" unicode="&#x1fc8;" horiz-adv-x="528" 
d="M501 0h-422v696h422v-43h-375v-279h320v-42h-320v-289h375v-43zM-22 521l-114 172l58 12l82 -175z" />
    <glyph glyph-name="uni1FC9" unicode="&#x1fc9;" horiz-adv-x="528" 
d="M501 0h-422v696h422v-43h-375v-279h320v-42h-320v-289h375v-43zM11 693l-120 -172l-26 9l89 175z" />
    <glyph glyph-name="uni1FCA" unicode="&#x1fca;" horiz-adv-x="625" 
d="M546 0h-47v332h-374v-332h-46v696h46v-322h374v322h47v-696zM-40 521l-114 172l59 12l81 -175z" />
    <glyph glyph-name="uni1FCB" unicode="&#x1fcb;" horiz-adv-x="625" 
d="M546 0h-47v332h-374v-332h-46v696h46v-322h374v322h47v-696zM-8 693l-120 -172l-26 9l89 175z" />
    <glyph glyph-name="uni1FCC" unicode="&#x1fcc;" horiz-adv-x="827" 
d="M804 0h-23c-64 0 -106 33 -106 104v392h44v-350c0 -46 -4 -108 74 -108h11v-38zM499 0v332h-374v-332h-47v696h47v-323h374v323h46v-696h-46z" />
    <glyph glyph-name="uni1FD8" unicode="&#x1fd8;" horiz-adv-x="221" 
d="M133 0h-47v696h47v-696zM-17 841h38c6 -39 43 -73 89 -73c49 0 83 34 89 73h38c-7 -50 -42 -110 -127 -110s-122 60 -127 110z" />
    <glyph glyph-name="uni1FD9" unicode="&#x1fd9;" horiz-adv-x="215" 
d="M130 0h-46v696h46v-696zM235 769h-255v41h255v-41z" />
    <glyph glyph-name="uni1FDA" unicode="&#x1fda;" horiz-adv-x="216" 
d="M129 0h-46v696h46v-696zM-16 521l-114 172l59 12l81 -175z" />
    <glyph glyph-name="uni1FDB" unicode="&#x1fdb;" horiz-adv-x="216" 
d="M129 0h-46v696h46v-696zM8 693l-121 -172l-26 9l90 175z" />
    <glyph glyph-name="uni1FE0" unicode="&#x1fe0;" horiz-adv-x="522" 
d="M452 495v-317c0 -119 -77 -185 -191 -185s-190 75 -190 183v319h43v-302c0 -94 57 -159 148 -159s146 59 146 150v311h44zM134 674h39c8 -44 46 -73 89 -73c44 0 78 23 88 73h39c-7 -50 -42 -110 -127 -110s-123 60 -128 110z" />
    <glyph glyph-name="uni1FE1" unicode="&#x1fe1;" horiz-adv-x="522" 
d="M452 495v-317c0 -119 -77 -185 -191 -185s-190 75 -190 183v319h43v-302c0 -94 57 -159 148 -159s146 59 146 150v311h44zM386 583h-255v41h255v-41z" />
    <glyph glyph-name="uni1FE2" unicode="&#x1fe2;" horiz-adv-x="522" 
d="M452 495v-317c0 -119 -77 -185 -191 -185s-190 75 -190 183v319h43v-302c0 -94 57 -159 148 -159s146 59 146 150v311h44zM181 610h-54v54h54v-54zM400 610h-54v54h54v-54zM300 571l-113 175l58 12l81 -178z" />
    <glyph glyph-name="uni1FE3" unicode="&#x1fe3;" horiz-adv-x="522" 
d="M452 495v-317c0 -119 -77 -185 -191 -185s-190 75 -190 183v319h43v-302c0 -94 57 -159 148 -159s146 59 146 150v311h44zM401 613h-54v54h54v-54zM181 613h-54v54h54v-54zM353 749l-120 -176l-26 10l89 178z" />
    <glyph glyph-name="uni1FE4" unicode="&#x1fe4;" horiz-adv-x="500" 
d="M256 501c71 0 128 -29 161 -80c24 -37 36 -87 36 -177s-20 -146 -49 -182c-34 -46 -85 -67 -147 -67c-56 0 -111 18 -151 84l-1 -1v-278h-44v449c0 84 20 148 50 184c34 40 80 68 145 68zM255 462c-47 0 -86 -23 -112 -57c-22 -27 -38 -77 -38 -158
c1 -94 13 -204 150 -212c51 0 92 19 117 59c23 29 37 69 37 151c0 81 -11 120 -27 147c-26 44 -72 70 -127 70zM264 570l-24 12c16 27 25 52 25 74c0 24 -10 45 -52 55l20 46c51 -12 80 -43 80 -85c0 -29 -15 -67 -49 -102z" />
    <glyph glyph-name="uni1FE5" unicode="&#x1fe5;" horiz-adv-x="500" 
d="M256 501c71 0 128 -29 161 -80c24 -37 36 -87 36 -177s-20 -146 -49 -182c-34 -46 -85 -67 -147 -67c-56 0 -111 18 -151 84l-1 -1v-278h-44v449c0 84 20 148 50 184c34 40 80 68 145 68zM255 462c-47 0 -86 -23 -112 -57c-22 -27 -38 -77 -38 -158
c1 -94 13 -204 150 -212c51 0 92 19 117 59c23 29 37 69 37 151c0 81 -11 120 -27 147c-26 44 -72 70 -127 70zM286 582l-24 -12c-35 35 -50 73 -50 102c0 42 30 71 81 85c6 -16 13 -30 19 -46c-39 -10 -52 -31 -52 -55c0 -21 10 -48 26 -74z" />
    <glyph glyph-name="uni1FE8" unicode="&#x1fe8;" horiz-adv-x="475" 
d="M259 288v-288h-44v288l-209 408h49c27 -52 161 -322 182 -365c25 49 49 98 73 148c37 72 74 144 109 217h48c-70 -136 -139 -272 -208 -408zM237 766c49 0 83 34 89 73h38c-7 -50 -42 -110 -127 -110s-122 60 -127 110h38c6 -39 43 -73 89 -73z" />
    <glyph glyph-name="uni1FE9" unicode="&#x1fe9;" horiz-adv-x="475" 
d="M259 288v-288h-44v288l-209 408h49c27 -52 161 -322 182 -365c25 49 49 98 73 148c37 72 74 144 109 217h48c-70 -136 -139 -272 -208 -408zM110 769v41h255v-41h-255z" />
    <glyph glyph-name="uni1FEA" unicode="&#x1fea;" horiz-adv-x="475" 
d="M259 288v-288h-44v288l-209 408h49c27 -52 161 -322 182 -365c25 49 49 98 73 148c37 72 74 144 109 217h48c-70 -136 -139 -272 -208 -408zM-47 530l-26 -10l-114 172l59 12c26 -58 54 -117 81 -174z" />
    <glyph glyph-name="uni1FEB" unicode="&#x1feb;" horiz-adv-x="475" 
d="M259 288v-288h-44v288l-209 408h49c27 -52 161 -322 182 -365c25 49 49 98 73 148c37 72 74 144 109 217h48c-70 -136 -139 -272 -208 -408zM-153 520l-26 10l90 174l56 -12z" />
    <glyph glyph-name="uni1FEC" unicode="&#x1fec;" horiz-adv-x="555" 
d="M80 696h248c111 0 216 -55 216 -203c0 -91 -67 -195 -206 -195h-211v-298h-47v696zM127 653v-312h205c115 0 162 79 162 155c0 106 -74 157 -166 157h-201zM-55 520l-25 12c15 26 26 52 26 73c0 24 -11 46 -52 56c6 16 13 30 19 46c52 -12 81 -43 81 -85
c0 -29 -15 -67 -49 -102z" />
    <glyph glyph-name="uni1FF2" unicode="&#x1ff2;" horiz-adv-x="758" 
d="M537 -5c-59 0 -126 23 -157 100c-38 -80 -94 -101 -156 -101c-150 0 -178 120 -178 254c0 124 32 229 159 249l5 -41c-114 -21 -120 -131 -120 -244c0 -95 40 -179 134 -179c87 0 132 75 132 146v190h43v-190c0 -71 46 -145 139 -145c104 0 133 84 133 214
c0 100 -19 191 -120 209l5 41c128 -19 160 -125 160 -249c0 -134 -29 -254 -179 -254zM475 -254h-21c-63 0 -98 32 -98 102v85h42v-67c0 -45 8 -83 65 -83h12v-37zM387 580l-25 -10l-114 172l58 12z" />
    <glyph glyph-name="uni1FF3" unicode="&#x1ff3;" horiz-adv-x="758" 
d="M537 -5c-59 0 -126 23 -157 100c-38 -80 -94 -101 -156 -101c-150 0 -178 120 -178 254c0 124 32 229 159 249l5 -41c-114 -21 -120 -131 -120 -244c0 -95 40 -179 134 -179c87 0 132 75 132 146v190h43v-190c0 -71 46 -145 139 -145c104 0 133 84 133 214
c0 100 -19 191 -120 209l5 41c128 -19 160 -125 160 -249c0 -134 -29 -254 -179 -254zM475 -254h-22c-63 0 -98 32 -98 102v85h42v-67c0 -45 8 -83 65 -83h13v-37z" />
    <glyph glyph-name="uni1FF4" unicode="&#x1ff4;" horiz-adv-x="758" 
d="M537 -5c-59 0 -126 23 -157 100c-38 -80 -94 -101 -156 -101c-150 0 -178 120 -178 254c0 124 32 229 159 249l5 -41c-114 -21 -120 -131 -120 -244c0 -95 40 -179 134 -179c87 0 132 75 132 146v190h43v-190c0 -71 46 -145 139 -145c104 0 133 84 133 214
c0 100 -19 191 -120 209l5 41c128 -19 160 -125 160 -249c0 -134 -29 -254 -179 -254zM475 -254h-21c-63 0 -98 32 -98 102v85h42v-67c0 -45 8 -83 65 -83h12v-37zM360 570l-26 10c30 57 59 116 89 174l57 -12z" />
    <glyph glyph-name="uni1FF8" unicode="&#x1ff8;" horiz-adv-x="571" 
d="M286 701c149 0 238 -104 238 -248v-207c0 -155 -91 -253 -238 -253c-165 0 -241 117 -241 253v207c0 133 79 248 241 248zM287 657c-130 0 -194 -95 -194 -206v-207c0 -109 64 -208 194 -208c118 0 189 89 189 212v203c0 116 -70 206 -189 206zM-27 521l-113 172l58 12
l81 -175z" />
    <glyph glyph-name="uni1FF9" unicode="&#x1ff9;" horiz-adv-x="571" 
d="M286 701c149 0 238 -104 238 -248v-207c0 -155 -91 -253 -238 -253c-165 0 -241 117 -241 253v207c0 133 79 248 241 248zM287 657c-130 0 -194 -95 -194 -206v-207c0 -109 64 -208 194 -208c118 0 189 89 189 212v203c0 116 -70 206 -189 206zM5 693l-120 -172l-26 9
l89 175z" />
    <glyph glyph-name="uni1FFA" unicode="&#x1ffa;" horiz-adv-x="566" 
d="M147 42c-72 37 -105 117 -105 215v196c0 133 79 248 240 248c149 0 238 -104 238 -248v-196c0 -98 -34 -174 -102 -214c0 -1 1 -1 1 -1h117v-42h-191v51c81 26 127 105 127 205v195c0 116 -68 206 -189 206c-132 0 -194 -95 -194 -206v-195c0 -89 43 -178 129 -206v-50
h-191v42h120zM1 530c-7 -3 -16 -7 -25 -10l-113 172l58 12z" />
    <glyph glyph-name="uni1FFB" unicode="&#x1ffb;" horiz-adv-x="566" 
d="M147 42c-72 37 -105 117 -105 215v196c0 133 79 248 240 248c149 0 238 -104 238 -248v-196c0 -98 -34 -174 -102 -214c0 -1 1 -1 1 -1h117v-42h-191v51c81 26 127 105 127 205v195c0 116 -68 206 -189 206c-132 0 -194 -95 -194 -206v-195c0 -89 43 -178 129 -206v-50
h-191v42h120zM-105 520l-26 10c30 57 59 116 89 174l56 -12z" />
    <glyph glyph-name="uni1FFC" unicode="&#x1ffc;" horiz-adv-x="800" 
d="M777 0h-23c-64 0 -106 33 -106 104v392h44v-350c0 -46 -4 -108 74 -108h11v-38zM147 42c-72 37 -105 117 -105 215v196c0 133 79 248 240 248c149 0 238 -104 238 -248v-196c0 -98 -34 -174 -102 -214c0 -1 1 -1 1 -1h117v-42h-191v51c81 26 127 105 127 205v195
c0 116 -68 206 -189 206c-132 0 -194 -95 -194 -206v-195c0 -89 43 -178 129 -206v-50h-191v42h120z" />
    <glyph glyph-name="uni1FB8" unicode="&#x1fb8;" horiz-adv-x="585" 
d="M519 0l-60 170h-335l-60 -170h-50l253 696h49c85 -232 170 -464 254 -696h-51zM293 639h-3c-15 -43 -133 -376 -152 -428h307l-90 254c-21 58 -42 116 -62 174zM292 766c49 0 84 34 89 73h38c-7 -50 -42 -110 -127 -110s-122 60 -127 110h38c6 -39 43 -73 89 -73z" />
    <glyph glyph-name="uni1FB9" unicode="&#x1fb9;" horiz-adv-x="585" 
d="M519 0l-60 170h-335l-60 -170h-50l253 696h49c85 -232 170 -464 254 -696h-51zM293 639h-3c-15 -43 -133 -376 -152 -428h307l-90 254c-21 58 -42 116 -62 174zM165 769v41h254v-41h-254z" />
    <glyph glyph-name="guilsinglright" unicode="&#x203a;" horiz-adv-x="276" 
d="M108 46h-45l114 173l-114 172h44l118 -172z" />
    <glyph glyph-name="guilsinglleft" unicode="&#x2039;" horiz-adv-x="276" 
d="M225 46h-45l-117 173l118 172h44l-114 -172z" />
    <glyph glyph-name="exclamdown" unicode="&#xa1;" horiz-adv-x="212" 
d="M84 -207l6 507h33l6 -507h-45zM80 489h54v-60h-54v60z" />
    <glyph glyph-name="questiondown" unicode="&#xbf;" horiz-adv-x="429" 
d="M360 -34l44 -8c-26 -111 -107 -169 -198 -169c-108 0 -180 75 -180 173c0 65 39 114 75 155c39 43 84 86 86 146v66h46v-68c0 -35 -15 -68 -35 -96c-38 -53 -126 -117 -126 -197c0 -53 31 -137 140 -137c88 0 141 85 148 135zM181 490h55v-61h-55v61z" />
    <glyph glyph-name="emdash" unicode="&#x2014;" horiz-adv-x="993" 
d="M973 243h-953v43h953v-43z" />
    <glyph glyph-name="Thorn" unicode="&#xde;" horiz-adv-x="555" 
d="M80 0v695h47v-144h201c111 0 216 -55 216 -202c0 -92 -66 -196 -206 -196h-211v-153h-47zM494 352c0 105 -74 156 -166 156h-201v-312h205c115 0 162 79 162 156z" />
    <glyph glyph-name="thorn" unicode="&#xfe;" horiz-adv-x="497" 
d="M58 696h44v-284h1c42 73 100 90 152 90c140 0 186 -118 186 -255c0 -123 -42 -252 -191 -252c-76 0 -116 37 -147 87h-1v-281h-44v895zM102 250c0 -112 35 -214 145 -214c125 0 148 117 148 212c0 90 -18 214 -148 214c-125 0 -145 -127 -145 -212z" />
    <glyph glyph-name="OE" unicode="&#x152;" horiz-adv-x="790" 
d="M763 0h-417c-20 -4 -41 -7 -63 -7c-165 0 -240 117 -240 253v207c0 133 79 248 240 248c21 0 42 -1 61 -5h419v-43h-375v-279h321v-42h-321v-289h375v-43zM284 36c20 0 40 3 57 8v607c-17 4 -37 6 -57 6c-130 0 -194 -95 -194 -206v-207c0 -109 64 -208 194 -208z" />
    <glyph glyph-name="quotesinglbase" unicode="&#x201a;" horiz-adv-x="174" 
d="M116 -1l-42 -99h-25l26 100h-16v66h57v-67z" />
    <glyph glyph-name="quotedblbase" unicode="&#x201e;" horiz-adv-x="350" 
d="M129 -1l-41 -99h-25l26 100h-16v66h56v-67zM278 -2l-42 -98h-25l26 99h-16v66h57v-67z" />
    <glyph glyph-name="daggerdbl" unicode="&#x2021;" horiz-adv-x="447" 
d="M200 156v255h-177v41h177v244h46v-244h178v-41h-178v-255h178v-41h-178v-309h-46v309h-177v41h177z" />
    <glyph glyph-name="cent" unicode="&#xa2;" horiz-adv-x="467" 
d="M271 -6v-107h-28v107c-99 11 -188 84 -188 253c0 167 89 239 188 251v109h28v-107c69 -5 104 -19 148 -54l-27 -32c-30 26 -73 46 -121 46v-428c49 0 87 20 121 47c9 -11 19 -20 28 -31c-38 -33 -93 -53 -149 -54zM99 247c0 -123 51 -197 144 -212v422
c-93 -15 -144 -88 -144 -210z" />
    <glyph glyph-name="currency" unicode="&#xa4;" horiz-adv-x="514" 
d="M137 432l-58 58c7 8 19 20 27 28l58 -58c34 26 71 38 109 38c37 0 73 -13 106 -36l58 58c7 -8 18 -19 27 -28l-58 -58c28 -34 42 -71 42 -110s-14 -76 -38 -109l58 -57c-8 -10 -19 -20 -28 -29l-58 58c-31 -25 -70 -39 -109 -40c-41 1 -77 15 -111 43l-58 -58
c-7 8 -22 21 -28 28l58 58c-23 32 -35 68 -35 106c-1 39 13 75 38 108zM140 324c0 -75 58 -134 132 -134c76 0 134 59 134 134s-58 134 -133 134c-75 -1 -133 -59 -133 -134z" />
    <glyph glyph-name="paragraph" unicode="&#xb6;" horiz-adv-x="494" 
d="M359 682h-100v-763h-46v440c-107 0 -185 67 -185 182c0 97 56 183 180 183h259v-42h-62v-763h-46v763z" />
    <glyph glyph-name="Oslash" unicode="&#xd8;" horiz-adv-x="571" 
d="M286 701c70 0 126 -23 167 -63l41 62l27 -18l-45 -70c30 -41 48 -96 48 -159v-207c0 -155 -91 -253 -238 -253c-78 0 -136 26 -175 68l-43 -64l-27 18l48 72c-30 44 -44 100 -44 159v207c0 133 79 248 241 248zM476 451c0 44 -11 85 -30 117l-308 -465
c33 -41 82 -67 149 -67c118 0 189 89 189 212v203zM287 657c-130 0 -194 -95 -194 -206v-207c0 -40 9 -79 27 -111l306 464c-33 36 -80 60 -139 60z" />
    <glyph glyph-name="oslash" unicode="&#xf8;" horiz-adv-x="489" 
d="M249 501c53 0 98 -16 131 -46l40 53l24 -18l-43 -58c3 -3 5 -7 8 -11c23 -37 35 -87 35 -177s-21 -146 -49 -182c-36 -46 -89 -68 -154 -68c-57 0 -101 16 -133 46l-37 -50l-24 18l41 55c-29 41 -44 99 -44 186c0 91 22 147 54 185c34 41 85 67 151 67zM373 392
c-1 0 -1 1 -1 1l-235 -315c25 -29 61 -45 107 -45c51 0 92 22 119 61c21 30 37 69 37 151c0 81 -11 120 -27 147zM247 462c-51 0 -90 -23 -116 -56s-43 -77 -43 -159c0 -69 11 -112 30 -144l235 315c-27 28 -63 44 -106 44z" />
    <glyph glyph-name="Scaron" unicode="&#x160;" horiz-adv-x="546" 
d="M509 181c0 -114 -93 -187 -238 -187c-94 0 -168 22 -239 72l28 37c60 -39 134 -65 213 -65c102 0 187 50 187 143c0 113 -105 134 -183 147c-126 20 -226 53 -226 186c0 108 80 188 218 188c74 0 144 -19 202 -53l-27 -41c-54 29 -117 50 -180 50
c-82 0 -165 -46 -165 -146c0 -104 108 -126 183 -139c118 -22 227 -55 227 -192zM271 778l129 83l18 -21l-126 -109h-37l-131 110l17 21z" />
    <glyph glyph-name="Zcaron" unicode="&#x17d;" horiz-adv-x="488" 
d="M455 0h-422v42l370 613h-354v41h406v-40l-370 -613h370v-43zM257 778l129 83l18 -21l-126 -109h-37l-131 110l17 21z" />
    <glyph glyph-name="scaron" unicode="&#x161;" horiz-adv-x="460" 
d="M420 133c0 -80 -69 -140 -198 -140c-73 0 -135 20 -191 62l26 34c49 -38 105 -57 174 -57c61 0 143 24 143 104c0 81 -80 91 -141 96c-83 7 -187 27 -187 130c0 88 74 139 178 139c71 0 120 -15 165 -43l-24 -37c-42 25 -86 40 -141 40c-74 0 -133 -36 -133 -100
c0 -75 93 -81 151 -87c84 -8 178 -26 178 -141zM215 605l126 96l21 -20l-126 -124h-37l-132 124l21 21z" />
    <glyph glyph-name="zcaron" unicode="&#x17e;" horiz-adv-x="421" 
d="M385 0h-350v36l300 421h-285v38h335v-37l-298 -419h298v-39zM212 605l126 96l21 -20l-126 -124h-37l-132 124l21 21z" />
    <glyph glyph-name="Ydieresis" unicode="&#x178;" horiz-adv-x="475" 
d="M259 288v-288h-44v288l-209 408h49c27 -52 161 -322 182 -365c25 49 49 98 73 148c37 72 74 144 109 217h48c-70 -136 -139 -272 -208 -408zM308 758v53h55v-53h-55zM130 758v53h54v-53h-54z" />
    <glyph glyph-name="Agrave" unicode="&#xc0;" horiz-adv-x="598" 
d="M519 0l-60 170h-335l-60 -170h-50l253 696h49c85 -232 170 -464 254 -696h-51zM293 639h-3c-15 -43 -133 -376 -152 -428h307l-90 254c-21 58 -42 116 -62 174zM318 751c-6 -8 -12 -16 -19 -23l-151 93l35 38c45 -37 90 -72 135 -108z" />
    <glyph glyph-name="Aacute" unicode="&#xc1;" horiz-adv-x="585" 
d="M519 0l-60 170h-335l-60 -170h-50l253 696h49c85 -232 170 -464 254 -696h-51zM293 639h-3c-15 -43 -133 -376 -152 -428h307l-90 254c-21 58 -42 116 -62 174zM282 728c-7 7 -13 15 -20 23c45 36 91 71 136 108c11 -13 23 -25 35 -38z" />
    <glyph glyph-name="Acircumflex" unicode="&#xc2;" horiz-adv-x="585" 
d="M519 0l-60 170h-335l-60 -170h-50l253 696h49c85 -232 170 -464 254 -696h-51zM293 639h-3c-15 -43 -133 -376 -152 -428h307l-90 254c-21 58 -42 116 -62 174zM422 730c-44 28 -86 56 -129 83l-130 -84l-18 21l132 110h36l127 -109z" />
    <glyph glyph-name="Aring" unicode="&#xc5;" horiz-adv-x="585" 
d="M519 0l-60 170h-335l-60 -170h-50l253 696h49c85 -232 170 -464 254 -696h-51zM293 639h-3c-15 -43 -133 -376 -152 -428h307l-90 254c-21 58 -42 116 -62 174zM291 714c-50 0 -90 41 -90 90c0 50 40 89 90 89s91 -39 91 -89c0 -49 -41 -90 -91 -90zM291 867
c-35 0 -62 -28 -62 -63s27 -63 62 -63c36 0 63 28 63 63s-27 63 -63 63z" />
    <glyph glyph-name="Egrave" unicode="&#xc8;" horiz-adv-x="528" 
d="M501 0h-422v696h422v-43h-375v-279h320v-42h-320v-289h375v-43zM337 751l-20 -22l-151 93l36 37z" />
    <glyph glyph-name="Ecircumflex" unicode="&#xca;" horiz-adv-x="528" 
d="M501 0h-422v696h422v-43h-375v-279h320v-42h-320v-289h375v-43zM422 731l-129 83l-130 -84l-18 21l131 109h37l127 -108z" />
    <glyph glyph-name="Edieresis" unicode="&#xcb;" horiz-adv-x="528" 
d="M501 0h-422v696h422v-43h-375v-279h320v-42h-320v-289h375v-43zM406 758h-55v53h55v-53zM227 758h-55v53h55v-53z" />
    <glyph glyph-name="Igrave" unicode="&#xcc;" horiz-adv-x="212" 
d="M129 0h-46v696h46v-696zM133 751l-20 -22l-151 93l36 37z" />
    <glyph glyph-name="Iacute" unicode="&#xcd;" horiz-adv-x="212" 
d="M129 0h-46v696h46v-696zM108 729l-19 22l135 108l35 -37z" />
    <glyph glyph-name="Icircumflex" unicode="&#xce;" horiz-adv-x="270" 
d="M143 0h-46v696h46v-696zM251 731l-129 83l-130 -84l-18 21l132 109h37l126 -108z" />
    <glyph glyph-name="Idieresis" unicode="&#xcf;" horiz-adv-x="212" 
d="M129 0h-46v696h46v-696zM224 758h-54v53h54v-53zM46 758h-55v53h55v-53z" />
    <glyph glyph-name="Eth" unicode="&#xd0;" horiz-adv-x="606" 
d="M79 696h224c104 0 181 -37 224 -126c22 -49 25 -122 25 -209c0 -100 -2 -174 -24 -227c-44 -100 -126 -134 -239 -134h-210v353h-66v36h66v307zM505 274v143c0 178 -82 236 -209 236h-170v-264h150v-36h-150v-310h170c158 0 209 97 209 231z" />
    <glyph glyph-name="Ograve" unicode="&#xd2;" horiz-adv-x="571" 
d="M286 701c149 0 238 -104 238 -248v-207c0 -155 -91 -253 -238 -253c-165 0 -241 117 -241 253v207c0 133 79 248 241 248zM287 657c-130 0 -194 -95 -194 -206v-207c0 -109 64 -208 194 -208c118 0 189 89 189 212v203c0 116 -70 206 -189 206zM350 751l-19 -22l-152 93
l36 37z" />
    <glyph glyph-name="Oacute" unicode="&#xd3;" horiz-adv-x="571" 
d="M286 701c149 0 238 -104 238 -248v-207c0 -155 -91 -253 -238 -253c-165 0 -241 117 -241 253v207c0 133 79 248 241 248zM287 657c-130 0 -194 -95 -194 -206v-207c0 -109 64 -208 194 -208c118 0 189 89 189 212v203c0 116 -70 206 -189 206zM259 729l-19 22l135 108
l36 -37z" />
    <glyph glyph-name="Ocircumflex" unicode="&#xd4;" horiz-adv-x="571" 
d="M286 701c149 0 238 -104 238 -248v-207c0 -155 -91 -253 -238 -253c-165 0 -241 117 -241 253v207c0 133 79 248 241 248zM287 657c-130 0 -194 -95 -194 -206v-207c0 -109 64 -208 194 -208c118 0 189 89 189 212v203c0 116 -70 206 -189 206zM414 731l-129 83l-130 -84
l-17 21l131 109h37l126 -108z" />
    <glyph glyph-name="Ugrave" unicode="&#xd9;" horiz-adv-x="606" 
d="M494 696h48v-464c0 -144 -100 -238 -239 -238c-143 0 -238 102 -238 245v457h46v-446c0 -118 74 -212 192 -212c112 0 191 76 191 204v454zM348 751l-20 -22l-151 93l35 37z" />
    <glyph glyph-name="Uacute" unicode="&#xda;" horiz-adv-x="606" 
d="M494 696h48v-464c0 -144 -100 -238 -239 -238c-143 0 -238 102 -238 245v457h46v-446c0 -118 74 -212 192 -212c112 0 191 76 191 204v454zM257 729l-20 22l136 108l35 -37z" />
    <glyph glyph-name="Ucircumflex" unicode="&#xdb;" horiz-adv-x="606" 
d="M494 696h48v-464c0 -144 -100 -238 -239 -238c-143 0 -238 102 -238 245v457h46v-446c0 -118 74 -212 192 -212c112 0 191 76 191 204v454zM431 731l-129 83l-130 -84l-18 21l131 109h37l127 -108z" />
    <glyph glyph-name="Yacute" unicode="&#xdd;" horiz-adv-x="475" 
d="M259 288v-288h-44v288l-209 408h49c27 -52 161 -322 182 -365c25 49 49 98 73 148c37 72 74 144 109 217h48c-70 -136 -139 -272 -208 -408zM199 728l-19 23c45 36 90 71 135 108l36 -38z" />
    <glyph glyph-name="aacute" unicode="&#xe1;" horiz-adv-x="474" 
d="M377 54h-1c-31 -49 -98 -60 -166 -60c-95 0 -174 46 -174 141c0 80 54 139 159 139h182v71c0 73 -37 115 -143 115c-49 0 -98 -11 -138 -48l-28 30c40 39 97 59 167 59c101 0 186 -30 186 -154v-347h-44v54zM377 237h-172c-79 0 -127 -33 -127 -100
c0 -68 54 -105 138 -105c64 0 161 19 161 106v99zM260 563c-9 4 -18 7 -27 12l79 153c16 -6 31 -13 48 -19z" />
    <glyph glyph-name="igrave" unicode="&#xec;" horiz-adv-x="200" 
d="M119 0h-46v496h46v-496zM117 575l-27 -12l-100 147l48 19z" />
    <glyph glyph-name="iacute" unicode="&#xed;" horiz-adv-x="200" 
d="M119 0h-46v496h46v-496zM111 563l-28 12l79 154l48 -19z" />
    <glyph glyph-name="ograve" unicode="&#xf2;" horiz-adv-x="489" 
d="M281 575l-28 -12l-99 147l48 19zM249 501c71 0 127 -29 160 -80c23 -37 35 -87 35 -177s-21 -146 -49 -182c-36 -46 -89 -68 -154 -68c-63 0 -110 20 -142 56c-36 41 -55 102 -55 199c0 91 22 147 54 185c34 41 85 67 151 67zM247 462c-51 0 -90 -23 -116 -56
s-43 -77 -43 -159c0 -83 17 -129 43 -162s64 -52 113 -52c51 0 92 22 119 61c21 30 37 69 37 151c0 81 -11 120 -27 147c-26 44 -71 70 -126 70z" />
    <glyph glyph-name="oacute" unicode="&#xf3;" horiz-adv-x="489" 
d="M253 563l-28 12l79 154l48 -19zM249 501c71 0 127 -29 160 -80c23 -37 35 -87 35 -177s-21 -146 -49 -182c-36 -46 -89 -68 -154 -68c-63 0 -110 20 -142 56c-36 41 -55 102 -55 199c0 91 22 147 54 185c34 41 85 67 151 67zM247 462c-51 0 -90 -23 -116 -56
s-43 -77 -43 -159c0 -83 17 -129 43 -162s64 -52 113 -52c51 0 92 22 119 61c21 30 37 69 37 151c0 81 -11 120 -27 147c-26 44 -71 70 -126 70z" />
    <glyph glyph-name="uacute" unicode="&#xfa;" horiz-adv-x="517" 
d="M445 0h-43v80h-2c-33 -63 -98 -85 -154 -85c-101 0 -181 63 -181 167v334h44v-317c0 -93 61 -144 146 -144s148 64 148 158v303h42v-496zM269 563l-27 12l78 154l49 -19z" />
    <glyph glyph-name="aring" unicode="&#xe5;" horiz-adv-x="474" 
d="M377 54h-1c-31 -49 -98 -60 -166 -60c-95 0 -174 46 -174 141c0 80 54 139 159 139h182v71c0 73 -37 115 -143 115c-49 0 -98 -11 -138 -48l-28 30c40 39 97 59 167 59c101 0 186 -30 186 -154v-347h-44v54zM377 237h-172c-79 0 -127 -33 -127 -100
c0 -68 54 -105 138 -105c64 0 161 19 161 106v99zM245 553c-49 0 -90 41 -90 90c0 50 41 89 90 89c50 0 91 -39 91 -89c0 -49 -41 -90 -91 -90zM245 706c-35 0 -62 -28 -62 -63s27 -63 62 -63c36 0 63 28 63 63s-27 63 -63 63z" />
    <glyph glyph-name="yacute" unicode="&#xfd;" horiz-adv-x="419" 
d="M197 -111c-21 -61 -66 -89 -114 -89h-21v39h20c33 0 65 25 79 71c9 28 18 56 28 84c-62 166 -123 333 -185 500h49l84 -233c25 -70 48 -140 73 -210h2c19 56 135 385 155 443h46zM213 563c-9 4 -18 7 -27 12l79 153c16 -6 31 -13 48 -19z" />
    <glyph glyph-name="ydieresis" unicode="&#xff;" horiz-adv-x="419" 
d="M197 -111c-21 -61 -66 -89 -114 -89h-21v39h20c33 0 65 25 79 71c9 28 18 56 28 84c-62 166 -123 333 -185 500h49l84 -233c25 -70 48 -140 73 -210h2c19 56 135 385 155 443h46zM283 608v53h55v-53h-55zM94 608v53h54v-53h-54z" />
    <glyph glyph-name="Amacron" unicode="&#x100;" horiz-adv-x="585" 
d="M519 0l-60 170h-335l-60 -170h-50l253 696h49c85 -232 170 -464 254 -696h-51zM293 639h-3c-15 -43 -133 -376 -152 -428h307l-90 254c-21 58 -42 116 -62 174zM164 769v41h254v-41h-254z" />
    <glyph glyph-name="amacron" unicode="&#x101;" horiz-adv-x="474" 
d="M377 54h-1c-31 -49 -98 -60 -166 -60c-95 0 -174 46 -174 141c0 80 54 139 159 139h182v71c0 73 -37 115 -143 115c-49 0 -98 -11 -138 -48l-28 30c40 39 97 59 167 59c101 0 186 -30 186 -154v-347h-44v54zM377 237h-172c-79 0 -127 -33 -127 -100
c0 -68 54 -105 138 -105c64 0 161 19 161 106v99zM122 593v41h254v-41h-254z" />
    <glyph glyph-name="Abreve" unicode="&#x102;" horiz-adv-x="585" 
d="M519 0l-60 170h-335l-60 -170h-50l253 696h49c85 -232 170 -464 254 -696h-51zM293 639h-3c-15 -43 -133 -376 -152 -428h307l-90 254c-21 58 -42 116 -62 174zM292 766c49 0 84 34 89 73h38c-7 -50 -42 -110 -127 -110s-122 60 -127 110h38c6 -39 43 -73 89 -73z" />
    <glyph glyph-name="abreve" unicode="&#x103;" horiz-adv-x="474" 
d="M377 54h-1c-31 -49 -98 -60 -166 -60c-95 0 -174 46 -174 141c0 80 54 139 159 139h182v71c0 73 -37 115 -143 115c-49 0 -98 -11 -138 -48l-28 30c40 39 97 59 167 59c101 0 186 -30 186 -154v-347h-44v54zM377 237h-172c-79 0 -127 -33 -127 -100
c0 -68 54 -105 138 -105c64 0 161 19 161 106v99zM253 601c44 0 78 22 89 73h38c-7 -50 -42 -111 -127 -111s-122 61 -127 111h39c7 -44 46 -73 88 -73z" />
    <glyph glyph-name="Aogonek" unicode="&#x104;" horiz-adv-x="585" 
d="M476 -92c0 25 12 61 42 92l-59 170h-335l-60 -170h-50l253 696h49c85 -232 170 -464 254 -696h-16c-24 -28 -39 -62 -39 -85c0 -36 23 -53 55 -53c16 0 35 5 57 16l13 -29c-19 -11 -48 -22 -78 -22c-53 0 -86 38 -86 81zM293 639h-3c-15 -43 -133 -376 -152 -428h307
l-90 254c-21 58 -42 116 -62 174z" />
    <glyph glyph-name="aogonek" unicode="&#x105;" horiz-adv-x="474" 
d="M336 -92c0 25 12 60 41 92l-1 54c-31 -49 -98 -60 -166 -60c-95 0 -174 46 -174 141c0 80 54 139 159 139h182v71c0 75 -37 115 -143 115c-49 0 -98 -11 -138 -48l-28 30c40 39 97 59 167 59c101 0 186 -30 186 -154v-347c-27 -26 -46 -57 -46 -85c0 -36 23 -53 55 -53
c16 0 35 5 57 16l13 -29c-19 -11 -48 -22 -78 -22c-53 0 -86 38 -86 81zM377 237h-172c-79 0 -127 -33 -127 -100c0 -68 54 -105 138 -105c64 0 161 19 161 106v99z" />
    <glyph glyph-name="Cacute" unicode="&#x106;" horiz-adv-x="528" 
d="M469 153l42 -19c-35 -86 -113 -141 -218 -141c-165 0 -240 117 -240 253v207c0 133 79 248 240 248c103 0 179 -52 215 -130l-42 -21c-28 62 -89 108 -172 108c-131 0 -195 -96 -195 -207v-206c0 -111 64 -209 195 -209c85 0 143 46 175 117zM250 729l-19 22l135 108
l35 -37z" />
    <glyph glyph-name="cacute" unicode="&#x107;" horiz-adv-x="414" 
d="M395 49c-38 -34 -87 -56 -145 -56c-110 0 -220 68 -220 254s110 254 220 254c58 0 106 -21 145 -54l-28 -33c-27 26 -69 47 -111 47c-116 0 -182 -76 -182 -214s66 -215 182 -215c43 0 85 24 111 47zM235 563l-27 12l78 154l49 -19z" />
    <glyph glyph-name="Ccircumflex" unicode="&#x108;" horiz-adv-x="528" 
d="M469 153l42 -19c-35 -86 -113 -141 -218 -141c-165 0 -240 117 -240 253v207c0 133 79 248 240 248c103 0 179 -52 215 -130l-42 -21c-28 62 -89 108 -172 108c-131 0 -195 -96 -195 -207v-206c0 -111 64 -209 195 -209c85 0 143 46 175 117zM422 731l-129 83l-130 -84
l-18 21l131 109h37l127 -108z" />
    <glyph glyph-name="ccircumflex" unicode="&#x109;" horiz-adv-x="414" 
d="M395 49c-38 -34 -87 -56 -145 -56c-110 0 -220 68 -220 254s110 254 220 254c58 0 106 -21 145 -54l-28 -33c-27 26 -69 47 -111 47c-116 0 -182 -76 -182 -214s66 -215 182 -215c43 0 85 24 111 47zM362 557l-126 97l-127 -98l-21 21l132 124h37l126 -123z" />
    <glyph glyph-name="Cdotaccent" unicode="&#x10a;" horiz-adv-x="528" 
d="M469 153l42 -19c-35 -86 -113 -141 -218 -141c-165 0 -240 117 -240 253v207c0 133 79 248 240 248c103 0 179 -52 215 -130l-42 -21c-28 62 -89 108 -172 108c-131 0 -195 -96 -195 -207v-206c0 -111 64 -209 195 -209c85 0 143 46 175 117zM316 765h-55v53h55v-53z" />
    <glyph glyph-name="cdotaccent" unicode="&#x10b;" horiz-adv-x="414" 
d="M395 49c-38 -34 -87 -56 -145 -56c-110 0 -220 68 -220 254s110 254 220 254c58 0 106 -21 145 -54l-28 -33c-27 26 -69 47 -111 47c-116 0 -182 -76 -182 -214s66 -215 182 -215c43 0 85 24 111 47zM272 608h-54v54h54v-54z" />
    <glyph glyph-name="Ccaron" unicode="&#x10c;" horiz-adv-x="528" 
d="M469 153l42 -19c-35 -86 -113 -141 -218 -141c-165 0 -240 117 -240 253v207c0 133 79 248 240 248c103 0 179 -52 215 -130l-42 -21c-28 62 -89 108 -172 108c-131 0 -195 -96 -195 -207v-206c0 -111 64 -209 195 -209c85 0 143 46 175 117zM289 778l129 83l18 -21
l-126 -109h-37l-131 110l17 21z" />
    <glyph glyph-name="ccaron" unicode="&#x10d;" horiz-adv-x="414" 
d="M395 49c-38 -34 -87 -56 -145 -56c-110 0 -220 68 -220 254s110 254 220 254c58 0 106 -21 145 -54l-28 -33c-27 26 -69 47 -111 47c-116 0 -182 -76 -182 -214s66 -215 182 -215c43 0 85 24 111 47zM241 605l126 96l21 -20l-126 -124h-37l-131 124l21 21z" />
    <glyph glyph-name="Dcaron" unicode="&#x10e;" horiz-adv-x="606" 
d="M262 778l129 83l18 -21l-126 -109h-37l-132 110l18 21zM79 696h224c104 0 181 -37 224 -126c22 -49 25 -122 25 -209c0 -100 -2 -174 -24 -227c-44 -100 -126 -134 -239 -134h-210v696zM505 274v143c0 178 -82 236 -209 236h-170v-610h170c158 0 209 97 209 231z" />
    <glyph glyph-name="dcaron" unicode="&#x10f;" horiz-adv-x="567" 
d="M544 655l-42 -90h-28l28 92h-18v66h60v-68zM417 0h-43v86h-2c-45 -81 -100 -93 -152 -93c-140 0 -186 118 -186 255c0 124 42 252 191 252c82 0 118 -41 147 -87h2v310h43v-723zM374 245c0 113 -36 215 -146 215c-125 0 -148 -118 -148 -213c0 -89 17 -213 148 -213
c123 0 146 126 146 211z" />
    <glyph glyph-name="Dcroat" unicode="&#x110;" horiz-adv-x="606" 
d="M79 696h224c104 0 181 -37 224 -126c22 -49 25 -122 25 -209c0 -100 -2 -174 -24 -227c-44 -100 -126 -134 -239 -134h-210v353h-66v36h66v307zM505 274v143c0 178 -82 236 -209 236h-170v-264h150v-36h-150v-310h170c158 0 209 97 209 231z" />
    <glyph glyph-name="dcroat" unicode="&#x111;" horiz-adv-x="465" 
d="M246 580v32h128v111h43v-111h56v-32h-56v-580h-43v86h-2c-45 -81 -100 -93 -152 -93c-140 0 -186 118 -186 255c0 124 42 252 191 252c82 0 118 -41 147 -87h2v167h-128zM374 245c0 113 -36 215 -146 215c-125 0 -148 -118 -148 -213c0 -89 17 -213 148 -213
c123 0 146 126 146 211z" />
    <glyph glyph-name="Emacron" unicode="&#x112;" horiz-adv-x="528" 
d="M501 0h-422v696h422v-43h-375v-279h320v-42h-320v-289h375v-43zM420 769h-255v41h255v-41z" />
    <glyph glyph-name="emacron" unicode="&#x113;" horiz-adv-x="474" 
d="M438 241h-353c-2 -113 41 -210 170 -210c40 0 85 16 119 41l27 -30c-42 -34 -92 -49 -144 -49c-100 0 -214 44 -214 252c0 201 107 256 199 256c130 0 196 -98 196 -226v-34zM392 277c-4 125 -60 185 -149 185c-94 0 -151 -67 -157 -185h306zM375 593h-255v41h255v-41z
" />
    <glyph glyph-name="Ebreve" unicode="&#x114;" horiz-adv-x="528" 
d="M501 0h-422v696h422v-43h-375v-279h320v-42h-320v-289h375v-43zM162 840h38c6 -39 44 -73 89 -73c50 0 84 34 89 73h38c-7 -50 -42 -110 -127 -110s-122 60 -127 110z" />
    <glyph glyph-name="ebreve" unicode="&#x115;" horiz-adv-x="474" 
d="M438 241h-353c-2 -113 41 -210 170 -210c40 0 85 16 119 41l27 -30c-42 -34 -92 -49 -144 -49c-100 0 -214 44 -214 252c0 201 107 256 199 256c130 0 196 -98 196 -226v-34zM392 277c-4 125 -60 185 -149 185c-94 0 -151 -67 -157 -185h306zM114 674h39
c8 -44 46 -73 89 -73c44 0 78 23 88 73h39c-7 -50 -42 -110 -127 -110s-123 60 -128 110z" />
    <glyph glyph-name="Edotaccent" unicode="&#x116;" horiz-adv-x="528" 
d="M501 0h-422v696h422v-43h-375v-279h320v-42h-320v-289h375v-43zM312 765h-54v53h54v-53z" />
    <glyph glyph-name="edotaccent" unicode="&#x117;" horiz-adv-x="474" 
d="M438 241h-353c-2 -113 41 -210 170 -210c40 0 85 16 119 41l27 -30c-42 -34 -92 -49 -144 -49c-100 0 -214 44 -214 252c0 201 107 256 199 256c130 0 196 -98 196 -226v-34zM392 277c-4 125 -60 185 -149 185c-94 0 -151 -67 -157 -185h306zM271 608h-55v54h55v-54z" />
    <glyph glyph-name="Eogonek" unicode="&#x118;" horiz-adv-x="528" 
d="M423 -93c0 26 11 60 41 93h-385v696h422v-43h-375v-279h320v-42h-320v-289h375v-43c-24 -29 -39 -63 -39 -86c0 -36 23 -52 55 -52c16 0 35 5 57 16l13 -30c-19 -11 -49 -21 -78 -21c-53 0 -86 37 -86 80z" />
    <glyph glyph-name="eogonek" unicode="&#x119;" horiz-adv-x="474" 
d="M306 -64c0 19 7 44 22 68c-23 -7 -47 -11 -71 -11c-100 0 -214 44 -214 252c0 201 107 256 199 256c130 0 196 -98 196 -226v-34h-353c-2 -113 41 -210 170 -210c40 0 85 16 119 41l27 -30c-4 -4 -11 -8 -17 -13c-24 -29 -39 -63 -39 -86c0 -36 23 -52 55 -52
c17 0 35 5 57 16l13 -30c-19 -11 -48 -21 -78 -21c-53 0 -86 37 -86 80zM392 277c-4 125 -60 185 -149 185c-94 0 -151 -67 -157 -185h306z" />
    <glyph glyph-name="Ecaron" unicode="&#x11a;" horiz-adv-x="528" 
d="M501 0h-422v696h422v-43h-375v-279h320v-42h-320v-289h375v-43zM284 778l129 83l18 -21l-126 -109h-37l-131 110l17 21z" />
    <glyph glyph-name="ecaron" unicode="&#x11b;" horiz-adv-x="474" 
d="M438 241h-353c-2 -113 41 -210 170 -210c40 0 85 16 119 41l27 -30c-42 -34 -92 -49 -144 -49c-100 0 -214 44 -214 252c0 201 107 256 199 256c130 0 196 -98 196 -226v-34zM392 277c-4 125 -60 185 -149 185c-94 0 -151 -67 -157 -185h306zM245 605l126 96l21 -20
l-126 -124h-37l-131 124l21 21z" />
    <glyph glyph-name="Gcircumflex" unicode="&#x11c;" horiz-adv-x="585" 
d="M292 34c119 0 193 94 193 198v78h-157v42h204v-111c0 -139 -91 -248 -241 -248c-165 0 -240 117 -240 253v207c0 133 79 248 240 248c104 0 180 -52 215 -130c-5 -4 -37 -18 -42 -21c-28 62 -89 108 -172 108c-131 0 -195 -96 -195 -207v-208c0 -111 64 -209 195 -209z
M421 731l-129 83l-130 -84l-18 21l132 109h37l126 -108z" />
    <glyph glyph-name="gcircumflex" unicode="&#x11d;" horiz-adv-x="498" 
d="M432 3c0 -150 -99 -209 -211 -209c-46 0 -94 16 -133 49l28 33c28 -22 67 -42 109 -42c91 0 163 56 163 157l1 99h-2c-32 -58 -79 -95 -155 -95c-144 0 -183 127 -184 249c-1 134 44 257 184 257c50 0 114 -13 155 -87h1v82h43zM93 247c0 -95 25 -211 150 -211
c107 0 145 102 145 215c0 85 -24 210 -145 210c-131 0 -150 -124 -150 -214zM368 557l-126 97l-127 -98l-21 21l132 124h37l126 -123z" />
    <glyph glyph-name="Gbreve" unicode="&#x11e;" horiz-adv-x="585" 
d="M292 34c119 0 193 94 193 198v78h-157v42h204v-111c0 -139 -91 -248 -241 -248c-165 0 -240 117 -240 253v207c0 133 79 248 240 248c104 0 180 -52 215 -130c-5 -4 -37 -18 -42 -21c-28 62 -89 108 -172 108c-131 0 -195 -96 -195 -207v-208c0 -111 64 -209 195 -209z
M165 840h39c6 -39 43 -73 89 -73c49 0 83 34 88 73h39c-7 -50 -42 -110 -127 -110s-123 60 -128 110z" />
    <glyph glyph-name="gbreve" unicode="&#x11f;" horiz-adv-x="498" 
d="M432 3c0 -150 -99 -209 -211 -209c-46 0 -94 16 -133 49l28 33c28 -22 67 -42 109 -42c91 0 163 56 163 157l1 99h-2c-32 -58 -79 -95 -155 -95c-144 0 -183 127 -184 249c-1 134 44 257 184 257c50 0 114 -13 155 -87h1v82h43zM93 247c0 -95 25 -211 150 -211
c107 0 145 102 145 215c0 85 -24 210 -145 210c-131 0 -150 -124 -150 -214zM126 674h39c8 -44 46 -73 89 -73c44 0 78 23 88 73h39c-8 -50 -43 -110 -127 -110c-85 0 -123 60 -128 110z" />
    <glyph glyph-name="Gdotaccent" unicode="&#x120;" horiz-adv-x="585" 
d="M292 34c119 0 193 94 193 198v78h-157v42h204v-111c0 -139 -91 -248 -241 -248c-165 0 -240 117 -240 253v207c0 133 79 248 240 248c104 0 180 -52 215 -130c-5 -4 -37 -18 -42 -21c-28 62 -89 108 -172 108c-131 0 -195 -96 -195 -207v-208c0 -111 64 -209 195 -209z
M318 765h-55v53h55v-53z" />
    <glyph glyph-name="gdotaccent" unicode="&#x121;" horiz-adv-x="498" 
d="M432 3c0 -150 -99 -209 -211 -209c-46 0 -94 16 -133 49l28 33c28 -22 67 -42 109 -42c91 0 163 56 163 157l1 99h-2c-32 -58 -79 -95 -155 -95c-144 0 -183 127 -184 249c-1 134 44 257 184 257c50 0 114 -13 155 -87h1v82h43zM93 247c0 -95 25 -211 150 -211
c107 0 145 102 145 215c0 85 -24 210 -145 210c-131 0 -150 -124 -150 -214zM283 608h-55v54h55v-54z" />
    <glyph glyph-name="Gcommaaccent" unicode="&#x122;" horiz-adv-x="585" 
d="M292 34c119 0 193 94 193 198v78h-157v42h204v-111c0 -139 -91 -248 -241 -248c-165 0 -240 117 -240 253v207c0 133 79 248 240 248c104 0 180 -52 215 -130c-5 -4 -37 -18 -42 -21c-28 62 -89 108 -172 108c-131 0 -195 -96 -195 -207v-208c0 -111 64 -209 195 -209z
M326 -146l-42 -90h-28l28 91h-18v66h60v-67z" />
    <glyph glyph-name="gcommaaccent" unicode="&#x123;" horiz-adv-x="498" 
d="M231 642l42 90h28l-28 -91h18v-67h-60v68zM432 3c0 -150 -99 -209 -211 -209c-46 0 -94 16 -133 49l28 33c28 -22 67 -42 109 -42c91 0 163 56 163 157l1 99h-2c-32 -58 -79 -95 -155 -95c-144 0 -183 127 -184 249c-1 134 44 257 184 257c50 0 114 -13 155 -87h1v82h43z
M93 247c0 -95 25 -211 150 -211c107 0 145 102 145 215c0 85 -24 210 -145 210c-131 0 -150 -124 -150 -214z" />
    <glyph glyph-name="Hcircumflex" unicode="&#x124;" horiz-adv-x="625" 
d="M546 0h-47v332h-374v-332h-46v696h46v-322h374v322h47v-696zM438 731l-129 83l-130 -84l-18 21l131 109h37l127 -108z" />
    <glyph glyph-name="hcircumflex" unicode="&#x125;" horiz-adv-x="523" 
d="M458 0h-43v317c0 92 -62 142 -146 142c-85 0 -147 -62 -147 -156v-303h-43v723h43v-310h2c34 63 97 87 155 87c101 0 179 -61 179 -168v-332zM229 731l-129 83l-129 -84l-18 21l131 109h37l126 -108z" />
    <glyph glyph-name="Hbar" unicode="&#x126;" horiz-adv-x="625" 
d="M546 0h-47v332h-374v-332h-46v542h-56v33h56v121h46v-121h374v121h47v-121h58v-33h-58v-542zM125 374h374v168h-374v-168z" />
    <glyph glyph-name="hbar" unicode="&#x127;" horiz-adv-x="508" 
d="M13 586v38h60v99h43v-99h236v-38h-236v-186h2c33 63 103 90 160 90c111 0 174 -61 174 -168v-322h-43v307c0 92 -47 142 -139 142c-85 0 -154 -65 -154 -159v-290h-43v586h-60z" />
    <glyph glyph-name="Imacron" unicode="&#x12a;" horiz-adv-x="212" 
d="M129 0h-46v696h46v-696zM234 769h-254v41h254v-41z" />
    <glyph glyph-name="Ibreve" unicode="&#x12c;" horiz-adv-x="271" 
d="M11 840h38c6 -39 43 -73 89 -73c49 0 83 34 89 73h38c-7 -50 -42 -110 -127 -110s-122 60 -127 110zM160 0h-46v696h46v-696z" />
    <glyph glyph-name="Iogonek" unicode="&#x12e;" horiz-adv-x="212" 
d="M41 -92c0 25 12 60 41 92v696h47v-696h-5c-24 -28 -44 -62 -44 -85c0 -36 23 -53 55 -53c16 0 35 5 57 16l13 -29c-19 -11 -49 -22 -78 -22c-53 0 -86 38 -86 81z" />
    <glyph glyph-name="iogonek" unicode="&#x12f;" horiz-adv-x="199" 
d="M37 -92c0 26 11 60 40 92v496h44v-496c-29 -29 -46 -57 -46 -85c0 -36 23 -53 55 -53c17 0 35 5 57 16c5 -9 9 -19 13 -29c-19 -11 -48 -21 -78 -21c-53 0 -85 37 -85 80zM74 648v48h49v-48h-49z" />
    <glyph glyph-name="Idotaccent" unicode="&#x130;" horiz-adv-x="212" 
d="M129 0h-46v696h46v-696zM132 765h-55v53h55v-53z" />
    <glyph glyph-name="IJ" unicode="&#x132;" horiz-adv-x="657" 
d="M130 0h-47v696h47v-696zM587 696v-499c0 -146 -98 -203 -208 -203c-55 0 -104 21 -141 55l34 32c36 -29 66 -43 103 -43c89 0 165 42 165 176v482h47z" />
    <glyph glyph-name="ij" unicode="&#x133;" horiz-adv-x="397" 
d="M75 648v48h49v-48h-49zM122 0h-44v496h44v-496zM266 648v48h50v-48h-50zM170 -205v39h17c52 0 81 34 81 93v568h45v-573c0 -77 -51 -127 -121 -127h-22z" />
    <glyph glyph-name="Jcircumflex" unicode="&#x134;" horiz-adv-x="448" 
d="M378 697v-499c0 -146 -97 -203 -207 -203c-55 0 -104 21 -141 55l34 32c35 -29 66 -43 103 -43c88 0 165 42 165 176v482h46zM484 733l-129 83l-130 -84l-18 21l132 109h37l126 -108z" />
    <glyph glyph-name="jcircumflex" unicode="&#x135;" horiz-adv-x="254" 
d="M6 -205v39h17c52 0 81 34 81 93v568h45v-573c0 -77 -51 -127 -121 -127h-22zM252 557l-125 96l-126 -97c-7 6 -14 14 -21 21l130 124h37c42 -41 85 -82 127 -124z" />
    <glyph glyph-name="Kcommaaccent" unicode="&#x136;" horiz-adv-x="606" 
d="M528 0c-77 131 -155 262 -233 393l-170 -209v-184h-47v696h47v-444h1c58 71 114 141 172 211l191 233h52l-216 -266c86 -144 170 -287 256 -430h-53zM287 -216h-28c9 31 18 61 28 92h-18v66h60v-68z" />
    <glyph glyph-name="kcommaaccent" unicode="&#x137;" horiz-adv-x="479" 
d="M423 0c-62 94 -122 189 -184 283c-42 -47 -84 -94 -125 -142v-141h-43v722h43v-522h1c88 98 175 197 263 296h52l-162 -183l204 -313h-49zM247 -236h-28c10 31 19 61 28 92h-18v66h60v-68z" />
    <glyph glyph-name="kgreenlandic" unicode="&#x138;" horiz-adv-x="479" 
d="M424 0l-185 283c-42 -47 -84 -94 -125 -142v-141h-43v496h43v-296h1c88 98 175 197 263 296h52l-162 -183l207 -313h-51z" />
    <glyph glyph-name="Lacute" unicode="&#x139;" horiz-adv-x="528" 
d="M501 0h-422v696h46v-653h376v-43zM100 729l-19 22l135 108l35 -37z" />
    <glyph glyph-name="lacute" unicode="&#x13a;" horiz-adv-x="218" 
d="M185 0c-71 0 -114 26 -114 102v620h44v-613c0 -45 23 -71 77 -71h8v-38h-15zM92 745l-20 22c45 37 90 72 135 108l36 -37c-50 -31 -101 -63 -151 -93z" />
    <glyph glyph-name="Lcommaaccent" unicode="&#x13b;" horiz-adv-x="528" 
d="M501 0h-422v696h46v-653h376v-43zM323 -146l-42 -90h-28l28 91h-18v66h60v-67z" />
    <glyph glyph-name="lcommaaccent" unicode="&#x13c;" horiz-adv-x="218" 
d="M185 0c-71 0 -114 26 -114 102v620h44v-613c0 -45 23 -71 77 -71h8v-38h-15zM116 -236h-29l29 92h-18v66h60v-68c-15 -30 -28 -60 -42 -90z" />
    <glyph glyph-name="Lcaron" unicode="&#x13d;" horiz-adv-x="528" 
d="M501 0h-422v696h46v-653h376v-43zM404 629l-42 -90h-28l28 91h-18v66h60v-67z" />
    <glyph glyph-name="lcaron" unicode="&#x13e;" horiz-adv-x="284" 
d="M228 564h-28c10 31 19 61 28 92h-18v66h60v-68c-14 -30 -27 -60 -42 -90zM185 0c-71 0 -114 26 -114 102v620h44v-613c0 -45 23 -71 77 -71h8v-38h-15z" />
    <glyph glyph-name="Ldot" unicode="&#x13f;" horiz-adv-x="528" 
d="M501 0h-422v696h46v-653h376v-43zM345 347h-54v53h54v-53z" />
    <glyph glyph-name="ldot" unicode="&#x140;" horiz-adv-x="315" 
d="M218 355v53h54v-53h-54zM185 0c-71 0 -114 26 -114 102v620h44v-613c0 -45 23 -71 77 -71h8v-38h-15z" />
    <glyph glyph-name="Lslash" unicode="&#x141;" horiz-adv-x="550" 
d="M523 0h-422v267l-85 -48l-19 33l104 59v385h46v-358l133 78l19 -33l-152 -88v-252h376v-43z" />
    <glyph glyph-name="lslash" unicode="&#x142;" horiz-adv-x="274" 
d="M220 0c-71 0 -114 26 -114 102v220l-87 -50l-19 33l106 61v356h44v-331l105 60l19 -32l-124 -72v-238c0 -45 23 -71 77 -71h8v-38h-15z" />
    <glyph glyph-name="Nacute" unicode="&#x143;" horiz-adv-x="663" 
d="M537 0l-261 392c-50 75 -99 149 -148 225c-1 0 -1 -1 -1 -1v-616h-47v696h48l258 -388c18 -27 134 -204 151 -231c1 0 1 0 1 1v618h46v-696h-47zM286 728l-19 23c45 36 90 71 135 108l36 -38z" />
    <glyph glyph-name="nacute" unicode="&#x144;" horiz-adv-x="502" 
d="M440 0h-44v317c0 92 -63 142 -145 142c-85 0 -147 -63 -147 -156v-303h-43v496h43v-81h3c32 63 96 85 153 85c102 0 180 -62 180 -167v-333zM240 563l-28 12l79 154l48 -19z" />
    <glyph glyph-name="Ncommaaccent" unicode="&#x145;" horiz-adv-x="663" 
d="M537 0l-261 392c-50 75 -99 149 -148 225c-1 0 -1 -1 -1 -1v-616h-47v696h48l258 -388c18 -27 134 -204 151 -231c1 0 1 0 1 1v618h46v-696h-47zM316 -202h-28c9 30 18 61 28 91h-18v66h60v-67c-15 -30 -28 -60 -42 -90z" />
    <glyph glyph-name="ncommaaccent" unicode="&#x146;" horiz-adv-x="502" 
d="M440 0h-44v317c0 92 -63 142 -145 142c-85 0 -147 -63 -147 -156v-303h-43v496h43v-81h3c32 63 96 85 153 85c102 0 180 -62 180 -167v-333zM279 -146l-42 -90h-28l28 91h-18v66h60v-67z" />
    <glyph glyph-name="Ncaron" unicode="&#x147;" horiz-adv-x="663" 
d="M537 0l-261 392c-50 75 -99 149 -148 225c-1 0 -1 -1 -1 -1v-616h-47v696h48l258 -388c18 -27 134 -204 151 -231c1 0 1 0 1 1v618h46v-696h-47zM331 777c43 28 85 56 129 84l18 -21l-127 -109h-36l-132 109l18 22c43 -29 87 -56 130 -85z" />
    <glyph glyph-name="ncaron" unicode="&#x148;" horiz-adv-x="502" 
d="M440 0h-44v317c0 92 -63 142 -145 142c-85 0 -147 -63 -147 -156v-303h-43v496h43v-81h3c32 63 96 85 153 85c102 0 180 -62 180 -167v-333zM242 605l126 96l21 -20l-126 -124h-37l-132 124l21 21z" />
    <glyph glyph-name="napostrophe" unicode="&#x149;" horiz-adv-x="553" 
d="M491 0h-44v317c0 92 -63 142 -145 142c-85 0 -147 -63 -147 -156v-303h-43v496h43v-81h3c32 63 96 85 153 85c102 0 180 -62 180 -167v-333zM76 581l-42 -90h-28l28 91h-18v66h60v-67z" />
    <glyph glyph-name="Eng" unicode="&#x14a;" horiz-adv-x="673" 
d="M489 -130c31 0 51 20 51 57v69c-90 135 -181 270 -271 406l-141 215c-1 0 -1 -1 -1 -1v-616h-47v696h48c89 -133 177 -267 265 -400c49 -73 96 -145 144 -219c1 0 1 0 1 1v618h46v-764c0 -72 -41 -101 -89 -101c-28 0 -53 8 -76 21l14 34c21 -10 40 -16 56 -16z" />
    <glyph glyph-name="eng" unicode="&#x14b;" horiz-adv-x="502" 
d="M440 -68c0 -72 -41 -101 -89 -101c-28 0 -53 8 -76 21l14 34c21 -10 40 -16 56 -16c31 0 51 20 51 57v390c0 92 -55 142 -137 142c-85 0 -155 -63 -155 -156v-303h-43v496h43v-81h3c32 63 104 85 161 85c102 0 172 -62 172 -167v-401z" />
    <glyph glyph-name="Omacron" unicode="&#x14c;" horiz-adv-x="571" 
d="M286 701c149 0 238 -104 238 -248v-207c0 -155 -91 -253 -238 -253c-165 0 -241 117 -241 253v207c0 133 79 248 241 248zM287 657c-130 0 -194 -95 -194 -206v-207c0 -109 64 -208 194 -208c118 0 189 89 189 212v203c0 116 -70 206 -189 206zM420 769h-255v41h255v-41z
" />
    <glyph glyph-name="omacron" unicode="&#x14d;" horiz-adv-x="489" 
d="M378 593h-255v41h255v-41zM249 501c71 0 127 -29 160 -80c23 -37 35 -87 35 -177s-21 -146 -49 -182c-36 -46 -89 -68 -154 -68c-63 0 -110 20 -142 56c-36 41 -55 102 -55 199c0 91 22 147 54 185c34 41 85 67 151 67zM247 462c-51 0 -90 -23 -116 -56s-43 -77 -43 -159
c0 -83 17 -129 43 -162s64 -52 113 -52c51 0 92 22 119 61c21 30 37 69 37 151c0 81 -11 120 -27 147c-26 44 -71 70 -126 70z" />
    <glyph glyph-name="Obreve" unicode="&#x14e;" horiz-adv-x="571" 
d="M286 701c149 0 238 -104 238 -248v-207c0 -155 -91 -253 -238 -253c-165 0 -241 117 -241 253v207c0 133 79 248 241 248zM287 657c-130 0 -194 -95 -194 -206v-207c0 -109 64 -208 194 -208c118 0 189 89 189 212v203c0 116 -70 206 -189 206zM163 840h38
c6 -39 44 -73 89 -73c50 0 84 34 89 73h38c-7 -50 -42 -110 -127 -110s-122 60 -127 110z" />
    <glyph glyph-name="obreve" unicode="&#x14f;" horiz-adv-x="489" 
d="M117 674h39c7 -44 46 -73 88 -73c44 0 78 23 89 73h38c-7 -50 -42 -110 -127 -110s-122 60 -127 110zM249 501c71 0 127 -29 160 -80c23 -37 35 -87 35 -177s-21 -146 -49 -182c-36 -46 -89 -68 -154 -68c-63 0 -110 20 -142 56c-36 41 -55 102 -55 199
c0 91 22 147 54 185c34 41 85 67 151 67zM247 462c-51 0 -90 -23 -116 -56s-43 -77 -43 -159c0 -83 17 -129 43 -162s64 -52 113 -52c51 0 92 22 119 61c21 30 37 69 37 151c0 81 -11 120 -27 147c-26 44 -71 70 -126 70z" />
    <glyph glyph-name="Ohungarumlaut" unicode="&#x150;" horiz-adv-x="571" 
d="M286 701c149 0 238 -104 238 -248v-207c0 -155 -91 -253 -238 -253c-165 0 -241 117 -241 253v207c0 133 79 248 241 248zM287 657c-130 0 -194 -95 -194 -206v-207c0 -109 64 -208 194 -208c118 0 189 89 189 212v203c0 116 -70 206 -189 206zM332 729l-20 22l135 108
l36 -37zM214 729l-20 22l136 108l35 -37z" />
    <glyph glyph-name="ohungarumlaut" unicode="&#x151;" horiz-adv-x="489" 
d="M205 563l-28 12l79 154l48 -19zM306 563l-28 12l79 154l48 -19zM249 501c71 0 127 -29 160 -80c23 -37 35 -87 35 -177s-21 -146 -49 -182c-36 -46 -89 -68 -154 -68c-63 0 -110 20 -142 56c-36 41 -55 102 -55 199c0 91 22 147 54 185c34 41 85 67 151 67zM247 462
c-51 0 -90 -23 -116 -56s-43 -77 -43 -159c0 -83 17 -129 43 -162s64 -52 113 -52c51 0 92 22 119 61c21 30 37 69 37 151c0 81 -11 120 -27 147c-26 44 -71 70 -126 70z" />
    <glyph glyph-name="Racute" unicode="&#x154;" horiz-adv-x="585" 
d="M549 0h-56l-165 323h-201v-323h-47v696h269c116 0 199 -68 199 -180c0 -100 -66 -173 -169 -190zM498 516c0 99 -77 139 -161 139h-210v-290h207c93 0 164 52 164 151zM237 729l-20 22l136 108l35 -37z" />
    <glyph glyph-name="racute" unicode="&#x155;" horiz-adv-x="340" 
d="M344 489l-18 -44c-22 11 -45 15 -65 15c-85 0 -147 -61 -147 -156v-304h-43v496h43v-85h3c35 70 96 90 153 90c28 0 54 -3 74 -12zM170 563l-27 12l78 154l49 -19z" />
    <glyph glyph-name="Rcommaaccent" unicode="&#x156;" horiz-adv-x="585" 
d="M549 0h-56l-165 323h-201v-323h-47v696h269c116 0 199 -68 199 -180c0 -100 -66 -173 -169 -190zM498 516c0 99 -77 139 -161 139h-210v-290h207c93 0 164 52 164 151zM326 -126l-42 -90h-28l28 91h-18v66h60v-67z" />
    <glyph glyph-name="rcommaaccent" unicode="&#x157;" horiz-adv-x="340" 
d="M344 489l-18 -44c-22 11 -45 15 -65 15c-85 0 -147 -61 -147 -156v-304h-43v496h43v-85h3c35 70 96 90 153 90c28 0 54 -3 74 -12zM129 -146l-42 -90h-28l28 91h-18v66h60v-67z" />
    <glyph glyph-name="Rcaron" unicode="&#x158;" horiz-adv-x="585" 
d="M549 0h-56l-165 323h-201v-323h-47v696h269c116 0 199 -68 199 -180c0 -100 -66 -173 -169 -190zM498 516c0 99 -77 139 -161 139h-210v-290h207c93 0 164 52 164 151zM273 778l129 83l18 -21l-126 -109h-37l-131 110l17 21z" />
    <glyph glyph-name="rcaron" unicode="&#x159;" horiz-adv-x="340" 
d="M344 489l-18 -44c-22 11 -45 15 -65 15c-85 0 -147 -61 -147 -156v-304h-43v496h43v-85h3c35 70 96 90 153 90c28 0 54 -3 74 -12zM180 605l125 96l21 -20l-126 -124h-37l-131 124l21 21z" />
    <glyph glyph-name="Tcommaaccent" unicode="&#x162;" horiz-adv-x="478" 
d="M471 655h-207v-655h-46v655h-210v41h463v-41zM271 -146l-42 -90h-28l28 91h-18v66h60v-67z" />
    <glyph glyph-name="tcommaaccent" unicode="&#x163;" horiz-adv-x="264" 
d="M124 -236h-28c9 31 18 61 28 92h-18v66h60v-68c-15 -30 -28 -60 -42 -90zM241 0h-47c-75 0 -102 44 -102 116v343h-68v37h68v131h45v-131h92v-37h-92v-339c0 -46 11 -81 73 -81h31v-39z" />
    <glyph glyph-name="Tcaron" unicode="&#x164;" horiz-adv-x="478" 
d="M471 655h-207v-655h-46v655h-210v41h463v-41zM238 778l129 83l18 -21l-126 -109h-37l-131 110l17 21z" />
    <glyph glyph-name="tcaron" unicode="&#x165;" horiz-adv-x="303" 
d="M241 0h-47c-75 0 -102 44 -102 116v343h-68v37h68v131h45v-131h92v-37h-92v-339c0 -46 11 -81 73 -81h31v-39zM235 572h-29l29 92h-19v66h61v-68c-15 -30 -28 -60 -42 -90z" />
    <glyph glyph-name="Tbar" unicode="&#x166;" horiz-adv-x="478" 
d="M471 655h-207v-265h154v-37h-154v-353h-46v353h-156v37h156v265h-210v41h463v-41z" />
    <glyph glyph-name="tbar" unicode="&#x167;" horiz-adv-x="264" 
d="M21 263v35h71v161h-68v37h68v131h45v-131h92v-37h-92v-161h88v-35h-88v-143c0 -43 14 -81 73 -81h31v-39h-45c-72 0 -104 44 -104 102v161h-71z" />
    <glyph glyph-name="Umacron" unicode="&#x16a;" horiz-adv-x="606" 
d="M494 696h48v-464c0 -144 -100 -238 -239 -238c-143 0 -238 102 -238 245v457h46v-446c0 -118 74 -212 192 -212c112 0 191 76 191 204v454zM420 769h-255v41h255v-41z" />
    <glyph glyph-name="umacron" unicode="&#x16b;" horiz-adv-x="517" 
d="M445 0h-43v80h-2c-33 -63 -98 -85 -154 -85c-101 0 -181 63 -181 167v334h44v-317c0 -93 61 -144 146 -144s148 64 148 158v303h42v-496zM384 593h-255v41h255v-41z" />
    <glyph glyph-name="Ubreve" unicode="&#x16c;" horiz-adv-x="606" 
d="M494 696h48v-464c0 -144 -100 -238 -239 -238c-143 0 -238 102 -238 245v457h46v-446c0 -118 74 -212 192 -212c112 0 191 76 191 204v454zM171 824h39c7 -44 46 -73 88 -73c44 0 78 23 89 73h38c-7 -50 -42 -110 -127 -110s-122 60 -127 110z" />
    <glyph glyph-name="ubreve" unicode="&#x16d;" horiz-adv-x="517" 
d="M445 0h-43v80h-2c-33 -63 -98 -85 -154 -85c-101 0 -181 63 -181 167v334h44v-317c0 -93 61 -144 146 -144s148 64 148 158v303h42v-496zM129 674h39c7 -44 46 -73 88 -73c44 0 78 23 89 73h38c-7 -50 -42 -110 -127 -110s-122 60 -127 110z" />
    <glyph glyph-name="Uring" unicode="&#x16e;" horiz-adv-x="606" 
d="M494 696h48v-464c0 -144 -100 -238 -239 -238c-143 0 -238 102 -238 245v457h46v-446c0 -118 74 -212 192 -212c112 0 191 76 191 204v454zM304 715c-50 0 -91 41 -91 90c0 50 41 90 91 90s90 -40 90 -90c0 -49 -40 -90 -90 -90zM304 868c-35 0 -63 -28 -63 -63
s28 -63 63 -63s63 28 63 63s-28 63 -63 63z" />
    <glyph glyph-name="uring" unicode="&#x16f;" horiz-adv-x="517" 
d="M445 0h-43v80h-2c-33 -63 -98 -85 -154 -85c-101 0 -181 63 -181 167v334h44v-317c0 -93 61 -144 146 -144s148 64 148 158v303h42v-496zM252 553c-50 0 -91 41 -91 90c0 50 41 90 91 90s90 -40 90 -90c0 -49 -40 -90 -90 -90zM252 706c-35 0 -63 -28 -63 -63
s28 -63 63 -63s63 28 63 63s-28 63 -63 63z" />
    <glyph glyph-name="Uhungarumlaut" unicode="&#x170;" horiz-adv-x="606" 
d="M494 696h48v-464c0 -144 -100 -238 -239 -238c-143 0 -238 102 -238 245v457h46v-446c0 -118 74 -212 192 -212c112 0 191 76 191 204v454zM339 729l-20 22l136 108l35 -37zM221 729l-19 22l135 108l36 -37z" />
    <glyph glyph-name="uhungarumlaut" unicode="&#x171;" horiz-adv-x="517" 
d="M445 0h-43v80h-2c-33 -63 -98 -85 -154 -85c-101 0 -181 63 -181 167v334h44v-317c0 -93 61 -144 146 -144s148 64 148 158v303h42v-496zM205 563l-28 12l79 154l48 -19zM306 563l-28 12l79 154l48 -19z" />
    <glyph glyph-name="Uogonek" unicode="&#x172;" horiz-adv-x="606" 
d="M255 -91c0 24 9 55 34 85c-135 7 -224 106 -224 245v457h46v-446c0 -118 74 -212 192 -212c112 0 191 76 191 204v454h48v-464c0 -136 -89 -227 -215 -236c-21 -28 -33 -58 -33 -80c0 -36 23 -52 55 -52c17 0 35 5 57 16l13 -30c-19 -11 -48 -21 -78 -21
c-53 0 -86 37 -86 80z" />
    <glyph glyph-name="uogonek" unicode="&#x173;" horiz-adv-x="517" 
d="M360 -92c0 26 11 61 41 93v79h-2c-33 -63 -97 -85 -153 -85c-101 0 -181 62 -181 167v334h44v-318c0 -92 60 -143 146 -143c85 0 147 63 147 157v304h42v-496c-30 -28 -45 -62 -45 -85c0 -36 23 -52 55 -52c16 0 35 5 57 16l13 -29c-19 -12 -49 -22 -78 -22
c-53 0 -86 37 -86 80z" />
    <glyph glyph-name="Wcircumflex" unicode="&#x174;" horiz-adv-x="809" 
d="M790 696l-171 -696h-43l-105 376c-22 79 -45 158 -67 238h-1l-169 -614h-44c-57 232 -114 464 -170 696h48c29 -127 60 -252 89 -378l56 -239h2c21 79 43 161 65 239l105 378h40c36 -127 70 -254 106 -380l66 -237h1l54 236l89 381h49zM534 730c-43 28 -85 56 -129 83
l-129 -84l-18 21l131 110h37l126 -109z" />
    <glyph glyph-name="wcircumflex" unicode="&#x175;" horiz-adv-x="703" 
d="M694 494l-155 -494h-44c-30 87 -58 173 -88 261l-57 166c-19 -55 -37 -112 -56 -166c-29 -87 -58 -174 -88 -261h-44l-154 494h48l80 -271l48 -160h2l53 159c30 91 61 181 90 272h44c30 -90 60 -181 89 -271l53 -162h3l48 163l80 270h48zM476 557l-126 96
c-42 -33 -84 -65 -126 -97c-7 6 -14 14 -21 21l131 124h37l126 -124z" />
    <glyph glyph-name="Ycircumflex" unicode="&#x176;" horiz-adv-x="475" 
d="M259 288v-288h-44v288l-209 408h49c27 -52 161 -322 182 -365c25 49 49 98 73 148c37 72 74 144 109 217h48c-70 -136 -139 -272 -208 -408zM366 730c-44 28 -86 56 -129 83l-130 -84l-18 21l131 110h37l127 -109z" />
    <glyph glyph-name="ycircumflex" unicode="&#x177;" horiz-adv-x="419" 
d="M197 -111c-21 -61 -66 -89 -114 -89h-21v39h20c33 0 65 25 79 71c9 28 18 56 28 84c-62 166 -123 333 -185 500h49l84 -233c25 -70 48 -140 73 -210h2c19 56 135 385 155 443h46zM341 557l-126 96c-42 -33 -84 -65 -126 -97c-7 6 -14 14 -21 21l131 124h37l126 -124z" />
    <glyph glyph-name="Zacute" unicode="&#x179;" horiz-adv-x="488" 
d="M455 0h-422v42l370 613h-354v41h406v-40l-370 -613h370v-43zM222 729l-20 22l135 108l36 -37z" />
    <glyph glyph-name="zacute" unicode="&#x17a;" horiz-adv-x="421" 
d="M385 0h-350v36l300 421h-285v38h335v-37l-298 -419h298v-39zM227 563l-28 12l79 154l48 -19z" />
    <glyph glyph-name="Zdotaccent" unicode="&#x17b;" horiz-adv-x="488" 
d="M455 0h-422v42l370 613h-354v41h406v-40l-370 -613h370v-43zM286 765h-55v53h55v-53z" />
    <glyph glyph-name="zdotaccent" unicode="&#x17c;" horiz-adv-x="421" 
d="M385 0h-350v36l300 421h-285v38h335v-37l-298 -419h298v-39zM248 608h-55v54h55v-54z" />
    <glyph glyph-name="AEacute" unicode="&#x1fc;" horiz-adv-x="919" 
d="M886 0h-422v185h-292l-117 -185h-51l439 696h443v-43h-374v-279h320v-42h-320v-289h374v-43zM464 651l-265 -425h265v425zM606 729l-20 22l136 108l35 -37z" />
    <glyph glyph-name="aeacute" unicode="&#x1fd;" horiz-adv-x="799" 
d="M420 238c0 -114 41 -207 170 -207c40 0 84 15 119 42l27 -32c-42 -33 -91 -47 -144 -47c-70 0 -147 20 -186 106c-22 -52 -80 -106 -196 -106c-95 0 -174 42 -174 137c0 80 54 143 159 143h182v75c0 70 -41 111 -131 111c-49 0 -106 -11 -147 -45l-27 31
c49 42 117 55 170 55c82 0 150 -22 170 -100c38 76 105 100 165 100c134 0 196 -102 196 -226v-37h-353zM377 238h-170c-73 0 -128 -34 -128 -101c0 -68 53 -105 137 -105c89 0 161 43 161 130v76zM578 461c-94 0 -151 -69 -156 -187h306c-5 125 -61 187 -150 187zM433 563
c-10 4 -18 7 -28 12l79 153l48 -19z" />
    <glyph glyph-name="Oslashacute" unicode="&#x1fe;" horiz-adv-x="571" 
d="M286 701c70 0 126 -23 167 -63l41 62l27 -18l-45 -70c30 -41 48 -96 48 -159v-207c0 -155 -91 -253 -238 -253c-78 0 -136 26 -175 68l-43 -64l-27 18l48 72c-30 44 -44 100 -44 159v207c0 133 79 248 241 248zM476 451c0 44 -11 85 -30 117l-308 -465
c33 -41 82 -67 149 -67c118 0 189 89 189 212v203zM287 657c-130 0 -194 -95 -194 -206v-207c0 -40 9 -79 27 -111l306 464c-33 36 -80 60 -139 60zM259 729l-19 22l135 108l36 -37z" />
    <glyph glyph-name="oslashacute" unicode="&#x1ff;" horiz-adv-x="489" 
d="M246 501c56 0 100 -18 133 -49l41 56l24 -18l-45 -60c27 -36 42 -84 42 -137v-88c0 -125 -72 -211 -199 -211c-59 0 -102 18 -133 47l-38 -51l-24 18l41 55c-28 38 -40 89 -40 142v88c0 109 66 208 198 208zM397 298c0 35 -9 67 -26 94l-235 -314c25 -27 62 -45 109 -45
c92 0 152 70 152 164v101zM245 461c-101 0 -153 -82 -153 -165v-97c0 -34 8 -68 25 -96l235 313c-26 28 -63 45 -107 45zM248 563l-28 12l79 154l48 -19z" />
    <glyph glyph-name="imacron" unicode="&#x12b;" horiz-adv-x="215" 
d="M131 0h-46v496h46v-496zM232 593h-255v41h255v-41z" />
    <glyph glyph-name="ibreve" unicode="&#x12d;" horiz-adv-x="258" 
d="M147 0h-46v496h46v-496zM-3 680h38c8 -44 46 -73 89 -73c44 0 78 23 89 73h38c-7 -50 -42 -110 -127 -110s-122 60 -127 110z" />
    <glyph glyph-name="afii10023" unicode="&#x401;" horiz-adv-x="528" 
d="M501 0h-422v696h422v-43h-375v-279h320v-42h-320v-289h375v-43zM409 759h-54v53h54v-53zM231 759h-55v53h55v-53z" />
    <glyph glyph-name="afii10052" unicode="&#x403;" horiz-adv-x="507" 
d="M501 653h-374v-653h-48v696h422v-43zM234 729l-19 22l135 108l35 -37z" />
    <glyph glyph-name="afii10055" unicode="&#x406;" horiz-adv-x="212" 
d="M129 0h-46v696h46v-696z" />
    <glyph glyph-name="afii10056" unicode="&#x407;" horiz-adv-x="212" 
d="M129 0h-46v696h46v-696zM229 787h-55v54h55v-54zM39 787h-54v54h54v-54z" />
    <glyph glyph-name="afii10057" unicode="&#x408;" horiz-adv-x="448" 
d="M378 696v-499c0 -146 -97 -203 -207 -203c-55 0 -104 21 -141 55l34 32c35 -29 66 -43 103 -43c88 0 165 42 165 176v482h46z" />
    <glyph glyph-name="afii10017" unicode="&#x410;" horiz-adv-x="585" 
d="M519 0l-60 170h-335l-60 -170h-50l253 696h49c85 -232 170 -464 254 -696h-51zM293 639h-3c-15 -43 -133 -376 -152 -428h307l-90 254c-21 58 -42 116 -62 174z" />
    <glyph glyph-name="afii10019" unicode="&#x412;" horiz-adv-x="585" 
d="M546 186c0 -113 -83 -186 -187 -186h-280v696h253c128 0 198 -77 198 -177c0 -53 -26 -130 -117 -158v-2c96 -18 133 -105 133 -173zM324 655h-199v-277h199c97 0 159 56 159 139c0 79 -57 138 -159 138zM338 337h-213v-294h214c106 0 158 63 158 147
c0 78 -51 147 -159 147z" />
    <glyph glyph-name="afii10020" unicode="&#x413;" horiz-adv-x="507" 
d="M501 653h-374v-653h-48v696h422v-43z" />
    <glyph glyph-name="afii10022" unicode="&#x415;" horiz-adv-x="528" 
d="M501 0h-422v696h422v-43h-375v-279h320v-42h-320v-289h375v-43z" />
    <glyph glyph-name="afii10028" unicode="&#x41a;" horiz-adv-x="567" 
d="M123 0h-46v695h46v-315h167c50 0 105 20 133 107l67 208h45l-62 -199c-21 -67 -51 -118 -102 -132c65 -15 90 -68 110 -136l67 -228h-50l-65 226c-27 93 -74 113 -131 113h-179v-339z" />
    <glyph glyph-name="afii10030" unicode="&#x41c;" horiz-adv-x="741" 
d="M626 0v591h-1l-104 -220l-126 -262h-40l-126 264l-105 218c0 -1 0 -1 -1 -1v-590h-45v696h47l156 -328c32 -66 63 -133 94 -200h1l251 528h45v-696h-46z" />
    <glyph glyph-name="afii10031" unicode="&#x41d;" horiz-adv-x="625" 
d="M546 0h-47v332h-374v-332h-46v696h46v-322h374v322h47v-696z" />
    <glyph glyph-name="afii10032" unicode="&#x41e;" horiz-adv-x="571" 
d="M286 701c149 0 238 -104 238 -248v-207c0 -155 -91 -253 -238 -253c-165 0 -241 117 -241 253v207c0 133 79 248 241 248zM287 657c-130 0 -194 -95 -194 -206v-207c0 -109 64 -208 194 -208c118 0 189 89 189 212v203c0 116 -70 206 -189 206z" />
    <glyph glyph-name="afii10033" unicode="&#x41f;" horiz-adv-x="625" 
d="M546 0h-47v655h-374v-655h-46v696h467v-696z" />
    <glyph glyph-name="afii10034" unicode="&#x420;" horiz-adv-x="555" 
d="M544 494c0 -92 -66 -196 -206 -196h-211v-298h-47v696h248c111 0 216 -55 216 -202zM494 497c0 105 -74 156 -166 156h-201v-311h205c115 0 162 78 162 155z" />
    <glyph glyph-name="afii10035" unicode="&#x421;" horiz-adv-x="528" 
d="M469 153l42 -19c-35 -86 -113 -141 -218 -141c-165 0 -240 117 -240 253v207c0 133 79 248 240 248c103 0 179 -52 215 -130l-42 -21c-28 62 -89 108 -172 108c-131 0 -195 -96 -195 -207v-206c0 -111 64 -209 195 -209c85 0 143 46 175 117z" />
    <glyph glyph-name="afii10036" unicode="&#x422;" horiz-adv-x="478" 
d="M471 655h-207v-655h-46v655h-210v41h463v-41z" />
    <glyph glyph-name="afii10038" unicode="&#x424;" horiz-adv-x="726" 
d="M685 356c0 -201 -127 -291 -298 -298v-58h-46v58c-203 8 -295 127 -295 298c0 134 51 296 295 306v34h46v-33c213 -5 298 -132 298 -307zM387 624v-527c143 4 254 73 254 259c0 182 -99 267 -254 268zM341 625c-168 -9 -252 -96 -252 -269c2 -156 74 -251 252 -259v528z
" />
    <glyph glyph-name="afii10039" unicode="&#x425;" horiz-adv-x="500" 
d="M488 0h-51l-187 318l-187 -318h-52l213 357l-198 339h52l172 -300l172 300h52l-199 -339z" />
    <glyph glyph-name="afii10065" unicode="&#x430;" horiz-adv-x="474" 
d="M377 54h-1c-31 -49 -98 -60 -166 -60c-95 0 -174 46 -174 141c0 80 54 139 159 139h182v71c0 73 -37 115 -143 115c-49 0 -98 -11 -138 -48l-28 30c40 39 97 59 167 59c101 0 186 -30 186 -154v-347h-44v54zM377 237h-172c-79 0 -127 -33 -127 -100
c0 -68 54 -105 138 -105c64 0 161 19 161 106v99z" />
    <glyph glyph-name="afii10070" unicode="&#x435;" horiz-adv-x="474" 
d="M438 241h-353c-2 -113 41 -210 170 -210c40 0 85 16 119 41l27 -30c-42 -34 -92 -49 -144 -49c-100 0 -214 44 -214 252c0 201 107 256 199 256c130 0 196 -98 196 -226v-34zM392 277c-4 125 -60 185 -149 185c-94 0 -151 -67 -157 -185h306z" />
    <glyph glyph-name="afii10076" unicode="&#x43a;" horiz-adv-x="467" 
d="M109 0h-44v495h44v-225h133c38 0 76 14 96 75l47 150h42l-44 -143c-15 -48 -33 -84 -71 -94c47 -11 63 -48 77 -97l48 -161h-45l-45 155c-19 65 -51 79 -98 79h-140v-234z" />
    <glyph glyph-name="afii10080" unicode="&#x43e;" horiz-adv-x="489" 
d="M249 501c71 0 127 -29 160 -80c23 -37 35 -87 35 -177s-21 -146 -49 -182c-36 -46 -89 -68 -154 -68c-63 0 -110 20 -142 56c-36 41 -55 102 -55 199c0 91 22 147 54 185c34 41 85 67 151 67zM247 462c-51 0 -90 -23 -116 -56s-43 -77 -43 -159c0 -83 17 -129 43 -162
s64 -52 113 -52c51 0 92 22 119 61c21 30 37 69 37 151c0 81 -11 120 -27 147c-26 44 -71 70 -126 70z" />
    <glyph glyph-name="afii10081" unicode="&#x43f;" horiz-adv-x="522" 
d="M451 0h-44v459h-293v-459h-43v495h380v-495z" />
    <glyph glyph-name="afii10082" unicode="&#x440;" horiz-adv-x="492" 
d="M58 496h44v-84h1c42 73 100 90 152 90c140 0 186 -118 186 -255c0 -123 -42 -252 -191 -252c-76 0 -116 37 -147 87h-1v-281h-44v695zM102 250c0 -112 35 -214 145 -214c125 0 148 117 148 212c0 90 -18 214 -148 214c-125 0 -145 -127 -145 -212z" />
    <glyph glyph-name="afii10083" unicode="&#x441;" horiz-adv-x="414" 
d="M395 49c-38 -34 -87 -56 -145 -56c-110 0 -220 68 -220 254s110 254 220 254c58 0 106 -21 145 -54l-28 -33c-27 26 -69 47 -111 47c-116 0 -182 -76 -182 -214s66 -215 182 -215c43 0 85 24 111 47z" />
    <glyph glyph-name="afii10085" unicode="&#x443;" horiz-adv-x="419" 
d="M197 -111c-21 -61 -66 -89 -114 -89h-21v39h20c33 0 65 25 79 71c9 28 18 56 28 84c-62 166 -123 333 -185 500h49l84 -233c25 -70 48 -140 73 -210h2c19 56 135 385 155 443h46z" />
    <glyph glyph-name="afii10087" unicode="&#x445;" horiz-adv-x="441" 
d="M412 0h-52l-140 223l-139 -223h-52l165 254l-157 241h52l131 -211l130 211h53l-157 -241z" />
    <glyph glyph-name="afii10071" unicode="&#x451;" horiz-adv-x="474" 
d="M438 241h-353c-2 -113 41 -210 170 -210c40 0 85 16 119 41l27 -30c-42 -34 -92 -49 -144 -49c-100 0 -214 44 -214 252c0 201 107 256 199 256c130 0 196 -98 196 -226v-34zM392 277c-4 125 -60 185 -149 185c-94 0 -151 -67 -157 -185h306zM368 615h-55v54h55v-54z
M178 615h-54v54h54v-54z" />
    <glyph glyph-name="afii10103" unicode="&#x456;" horiz-adv-x="199" 
d="M124 648h-50v49h50v-49zM122 0h-44v496h44v-496z" />
    <glyph glyph-name="afii10104" unicode="&#x457;" horiz-adv-x="191" 
d="M215 608h-55v54h55v-54zM25 608h-54v54h54v-54zM119 0h-46v496h46v-496z" />
    <glyph glyph-name="afii10105" unicode="&#x458;" horiz-adv-x="218" 
d="M87 648v48h50v-48h-50zM-8 -205v39h17c52 0 81 34 81 93v568h45v-573c0 -77 -51 -127 -121 -127h-22z" />
    <glyph glyph-name="afii10110" unicode="&#x45e;" horiz-adv-x="419" 
d="M197 -111c-21 -61 -66 -89 -114 -89h-21v39h20c33 0 65 25 79 71c9 28 18 56 28 84c-62 166 -123 333 -185 500h49l84 -233c25 -70 48 -140 73 -210h2c19 56 135 385 155 443h46zM214 601c44 0 79 22 89 73h38c-7 -50 -42 -111 -127 -111c-84 0 -122 61 -127 111h39
c7 -44 46 -73 88 -73z" />
    <glyph glyph-name="afii10051" unicode="&#x402;" horiz-adv-x="683" 
d="M264 392h1c47 46 114 78 184 78c114 0 208 -71 208 -235c0 -147 -75 -257 -252 -251v39c138 -3 206 72 206 206c0 119 -56 198 -166 198c-63 0 -131 -31 -181 -90v-337h-46v655h-210v41h541v-41h-285v-263z" />
    <glyph glyph-name="afii10053" unicode="&#x404;" horiz-adv-x="521" 
d="M469 153l42 -19c-35 -86 -113 -141 -218 -141c-165 0 -240 117 -240 253v207c0 133 79 248 240 248c103 0 179 -52 215 -130l-42 -21c-28 62 -89 108 -172 108c-131 0 -195 -96 -195 -207v-77h272v-42h-272v-87c0 -111 64 -209 195 -209c85 0 143 46 175 117z" />
    <glyph glyph-name="afii10059" unicode="&#x40a;" horiz-adv-x="907" 
d="M673 0h-247v335h-300v-335h-47v696h47v-318h300v318h48v-318h209c138 0 207 -90 207 -187c0 -136 -99 -191 -217 -191zM841 190c0 76 -57 145 -162 145h-205v-292h204c92 0 163 42 163 147z" />
    <glyph glyph-name="afii10060" unicode="&#x40b;" horiz-adv-x="684" 
d="M461 471c115 0 181 -65 181 -182v-289h-45v271c0 100 -41 157 -142 157c-54 0 -123 -26 -191 -85v-343h-46v655h-210v41h541v-41h-285v-263h1c62 50 134 79 196 79z" />
    <glyph glyph-name="afii10145" unicode="&#x40f;" horiz-adv-x="618" 
d="M494 695h49v-695h-207v-166h-55v166h-206v695h49v-653h370v653z" />
    <glyph glyph-name="afii10018" unicode="&#x411;" horiz-adv-x="544" 
d="M295 0h-246v696h405v-42h-358v-276h209c139 0 208 -90 208 -187c0 -136 -99 -191 -218 -191zM464 190c0 76 -57 145 -162 145h-206v-292h205c91 0 163 42 163 147z" />
    <glyph glyph-name="afii10021" unicode="&#x414;" horiz-adv-x="695" 
d="M602 696v-654h50v-196h-47v154h-537v-154h-48v191l39 8c69 35 99 131 110 363c4 96 9 192 14 288h419zM554 42v612h-327l-13 -266c-9 -174 -29 -287 -86 -346h426z" />
    <glyph glyph-name="afii10024" unicode="&#x416;" horiz-adv-x="859" 
d="M406 380v316h47v-316h131c50 0 106 20 133 107l68 208h44l-62 -199c-20 -67 -51 -118 -102 -132c65 -15 90 -68 110 -136l67 -228h-49l-66 226c-28 93 -73 113 -131 113h-143v-339h-47v339h-143c-58 0 -104 -20 -131 -113l-66 -226h-49l67 228c20 68 45 121 109 136
c-50 14 -81 65 -101 132l-63 199h45l67 -208c28 -87 83 -107 133 -107h132z" />
    <glyph glyph-name="afii10025" unicode="&#x417;" horiz-adv-x="548" 
d="M264 -6c-111 0 -209 54 -244 139l42 20c33 -72 117 -119 205 -119c105 0 191 62 191 172c0 98 -81 145 -156 145h-87v42h84c73 0 145 53 145 137s-75 128 -171 128c-85 0 -163 -45 -192 -106c-13 7 -28 13 -41 20c36 78 125 130 233 130c149 0 218 -75 218 -169
c0 -49 -25 -129 -113 -160c103 -30 128 -114 128 -166c0 -128 -100 -213 -242 -213z" />
    <glyph glyph-name="afii10026" unicode="&#x418;" horiz-adv-x="642" 
d="M576 0h-46v610s0 1 -1 1c-137 -205 -274 -407 -411 -611h-46v696h46v-616s1 0 1 -1c139 208 276 409 415 617h42v-696z" />
    <glyph glyph-name="afii10037" unicode="&#x423;" horiz-adv-x="497" 
d="M485 697c-73 -190 -147 -379 -221 -569c-42 -107 -79 -136 -145 -136h-40v43h32c47 0 72 21 99 85l17 43l-210 532h52c32 -82 63 -165 95 -248c11 -27 79 -201 89 -228h2l181 478h49z" />
    <glyph glyph-name="afii10040" unicode="&#x426;" horiz-adv-x="626" 
d="M552 -154v154h-473v696h46v-654h374v654h47v-655h54v-195h-48z" />
    <glyph glyph-name="afii10041" unicode="&#x427;" horiz-adv-x="588" 
d="M509 0h-47v347h-1c-75 -49 -144 -59 -200 -59c-104 0 -203 51 -203 203v205h46v-194c0 -103 51 -173 165 -173c61 0 131 18 193 64v303h47v-696z" />
    <glyph glyph-name="afii10042" unicode="&#x428;" horiz-adv-x="941" 
d="M819 696h48v-696h-793v696h48v-654h321v654h48v-654h328v654z" />
    <glyph glyph-name="afii10043" unicode="&#x429;" horiz-adv-x="950" 
d="M872 -154v154h-799v696h48v-654h321v654h48v-654h328v654h48v-655h54v-195h-48z" />
    <glyph glyph-name="afii10044" unicode="&#x42a;" horiz-adv-x="693" 
d="M663 191c0 -136 -99 -191 -217 -191h-247v652h-191v44h239v-318h209c138 0 207 -90 207 -187zM614 190c0 76 -57 145 -162 145h-205v-292h204c92 0 163 42 163 147z" />
    <glyph glyph-name="afii10045" unicode="&#x42b;" horiz-adv-x="740" 
d="M328 0h-247v696h48v-318h209c138 0 208 -90 208 -187c0 -136 -99 -191 -218 -191zM664 0h-47v696h47v-696zM496 190c0 76 -57 145 -162 145h-205v-292h205c91 0 162 42 162 147z" />
    <glyph glyph-name="afii10046" unicode="&#x42c;" horiz-adv-x="548" 
d="M296 0h-247v696h48v-318h209c138 0 207 -90 207 -187c0 -136 -98 -191 -217 -191zM464 190c0 76 -57 145 -162 145h-205v-292h205c91 0 162 42 162 147z" />
    <glyph glyph-name="afii10047" unicode="&#x42d;" horiz-adv-x="532" 
d="M154 339v42h272v70c0 111 -52 207 -185 207c-83 0 -147 -44 -176 -107l-41 20c35 78 115 130 218 130c166 0 230 -115 230 -248v-207c0 -136 -77 -253 -242 -253c-105 0 -185 55 -220 141l42 19c32 -71 92 -117 177 -117c139 0 197 98 197 209v94h-272z" />
    <glyph glyph-name="afii10048" unicode="&#x42e;" horiz-adv-x="741" 
d="M464 701c152 0 227 -103 227 -247v-209c0 -153 -81 -252 -227 -252c-166 0 -228 118 -228 253v86h-109v-332h-49v696h49v-323h109v80c0 133 69 248 228 248zM465 657c-132 0 -182 -99 -182 -207v-206c0 -109 51 -208 182 -208c121 0 178 89 178 212v202
c0 113 -56 207 -178 207z" />
    <glyph glyph-name="afii10049" unicode="&#x42f;" horiz-adv-x="601" 
d="M110 508c0 -99 71 -140 166 -140h200v287h-203c-86 0 -163 -48 -163 -147zM476 0v327h-197c-57 0 -110 -22 -136 -115l-58 -212h-49l59 220c17 62 40 100 90 120c-85 23 -123 91 -123 168c0 112 83 188 205 188h256v-696h-47z" />
    <glyph glyph-name="afii10066" unicode="&#x431;" horiz-adv-x="478" 
d="M86 385c1 0 2 0 3 -1c28 57 95 93 161 93c74 0 120 -28 150 -68c26 -34 40 -92 40 -170c0 -72 -9 -121 -31 -158c-32 -55 -92 -87 -168 -87c-73 0 -128 23 -162 78c-27 44 -39 107 -39 190c1 80 6 137 12 177c19 123 71 194 179 236c46 18 101 31 162 53l13 -35
c-64 -23 -112 -34 -152 -50c-122 -50 -159 -130 -168 -258zM245 437c-49 0 -90 -21 -117 -58c-28 -37 -42 -89 -42 -147c0 -57 7 -98 26 -130c24 -44 67 -70 128 -70c70 0 122 33 143 93c9 26 13 67 13 110c0 74 -9 116 -33 149c-26 33 -60 53 -118 53z" />
    <glyph glyph-name="afii10067" unicode="&#x432;" horiz-adv-x="461" 
d="M435 137c0 -82 -66 -137 -146 -137h-231v495h206c108 0 159 -58 159 -128c0 -38 -20 -87 -77 -109v-1c70 -19 89 -79 89 -120zM377 365c0 54 -39 92 -117 92h-158v-184h167c65 0 108 37 108 92zM392 136c0 52 -36 101 -118 101h-172v-198h171c80 0 119 47 119 97z" />
    <glyph glyph-name="afii10068" unicode="&#x433;" horiz-adv-x="400" 
d="M398 457h-295v-457h-45v495h340v-38z" />
    <glyph glyph-name="afii10069" unicode="&#x434;" horiz-adv-x="564" 
d="M521 40v-172h-44v132h-416v-132h-44v169l38 4c49 30 77 91 84 245l10 209h330v-455h42zM434 40v417h-246c-6 -182 -12 -359 -74 -417h320z" />
    <glyph glyph-name="afii10072" unicode="&#x436;" horiz-adv-x="700" 
d="M215 270h113v225h43v-225h113c38 0 77 13 96 74l48 151h41l-44 -143c-15 -48 -33 -84 -71 -94c47 -12 63 -48 77 -97l48 -161h-44c-15 52 -29 103 -45 155c-19 65 -51 79 -98 79h-121v-234h-43v234h-121c-46 0 -78 -14 -98 -79l-45 -155h-44l48 161c14 49 30 85 76 97
c-37 10 -56 46 -70 94s-30 95 -45 143h42c16 -50 32 -101 47 -151c19 -61 60 -74 97 -74z" />
    <glyph glyph-name="afii10073" unicode="&#x437;" horiz-adv-x="423" 
d="M328 367c0 56 -47 94 -127 94c-52 0 -112 -19 -141 -44l-27 30c40 33 106 53 169 53c125 0 171 -63 171 -129c0 -34 -23 -89 -86 -113c73 -18 96 -80 96 -115c0 -86 -71 -150 -191 -150c-68 0 -139 19 -179 52l28 31c28 -23 93 -43 148 -43c90 0 149 42 149 109
c0 66 -58 98 -126 98h-63v36h63c61 0 116 34 116 91z" />
    <glyph glyph-name="afii10074" unicode="&#x438;" horiz-adv-x="515" 
d="M457 0h-44v421l-81 -111l-230 -310h-43v495h44v-428l91 124l225 304h38v-495z" />
    <glyph glyph-name="afii10078" unicode="&#x43c;" horiz-adv-x="587" 
d="M539 0h-45v404l-176 -328h-36l-179 328v-404h-44v495h43c31 -56 175 -326 198 -370l73 137l123 233h43v-495z" />
    <glyph glyph-name="afii10079" unicode="&#x43d;" horiz-adv-x="493" 
d="M435 0h-44v233h-288v-233h-44v495h44v-227h288v227h44v-495z" />
    <glyph glyph-name="afii10086" unicode="&#x444;" horiz-adv-x="568" 
d="M309 460v-429c68 2 113 27 141 65c29 44 34 101 34 149c0 71 -5 118 -42 164c-30 35 -76 50 -133 51zM266 501v221h43v-221c81 -2 141 -29 175 -74s44 -107 44 -183c0 -70 -12 -127 -41 -168c-37 -54 -99 -82 -178 -82v-193h-43v193c-59 0 -109 15 -145 44
c-58 48 -74 111 -74 212c0 81 11 145 65 197c35 33 87 54 154 54zM266 31v429c-50 0 -95 -15 -126 -44c-35 -31 -49 -81 -49 -167c0 -66 5 -130 53 -174c27 -26 69 -44 122 -44z" />
    <glyph glyph-name="afii10088" unicode="&#x446;" horiz-adv-x="517" 
d="M442 0h-382v495h43v-457h293v457h43v-457h48v-170h-45v132z" />
    <glyph glyph-name="afii10089" unicode="&#x447;" horiz-adv-x="460" 
d="M401 0h-44v239c-61 -33 -119 -46 -165 -46c-88 0 -161 40 -161 156v146h44v-139c0 -83 46 -123 127 -123c44 0 102 15 155 49v213h44v-495z" />
    <glyph glyph-name="afii10090" unicode="&#x448;" horiz-adv-x="779" 
d="M676 495h43v-495h-659v495h43v-456h262v456h44v-456h267v456z" />
    <glyph glyph-name="afii10091" unicode="&#x449;" horiz-adv-x="797" 
d="M722 0h-662v495h43v-456h261v456h44v-456h267v456h44v-457h47v-170h-44v132z" />
    <glyph glyph-name="afii10092" unicode="&#x44a;" horiz-adv-x="551" 
d="M488 142c0 54 -43 100 -125 100l-162 1v-204h160c70 0 127 32 127 103zM202 495v-213h165c113 0 165 -67 165 -140c0 -95 -72 -142 -174 -142h-201v457h-151v38h196z" />
    <glyph glyph-name="afii10093" unicode="&#x44b;" horiz-adv-x="582" 
d="M522 0h-44v495h44v-495zM381 142c0 54 -44 101 -125 101h-162v-204h160c70 0 127 32 127 103zM94 495v-213h166c113 0 165 -67 165 -140c0 -95 -72 -142 -174 -142h-201v495h44z" />
    <glyph glyph-name="afii10094" unicode="&#x44c;" horiz-adv-x="437" 
d="M378 142c0 54 -43 100 -125 100l-162 1v-204h160c70 0 127 32 127 103zM92 495v-213h165c113 0 165 -67 165 -140c0 -95 -72 -142 -173 -142h-202l1 495h44z" />
    <glyph glyph-name="afii10095" unicode="&#x44d;" horiz-adv-x="427" 
d="M118 235v37h218c-2 114 -53 188 -160 188c-43 0 -93 -17 -126 -44l-27 31c39 33 100 54 157 54c110 0 201 -63 201 -246c0 -190 -106 -262 -215 -262c-57 0 -112 19 -154 52l28 32c28 -23 79 -43 123 -43c109 0 170 78 173 201h-218z" />
    <glyph glyph-name="afii10096" unicode="&#x44e;" horiz-adv-x="590" 
d="M53 0v494h43v-226h72c1 81 22 137 51 172c33 40 79 62 141 62c69 0 122 -25 155 -76c22 -37 35 -91 35 -181s-19 -148 -47 -184c-33 -45 -84 -67 -146 -67c-60 0 -105 20 -136 56c-31 35 -52 95 -53 183h-72v-233h-43zM360 463c-47 0 -85 -23 -111 -56
c-23 -30 -38 -77 -38 -159c0 -83 17 -134 42 -165c25 -32 58 -50 106 -50c50 0 88 21 113 59c21 31 34 72 34 154c0 81 -10 124 -26 151c-25 44 -67 66 -120 66z" />
    <glyph glyph-name="afii10097" unicode="&#x44f;" horiz-adv-x="480" 
d="M44 355c0 83 55 140 145 140h229v-495h-44v226h-168c-46 0 -81 -14 -97 -77l-38 -149h-45l39 148c11 42 26 79 65 92c-60 16 -86 63 -86 115zM86 356c0 -67 53 -93 119 -93h169v194h-180c-63 0 -108 -38 -108 -101z" />
    <glyph glyph-name="afii10099" unicode="&#x452;" horiz-adv-x="529" 
d="M7 585v37h62v100h43v-100h248v-37h-248v-190c1 0 1 -1 2 -1c32 66 88 100 164 100c120 0 190 -84 190 -250c0 -142 -78 -255 -224 -255h-12v37h8c118 0 185 87 185 214c0 117 -39 215 -159 215c-105 0 -154 -89 -154 -226v-229h-43v585h-62z" />
    <glyph glyph-name="afii10100" unicode="&#x453;" horiz-adv-x="392" 
d="M393 453h-296v-453h-45v491h341v-38zM215 563l-28 12l79 154l48 -19z" />
    <glyph glyph-name="afii10101" unicode="&#x454;" horiz-adv-x="407" 
d="M397 49c-39 -34 -86 -56 -148 -56c-118 0 -219 65 -219 250c0 184 111 258 223 258c57 0 103 -19 142 -52l-28 -32c-29 27 -69 44 -112 44c-100 0 -171 -67 -179 -193h216v-36h-217c4 -123 57 -198 179 -198c44 0 91 22 115 45z" />
    <glyph glyph-name="afii10107" unicode="&#x45a;" horiz-adv-x="740" 
d="M665 144c0 52 -43 103 -124 103h-162v-208h160c69 0 126 33 126 105zM335 495h44v-208h165c113 0 166 -72 166 -141c0 -100 -73 -146 -174 -146h-201v248h-231v-248h-44v495h44v-208h231v208z" />
    <glyph glyph-name="afii10108" unicode="&#x45b;" horiz-adv-x="508" 
d="M13 587v37h60v99h43v-99h234v-37h-234v-187h2c33 63 104 90 161 90c111 0 173 -61 173 -168v-322h-43v307c0 92 -47 142 -139 142c-85 0 -154 -65 -154 -159v-290h-43v587h-60z" />
    <glyph glyph-name="afii10193" unicode="&#x45f;" horiz-adv-x="504" 
d="M398 496h44v-496h-167v-132h-47v132h-166v496h43v-457h293v457z" />
    <glyph glyph-name="afii10050" unicode="&#x490;" horiz-adv-x="507" 
d="M501 812v-159h-374v-653h-48v696h377v116h45z" />
    <glyph glyph-name="afii10098" unicode="&#x491;" horiz-adv-x="400" 
d="M398 598v-143h-295v-455h-45v495h297v103h43z" />
    <glyph glyph-name="afii10084" unicode="&#x442;" horiz-adv-x="380" 
d="M377 458h-166v-458h-44v458h-165v37h375v-37z" />
    <glyph glyph-name="fraction" unicode="&#x2044;" horiz-adv-x="150" 
d="M314 718l-425 -744h-36l425 744h36z" />
    <glyph glyph-name="fraction" unicode="&#x2215;" horiz-adv-x="150" 
d="M314 718l-425 -744h-36l425 744h36z" />
    <glyph glyph-name="afii61289" unicode="&#x2113;" horiz-adv-x="504" 
d="M418 136l39 -14c-39 -81 -91 -132 -165 -132c-92 0 -156 64 -156 168v66c-17 -12 -51 -34 -66 -41c0 4 -9 21 -10 25c13 7 54 35 77 54v238c0 155 71 207 148 207c52 0 107 -40 107 -125c0 -109 -83 -217 -213 -334v-67c0 -113 56 -153 116 -153c54 0 92 40 123 108z
M179 507v-213c121 112 173 208 173 285c0 47 -20 94 -70 94c-51 0 -103 -49 -103 -166z" />
    <glyph glyph-name="afii61352" unicode="&#x2116;" horiz-adv-x="884" 
d="M455 0c-71 131 -142 261 -212 392l-120 223h-1v-615h-47v696h48l213 -388c40 -74 79 -148 120 -222h1v610h46v-696h-48zM699 701c51 0 88 -19 112 -53c15 -22 26 -54 26 -111c-1 -58 -9 -88 -23 -111c-27 -44 -70 -58 -119 -58c-40 0 -71 11 -93 31
c-30 25 -46 74 -46 137c0 37 6 64 16 87c25 52 65 78 127 78zM699 669c-40 0 -70 -18 -87 -47c-13 -20 -19 -47 -19 -88c0 -34 4 -60 13 -80c16 -35 48 -55 91 -55c32 0 62 12 80 35c15 20 25 49 25 102c0 49 -8 72 -19 89c-18 27 -49 44 -84 44zM572 286v34h247v-34h-247z
" />
    <glyph glyph-name="estimated" unicode="&#x212e;" horiz-adv-x="817" 
d="M770 319h-578v-195c44 -76 139 -116 227 -116s172 42 230 107h46c-65 -80 -169 -126 -276 -126c-193 0 -351 151 -351 336c0 184 158 336 351 336c199 0 344 -142 351 -342zM647 339v187c-44 72 -140 118 -227 118c-80 0 -165 -46 -228 -119v-186h455z" />
    <glyph glyph-name="partialdiff" unicode="&#x2202;" horiz-adv-x="530" 
d="M96 213c0 -126 70 -183 153 -183c116 0 175 137 182 264c-64 74 -135 101 -180 101c-96 0 -155 -95 -155 -182zM53 211c0 136 96 221 189 221c44 0 116 -15 189 -92c3 209 -96 339 -235 339c-15 0 -38 -2 -55 -5v34c21 5 42 6 59 6c197 0 277 -176 277 -363
c0 -230 -97 -361 -230 -361c-111 0 -194 75 -194 221z" />
    <glyph glyph-name="gradient" unicode="&#x2207;" horiz-adv-x="585" 
d="M267 0l-253 696h556c-84 -232 -169 -464 -254 -696h-49zM290 52h3c26 76 53 151 79 226l133 376h-426c44 -125 90 -250 133 -375z" />
    <glyph glyph-name="product" unicode="&#x220f;" horiz-adv-x="625" 
d="M546 -97h-47v752h-374v-752h-46v793h467v-793z" />
    <glyph glyph-name="summation" unicode="&#x2211;" horiz-adv-x="484" 
d="M455 -96h-422v42l188 354l-186 356v40h409v-41h-357l188 -355l-189 -354h369v-42z" />
    <glyph glyph-name="minus" unicode="&#x2212;" horiz-adv-x="467" 
d="M438 261h-413v38h413v-38z" />
    <glyph glyph-name="radical" unicode="&#x221a;" horiz-adv-x="562" 
d="M538 800l-215 -886h-41l-166 435l-72 -27l-13 33l110 41l158 -419l197 823h42z" />
    <glyph glyph-name="infinity" unicode="&#x221e;" horiz-adv-x="728" 
d="M190 413c62 0 132 -60 175 -118c47 61 114 118 178 118c78 0 137 -59 137 -141c0 -84 -62 -144 -140 -144c-68 0 -120 52 -175 118c-57 -68 -106 -118 -178 -118c-76 0 -138 57 -138 144c0 80 62 141 141 141zM190 379c-57 0 -107 -51 -107 -107c0 -61 49 -111 108 -111
c55 0 114 59 151 109c-35 49 -96 109 -152 109zM541 379c-56 0 -114 -56 -154 -108c41 -50 97 -110 152 -110c58 0 108 51 108 111c0 57 -49 107 -106 107z" />
    <glyph glyph-name="logicaland" unicode="&#x2227;" horiz-adv-x="500" 
d="M269 510l197 -511h-40l-175 462l-177 -462h-40l198 511h37z" />
    <glyph glyph-name="logicalor" unicode="&#x2228;" horiz-adv-x="500" 
d="M426 511h40l-197 -511h-37l-198 511h40l177 -463z" />
    <glyph glyph-name="intersection" unicode="&#x2229;" horiz-adv-x="500" 
d="M467 313v-313h-38v313c0 82 -68 167 -182 167c-110 0 -177 -81 -177 -167v-313h-37v313c0 106 79 203 214 203s220 -87 220 -203z" />
    <glyph glyph-name="union" unicode="&#x222a;" horiz-adv-x="500" 
d="M467 517v-313c0 -116 -85 -203 -220 -203s-214 96 -214 203v313h37v-313c0 -87 67 -167 177 -167c114 0 182 85 182 167v313h38z" />
    <glyph glyph-name="integral" unicode="&#x222b;" horiz-adv-x="316" 
d="M137 402c0 35 1 99 6 155c10 109 33 220 150 220c10 0 24 -2 42 -8l-12 -33c-12 4 -24 5 -31 5c-59 0 -95 -46 -107 -187c-5 -64 -2 -234 -6 -333c-3 -75 -6 -139 -15 -194c-19 -114 -63 -185 -141 -185c-9 0 -27 2 -42 8l10 33c9 -4 26 -5 33 -5c54 0 81 43 96 148
c12 81 17 202 17 376z" />
    <glyph glyph-name="approxequal" unicode="&#x2248;" horiz-adv-x="467" 
d="M447 362c-26 -40 -56 -69 -108 -69c-70 0 -150 61 -210 61c-34 0 -56 -21 -80 -47l-29 23c28 40 67 64 110 64c72 0 140 -61 209 -61c36 0 53 19 77 52zM447 212c-26 -41 -56 -69 -108 -69c-70 0 -150 60 -210 60c-34 0 -56 -20 -80 -47l-29 23c28 40 67 64 110 64
c72 0 140 -60 209 -60c36 0 53 18 77 51z" />
    <glyph glyph-name="notequal" unicode="&#x2260;" horiz-adv-x="476" 
d="M87 32l-41 1l87 130h-107v38h133l93 139h-226v37h252l92 135h41l-91 -135h119v-37h-145l-93 -139h238v-38h-264z" />
    <glyph glyph-name="lessequal" unicode="&#x2264;" horiz-adv-x="476" 
d="M440 134v-41l-414 171v35l414 171v-42l-367 -146zM439 1h-413v37h413v-37z" />
    <glyph glyph-name="greaterequal" unicode="&#x2265;" horiz-adv-x="476" 
d="M26 92v41l367 148l-367 147v41l414 -171v-35zM440 0h-413v38h413v-38z" />
    <glyph glyph-name="lozenge" unicode="&#x25ca;" horiz-adv-x="460" 
d="M437 263c-61 -115 -123 -229 -185 -342h-44l-188 342c62 112 126 231 188 343h44zM387 263l-157 291h-1c-52 -97 -105 -194 -158 -291c53 -95 107 -195 158 -290h2z" />
    <glyph glyph-name="zero.text" unicode="&#xe000;" horiz-adv-x="500" 
d="M417 179c0 -119 -87 -184 -184 -184s-184 65 -184 184v337c0 119 87 185 184 185s184 -66 184 -185v-337zM375 186v324c0 90 -57 150 -142 150s-141 -60 -141 -150v-324c0 -90 56 -151 141 -151s142 61 142 151z" />
    <glyph glyph-name="one.text" unicode="&#xe001;" horiz-adv-x="428" 
d="M246 696v-696h-44v648l-102 -68v48l101 68h45z" />
    <glyph glyph-name="two.text" unicode="&#xe002;" horiz-adv-x="500" 
d="M416 0h-371v44l290 375c22 29 39 77 39 111c0 70 -48 128 -138 128c-65 0 -121 -44 -138 -108l-45 7c21 87 99 142 183 142c115 0 185 -71 185 -166c0 -43 -15 -93 -48 -134l-274 -356h317v-43z" />
    <glyph glyph-name="three.text" unicode="&#xe003;" horiz-adv-x="467" 
d="M424 196c0 -122 -89 -202 -206 -202c-73 0 -150 29 -174 122l44 6c17 -54 64 -89 132 -89c84 0 159 63 159 159s-61 151 -140 151h-45v40h36c78 0 138 52 138 135c0 82 -57 144 -144 144c-54 0 -113 -34 -131 -93l-43 7c22 76 92 126 176 126c129 0 187 -87 187 -182
c0 -49 -23 -124 -104 -156c92 -31 115 -115 115 -168z" />
    <glyph glyph-name="four.text" unicode="&#xe004;" horiz-adv-x="500" 
d="M447 112h-62v-112h-43v112h-313v42l248 542h49l-252 -542h268v215h43v-215h62v-42z" />
    <glyph glyph-name="five.text" unicode="&#xe005;" horiz-adv-x="500" 
d="M71 115l41 9c18 -58 67 -92 137 -92c102 0 148 78 148 162v72c0 85 -39 156 -145 156c-45 0 -102 -31 -128 -70h-41v344h341v-42h-300v-249c49 47 103 56 141 56c122 0 174 -83 174 -190v-45c0 -130 -43 -231 -192 -231c-91 0 -153 41 -176 120z" />
    <glyph glyph-name="six.text" unicode="&#xe006;" horiz-adv-x="500" 
d="M426 204c0 -152 -96 -210 -194 -210c-88 0 -179 66 -179 199c0 40 8 78 25 112l197 391h47l-168 -334l2 -1c26 21 64 30 92 30c94 0 178 -70 178 -187zM382 195c0 99 -63 158 -143 158c-81 0 -144 -59 -144 -158c0 -97 55 -163 144 -163c76 0 143 60 143 163z" />
    <glyph glyph-name="seven.text" unicode="&#xe007;" horiz-adv-x="475" 
d="M415 652l-253 -652h-49l255 653h-282v-109h-43v152h372v-44z" />
    <glyph glyph-name="eight.text" unicode="&#xe008;" horiz-adv-x="500" 
d="M437 188c0 -115 -90 -194 -200 -194s-199 79 -199 194c0 11 1 21 5 33c9 54 44 113 111 138c-81 31 -103 102 -103 156c0 104 81 185 186 185c112 0 186 -81 186 -185c0 -62 -29 -124 -104 -156l1 -1c85 -27 117 -108 117 -170zM237 341c-82 0 -157 -61 -157 -152
c0 -89 74 -157 157 -157c84 0 158 68 158 157c0 91 -75 152 -158 152zM237 662c-71 0 -143 -52 -143 -145c0 -95 73 -140 143 -140c71 0 144 44 144 140c0 93 -72 145 -144 145z" />
    <glyph glyph-name="nine.text" unicode="&#xe009;" horiz-adv-x="500" 
d="M53 495c0 152 97 207 193 207c91 0 181 -66 181 -199c0 -40 -8 -79 -25 -112l-198 -391h-48l169 331l-2 1c-33 -21 -68 -25 -91 -25c-95 0 -179 69 -179 188zM95 501c0 -99 64 -158 145 -158s143 59 143 158c0 97 -56 163 -143 163c-77 0 -145 -60 -145 -163z" />
    <glyph glyph-name="numbersign.text" unicode="&#xe00a;" horiz-adv-x="500" 
d="M8 224v31h102c6 45 20 144 27 189h-99v31h103l29 220h33l-29 -220h145c7 47 25 172 31 220h33l-30 -220h102v-31h-106l-26 -189h103v-31h-107l-29 -224h-35l30 224h-145l-31 -224h-35l32 224h-98zM170 444l-26 -189h145l26 189h-145z" />
    </font>
</defs>
</svg>
