<svg width="1681" height="300" viewBox="0 0 1681 300" fill="none" xmlns="http://www.w3.org/2000/svg">
<rect x="133.262" y="34.4141" width="186.461" height="186.461" transform="rotate(45 133.262 34.4141)" stroke="currentColor" stroke-width="2"/>
<rect x="394.738" y="34.4141" width="186.461" height="186.461" transform="rotate(45 394.738 34.4141)" stroke="currentColor" stroke-width="2"/>
<circle cx="133.262" cy="32" r="28" stroke="#FF4F00" stroke-width="8"/>
<circle cx="261.477" cy="166.262" r="28" stroke="#FF4F00" stroke-width="8"/>
<path d="M608.376 55.3724L670.818 55.3724L702.039 109.449L670.818 163.525H608.376L577.155 109.449L608.376 55.3724Z" stroke="currentColor" stroke-width="2"/>
<path d="M808.659 55.3724L871.101 55.3724L902.322 109.449L871.101 163.525H808.659L777.438 109.449L808.659 55.3724Z" stroke="currentColor" stroke-width="2"/>
<path d="M708.284 111.398L770.726 111.398L801.947 165.475L770.726 219.551H708.284L677.063 165.475L708.284 111.398Z" stroke="currentColor" stroke-width="2"/>
<path d="M908.565 111.398L971.007 111.398L1002.23 165.475L971.007 219.551H908.565L877.344 165.475L908.565 111.398Z" stroke="currentColor" stroke-width="2"/>
<path d="M1009.18 166.475L1071.62 166.475L1102.85 220.551L1071.62 274.628H1009.18L977.961 220.551L1009.18 166.475Z" stroke="currentColor" stroke-width="2"/>
<circle cx="691.436" cy="137.508" r="28" stroke="#FF4F00" stroke-width="8"/>
<circle cx="990.875" cy="193" r="28" stroke="#FF4F00" stroke-width="8"/>
<path d="M1680 202.753C1639.69 201.512 1554.46 199.03 1536 199.03C1512.92 199.03 1487.51 212.061 1472.83 212.061C1458.15 212.061 1453.22 202.21 1448.1 199.03C1442.97 195.849 1440.2 192.31 1434.65 202.185C1429.09 212.061 1426.53 211.69 1423.33 202.185C1420.12 192.681 1419.06 185.993 1415 194.089C1410.94 202.185 1411.37 204.982 1408.59 208.521C1405.82 212.061 1393.43 222.954 1398.34 208.521C1403.25 194.089 1401.76 198.313 1405.82 186.697C1409.87 175.081 1401.33 151.497 1395.99 164.873C1390.65 178.249 1387.24 192.329 1384.25 173.673C1381.26 155.017 1373.78 120.169 1366.52 139.177C1359.26 158.185 1357.55 180.701 1357.98 189.865C1358.41 199.03 1356.06 226.297 1371.01 226.913C1385.96 227.529 1381.04 214.857 1379.98 208.521C1378.91 202.185 1376.77 190.217 1375.49 184.233C1374.21 178.249 1371.01 168.745 1366.52 181.417C1362.04 194.089 1355.84 221.193 1348.8 220.489C1341.75 219.785 1339.4 201.481 1338.33 189.865C1337.26 178.249 1340.68 152.553 1342.6 163.113C1344.53 173.673 1345.81 214.681 1344.95 226.913C1344.1 239.145 1341.11 227.177 1340.26 222.249C1339.4 217.321 1336.62 167.337 1335.77 159.945C1334.92 152.553 1332.35 144.809 1331.71 150.793C1331.07 156.777 1329.15 165.929 1328.51 159.945C1327.87 153.961 1323.17 119.465 1321.89 109.961C1320.61 100.457 1313.35 79.689 1305.02 102.217C1296.69 124.745 1288.57 193.425 1289.86 212.061C1291.14 230.698 1294.98 245.305 1308.44 226.913C1321.89 208.521 1327.44 147.273 1327.23 139.177C1327.01 131.081 1325.52 123.337 1322.74 139.177C1319.97 155.017 1319.51 169.675 1317.19 191.625C1314.87 213.576 1315.27 245.482 1305.02 253.226C1301.39 229.289 1299.6 146.284 1299.68 134.249C1299.76 122.214 1299.15 77.929 1296 115.593C1292.85 153.257 1290.92 215.913 1287.72 234.57C1284.52 253.226 1284.3 254.634 1284.09 234.57C1283.88 214.505 1289.41 137.723 1288.81 123.006C1288.2 108.29 1287.44 117.269 1285.93 126.124C1284.42 134.979 1282.45 162.79 1281.16 170.398C1279.88 178.006 1278.14 186.486 1277.45 172.643C1276.77 158.8 1277.15 137.723 1276.85 127.745C1276.55 117.768 1271.33 103.55 1267.54 112.281C1263.76 121.011 1259.6 160.92 1260.96 235.625C1262.32 310.329 1280.56 231.509 1280.48 225.647C1280.41 219.786 1282.68 222.03 1279.12 204.57C1275.56 187.11 1273.98 211.055 1272.46 195.092C1271.58 183.119 1269.78 157.353 1269.66 150.069C1269.51 140.965 1263.76 93.2364 1260.96 134.249C1258.16 175.262 1261.79 206.067 1262.32 213.799C1262.85 221.532 1262.25 180.5 1258.31 158.675C1254.38 136.85 1254.45 145.756 1253.39 154.434C1252.33 163.113 1247.87 247.971 1244.39 265.432C1240.91 282.892 1230.92 283.64 1233.34 248.346C1235.76 213.051 1240.76 190.477 1244.39 177.507C1248.02 164.536 1253.47 148.199 1252.71 171.645C1251.96 195.092 1252.11 196.214 1251.96 201.203C1251.81 206.192 1249.91 216.397 1249.16 190.602C1248.41 164.807 1248.89 142.374 1248 134.249C1247.11 126.124 1245.83 111.532 1240.61 126.124C1235.39 140.716 1229.94 162.666 1227.06 193.471C1224.19 224.275 1223.36 240.738 1223.36 249.842C1223.36 258.946 1223.58 286.633 1234.71 258.697C1245.83 230.761 1246.06 181.709 1245.98 141.963C1245.9 102.217 1245.07 51.9926 1233.34 80.9768C1221.62 109.961 1217.04 124.178 1215.93 131.678C1214.81 139.177 1209.37 157.86 1204.92 163.113C1200.96 154.434 1201.46 149.677 1199.23 141.963C1197.01 134.249 1190.2 119.053 1180.68 141.963C1171.16 164.873 1153.85 172.584 1153.73 147.795C1153.6 123.006 1173.26 88.841 1182.17 102.217C1191.07 115.593 1186.49 133.38 1185.38 143.907C1184.27 154.434 1176.48 184.224 1179.32 213.799C1182.17 243.375 1183.28 271.706 1192.43 288.828C1201.58 305.949 1202.45 296.165 1202.45 283.324C1202.45 270.483 1194.66 194.043 1194.04 187.73C1193.42 181.417 1192.68 172.206 1190.7 182.838C1188.72 193.471 1182.29 227.691 1173.51 225.647C1164.73 223.603 1157.31 203.815 1155.09 187.73C1152.86 171.645 1150.51 150.069 1155.95 150.069C1161.39 150.069 1166.71 156.341 1171.04 176.316" stroke="black" stroke-width="2"/>
<path d="M1158.42 149.411C1159.66 149.818 1159.54 153.079 1159.41 155.321C1159.29 157.564 1161.76 154.506 1162.38 149.411C1163 144.315 1163.12 126.582 1159.41 137.996C1155.7 149.411 1157.43 170.608 1158.42 176.519C1159.41 182.43 1161.27 191.806 1164.73 182.227C1168.19 172.647 1171.28 154.536 1171.41 147.795C1171.53 141.054 1169.92 120.467 1168.19 130.251C1166.46 140.035 1166.46 208.724 1167.33 221.565C1168.02 231.838 1165.88 240.249 1164.73 243.171C1163.37 237.463 1162.68 215.449 1164.73 204.851C1166.78 194.253 1167.2 182.634 1169.31 180.596C1171.41 178.558 1171.28 175.704 1172.77 183.449C1174 186.982 1176.68 195.353 1177.47 200.571C1178.46 207.093 1183.77 212.597 1174.99 230.533C1172.36 235.697 1166.61 247.206 1164.73 251.935C1162.38 257.846 1156.44 271.706 1159.41 281.286C1162.38 290.866 1170.42 294.942 1180.19 292.496C1189.96 290.051 1200.22 279.655 1194.66 260.496C1189.09 241.336 1176.6 183.042 1176.6 173.054C1176.6 163.067 1174 149.411 1176.6 142.888C1179.2 136.366 1182.41 130.455 1185.5 127.805C1188.6 125.155 1190.95 123.117 1189.21 117.002C1187.48 110.887 1174.99 105.792 1174.99 95.6004C1174.99 85.4091 1181.92 73.7909 1192.92 68.4915C1203.93 63.192 1219.02 64.4153 1220.01 90.7087C1220.99 117.002 1214.94 165.105 1211.72 183.449C1208.5 201.794 1204.55 233.591 1203.06 239.705C1201.58 245.82 1198.36 260.292 1194.66 240.928C1190.95 221.565 1190.2 185.692 1190.95 174.277C1191.69 162.863 1196.14 128.62 1203.06 119.04C1209.99 109.461 1212.83 108.645 1213.57 120.263C1214.32 131.881 1213.2 158.99 1211.1 176.519C1209 194.048 1205.29 240.725 1198.12 237.26C1190.95 233.795 1188.6 204.24 1188.6 185.284C1188.6 166.328 1196.14 139.627 1199.6 131.881C1203.06 124.136 1217.28 96.6196 1223.96 92.3392C1230.64 88.0589 1236.95 91.9315 1238.93 88.2627C1240.9 84.5938 1245.73 75.014 1237.56 51.7778C1229.4 28.5416 1215.68 24.9395 1209.37 45.4592C1203.06 65.9789 1199.11 94.3776 1219.02 141.258C1238.93 188.138 1229.77 229.107 1229.4 233.183C1229.03 237.26 1222.11 271.299 1216.91 233.183C1211.72 195.068 1219.39 150.43 1223.96 137.996C1228.54 125.563 1234.35 111.499 1235.96 122.302C1237.56 133.105 1240.78 184.469 1237.56 194.66C1234.35 204.851 1227.92 193.845 1223.96 183.449C1220.01 173.054 1213.87 158.379 1214.56 145.13C1215.25 131.881 1225.45 79.2946 1224.7 62.3769C1223.96 45.4592 1222.48 20.3887 1209.37 40.1599C1196.26 59.931 1194.66 73.5875 1200.47 82.9633C1206.28 92.3392 1208.88 118.225 1200.47 135.754C1192.06 153.283 1186.12 167.785 1182.91 147.795C1179.69 127.805 1183.77 111.499 1189.21 111.907C1194.66 112.314 1204.05 132.697 1207.02 142.888C1209.99 153.08 1219.87 178.664 1217.03 214.741C1214.18 250.818 1194.83 249.843 1190.95 239.705C1187.06 229.568 1187.44 216.023 1185.5 214.741C1183.57 213.459 1176.11 228.087 1179.2 200.571C1182.29 173.054 1180.43 136.569 1176.6 127.805C1172.77 119.04 1172.15 114.76 1170.17 120.263C1168.19 125.767 1166.21 150.226 1168.19 162.252C1169.78 171.872 1170.17 175.772 1170.17 176.519" stroke="black" stroke-width="2"/>
<circle cx="1222.53" cy="44.8783" r="28" stroke="#FF4F00" stroke-width="8"/>
<circle cx="1360" cy="221" r="28" stroke="#FF4F00" stroke-width="8"/>
</svg>
