<svg width="1681" height="269" viewBox="0 0 1681 269" fill="none" xmlns="http://www.w3.org/2000/svg">
<rect x="133.262" y="3.41409" width="186.461" height="186.461" transform="rotate(45 133.262 3.41409)" stroke="#1B1918" stroke-width="2"/>
<rect x="394.737" y="3.41409" width="186.461" height="186.461" transform="rotate(45 394.737 3.41409)" stroke="#1B1918" stroke-width="2"/>
<path d="M608.376 24.3724L670.818 24.3724L702.039 78.4489L670.818 132.525H608.376L577.155 78.4489L608.376 24.3724Z" stroke="#1B1918" stroke-width="2"/>
<path d="M808.658 24.3724L871.1 24.3724L902.321 78.4489L871.1 132.525H808.658L777.437 78.4489L808.658 24.3724Z" stroke="#1B1918" stroke-width="2"/>
<path d="M708.284 80.3981L770.726 80.3981L801.947 134.475L770.726 188.551H708.284L677.063 134.475L708.284 80.3981Z" stroke="#1B1918" stroke-width="2"/>
<path d="M908.566 80.3981L971.008 80.3981L1002.23 134.475L971.008 188.551H908.566L877.345 134.475L908.566 80.3981Z" stroke="#1B1918" stroke-width="2"/>
<path d="M1009.18 135.475L1071.62 135.475L1102.85 189.551L1071.62 243.628H1009.18L977.961 189.551L1009.18 135.475Z" stroke="#1B1918" stroke-width="2"/>
<path d="M1680 171.753C1639.69 170.512 1554.46 168.03 1536 168.03C1512.92 168.03 1487.51 181.061 1472.83 181.061C1458.15 181.061 1453.22 171.21 1448.1 168.03C1442.97 164.849 1440.2 161.31 1434.65 171.185C1429.09 181.061 1426.53 180.69 1423.33 171.185C1420.12 161.681 1419.06 154.993 1415 163.089C1410.94 171.185 1411.37 173.982 1408.59 177.521C1405.82 181.061 1393.43 191.954 1398.34 177.521C1403.25 163.089 1401.76 167.313 1405.82 155.697C1409.87 144.081 1401.33 120.497 1395.99 133.873C1390.65 147.249 1387.24 161.329 1384.25 142.673C1381.26 124.017 1373.78 89.1692 1366.52 108.177C1359.26 127.185 1357.55 149.701 1357.98 158.865C1358.41 168.03 1356.06 195.297 1371.01 195.913C1385.96 196.529 1381.04 183.857 1379.98 177.521C1378.91 171.185 1376.77 159.217 1375.49 153.233C1374.21 147.249 1371.01 137.745 1366.52 150.417C1362.04 163.089 1355.84 190.193 1348.8 189.489C1341.75 188.785 1339.4 170.481 1338.33 158.865C1337.26 147.249 1340.68 121.553 1342.6 132.113C1344.53 142.673 1345.81 183.681 1344.95 195.913C1344.1 208.145 1341.11 196.177 1340.26 191.249C1339.4 186.321 1336.62 136.337 1335.77 128.945C1334.92 121.553 1332.35 113.809 1331.71 119.793C1331.07 125.777 1329.15 134.929 1328.51 128.945C1327.87 122.961 1323.17 88.4651 1321.89 78.9611C1320.61 69.4571 1313.35 48.689 1305.02 71.2171C1296.69 93.7451 1288.57 162.425 1289.86 181.061C1291.14 199.698 1294.98 214.305 1308.44 195.913C1321.89 177.521 1327.44 116.273 1327.23 108.177C1327.01 100.081 1325.52 92.3373 1322.74 108.177C1319.97 124.017 1319.51 138.675 1317.19 160.625C1314.87 182.576 1315.27 214.482 1305.02 222.226C1301.39 198.289 1299.6 115.284 1299.68 103.249C1299.76 91.2144 1299.15 46.929 1296 84.5931C1292.85 122.257 1290.92 184.913 1287.72 203.57C1284.52 222.226 1284.3 223.634 1284.09 203.57C1283.88 183.505 1289.41 106.723 1288.81 92.0061C1288.2 77.2896 1287.44 86.2692 1285.93 95.124C1284.42 103.979 1282.45 131.79 1281.16 139.398C1279.88 147.006 1278.14 155.486 1277.45 141.643C1276.77 127.8 1277.15 106.723 1276.85 96.7453C1276.55 86.768 1271.33 72.5504 1267.54 81.2805C1263.76 90.0106 1259.6 129.92 1260.96 204.625C1262.32 279.329 1280.56 200.509 1280.48 194.647C1280.41 188.786 1282.68 191.03 1279.12 173.57C1275.56 156.11 1273.98 180.055 1272.46 164.092C1271.58 152.119 1269.78 126.353 1269.66 119.069C1269.51 109.965 1263.76 62.2364 1260.96 103.249C1258.16 144.262 1261.79 175.067 1262.32 182.799C1262.85 190.532 1262.25 149.5 1258.31 127.675C1254.38 105.85 1254.45 114.756 1253.39 123.434C1252.33 132.113 1247.87 216.971 1244.39 234.432C1240.91 251.892 1230.92 252.64 1233.34 217.346C1235.76 182.051 1240.76 159.477 1244.39 146.507C1248.02 133.536 1253.47 117.199 1252.71 140.645C1251.96 164.092 1252.11 165.214 1251.96 170.203C1251.81 175.192 1249.91 185.397 1249.16 159.602C1248.41 133.807 1248.89 111.374 1248 103.249C1247.11 95.124 1245.83 80.5322 1240.61 95.124C1235.39 109.716 1229.94 131.666 1227.06 162.471C1224.19 193.275 1223.36 209.738 1223.36 218.842C1223.36 227.946 1223.58 255.633 1234.71 227.697C1245.83 199.761 1246.06 150.709 1245.98 110.963C1245.9 71.2171 1245.07 20.9926 1233.34 49.9768C1221.62 78.9611 1217.04 93.1783 1215.93 100.678C1214.81 108.177 1209.37 126.86 1204.92 132.113C1200.96 123.434 1201.46 118.677 1199.23 110.963C1197.01 103.249 1190.2 88.0525 1180.68 110.963C1171.16 133.873 1153.85 141.584 1153.73 116.795C1153.6 92.0061 1173.26 57.841 1182.17 71.2171C1191.07 84.5931 1186.49 102.38 1185.38 112.907C1184.27 123.434 1176.48 153.224 1179.32 182.799C1182.17 212.375 1183.28 240.706 1192.43 257.828C1201.58 274.949 1202.45 265.165 1202.45 252.324C1202.45 239.483 1194.66 163.043 1194.04 156.73C1193.42 150.417 1192.68 141.206 1190.7 151.838C1188.72 162.471 1182.29 196.691 1173.51 194.647C1164.73 192.603 1157.31 172.815 1155.09 156.73C1152.86 140.645 1150.51 119.069 1155.95 119.069C1161.39 119.069 1166.71 125.341 1171.04 145.316" stroke="#1B1918" stroke-width="2"/>
<path d="M1158.42 118.411C1159.66 118.818 1159.54 122.079 1159.41 124.321C1159.29 126.564 1161.76 123.506 1162.38 118.411C1163 113.315 1163.12 95.582 1159.41 106.996C1155.7 118.411 1157.43 139.608 1158.42 145.519C1159.41 151.43 1161.27 160.806 1164.73 151.227C1168.19 141.647 1171.28 123.536 1171.41 116.795C1171.53 110.054 1169.92 89.4673 1168.19 99.2509C1166.46 109.035 1166.46 177.724 1167.33 190.565C1168.02 200.838 1165.88 209.249 1164.73 212.171C1163.37 206.463 1162.68 184.449 1164.73 173.851C1166.78 163.253 1167.2 151.634 1169.31 149.596C1171.41 147.558 1171.28 144.704 1172.77 152.449C1174.01 155.982 1176.68 164.353 1177.47 169.571C1178.46 176.093 1183.77 181.597 1174.99 199.533C1172.36 204.697 1166.61 216.206 1164.73 220.935C1162.38 226.846 1156.44 240.706 1159.41 250.286C1162.38 259.866 1170.42 263.942 1180.19 261.496C1189.96 259.051 1200.22 248.655 1194.66 229.496C1189.09 210.336 1176.6 152.042 1176.6 142.054C1176.6 132.067 1174.01 118.411 1176.6 111.888C1179.2 105.366 1182.41 99.4547 1185.51 96.8049C1188.6 94.1552 1190.95 92.1169 1189.22 86.0022C1187.48 79.8874 1174.99 74.7917 1174.99 64.6004C1174.99 54.4091 1181.92 42.7909 1192.92 37.4915C1203.93 32.192 1219.02 33.4153 1220.01 59.7087C1221 86.0022 1214.94 134.105 1211.72 152.449C1208.51 170.794 1204.55 202.591 1203.06 208.705C1201.58 214.82 1198.37 229.292 1194.66 209.928C1190.95 190.565 1190.2 154.692 1190.95 143.277C1191.69 131.863 1196.14 97.6203 1203.06 88.0404C1209.99 78.4606 1212.83 77.6453 1213.58 89.2634C1214.32 100.881 1213.2 127.99 1211.1 145.519C1209 163.048 1205.29 209.725 1198.12 206.26C1190.95 202.795 1188.6 173.24 1188.6 154.284C1188.6 135.328 1196.14 108.627 1199.6 100.881C1203.06 93.1361 1217.29 65.6196 1223.96 61.3392C1230.64 57.0589 1236.95 60.9315 1238.93 57.2627C1240.9 53.5938 1245.73 44.014 1237.57 20.7778C1229.4 -2.45837 1215.68 -6.06048 1209.37 14.4592C1203.06 34.9789 1199.11 63.3776 1219.02 110.258C1238.93 157.138 1229.78 198.107 1229.4 202.183C1229.03 206.26 1222.11 240.299 1216.91 202.183C1211.72 164.068 1219.39 119.43 1223.96 106.996C1228.54 94.563 1234.35 80.499 1235.96 91.3018C1237.57 102.105 1240.78 153.469 1237.57 163.66C1234.35 173.851 1227.92 162.845 1223.96 152.449C1220.01 142.054 1213.88 127.379 1214.57 114.13C1215.26 100.881 1225.45 48.2946 1224.71 31.3769C1223.96 14.4592 1222.48 -10.6113 1209.37 9.15987C1196.26 28.931 1194.66 42.5875 1200.47 51.9633C1206.28 61.3392 1208.88 87.2253 1200.47 104.754C1192.06 122.283 1186.12 136.785 1182.91 116.795C1179.69 96.8049 1183.77 80.499 1189.22 80.9067C1194.66 81.3143 1204.05 101.697 1207.02 111.888C1209.99 122.08 1219.87 147.664 1217.03 183.741C1214.18 219.818 1194.83 218.843 1190.95 208.705C1187.06 198.568 1187.44 185.023 1185.51 183.741C1183.57 182.459 1176.11 197.087 1179.2 169.571C1182.29 142.054 1180.44 105.569 1176.6 96.8049C1172.77 88.0404 1172.15 83.7599 1170.17 89.2634C1168.19 94.7668 1166.21 119.226 1168.19 131.252C1169.78 140.872 1170.17 144.772 1170.17 145.519" stroke="#1B1918" stroke-width="2"/>
</svg>
