<svg width="763" height="728" viewBox="0 0 763 728" fill="none" xmlns="http://www.w3.org/2000/svg">
<g clip-path="url(#clip0_360_907)">
<path fill-rule="evenodd" clip-rule="evenodd" d="M38.6885 168.102H32.6885V253.102H117.688V247.102H38.6885V168.102ZM112.188 168.102L101.035 171.09L103.703 173.758L85.1882 192.273L72.1349 179.22L44.7227 208.741L47.6538 211.462L72.2416 184.983L85.1882 197.93L106.531 176.587L109.2 179.255L112.188 168.102ZM80.8167 215.392C80.8167 218.051 78.9723 220.28 76.4929 220.868C83.5681 222.687 83.5681 239.269 83.5681 239.269H66.8088C66.8088 239.269 66.8088 222.687 73.884 220.868C71.4046 220.28 69.5602 218.051 69.5602 215.392C69.5602 212.284 72.08 209.764 75.1885 209.764C78.2969 209.764 80.8167 212.284 80.8167 215.392Z" fill="currentColor"/>
<path d="M10.1086 281.482H18.8206L14.5366 269.494H14.4646L10.1086 281.482ZM12.6646 266.398H16.4446L26.4886 292.102H22.7086L19.9006 284.362H9.02864L6.14864 292.102H2.65663L12.6646 266.398ZM43.1724 292.102H40.2924V289.15H40.2204C39.5724 290.302 38.7444 291.154 37.7364 291.706C36.7284 292.234 35.5404 292.498 34.1724 292.498C32.9484 292.498 31.9284 292.342 31.1124 292.03C30.2964 291.694 29.6364 291.226 29.1324 290.626C28.6284 290.026 28.2684 289.318 28.0524 288.502C27.8604 287.662 27.7644 286.738 27.7644 285.73V273.49H30.8244V286.09C30.8244 287.242 31.1604 288.154 31.8324 288.826C32.5044 289.498 33.4284 289.834 34.6044 289.834C35.5404 289.834 36.3444 289.69 37.0164 289.402C37.7124 289.114 38.2884 288.706 38.7444 288.178C39.2004 287.65 39.5364 287.038 39.7524 286.342C39.9924 285.622 40.1124 284.842 40.1124 284.002V273.49H43.1724V292.102ZM49.2443 282.958C49.2443 283.822 49.3523 284.674 49.5683 285.514C49.8083 286.33 50.1563 287.062 50.6123 287.71C51.0923 288.358 51.6923 288.874 52.4123 289.258C53.1563 289.642 54.0203 289.834 55.0043 289.834C56.0363 289.834 56.9123 289.63 57.6323 289.222C58.3523 288.814 58.9403 288.286 59.3963 287.638C59.8523 286.966 60.1763 286.21 60.3683 285.37C60.5843 284.53 60.6923 283.678 60.6923 282.814C60.6923 281.902 60.5843 281.026 60.3683 280.186C60.1523 279.322 59.8043 278.566 59.3243 277.918C58.8683 277.27 58.2683 276.754 57.5243 276.37C56.7803 275.962 55.8803 275.758 54.8243 275.758C53.7923 275.758 52.9163 275.962 52.1963 276.37C51.4763 276.778 50.9003 277.318 50.4683 277.99C50.0363 278.662 49.7243 279.43 49.5323 280.294C49.3403 281.158 49.2443 282.046 49.2443 282.958ZM63.6443 292.102H60.5843V289.582H60.5123C60.0083 290.614 59.2163 291.358 58.1363 291.814C57.0563 292.27 55.8683 292.498 54.5723 292.498C53.1323 292.498 51.8723 292.234 50.7923 291.706C49.7363 291.178 48.8483 290.47 48.1283 289.582C47.4323 288.694 46.9043 287.662 46.5443 286.486C46.1843 285.31 46.0043 284.062 46.0043 282.742C46.0043 281.422 46.1723 280.174 46.5083 278.998C46.8683 277.822 47.3963 276.802 48.0923 275.938C48.8123 275.05 49.7003 274.354 50.7563 273.85C51.8363 273.322 53.0843 273.058 54.5003 273.058C54.9803 273.058 55.4963 273.106 56.0483 273.202C56.6003 273.298 57.1523 273.466 57.7043 273.706C58.2563 273.922 58.7723 274.222 59.2523 274.606C59.7563 274.966 60.1763 275.422 60.5123 275.974H60.5843V266.398H63.6443V292.102ZM70.8361 270.142H67.7761V266.398H70.8361V270.142ZM67.7761 273.49H70.8361V292.102H67.7761V273.49ZM87.7446 281.014C87.6966 280.294 87.5286 279.61 87.2406 278.962C86.9766 278.314 86.6046 277.762 86.1246 277.306C85.6686 276.826 85.1166 276.454 84.4686 276.19C83.8446 275.902 83.1486 275.758 82.3806 275.758C81.5886 275.758 80.8686 275.902 80.2206 276.19C79.5966 276.454 79.0566 276.826 78.6006 277.306C78.1446 277.786 77.7846 278.35 77.5206 278.998C77.2566 279.622 77.1006 280.294 77.0526 281.014H87.7446ZM90.6966 286.198C90.2886 288.286 89.3886 289.858 87.9966 290.914C86.6046 291.97 84.8526 292.498 82.7406 292.498C81.2526 292.498 79.9566 292.258 78.8526 291.778C77.7726 291.298 76.8606 290.626 76.1166 289.762C75.3726 288.898 74.8086 287.866 74.4246 286.666C74.0646 285.466 73.8606 284.158 73.8126 282.742C73.8126 281.326 74.0286 280.03 74.4606 278.854C74.8926 277.678 75.4926 276.658 76.2606 275.794C77.0526 274.93 77.9766 274.258 79.0326 273.778C80.1126 273.298 81.2886 273.058 82.5606 273.058C84.2166 273.058 85.5846 273.406 86.6646 274.102C87.7686 274.774 88.6446 275.638 89.2926 276.694C89.9646 277.75 90.4206 278.902 90.6606 280.15C90.9246 281.398 91.0326 282.586 90.9846 283.714H77.0526C77.0286 284.53 77.1246 285.31 77.3406 286.054C77.5566 286.774 77.9046 287.422 78.3846 287.998C78.8646 288.55 79.4766 288.994 80.2206 289.33C80.9646 289.666 81.8406 289.834 82.8486 289.834C84.1446 289.834 85.2006 289.534 86.0166 288.934C86.8566 288.334 87.4086 287.422 87.6726 286.198H90.6966ZM93.4005 273.49H96.2805V276.442H96.3525C97.6245 274.186 99.6405 273.058 102.401 273.058C103.625 273.058 104.645 273.226 105.461 273.562C106.277 273.898 106.937 274.366 107.441 274.966C107.945 275.566 108.293 276.286 108.485 277.126C108.701 277.942 108.809 278.854 108.809 279.862V292.102H105.749V279.502C105.749 278.35 105.413 277.438 104.741 276.766C104.069 276.094 103.145 275.758 101.969 275.758C101.033 275.758 100.217 275.902 99.5205 276.19C98.8485 276.478 98.2845 276.886 97.8285 277.414C97.3725 277.942 97.0245 278.566 96.7845 279.286C96.5685 279.982 96.4605 280.75 96.4605 281.59V292.102H93.4005V273.49ZM125.284 279.466C125.044 278.29 124.54 277.378 123.772 276.73C123.004 276.082 121.972 275.758 120.676 275.758C119.572 275.758 118.648 275.962 117.904 276.37C117.16 276.778 116.56 277.318 116.104 277.99C115.672 278.662 115.36 279.442 115.168 280.33C114.976 281.194 114.88 282.094 114.88 283.03C114.88 283.894 114.976 284.734 115.168 285.55C115.384 286.366 115.708 287.098 116.14 287.746C116.572 288.37 117.136 288.874 117.832 289.258C118.528 289.642 119.356 289.834 120.316 289.834C121.828 289.834 123.004 289.438 123.844 288.646C124.708 287.854 125.236 286.738 125.428 285.298H128.56C128.224 287.602 127.36 289.378 125.968 290.626C124.6 291.874 122.728 292.498 120.352 292.498C118.936 292.498 117.676 292.27 116.572 291.814C115.492 291.358 114.58 290.71 113.836 289.87C113.116 289.03 112.564 288.034 112.18 286.882C111.82 285.706 111.64 284.422 111.64 283.03C111.64 281.638 111.82 280.342 112.18 279.142C112.54 277.918 113.08 276.862 113.8 275.974C114.544 275.062 115.468 274.354 116.572 273.85C117.676 273.322 118.96 273.058 120.424 273.058C121.48 273.058 122.464 273.19 123.376 273.454C124.312 273.694 125.128 274.078 125.824 274.606C126.544 275.134 127.132 275.806 127.588 276.622C128.044 277.414 128.332 278.362 128.452 279.466H125.284ZM144.152 281.014C144.104 280.294 143.936 279.61 143.648 278.962C143.384 278.314 143.012 277.762 142.532 277.306C142.076 276.826 141.524 276.454 140.876 276.19C140.252 275.902 139.556 275.758 138.788 275.758C137.996 275.758 137.276 275.902 136.628 276.19C136.004 276.454 135.464 276.826 135.008 277.306C134.552 277.786 134.192 278.35 133.928 278.998C133.664 279.622 133.508 280.294 133.46 281.014H144.152ZM147.104 286.198C146.696 288.286 145.796 289.858 144.404 290.914C143.012 291.97 141.26 292.498 139.148 292.498C137.66 292.498 136.364 292.258 135.26 291.778C134.18 291.298 133.268 290.626 132.524 289.762C131.78 288.898 131.216 287.866 130.832 286.666C130.472 285.466 130.268 284.158 130.22 282.742C130.22 281.326 130.436 280.03 130.868 278.854C131.3 277.678 131.9 276.658 132.668 275.794C133.46 274.93 134.384 274.258 135.44 273.778C136.52 273.298 137.696 273.058 138.968 273.058C140.624 273.058 141.992 273.406 143.072 274.102C144.176 274.774 145.052 275.638 145.7 276.694C146.372 277.75 146.828 278.902 147.068 280.15C147.332 281.398 147.44 282.586 147.392 283.714H133.46C133.436 284.53 133.532 285.31 133.748 286.054C133.964 286.774 134.312 287.422 134.792 287.998C135.272 288.55 135.884 288.994 136.628 289.33C137.372 289.666 138.248 289.834 139.256 289.834C140.552 289.834 141.608 289.534 142.424 288.934C143.264 288.334 143.816 287.422 144.08 286.198H147.104ZM40.1183 324.898C39.1103 326.242 37.8623 327.214 36.3743 327.814C34.8863 328.39 33.3863 328.678 31.8743 328.678C29.9543 328.678 28.2383 328.33 26.7263 327.634C25.2143 326.914 23.9303 325.954 22.8743 324.754C21.8183 323.554 21.0143 322.174 20.4623 320.614C19.9103 319.054 19.6343 317.434 19.6343 315.754C19.6343 313.882 19.8863 312.106 20.3903 310.426C20.9183 308.722 21.6863 307.234 22.6943 305.962C23.7263 304.69 24.9983 303.682 26.5103 302.938C28.0463 302.17 29.8343 301.786 31.8743 301.786C33.2663 301.786 34.5743 301.954 35.7983 302.29C37.0463 302.602 38.1503 303.106 39.1103 303.802C40.0943 304.498 40.9103 305.386 41.5583 306.466C42.2303 307.522 42.6863 308.806 42.9263 310.318H39.5063C39.3383 309.334 39.0263 308.494 38.5703 307.798C38.1143 307.078 37.5503 306.49 36.8783 306.034C36.2063 305.578 35.4383 305.242 34.5743 305.026C33.7343 304.786 32.8343 304.666 31.8743 304.666C30.3143 304.666 28.9703 304.978 27.8423 305.602C26.7383 306.226 25.8263 307.054 25.1063 308.086C24.4103 309.094 23.8943 310.258 23.5583 311.578C23.2223 312.874 23.0543 314.206 23.0543 315.574C23.0543 316.918 23.2463 318.214 23.6303 319.462C24.0143 320.686 24.5783 321.778 25.3223 322.738C26.0663 323.674 26.9783 324.43 28.0583 325.006C29.1623 325.558 30.4343 325.834 31.8743 325.834C33.2183 325.834 34.4063 325.618 35.4383 325.186C36.4703 324.754 37.3343 324.166 38.0303 323.422C38.7503 322.654 39.2903 321.766 39.6503 320.758C40.0103 319.726 40.1663 318.622 40.1183 317.446H31.9103V314.566H43.1783V328.102H41.0183L40.1183 324.898ZM46.8427 309.49H49.7227V313.414H49.7947C50.5387 311.902 51.4507 310.786 52.5307 310.066C53.6107 309.346 54.9787 309.01 56.6347 309.058V312.298C55.4107 312.298 54.3667 312.466 53.5027 312.802C52.6387 313.138 51.9427 313.63 51.4147 314.278C50.8867 314.926 50.5027 315.718 50.2627 316.654C50.0227 317.566 49.9027 318.622 49.9027 319.822V328.102H46.8427V309.49ZM59.7822 318.814C59.7822 319.942 59.9262 320.95 60.2142 321.838C60.5262 322.702 60.9462 323.434 61.4742 324.034C62.0022 324.61 62.6142 325.054 63.3102 325.366C64.0302 325.678 64.7862 325.834 65.5782 325.834C66.3702 325.834 67.1142 325.678 67.8102 325.366C68.5302 325.054 69.1542 324.61 69.6822 324.034C70.2102 323.434 70.6182 322.702 70.9062 321.838C71.2182 320.95 71.3742 319.942 71.3742 318.814C71.3742 317.686 71.2182 316.69 70.9062 315.826C70.6182 314.938 70.2102 314.194 69.6822 313.594C69.1542 312.994 68.5302 312.538 67.8102 312.226C67.1142 311.914 66.3702 311.758 65.5782 311.758C64.7862 311.758 64.0302 311.914 63.3102 312.226C62.6142 312.538 62.0022 312.994 61.4742 313.594C60.9462 314.194 60.5262 314.938 60.2142 315.826C59.9262 316.69 59.7822 317.686 59.7822 318.814ZM56.5422 318.814C56.5422 317.446 56.7342 316.174 57.1182 314.998C57.5022 313.798 58.0782 312.766 58.8462 311.902C59.6142 311.014 60.5622 310.318 61.6902 309.814C62.8182 309.31 64.1142 309.058 65.5782 309.058C67.0662 309.058 68.3622 309.31 69.4662 309.814C70.5942 310.318 71.5422 311.014 72.3102 311.902C73.0782 312.766 73.6542 313.798 74.0382 314.998C74.4222 316.174 74.6142 317.446 74.6142 318.814C74.6142 320.182 74.4222 321.454 74.0382 322.63C73.6542 323.806 73.0782 324.838 72.3102 325.726C71.5422 326.59 70.5942 327.274 69.4662 327.778C68.3622 328.258 67.0662 328.498 65.5782 328.498C64.1142 328.498 62.8182 328.258 61.6902 327.778C60.5622 327.274 59.6142 326.59 58.8462 325.726C58.0782 324.838 57.5022 323.806 57.1182 322.63C56.7342 321.454 56.5422 320.182 56.5422 318.814ZM95.898 328.102H92.658L88.878 313.306H88.806L85.062 328.102H81.75L75.774 309.49H79.158L83.37 324.718H83.442L87.186 309.49H90.534L94.422 324.718H94.494L98.67 309.49H101.838L95.898 328.102ZM108.239 309.49H111.947V312.19H108.239V323.746C108.239 324.106 108.263 324.394 108.311 324.61C108.383 324.826 108.503 324.994 108.671 325.114C108.839 325.234 109.067 325.318 109.355 325.366C109.667 325.39 110.063 325.402 110.543 325.402H111.947V328.102H109.607C108.815 328.102 108.131 328.054 107.555 327.958C107.003 327.838 106.547 327.634 106.187 327.346C105.851 327.058 105.599 326.65 105.431 326.122C105.263 325.594 105.179 324.898 105.179 324.034V312.19H102.011V309.49H105.179V303.91H108.239V309.49ZM114.591 302.398H117.651V312.226H117.723C117.963 311.65 118.299 311.17 118.731 310.786C119.163 310.378 119.643 310.054 120.171 309.814C120.723 309.55 121.287 309.358 121.863 309.238C122.463 309.118 123.039 309.058 123.591 309.058C124.815 309.058 125.835 309.226 126.651 309.562C127.467 309.898 128.127 310.366 128.631 310.966C129.135 311.566 129.483 312.286 129.675 313.126C129.891 313.942 129.999 314.854 129.999 315.862V328.102H126.939V315.502C126.939 314.35 126.603 313.438 125.931 312.766C125.259 312.094 124.335 311.758 123.159 311.758C122.223 311.758 121.407 311.902 120.711 312.19C120.039 312.478 119.475 312.886 119.019 313.414C118.563 313.942 118.215 314.566 117.975 315.286C117.759 315.982 117.651 316.75 117.651 317.59V328.102H114.591V302.398Z" fill="currentColor"/>
<path fill-rule="evenodd" clip-rule="evenodd" d="M608.229 575.395H537.229H521.229V591.395V603.395V619.395H537.229H608.229H624.229V603.395V591.395V575.395H608.229ZM536.725 579.395C535.278 585.017 530.851 589.443 525.229 590.89V603.899C530.851 605.346 535.278 609.772 536.725 615.395H566.401C561.563 612.153 558.229 605.311 558.229 597.395C558.229 589.478 561.563 582.636 566.401 579.395H536.725ZM579.057 579.395C583.894 582.636 587.229 589.478 587.229 597.395C587.229 605.311 583.894 612.153 579.057 615.395H608.733C610.18 609.772 614.606 605.346 620.229 603.899V590.89C614.606 589.443 610.18 585.017 608.733 579.395H579.057ZM549.229 597.395C549.229 600.708 546.542 603.395 543.229 603.395C539.915 603.395 537.229 600.708 537.229 597.395C537.229 594.081 539.915 591.395 543.229 591.395C546.542 591.395 549.229 594.081 549.229 597.395ZM601.229 603.395C604.542 603.395 607.229 600.708 607.229 597.395C607.229 594.081 604.542 591.395 601.229 591.395C597.915 591.395 595.229 594.081 595.229 597.395C595.229 600.708 597.915 603.395 601.229 603.395Z" fill="currentColor"/>
<path d="M539.045 632.691H542.465V643.743H556.001V632.691H559.421V658.395H556.001V646.623H542.465V658.395H539.045V632.691ZM565.997 649.107C565.997 650.235 566.141 651.243 566.429 652.131C566.741 652.995 567.161 653.727 567.689 654.327C568.217 654.903 568.829 655.347 569.525 655.659C570.245 655.971 571.001 656.127 571.793 656.127C572.585 656.127 573.329 655.971 574.025 655.659C574.745 655.347 575.369 654.903 575.897 654.327C576.425 653.727 576.833 652.995 577.121 652.131C577.433 651.243 577.589 650.235 577.589 649.107C577.589 647.979 577.433 646.983 577.121 646.119C576.833 645.231 576.425 644.487 575.897 643.887C575.369 643.287 574.745 642.831 574.025 642.519C573.329 642.207 572.585 642.051 571.793 642.051C571.001 642.051 570.245 642.207 569.525 642.519C568.829 642.831 568.217 643.287 567.689 643.887C567.161 644.487 566.741 645.231 566.429 646.119C566.141 646.983 565.997 647.979 565.997 649.107ZM562.757 649.107C562.757 647.739 562.949 646.467 563.333 645.291C563.717 644.091 564.293 643.059 565.061 642.195C565.829 641.307 566.777 640.611 567.905 640.107C569.033 639.603 570.329 639.351 571.793 639.351C573.281 639.351 574.577 639.603 575.681 640.107C576.809 640.611 577.757 641.307 578.525 642.195C579.293 643.059 579.869 644.091 580.253 645.291C580.637 646.467 580.829 647.739 580.829 649.107C580.829 650.475 580.637 651.747 580.253 652.923C579.869 654.099 579.293 655.131 578.525 656.019C577.757 656.883 576.809 657.567 575.681 658.071C574.577 658.551 573.281 658.791 571.793 658.791C570.329 658.791 569.033 658.551 567.905 658.071C566.777 657.567 565.829 656.883 565.061 656.019C564.293 655.131 563.717 654.099 563.333 652.923C562.949 651.747 562.757 650.475 562.757 649.107ZM585.553 652.527C585.577 653.199 585.733 653.775 586.021 654.255C586.309 654.711 586.681 655.083 587.137 655.371C587.617 655.635 588.145 655.827 588.721 655.947C589.321 656.067 589.933 656.127 590.557 656.127C591.037 656.127 591.541 656.091 592.069 656.019C592.597 655.947 593.077 655.815 593.509 655.623C593.965 655.431 594.337 655.155 594.625 654.795C594.913 654.411 595.057 653.931 595.057 653.355C595.057 652.563 594.757 651.963 594.157 651.555C593.557 651.147 592.801 650.823 591.889 650.583C591.001 650.319 590.029 650.091 588.973 649.899C587.917 649.683 586.933 649.395 586.021 649.035C585.133 648.651 584.389 648.123 583.789 647.451C583.189 646.779 582.889 645.843 582.889 644.643C582.889 643.707 583.093 642.903 583.501 642.231C583.933 641.559 584.473 641.019 585.121 640.611C585.793 640.179 586.537 639.867 587.353 639.675C588.193 639.459 589.021 639.351 589.837 639.351C590.893 639.351 591.865 639.447 592.753 639.639C593.641 639.807 594.421 640.119 595.093 640.575C595.789 641.007 596.341 641.607 596.749 642.375C597.157 643.119 597.397 644.055 597.469 645.183H594.409C594.361 644.583 594.205 644.091 593.941 643.707C593.677 643.299 593.341 642.975 592.933 642.735C592.525 642.495 592.069 642.327 591.565 642.231C591.085 642.111 590.593 642.051 590.089 642.051C589.633 642.051 589.165 642.087 588.685 642.159C588.229 642.231 587.809 642.363 587.425 642.555C587.041 642.723 586.729 642.963 586.489 643.275C586.249 643.563 586.129 643.947 586.129 644.427C586.129 644.955 586.309 645.399 586.669 645.759C587.053 646.095 587.533 646.383 588.109 646.623C588.685 646.839 589.333 647.031 590.053 647.199C590.773 647.343 591.493 647.499 592.213 647.667C592.981 647.835 593.725 648.039 594.445 648.279C595.189 648.519 595.837 648.843 596.389 649.251C596.965 649.635 597.421 650.127 597.757 650.727C598.117 651.327 598.297 652.071 598.297 652.959C598.297 654.087 598.057 655.023 597.577 655.767C597.121 656.511 596.509 657.111 595.741 657.567C594.997 658.023 594.145 658.335 593.185 658.503C592.249 658.695 591.313 658.791 590.377 658.791C589.345 658.791 588.361 658.683 587.425 658.467C586.489 658.251 585.661 657.903 584.941 657.423C584.221 656.919 583.645 656.271 583.213 655.479C582.781 654.663 582.541 653.679 582.493 652.527H585.553ZM605.173 639.783H608.881V642.483H605.173V654.039C605.173 654.399 605.197 654.687 605.245 654.903C605.317 655.119 605.437 655.287 605.605 655.407C605.773 655.527 606.001 655.611 606.289 655.659C606.601 655.683 606.997 655.695 607.477 655.695H608.881V658.395H606.541C605.749 658.395 605.065 658.347 604.489 658.251C603.937 658.131 603.481 657.927 603.121 657.639C602.785 657.351 602.533 656.943 602.365 656.415C602.197 655.887 602.113 655.191 602.113 654.327V642.483H598.945V639.783H602.113V634.203H605.173V639.783ZM497.749 668.691H501.169V694.395H497.749V668.691ZM505.661 675.783H508.541V678.735H508.613C509.885 676.479 511.901 675.351 514.661 675.351C515.885 675.351 516.905 675.519 517.721 675.855C518.537 676.191 519.197 676.659 519.701 677.259C520.205 677.859 520.553 678.579 520.745 679.419C520.961 680.235 521.069 681.147 521.069 682.155V694.395H518.009V681.795C518.009 680.643 517.673 679.731 517.001 679.059C516.329 678.387 515.405 678.051 514.229 678.051C513.293 678.051 512.477 678.195 511.781 678.483C511.109 678.771 510.545 679.179 510.089 679.707C509.633 680.235 509.285 680.859 509.045 681.579C508.829 682.275 508.721 683.043 508.721 683.883V694.395H505.661V675.783ZM537.545 681.759C537.305 680.583 536.801 679.671 536.033 679.023C535.265 678.375 534.233 678.051 532.937 678.051C531.833 678.051 530.909 678.255 530.165 678.663C529.421 679.071 528.821 679.611 528.365 680.283C527.933 680.955 527.621 681.735 527.429 682.623C527.237 683.487 527.141 684.387 527.141 685.323C527.141 686.187 527.237 687.027 527.429 687.843C527.645 688.659 527.969 689.391 528.401 690.039C528.833 690.663 529.397 691.167 530.093 691.551C530.789 691.935 531.617 692.127 532.577 692.127C534.089 692.127 535.265 691.731 536.105 690.939C536.969 690.147 537.497 689.031 537.689 687.591H540.821C540.485 689.895 539.621 691.671 538.229 692.919C536.861 694.167 534.989 694.791 532.613 694.791C531.197 694.791 529.937 694.563 528.833 694.107C527.753 693.651 526.841 693.003 526.097 692.163C525.377 691.323 524.825 690.327 524.441 689.175C524.081 687.999 523.901 686.715 523.901 685.323C523.901 683.931 524.081 682.635 524.441 681.435C524.801 680.211 525.341 679.155 526.061 678.267C526.805 677.355 527.729 676.647 528.833 676.143C529.937 675.615 531.221 675.351 532.685 675.351C533.741 675.351 534.725 675.483 535.637 675.747C536.573 675.987 537.389 676.371 538.085 676.899C538.805 677.427 539.393 678.099 539.849 678.915C540.305 679.707 540.593 680.655 540.713 681.759H537.545ZM556.413 683.307C556.365 682.587 556.197 681.903 555.909 681.255C555.645 680.607 555.273 680.055 554.793 679.599C554.337 679.119 553.785 678.747 553.137 678.483C552.513 678.195 551.817 678.051 551.049 678.051C550.257 678.051 549.537 678.195 548.889 678.483C548.265 678.747 547.725 679.119 547.269 679.599C546.813 680.079 546.453 680.643 546.189 681.291C545.925 681.915 545.769 682.587 545.721 683.307H556.413ZM559.365 688.491C558.957 690.579 558.057 692.151 556.665 693.207C555.273 694.263 553.521 694.791 551.409 694.791C549.921 694.791 548.625 694.551 547.521 694.071C546.441 693.591 545.529 692.919 544.785 692.055C544.041 691.191 543.477 690.159 543.093 688.959C542.733 687.759 542.529 686.451 542.481 685.035C542.481 683.619 542.697 682.323 543.129 681.147C543.561 679.971 544.161 678.951 544.929 678.087C545.721 677.223 546.645 676.551 547.701 676.071C548.781 675.591 549.957 675.351 551.229 675.351C552.885 675.351 554.253 675.699 555.333 676.395C556.437 677.067 557.313 677.931 557.961 678.987C558.633 680.043 559.089 681.195 559.329 682.443C559.593 683.691 559.701 684.879 559.653 686.007H545.721C545.697 686.823 545.793 687.603 546.009 688.347C546.225 689.067 546.573 689.715 547.053 690.291C547.533 690.843 548.145 691.287 548.889 691.623C549.633 691.959 550.509 692.127 551.517 692.127C552.813 692.127 553.869 691.827 554.685 691.227C555.525 690.627 556.077 689.715 556.341 688.491H559.365ZM562.069 675.783H564.949V678.735H565.021C566.293 676.479 568.309 675.351 571.069 675.351C572.293 675.351 573.313 675.519 574.129 675.855C574.945 676.191 575.605 676.659 576.109 677.259C576.613 677.859 576.961 678.579 577.153 679.419C577.369 680.235 577.477 681.147 577.477 682.155V694.395H574.417V681.795C574.417 680.643 574.081 679.731 573.409 679.059C572.737 678.387 571.813 678.051 570.637 678.051C569.701 678.051 568.885 678.195 568.189 678.483C567.517 678.771 566.953 679.179 566.497 679.707C566.041 680.235 565.693 680.859 565.453 681.579C565.237 682.275 565.129 683.043 565.129 683.883V694.395H562.069V675.783ZM585.565 675.783H589.273V678.483H585.565V690.039C585.565 690.399 585.589 690.687 585.637 690.903C585.709 691.119 585.829 691.287 585.997 691.407C586.165 691.527 586.393 691.611 586.681 691.659C586.993 691.683 587.389 691.695 587.869 691.695H589.273V694.395H586.933C586.141 694.395 585.457 694.347 584.881 694.251C584.329 694.131 583.873 693.927 583.513 693.639C583.177 693.351 582.925 692.943 582.757 692.415C582.589 691.887 582.505 691.191 582.505 690.327V678.483H579.337V675.783H582.505V670.203H585.565V675.783ZM595.156 672.435H592.096V668.691H595.156V672.435ZM592.096 675.783H595.156V694.395H592.096V675.783ZM607.529 694.395H604.253L597.341 675.783H600.761L605.981 691.299H606.053L611.129 675.783H614.333L607.529 694.395ZM629.309 683.307C629.261 682.587 629.093 681.903 628.805 681.255C628.541 680.607 628.169 680.055 627.689 679.599C627.233 679.119 626.681 678.747 626.033 678.483C625.409 678.195 624.713 678.051 623.945 678.051C623.153 678.051 622.433 678.195 621.785 678.483C621.161 678.747 620.621 679.119 620.165 679.599C619.709 680.079 619.349 680.643 619.085 681.291C618.821 681.915 618.665 682.587 618.617 683.307H629.309ZM632.261 688.491C631.853 690.579 630.953 692.151 629.561 693.207C628.169 694.263 626.417 694.791 624.305 694.791C622.817 694.791 621.521 694.551 620.417 694.071C619.337 693.591 618.425 692.919 617.681 692.055C616.937 691.191 616.373 690.159 615.989 688.959C615.629 687.759 615.425 686.451 615.377 685.035C615.377 683.619 615.593 682.323 616.025 681.147C616.457 679.971 617.057 678.951 617.825 678.087C618.617 677.223 619.541 676.551 620.597 676.071C621.677 675.591 622.853 675.351 624.125 675.351C625.781 675.351 627.149 675.699 628.229 676.395C629.333 677.067 630.209 677.931 630.857 678.987C631.529 680.043 631.985 681.195 632.225 682.443C632.489 683.691 632.597 684.879 632.549 686.007H618.617C618.593 686.823 618.689 687.603 618.905 688.347C619.121 689.067 619.469 689.715 619.949 690.291C620.429 690.843 621.041 691.287 621.785 691.623C622.529 691.959 623.405 692.127 624.413 692.127C625.709 692.127 626.765 691.827 627.581 691.227C628.421 690.627 628.973 689.715 629.237 688.491H632.261ZM636.837 688.527C636.861 689.199 637.017 689.775 637.305 690.255C637.593 690.711 637.965 691.083 638.421 691.371C638.901 691.635 639.429 691.827 640.005 691.947C640.605 692.067 641.217 692.127 641.841 692.127C642.321 692.127 642.825 692.091 643.353 692.019C643.881 691.947 644.361 691.815 644.793 691.623C645.249 691.431 645.621 691.155 645.909 690.795C646.197 690.411 646.341 689.931 646.341 689.355C646.341 688.563 646.041 687.963 645.441 687.555C644.841 687.147 644.085 686.823 643.173 686.583C642.285 686.319 641.313 686.091 640.257 685.899C639.201 685.683 638.217 685.395 637.305 685.035C636.417 684.651 635.673 684.123 635.073 683.451C634.473 682.779 634.173 681.843 634.173 680.643C634.173 679.707 634.377 678.903 634.785 678.231C635.217 677.559 635.757 677.019 636.405 676.611C637.077 676.179 637.821 675.867 638.637 675.675C639.477 675.459 640.305 675.351 641.121 675.351C642.177 675.351 643.149 675.447 644.037 675.639C644.925 675.807 645.705 676.119 646.377 676.575C647.073 677.007 647.625 677.607 648.033 678.375C648.441 679.119 648.681 680.055 648.753 681.183H645.693C645.645 680.583 645.489 680.091 645.225 679.707C644.961 679.299 644.625 678.975 644.217 678.735C643.809 678.495 643.353 678.327 642.849 678.231C642.369 678.111 641.877 678.051 641.373 678.051C640.917 678.051 640.449 678.087 639.969 678.159C639.513 678.231 639.093 678.363 638.709 678.555C638.325 678.723 638.013 678.963 637.773 679.275C637.533 679.563 637.413 679.947 637.413 680.427C637.413 680.955 637.593 681.399 637.953 681.759C638.337 682.095 638.817 682.383 639.393 682.623C639.969 682.839 640.617 683.031 641.337 683.199C642.057 683.343 642.777 683.499 643.497 683.667C644.265 683.835 645.009 684.039 645.729 684.279C646.473 684.519 647.121 684.843 647.673 685.251C648.249 685.635 648.705 686.127 649.041 686.727C649.401 687.327 649.581 688.071 649.581 688.959C649.581 690.087 649.341 691.023 648.861 691.767C648.405 692.511 647.793 693.111 647.025 693.567C646.281 694.023 645.429 694.335 644.469 694.503C643.533 694.695 642.597 694.791 641.661 694.791C640.629 694.791 639.645 694.683 638.709 694.467C637.773 694.251 636.945 693.903 636.225 693.423C635.505 692.919 634.929 692.271 634.497 691.479C634.065 690.663 633.825 689.679 633.777 688.527H636.837Z" fill="currentColor"/>
<path d="M283.204 44.7754L260.597 40.0568L267.814 61.9942L283.204 44.7754ZM109.357 157.377C153.507 108.636 198.897 75.9515 266.774 52.2855L265.458 48.5085C196.889 72.4153 150.948 105.503 106.393 154.692L109.357 157.377Z" fill="currentColor"/>
<path d="M643.296 574.387L663.784 563.729L644.311 551.315L643.296 574.387ZM706.601 377.17C703.276 442.851 688.827 496.885 651.261 558.173L654.671 560.263C692.62 498.352 707.241 443.656 710.596 377.373L706.601 377.17Z" fill="currentColor"/>
<path d="M628 155.148L622.929 132.618L605.952 148.274L628 155.148ZM453.493 43.5714C516.146 63.5614 564.698 91.3321 614.358 143.306L617.25 140.543C567.084 88.0398 517.937 59.9343 454.709 39.7606L453.493 43.5714Z" fill="currentColor"/>
<path d="M265.917 698.157L282.642 714.082L288.071 691.635L265.917 698.157ZM473.005 694.095C409.795 712.247 353.995 716.099 283.837 700.434L282.966 704.338C353.837 720.162 410.318 716.258 474.109 697.94L473.005 694.095Z" fill="currentColor"/>
<path d="M32.3389 345.168L20.5842 365.047L43.677 365.287L32.3389 345.168ZM82.8838 546.034C50.9777 488.527 34.6714 435.024 34.1515 363.141L30.1516 363.17C30.6768 435.785 47.1869 489.94 79.3861 547.974L82.8838 546.034Z" fill="currentColor"/>
<path d="M297.815 333.581H314.699V336.461H301.235V344.633H313.043V347.513H301.235V359.285H297.815V333.581ZM317.407 333.581H320.467V359.285H317.407V333.581ZM331.759 361.769C331.399 362.681 331.039 363.449 330.679 364.073C330.343 364.697 329.959 365.201 329.527 365.585C329.119 365.993 328.651 366.281 328.123 366.449C327.619 366.641 327.031 366.737 326.359 366.737C325.999 366.737 325.639 366.713 325.279 366.665C324.919 366.617 324.571 366.533 324.235 366.413V363.605C324.499 363.725 324.799 363.821 325.135 363.893C325.495 363.989 325.795 364.037 326.035 364.037C326.659 364.037 327.175 363.881 327.583 363.569C328.015 363.281 328.339 362.861 328.555 362.309L329.815 359.177L322.435 340.673H325.891L331.327 355.901H331.399L336.619 340.673H339.859L331.759 361.769ZM360.127 359.285H356.887L353.107 344.489H353.035L349.291 359.285H345.979L340.003 340.673H343.387L347.599 355.901H347.671L351.415 340.673H354.763L358.651 355.901H358.723L362.899 340.673H366.067L360.127 359.285ZM368.221 333.581H371.281V343.409H371.353C371.593 342.833 371.929 342.353 372.361 341.969C372.793 341.561 373.273 341.237 373.801 340.997C374.353 340.733 374.917 340.541 375.493 340.421C376.093 340.301 376.669 340.241 377.221 340.241C378.445 340.241 379.465 340.409 380.281 340.745C381.097 341.081 381.757 341.549 382.261 342.149C382.765 342.749 383.113 343.469 383.305 344.309C383.521 345.125 383.629 346.037 383.629 347.045V359.285H380.569V346.685C380.569 345.533 380.233 344.621 379.561 343.949C378.889 343.277 377.965 342.941 376.789 342.941C375.853 342.941 375.037 343.085 374.341 343.373C373.669 343.661 373.105 344.069 372.649 344.597C372.193 345.125 371.845 345.749 371.605 346.469C371.389 347.165 371.281 347.933 371.281 348.773V359.285H368.221V333.581ZM400.393 348.197C400.345 347.477 400.177 346.793 399.889 346.145C399.625 345.497 399.253 344.945 398.773 344.489C398.317 344.009 397.765 343.637 397.117 343.373C396.493 343.085 395.797 342.941 395.029 342.941C394.237 342.941 393.517 343.085 392.869 343.373C392.245 343.637 391.705 344.009 391.249 344.489C390.793 344.969 390.433 345.533 390.169 346.181C389.905 346.805 389.749 347.477 389.701 348.197H400.393ZM403.345 353.381C402.937 355.469 402.037 357.041 400.645 358.097C399.253 359.153 397.501 359.681 395.389 359.681C393.901 359.681 392.605 359.441 391.501 358.961C390.421 358.481 389.509 357.809 388.765 356.945C388.021 356.081 387.457 355.049 387.073 353.849C386.713 352.649 386.509 351.341 386.461 349.925C386.461 348.509 386.677 347.213 387.109 346.037C387.541 344.861 388.141 343.841 388.909 342.977C389.701 342.113 390.625 341.441 391.681 340.961C392.761 340.481 393.937 340.241 395.209 340.241C396.865 340.241 398.233 340.589 399.313 341.285C400.417 341.957 401.293 342.821 401.941 343.877C402.613 344.933 403.069 346.085 403.309 347.333C403.573 348.581 403.681 349.769 403.633 350.897H389.701C389.677 351.713 389.773 352.493 389.989 353.237C390.205 353.957 390.553 354.605 391.033 355.181C391.513 355.733 392.125 356.177 392.869 356.513C393.613 356.849 394.489 357.017 395.497 357.017C396.793 357.017 397.849 356.717 398.665 356.117C399.505 355.517 400.057 354.605 400.321 353.381H403.345ZM418.972 348.197C418.924 347.477 418.756 346.793 418.468 346.145C418.204 345.497 417.832 344.945 417.352 344.489C416.896 344.009 416.344 343.637 415.696 343.373C415.072 343.085 414.376 342.941 413.608 342.941C412.816 342.941 412.096 343.085 411.448 343.373C410.824 343.637 410.284 344.009 409.828 344.489C409.372 344.969 409.012 345.533 408.748 346.181C408.484 346.805 408.328 347.477 408.28 348.197H418.972ZM421.924 353.381C421.516 355.469 420.616 357.041 419.224 358.097C417.832 359.153 416.08 359.681 413.968 359.681C412.48 359.681 411.184 359.441 410.08 358.961C409 358.481 408.088 357.809 407.344 356.945C406.6 356.081 406.036 355.049 405.652 353.849C405.292 352.649 405.088 351.341 405.04 349.925C405.04 348.509 405.256 347.213 405.688 346.037C406.12 344.861 406.72 343.841 407.488 342.977C408.28 342.113 409.204 341.441 410.26 340.961C411.34 340.481 412.516 340.241 413.788 340.241C415.444 340.241 416.812 340.589 417.892 341.285C418.996 341.957 419.872 342.821 420.52 343.877C421.192 344.933 421.648 346.085 421.888 347.333C422.152 348.581 422.26 349.769 422.212 350.897H408.28C408.256 351.713 408.352 352.493 408.568 353.237C408.784 353.957 409.132 354.605 409.612 355.181C410.092 355.733 410.704 356.177 411.448 356.513C412.192 356.849 413.068 357.017 414.076 357.017C415.372 357.017 416.428 356.717 417.244 356.117C418.084 355.517 418.636 354.605 418.9 353.381H421.924ZM424.808 333.581H427.868V359.285H424.808V333.581ZM443.348 349.997C443.348 351.125 443.492 352.133 443.78 353.021C444.092 353.885 444.512 354.617 445.04 355.217C445.568 355.793 446.18 356.237 446.876 356.549C447.596 356.861 448.352 357.017 449.144 357.017C449.936 357.017 450.68 356.861 451.376 356.549C452.096 356.237 452.72 355.793 453.248 355.217C453.776 354.617 454.184 353.885 454.472 353.021C454.784 352.133 454.94 351.125 454.94 349.997C454.94 348.869 454.784 347.873 454.472 347.009C454.184 346.121 453.776 345.377 453.248 344.777C452.72 344.177 452.096 343.721 451.376 343.409C450.68 343.097 449.936 342.941 449.144 342.941C448.352 342.941 447.596 343.097 446.876 343.409C446.18 343.721 445.568 344.177 445.04 344.777C444.512 345.377 444.092 346.121 443.78 347.009C443.492 347.873 443.348 348.869 443.348 349.997ZM440.108 349.997C440.108 348.629 440.3 347.357 440.684 346.181C441.068 344.981 441.644 343.949 442.412 343.085C443.18 342.197 444.128 341.501 445.256 340.997C446.384 340.493 447.68 340.241 449.144 340.241C450.632 340.241 451.928 340.493 453.032 340.997C454.16 341.501 455.108 342.197 455.876 343.085C456.644 343.949 457.22 344.981 457.604 346.181C457.988 347.357 458.18 348.629 458.18 349.997C458.18 351.365 457.988 352.637 457.604 353.813C457.22 354.989 456.644 356.021 455.876 356.909C455.108 357.773 454.16 358.457 453.032 358.961C451.928 359.441 450.632 359.681 449.144 359.681C447.68 359.681 446.384 359.441 445.256 358.961C444.128 358.457 443.18 357.773 442.412 356.909C441.644 356.021 441.068 354.989 440.684 353.813C440.3 352.637 440.108 351.365 440.108 349.997ZM462.292 343.373H459.16V340.673H462.292V337.901C462.292 336.389 462.724 335.249 463.588 334.481C464.476 333.689 465.76 333.293 467.44 333.293C467.728 333.293 468.052 333.317 468.412 333.365C468.796 333.413 469.132 333.485 469.42 333.581V336.245C469.156 336.149 468.868 336.089 468.556 336.065C468.244 336.017 467.956 335.993 467.692 335.993C466.948 335.993 466.372 336.137 465.964 336.425C465.556 336.713 465.352 337.265 465.352 338.081V340.673H468.952V343.373H465.352V359.285H462.292V343.373ZM310.096 373.325H307.036V369.581H310.096V373.325ZM307.036 376.673H310.096V395.285H307.036V376.673ZM314.08 376.673H316.96V379.625H317.032C318.304 377.369 320.32 376.241 323.08 376.241C324.304 376.241 325.324 376.409 326.14 376.745C326.956 377.081 327.616 377.549 328.12 378.149C328.624 378.749 328.972 379.469 329.164 380.309C329.38 381.125 329.488 382.037 329.488 383.045V395.285H326.428V382.685C326.428 381.533 326.092 380.621 325.42 379.949C324.748 379.277 323.824 378.941 322.648 378.941C321.712 378.941 320.896 379.085 320.2 379.373C319.528 379.661 318.964 380.069 318.508 380.597C318.052 381.125 317.704 381.749 317.464 382.469C317.248 383.165 317.14 383.933 317.14 384.773V395.285H314.08V376.673ZM345.964 382.649C345.724 381.473 345.22 380.561 344.452 379.913C343.684 379.265 342.652 378.941 341.356 378.941C340.252 378.941 339.328 379.145 338.584 379.553C337.84 379.961 337.24 380.501 336.784 381.173C336.352 381.845 336.04 382.625 335.848 383.513C335.656 384.377 335.56 385.277 335.56 386.213C335.56 387.077 335.656 387.917 335.848 388.733C336.064 389.549 336.388 390.281 336.82 390.929C337.252 391.553 337.816 392.057 338.512 392.441C339.208 392.825 340.036 393.017 340.996 393.017C342.508 393.017 343.684 392.621 344.524 391.829C345.388 391.037 345.916 389.921 346.108 388.481H349.24C348.904 390.785 348.04 392.561 346.648 393.809C345.28 395.057 343.408 395.681 341.032 395.681C339.616 395.681 338.356 395.453 337.252 394.997C336.172 394.541 335.26 393.893 334.516 393.053C333.796 392.213 333.244 391.217 332.86 390.065C332.5 388.889 332.32 387.605 332.32 386.213C332.32 384.821 332.5 383.525 332.86 382.325C333.22 381.101 333.76 380.045 334.48 379.157C335.224 378.245 336.148 377.537 337.252 377.033C338.356 376.505 339.64 376.241 341.104 376.241C342.16 376.241 343.144 376.373 344.056 376.637C344.992 376.877 345.808 377.261 346.504 377.789C347.224 378.317 347.812 378.989 348.268 379.805C348.724 380.597 349.012 381.545 349.132 382.649H345.964ZM364.832 384.197C364.784 383.477 364.616 382.793 364.328 382.145C364.064 381.497 363.692 380.945 363.212 380.489C362.756 380.009 362.204 379.637 361.556 379.373C360.932 379.085 360.236 378.941 359.468 378.941C358.676 378.941 357.956 379.085 357.308 379.373C356.684 379.637 356.144 380.009 355.688 380.489C355.232 380.969 354.872 381.533 354.608 382.181C354.344 382.805 354.188 383.477 354.14 384.197H364.832ZM367.784 389.381C367.376 391.469 366.476 393.041 365.084 394.097C363.692 395.153 361.94 395.681 359.828 395.681C358.34 395.681 357.044 395.441 355.94 394.961C354.86 394.481 353.948 393.809 353.204 392.945C352.46 392.081 351.896 391.049 351.512 389.849C351.152 388.649 350.948 387.341 350.9 385.925C350.9 384.509 351.116 383.213 351.548 382.037C351.98 380.861 352.58 379.841 353.348 378.977C354.14 378.113 355.064 377.441 356.12 376.961C357.2 376.481 358.376 376.241 359.648 376.241C361.304 376.241 362.672 376.589 363.752 377.285C364.856 377.957 365.732 378.821 366.38 379.877C367.052 380.933 367.508 382.085 367.748 383.333C368.012 384.581 368.12 385.769 368.072 386.897H354.14C354.116 387.713 354.212 388.493 354.428 389.237C354.644 389.957 354.992 390.605 355.472 391.181C355.952 391.733 356.564 392.177 357.308 392.513C358.052 392.849 358.928 393.017 359.936 393.017C361.232 393.017 362.288 392.717 363.104 392.117C363.944 391.517 364.496 390.605 364.76 389.381H367.784ZM370.488 376.673H373.368V379.625H373.44C374.712 377.369 376.728 376.241 379.488 376.241C380.712 376.241 381.732 376.409 382.548 376.745C383.364 377.081 384.024 377.549 384.528 378.149C385.032 378.749 385.38 379.469 385.572 380.309C385.788 381.125 385.896 382.037 385.896 383.045V395.285H382.836V382.685C382.836 381.533 382.5 380.621 381.828 379.949C381.156 379.277 380.232 378.941 379.056 378.941C378.12 378.941 377.304 379.085 376.608 379.373C375.936 379.661 375.372 380.069 374.916 380.597C374.46 381.125 374.112 381.749 373.872 382.469C373.656 383.165 373.548 383.933 373.548 384.773V395.285H370.488V376.673ZM393.984 376.673H397.692V379.373H393.984V390.929C393.984 391.289 394.008 391.577 394.056 391.793C394.128 392.009 394.248 392.177 394.416 392.297C394.584 392.417 394.812 392.501 395.1 392.549C395.412 392.573 395.808 392.585 396.288 392.585H397.692V395.285H395.352C394.56 395.285 393.876 395.237 393.3 395.141C392.748 395.021 392.292 394.817 391.932 394.529C391.596 394.241 391.344 393.833 391.176 393.305C391.008 392.777 390.924 392.081 390.924 391.217V379.373H387.756V376.673H390.924V371.093H393.984V376.673ZM403.575 373.325H400.515V369.581H403.575V373.325ZM400.515 376.673H403.575V395.285H400.515V376.673ZM415.948 395.285H412.672L405.76 376.673H409.18L414.4 392.189H414.472L419.548 376.673H422.752L415.948 395.285ZM437.728 384.197C437.68 383.477 437.512 382.793 437.224 382.145C436.96 381.497 436.588 380.945 436.108 380.489C435.652 380.009 435.1 379.637 434.452 379.373C433.828 379.085 433.132 378.941 432.364 378.941C431.572 378.941 430.852 379.085 430.204 379.373C429.58 379.637 429.04 380.009 428.584 380.489C428.128 380.969 427.768 381.533 427.504 382.181C427.24 382.805 427.084 383.477 427.036 384.197H437.728ZM440.68 389.381C440.272 391.469 439.372 393.041 437.98 394.097C436.588 395.153 434.836 395.681 432.724 395.681C431.236 395.681 429.94 395.441 428.836 394.961C427.756 394.481 426.844 393.809 426.1 392.945C425.356 392.081 424.792 391.049 424.408 389.849C424.048 388.649 423.844 387.341 423.796 385.925C423.796 384.509 424.012 383.213 424.444 382.037C424.876 380.861 425.476 379.841 426.244 378.977C427.036 378.113 427.96 377.441 429.016 376.961C430.096 376.481 431.272 376.241 432.544 376.241C434.2 376.241 435.568 376.589 436.648 377.285C437.752 377.957 438.628 378.821 439.276 379.877C439.948 380.933 440.404 382.085 440.644 383.333C440.908 384.581 441.016 385.769 440.968 386.897H427.036C427.012 387.713 427.108 388.493 427.324 389.237C427.54 389.957 427.888 390.605 428.368 391.181C428.848 391.733 429.46 392.177 430.204 392.513C430.948 392.849 431.824 393.017 432.832 393.017C434.128 393.017 435.184 392.717 436 392.117C436.84 391.517 437.392 390.605 437.656 389.381H440.68ZM445.256 389.417C445.28 390.089 445.436 390.665 445.724 391.145C446.012 391.601 446.384 391.973 446.84 392.261C447.32 392.525 447.848 392.717 448.424 392.837C449.024 392.957 449.636 393.017 450.26 393.017C450.74 393.017 451.244 392.981 451.772 392.909C452.3 392.837 452.78 392.705 453.212 392.513C453.668 392.321 454.04 392.045 454.328 391.685C454.616 391.301 454.76 390.821 454.76 390.245C454.76 389.453 454.46 388.853 453.86 388.445C453.26 388.037 452.504 387.713 451.592 387.473C450.704 387.209 449.732 386.981 448.676 386.789C447.62 386.573 446.636 386.285 445.724 385.925C444.836 385.541 444.092 385.013 443.492 384.341C442.892 383.669 442.592 382.733 442.592 381.533C442.592 380.597 442.796 379.793 443.204 379.121C443.636 378.449 444.176 377.909 444.824 377.501C445.496 377.069 446.24 376.757 447.056 376.565C447.896 376.349 448.724 376.241 449.54 376.241C450.596 376.241 451.568 376.337 452.456 376.529C453.344 376.697 454.124 377.009 454.796 377.465C455.492 377.897 456.044 378.497 456.452 379.265C456.86 380.009 457.1 380.945 457.172 382.073H454.112C454.064 381.473 453.908 380.981 453.644 380.597C453.38 380.189 453.044 379.865 452.636 379.625C452.228 379.385 451.772 379.217 451.268 379.121C450.788 379.001 450.296 378.941 449.792 378.941C449.336 378.941 448.868 378.977 448.388 379.049C447.932 379.121 447.512 379.253 447.128 379.445C446.744 379.613 446.432 379.853 446.192 380.165C445.952 380.453 445.832 380.837 445.832 381.317C445.832 381.845 446.012 382.289 446.372 382.649C446.756 382.985 447.236 383.273 447.812 383.513C448.388 383.729 449.036 383.921 449.756 384.089C450.476 384.233 451.196 384.389 451.916 384.557C452.684 384.725 453.428 384.929 454.148 385.169C454.892 385.409 455.54 385.733 456.092 386.141C456.668 386.525 457.124 387.017 457.46 387.617C457.82 388.217 458 388.961 458 389.849C458 390.977 457.76 391.913 457.28 392.657C456.824 393.401 456.212 394.001 455.444 394.457C454.7 394.913 453.848 395.225 452.888 395.393C451.952 395.585 451.016 395.681 450.08 395.681C449.048 395.681 448.064 395.573 447.128 395.357C446.192 395.141 445.364 394.793 444.644 394.313C443.924 393.809 443.348 393.161 442.916 392.369C442.484 391.553 442.244 390.569 442.196 389.417H445.256Z" fill="currentColor"/>
<path fill-rule="evenodd" clip-rule="evenodd" d="M381.061 84.7852C386.632 84.7852 391.95 83.7005 396.814 81.7309L394.122 74.1859C390.101 75.8605 385.689 76.7852 381.061 76.7852C362.284 76.7852 347.061 61.5628 347.061 42.7852C347.061 24.0075 362.284 8.78516 381.061 8.78516C399.839 8.78516 415.061 24.0075 415.061 42.7852C415.061 47.4641 414.116 51.9224 412.406 55.9793L419.953 58.6718C421.957 53.771 423.061 48.4071 423.061 42.7852C423.061 19.5892 404.257 0.785156 381.061 0.785156C357.865 0.785156 339.061 19.5892 339.061 42.7852C339.061 65.9811 357.865 84.7852 381.061 84.7852ZM381.061 68.7852C384.746 68.7852 388.253 68.0185 391.429 66.6359L388.731 59.0741C386.404 60.1716 383.804 60.7852 381.061 60.7852C371.12 60.7852 363.061 52.7263 363.061 42.7852C363.061 32.844 371.12 24.7852 381.061 24.7852C391.002 24.7852 399.061 32.844 399.061 42.7852C399.061 45.5797 398.424 48.2255 397.288 50.5854L404.854 53.2848C406.273 50.0738 407.061 46.5215 407.061 42.7852C407.061 28.4258 395.421 16.7852 381.061 16.7852C366.702 16.7852 355.061 28.4258 355.061 42.7852C355.061 57.1446 366.702 68.7852 381.061 68.7852ZM392.68 54.517L404.058 86.4073L410.212 72.0487L424.571 65.895L392.68 54.517ZM377.573 49.6479C376.903 48.9341 376.578 47.9606 376.6 46.7276H372.025C372.241 49.2802 373.03 51.2162 374.393 52.5358C375.756 53.8553 377.649 54.6016 380.072 54.7747V57.5328H381.986V54.7747C383.608 54.6665 384.939 54.3421 385.977 53.8013C387.016 53.2605 387.838 52.644 388.443 51.9517C389.071 51.2595 389.503 50.5565 389.741 49.8426C389.979 49.1071 390.098 48.5014 390.098 48.0255C390.098 47.4847 390.055 46.8682 389.968 46.176C389.903 45.4838 389.665 44.7916 389.254 44.0993C388.843 43.4071 388.205 42.7473 387.34 42.12C386.475 41.471 385.242 40.9302 383.641 40.4976C383.338 40.4111 383.046 40.3354 382.765 40.2705L381.986 40.0758V34.3325C382.722 34.3325 383.349 34.6353 383.868 35.241C384.387 35.8467 384.658 36.5822 384.679 37.4475H389.287C389.222 36.3226 388.984 35.3492 388.573 34.5272C388.162 33.7052 387.632 33.0238 386.983 32.483C386.334 31.9205 385.577 31.4879 384.712 31.185C383.868 30.8606 382.96 30.6442 381.986 30.5361V28.0376H380.072V30.5361C379.098 30.601 378.157 30.7957 377.249 31.1202C376.34 31.423 375.54 31.8665 374.848 32.4505C374.155 33.0129 373.593 33.716 373.16 34.5596C372.749 35.4033 372.544 36.3767 372.544 37.4799C372.544 38.5615 372.728 39.4701 373.095 40.2056C373.463 40.9194 373.95 41.5251 374.556 42.0227C375.183 42.4986 375.886 42.8879 376.665 43.1908C377.443 43.472 378.233 43.7208 379.033 43.9371C379.25 43.9804 379.444 44.0344 379.617 44.0993C379.812 44.1426 379.963 44.1859 380.072 44.2291V51.0107C379.077 50.8161 378.244 50.3618 377.573 49.6479ZM383.187 50.7512C382.776 50.881 382.375 50.9675 381.986 51.0107V44.7807C383.262 45.1268 384.16 45.5162 384.679 45.9489C385.22 46.3599 385.49 46.9872 385.49 47.8308C385.49 48.35 385.382 48.8043 385.166 49.1937C384.95 49.5614 384.668 49.8751 384.322 50.1346C383.998 50.3942 383.619 50.5997 383.187 50.7512ZM379.001 34.4947C379.347 34.3866 379.704 34.3325 380.072 34.3325V39.6215C379.033 39.3836 378.287 39.0699 377.833 38.6805C377.378 38.2911 377.151 37.7395 377.151 37.0257C377.151 36.5714 377.227 36.182 377.378 35.8576C377.552 35.5114 377.779 35.2302 378.06 35.0139C378.341 34.776 378.655 34.6029 379.001 34.4947Z" fill="currentColor"/>
<path d="M367.466 114.788H376.178L371.894 102.8H371.822L367.466 114.788ZM370.022 99.7042H373.802L383.846 125.408H380.066L377.258 117.668H366.386L363.506 125.408H360.014L370.022 99.7042ZM387.354 116.264C387.354 117.128 387.462 117.98 387.678 118.82C387.918 119.636 388.266 120.368 388.722 121.016C389.202 121.664 389.802 122.18 390.522 122.564C391.266 122.948 392.13 123.14 393.114 123.14C394.146 123.14 395.022 122.936 395.742 122.528C396.462 122.12 397.05 121.592 397.506 120.944C397.962 120.272 398.286 119.516 398.478 118.676C398.694 117.836 398.802 116.984 398.802 116.12C398.802 115.208 398.694 114.332 398.478 113.492C398.262 112.628 397.914 111.872 397.434 111.224C396.978 110.576 396.378 110.06 395.634 109.676C394.89 109.268 393.99 109.064 392.934 109.064C391.902 109.064 391.026 109.268 390.306 109.676C389.586 110.084 389.01 110.624 388.578 111.296C388.146 111.968 387.834 112.736 387.642 113.6C387.45 114.464 387.354 115.352 387.354 116.264ZM401.754 125.408H398.694V122.888H398.622C398.118 123.92 397.326 124.664 396.246 125.12C395.166 125.576 393.978 125.804 392.682 125.804C391.242 125.804 389.982 125.54 388.902 125.012C387.846 124.484 386.958 123.776 386.238 122.888C385.542 122 385.014 120.968 384.654 119.792C384.294 118.616 384.114 117.368 384.114 116.048C384.114 114.728 384.282 113.48 384.618 112.304C384.978 111.128 385.506 110.108 386.202 109.244C386.922 108.356 387.81 107.66 388.866 107.156C389.946 106.628 391.194 106.364 392.61 106.364C393.09 106.364 393.606 106.412 394.158 106.508C394.71 106.604 395.262 106.772 395.814 107.012C396.366 107.228 396.882 107.528 397.362 107.912C397.866 108.272 398.286 108.728 398.622 109.28H398.694V99.7042H401.754V125.408ZM330.564 135.704H335.244L343.344 157.304L351.48 135.704H356.16V161.408H352.92V140.024H352.848L344.82 161.408H341.904L333.876 140.024H333.804V161.408H330.564V135.704ZM377.08 161.336C376.552 161.648 375.82 161.804 374.884 161.804C374.092 161.804 373.456 161.588 372.976 161.156C372.52 160.7 372.292 159.968 372.292 158.96C371.452 159.968 370.468 160.7 369.34 161.156C368.236 161.588 367.036 161.804 365.74 161.804C364.9 161.804 364.096 161.708 363.328 161.516C362.584 161.324 361.936 161.024 361.384 160.616C360.832 160.208 360.388 159.68 360.052 159.032C359.74 158.36 359.584 157.556 359.584 156.62C359.584 155.564 359.764 154.7 360.124 154.028C360.484 153.356 360.952 152.816 361.528 152.408C362.128 151.976 362.8 151.652 363.544 151.436C364.312 151.22 365.092 151.04 365.884 150.896C366.724 150.728 367.516 150.608 368.26 150.536C369.028 150.44 369.7 150.32 370.276 150.176C370.852 150.008 371.308 149.78 371.644 149.492C371.98 149.18 372.148 148.736 372.148 148.16C372.148 147.488 372.016 146.948 371.752 146.54C371.512 146.132 371.188 145.82 370.78 145.604C370.396 145.388 369.952 145.244 369.448 145.172C368.968 145.1 368.488 145.064 368.008 145.064C366.712 145.064 365.632 145.316 364.768 145.82C363.904 146.3 363.436 147.224 363.364 148.592H360.304C360.352 147.44 360.592 146.468 361.024 145.676C361.456 144.884 362.032 144.248 362.752 143.768C363.472 143.264 364.288 142.904 365.2 142.688C366.136 142.472 367.132 142.364 368.188 142.364C369.028 142.364 369.856 142.424 370.672 142.544C371.512 142.664 372.268 142.916 372.94 143.3C373.612 143.66 374.152 144.176 374.56 144.848C374.968 145.52 375.172 146.396 375.172 147.476V157.052C375.172 157.772 375.208 158.3 375.28 158.636C375.376 158.972 375.664 159.14 376.144 159.14C376.408 159.14 376.72 159.08 377.08 158.96V161.336ZM372.112 151.796C371.728 152.084 371.224 152.3 370.6 152.444C369.976 152.564 369.316 152.672 368.62 152.768C367.948 152.84 367.264 152.936 366.568 153.056C365.872 153.152 365.248 153.32 364.696 153.56C364.144 153.8 363.688 154.148 363.328 154.604C362.992 155.036 362.824 155.636 362.824 156.404C362.824 156.908 362.92 157.34 363.112 157.7C363.328 158.036 363.592 158.312 363.904 158.528C364.24 158.744 364.624 158.9 365.056 158.996C365.488 159.092 365.944 159.14 366.424 159.14C367.432 159.14 368.296 159.008 369.016 158.744C369.736 158.456 370.324 158.108 370.78 157.7C371.236 157.268 371.572 156.812 371.788 156.332C372.004 155.828 372.112 155.36 372.112 154.928V151.796ZM379.064 142.796H381.944V146.72H382.016C382.76 145.208 383.672 144.092 384.752 143.372C385.832 142.652 387.2 142.316 388.856 142.364V145.604C387.632 145.604 386.588 145.772 385.724 146.108C384.86 146.444 384.164 146.936 383.636 147.584C383.108 148.232 382.724 149.024 382.484 149.96C382.244 150.872 382.124 151.928 382.124 153.128V161.408H379.064V142.796ZM390.584 135.704H393.644V150.932L402.14 142.796H406.244L398.864 149.564L406.784 161.408H402.896L396.524 151.688L393.644 154.352V161.408H390.584V135.704ZM421.24 150.32C421.192 149.6 421.024 148.916 420.736 148.268C420.472 147.62 420.1 147.068 419.62 146.612C419.164 146.132 418.612 145.76 417.964 145.496C417.34 145.208 416.644 145.064 415.876 145.064C415.084 145.064 414.364 145.208 413.716 145.496C413.092 145.76 412.552 146.132 412.096 146.612C411.64 147.092 411.28 147.656 411.016 148.304C410.752 148.928 410.596 149.6 410.548 150.32H421.24ZM424.192 155.504C423.784 157.592 422.884 159.164 421.492 160.22C420.1 161.276 418.348 161.804 416.236 161.804C414.748 161.804 413.452 161.564 412.348 161.084C411.268 160.604 410.356 159.932 409.612 159.068C408.868 158.204 408.304 157.172 407.92 155.972C407.56 154.772 407.356 153.464 407.308 152.048C407.308 150.632 407.524 149.336 407.956 148.16C408.388 146.984 408.988 145.964 409.756 145.1C410.548 144.236 411.472 143.564 412.528 143.084C413.608 142.604 414.784 142.364 416.056 142.364C417.712 142.364 419.08 142.712 420.16 143.408C421.264 144.08 422.14 144.944 422.788 146C423.46 147.056 423.916 148.208 424.156 149.456C424.42 150.704 424.528 151.892 424.48 153.02H410.548C410.524 153.836 410.62 154.616 410.836 155.36C411.052 156.08 411.4 156.728 411.88 157.304C412.36 157.856 412.972 158.3 413.716 158.636C414.46 158.972 415.336 159.14 416.344 159.14C417.64 159.14 418.696 158.84 419.512 158.24C420.352 157.64 420.904 156.728 421.168 155.504H424.192ZM431.144 142.796H434.852V145.496H431.144V157.052C431.144 157.412 431.168 157.7 431.216 157.916C431.288 158.132 431.408 158.3 431.576 158.42C431.744 158.54 431.972 158.624 432.26 158.672C432.572 158.696 432.968 158.708 433.448 158.708H434.852V161.408H432.512C431.72 161.408 431.036 161.36 430.46 161.264C429.908 161.144 429.452 160.94 429.092 160.652C428.756 160.364 428.504 159.956 428.336 159.428C428.168 158.9 428.084 158.204 428.084 157.34V145.496H424.916V142.796H428.084V137.216H431.144V142.796Z" fill="currentColor"/>
<path fill-rule="evenodd" clip-rule="evenodd" d="M133.374 632.284C121.448 624.874 113.507 611.655 113.507 596.582C113.507 573.386 132.311 554.582 155.507 554.582C178.703 554.582 197.507 573.386 197.507 596.582C197.507 611.655 189.567 624.874 177.641 632.284C177.255 629.509 176.755 626.575 176.106 623.634C184.251 617.423 189.507 607.616 189.507 596.582C189.507 577.804 174.285 562.582 155.507 562.582C136.73 562.582 121.507 577.804 121.507 596.582C121.507 607.616 126.764 617.423 134.909 623.634C134.26 626.575 133.76 629.509 133.374 632.284ZM137.275 615.117C132.48 610.401 129.507 603.839 129.507 596.582C129.507 582.223 141.148 570.582 155.507 570.582C169.867 570.582 181.507 582.223 181.507 596.582C181.507 603.839 178.535 610.401 173.74 615.117C172.742 612.234 171.553 609.499 170.135 607.075C172.257 604.121 173.507 600.497 173.507 596.582C173.507 586.641 165.449 578.582 155.507 578.582C145.566 578.582 137.507 586.641 137.507 596.582C137.507 600.497 138.757 604.121 140.88 607.075C139.462 609.499 138.272 612.234 137.275 615.117ZM165.507 597.261C165.507 601.986 162.23 605.945 157.825 606.991C170.396 610.222 170.396 639.684 170.396 639.684H140.619C140.619 639.684 140.619 610.222 153.19 606.991C148.785 605.945 145.507 601.986 145.507 597.261C145.507 591.738 149.985 587.261 155.507 587.261C161.03 587.261 165.507 591.738 165.507 597.261Z" fill="currentColor"/>
<path d="M102.049 665.292H108.745C110.689 665.316 112.105 664.92 112.993 664.104C113.905 663.288 114.361 662.112 114.361 660.576C114.361 659.04 113.905 657.876 112.993 657.084C112.105 656.268 110.689 655.86 108.745 655.86H102.049V665.292ZM98.6294 652.98H109.897C112.489 652.98 114.445 653.652 115.765 654.996C117.109 656.316 117.781 658.176 117.781 660.576C117.781 662.976 117.109 664.848 115.765 666.192C114.445 667.536 112.489 668.196 109.897 668.172H102.049V678.684H98.6294V652.98ZM122.945 669.396C122.945 670.524 123.089 671.532 123.377 672.42C123.689 673.284 124.109 674.016 124.637 674.616C125.165 675.192 125.777 675.636 126.473 675.948C127.193 676.26 127.949 676.416 128.741 676.416C129.533 676.416 130.277 676.26 130.973 675.948C131.693 675.636 132.317 675.192 132.845 674.616C133.373 674.016 133.781 673.284 134.069 672.42C134.381 671.532 134.537 670.524 134.537 669.396C134.537 668.268 134.381 667.272 134.069 666.408C133.781 665.52 133.373 664.776 132.845 664.176C132.317 663.576 131.693 663.12 130.973 662.808C130.277 662.496 129.533 662.34 128.741 662.34C127.949 662.34 127.193 662.496 126.473 662.808C125.777 663.12 125.165 663.576 124.637 664.176C124.109 664.776 123.689 665.52 123.377 666.408C123.089 667.272 122.945 668.268 122.945 669.396ZM119.705 669.396C119.705 668.028 119.897 666.756 120.281 665.58C120.665 664.38 121.241 663.348 122.009 662.484C122.777 661.596 123.725 660.9 124.853 660.396C125.981 659.892 127.277 659.64 128.741 659.64C130.229 659.64 131.525 659.892 132.629 660.396C133.757 660.9 134.705 661.596 135.473 662.484C136.241 663.348 136.817 664.38 137.201 665.58C137.585 666.756 137.777 668.028 137.777 669.396C137.777 670.764 137.585 672.036 137.201 673.212C136.817 674.388 136.241 675.42 135.473 676.308C134.705 677.172 133.757 677.856 132.629 678.36C131.525 678.84 130.229 679.08 128.741 679.08C127.277 679.08 125.981 678.84 124.853 678.36C123.725 677.856 122.777 677.172 122.009 676.308C121.241 675.42 120.665 674.388 120.281 673.212C119.897 672.036 119.705 670.764 119.705 669.396ZM140.737 660.072H143.797V662.592H143.869C144.373 661.56 145.165 660.816 146.245 660.36C147.325 659.88 148.513 659.64 149.809 659.64C151.249 659.64 152.497 659.904 153.553 660.432C154.633 660.96 155.521 661.68 156.217 662.592C156.937 663.48 157.477 664.512 157.837 665.688C158.197 666.864 158.377 668.112 158.377 669.432C158.377 670.752 158.197 672 157.837 673.176C157.501 674.352 156.973 675.384 156.253 676.272C155.557 677.136 154.669 677.82 153.589 678.324C152.533 678.828 151.297 679.08 149.881 679.08C149.425 679.08 148.909 679.032 148.333 678.936C147.781 678.84 147.229 678.684 146.677 678.468C146.125 678.252 145.597 677.964 145.093 677.604C144.613 677.22 144.205 676.752 143.869 676.2H143.797V685.776H140.737V660.072ZM155.137 669.216C155.137 668.352 155.017 667.512 154.777 666.696C154.561 665.856 154.213 665.112 153.733 664.464C153.277 663.816 152.677 663.3 151.933 662.916C151.213 662.532 150.361 662.34 149.377 662.34C148.345 662.34 147.469 662.544 146.749 662.952C146.029 663.36 145.441 663.9 144.985 664.572C144.529 665.22 144.193 665.964 143.977 666.804C143.785 667.644 143.689 668.496 143.689 669.36C143.689 670.272 143.797 671.16 144.013 672.024C144.229 672.864 144.565 673.608 145.021 674.256C145.501 674.904 146.113 675.432 146.857 675.84C147.601 676.224 148.501 676.416 149.557 676.416C150.613 676.416 151.489 676.212 152.185 675.804C152.905 675.396 153.481 674.856 153.913 674.184C154.345 673.512 154.657 672.744 154.849 671.88C155.041 671.016 155.137 670.128 155.137 669.216ZM176.621 678.684H173.741V675.732H173.669C173.021 676.884 172.193 677.736 171.185 678.288C170.177 678.816 168.989 679.08 167.621 679.08C166.397 679.08 165.377 678.924 164.561 678.612C163.745 678.276 163.085 677.808 162.581 677.208C162.077 676.608 161.717 675.9 161.501 675.084C161.309 674.244 161.213 673.32 161.213 672.312V660.072H164.273V672.672C164.273 673.824 164.609 674.736 165.281 675.408C165.953 676.08 166.877 676.416 168.053 676.416C168.989 676.416 169.793 676.272 170.465 675.984C171.161 675.696 171.737 675.288 172.193 674.76C172.649 674.232 172.985 673.62 173.201 672.924C173.441 672.204 173.561 671.424 173.561 670.584V660.072H176.621V678.684ZM180.641 652.98H183.701V678.684H180.641V652.98ZM204.173 678.612C203.645 678.924 202.913 679.08 201.977 679.08C201.185 679.08 200.549 678.864 200.069 678.432C199.613 677.976 199.385 677.244 199.385 676.236C198.545 677.244 197.561 677.976 196.433 678.432C195.329 678.864 194.129 679.08 192.833 679.08C191.993 679.08 191.189 678.984 190.421 678.792C189.677 678.6 189.029 678.3 188.477 677.892C187.925 677.484 187.481 676.956 187.145 676.308C186.833 675.636 186.677 674.832 186.677 673.896C186.677 672.84 186.857 671.976 187.217 671.304C187.577 670.632 188.045 670.092 188.621 669.684C189.221 669.252 189.893 668.928 190.637 668.712C191.405 668.496 192.185 668.316 192.977 668.172C193.817 668.004 194.609 667.884 195.353 667.812C196.121 667.716 196.793 667.596 197.369 667.452C197.945 667.284 198.401 667.056 198.737 666.768C199.073 666.456 199.241 666.012 199.241 665.436C199.241 664.764 199.109 664.224 198.845 663.816C198.605 663.408 198.281 663.096 197.873 662.88C197.489 662.664 197.045 662.52 196.541 662.448C196.061 662.376 195.581 662.34 195.101 662.34C193.805 662.34 192.725 662.592 191.861 663.096C190.997 663.576 190.529 664.5 190.457 665.868H187.397C187.445 664.716 187.685 663.744 188.117 662.952C188.549 662.16 189.125 661.524 189.845 661.044C190.565 660.54 191.381 660.18 192.293 659.964C193.229 659.748 194.225 659.64 195.281 659.64C196.121 659.64 196.949 659.7 197.765 659.82C198.605 659.94 199.361 660.192 200.033 660.576C200.705 660.936 201.245 661.452 201.653 662.124C202.061 662.796 202.265 663.672 202.265 664.752V674.328C202.265 675.048 202.301 675.576 202.373 675.912C202.469 676.248 202.757 676.416 203.237 676.416C203.501 676.416 203.813 676.356 204.173 676.236V678.612ZM199.205 669.072C198.821 669.36 198.317 669.576 197.693 669.72C197.069 669.84 196.409 669.948 195.713 670.044C195.041 670.116 194.357 670.212 193.661 670.332C192.965 670.428 192.341 670.596 191.789 670.836C191.237 671.076 190.781 671.424 190.421 671.88C190.085 672.312 189.917 672.912 189.917 673.68C189.917 674.184 190.013 674.616 190.205 674.976C190.421 675.312 190.685 675.588 190.997 675.804C191.333 676.02 191.717 676.176 192.149 676.272C192.581 676.368 193.037 676.416 193.517 676.416C194.525 676.416 195.389 676.284 196.109 676.02C196.829 675.732 197.417 675.384 197.873 674.976C198.329 674.544 198.665 674.088 198.881 673.608C199.097 673.104 199.205 672.636 199.205 672.204V669.072ZM206.157 660.072H209.037V663.996H209.109C209.853 662.484 210.765 661.368 211.845 660.648C212.925 659.928 214.293 659.592 215.949 659.64V662.88C214.725 662.88 213.681 663.048 212.817 663.384C211.953 663.72 211.257 664.212 210.729 664.86C210.201 665.508 209.817 666.3 209.577 667.236C209.337 668.148 209.217 669.204 209.217 670.404V678.684H206.157V660.072ZM112.824 688.98H116.244V700.032H129.78V688.98H133.2V714.684H129.78V702.912H116.244V714.684H112.824V688.98ZM139.776 705.396C139.776 706.524 139.92 707.532 140.208 708.42C140.52 709.284 140.94 710.016 141.468 710.616C141.996 711.192 142.608 711.636 143.304 711.948C144.024 712.26 144.78 712.416 145.572 712.416C146.364 712.416 147.108 712.26 147.804 711.948C148.524 711.636 149.148 711.192 149.676 710.616C150.204 710.016 150.612 709.284 150.9 708.42C151.212 707.532 151.368 706.524 151.368 705.396C151.368 704.268 151.212 703.272 150.9 702.408C150.612 701.52 150.204 700.776 149.676 700.176C149.148 699.576 148.524 699.12 147.804 698.808C147.108 698.496 146.364 698.34 145.572 698.34C144.78 698.34 144.024 698.496 143.304 698.808C142.608 699.12 141.996 699.576 141.468 700.176C140.94 700.776 140.52 701.52 140.208 702.408C139.92 703.272 139.776 704.268 139.776 705.396ZM136.536 705.396C136.536 704.028 136.728 702.756 137.112 701.58C137.496 700.38 138.072 699.348 138.84 698.484C139.608 697.596 140.556 696.9 141.684 696.396C142.812 695.892 144.108 695.64 145.572 695.64C147.06 695.64 148.356 695.892 149.46 696.396C150.588 696.9 151.536 697.596 152.304 698.484C153.072 699.348 153.648 700.38 154.032 701.58C154.416 702.756 154.608 704.028 154.608 705.396C154.608 706.764 154.416 708.036 154.032 709.212C153.648 710.388 153.072 711.42 152.304 712.308C151.536 713.172 150.588 713.856 149.46 714.36C148.356 714.84 147.06 715.08 145.572 715.08C144.108 715.08 142.812 714.84 141.684 714.36C140.556 713.856 139.608 713.172 138.84 712.308C138.072 711.42 137.496 710.388 137.112 709.212C136.728 708.036 136.536 706.764 136.536 705.396ZM159.332 708.816C159.356 709.488 159.512 710.064 159.8 710.544C160.088 711 160.46 711.372 160.916 711.66C161.396 711.924 161.924 712.116 162.5 712.236C163.1 712.356 163.712 712.416 164.336 712.416C164.816 712.416 165.32 712.38 165.848 712.308C166.376 712.236 166.856 712.104 167.288 711.912C167.744 711.72 168.116 711.444 168.404 711.084C168.692 710.7 168.836 710.22 168.836 709.644C168.836 708.852 168.536 708.252 167.936 707.844C167.336 707.436 166.58 707.112 165.668 706.872C164.78 706.608 163.808 706.38 162.752 706.188C161.696 705.972 160.712 705.684 159.8 705.324C158.912 704.94 158.168 704.412 157.568 703.74C156.968 703.068 156.668 702.132 156.668 700.932C156.668 699.996 156.872 699.192 157.28 698.52C157.712 697.848 158.252 697.308 158.9 696.9C159.572 696.468 160.316 696.156 161.132 695.964C161.972 695.748 162.8 695.64 163.616 695.64C164.672 695.64 165.644 695.736 166.532 695.928C167.42 696.096 168.2 696.408 168.872 696.864C169.568 697.296 170.12 697.896 170.528 698.664C170.936 699.408 171.176 700.344 171.248 701.472H168.188C168.14 700.872 167.984 700.38 167.72 699.996C167.456 699.588 167.12 699.264 166.712 699.024C166.304 698.784 165.848 698.616 165.344 698.52C164.864 698.4 164.372 698.34 163.868 698.34C163.412 698.34 162.944 698.376 162.464 698.448C162.008 698.52 161.588 698.652 161.204 698.844C160.82 699.012 160.508 699.252 160.268 699.564C160.028 699.852 159.908 700.236 159.908 700.716C159.908 701.244 160.088 701.688 160.448 702.048C160.832 702.384 161.312 702.672 161.888 702.912C162.464 703.128 163.112 703.32 163.832 703.488C164.552 703.632 165.272 703.788 165.992 703.956C166.76 704.124 167.504 704.328 168.224 704.568C168.968 704.808 169.616 705.132 170.168 705.54C170.744 705.924 171.2 706.416 171.536 707.016C171.896 707.616 172.076 708.36 172.076 709.248C172.076 710.376 171.836 711.312 171.356 712.056C170.9 712.8 170.288 713.4 169.52 713.856C168.776 714.312 167.924 714.624 166.964 714.792C166.028 714.984 165.092 715.08 164.156 715.08C163.124 715.08 162.14 714.972 161.204 714.756C160.268 714.54 159.44 714.192 158.72 713.712C158 713.208 157.424 712.56 156.992 711.768C156.56 710.952 156.32 709.968 156.272 708.816H159.332ZM178.952 696.072H182.66V698.772H178.952V710.328C178.952 710.688 178.976 710.976 179.024 711.192C179.096 711.408 179.216 711.576 179.384 711.696C179.552 711.816 179.78 711.9 180.068 711.948C180.38 711.972 180.776 711.984 181.256 711.984H182.66V714.684H180.32C179.528 714.684 178.844 714.636 178.268 714.54C177.716 714.42 177.26 714.216 176.9 713.928C176.564 713.64 176.312 713.232 176.144 712.704C175.976 712.176 175.892 711.48 175.892 710.616V698.772H172.724V696.072H175.892V690.492H178.952V696.072ZM187.175 708.816C187.199 709.488 187.355 710.064 187.643 710.544C187.931 711 188.303 711.372 188.759 711.66C189.239 711.924 189.767 712.116 190.343 712.236C190.943 712.356 191.555 712.416 192.179 712.416C192.659 712.416 193.163 712.38 193.691 712.308C194.219 712.236 194.699 712.104 195.131 711.912C195.587 711.72 195.959 711.444 196.247 711.084C196.535 710.7 196.679 710.22 196.679 709.644C196.679 708.852 196.379 708.252 195.779 707.844C195.179 707.436 194.423 707.112 193.511 706.872C192.623 706.608 191.651 706.38 190.595 706.188C189.539 705.972 188.555 705.684 187.643 705.324C186.755 704.94 186.011 704.412 185.411 703.74C184.811 703.068 184.511 702.132 184.511 700.932C184.511 699.996 184.715 699.192 185.123 698.52C185.555 697.848 186.095 697.308 186.743 696.9C187.415 696.468 188.159 696.156 188.975 695.964C189.815 695.748 190.643 695.64 191.459 695.64C192.515 695.64 193.487 695.736 194.375 695.928C195.263 696.096 196.043 696.408 196.715 696.864C197.411 697.296 197.963 697.896 198.371 698.664C198.779 699.408 199.019 700.344 199.091 701.472H196.031C195.983 700.872 195.827 700.38 195.563 699.996C195.299 699.588 194.963 699.264 194.555 699.024C194.147 698.784 193.691 698.616 193.187 698.52C192.707 698.4 192.215 698.34 191.711 698.34C191.255 698.34 190.787 698.376 190.307 698.448C189.851 698.52 189.431 698.652 189.047 698.844C188.663 699.012 188.351 699.252 188.111 699.564C187.871 699.852 187.751 700.236 187.751 700.716C187.751 701.244 187.931 701.688 188.291 702.048C188.675 702.384 189.155 702.672 189.731 702.912C190.307 703.128 190.955 703.32 191.675 703.488C192.395 703.632 193.115 703.788 193.835 703.956C194.603 704.124 195.347 704.328 196.067 704.568C196.811 704.808 197.459 705.132 198.011 705.54C198.587 705.924 199.043 706.416 199.379 707.016C199.739 707.616 199.919 708.36 199.919 709.248C199.919 710.376 199.679 711.312 199.199 712.056C198.743 712.8 198.131 713.4 197.363 713.856C196.619 714.312 195.767 714.624 194.807 714.792C193.871 714.984 192.935 715.08 191.999 715.08C190.967 715.08 189.983 714.972 189.047 714.756C188.111 714.54 187.283 714.192 186.563 713.712C185.843 713.208 185.267 712.56 184.835 711.768C184.403 710.952 184.163 709.968 184.115 708.816H187.175Z" fill="currentColor"/>
<path fill-rule="evenodd" clip-rule="evenodd" d="M661.009 203.232C663.158 201.063 664.485 198.079 664.485 194.785C664.485 188.158 659.113 182.785 652.485 182.785C645.858 182.785 640.485 188.158 640.485 194.785C640.485 200.595 644.615 205.441 650.099 206.548C650.848 206.971 651.628 207.394 652.377 207.801C654.249 208.817 655.931 209.731 656.485 210.285C657.485 211.285 658.031 212.271 658.485 213.785C659.082 215.774 659.986 218.568 660.985 221.464C657.305 221.873 654.317 222.467 652.587 222.81L652.586 222.81C651.749 222.976 651.207 223.084 651.023 223.084C650.411 223.084 647.132 220.717 644.691 218.956C644.223 218.618 643.786 218.303 643.405 218.03C641.245 214.864 637.608 212.785 633.485 212.785C626.858 212.785 621.485 218.158 621.485 224.785C621.485 231.413 626.858 236.785 633.485 236.785C638.609 236.785 642.982 233.574 644.703 229.055C645.928 230.285 649.14 230.285 651.481 230.285L664.137 229.963C664.606 231.108 665.046 232.106 665.432 232.878C668.173 238.36 672.774 247.213 675.554 251.905C679.094 257.878 681.985 261.785 687.485 262.785C683.895 254.101 678.455 240.94 673.82 229.717L710.481 228.785C707.445 223.051 686.978 220.755 670.216 220.989C667.347 214.037 665.274 209.006 664.985 208.285C664.355 206.71 662.444 204.619 661.009 203.232ZM652.485 202.785C656.904 202.785 660.485 199.203 660.485 194.785C660.485 190.367 656.904 186.785 652.485 186.785C648.067 186.785 644.485 190.367 644.485 194.785C644.485 199.203 648.067 202.785 652.485 202.785ZM641.485 224.785C641.485 229.203 637.904 232.785 633.485 232.785C629.067 232.785 625.485 229.203 625.485 224.785C625.485 220.367 629.067 216.785 633.485 216.785C637.904 216.785 641.485 220.367 641.485 224.785Z" fill="currentColor"/>
<path d="M581.075 291.165H589.787L585.503 279.177H585.431L581.075 291.165ZM583.631 276.081H587.411L597.455 301.785H593.675L590.867 294.045H579.995L577.115 301.785H573.623L583.631 276.081ZM600.963 292.641C600.963 293.505 601.071 294.357 601.287 295.197C601.527 296.013 601.875 296.745 602.331 297.393C602.811 298.041 603.411 298.557 604.131 298.941C604.875 299.325 605.739 299.517 606.723 299.517C607.755 299.517 608.631 299.313 609.351 298.905C610.071 298.497 610.659 297.969 611.115 297.321C611.571 296.649 611.895 295.893 612.087 295.053C612.303 294.213 612.411 293.361 612.411 292.497C612.411 291.585 612.303 290.709 612.087 289.869C611.871 289.005 611.523 288.249 611.043 287.601C610.587 286.953 609.987 286.437 609.243 286.053C608.499 285.645 607.599 285.441 606.543 285.441C605.511 285.441 604.635 285.645 603.915 286.053C603.195 286.461 602.619 287.001 602.187 287.673C601.755 288.345 601.443 289.113 601.251 289.977C601.059 290.841 600.963 291.729 600.963 292.641ZM615.363 301.785H612.303V299.265H612.231C611.727 300.297 610.935 301.041 609.855 301.497C608.775 301.953 607.587 302.181 606.291 302.181C604.851 302.181 603.591 301.917 602.511 301.389C601.455 300.861 600.567 300.153 599.847 299.265C599.151 298.377 598.623 297.345 598.263 296.169C597.903 294.993 597.723 293.745 597.723 292.425C597.723 291.105 597.891 289.857 598.227 288.681C598.587 287.505 599.115 286.485 599.811 285.621C600.531 284.733 601.419 284.037 602.475 283.533C603.555 283.005 604.803 282.741 606.219 282.741C606.699 282.741 607.215 282.789 607.767 282.885C608.319 282.981 608.871 283.149 609.423 283.389C609.975 283.605 610.491 283.905 610.971 284.289C611.475 284.649 611.895 285.105 612.231 285.657H612.303V276.081H615.363V301.785ZM629.226 276.081H632.646V301.785H629.226V276.081ZM637.139 283.173H640.019V286.125H640.091C641.363 283.869 643.379 282.741 646.139 282.741C647.363 282.741 648.383 282.909 649.199 283.245C650.015 283.581 650.675 284.049 651.179 284.649C651.683 285.249 652.031 285.969 652.223 286.809C652.439 287.625 652.547 288.537 652.547 289.545V301.785H649.487V289.185C649.487 288.033 649.151 287.121 648.479 286.449C647.807 285.777 646.883 285.441 645.707 285.441C644.771 285.441 643.955 285.585 643.259 285.873C642.587 286.161 642.023 286.569 641.567 287.097C641.111 287.625 640.763 288.249 640.523 288.969C640.307 289.665 640.199 290.433 640.199 291.273V301.785H637.139V283.173ZM658.259 295.917C658.283 296.589 658.439 297.165 658.727 297.645C659.015 298.101 659.387 298.473 659.843 298.761C660.323 299.025 660.851 299.217 661.427 299.337C662.027 299.457 662.639 299.517 663.263 299.517C663.743 299.517 664.247 299.481 664.775 299.409C665.303 299.337 665.783 299.205 666.215 299.013C666.671 298.821 667.043 298.545 667.331 298.185C667.619 297.801 667.763 297.321 667.763 296.745C667.763 295.953 667.463 295.353 666.863 294.945C666.263 294.537 665.507 294.213 664.595 293.973C663.707 293.709 662.735 293.481 661.679 293.289C660.623 293.073 659.639 292.785 658.727 292.425C657.839 292.041 657.095 291.513 656.495 290.841C655.895 290.169 655.595 289.233 655.595 288.033C655.595 287.097 655.799 286.293 656.207 285.621C656.639 284.949 657.179 284.409 657.827 284.001C658.499 283.569 659.243 283.257 660.059 283.065C660.899 282.849 661.727 282.741 662.543 282.741C663.599 282.741 664.571 282.837 665.459 283.029C666.347 283.197 667.127 283.509 667.799 283.965C668.495 284.397 669.047 284.997 669.455 285.765C669.863 286.509 670.103 287.445 670.175 288.573H667.115C667.067 287.973 666.911 287.481 666.647 287.097C666.383 286.689 666.047 286.365 665.639 286.125C665.231 285.885 664.775 285.717 664.271 285.621C663.791 285.501 663.299 285.441 662.795 285.441C662.339 285.441 661.871 285.477 661.391 285.549C660.935 285.621 660.515 285.753 660.131 285.945C659.747 286.113 659.435 286.353 659.195 286.665C658.955 286.953 658.835 287.337 658.835 287.817C658.835 288.345 659.015 288.789 659.375 289.149C659.759 289.485 660.239 289.773 660.815 290.013C661.391 290.229 662.039 290.421 662.759 290.589C663.479 290.733 664.199 290.889 664.919 291.057C665.687 291.225 666.431 291.429 667.151 291.669C667.895 291.909 668.543 292.233 669.095 292.641C669.671 293.025 670.127 293.517 670.463 294.117C670.823 294.717 671.003 295.461 671.003 296.349C671.003 297.477 670.763 298.413 670.283 299.157C669.827 299.901 669.215 300.501 668.447 300.957C667.703 301.413 666.851 301.725 665.891 301.893C664.955 302.085 664.019 302.181 663.083 302.181C662.051 302.181 661.067 302.073 660.131 301.857C659.195 301.641 658.367 301.293 657.647 300.813C656.927 300.309 656.351 299.661 655.919 298.869C655.487 298.053 655.247 297.069 655.199 295.917H658.259ZM686.555 290.697C686.507 289.977 686.339 289.293 686.051 288.645C685.787 287.997 685.415 287.445 684.935 286.989C684.479 286.509 683.927 286.137 683.279 285.873C682.655 285.585 681.959 285.441 681.191 285.441C680.399 285.441 679.679 285.585 679.031 285.873C678.407 286.137 677.867 286.509 677.411 286.989C676.955 287.469 676.595 288.033 676.331 288.681C676.067 289.305 675.911 289.977 675.863 290.697H686.555ZM689.507 295.881C689.099 297.969 688.199 299.541 686.807 300.597C685.415 301.653 683.663 302.181 681.551 302.181C680.063 302.181 678.767 301.941 677.663 301.461C676.583 300.981 675.671 300.309 674.927 299.445C674.183 298.581 673.619 297.549 673.235 296.349C672.875 295.149 672.671 293.841 672.623 292.425C672.623 291.009 672.839 289.713 673.271 288.537C673.703 287.361 674.303 286.341 675.071 285.477C675.863 284.613 676.787 283.941 677.843 283.461C678.923 282.981 680.099 282.741 681.371 282.741C683.027 282.741 684.395 283.089 685.475 283.785C686.579 284.457 687.455 285.321 688.103 286.377C688.775 287.433 689.231 288.585 689.471 289.833C689.735 291.081 689.843 292.269 689.795 293.397H675.863C675.839 294.213 675.935 294.993 676.151 295.737C676.367 296.457 676.715 297.105 677.195 297.681C677.675 298.233 678.287 298.677 679.031 299.013C679.775 299.349 680.651 299.517 681.659 299.517C682.955 299.517 684.011 299.217 684.827 298.617C685.667 298.017 686.219 297.105 686.483 295.881H689.507ZM692.103 283.173H694.983V287.097H695.055C695.799 285.585 696.711 284.469 697.791 283.749C698.871 283.029 700.239 282.693 701.895 282.741V285.981C700.671 285.981 699.627 286.149 698.763 286.485C697.899 286.821 697.203 287.313 696.675 287.961C696.147 288.609 695.763 289.401 695.523 290.337C695.283 291.249 695.163 292.305 695.163 293.505V301.785H692.103V283.173ZM707.691 283.173H711.399V285.873H707.691V297.429C707.691 297.789 707.715 298.077 707.763 298.293C707.835 298.509 707.955 298.677 708.123 298.797C708.291 298.917 708.519 299.001 708.807 299.049C709.119 299.073 709.515 299.085 709.995 299.085H711.399V301.785H709.059C708.267 301.785 707.583 301.737 707.007 301.641C706.455 301.521 705.999 301.317 705.639 301.029C705.303 300.741 705.051 300.333 704.883 299.805C704.715 299.277 704.631 298.581 704.631 297.717V285.873H701.463V283.173H704.631V277.593H707.691V283.173ZM717.282 279.825H714.222V276.081H717.282V279.825ZM714.222 283.173H717.282V301.785H714.222V283.173ZM723.499 292.497C723.499 293.625 723.643 294.633 723.931 295.521C724.243 296.385 724.663 297.117 725.191 297.717C725.719 298.293 726.331 298.737 727.027 299.049C727.747 299.361 728.503 299.517 729.295 299.517C730.087 299.517 730.831 299.361 731.527 299.049C732.247 298.737 732.871 298.293 733.399 297.717C733.927 297.117 734.335 296.385 734.623 295.521C734.935 294.633 735.091 293.625 735.091 292.497C735.091 291.369 734.935 290.373 734.623 289.509C734.335 288.621 733.927 287.877 733.399 287.277C732.871 286.677 732.247 286.221 731.527 285.909C730.831 285.597 730.087 285.441 729.295 285.441C728.503 285.441 727.747 285.597 727.027 285.909C726.331 286.221 725.719 286.677 725.191 287.277C724.663 287.877 724.243 288.621 723.931 289.509C723.643 290.373 723.499 291.369 723.499 292.497ZM720.259 292.497C720.259 291.129 720.451 289.857 720.835 288.681C721.219 287.481 721.795 286.449 722.563 285.585C723.331 284.697 724.279 284.001 725.407 283.497C726.535 282.993 727.831 282.741 729.295 282.741C730.783 282.741 732.079 282.993 733.183 283.497C734.311 284.001 735.259 284.697 736.027 285.585C736.795 286.449 737.371 287.481 737.755 288.681C738.139 289.857 738.331 291.129 738.331 292.497C738.331 293.865 738.139 295.137 737.755 296.313C737.371 297.489 736.795 298.521 736.027 299.409C735.259 300.273 734.311 300.957 733.183 301.461C732.079 301.941 730.783 302.181 729.295 302.181C727.831 302.181 726.535 301.941 725.407 301.461C724.279 300.957 723.331 300.273 722.563 299.409C721.795 298.521 721.219 297.489 720.835 296.313C720.451 295.137 720.259 293.865 720.259 292.497ZM741.183 283.173H744.063V286.125H744.135C745.407 283.869 747.423 282.741 750.183 282.741C751.407 282.741 752.427 282.909 753.243 283.245C754.059 283.581 754.719 284.049 755.223 284.649C755.727 285.249 756.075 285.969 756.267 286.809C756.483 287.625 756.591 288.537 756.591 289.545V301.785H753.531V289.185C753.531 288.033 753.195 287.121 752.523 286.449C751.851 285.777 750.927 285.441 749.751 285.441C748.815 285.441 747.999 285.585 747.303 285.873C746.631 286.161 746.067 286.569 745.611 287.097C745.155 287.625 744.807 288.249 744.567 288.969C744.351 289.665 744.243 290.433 744.243 291.273V301.785H741.183V283.173ZM633.553 319.605C633.361 317.757 632.689 316.425 631.537 315.609C630.409 314.769 628.957 314.349 627.181 314.349C626.461 314.349 625.753 314.421 625.057 314.565C624.361 314.709 623.737 314.949 623.185 315.285C622.657 315.621 622.225 316.077 621.889 316.653C621.577 317.205 621.421 317.901 621.421 318.741C621.421 319.533 621.649 320.181 622.105 320.685C622.585 321.165 623.209 321.561 623.977 321.873C624.769 322.185 625.657 322.449 626.641 322.665C627.625 322.857 628.621 323.073 629.629 323.313C630.661 323.553 631.669 323.841 632.653 324.177C633.637 324.489 634.513 324.921 635.281 325.473C636.073 326.025 636.697 326.721 637.153 327.561C637.633 328.401 637.873 329.457 637.873 330.729C637.873 332.097 637.561 333.273 636.937 334.257C636.337 335.217 635.557 336.009 634.597 336.633C633.637 337.233 632.557 337.665 631.357 337.929C630.181 338.217 629.005 338.361 627.829 338.361C626.389 338.361 625.021 338.181 623.725 337.821C622.453 337.461 621.325 336.921 620.341 336.201C619.381 335.457 618.613 334.521 618.037 333.393C617.485 332.241 617.209 330.885 617.209 329.325H620.449C620.449 330.405 620.653 331.341 621.061 332.133C621.493 332.901 622.045 333.537 622.717 334.041C623.413 334.545 624.217 334.917 625.129 335.157C626.041 335.397 626.977 335.517 627.937 335.517C628.705 335.517 629.473 335.445 630.241 335.301C631.033 335.157 631.741 334.917 632.365 334.581C632.989 334.221 633.493 333.741 633.877 333.141C634.261 332.541 634.453 331.773 634.453 330.837C634.453 329.949 634.213 329.229 633.733 328.677C633.277 328.125 632.653 327.681 631.861 327.345C631.093 326.985 630.217 326.697 629.233 326.481C628.249 326.265 627.241 326.049 626.209 325.833C625.201 325.593 624.205 325.329 623.221 325.041C622.237 324.729 621.349 324.333 620.557 323.853C619.789 323.349 619.165 322.713 618.685 321.945C618.229 321.153 618.001 320.169 618.001 318.993C618.001 317.697 618.265 316.581 618.793 315.645C619.321 314.685 620.017 313.905 620.881 313.305C621.769 312.681 622.765 312.225 623.869 311.937C624.997 311.625 626.149 311.469 627.325 311.469C628.645 311.469 629.869 311.625 630.997 311.937C632.125 312.249 633.109 312.741 633.949 313.413C634.813 314.085 635.485 314.937 635.965 315.969C636.469 316.977 636.745 318.189 636.793 319.605H633.553ZM653.693 326.697C653.645 325.977 653.477 325.293 653.189 324.645C652.925 323.997 652.553 323.445 652.073 322.989C651.617 322.509 651.065 322.137 650.417 321.873C649.793 321.585 649.097 321.441 648.329 321.441C647.537 321.441 646.817 321.585 646.169 321.873C645.545 322.137 645.005 322.509 644.549 322.989C644.093 323.469 643.733 324.033 643.469 324.681C643.205 325.305 643.049 325.977 643.001 326.697H653.693ZM656.645 331.881C656.237 333.969 655.337 335.541 653.945 336.597C652.553 337.653 650.801 338.181 648.689 338.181C647.201 338.181 645.905 337.941 644.801 337.461C643.721 336.981 642.809 336.309 642.065 335.445C641.321 334.581 640.757 333.549 640.373 332.349C640.013 331.149 639.809 329.841 639.761 328.425C639.761 327.009 639.977 325.713 640.409 324.537C640.841 323.361 641.441 322.341 642.209 321.477C643.001 320.613 643.925 319.941 644.981 319.461C646.061 318.981 647.237 318.741 648.509 318.741C650.165 318.741 651.533 319.089 652.613 319.785C653.717 320.457 654.593 321.321 655.241 322.377C655.913 323.433 656.369 324.585 656.609 325.833C656.873 327.081 656.981 328.269 656.933 329.397H643.001C642.977 330.213 643.073 330.993 643.289 331.737C643.505 332.457 643.853 333.105 644.333 333.681C644.813 334.233 645.425 334.677 646.169 335.013C646.913 335.349 647.789 335.517 648.797 335.517C650.093 335.517 651.149 335.217 651.965 334.617C652.805 334.017 653.357 333.105 653.621 331.881H656.645ZM659.241 319.173H662.121V323.097H662.193C662.937 321.585 663.849 320.469 664.929 319.749C666.009 319.029 667.377 318.693 669.033 318.741V321.981C667.809 321.981 666.765 322.149 665.901 322.485C665.037 322.821 664.341 323.313 663.813 323.961C663.285 324.609 662.901 325.401 662.661 326.337C662.421 327.249 662.301 328.305 662.301 329.505V337.785H659.241V319.173ZM678.969 337.785H675.693L668.781 319.173H672.201L677.421 334.689H677.493L682.569 319.173H685.773L678.969 337.785ZM700.749 326.697C700.701 325.977 700.533 325.293 700.245 324.645C699.981 323.997 699.609 323.445 699.129 322.989C698.673 322.509 698.121 322.137 697.473 321.873C696.849 321.585 696.153 321.441 695.385 321.441C694.593 321.441 693.873 321.585 693.225 321.873C692.601 322.137 692.061 322.509 691.605 322.989C691.149 323.469 690.789 324.033 690.525 324.681C690.261 325.305 690.105 325.977 690.057 326.697H700.749ZM703.701 331.881C703.293 333.969 702.393 335.541 701.001 336.597C699.609 337.653 697.857 338.181 695.745 338.181C694.257 338.181 692.961 337.941 691.857 337.461C690.777 336.981 689.865 336.309 689.121 335.445C688.377 334.581 687.813 333.549 687.429 332.349C687.069 331.149 686.865 329.841 686.817 328.425C686.817 327.009 687.033 325.713 687.465 324.537C687.897 323.361 688.497 322.341 689.265 321.477C690.057 320.613 690.981 319.941 692.037 319.461C693.117 318.981 694.293 318.741 695.565 318.741C697.221 318.741 698.589 319.089 699.669 319.785C700.773 320.457 701.649 321.321 702.297 322.377C702.969 323.433 703.425 324.585 703.665 325.833C703.929 327.081 704.037 328.269 703.989 329.397H690.057C690.033 330.213 690.129 330.993 690.345 331.737C690.561 332.457 690.909 333.105 691.389 333.681C691.869 334.233 692.481 334.677 693.225 335.013C693.969 335.349 694.845 335.517 695.853 335.517C697.149 335.517 698.205 335.217 699.021 334.617C699.861 334.017 700.413 333.105 700.677 331.881H703.701ZM706.297 319.173H709.177V323.097H709.249C709.993 321.585 710.905 320.469 711.985 319.749C713.065 319.029 714.433 318.693 716.089 318.741V321.981C714.865 321.981 713.821 322.149 712.957 322.485C712.093 322.821 711.397 323.313 710.869 323.961C710.341 324.609 709.957 325.401 709.717 326.337C709.477 327.249 709.357 328.305 709.357 329.505V337.785H706.297V319.173Z" fill="currentColor"/>
</g>
<defs>
<clipPath id="clip0_360_907">
<rect width="762" height="727" fill="white" transform="translate(0.815918 0.785156)"/>
</clipPath>
</defs>
</svg>
