<svg width="474" height="211" viewBox="0 0 474 211" fill="none" xmlns="http://www.w3.org/2000/svg">
<circle cx="248" cy="171" r="16" fill="#757575"/>
<circle cx="56" cy="46" r="16" fill="#757575"/>
<circle cx="184" cy="46" r="16" fill="#757575"/>
<circle cx="312" cy="46" r="16" fill="#757575"/>
<circle cx="440" cy="46" r="16" fill="#757575"/>
<path d="M246.5 151C246.5 151.828 247.172 152.5 248 152.5C248.828 152.5 249.5 151.828 249.5 151H246.5ZM57.0607 64.9393C56.4749 64.3536 55.5251 64.3536 54.9393 64.9393L45.3934 74.4853C44.8076 75.0711 44.8076 76.0208 45.3934 76.6066C45.9792 77.1924 46.9289 77.1924 47.5147 76.6066L56 68.1213L64.4853 76.6066C65.0711 77.1924 66.0208 77.1924 66.6066 76.6066C67.1924 76.0208 67.1924 75.0711 66.6066 74.4853L57.0607 64.9393ZM249.5 151V132.5H246.5V151H249.5ZM224 107H80V110H224V107ZM57.5 84.5V66H54.5V84.5H57.5ZM80 107C67.5736 107 57.5 96.9264 57.5 84.5H54.5C54.5 98.5833 65.9167 110 80 110V107ZM249.5 132.5C249.5 118.417 238.083 107 224 107V110C236.426 110 246.5 120.074 246.5 132.5H249.5Z" fill="#757575"/>
<path d="M246.5 151C246.5 151.828 247.172 152.5 248 152.5C248.828 152.5 249.5 151.828 249.5 151H246.5ZM185.061 64.9393C184.475 64.3536 183.525 64.3536 182.939 64.9393L173.393 74.4853C172.808 75.0711 172.808 76.0208 173.393 76.6066C173.979 77.1924 174.929 77.1924 175.515 76.6066L184 68.1213L192.485 76.6066C193.071 77.1924 194.021 77.1924 194.607 76.6066C195.192 76.0208 195.192 75.0711 194.607 74.4853L185.061 64.9393ZM249.5 151V132.5H246.5V151H249.5ZM224 107H208V110H224V107ZM185.5 84.5V66H182.5V84.5H185.5ZM208 107C195.574 107 185.5 96.9264 185.5 84.5H182.5C182.5 98.5833 193.917 110 208 110V107ZM249.5 132.5C249.5 118.417 238.083 107 224 107V110C236.426 110 246.5 120.074 246.5 132.5H249.5Z" fill="#757575"/>
<path d="M246.5 151C246.5 151.828 247.172 152.5 248 152.5C248.828 152.5 249.5 151.828 249.5 151H246.5ZM313.061 64.9393C312.475 64.3536 311.525 64.3536 310.939 64.9393L301.393 74.4853C300.808 75.0711 300.808 76.0208 301.393 76.6066C301.979 77.1924 302.929 77.1924 303.515 76.6066L312 68.1213L320.485 76.6066C321.071 77.1924 322.021 77.1924 322.607 76.6066C323.192 76.0208 323.192 75.0711 322.607 74.4853L313.061 64.9393ZM249.5 151V132.5H246.5V151H249.5ZM272 110H288V107H272V110ZM313.5 84.5V66H310.5V84.5H313.5ZM288 110C302.083 110 313.5 98.5833 313.5 84.5H310.5C310.5 96.9264 300.426 107 288 107V110ZM249.5 132.5C249.5 120.074 259.574 110 272 110V107C257.917 107 246.5 118.417 246.5 132.5H249.5Z" fill="#757575"/>
<path d="M246.5 151C246.5 151.828 247.172 152.5 248 152.5C248.828 152.5 249.5 151.828 249.5 151H246.5ZM441.061 64.9393C440.475 64.3536 439.525 64.3536 438.939 64.9393L429.393 74.4853C428.808 75.0711 428.808 76.0208 429.393 76.6066C429.979 77.1924 430.929 77.1924 431.515 76.6066L440 68.1213L448.485 76.6066C449.071 77.1924 450.021 77.1924 450.607 76.6066C451.192 76.0208 451.192 75.0711 450.607 74.4853L441.061 64.9393ZM249.5 151V132.5H246.5V151H249.5ZM272 110H416V107H272V110ZM441.5 84.5V66H438.5V84.5H441.5ZM416 110C430.083 110 441.5 98.5833 441.5 84.5H438.5C438.5 96.9264 428.426 107 416 107V110ZM249.5 132.5C249.5 120.074 259.574 110 272 110V107C257.917 107 246.5 118.417 246.5 132.5H249.5Z" fill="#757575"/>
<path d="M218.647 205V193.727H222.718C223.837 193.727 224.793 193.948 225.585 194.391C226.376 194.833 226.981 195.471 227.397 196.305C227.819 197.138 228.03 198.146 228.03 199.328V199.344C228.03 200.536 227.819 201.555 227.397 202.398C226.981 203.242 226.376 203.888 225.585 204.336C224.798 204.779 223.843 205 222.718 205H218.647ZM220.397 203.484H222.522C223.309 203.484 223.978 203.323 224.53 203C225.087 202.677 225.509 202.208 225.796 201.594C226.087 200.979 226.233 200.237 226.233 199.367V199.352C226.233 198.487 226.085 197.747 225.788 197.133C225.496 196.518 225.074 196.049 224.522 195.727C223.97 195.404 223.303 195.242 222.522 195.242H220.397V203.484ZM230.049 205V196.516H231.752V205H230.049ZM230.909 195C230.617 195 230.367 194.896 230.159 194.688C229.95 194.479 229.846 194.229 229.846 193.938C229.846 193.646 229.95 193.398 230.159 193.195C230.367 192.987 230.617 192.883 230.909 192.883C231.2 192.883 231.45 192.987 231.659 193.195C231.867 193.398 231.971 193.646 231.971 193.938C231.971 194.229 231.867 194.479 231.659 194.688C231.45 194.896 231.2 195 230.909 195ZM234.037 205V196.516H235.733V197.797H235.866C236.017 197.344 236.282 196.992 236.662 196.742C237.048 196.492 237.522 196.367 238.084 196.367C238.225 196.367 238.363 196.375 238.498 196.391C238.634 196.406 238.743 196.424 238.826 196.445V198.008C238.675 197.977 238.524 197.953 238.373 197.938C238.228 197.922 238.074 197.914 237.912 197.914C237.48 197.914 237.1 197.997 236.772 198.164C236.449 198.331 236.194 198.565 236.006 198.867C235.824 199.164 235.733 199.518 235.733 199.93V205H234.037ZM243.627 205.164C242.799 205.164 242.088 204.987 241.494 204.633C240.9 204.273 240.442 203.766 240.119 203.109C239.802 202.453 239.643 201.677 239.643 200.781V200.773C239.643 199.888 239.802 199.115 240.119 198.453C240.442 197.792 240.895 197.276 241.479 196.906C242.067 196.536 242.755 196.352 243.541 196.352C244.333 196.352 245.012 196.529 245.58 196.883C246.153 197.237 246.593 197.734 246.9 198.375C247.208 199.01 247.361 199.755 247.361 200.609V201.203H240.502V199.992H246.518L245.705 201.117V200.438C245.705 199.833 245.611 199.333 245.424 198.938C245.242 198.536 244.989 198.237 244.666 198.039C244.343 197.841 243.971 197.742 243.549 197.742C243.127 197.742 242.749 197.846 242.416 198.055C242.088 198.258 241.828 198.56 241.635 198.961C241.447 199.362 241.354 199.854 241.354 200.438V201.117C241.354 201.674 241.447 202.151 241.635 202.547C241.822 202.943 242.088 203.245 242.432 203.453C242.781 203.661 243.192 203.766 243.666 203.766C244.031 203.766 244.343 203.716 244.604 203.617C244.869 203.513 245.085 203.385 245.252 203.234C245.424 203.083 245.541 202.935 245.604 202.789L245.635 202.727H247.275L247.26 202.797C247.187 203.078 247.059 203.359 246.877 203.641C246.695 203.917 246.453 204.169 246.15 204.398C245.854 204.628 245.494 204.812 245.072 204.953C244.656 205.094 244.174 205.164 243.627 205.164ZM252.771 205.164C251.948 205.164 251.238 204.987 250.639 204.633C250.045 204.273 249.586 203.763 249.264 203.102C248.941 202.44 248.779 201.651 248.779 200.734V200.719C248.779 199.818 248.938 199.042 249.256 198.391C249.579 197.74 250.037 197.237 250.631 196.883C251.23 196.529 251.941 196.352 252.764 196.352C253.477 196.352 254.089 196.477 254.599 196.727C255.115 196.971 255.524 197.31 255.826 197.742C256.133 198.169 256.326 198.656 256.404 199.203L256.412 199.242H254.779L254.771 199.227C254.678 198.81 254.461 198.464 254.123 198.188C253.784 197.906 253.334 197.766 252.771 197.766C252.303 197.766 251.899 197.885 251.56 198.125C251.222 198.359 250.961 198.698 250.779 199.141C250.602 199.583 250.514 200.109 250.514 200.719V200.734C250.514 201.359 250.605 201.896 250.787 202.344C250.969 202.792 251.23 203.138 251.568 203.383C251.907 203.622 252.308 203.742 252.771 203.742C253.303 203.742 253.732 203.625 254.06 203.391C254.394 203.156 254.628 202.81 254.764 202.352L254.779 202.312L256.404 202.305L256.389 202.375C256.29 202.927 256.089 203.411 255.787 203.828C255.485 204.245 255.081 204.573 254.576 204.812C254.076 205.047 253.474 205.164 252.771 205.164ZM261.478 205.055C260.551 205.055 259.879 204.878 259.463 204.523C259.051 204.164 258.845 203.578 258.845 202.766V197.852H257.517V196.516H258.845V194.375H260.58V196.516H262.4V197.852H260.58V202.352C260.58 202.81 260.671 203.141 260.853 203.344C261.035 203.542 261.338 203.641 261.759 203.641C261.884 203.641 261.991 203.638 262.08 203.633C262.174 203.628 262.28 203.62 262.4 203.609V204.969C262.265 204.99 262.119 205.008 261.963 205.023C261.806 205.044 261.645 205.055 261.478 205.055ZM267.708 205.164C266.88 205.164 266.164 204.987 265.56 204.633C264.961 204.279 264.5 203.773 264.177 203.117C263.854 202.456 263.693 201.672 263.693 200.766V200.75C263.693 199.839 263.854 199.055 264.177 198.398C264.505 197.742 264.969 197.237 265.568 196.883C266.172 196.529 266.886 196.352 267.708 196.352C268.537 196.352 269.25 196.529 269.849 196.883C270.448 197.232 270.909 197.737 271.232 198.398C271.56 199.055 271.724 199.839 271.724 200.75V200.766C271.724 201.672 271.56 202.456 271.232 203.117C270.909 203.773 270.448 204.279 269.849 204.633C269.255 204.987 268.542 205.164 267.708 205.164ZM267.708 203.742C268.193 203.742 268.604 203.625 268.943 203.391C269.281 203.151 269.539 202.81 269.716 202.367C269.893 201.924 269.982 201.391 269.982 200.766V200.75C269.982 200.12 269.893 199.583 269.716 199.141C269.539 198.698 269.281 198.359 268.943 198.125C268.604 197.885 268.193 197.766 267.708 197.766C267.224 197.766 266.813 197.885 266.474 198.125C266.136 198.359 265.875 198.698 265.693 199.141C265.516 199.583 265.427 200.12 265.427 200.75V200.766C265.427 201.391 265.516 201.924 265.693 202.367C265.875 202.81 266.136 203.151 266.474 203.391C266.813 203.625 267.224 203.742 267.708 203.742ZM273.564 205V196.516H275.259V197.797H275.392C275.543 197.344 275.808 196.992 276.189 196.742C276.574 196.492 277.048 196.367 277.611 196.367C277.751 196.367 277.889 196.375 278.025 196.391C278.16 196.406 278.269 196.424 278.353 196.445V198.008C278.202 197.977 278.051 197.953 277.9 197.938C277.754 197.922 277.6 197.914 277.439 197.914C277.006 197.914 276.626 197.997 276.298 198.164C275.975 198.331 275.72 198.565 275.532 198.867C275.35 199.164 275.259 199.518 275.259 199.93V205H273.564Z" fill="#1E1E1E"/>
<path d="M6.056 18.2734C5.11329 18.2734 4.30079 18.099 3.6185 17.75C2.93621 17.401 2.41017 16.9167 2.04037 16.2969C1.67058 15.6719 1.48569 14.9453 1.48569 14.1172V6.72656H3.2435V13.9844C3.2435 14.526 3.35287 15.0026 3.57162 15.4141C3.79558 15.8255 4.1159 16.1458 4.53256 16.375C4.95444 16.6042 5.46225 16.7188 6.056 16.7188C6.65496 16.7188 7.16277 16.6042 7.57944 16.375C7.9961 16.1458 8.31381 15.8255 8.53256 15.4141C8.75131 15.0026 8.86069 14.526 8.86069 13.9844V6.72656H10.6185V14.1172C10.6185 14.9453 10.4336 15.6719 10.0638 16.2969C9.69923 16.9167 9.17579 17.401 8.4935 17.75C7.81642 18.099 7.00392 18.2734 6.056 18.2734ZM12.5363 18L16.7003 11.7031L16.2863 13.0938V12.3047L12.5753 6.72656H14.6691L17.4581 11.0938H18.2628L17.1144 11.7422L20.3175 6.72656H22.3019L18.4816 12.3594V13.1562L18.0597 11.7656L22.2316 18H20.1769L17.3722 13.7031H16.5597L17.7238 13.0625L14.4816 18H12.5363ZM28.4264 18V6.72656H32.8717C33.6426 6.72656 34.3092 6.86979 34.8717 7.15625C35.4342 7.4375 35.8665 7.83594 36.1686 8.35156C36.4759 8.86198 36.6296 9.46615 36.6296 10.1641V10.1797C36.6296 10.9401 36.4369 11.6094 36.0514 12.1875C35.666 12.7604 35.1296 13.1641 34.4421 13.3984L36.9655 18H34.9421L32.6452 13.6641C32.6296 13.6641 32.6139 13.6641 32.5983 13.6641C32.5827 13.6641 32.5671 13.6641 32.5514 13.6641H30.1764V18H28.4264ZM30.1764 12.2422H32.6999C33.3717 12.2422 33.8926 12.0677 34.2624 11.7188C34.6322 11.3646 34.8171 10.8672 34.8171 10.2266V10.2109C34.8171 9.58594 34.6244 9.09375 34.2389 8.73438C33.8587 8.375 33.3275 8.19531 32.6452 8.19531H30.1764V12.2422ZM42.0708 18.1641C41.2426 18.1641 40.5317 17.987 39.9379 17.6328C39.3442 17.2734 38.8859 16.7656 38.5629 16.1094C38.2452 15.4531 38.0864 14.6771 38.0864 13.7812V13.7734C38.0864 12.888 38.2452 12.1146 38.5629 11.4531C38.8859 10.7917 39.339 10.276 39.9223 9.90625C40.5109 9.53646 41.1984 9.35156 41.9848 9.35156C42.7765 9.35156 43.4562 9.52865 44.0239 9.88281C44.5968 10.237 45.0369 10.7344 45.3442 11.375C45.6515 12.0104 45.8051 12.7552 45.8051 13.6094V14.2031H38.9458V12.9922H44.9614L44.1489 14.1172V13.4375C44.1489 12.8333 44.0551 12.3333 43.8676 11.9375C43.6853 11.5365 43.4327 11.237 43.1098 11.0391C42.7869 10.8411 42.4145 10.7422 41.9926 10.7422C41.5708 10.7422 41.1931 10.8464 40.8598 11.0547C40.5317 11.2578 40.2713 11.5599 40.0786 11.9609C39.8911 12.362 39.7973 12.8542 39.7973 13.4375V14.1172C39.7973 14.6745 39.8911 15.151 40.0786 15.5469C40.2661 15.9427 40.5317 16.2448 40.8754 16.4531C41.2244 16.6615 41.6359 16.7656 42.1098 16.7656C42.4744 16.7656 42.7869 16.7161 43.0473 16.6172C43.3129 16.513 43.5291 16.3854 43.6958 16.2344C43.8676 16.0833 43.9848 15.9349 44.0473 15.7891L44.0786 15.7266H45.7192L45.7036 15.7969C45.6306 16.0781 45.503 16.3594 45.3208 16.6406C45.1385 16.9167 44.8963 17.1693 44.5942 17.3984C44.2973 17.6276 43.9379 17.8125 43.5161 17.9531C43.0994 18.0938 42.6176 18.1641 42.0708 18.1641ZM50.7307 18.1641C50.0484 18.1641 49.4546 18.0651 48.9494 17.8672C48.4442 17.6641 48.0432 17.3854 47.7463 17.0312C47.4494 16.6719 47.275 16.2552 47.2229 15.7812V15.7656H48.926V15.7812C49.0354 16.099 49.2437 16.3568 49.551 16.5547C49.8583 16.7526 50.2645 16.8516 50.7697 16.8516C51.1187 16.8516 51.4234 16.8021 51.6838 16.7031C51.9494 16.6042 52.1578 16.4661 52.3088 16.2891C52.4599 16.112 52.5354 15.9089 52.5354 15.6797V15.6641C52.5354 15.3984 52.4286 15.1745 52.2151 14.9922C52.0015 14.8099 51.65 14.6615 51.1604 14.5469L49.801 14.2344C49.2697 14.1146 48.8296 13.9505 48.4807 13.7422C48.1317 13.5339 47.8739 13.2786 47.7072 12.9766C47.5406 12.6693 47.4572 12.3099 47.4572 11.8984V11.8906C47.4572 11.3958 47.5979 10.9583 47.8791 10.5781C48.1604 10.1927 48.5484 9.89323 49.0432 9.67969C49.5432 9.46094 50.1135 9.35156 50.7541 9.35156C51.4 9.35156 51.9625 9.45312 52.4416 9.65625C52.926 9.85417 53.3088 10.1302 53.5901 10.4844C53.8713 10.8333 54.038 11.2396 54.0901 11.7031V11.7109H52.4651V11.6953C52.3869 11.3984 52.1994 11.151 51.9026 10.9531C51.6109 10.7552 51.2255 10.6562 50.7463 10.6562C50.439 10.6562 50.1656 10.7057 49.926 10.8047C49.6864 10.8984 49.4963 11.0312 49.3557 11.2031C49.2203 11.3698 49.1526 11.5677 49.1526 11.7969V11.8125C49.1526 11.9896 49.1968 12.1458 49.2854 12.2812C49.3791 12.4115 49.525 12.5286 49.7229 12.6328C49.9208 12.7318 50.176 12.8203 50.4885 12.8984L51.8401 13.2031C52.6526 13.3958 53.2567 13.6745 53.6526 14.0391C54.0536 14.4036 54.2541 14.8932 54.2541 15.5078V15.5234C54.2541 16.0443 54.1005 16.5052 53.7932 16.9062C53.4859 17.3021 53.0666 17.612 52.5354 17.8359C52.0093 18.0547 51.4078 18.1641 50.7307 18.1641ZM59.6562 18.1641C58.8281 18.1641 58.1172 17.987 57.5234 17.6328C56.9297 17.2734 56.4714 16.7656 56.1484 16.1094C55.8307 15.4531 55.6719 14.6771 55.6719 13.7812V13.7734C55.6719 12.888 55.8307 12.1146 56.1484 11.4531C56.4714 10.7917 56.9245 10.276 57.5078 9.90625C58.0964 9.53646 58.7839 9.35156 59.5703 9.35156C60.362 9.35156 61.0417 9.52865 61.6094 9.88281C62.1823 10.237 62.6224 10.7344 62.9297 11.375C63.237 12.0104 63.3906 12.7552 63.3906 13.6094V14.2031H56.5312V12.9922H62.5469L61.7344 14.1172V13.4375C61.7344 12.8333 61.6406 12.3333 61.4531 11.9375C61.2708 11.5365 61.0182 11.237 60.6953 11.0391C60.3724 10.8411 60 10.7422 59.5781 10.7422C59.1562 10.7422 58.7786 10.8464 58.4453 11.0547C58.1172 11.2578 57.8568 11.5599 57.6641 11.9609C57.4766 12.362 57.3828 12.8542 57.3828 13.4375V14.1172C57.3828 14.6745 57.4766 15.151 57.6641 15.5469C57.8516 15.9427 58.1172 16.2448 58.4609 16.4531C58.8099 16.6615 59.2214 16.7656 59.6953 16.7656C60.0599 16.7656 60.3724 16.7161 60.6328 16.6172C60.8984 16.513 61.1146 16.3854 61.2812 16.2344C61.4531 16.0833 61.5703 15.9349 61.6328 15.7891L61.6641 15.7266H63.3047L63.2891 15.7969C63.2161 16.0781 63.0885 16.3594 62.9062 16.6406C62.724 16.9167 62.4818 17.1693 62.1797 17.3984C61.8828 17.6276 61.5234 17.8125 61.1016 17.9531C60.6849 18.0938 60.2031 18.1641 59.6562 18.1641ZM67.5584 18.1406C67.0219 18.1406 66.5402 18.0391 66.1131 17.8359C65.6912 17.6276 65.3579 17.3333 65.1131 16.9531C64.8683 16.5729 64.7459 16.1276 64.7459 15.6172V15.6016C64.7459 15.0911 64.8683 14.6562 65.1131 14.2969C65.3631 13.9375 65.7224 13.6562 66.1912 13.4531C66.6652 13.2448 67.2381 13.1198 67.9099 13.0781L71.0428 12.8906V14.0859L68.1443 14.2734C67.561 14.3099 67.1313 14.4349 66.8553 14.6484C66.5792 14.8568 66.4412 15.151 66.4412 15.5312V15.5469C66.4412 15.9323 66.5896 16.237 66.8865 16.4609C67.1834 16.6797 67.5584 16.7891 68.0115 16.7891C68.4334 16.7891 68.8084 16.7057 69.1365 16.5391C69.4698 16.3672 69.7303 16.138 69.9178 15.8516C70.1053 15.5599 70.199 15.2318 70.199 14.8672V12.1953C70.199 11.7266 70.0532 11.3698 69.7615 11.125C69.475 10.875 69.048 10.75 68.4803 10.75C68.0063 10.75 67.6183 10.8333 67.3162 11C67.0193 11.1667 66.8214 11.401 66.7224 11.7031L66.7068 11.7266H65.074L65.0818 11.6719C65.1495 11.2031 65.3344 10.7969 65.6365 10.4531C65.9438 10.1042 66.3448 9.83333 66.8396 9.64062C67.3396 9.44792 67.9099 9.35156 68.5506 9.35156C69.2641 9.35156 69.8683 9.46615 70.3631 9.69531C70.8631 9.91927 71.2407 10.2448 71.4959 10.6719C71.7563 11.0938 71.8865 11.6016 71.8865 12.1953V18H70.199V16.7969H70.074C69.9073 17.0833 69.699 17.3281 69.449 17.5312C69.199 17.7292 68.9152 17.8802 68.5974 17.9844C68.2797 18.0885 67.9334 18.1406 67.5584 18.1406ZM74.1011 18V9.51562H75.7964V10.7969H75.9293C76.0803 10.3438 76.3459 9.99219 76.7261 9.74219C77.1115 9.49219 77.5855 9.36719 78.148 9.36719C78.2886 9.36719 78.4266 9.375 78.5621 9.39062C78.6975 9.40625 78.8069 9.42448 78.8902 9.44531V11.0078C78.7391 10.9766 78.5881 10.9531 78.4371 10.9375C78.2912 10.9219 78.1376 10.9141 77.9761 10.9141C77.5438 10.9141 77.1636 10.9974 76.8355 11.1641C76.5126 11.3307 76.2574 11.5651 76.0699 11.8672C75.8876 12.1641 75.7964 12.5182 75.7964 12.9297V18H74.1011ZM83.6986 18.1641C82.8756 18.1641 82.1647 17.987 81.5658 17.6328C80.972 17.2734 80.5137 16.763 80.1908 16.1016C79.8678 15.4401 79.7064 14.651 79.7064 13.7344V13.7188C79.7064 12.8177 79.8652 12.0417 80.1829 11.3906C80.5059 10.7396 80.9642 10.237 81.5579 9.88281C82.1569 9.52865 82.8678 9.35156 83.6908 9.35156C84.4043 9.35156 85.0163 9.47656 85.5267 9.72656C86.0423 9.97135 86.4512 10.3099 86.7533 10.7422C87.0605 11.1693 87.2533 11.6562 87.3314 12.2031L87.3392 12.2422H85.7064L85.6986 12.2266C85.6048 11.8099 85.3887 11.4635 85.0501 11.1875C84.7116 10.9062 84.2611 10.7656 83.6986 10.7656C83.2298 10.7656 82.8262 10.8854 82.4876 11.125C82.1491 11.3594 81.8887 11.6979 81.7064 12.1406C81.5293 12.5833 81.4408 13.1094 81.4408 13.7188V13.7344C81.4408 14.3594 81.5319 14.8958 81.7142 15.3438C81.8965 15.7917 82.1569 16.138 82.4954 16.3828C82.834 16.6224 83.235 16.7422 83.6986 16.7422C84.2298 16.7422 84.6595 16.625 84.9876 16.3906C85.321 16.1562 85.5553 15.8099 85.6908 15.3516L85.7064 15.3125L87.3314 15.3047L87.3158 15.375C87.2168 15.9271 87.0163 16.4115 86.7142 16.8281C86.4121 17.2448 86.0085 17.5729 85.5033 17.8125C85.0033 18.0469 84.4017 18.1641 83.6986 18.1641ZM89.1554 18V6.1875H90.8507V10.7969H90.9835C91.1918 10.3438 91.4991 9.98958 91.9054 9.73438C92.3116 9.47917 92.8246 9.35156 93.4444 9.35156C94.0746 9.35156 94.6085 9.47396 95.046 9.71875C95.4835 9.96354 95.8168 10.3229 96.046 10.7969C96.2752 11.2656 96.3897 11.8359 96.3897 12.5078V18H94.6866V12.9062C94.6866 12.1979 94.5382 11.6719 94.2413 11.3281C93.9496 10.9792 93.4913 10.8047 92.8663 10.8047C92.4549 10.8047 92.0981 10.8958 91.796 11.0781C91.4939 11.2552 91.2595 11.5104 91.0929 11.8438C90.9314 12.1719 90.8507 12.5651 90.8507 13.0234V18H89.1554ZM102.136 18.1641C101.308 18.1641 100.597 17.987 100.003 17.6328C99.4091 17.2734 98.9507 16.7656 98.6278 16.1094C98.3101 15.4531 98.1513 14.6771 98.1513 13.7812V13.7734C98.1513 12.888 98.3101 12.1146 98.6278 11.4531C98.9507 10.7917 99.4039 10.276 99.9872 9.90625C100.576 9.53646 101.263 9.35156 102.05 9.35156C102.841 9.35156 103.521 9.52865 104.089 9.88281C104.662 10.237 105.102 10.7344 105.409 11.375C105.716 12.0104 105.87 12.7552 105.87 13.6094V14.2031H99.0106V12.9922H105.026L104.214 14.1172V13.4375C104.214 12.8333 104.12 12.3333 103.933 11.9375C103.75 11.5365 103.498 11.237 103.175 11.0391C102.852 10.8411 102.479 10.7422 102.058 10.7422C101.636 10.7422 101.258 10.8464 100.925 11.0547C100.597 11.2578 100.336 11.5599 100.143 11.9609C99.9559 12.362 99.8622 12.8542 99.8622 13.4375V14.1172C99.8622 14.6745 99.9559 15.151 100.143 15.5469C100.331 15.9427 100.597 16.2448 100.94 16.4531C101.289 16.6615 101.701 16.7656 102.175 16.7656C102.539 16.7656 102.852 16.7161 103.112 16.6172C103.378 16.513 103.594 16.3854 103.761 16.2344C103.933 16.0833 104.05 15.9349 104.112 15.7891L104.143 15.7266H105.784L105.768 15.7969C105.696 16.0781 105.568 16.3594 105.386 16.6406C105.203 16.9167 104.961 17.1693 104.659 17.3984C104.362 17.6276 104.003 17.8125 103.581 17.9531C103.164 18.0938 102.683 18.1641 102.136 18.1641ZM107.71 18V9.51562H109.405V10.7969H109.538C109.689 10.3438 109.954 9.99219 110.335 9.74219C110.72 9.49219 111.194 9.36719 111.757 9.36719C111.897 9.36719 112.035 9.375 112.171 9.39062C112.306 9.40625 112.415 9.42448 112.499 9.44531V11.0078C112.348 10.9766 112.197 10.9531 112.046 10.9375C111.9 10.9219 111.746 10.9141 111.585 10.9141C111.152 10.9141 110.772 10.9974 110.444 11.1641C110.121 11.3307 109.866 11.5651 109.678 11.8672C109.496 12.1641 109.405 12.5182 109.405 12.9297V18H107.71Z" fill="#1E1E1E"/>
<path d="M150.444 18V6.72656H154.514C155.634 6.72656 156.59 6.94792 157.382 7.39062C158.173 7.83333 158.777 8.47135 159.194 9.30469C159.616 10.138 159.827 11.1458 159.827 12.3281V12.3438C159.827 13.5365 159.616 14.5547 159.194 15.3984C158.777 16.2422 158.173 16.888 157.382 17.3359C156.595 17.7786 155.639 18 154.514 18H150.444ZM152.194 16.4844H154.319C155.106 16.4844 155.775 16.3229 156.327 16C156.884 15.6771 157.306 15.2083 157.593 14.5938C157.884 13.9792 158.03 13.237 158.03 12.3672V12.3516C158.03 11.487 157.882 10.7474 157.585 10.1328C157.293 9.51823 156.871 9.04948 156.319 8.72656C155.767 8.40365 155.1 8.24219 154.319 8.24219H152.194V16.4844ZM165.385 18.1641C164.557 18.1641 163.846 17.987 163.253 17.6328C162.659 17.2734 162.2 16.7656 161.878 16.1094C161.56 15.4531 161.401 14.6771 161.401 13.7812V13.7734C161.401 12.888 161.56 12.1146 161.878 11.4531C162.2 10.7917 162.654 10.276 163.237 9.90625C163.825 9.53646 164.513 9.35156 165.299 9.35156C166.091 9.35156 166.771 9.52865 167.338 9.88281C167.911 10.237 168.351 10.7344 168.659 11.375C168.966 12.0104 169.12 12.7552 169.12 13.6094V14.2031H162.26V12.9922H168.276L167.463 14.1172V13.4375C167.463 12.8333 167.37 12.3333 167.182 11.9375C167 11.5365 166.747 11.237 166.424 11.0391C166.101 10.8411 165.729 10.7422 165.307 10.7422C164.885 10.7422 164.508 10.8464 164.174 11.0547C163.846 11.2578 163.586 11.5599 163.393 11.9609C163.206 12.362 163.112 12.8542 163.112 13.4375V14.1172C163.112 14.6745 163.206 15.151 163.393 15.5469C163.581 15.9427 163.846 16.2448 164.19 16.4531C164.539 16.6615 164.95 16.7656 165.424 16.7656C165.789 16.7656 166.101 16.7161 166.362 16.6172C166.628 16.513 166.844 16.3854 167.01 16.2344C167.182 16.0833 167.299 15.9349 167.362 15.7891L167.393 15.7266H169.034L169.018 15.7969C168.945 16.0781 168.818 16.3594 168.635 16.6406C168.453 16.9167 168.211 17.1693 167.909 17.3984C167.612 17.6276 167.253 17.8125 166.831 17.9531C166.414 18.0938 165.932 18.1641 165.385 18.1641ZM174.045 18.1641C173.363 18.1641 172.769 18.0651 172.264 17.8672C171.759 17.6641 171.358 17.3854 171.061 17.0312C170.764 16.6719 170.59 16.2552 170.537 15.7812V15.7656H172.241V15.7812C172.35 16.099 172.558 16.3568 172.866 16.5547C173.173 16.7526 173.579 16.8516 174.084 16.8516C174.433 16.8516 174.738 16.8021 174.998 16.7031C175.264 16.6042 175.472 16.4661 175.623 16.2891C175.774 16.112 175.85 15.9089 175.85 15.6797V15.6641C175.85 15.3984 175.743 15.1745 175.53 14.9922C175.316 14.8099 174.965 14.6615 174.475 14.5469L173.116 14.2344C172.584 14.1146 172.144 13.9505 171.795 13.7422C171.446 13.5339 171.188 13.2786 171.022 12.9766C170.855 12.6693 170.772 12.3099 170.772 11.8984V11.8906C170.772 11.3958 170.912 10.9583 171.194 10.5781C171.475 10.1927 171.863 9.89323 172.358 9.67969C172.858 9.46094 173.428 9.35156 174.069 9.35156C174.715 9.35156 175.277 9.45312 175.756 9.65625C176.241 9.85417 176.623 10.1302 176.905 10.4844C177.186 10.8333 177.353 11.2396 177.405 11.7031V11.7109H175.78V11.6953C175.702 11.3984 175.514 11.151 175.217 10.9531C174.925 10.7552 174.54 10.6562 174.061 10.6562C173.754 10.6562 173.48 10.7057 173.241 10.8047C173.001 10.8984 172.811 11.0312 172.67 11.2031C172.535 11.3698 172.467 11.5677 172.467 11.7969V11.8125C172.467 11.9896 172.511 12.1458 172.6 12.2812C172.694 12.4115 172.84 12.5286 173.037 12.6328C173.235 12.7318 173.491 12.8203 173.803 12.8984L175.155 13.2031C175.967 13.3958 176.571 13.6745 176.967 14.0391C177.368 14.4036 177.569 14.8932 177.569 15.5078V15.5234C177.569 16.0443 177.415 16.5052 177.108 16.9062C176.8 17.3021 176.381 17.612 175.85 17.8359C175.324 18.0547 174.722 18.1641 174.045 18.1641ZM179.432 18V9.51562H181.135V18H179.432ZM180.291 8C179.999 8 179.749 7.89583 179.541 7.6875C179.333 7.47917 179.229 7.22917 179.229 6.9375C179.229 6.64583 179.333 6.39844 179.541 6.19531C179.749 5.98698 179.999 5.88281 180.291 5.88281C180.583 5.88281 180.833 5.98698 181.041 6.19531C181.249 6.39844 181.354 6.64583 181.354 6.9375C181.354 7.22917 181.249 7.47917 181.041 7.6875C180.833 7.89583 180.583 8 180.291 8ZM187.006 20.9922C186.287 20.9922 185.662 20.8932 185.131 20.6953C184.605 20.4974 184.188 20.2214 183.881 19.8672C183.573 19.513 183.386 19.1016 183.318 18.6328L183.326 18.6172H185.045L185.053 18.6328C185.126 18.9245 185.331 19.1641 185.67 19.3516C186.008 19.5391 186.461 19.6328 187.029 19.6328C187.727 19.6328 188.271 19.474 188.662 19.1562C189.058 18.8385 189.256 18.3932 189.256 17.8203V16.1562H189.123C188.956 16.4583 188.743 16.7188 188.482 16.9375C188.222 17.151 187.925 17.3125 187.592 17.4219C187.258 17.5312 186.896 17.5859 186.506 17.5859C185.787 17.5859 185.162 17.4141 184.631 17.0703C184.105 16.7214 183.698 16.2422 183.412 15.6328C183.131 15.0182 182.99 14.3125 182.99 13.5156V13.5C182.99 12.6927 183.133 11.9792 183.42 11.3594C183.706 10.7344 184.115 10.2474 184.646 9.89844C185.178 9.54427 185.81 9.36719 186.545 9.36719C186.941 9.36719 187.303 9.42969 187.631 9.55469C187.964 9.67969 188.258 9.85677 188.514 10.0859C188.769 10.3151 188.98 10.5885 189.146 10.9062H189.248V9.51562H190.943V17.8281C190.943 18.4688 190.782 19.026 190.459 19.5C190.141 19.974 189.688 20.3411 189.1 20.6016C188.511 20.862 187.813 20.9922 187.006 20.9922ZM186.982 16.1797C187.461 16.1797 187.873 16.0677 188.217 15.8438C188.56 15.6146 188.823 15.2995 189.006 14.8984C189.193 14.4974 189.287 14.0339 189.287 13.5078V13.4922C189.287 12.9714 189.193 12.5078 189.006 12.1016C188.823 11.6953 188.56 11.3776 188.217 11.1484C187.873 10.9193 187.461 10.8047 186.982 10.8047C186.503 10.8047 186.094 10.9193 185.756 11.1484C185.422 11.3776 185.167 11.6953 184.99 12.1016C184.813 12.5026 184.725 12.9661 184.725 13.4922V13.5078C184.725 14.0339 184.813 14.4974 184.99 14.8984C185.167 15.2995 185.422 15.6146 185.756 15.8438C186.094 16.0677 186.503 16.1797 186.982 16.1797ZM193.213 18V9.51562H194.908V10.7969H195.041C195.249 10.3438 195.556 9.98958 195.963 9.73438C196.369 9.47917 196.882 9.35156 197.502 9.35156C198.455 9.35156 199.184 9.625 199.689 10.1719C200.194 10.7188 200.447 11.4974 200.447 12.5078V18H198.744V12.9062C198.744 12.1979 198.595 11.6719 198.299 11.3281C198.007 10.9792 197.549 10.8047 196.924 10.8047C196.512 10.8047 196.155 10.8958 195.853 11.0781C195.551 11.2552 195.317 11.5104 195.15 11.8438C194.989 12.1719 194.908 12.5651 194.908 13.0234V18H193.213ZM206.193 18.1641C205.365 18.1641 204.654 17.987 204.06 17.6328C203.466 17.2734 203.008 16.7656 202.685 16.1094C202.367 15.4531 202.208 14.6771 202.208 13.7812V13.7734C202.208 12.888 202.367 12.1146 202.685 11.4531C203.008 10.7917 203.461 10.276 204.044 9.90625C204.633 9.53646 205.32 9.35156 206.107 9.35156C206.899 9.35156 207.578 9.52865 208.146 9.88281C208.719 10.237 209.159 10.7344 209.466 11.375C209.774 12.0104 209.927 12.7552 209.927 13.6094V14.2031H203.068V12.9922H209.083L208.271 14.1172V13.4375C208.271 12.8333 208.177 12.3333 207.99 11.9375C207.807 11.5365 207.555 11.237 207.232 11.0391C206.909 10.8411 206.537 10.7422 206.115 10.7422C205.693 10.7422 205.315 10.8464 204.982 11.0547C204.654 11.2578 204.393 11.5599 204.201 11.9609C204.013 12.362 203.919 12.8542 203.919 13.4375V14.1172C203.919 14.6745 204.013 15.151 204.201 15.5469C204.388 15.9427 204.654 16.2448 204.998 16.4531C205.346 16.6615 205.758 16.7656 206.232 16.7656C206.596 16.7656 206.909 16.7161 207.169 16.6172C207.435 16.513 207.651 16.3854 207.818 16.2344C207.99 16.0833 208.107 15.9349 208.169 15.7891L208.201 15.7266H209.841L209.826 15.7969C209.753 16.0781 209.625 16.3594 209.443 16.6406C209.261 16.9167 209.018 17.1693 208.716 17.3984C208.419 17.6276 208.06 17.8125 207.638 17.9531C207.221 18.0938 206.74 18.1641 206.193 18.1641ZM211.767 18V9.51562H213.462V10.7969H213.595C213.746 10.3438 214.012 9.99219 214.392 9.74219C214.777 9.49219 215.251 9.36719 215.814 9.36719C215.954 9.36719 216.092 9.375 216.228 9.39062C216.363 9.40625 216.473 9.42448 216.556 9.44531V11.0078C216.405 10.9766 216.254 10.9531 216.103 10.9375C215.957 10.9219 215.803 10.9141 215.642 10.9141C215.21 10.9141 214.829 10.9974 214.501 11.1641C214.178 11.3307 213.923 11.5651 213.736 11.8672C213.553 12.1641 213.462 12.5182 213.462 12.9297V18H211.767Z" fill="#1E1E1E"/>
<path d="M279.444 18V6.72656H283.514C284.634 6.72656 285.59 6.94792 286.382 7.39062C287.173 7.83333 287.777 8.47135 288.194 9.30469C288.616 10.138 288.827 11.1458 288.827 12.3281V12.3438C288.827 13.5365 288.616 14.5547 288.194 15.3984C287.777 16.2422 287.173 16.888 286.382 17.3359C285.595 17.7786 284.639 18 283.514 18H279.444ZM281.194 16.4844H283.319C284.106 16.4844 284.775 16.3229 285.327 16C285.884 15.6771 286.306 15.2083 286.593 14.5938C286.884 13.9792 287.03 13.237 287.03 12.3672V12.3516C287.03 11.487 286.882 10.7474 286.585 10.1328C286.293 9.51823 285.871 9.04948 285.319 8.72656C284.767 8.40365 284.1 8.24219 283.319 8.24219H281.194V16.4844ZM294.385 18.1641C293.557 18.1641 292.846 17.987 292.253 17.6328C291.659 17.2734 291.2 16.7656 290.878 16.1094C290.56 15.4531 290.401 14.6771 290.401 13.7812V13.7734C290.401 12.888 290.56 12.1146 290.878 11.4531C291.2 10.7917 291.654 10.276 292.237 9.90625C292.825 9.53646 293.513 9.35156 294.299 9.35156C295.091 9.35156 295.771 9.52865 296.338 9.88281C296.911 10.237 297.351 10.7344 297.659 11.375C297.966 12.0104 298.12 12.7552 298.12 13.6094V14.2031H291.26V12.9922H297.276L296.463 14.1172V13.4375C296.463 12.8333 296.37 12.3333 296.182 11.9375C296 11.5365 295.747 11.237 295.424 11.0391C295.101 10.8411 294.729 10.7422 294.307 10.7422C293.885 10.7422 293.508 10.8464 293.174 11.0547C292.846 11.2578 292.586 11.5599 292.393 11.9609C292.206 12.362 292.112 12.8542 292.112 13.4375V14.1172C292.112 14.6745 292.206 15.151 292.393 15.5469C292.581 15.9427 292.846 16.2448 293.19 16.4531C293.539 16.6615 293.95 16.7656 294.424 16.7656C294.789 16.7656 295.101 16.7161 295.362 16.6172C295.628 16.513 295.844 16.3854 296.01 16.2344C296.182 16.0833 296.299 15.9349 296.362 15.7891L296.393 15.7266H298.034L298.018 15.7969C297.945 16.0781 297.818 16.3594 297.635 16.6406C297.453 16.9167 297.211 17.1693 296.909 17.3984C296.612 17.6276 296.253 17.8125 295.831 17.9531C295.414 18.0938 294.932 18.1641 294.385 18.1641ZM303.045 18.1641C302.363 18.1641 301.769 18.0651 301.264 17.8672C300.759 17.6641 300.358 17.3854 300.061 17.0312C299.764 16.6719 299.59 16.2552 299.537 15.7812V15.7656H301.241V15.7812C301.35 16.099 301.558 16.3568 301.866 16.5547C302.173 16.7526 302.579 16.8516 303.084 16.8516C303.433 16.8516 303.738 16.8021 303.998 16.7031C304.264 16.6042 304.472 16.4661 304.623 16.2891C304.774 16.112 304.85 15.9089 304.85 15.6797V15.6641C304.85 15.3984 304.743 15.1745 304.53 14.9922C304.316 14.8099 303.965 14.6615 303.475 14.5469L302.116 14.2344C301.584 14.1146 301.144 13.9505 300.795 13.7422C300.446 13.5339 300.188 13.2786 300.022 12.9766C299.855 12.6693 299.772 12.3099 299.772 11.8984V11.8906C299.772 11.3958 299.912 10.9583 300.194 10.5781C300.475 10.1927 300.863 9.89323 301.358 9.67969C301.858 9.46094 302.428 9.35156 303.069 9.35156C303.715 9.35156 304.277 9.45312 304.756 9.65625C305.241 9.85417 305.623 10.1302 305.905 10.4844C306.186 10.8333 306.353 11.2396 306.405 11.7031V11.7109H304.78V11.6953C304.702 11.3984 304.514 11.151 304.217 10.9531C303.925 10.7552 303.54 10.6562 303.061 10.6562C302.754 10.6562 302.48 10.7057 302.241 10.8047C302.001 10.8984 301.811 11.0312 301.67 11.2031C301.535 11.3698 301.467 11.5677 301.467 11.7969V11.8125C301.467 11.9896 301.511 12.1458 301.6 12.2812C301.694 12.4115 301.84 12.5286 302.037 12.6328C302.235 12.7318 302.491 12.8203 302.803 12.8984L304.155 13.2031C304.967 13.3958 305.571 13.6745 305.967 14.0391C306.368 14.4036 306.569 14.8932 306.569 15.5078V15.5234C306.569 16.0443 306.415 16.5052 306.108 16.9062C305.8 17.3021 305.381 17.612 304.85 17.8359C304.324 18.0547 303.722 18.1641 303.045 18.1641ZM308.432 18V9.51562H310.135V18H308.432ZM309.291 8C308.999 8 308.749 7.89583 308.541 7.6875C308.333 7.47917 308.229 7.22917 308.229 6.9375C308.229 6.64583 308.333 6.39844 308.541 6.19531C308.749 5.98698 308.999 5.88281 309.291 5.88281C309.583 5.88281 309.833 5.98698 310.041 6.19531C310.249 6.39844 310.354 6.64583 310.354 6.9375C310.354 7.22917 310.249 7.47917 310.041 7.6875C309.833 7.89583 309.583 8 309.291 8ZM316.006 20.9922C315.287 20.9922 314.662 20.8932 314.131 20.6953C313.605 20.4974 313.188 20.2214 312.881 19.8672C312.573 19.513 312.386 19.1016 312.318 18.6328L312.326 18.6172H314.045L314.053 18.6328C314.126 18.9245 314.331 19.1641 314.67 19.3516C315.008 19.5391 315.461 19.6328 316.029 19.6328C316.727 19.6328 317.271 19.474 317.662 19.1562C318.058 18.8385 318.256 18.3932 318.256 17.8203V16.1562H318.123C317.956 16.4583 317.743 16.7188 317.482 16.9375C317.222 17.151 316.925 17.3125 316.592 17.4219C316.258 17.5312 315.896 17.5859 315.506 17.5859C314.787 17.5859 314.162 17.4141 313.631 17.0703C313.105 16.7214 312.698 16.2422 312.412 15.6328C312.131 15.0182 311.99 14.3125 311.99 13.5156V13.5C311.99 12.6927 312.133 11.9792 312.42 11.3594C312.706 10.7344 313.115 10.2474 313.646 9.89844C314.178 9.54427 314.81 9.36719 315.545 9.36719C315.941 9.36719 316.303 9.42969 316.631 9.55469C316.964 9.67969 317.258 9.85677 317.514 10.0859C317.769 10.3151 317.98 10.5885 318.146 10.9062H318.248V9.51562H319.943V17.8281C319.943 18.4688 319.782 19.026 319.459 19.5C319.141 19.974 318.688 20.3411 318.1 20.6016C317.511 20.862 316.813 20.9922 316.006 20.9922ZM315.982 16.1797C316.461 16.1797 316.873 16.0677 317.217 15.8438C317.56 15.6146 317.823 15.2995 318.006 14.8984C318.193 14.4974 318.287 14.0339 318.287 13.5078V13.4922C318.287 12.9714 318.193 12.5078 318.006 12.1016C317.823 11.6953 317.56 11.3776 317.217 11.1484C316.873 10.9193 316.461 10.8047 315.982 10.8047C315.503 10.8047 315.094 10.9193 314.756 11.1484C314.422 11.3776 314.167 11.6953 313.99 12.1016C313.813 12.5026 313.725 12.9661 313.725 13.4922V13.5078C313.725 14.0339 313.813 14.4974 313.99 14.8984C314.167 15.2995 314.422 15.6146 314.756 15.8438C315.094 16.0677 315.503 16.1797 315.982 16.1797ZM322.213 18V9.51562H323.908V10.7969H324.041C324.249 10.3438 324.556 9.98958 324.963 9.73438C325.369 9.47917 325.882 9.35156 326.502 9.35156C327.455 9.35156 328.184 9.625 328.689 10.1719C329.194 10.7188 329.447 11.4974 329.447 12.5078V18H327.744V12.9062C327.744 12.1979 327.595 11.6719 327.299 11.3281C327.007 10.9792 326.549 10.8047 325.924 10.8047C325.512 10.8047 325.155 10.8958 324.853 11.0781C324.551 11.2552 324.317 11.5104 324.15 11.8438C323.989 12.1719 323.908 12.5651 323.908 13.0234V18H322.213ZM335.193 18.1641C334.365 18.1641 333.654 17.987 333.06 17.6328C332.466 17.2734 332.008 16.7656 331.685 16.1094C331.367 15.4531 331.208 14.6771 331.208 13.7812V13.7734C331.208 12.888 331.367 12.1146 331.685 11.4531C332.008 10.7917 332.461 10.276 333.044 9.90625C333.633 9.53646 334.32 9.35156 335.107 9.35156C335.899 9.35156 336.578 9.52865 337.146 9.88281C337.719 10.237 338.159 10.7344 338.466 11.375C338.774 12.0104 338.927 12.7552 338.927 13.6094V14.2031H332.068V12.9922H338.083L337.271 14.1172V13.4375C337.271 12.8333 337.177 12.3333 336.99 11.9375C336.807 11.5365 336.555 11.237 336.232 11.0391C335.909 10.8411 335.537 10.7422 335.115 10.7422C334.693 10.7422 334.315 10.8464 333.982 11.0547C333.654 11.2578 333.393 11.5599 333.201 11.9609C333.013 12.362 332.919 12.8542 332.919 13.4375V14.1172C332.919 14.6745 333.013 15.151 333.201 15.5469C333.388 15.9427 333.654 16.2448 333.998 16.4531C334.346 16.6615 334.758 16.7656 335.232 16.7656C335.596 16.7656 335.909 16.7161 336.169 16.6172C336.435 16.513 336.651 16.3854 336.818 16.2344C336.99 16.0833 337.107 15.9349 337.169 15.7891L337.201 15.7266H338.841L338.826 15.7969C338.753 16.0781 338.625 16.3594 338.443 16.6406C338.261 16.9167 338.018 17.1693 337.716 17.3984C337.419 17.6276 337.06 17.8125 336.638 17.9531C336.221 18.0938 335.74 18.1641 335.193 18.1641ZM340.767 18V9.51562H342.462V10.7969H342.595C342.746 10.3438 343.012 9.99219 343.392 9.74219C343.777 9.49219 344.251 9.36719 344.814 9.36719C344.954 9.36719 345.092 9.375 345.228 9.39062C345.363 9.40625 345.473 9.42448 345.556 9.44531V11.0078C345.405 10.9766 345.254 10.9531 345.103 10.9375C344.957 10.9219 344.803 10.9141 344.642 10.9141C344.21 10.9141 343.829 10.9974 343.501 11.1641C343.178 11.3307 342.923 11.5651 342.736 11.8672C342.553 12.1641 342.462 12.5182 342.462 12.9297V18H340.767Z" fill="#1E1E1E"/>
<path d="M407.444 18V6.72656H411.514C412.634 6.72656 413.59 6.94792 414.382 7.39062C415.173 7.83333 415.777 8.47135 416.194 9.30469C416.616 10.138 416.827 11.1458 416.827 12.3281V12.3438C416.827 13.5365 416.616 14.5547 416.194 15.3984C415.777 16.2422 415.173 16.888 414.382 17.3359C413.595 17.7786 412.639 18 411.514 18H407.444ZM409.194 16.4844H411.319C412.106 16.4844 412.775 16.3229 413.327 16C413.884 15.6771 414.306 15.2083 414.593 14.5938C414.884 13.9792 415.03 13.237 415.03 12.3672V12.3516C415.03 11.487 414.882 10.7474 414.585 10.1328C414.293 9.51823 413.871 9.04948 413.319 8.72656C412.767 8.40365 412.1 8.24219 411.319 8.24219H409.194V16.4844ZM422.385 18.1641C421.557 18.1641 420.846 17.987 420.253 17.6328C419.659 17.2734 419.2 16.7656 418.878 16.1094C418.56 15.4531 418.401 14.6771 418.401 13.7812V13.7734C418.401 12.888 418.56 12.1146 418.878 11.4531C419.2 10.7917 419.654 10.276 420.237 9.90625C420.825 9.53646 421.513 9.35156 422.299 9.35156C423.091 9.35156 423.771 9.52865 424.338 9.88281C424.911 10.237 425.351 10.7344 425.659 11.375C425.966 12.0104 426.12 12.7552 426.12 13.6094V14.2031H419.26V12.9922H425.276L424.463 14.1172V13.4375C424.463 12.8333 424.37 12.3333 424.182 11.9375C424 11.5365 423.747 11.237 423.424 11.0391C423.101 10.8411 422.729 10.7422 422.307 10.7422C421.885 10.7422 421.508 10.8464 421.174 11.0547C420.846 11.2578 420.586 11.5599 420.393 11.9609C420.206 12.362 420.112 12.8542 420.112 13.4375V14.1172C420.112 14.6745 420.206 15.151 420.393 15.5469C420.581 15.9427 420.846 16.2448 421.19 16.4531C421.539 16.6615 421.95 16.7656 422.424 16.7656C422.789 16.7656 423.101 16.7161 423.362 16.6172C423.628 16.513 423.844 16.3854 424.01 16.2344C424.182 16.0833 424.299 15.9349 424.362 15.7891L424.393 15.7266H426.034L426.018 15.7969C425.945 16.0781 425.818 16.3594 425.635 16.6406C425.453 16.9167 425.211 17.1693 424.909 17.3984C424.612 17.6276 424.253 17.8125 423.831 17.9531C423.414 18.0938 422.932 18.1641 422.385 18.1641ZM431.045 18.1641C430.363 18.1641 429.769 18.0651 429.264 17.8672C428.759 17.6641 428.358 17.3854 428.061 17.0312C427.764 16.6719 427.59 16.2552 427.537 15.7812V15.7656H429.241V15.7812C429.35 16.099 429.558 16.3568 429.866 16.5547C430.173 16.7526 430.579 16.8516 431.084 16.8516C431.433 16.8516 431.738 16.8021 431.998 16.7031C432.264 16.6042 432.472 16.4661 432.623 16.2891C432.774 16.112 432.85 15.9089 432.85 15.6797V15.6641C432.85 15.3984 432.743 15.1745 432.53 14.9922C432.316 14.8099 431.965 14.6615 431.475 14.5469L430.116 14.2344C429.584 14.1146 429.144 13.9505 428.795 13.7422C428.446 13.5339 428.188 13.2786 428.022 12.9766C427.855 12.6693 427.772 12.3099 427.772 11.8984V11.8906C427.772 11.3958 427.912 10.9583 428.194 10.5781C428.475 10.1927 428.863 9.89323 429.358 9.67969C429.858 9.46094 430.428 9.35156 431.069 9.35156C431.715 9.35156 432.277 9.45312 432.756 9.65625C433.241 9.85417 433.623 10.1302 433.905 10.4844C434.186 10.8333 434.353 11.2396 434.405 11.7031V11.7109H432.78V11.6953C432.702 11.3984 432.514 11.151 432.217 10.9531C431.925 10.7552 431.54 10.6562 431.061 10.6562C430.754 10.6562 430.48 10.7057 430.241 10.8047C430.001 10.8984 429.811 11.0312 429.67 11.2031C429.535 11.3698 429.467 11.5677 429.467 11.7969V11.8125C429.467 11.9896 429.511 12.1458 429.6 12.2812C429.694 12.4115 429.84 12.5286 430.037 12.6328C430.235 12.7318 430.491 12.8203 430.803 12.8984L432.155 13.2031C432.967 13.3958 433.571 13.6745 433.967 14.0391C434.368 14.4036 434.569 14.8932 434.569 15.5078V15.5234C434.569 16.0443 434.415 16.5052 434.108 16.9062C433.8 17.3021 433.381 17.612 432.85 17.8359C432.324 18.0547 431.722 18.1641 431.045 18.1641ZM436.432 18V9.51562H438.135V18H436.432ZM437.291 8C436.999 8 436.749 7.89583 436.541 7.6875C436.333 7.47917 436.229 7.22917 436.229 6.9375C436.229 6.64583 436.333 6.39844 436.541 6.19531C436.749 5.98698 436.999 5.88281 437.291 5.88281C437.583 5.88281 437.833 5.98698 438.041 6.19531C438.249 6.39844 438.354 6.64583 438.354 6.9375C438.354 7.22917 438.249 7.47917 438.041 7.6875C437.833 7.89583 437.583 8 437.291 8ZM444.006 20.9922C443.287 20.9922 442.662 20.8932 442.131 20.6953C441.605 20.4974 441.188 20.2214 440.881 19.8672C440.573 19.513 440.386 19.1016 440.318 18.6328L440.326 18.6172H442.045L442.053 18.6328C442.126 18.9245 442.331 19.1641 442.67 19.3516C443.008 19.5391 443.461 19.6328 444.029 19.6328C444.727 19.6328 445.271 19.474 445.662 19.1562C446.058 18.8385 446.256 18.3932 446.256 17.8203V16.1562H446.123C445.956 16.4583 445.743 16.7188 445.482 16.9375C445.222 17.151 444.925 17.3125 444.592 17.4219C444.258 17.5312 443.896 17.5859 443.506 17.5859C442.787 17.5859 442.162 17.4141 441.631 17.0703C441.105 16.7214 440.698 16.2422 440.412 15.6328C440.131 15.0182 439.99 14.3125 439.99 13.5156V13.5C439.99 12.6927 440.133 11.9792 440.42 11.3594C440.706 10.7344 441.115 10.2474 441.646 9.89844C442.178 9.54427 442.81 9.36719 443.545 9.36719C443.941 9.36719 444.303 9.42969 444.631 9.55469C444.964 9.67969 445.258 9.85677 445.514 10.0859C445.769 10.3151 445.98 10.5885 446.146 10.9062H446.248V9.51562H447.943V17.8281C447.943 18.4688 447.782 19.026 447.459 19.5C447.141 19.974 446.688 20.3411 446.1 20.6016C445.511 20.862 444.813 20.9922 444.006 20.9922ZM443.982 16.1797C444.461 16.1797 444.873 16.0677 445.217 15.8438C445.56 15.6146 445.823 15.2995 446.006 14.8984C446.193 14.4974 446.287 14.0339 446.287 13.5078V13.4922C446.287 12.9714 446.193 12.5078 446.006 12.1016C445.823 11.6953 445.56 11.3776 445.217 11.1484C444.873 10.9193 444.461 10.8047 443.982 10.8047C443.503 10.8047 443.094 10.9193 442.756 11.1484C442.422 11.3776 442.167 11.6953 441.99 12.1016C441.813 12.5026 441.725 12.9661 441.725 13.4922V13.5078C441.725 14.0339 441.813 14.4974 441.99 14.8984C442.167 15.2995 442.422 15.6146 442.756 15.8438C443.094 16.0677 443.503 16.1797 443.982 16.1797ZM450.213 18V9.51562H451.908V10.7969H452.041C452.249 10.3438 452.556 9.98958 452.963 9.73438C453.369 9.47917 453.882 9.35156 454.502 9.35156C455.455 9.35156 456.184 9.625 456.689 10.1719C457.194 10.7188 457.447 11.4974 457.447 12.5078V18H455.744V12.9062C455.744 12.1979 455.595 11.6719 455.299 11.3281C455.007 10.9792 454.549 10.8047 453.924 10.8047C453.512 10.8047 453.155 10.8958 452.853 11.0781C452.551 11.2552 452.317 11.5104 452.15 11.8438C451.989 12.1719 451.908 12.5651 451.908 13.0234V18H450.213ZM463.193 18.1641C462.365 18.1641 461.654 17.987 461.06 17.6328C460.466 17.2734 460.008 16.7656 459.685 16.1094C459.367 15.4531 459.208 14.6771 459.208 13.7812V13.7734C459.208 12.888 459.367 12.1146 459.685 11.4531C460.008 10.7917 460.461 10.276 461.044 9.90625C461.633 9.53646 462.32 9.35156 463.107 9.35156C463.899 9.35156 464.578 9.52865 465.146 9.88281C465.719 10.237 466.159 10.7344 466.466 11.375C466.774 12.0104 466.927 12.7552 466.927 13.6094V14.2031H460.068V12.9922H466.083L465.271 14.1172V13.4375C465.271 12.8333 465.177 12.3333 464.99 11.9375C464.807 11.5365 464.555 11.237 464.232 11.0391C463.909 10.8411 463.537 10.7422 463.115 10.7422C462.693 10.7422 462.315 10.8464 461.982 11.0547C461.654 11.2578 461.393 11.5599 461.201 11.9609C461.013 12.362 460.919 12.8542 460.919 13.4375V14.1172C460.919 14.6745 461.013 15.151 461.201 15.5469C461.388 15.9427 461.654 16.2448 461.998 16.4531C462.346 16.6615 462.758 16.7656 463.232 16.7656C463.596 16.7656 463.909 16.7161 464.169 16.6172C464.435 16.513 464.651 16.3854 464.818 16.2344C464.99 16.0833 465.107 15.9349 465.169 15.7891L465.201 15.7266H466.841L466.826 15.7969C466.753 16.0781 466.625 16.3594 466.443 16.6406C466.261 16.9167 466.018 17.1693 465.716 17.3984C465.419 17.6276 465.06 17.8125 464.638 17.9531C464.221 18.0938 463.74 18.1641 463.193 18.1641ZM468.767 18V9.51562H470.462V10.7969H470.595C470.746 10.3438 471.012 9.99219 471.392 9.74219C471.777 9.49219 472.251 9.36719 472.814 9.36719C472.954 9.36719 473.092 9.375 473.228 9.39062C473.363 9.40625 473.473 9.42448 473.556 9.44531V11.0078C473.405 10.9766 473.254 10.9531 473.103 10.9375C472.957 10.9219 472.803 10.9141 472.642 10.9141C472.21 10.9141 471.829 10.9974 471.501 11.1641C471.178 11.3307 470.923 11.5651 470.736 11.8672C470.553 12.1641 470.462 12.5182 470.462 12.9297V18H468.767Z" fill="#1E1E1E"/>
   <style>
        path,circle {
            fill: #252641;
        }
        @media (prefers-color-scheme: dark) {
            path,circle { 
            	fill: #CECED4;
            }
        }
    </style>
</svg>
