<svg width="504" height="485" viewBox="0 0 504 485" fill="none" xmlns="http://www.w3.org/2000/svg">
<circle cx="257" cy="298" r="16" fill="#B3B3B3"/>
<circle cx="305" cy="228" r="16" fill="#B3B3B3"/>
<path d="M331.045 246H327.278V234.364H331.165C332.305 234.364 333.284 234.597 334.102 235.062C334.92 235.525 335.547 236.189 335.983 237.057C336.422 237.92 336.642 238.956 336.642 240.165C336.642 241.377 336.42 242.419 335.977 243.29C335.538 244.161 334.902 244.831 334.068 245.301C333.235 245.767 332.227 246 331.045 246ZM329.034 244.466H330.949C331.835 244.466 332.572 244.299 333.159 243.966C333.746 243.629 334.186 243.142 334.477 242.506C334.769 241.866 334.915 241.085 334.915 240.165C334.915 239.252 334.769 238.477 334.477 237.841C334.189 237.205 333.759 236.722 333.188 236.392C332.616 236.062 331.905 235.898 331.057 235.898H329.034V244.466ZM342.274 246.176C341.414 246.176 340.674 245.992 340.053 245.625C339.435 245.254 338.958 244.733 338.621 244.062C338.288 243.388 338.121 242.598 338.121 241.693C338.121 240.799 338.288 240.011 338.621 239.33C338.958 238.648 339.428 238.116 340.03 237.733C340.636 237.35 341.344 237.159 342.155 237.159C342.647 237.159 343.125 237.241 343.587 237.403C344.049 237.566 344.464 237.822 344.831 238.17C345.199 238.519 345.488 238.972 345.7 239.528C345.913 240.081 346.019 240.754 346.019 241.545V242.148H339.081V240.875H344.354C344.354 240.428 344.263 240.032 344.081 239.688C343.899 239.339 343.644 239.064 343.314 238.864C342.988 238.663 342.606 238.562 342.166 238.562C341.689 238.562 341.272 238.68 340.916 238.915C340.564 239.146 340.291 239.449 340.098 239.824C339.909 240.195 339.814 240.598 339.814 241.034V242.028C339.814 242.612 339.916 243.108 340.121 243.517C340.329 243.926 340.619 244.239 340.99 244.455C341.361 244.667 341.795 244.773 342.291 244.773C342.613 244.773 342.907 244.727 343.172 244.636C343.437 244.542 343.666 244.402 343.86 244.216C344.053 244.03 344.2 243.801 344.303 243.528L345.911 243.818C345.782 244.292 345.551 244.706 345.217 245.062C344.888 245.415 344.473 245.689 343.973 245.886C343.477 246.08 342.911 246.176 342.274 246.176ZM354.267 239.403L352.728 239.676C352.663 239.479 352.561 239.292 352.421 239.114C352.284 238.936 352.099 238.79 351.864 238.676C351.629 238.562 351.336 238.506 350.983 238.506C350.502 238.506 350.101 238.614 349.779 238.83C349.457 239.042 349.296 239.316 349.296 239.653C349.296 239.945 349.404 240.18 349.62 240.358C349.836 240.536 350.184 240.682 350.665 240.795L352.051 241.114C352.854 241.299 353.453 241.585 353.847 241.972C354.241 242.358 354.438 242.86 354.438 243.477C354.438 244 354.286 244.466 353.983 244.875C353.684 245.28 353.265 245.598 352.728 245.83C352.193 246.061 351.574 246.176 350.87 246.176C349.892 246.176 349.095 245.968 348.478 245.551C347.86 245.131 347.481 244.534 347.341 243.761L348.983 243.511C349.086 243.939 349.296 244.263 349.614 244.483C349.932 244.699 350.347 244.807 350.858 244.807C351.415 244.807 351.86 244.691 352.193 244.46C352.527 244.225 352.693 243.939 352.693 243.602C352.693 243.33 352.591 243.1 352.387 242.915C352.186 242.729 351.877 242.589 351.461 242.494L349.983 242.17C349.169 241.985 348.567 241.689 348.176 241.284C347.79 240.879 347.597 240.366 347.597 239.744C347.597 239.229 347.741 238.778 348.029 238.392C348.317 238.006 348.714 237.705 349.222 237.489C349.729 237.269 350.311 237.159 350.966 237.159C351.909 237.159 352.652 237.364 353.193 237.773C353.735 238.178 354.093 238.722 354.267 239.403ZM356.13 246V237.273H357.829V246H356.13ZM356.988 235.926C356.692 235.926 356.438 235.828 356.226 235.631C356.018 235.43 355.914 235.191 355.914 234.915C355.914 234.634 356.018 234.396 356.226 234.199C356.438 233.998 356.692 233.898 356.988 233.898C357.283 233.898 357.535 233.998 357.743 234.199C357.955 234.396 358.061 234.634 358.061 234.915C358.061 235.191 357.955 235.43 357.743 235.631C357.535 235.828 357.283 235.926 356.988 235.926ZM363.597 249.455C362.904 249.455 362.307 249.364 361.807 249.182C361.311 249 360.906 248.759 360.591 248.46C360.277 248.161 360.042 247.833 359.887 247.477L361.347 246.875C361.449 247.042 361.586 247.218 361.756 247.403C361.93 247.593 362.165 247.754 362.461 247.886C362.76 248.019 363.144 248.085 363.614 248.085C364.258 248.085 364.79 247.928 365.211 247.614C365.631 247.303 365.841 246.807 365.841 246.125V244.409H365.734C365.631 244.595 365.484 244.801 365.29 245.028C365.101 245.256 364.84 245.453 364.506 245.619C364.173 245.786 363.739 245.869 363.205 245.869C362.516 245.869 361.894 245.708 361.341 245.386C360.792 245.061 360.357 244.581 360.035 243.949C359.716 243.312 359.557 242.53 359.557 241.602C359.557 240.674 359.715 239.879 360.029 239.216C360.347 238.553 360.783 238.045 361.336 237.693C361.889 237.337 362.516 237.159 363.216 237.159C363.758 237.159 364.196 237.25 364.529 237.432C364.862 237.61 365.122 237.818 365.307 238.057C365.497 238.295 365.643 238.506 365.745 238.688H365.87V237.273H367.535V246.193C367.535 246.943 367.36 247.559 367.012 248.04C366.663 248.521 366.192 248.877 365.597 249.108C365.006 249.339 364.34 249.455 363.597 249.455ZM363.58 244.46C364.069 244.46 364.482 244.347 364.819 244.119C365.16 243.888 365.417 243.559 365.591 243.131C365.769 242.699 365.859 242.182 365.859 241.58C365.859 240.992 365.771 240.475 365.597 240.028C365.423 239.581 365.167 239.233 364.83 238.983C364.493 238.729 364.076 238.602 363.58 238.602C363.069 238.602 362.643 238.735 362.302 239C361.961 239.261 361.703 239.617 361.529 240.068C361.359 240.519 361.273 241.023 361.273 241.58C361.273 242.152 361.36 242.653 361.535 243.085C361.709 243.517 361.966 243.854 362.307 244.097C362.652 244.339 363.076 244.46 363.58 244.46ZM371.336 240.818V246H369.637V237.273H371.268V238.693H371.376C371.576 238.231 371.891 237.86 372.319 237.58C372.751 237.299 373.294 237.159 373.95 237.159C374.544 237.159 375.065 237.284 375.512 237.534C375.959 237.78 376.306 238.148 376.552 238.636C376.798 239.125 376.921 239.729 376.921 240.449V246H375.222V240.653C375.222 240.021 375.057 239.527 374.728 239.17C374.398 238.811 373.946 238.631 373.37 238.631C372.976 238.631 372.626 238.716 372.319 238.886C372.016 239.057 371.775 239.307 371.597 239.636C371.423 239.962 371.336 240.356 371.336 240.818Z" fill="#1E1E1E"/>
<path d="M282.674 308V296.364H289.969V297.875H284.43V301.42H289.589V302.926H284.43V306.489H290.038V308H282.674ZM293.701 302.818V308H292.002V299.273H293.633V300.693H293.741C293.942 300.231 294.256 299.86 294.684 299.58C295.116 299.299 295.659 299.159 296.315 299.159C296.909 299.159 297.43 299.284 297.877 299.534C298.324 299.78 298.671 300.148 298.917 300.636C299.163 301.125 299.286 301.729 299.286 302.449V308H297.588V302.653C297.588 302.021 297.423 301.527 297.093 301.17C296.764 300.811 296.311 300.631 295.735 300.631C295.341 300.631 294.991 300.716 294.684 300.886C294.381 301.057 294.141 301.307 293.963 301.636C293.788 301.962 293.701 302.356 293.701 302.818ZM305.048 311.455C304.355 311.455 303.758 311.364 303.258 311.182C302.762 311 302.357 310.759 302.042 310.46C301.728 310.161 301.493 309.833 301.338 309.477L302.798 308.875C302.9 309.042 303.037 309.218 303.207 309.403C303.381 309.593 303.616 309.754 303.912 309.886C304.211 310.019 304.595 310.085 305.065 310.085C305.709 310.085 306.241 309.928 306.662 309.614C307.082 309.303 307.292 308.807 307.292 308.125V306.409H307.184C307.082 306.595 306.934 306.801 306.741 307.028C306.552 307.256 306.29 307.453 305.957 307.619C305.624 307.786 305.19 307.869 304.656 307.869C303.966 307.869 303.345 307.708 302.792 307.386C302.243 307.061 301.807 306.581 301.485 305.949C301.167 305.312 301.008 304.53 301.008 303.602C301.008 302.674 301.165 301.879 301.48 301.216C301.798 300.553 302.233 300.045 302.787 299.693C303.34 299.337 303.966 299.159 304.667 299.159C305.209 299.159 305.646 299.25 305.98 299.432C306.313 299.61 306.573 299.818 306.758 300.057C306.948 300.295 307.093 300.506 307.196 300.688H307.321V299.273H308.985V308.193C308.985 308.943 308.811 309.559 308.463 310.04C308.114 310.521 307.643 310.877 307.048 311.108C306.457 311.339 305.79 311.455 305.048 311.455ZM305.031 306.46C305.519 306.46 305.932 306.347 306.269 306.119C306.61 305.888 306.868 305.559 307.042 305.131C307.22 304.699 307.309 304.182 307.309 303.58C307.309 302.992 307.222 302.475 307.048 302.028C306.874 301.581 306.618 301.233 306.281 300.983C305.944 300.729 305.527 300.602 305.031 300.602C304.519 300.602 304.093 300.735 303.752 301C303.412 301.261 303.154 301.617 302.98 302.068C302.809 302.519 302.724 303.023 302.724 303.58C302.724 304.152 302.811 304.653 302.985 305.085C303.16 305.517 303.417 305.854 303.758 306.097C304.103 306.339 304.527 306.46 305.031 306.46ZM311.088 308V299.273H312.787V308H311.088ZM311.946 297.926C311.65 297.926 311.397 297.828 311.184 297.631C310.976 297.43 310.872 297.191 310.872 296.915C310.872 296.634 310.976 296.396 311.184 296.199C311.397 295.998 311.65 295.898 311.946 295.898C312.241 295.898 312.493 295.998 312.701 296.199C312.914 296.396 313.02 296.634 313.02 296.915C313.02 297.191 312.914 297.43 312.701 297.631C312.493 297.828 312.241 297.926 311.946 297.926ZM316.595 302.818V308H314.896V299.273H316.527V300.693H316.635C316.836 300.231 317.15 299.86 317.578 299.58C318.01 299.299 318.553 299.159 319.209 299.159C319.803 299.159 320.324 299.284 320.771 299.534C321.218 299.78 321.565 300.148 321.811 300.636C322.057 301.125 322.18 301.729 322.18 302.449V308H320.481V302.653C320.481 302.021 320.317 301.527 319.987 301.17C319.658 300.811 319.205 300.631 318.629 300.631C318.235 300.631 317.885 300.716 317.578 300.886C317.275 301.057 317.034 301.307 316.856 301.636C316.682 301.962 316.595 302.356 316.595 302.818ZM328.044 308.176C327.184 308.176 326.444 307.992 325.822 307.625C325.205 307.254 324.728 306.733 324.391 306.062C324.057 305.388 323.891 304.598 323.891 303.693C323.891 302.799 324.057 302.011 324.391 301.33C324.728 300.648 325.197 300.116 325.8 299.733C326.406 299.35 327.114 299.159 327.925 299.159C328.417 299.159 328.894 299.241 329.357 299.403C329.819 299.566 330.233 299.822 330.601 300.17C330.968 300.519 331.258 300.972 331.47 301.528C331.682 302.081 331.788 302.754 331.788 303.545V304.148H324.851V302.875H330.124C330.124 302.428 330.033 302.032 329.851 301.688C329.669 301.339 329.413 301.064 329.084 300.864C328.758 300.663 328.375 300.562 327.936 300.562C327.459 300.562 327.042 300.68 326.686 300.915C326.334 301.146 326.061 301.449 325.868 301.824C325.679 302.195 325.584 302.598 325.584 303.034V304.028C325.584 304.612 325.686 305.108 325.891 305.517C326.099 305.926 326.389 306.239 326.76 306.455C327.131 306.667 327.565 306.773 328.061 306.773C328.383 306.773 328.677 306.727 328.942 306.636C329.207 306.542 329.436 306.402 329.629 306.216C329.822 306.03 329.97 305.801 330.072 305.528L331.68 305.818C331.552 306.292 331.321 306.706 330.987 307.062C330.658 307.415 330.243 307.689 329.743 307.886C329.247 308.08 328.68 308.176 328.044 308.176ZM337.259 308.176C336.399 308.176 335.658 307.992 335.037 307.625C334.42 307.254 333.942 306.733 333.605 306.062C333.272 305.388 333.105 304.598 333.105 303.693C333.105 302.799 333.272 302.011 333.605 301.33C333.942 300.648 334.412 300.116 335.014 299.733C335.62 299.35 336.329 299.159 337.139 299.159C337.632 299.159 338.109 299.241 338.571 299.403C339.033 299.566 339.448 299.822 339.815 300.17C340.183 300.519 340.473 300.972 340.685 301.528C340.897 302.081 341.003 302.754 341.003 303.545V304.148H334.065V302.875H339.338C339.338 302.428 339.247 302.032 339.065 301.688C338.884 301.339 338.628 301.064 338.298 300.864C337.973 300.663 337.59 300.562 337.151 300.562C336.673 300.562 336.257 300.68 335.901 300.915C335.548 301.146 335.276 301.449 335.083 301.824C334.893 302.195 334.798 302.598 334.798 303.034V304.028C334.798 304.612 334.901 305.108 335.105 305.517C335.314 305.926 335.603 306.239 335.975 306.455C336.346 306.667 336.779 306.773 337.276 306.773C337.598 306.773 337.891 306.727 338.156 306.636C338.422 306.542 338.651 306.402 338.844 306.216C339.037 306.03 339.185 305.801 339.287 305.528L340.895 305.818C340.766 306.292 340.535 306.706 340.202 307.062C339.872 307.415 339.458 307.689 338.958 307.886C338.461 308.08 337.895 308.176 337.259 308.176ZM342.712 308V299.273H344.354V300.659H344.445C344.604 300.189 344.884 299.82 345.286 299.551C345.691 299.278 346.149 299.142 346.661 299.142C346.767 299.142 346.892 299.146 347.036 299.153C347.184 299.161 347.299 299.17 347.382 299.182V300.807C347.314 300.788 347.193 300.767 347.019 300.744C346.844 300.718 346.67 300.705 346.496 300.705C346.094 300.705 345.737 300.79 345.422 300.96C345.112 301.127 344.865 301.36 344.684 301.659C344.502 301.955 344.411 302.292 344.411 302.67V308H342.712ZM348.677 308V299.273H350.375V308H348.677ZM349.535 297.926C349.239 297.926 348.985 297.828 348.773 297.631C348.565 297.43 348.461 297.191 348.461 296.915C348.461 296.634 348.565 296.396 348.773 296.199C348.985 295.998 349.239 295.898 349.535 295.898C349.83 295.898 350.082 295.998 350.29 296.199C350.502 296.396 350.608 296.634 350.608 296.915C350.608 297.191 350.502 297.43 350.29 297.631C350.082 297.828 349.83 297.926 349.535 297.926ZM354.184 302.818V308H352.485V299.273H354.116V300.693H354.224C354.424 300.231 354.739 299.86 355.167 299.58C355.599 299.299 356.142 299.159 356.797 299.159C357.392 299.159 357.913 299.284 358.36 299.534C358.807 299.78 359.153 300.148 359.4 300.636C359.646 301.125 359.769 301.729 359.769 302.449V308H358.07V302.653C358.07 302.021 357.905 301.527 357.576 301.17C357.246 300.811 356.794 300.631 356.218 300.631C355.824 300.631 355.474 300.716 355.167 300.886C354.864 301.057 354.623 301.307 354.445 301.636C354.271 301.962 354.184 302.356 354.184 302.818ZM365.531 311.455C364.837 311.455 364.241 311.364 363.741 311.182C363.245 311 362.839 310.759 362.525 310.46C362.21 310.161 361.976 309.833 361.82 309.477L363.281 308.875C363.383 309.042 363.519 309.218 363.69 309.403C363.864 309.593 364.099 309.754 364.394 309.886C364.693 310.019 365.078 310.085 365.548 310.085C366.191 310.085 366.724 309.928 367.144 309.614C367.565 309.303 367.775 308.807 367.775 308.125V306.409H367.667C367.565 306.595 367.417 306.801 367.224 307.028C367.034 307.256 366.773 307.453 366.44 307.619C366.106 307.786 365.673 307.869 365.138 307.869C364.449 307.869 363.828 307.708 363.275 307.386C362.726 307.061 362.29 306.581 361.968 305.949C361.65 305.312 361.491 304.53 361.491 303.602C361.491 302.674 361.648 301.879 361.962 301.216C362.281 300.553 362.716 300.045 363.269 299.693C363.822 299.337 364.449 299.159 365.15 299.159C365.691 299.159 366.129 299.25 366.462 299.432C366.796 299.61 367.055 299.818 367.241 300.057C367.43 300.295 367.576 300.506 367.678 300.688H367.803V299.273H369.468V308.193C369.468 308.943 369.294 309.559 368.945 310.04C368.597 310.521 368.125 310.877 367.531 311.108C366.94 311.339 366.273 311.455 365.531 311.455ZM365.513 306.46C366.002 306.46 366.415 306.347 366.752 306.119C367.093 305.888 367.351 305.559 367.525 305.131C367.703 304.699 367.792 304.182 367.792 303.58C367.792 302.992 367.705 302.475 367.531 302.028C367.356 301.581 367.101 301.233 366.763 300.983C366.426 300.729 366.01 300.602 365.513 300.602C365.002 300.602 364.576 300.735 364.235 301C363.894 301.261 363.637 301.617 363.462 302.068C363.292 302.519 363.207 303.023 363.207 303.58C363.207 304.152 363.294 304.653 363.468 305.085C363.642 305.517 363.9 305.854 364.241 306.097C364.585 306.339 365.01 306.46 365.513 306.46Z" fill="#1E1E1E"/>
<circle cx="210" cy="228" r="16" fill="#B3B3B3"/>
<path d="M131.674 246V234.364H135.821C136.727 234.364 137.477 234.528 138.071 234.858C138.666 235.187 139.111 235.638 139.407 236.21C139.702 236.778 139.85 237.419 139.85 238.131C139.85 238.847 139.7 239.491 139.401 240.062C139.105 240.631 138.658 241.081 138.06 241.415C137.465 241.744 136.717 241.909 135.816 241.909H132.963V240.42H135.657C136.229 240.42 136.693 240.322 137.049 240.125C137.405 239.924 137.666 239.652 137.833 239.307C137.999 238.962 138.083 238.57 138.083 238.131C138.083 237.691 137.999 237.301 137.833 236.96C137.666 236.619 137.403 236.352 137.043 236.159C136.687 235.966 136.217 235.869 135.634 235.869H133.429V246H131.674ZM141.596 246V237.273H143.238V238.659H143.329C143.488 238.189 143.768 237.82 144.169 237.551C144.575 237.278 145.033 237.142 145.544 237.142C145.651 237.142 145.776 237.146 145.919 237.153C146.067 237.161 146.183 237.17 146.266 237.182V238.807C146.198 238.788 146.077 238.767 145.902 238.744C145.728 238.718 145.554 238.705 145.38 238.705C144.978 238.705 144.62 238.79 144.306 238.96C143.995 239.127 143.749 239.36 143.567 239.659C143.385 239.955 143.294 240.292 143.294 240.67V246H141.596ZM150.924 246.176C150.106 246.176 149.392 245.989 148.782 245.614C148.172 245.239 147.698 244.714 147.361 244.04C147.024 243.366 146.856 242.578 146.856 241.676C146.856 240.771 147.024 239.979 147.361 239.301C147.698 238.623 148.172 238.097 148.782 237.722C149.392 237.347 150.106 237.159 150.924 237.159C151.742 237.159 152.456 237.347 153.066 237.722C153.676 238.097 154.149 238.623 154.486 239.301C154.823 239.979 154.992 240.771 154.992 241.676C154.992 242.578 154.823 243.366 154.486 244.04C154.149 244.714 153.676 245.239 153.066 245.614C152.456 245.989 151.742 246.176 150.924 246.176ZM150.93 244.75C151.46 244.75 151.899 244.61 152.248 244.33C152.596 244.049 152.854 243.676 153.02 243.21C153.191 242.744 153.276 242.231 153.276 241.67C153.276 241.114 153.191 240.602 153.02 240.136C152.854 239.667 152.596 239.29 152.248 239.006C151.899 238.722 151.46 238.58 150.93 238.58C150.395 238.58 149.952 238.722 149.6 239.006C149.252 239.29 148.992 239.667 148.822 240.136C148.655 240.602 148.572 241.114 148.572 241.67C148.572 242.231 148.655 242.744 148.822 243.21C148.992 243.676 149.252 244.049 149.6 244.33C149.952 244.61 150.395 244.75 150.93 244.75ZM159.979 246.17C159.275 246.17 158.646 245.991 158.093 245.631C157.544 245.267 157.112 244.75 156.798 244.08C156.487 243.405 156.332 242.597 156.332 241.653C156.332 240.71 156.489 239.903 156.803 239.233C157.121 238.562 157.557 238.049 158.11 237.693C158.663 237.337 159.29 237.159 159.991 237.159C160.532 237.159 160.968 237.25 161.298 237.432C161.631 237.61 161.888 237.818 162.07 238.057C162.256 238.295 162.4 238.506 162.502 238.688H162.604V234.364H164.303V246H162.644V244.642H162.502C162.4 244.828 162.252 245.04 162.059 245.278C161.87 245.517 161.608 245.725 161.275 245.903C160.942 246.081 160.51 246.17 159.979 246.17ZM160.354 244.722C160.843 244.722 161.256 244.593 161.593 244.335C161.934 244.074 162.192 243.712 162.366 243.25C162.544 242.788 162.633 242.25 162.633 241.636C162.633 241.03 162.546 240.5 162.371 240.045C162.197 239.591 161.942 239.237 161.604 238.983C161.267 238.729 160.851 238.602 160.354 238.602C159.843 238.602 159.417 238.735 159.076 239C158.735 239.265 158.478 239.627 158.303 240.085C158.133 240.544 158.048 241.061 158.048 241.636C158.048 242.22 158.135 242.744 158.309 243.21C158.483 243.676 158.741 244.045 159.082 244.318C159.426 244.587 159.851 244.722 160.354 244.722ZM172.08 242.381V237.273H173.785V246H172.114V244.489H172.024C171.823 244.955 171.501 245.343 171.058 245.653C170.618 245.96 170.071 246.114 169.416 246.114C168.855 246.114 168.359 245.991 167.927 245.744C167.499 245.494 167.162 245.125 166.916 244.636C166.673 244.148 166.552 243.544 166.552 242.824V237.273H168.251V242.619C168.251 243.214 168.416 243.687 168.745 244.04C169.075 244.392 169.503 244.568 170.029 244.568C170.347 244.568 170.664 244.489 170.978 244.33C171.296 244.17 171.56 243.93 171.768 243.608C171.98 243.286 172.084 242.877 172.08 242.381ZM179.568 246.176C178.723 246.176 177.996 245.985 177.386 245.602C176.78 245.216 176.314 244.684 175.988 244.006C175.662 243.328 175.5 242.551 175.5 241.676C175.5 240.79 175.666 240.008 176 239.33C176.333 238.648 176.803 238.116 177.409 237.733C178.015 237.35 178.729 237.159 179.551 237.159C180.214 237.159 180.804 237.282 181.323 237.528C181.842 237.771 182.261 238.112 182.579 238.551C182.901 238.991 183.092 239.504 183.153 240.091H181.5C181.409 239.682 181.2 239.33 180.875 239.034C180.553 238.739 180.121 238.591 179.579 238.591C179.106 238.591 178.691 238.716 178.335 238.966C177.983 239.212 177.708 239.564 177.511 240.023C177.314 240.477 177.215 241.015 177.215 241.636C177.215 242.273 177.312 242.822 177.505 243.284C177.698 243.746 177.971 244.104 178.323 244.358C178.679 244.612 179.098 244.739 179.579 244.739C179.901 244.739 180.193 244.68 180.454 244.562C180.719 244.441 180.941 244.269 181.119 244.045C181.301 243.822 181.428 243.553 181.5 243.239H183.153C183.092 243.803 182.909 244.307 182.602 244.75C182.295 245.193 181.884 245.542 181.369 245.795C180.858 246.049 180.257 246.176 179.568 246.176ZM188.868 237.273V238.636H184.101V237.273H188.868ZM185.379 235.182H187.078V243.438C187.078 243.767 187.127 244.015 187.226 244.182C187.324 244.345 187.451 244.456 187.606 244.517C187.765 244.574 187.938 244.602 188.123 244.602C188.26 244.602 188.379 244.593 188.481 244.574C188.584 244.555 188.663 244.54 188.72 244.528L189.027 245.932C188.928 245.97 188.788 246.008 188.606 246.045C188.424 246.087 188.197 246.11 187.924 246.114C187.477 246.121 187.061 246.042 186.674 245.875C186.288 245.708 185.976 245.451 185.737 245.102C185.498 244.754 185.379 244.316 185.379 243.79V235.182Z" fill="#1E1E1E"/>
<circle cx="466" cy="188.817" r="16" fill="#757575"/>
<path d="M435.293 165V153.364H439.441C440.342 153.364 441.09 153.519 441.685 153.83C442.283 154.14 442.73 154.57 443.026 155.119C443.321 155.665 443.469 156.295 443.469 157.011C443.469 157.723 443.319 158.35 443.02 158.892C442.725 159.43 442.278 159.848 441.679 160.148C441.085 160.447 440.336 160.597 439.435 160.597H436.293V159.085H439.276C439.844 159.085 440.306 159.004 440.662 158.841C441.022 158.678 441.285 158.441 441.452 158.131C441.619 157.82 441.702 157.447 441.702 157.011C441.702 156.572 441.617 156.191 441.446 155.869C441.28 155.547 441.016 155.301 440.656 155.131C440.3 154.956 439.833 154.869 439.253 154.869H437.049V165H435.293ZM441.037 159.75L443.912 165H441.912L439.094 159.75H441.037ZM448.945 165.176C448.085 165.176 447.345 164.992 446.723 164.625C446.106 164.254 445.629 163.733 445.292 163.062C444.958 162.388 444.792 161.598 444.792 160.693C444.792 159.799 444.958 159.011 445.292 158.33C445.629 157.648 446.098 157.116 446.701 156.733C447.307 156.35 448.015 156.159 448.826 156.159C449.318 156.159 449.795 156.241 450.257 156.403C450.72 156.566 451.134 156.822 451.502 157.17C451.869 157.519 452.159 157.972 452.371 158.528C452.583 159.081 452.689 159.754 452.689 160.545V161.148H445.752V159.875H451.025C451.025 159.428 450.934 159.032 450.752 158.688C450.57 158.339 450.314 158.064 449.985 157.864C449.659 157.663 449.276 157.562 448.837 157.562C448.36 157.562 447.943 157.68 447.587 157.915C447.235 158.146 446.962 158.449 446.769 158.824C446.579 159.195 446.485 159.598 446.485 160.034V161.028C446.485 161.612 446.587 162.108 446.792 162.517C447 162.926 447.29 163.239 447.661 163.455C448.032 163.667 448.466 163.773 448.962 163.773C449.284 163.773 449.578 163.727 449.843 163.636C450.108 163.542 450.337 163.402 450.53 163.216C450.723 163.03 450.871 162.801 450.973 162.528L452.581 162.818C452.453 163.292 452.221 163.706 451.888 164.062C451.559 164.415 451.144 164.689 450.644 164.886C450.148 165.08 449.581 165.176 448.945 165.176ZM460.938 158.403L459.398 158.676C459.334 158.479 459.232 158.292 459.091 158.114C458.955 157.936 458.769 157.79 458.535 157.676C458.3 157.562 458.006 157.506 457.654 157.506C457.173 157.506 456.771 157.614 456.449 157.83C456.127 158.042 455.966 158.316 455.966 158.653C455.966 158.945 456.074 159.18 456.29 159.358C456.506 159.536 456.855 159.682 457.336 159.795L458.722 160.114C459.525 160.299 460.124 160.585 460.518 160.972C460.911 161.358 461.108 161.86 461.108 162.477C461.108 163 460.957 163.466 460.654 163.875C460.355 164.28 459.936 164.598 459.398 164.83C458.864 165.061 458.245 165.176 457.54 165.176C456.563 165.176 455.766 164.968 455.148 164.551C454.531 164.131 454.152 163.534 454.012 162.761L455.654 162.511C455.756 162.939 455.966 163.263 456.285 163.483C456.603 163.699 457.018 163.807 457.529 163.807C458.086 163.807 458.531 163.691 458.864 163.46C459.197 163.225 459.364 162.939 459.364 162.602C459.364 162.33 459.262 162.1 459.057 161.915C458.857 161.729 458.548 161.589 458.131 161.494L456.654 161.17C455.84 160.985 455.237 160.689 454.847 160.284C454.461 159.879 454.268 159.366 454.268 158.744C454.268 158.229 454.411 157.778 454.699 157.392C454.987 157.006 455.385 156.705 455.893 156.489C456.4 156.269 456.982 156.159 457.637 156.159C458.58 156.159 459.322 156.364 459.864 156.773C460.406 157.178 460.764 157.722 460.938 158.403ZM466.562 165.176C465.702 165.176 464.961 164.992 464.34 164.625C463.723 164.254 463.245 163.733 462.908 163.062C462.575 162.388 462.408 161.598 462.408 160.693C462.408 159.799 462.575 159.011 462.908 158.33C463.245 157.648 463.715 157.116 464.317 156.733C464.923 156.35 465.632 156.159 466.442 156.159C466.935 156.159 467.412 156.241 467.874 156.403C468.336 156.566 468.751 156.822 469.119 157.17C469.486 157.519 469.776 157.972 469.988 158.528C470.2 159.081 470.306 159.754 470.306 160.545V161.148H463.369V159.875H468.641C468.641 159.428 468.55 159.032 468.369 158.688C468.187 158.339 467.931 158.064 467.601 157.864C467.276 157.663 466.893 157.562 466.454 157.562C465.976 157.562 465.56 157.68 465.204 157.915C464.851 158.146 464.579 158.449 464.386 158.824C464.196 159.195 464.101 159.598 464.101 160.034V161.028C464.101 161.612 464.204 162.108 464.408 162.517C464.617 162.926 464.906 163.239 465.278 163.455C465.649 163.667 466.083 163.773 466.579 163.773C466.901 163.773 467.194 163.727 467.459 163.636C467.725 163.542 467.954 163.402 468.147 163.216C468.34 163.03 468.488 162.801 468.59 162.528L470.198 162.818C470.069 163.292 469.838 163.706 469.505 164.062C469.175 164.415 468.761 164.689 468.261 164.886C467.764 165.08 467.198 165.176 466.562 165.176ZM474.555 165.193C474.002 165.193 473.502 165.091 473.055 164.886C472.608 164.678 472.254 164.377 471.992 163.983C471.735 163.589 471.606 163.106 471.606 162.534C471.606 162.042 471.701 161.636 471.89 161.318C472.079 161 472.335 160.748 472.657 160.562C472.979 160.377 473.339 160.237 473.737 160.142C474.134 160.047 474.54 159.975 474.952 159.926C475.475 159.866 475.899 159.816 476.225 159.778C476.551 159.737 476.788 159.67 476.935 159.58C477.083 159.489 477.157 159.341 477.157 159.136V159.097C477.157 158.6 477.017 158.216 476.737 157.943C476.46 157.67 476.047 157.534 475.498 157.534C474.926 157.534 474.475 157.661 474.146 157.915C473.82 158.165 473.595 158.443 473.47 158.75L471.873 158.386C472.062 157.856 472.339 157.428 472.702 157.102C473.07 156.773 473.492 156.534 473.97 156.386C474.447 156.235 474.949 156.159 475.475 156.159C475.824 156.159 476.193 156.201 476.583 156.284C476.977 156.364 477.345 156.511 477.685 156.727C478.03 156.943 478.312 157.252 478.532 157.653C478.752 158.051 478.862 158.568 478.862 159.205V165H477.202V163.807H477.134C477.024 164.027 476.86 164.242 476.64 164.455C476.42 164.667 476.138 164.843 475.793 164.983C475.449 165.123 475.036 165.193 474.555 165.193ZM474.924 163.83C475.394 163.83 475.795 163.737 476.129 163.551C476.466 163.366 476.721 163.123 476.896 162.824C477.074 162.521 477.163 162.197 477.163 161.852V160.727C477.102 160.788 476.985 160.845 476.81 160.898C476.64 160.947 476.445 160.991 476.225 161.028C476.006 161.062 475.792 161.095 475.583 161.125C475.375 161.152 475.201 161.174 475.06 161.193C474.731 161.235 474.43 161.305 474.157 161.403C473.888 161.502 473.672 161.644 473.509 161.83C473.35 162.011 473.271 162.254 473.271 162.557C473.271 162.977 473.426 163.295 473.737 163.511C474.047 163.723 474.443 163.83 474.924 163.83ZM480.948 165V156.273H482.59V157.659H482.681C482.84 157.189 483.121 156.82 483.522 156.551C483.928 156.278 484.386 156.142 484.897 156.142C485.003 156.142 485.128 156.146 485.272 156.153C485.42 156.161 485.535 156.17 485.619 156.182V157.807C485.551 157.788 485.429 157.767 485.255 157.744C485.081 157.718 484.907 157.705 484.732 157.705C484.331 157.705 483.973 157.79 483.659 157.96C483.348 158.127 483.102 158.36 482.92 158.659C482.738 158.955 482.647 159.292 482.647 159.67V165H480.948ZM490.277 165.176C489.432 165.176 488.705 164.985 488.095 164.602C487.489 164.216 487.023 163.684 486.697 163.006C486.371 162.328 486.208 161.551 486.208 160.676C486.208 159.79 486.375 159.008 486.708 158.33C487.042 157.648 487.511 157.116 488.118 156.733C488.724 156.35 489.438 156.159 490.26 156.159C490.922 156.159 491.513 156.282 492.032 156.528C492.551 156.771 492.97 157.112 493.288 157.551C493.61 157.991 493.801 158.504 493.862 159.091H492.208C492.118 158.682 491.909 158.33 491.583 158.034C491.261 157.739 490.83 157.591 490.288 157.591C489.814 157.591 489.4 157.716 489.044 157.966C488.691 158.212 488.417 158.564 488.22 159.023C488.023 159.477 487.924 160.015 487.924 160.636C487.924 161.273 488.021 161.822 488.214 162.284C488.407 162.746 488.68 163.104 489.032 163.358C489.388 163.612 489.807 163.739 490.288 163.739C490.61 163.739 490.902 163.68 491.163 163.562C491.428 163.441 491.65 163.269 491.828 163.045C492.01 162.822 492.136 162.553 492.208 162.239H493.862C493.801 162.803 493.618 163.307 493.311 163.75C493.004 164.193 492.593 164.542 492.078 164.795C491.566 165.049 490.966 165.176 490.277 165.176ZM497.201 159.818V165H495.503V153.364H497.179V157.693H497.287C497.491 157.223 497.804 156.85 498.224 156.574C498.645 156.297 499.194 156.159 499.872 156.159C500.47 156.159 500.993 156.282 501.44 156.528C501.891 156.775 502.239 157.142 502.486 157.631C502.736 158.116 502.861 158.722 502.861 159.449V165H501.162V159.653C501.162 159.013 500.997 158.517 500.667 158.165C500.338 157.809 499.88 157.631 499.292 157.631C498.891 157.631 498.531 157.716 498.213 157.886C497.898 158.057 497.65 158.307 497.469 158.636C497.29 158.962 497.201 159.356 497.201 159.818Z" fill="#1E1E1E"/>
<circle cx="130" cy="444" r="16" fill="#757575"/>
<path d="M105.647 469.602C105.587 469.064 105.337 468.648 104.897 468.352C104.458 468.053 103.905 467.903 103.238 467.903C102.761 467.903 102.348 467.979 102 468.131C101.651 468.278 101.38 468.483 101.187 468.744C100.998 469.002 100.903 469.295 100.903 469.625C100.903 469.901 100.967 470.14 101.096 470.341C101.229 470.541 101.401 470.71 101.613 470.846C101.829 470.979 102.06 471.091 102.306 471.182C102.553 471.269 102.789 471.341 103.017 471.398L104.153 471.693C104.524 471.784 104.905 471.907 105.295 472.062C105.685 472.218 106.047 472.422 106.38 472.676C106.714 472.93 106.982 473.244 107.187 473.619C107.395 473.994 107.5 474.443 107.5 474.966C107.5 475.625 107.329 476.21 106.988 476.721C106.651 477.233 106.161 477.636 105.517 477.932C104.876 478.227 104.102 478.375 103.193 478.375C102.321 478.375 101.568 478.237 100.931 477.96C100.295 477.684 99.7969 477.291 99.437 476.784C99.0772 476.273 98.8783 475.666 98.8404 474.966H100.602C100.636 475.386 100.772 475.737 101.011 476.017C101.253 476.293 101.562 476.5 101.937 476.636C102.316 476.769 102.731 476.835 103.181 476.835C103.678 476.835 104.119 476.757 104.505 476.602C104.895 476.443 105.202 476.223 105.426 475.943C105.649 475.659 105.761 475.327 105.761 474.949C105.761 474.604 105.662 474.322 105.465 474.102C105.272 473.882 105.009 473.701 104.676 473.557C104.346 473.413 103.973 473.286 103.556 473.176L102.181 472.801C101.25 472.547 100.511 472.174 99.9654 471.682C99.4238 471.189 99.1529 470.538 99.1529 469.727C99.1529 469.057 99.3348 468.471 99.6984 467.971C100.062 467.471 100.554 467.083 101.176 466.807C101.797 466.526 102.498 466.386 103.278 466.386C104.066 466.386 104.761 466.524 105.363 466.801C105.969 467.077 106.446 467.458 106.795 467.943C107.143 468.424 107.325 468.977 107.34 469.602H105.647ZM113.047 478.358C112.187 478.358 111.446 478.174 110.825 477.807C110.208 477.435 109.73 476.915 109.393 476.244C109.06 475.57 108.893 474.78 108.893 473.875C108.893 472.981 109.06 472.193 109.393 471.511C109.73 470.829 110.2 470.297 110.802 469.915C111.408 469.532 112.117 469.341 112.927 469.341C113.42 469.341 113.897 469.422 114.359 469.585C114.821 469.748 115.236 470.004 115.603 470.352C115.971 470.701 116.261 471.153 116.473 471.71C116.685 472.263 116.791 472.935 116.791 473.727V474.329H109.853V473.057H115.126C115.126 472.61 115.035 472.214 114.853 471.869C114.672 471.521 114.416 471.246 114.086 471.045C113.761 470.845 113.378 470.744 112.939 470.744C112.461 470.744 112.045 470.862 111.689 471.096C111.336 471.327 111.064 471.631 110.87 472.006C110.681 472.377 110.586 472.78 110.586 473.216V474.21C110.586 474.793 110.689 475.29 110.893 475.699C111.101 476.108 111.391 476.42 111.762 476.636C112.134 476.848 112.567 476.954 113.064 476.954C113.386 476.954 113.679 476.909 113.944 476.818C114.209 476.723 114.439 476.583 114.632 476.398C114.825 476.212 114.973 475.983 115.075 475.71L116.683 476C116.554 476.473 116.323 476.888 115.99 477.244C115.66 477.596 115.245 477.871 114.745 478.068C114.249 478.261 113.683 478.358 113.047 478.358ZM118.5 478.182V469.454H120.142V470.841H120.233C120.392 470.371 120.672 470.002 121.074 469.733C121.479 469.46 121.937 469.324 122.449 469.324C122.555 469.324 122.68 469.327 122.824 469.335C122.971 469.343 123.087 469.352 123.17 469.363V470.988C123.102 470.97 122.981 470.949 122.807 470.926C122.632 470.899 122.458 470.886 122.284 470.886C121.882 470.886 121.524 470.971 121.21 471.142C120.899 471.309 120.653 471.541 120.471 471.841C120.29 472.136 120.199 472.473 120.199 472.852V478.182H118.5ZM132.196 469.454L129.031 478.182H127.213L124.043 469.454H125.866L128.077 476.17H128.168L130.372 469.454H132.196ZM133.617 478.182V469.454H135.315V478.182H133.617ZM134.475 468.108C134.179 468.108 133.925 468.009 133.713 467.812C133.505 467.612 133.401 467.373 133.401 467.096C133.401 466.816 133.505 466.577 133.713 466.381C133.925 466.18 134.179 466.079 134.475 466.079C134.77 466.079 135.022 466.18 135.23 466.381C135.442 466.577 135.548 466.816 135.548 467.096C135.548 467.373 135.442 467.612 135.23 467.812C135.022 468.009 134.77 468.108 134.475 468.108ZM141.101 478.358C140.256 478.358 139.529 478.166 138.919 477.784C138.313 477.398 137.847 476.865 137.522 476.187C137.196 475.509 137.033 474.733 137.033 473.858C137.033 472.971 137.2 472.189 137.533 471.511C137.866 470.829 138.336 470.297 138.942 469.915C139.548 469.532 140.262 469.341 141.084 469.341C141.747 469.341 142.338 469.464 142.857 469.71C143.376 469.952 143.794 470.293 144.112 470.733C144.434 471.172 144.626 471.685 144.686 472.273H143.033C142.942 471.863 142.734 471.511 142.408 471.216C142.086 470.92 141.654 470.773 141.112 470.773C140.639 470.773 140.224 470.898 139.868 471.148C139.516 471.394 139.241 471.746 139.044 472.204C138.847 472.659 138.749 473.197 138.749 473.818C138.749 474.454 138.845 475.004 139.039 475.466C139.232 475.928 139.504 476.286 139.857 476.54C140.213 476.793 140.631 476.92 141.112 476.92C141.434 476.92 141.726 476.862 141.987 476.744C142.253 476.623 142.474 476.451 142.652 476.227C142.834 476.004 142.961 475.735 143.033 475.42H144.686C144.626 475.985 144.442 476.488 144.135 476.932C143.828 477.375 143.417 477.723 142.902 477.977C142.391 478.231 141.79 478.358 141.101 478.358ZM150.088 478.358C149.229 478.358 148.488 478.174 147.867 477.807C147.249 477.435 146.772 476.915 146.435 476.244C146.102 475.57 145.935 474.78 145.935 473.875C145.935 472.981 146.102 472.193 146.435 471.511C146.772 470.829 147.242 470.297 147.844 469.915C148.45 469.532 149.158 469.341 149.969 469.341C150.462 469.341 150.939 469.422 151.401 469.585C151.863 469.748 152.278 470.004 152.645 470.352C153.013 470.701 153.302 471.153 153.515 471.71C153.727 472.263 153.833 472.935 153.833 473.727V474.329H146.895V473.057H152.168C152.168 472.61 152.077 472.214 151.895 471.869C151.713 471.521 151.458 471.246 151.128 471.045C150.802 470.845 150.42 470.744 149.98 470.744C149.503 470.744 149.087 470.862 148.73 471.096C148.378 471.327 148.105 471.631 147.912 472.006C147.723 472.377 147.628 472.78 147.628 473.216V474.21C147.628 474.793 147.73 475.29 147.935 475.699C148.143 476.108 148.433 476.42 148.804 476.636C149.176 476.848 149.609 476.954 150.105 476.954C150.427 476.954 150.721 476.909 150.986 476.818C151.251 476.723 151.48 476.583 151.674 476.398C151.867 476.212 152.015 475.983 152.117 475.71L153.725 476C153.596 476.473 153.365 476.888 153.032 477.244C152.702 477.596 152.287 477.871 151.787 478.068C151.291 478.261 150.725 478.358 150.088 478.358ZM162.081 471.585L160.542 471.858C160.477 471.661 160.375 471.473 160.235 471.295C160.098 471.117 159.913 470.971 159.678 470.858C159.443 470.744 159.15 470.687 158.797 470.687C158.316 470.687 157.915 470.795 157.593 471.011C157.271 471.223 157.11 471.498 157.11 471.835C157.11 472.127 157.218 472.362 157.434 472.54C157.65 472.718 157.998 472.863 158.479 472.977L159.866 473.295C160.669 473.481 161.267 473.767 161.661 474.153C162.055 474.54 162.252 475.041 162.252 475.659C162.252 476.182 162.1 476.648 161.797 477.057C161.498 477.462 161.08 477.78 160.542 478.011C160.008 478.242 159.388 478.358 158.684 478.358C157.706 478.358 156.909 478.149 156.292 477.733C155.674 477.312 155.295 476.716 155.155 475.943L156.797 475.693C156.9 476.121 157.11 476.445 157.428 476.665C157.746 476.881 158.161 476.988 158.672 476.988C159.229 476.988 159.674 476.873 160.008 476.642C160.341 476.407 160.508 476.121 160.508 475.784C160.508 475.511 160.405 475.282 160.201 475.096C160 474.911 159.691 474.771 159.275 474.676L157.797 474.352C156.983 474.166 156.381 473.871 155.991 473.466C155.604 473.06 155.411 472.547 155.411 471.926C155.411 471.411 155.555 470.96 155.843 470.574C156.131 470.187 156.528 469.886 157.036 469.67C157.544 469.451 158.125 469.341 158.78 469.341C159.723 469.341 160.466 469.545 161.008 469.954C161.549 470.36 161.907 470.903 162.081 471.585Z" fill="#1E1E1E"/>
<circle cx="43.5" cy="193" r="16" fill="#757575"/>
<path d="M11.4518 220.182C11.4518 221.424 11.2245 222.492 10.77 223.386C10.3154 224.277 9.69233 224.962 8.90067 225.443C8.11279 225.92 7.21695 226.159 6.21316 226.159C5.20559 226.159 4.30597 225.92 3.5143 225.443C2.72642 224.962 2.10521 224.275 1.65066 223.381C1.19612 222.487 0.968846 221.42 0.968846 220.182C0.968846 218.939 1.19612 217.873 1.65066 216.983C2.10521 216.089 2.72642 215.403 3.5143 214.926C4.30597 214.445 5.20559 214.205 6.21316 214.205C7.21695 214.205 8.11279 214.445 8.90067 214.926C9.69233 215.403 10.3154 216.089 10.77 216.983C11.2245 217.873 11.4518 218.939 11.4518 220.182ZM9.71317 220.182C9.71317 219.235 9.55976 218.437 9.25294 217.79C8.94991 217.138 8.53324 216.646 8.00294 216.312C7.47642 215.975 6.87983 215.807 6.21316 215.807C5.54271 215.807 4.94423 215.975 4.41771 216.312C3.89119 216.646 3.47453 217.138 3.16771 217.79C2.86468 218.437 2.71316 219.235 2.71316 220.182C2.71316 221.129 2.86468 221.928 3.16771 222.58C3.47453 223.227 3.89119 223.72 4.41771 224.057C4.94423 224.39 5.54271 224.557 6.21316 224.557C6.87983 224.557 7.47642 224.39 8.00294 224.057C8.53324 223.72 8.94991 223.227 9.25294 222.58C9.55976 221.928 9.71317 221.129 9.71317 220.182ZM13.3284 229.273V217.273H14.9874V218.688H15.1295C15.228 218.506 15.37 218.295 15.5556 218.057C15.7412 217.818 15.9988 217.61 16.3284 217.432C16.6579 217.25 17.0935 217.159 17.6352 217.159C18.3397 217.159 18.9685 217.337 19.5215 217.693C20.0746 218.049 20.5083 218.562 20.8227 219.233C21.1409 219.903 21.2999 220.71 21.2999 221.653C21.2999 222.597 21.1428 223.405 20.8284 224.08C20.514 224.75 20.0821 225.267 19.5329 225.631C18.9837 225.991 18.3568 226.17 17.6522 226.17C17.1219 226.17 16.6882 226.081 16.3511 225.903C16.0178 225.725 15.7564 225.517 15.567 225.278C15.3776 225.04 15.2318 224.828 15.1295 224.642H15.0272V229.273H13.3284ZM14.9931 221.636C14.9931 222.25 15.0821 222.788 15.2602 223.25C15.4382 223.712 15.6958 224.074 16.0329 224.335C16.37 224.593 16.7829 224.722 17.2715 224.722C17.7791 224.722 18.2034 224.587 18.5443 224.318C18.8852 224.045 19.1428 223.676 19.317 223.21C19.495 222.744 19.584 222.22 19.584 221.636C19.584 221.061 19.4969 220.544 19.3227 220.085C19.1522 219.627 18.8946 219.265 18.5499 219C18.209 218.735 17.7829 218.602 17.2715 218.602C16.7791 218.602 16.3624 218.729 16.0215 218.983C15.6844 219.237 15.4287 219.591 15.2545 220.045C15.0803 220.5 14.9931 221.03 14.9931 221.636ZM26.7887 226.176C25.9289 226.176 25.1883 225.992 24.5671 225.625C23.9497 225.254 23.4724 224.733 23.1353 224.062C22.802 223.388 22.6353 222.598 22.6353 221.693C22.6353 220.799 22.802 220.011 23.1353 219.33C23.4724 218.648 23.9421 218.116 24.5444 217.733C25.1505 217.35 25.8588 217.159 26.6694 217.159C27.1618 217.159 27.6391 217.241 28.1012 217.403C28.5633 217.566 28.9781 217.822 29.3455 218.17C29.713 218.519 30.0027 218.972 30.2149 219.528C30.427 220.081 30.533 220.754 30.533 221.545V222.148H23.5955V220.875H28.8683C28.8683 220.428 28.7774 220.032 28.5955 219.688C28.4137 219.339 28.158 219.064 27.8285 218.864C27.5027 218.663 27.1202 218.562 26.6808 218.562C26.2035 218.562 25.7868 218.68 25.4308 218.915C25.0785 219.146 24.8058 219.449 24.6126 219.824C24.4232 220.195 24.3285 220.598 24.3285 221.034V222.028C24.3285 222.612 24.4308 223.108 24.6353 223.517C24.8436 223.926 25.1334 224.239 25.5046 224.455C25.8758 224.667 26.3096 224.773 26.8058 224.773C27.1277 224.773 27.4213 224.727 27.6864 224.636C27.9516 224.542 28.1808 224.402 28.3739 224.216C28.5671 224.03 28.7149 223.801 28.8171 223.528L30.4251 223.818C30.2963 224.292 30.0652 224.706 29.7319 225.062C29.4024 225.415 28.9876 225.689 28.4876 225.886C27.9914 226.08 27.4251 226.176 26.7887 226.176ZM32.242 226V217.273H33.884V218.659H33.9749C34.134 218.189 34.4143 217.82 34.8158 217.551C35.2211 217.278 35.6795 217.142 36.1908 217.142C36.2969 217.142 36.4219 217.146 36.5658 217.153C36.7136 217.161 36.8291 217.17 36.9124 217.182V218.807C36.8443 218.788 36.723 218.767 36.5488 218.744C36.3746 218.718 36.2003 218.705 36.0261 218.705C35.6246 218.705 35.2666 218.79 34.9522 218.96C34.6416 219.127 34.3954 219.36 34.2136 219.659C34.0318 219.955 33.9408 220.292 33.9408 220.67V226H32.242ZM40.6683 226.193C40.1152 226.193 39.6152 226.091 39.1683 225.886C38.7213 225.678 38.3671 225.377 38.1058 224.983C37.8482 224.589 37.7194 224.106 37.7194 223.534C37.7194 223.042 37.8141 222.636 38.0035 222.318C38.1929 222 38.4486 221.748 38.7705 221.562C39.0925 221.377 39.4523 221.237 39.8501 221.142C40.2478 221.047 40.6531 220.975 41.066 220.926C41.5887 220.866 42.013 220.816 42.3387 220.778C42.6645 220.737 42.9012 220.67 43.0489 220.58C43.1967 220.489 43.2705 220.341 43.2705 220.136V220.097C43.2705 219.6 43.1304 219.216 42.8501 218.943C42.5736 218.67 42.1607 218.534 41.6114 218.534C41.0395 218.534 40.5887 218.661 40.2592 218.915C39.9334 219.165 39.708 219.443 39.583 219.75L37.9864 219.386C38.1758 218.856 38.4523 218.428 38.816 218.102C39.1834 217.773 39.6058 217.534 40.083 217.386C40.5603 217.235 41.0622 217.159 41.5887 217.159C41.9372 217.159 42.3065 217.201 42.6967 217.284C43.0906 217.364 43.458 217.511 43.7989 217.727C44.1436 217.943 44.4258 218.252 44.6455 218.653C44.8652 219.051 44.9751 219.568 44.9751 220.205V226H43.316V224.807H43.2478C43.138 225.027 42.9732 225.242 42.7535 225.455C42.5338 225.667 42.2516 225.843 41.9069 225.983C41.5622 226.123 41.1493 226.193 40.6683 226.193ZM41.0376 224.83C41.5073 224.83 41.9088 224.737 42.2421 224.551C42.5792 224.366 42.8349 224.123 43.0092 223.824C43.1872 223.521 43.2762 223.197 43.2762 222.852V221.727C43.2156 221.788 43.0982 221.845 42.9239 221.898C42.7535 221.947 42.5584 221.991 42.3387 222.028C42.119 222.062 41.905 222.095 41.6967 222.125C41.4883 222.152 41.3141 222.174 41.1739 222.193C40.8444 222.235 40.5433 222.305 40.2705 222.403C40.0016 222.502 39.7857 222.644 39.6228 222.83C39.4637 223.011 39.3842 223.254 39.3842 223.557C39.3842 223.977 39.5395 224.295 39.8501 224.511C40.1607 224.723 40.5565 224.83 41.0376 224.83ZM51.1357 217.273V218.636H46.3687V217.273H51.1357ZM47.6471 215.182H49.3459V223.438C49.3459 223.767 49.3952 224.015 49.4937 224.182C49.5922 224.345 49.7191 224.456 49.8744 224.517C50.0334 224.574 50.2058 224.602 50.3914 224.602C50.5278 224.602 50.6471 224.593 50.7494 224.574C50.8516 224.555 50.9312 224.54 50.988 224.528L51.2948 225.932C51.1963 225.97 51.0562 226.008 50.8744 226.045C50.6925 226.087 50.4653 226.11 50.1925 226.114C49.7456 226.121 49.3289 226.042 48.9425 225.875C48.5562 225.708 48.2437 225.451 48.005 225.102C47.7664 224.754 47.6471 224.316 47.6471 223.79V215.182ZM52.839 226V217.273H54.5378V226H52.839ZM53.6969 215.926C53.4015 215.926 53.1477 215.828 52.9356 215.631C52.7272 215.43 52.6231 215.191 52.6231 214.915C52.6231 214.634 52.7272 214.396 52.9356 214.199C53.1477 213.998 53.4015 213.898 53.6969 213.898C53.9924 213.898 54.2443 213.998 54.4526 214.199C54.6647 214.396 54.7708 214.634 54.7708 214.915C54.7708 215.191 54.6647 215.43 54.4526 215.631C54.2443 215.828 53.9924 215.926 53.6969 215.926ZM60.3235 226.176C59.5053 226.176 58.7913 225.989 58.1815 225.614C57.5716 225.239 57.0981 224.714 56.761 224.04C56.4239 223.366 56.2553 222.578 56.2553 221.676C56.2553 220.771 56.4239 219.979 56.761 219.301C57.0981 218.623 57.5716 218.097 58.1815 217.722C58.7913 217.347 59.5053 217.159 60.3235 217.159C61.1417 217.159 61.8557 217.347 62.4655 217.722C63.0754 218.097 63.5489 218.623 63.886 219.301C64.2231 219.979 64.3917 220.771 64.3917 221.676C64.3917 222.578 64.2231 223.366 63.886 224.04C63.5489 224.714 63.0754 225.239 62.4655 225.614C61.8557 225.989 61.1417 226.176 60.3235 226.176ZM60.3292 224.75C60.8595 224.75 61.2989 224.61 61.6474 224.33C61.9958 224.049 62.2534 223.676 62.4201 223.21C62.5905 222.744 62.6758 222.231 62.6758 221.67C62.6758 221.114 62.5905 220.602 62.4201 220.136C62.2534 219.667 61.9958 219.29 61.6474 219.006C61.2989 218.722 60.8595 218.58 60.3292 218.58C59.7951 218.58 59.3519 218.722 58.9996 219.006C58.6511 219.29 58.3917 219.667 58.2212 220.136C58.0546 220.602 57.9712 221.114 57.9712 221.67C57.9712 222.231 58.0546 222.744 58.2212 223.21C58.3917 223.676 58.6511 224.049 58.9996 224.33C59.3519 224.61 59.7951 224.75 60.3292 224.75ZM67.8108 220.818V226H66.112V217.273H67.7427V218.693H67.8506C68.0514 218.231 68.3658 217.86 68.7938 217.58C69.2256 217.299 69.7692 217.159 70.4245 217.159C71.0192 217.159 71.54 217.284 71.987 217.534C72.434 217.78 72.7805 218.148 73.0268 218.636C73.273 219.125 73.3961 219.729 73.3961 220.449V226H71.6972V220.653C71.6972 220.021 71.5324 219.527 71.2029 219.17C70.8733 218.811 70.4207 218.631 69.8449 218.631C69.451 218.631 69.1006 218.716 68.7938 218.886C68.4908 219.057 68.2502 219.307 68.0722 219.636C67.898 219.962 67.8108 220.356 67.8108 220.818ZM82.0383 219.403L80.4985 219.676C80.4341 219.479 80.3318 219.292 80.1917 219.114C80.0553 218.936 79.8697 218.79 79.6348 218.676C79.4 218.562 79.1064 218.506 78.7542 218.506C78.2731 218.506 77.8716 218.614 77.5496 218.83C77.2276 219.042 77.0667 219.316 77.0667 219.653C77.0667 219.945 77.1746 220.18 77.3905 220.358C77.6064 220.536 77.9549 220.682 78.436 220.795L79.8223 221.114C80.6254 221.299 81.2239 221.585 81.6178 221.972C82.0117 222.358 82.2087 222.86 82.2087 223.477C82.2087 224 82.0572 224.466 81.7542 224.875C81.4549 225.28 81.0364 225.598 80.4985 225.83C79.9644 226.061 79.3451 226.176 78.6405 226.176C77.6633 226.176 76.8659 225.968 76.2485 225.551C75.6311 225.131 75.2523 224.534 75.1121 223.761L76.7542 223.511C76.8564 223.939 77.0667 224.263 77.3848 224.483C77.703 224.699 78.1178 224.807 78.6292 224.807C79.186 224.807 79.6311 224.691 79.9644 224.46C80.2977 224.225 80.4644 223.939 80.4644 223.602C80.4644 223.33 80.3621 223.1 80.1576 222.915C79.9568 222.729 79.6481 222.589 79.2314 222.494L77.7542 222.17C76.9398 221.985 76.3375 221.689 75.9473 221.284C75.561 220.879 75.3678 220.366 75.3678 219.744C75.3678 219.229 75.5117 218.778 75.7996 218.392C76.0875 218.006 76.4852 217.705 76.9928 217.489C77.5004 217.269 78.0818 217.159 78.7371 217.159C79.6803 217.159 80.4227 217.364 80.9644 217.773C81.5061 218.178 81.864 218.722 82.0383 219.403Z" fill="#1E1E1E"/>
<circle cx="257" cy="39.8184" r="16" fill="#757575"/>
<path d="M220.521 6.36364H222.652L226.357 15.4091H226.493L230.198 6.36364H232.328V18H230.658V9.57955H230.55L227.118 17.983H225.732L222.3 9.57386H222.192V18H220.521V6.36364ZM237.108 18.1932C236.555 18.1932 236.055 18.0909 235.608 17.8864C235.161 17.678 234.807 17.3769 234.546 16.983C234.288 16.589 234.159 16.1061 234.159 15.5341C234.159 15.0417 234.254 14.6364 234.443 14.3182C234.633 14 234.889 13.7481 235.211 13.5625C235.532 13.3769 235.892 13.2367 236.29 13.142C236.688 13.0473 237.093 12.9754 237.506 12.9261C238.029 12.8655 238.453 12.8163 238.779 12.7784C239.104 12.7367 239.341 12.6705 239.489 12.5795C239.637 12.4886 239.711 12.3409 239.711 12.1364V12.0966C239.711 11.6004 239.57 11.2159 239.29 10.9432C239.014 10.6705 238.601 10.5341 238.051 10.5341C237.479 10.5341 237.029 10.661 236.699 10.9148C236.373 11.1648 236.148 11.4432 236.023 11.75L234.426 11.3864C234.616 10.8561 234.892 10.428 235.256 10.1023C235.623 9.77273 236.046 9.53409 236.523 9.38636C237 9.23485 237.502 9.15909 238.029 9.15909C238.377 9.15909 238.747 9.20076 239.137 9.28409C239.531 9.36364 239.898 9.51136 240.239 9.72727C240.584 9.94318 240.866 10.2519 241.086 10.6534C241.305 11.0511 241.415 11.5682 241.415 12.2045V18H239.756V16.8068H239.688C239.578 17.0265 239.413 17.2424 239.193 17.4545C238.974 17.6667 238.692 17.8428 238.347 17.983C238.002 18.1231 237.589 18.1932 237.108 18.1932ZM237.478 16.8295C237.947 16.8295 238.349 16.7367 238.682 16.5511C239.019 16.3655 239.275 16.1231 239.449 15.8239C239.627 15.5208 239.716 15.197 239.716 14.8523V13.7273C239.656 13.7879 239.538 13.8447 239.364 13.8977C239.193 13.947 238.998 13.9905 238.779 14.0284C238.559 14.0625 238.345 14.0947 238.137 14.125C237.928 14.1515 237.754 14.1742 237.614 14.1932C237.284 14.2348 236.983 14.3049 236.711 14.4034C236.442 14.5019 236.226 14.6439 236.063 14.8295C235.904 15.0114 235.824 15.2538 235.824 15.5568C235.824 15.9773 235.979 16.2955 236.29 16.5114C236.601 16.7235 236.997 16.8295 237.478 16.8295ZM243.502 18V9.27273H245.144V10.6591H245.235C245.394 10.1894 245.674 9.82008 246.076 9.55114C246.481 9.27841 246.939 9.14205 247.451 9.14205C247.557 9.14205 247.682 9.14583 247.826 9.15341C247.973 9.16098 248.089 9.17045 248.172 9.18182V10.8068C248.104 10.7879 247.983 10.767 247.809 10.7443C247.634 10.7178 247.46 10.7045 247.286 10.7045C246.884 10.7045 246.526 10.7898 246.212 10.9602C245.901 11.1269 245.655 11.3598 245.473 11.6591C245.292 11.9545 245.201 12.2917 245.201 12.6705V18H243.502ZM251.029 15.0398L251.018 12.9659H251.313L254.79 9.27273H256.824L252.859 13.4773H252.591L251.029 15.0398ZM249.466 18V6.36364H251.165V18H249.466ZM254.978 18L251.853 13.8523L253.023 12.6648L257.063 18H254.978ZM261.599 18.1761C260.739 18.1761 259.998 17.9924 259.377 17.625C258.76 17.2538 258.282 16.733 257.945 16.0625C257.612 15.3883 257.445 14.5985 257.445 13.6932C257.445 12.7992 257.612 12.0114 257.945 11.3295C258.282 10.6477 258.752 10.1155 259.354 9.73295C259.96 9.35038 260.669 9.15909 261.479 9.15909C261.972 9.15909 262.449 9.24053 262.911 9.40341C263.373 9.56629 263.788 9.82197 264.156 10.1705C264.523 10.5189 264.813 10.9716 265.025 11.5284C265.237 12.0814 265.343 12.7538 265.343 13.5455V14.1477H258.406V12.875H263.678C263.678 12.428 263.587 12.0322 263.406 11.6875C263.224 11.339 262.968 11.0644 262.638 10.8636C262.313 10.6629 261.93 10.5625 261.491 10.5625C261.013 10.5625 260.597 10.6799 260.241 10.9148C259.888 11.1458 259.616 11.4489 259.423 11.8239C259.233 12.1951 259.138 12.5985 259.138 13.0341V14.0284C259.138 14.6117 259.241 15.108 259.445 15.517C259.654 15.9261 259.943 16.2386 260.315 16.4545C260.686 16.6667 261.12 16.7727 261.616 16.7727C261.938 16.7727 262.231 16.7273 262.496 16.6364C262.762 16.5417 262.991 16.4015 263.184 16.2159C263.377 16.0303 263.525 15.8011 263.627 15.5284L265.235 15.8182C265.106 16.2917 264.875 16.7064 264.542 17.0625C264.212 17.4148 263.798 17.6894 263.298 17.8864C262.801 18.0795 262.235 18.1761 261.599 18.1761ZM271.126 9.27273V10.6364H266.359V9.27273H271.126ZM267.637 7.18182H269.336V15.4375C269.336 15.767 269.385 16.0152 269.484 16.1818C269.582 16.3447 269.709 16.4564 269.864 16.517C270.024 16.5739 270.196 16.6023 270.382 16.6023C270.518 16.6023 270.637 16.5928 270.739 16.5739C270.842 16.5549 270.921 16.5398 270.978 16.5284L271.285 17.9318C271.186 17.9697 271.046 18.0076 270.864 18.0455C270.683 18.0871 270.455 18.1098 270.183 18.1136C269.736 18.1212 269.319 18.0417 268.933 17.875C268.546 17.7083 268.234 17.4508 267.995 17.1023C267.757 16.7538 267.637 16.3163 267.637 15.7898V7.18182ZM272.829 18V9.27273H274.528V18H272.829ZM273.687 7.92614C273.392 7.92614 273.138 7.82765 272.926 7.63068C272.717 7.42992 272.613 7.19129 272.613 6.91477C272.613 6.63447 272.717 6.39583 272.926 6.19886C273.138 5.99811 273.392 5.89773 273.687 5.89773C273.983 5.89773 274.234 5.99811 274.443 6.19886C274.655 6.39583 274.761 6.63447 274.761 6.91477C274.761 7.19129 274.655 7.42992 274.443 7.63068C274.234 7.82765 273.983 7.92614 273.687 7.92614ZM278.336 12.8182V18H276.637V9.27273H278.268V10.6932H278.376C278.577 10.2311 278.891 9.85985 279.319 9.57955C279.751 9.29924 280.295 9.15909 280.95 9.15909C281.545 9.15909 282.066 9.28409 282.512 9.53409C282.959 9.7803 283.306 10.1477 283.552 10.6364C283.798 11.125 283.922 11.7292 283.922 12.4489V18H282.223V12.6534C282.223 12.0208 282.058 11.5265 281.728 11.1705C281.399 10.8106 280.946 10.6307 280.37 10.6307C279.976 10.6307 279.626 10.7159 279.319 10.8864C279.016 11.0568 278.776 11.3068 278.598 11.6364C278.423 11.9621 278.336 12.3561 278.336 12.8182ZM289.683 21.4545C288.99 21.4545 288.393 21.3636 287.893 21.1818C287.397 21 286.992 20.7595 286.677 20.4602C286.363 20.161 286.128 19.8333 285.973 19.4773L287.433 18.875C287.535 19.0417 287.672 19.2178 287.842 19.4034C288.016 19.5928 288.251 19.7538 288.547 19.8864C288.846 20.0189 289.23 20.0852 289.7 20.0852C290.344 20.0852 290.876 19.928 291.297 19.6136C291.717 19.303 291.927 18.8068 291.927 18.125V16.4091H291.819C291.717 16.5947 291.569 16.8011 291.376 17.0284C291.187 17.2557 290.926 17.4527 290.592 17.6193C290.259 17.786 289.825 17.8693 289.291 17.8693C288.602 17.8693 287.98 17.7083 287.427 17.3864C286.878 17.0606 286.443 16.5814 286.121 15.9489C285.802 15.3125 285.643 14.5303 285.643 13.6023C285.643 12.6742 285.801 11.8788 286.115 11.2159C286.433 10.553 286.869 10.0455 287.422 9.69318C287.975 9.33712 288.602 9.15909 289.302 9.15909C289.844 9.15909 290.282 9.25 290.615 9.43182C290.948 9.60985 291.208 9.81818 291.393 10.0568C291.583 10.2955 291.729 10.5057 291.831 10.6875H291.956V9.27273H293.621V18.1932C293.621 18.9432 293.446 19.5587 293.098 20.0398C292.749 20.5208 292.278 20.8769 291.683 21.108C291.092 21.339 290.426 21.4545 289.683 21.4545ZM289.666 16.4602C290.155 16.4602 290.568 16.3466 290.905 16.1193C291.246 15.8883 291.503 15.5587 291.677 15.1307C291.855 14.6989 291.944 14.1818 291.944 13.5795C291.944 12.9924 291.857 12.4754 291.683 12.0284C291.509 11.5814 291.253 11.233 290.916 10.983C290.579 10.7292 290.162 10.6023 289.666 10.6023C289.155 10.6023 288.729 10.7348 288.388 11C288.047 11.2614 287.789 11.6174 287.615 12.0682C287.444 12.5189 287.359 13.0227 287.359 13.5795C287.359 14.1515 287.446 14.6534 287.621 15.0852C287.795 15.517 288.052 15.8542 288.393 16.0966C288.738 16.339 289.162 16.4602 289.666 16.4602Z" fill="#1E1E1E"/>
<path d="M59.7502 181.341L240.75 51.4775" stroke="#757575" stroke-width="3" stroke-miterlimit="0" stroke-linecap="round" stroke-linejoin="bevel"/>
<circle cx="389" cy="444" r="16" fill="#757575"/>
<path d="M376.45 478.182H372.683V466.545H376.569C377.71 466.545 378.689 466.778 379.507 467.244C380.325 467.706 380.952 468.371 381.388 469.238C381.827 470.102 382.047 471.138 382.047 472.346C382.047 473.559 381.825 474.6 381.382 475.471C380.943 476.343 380.306 477.013 379.473 477.483C378.639 477.949 377.632 478.182 376.45 478.182ZM374.439 476.648H376.353C377.24 476.648 377.977 476.481 378.564 476.148C379.151 475.81 379.59 475.324 379.882 474.687C380.174 474.047 380.319 473.267 380.319 472.346C380.319 471.434 380.174 470.659 379.882 470.023C379.594 469.386 379.164 468.903 378.592 468.574C378.02 468.244 377.31 468.079 376.461 468.079H374.439V476.648ZM386.457 478.375C385.904 478.375 385.404 478.273 384.957 478.068C384.51 477.86 384.156 477.559 383.895 477.165C383.637 476.771 383.508 476.288 383.508 475.716C383.508 475.223 383.603 474.818 383.793 474.5C383.982 474.182 384.238 473.93 384.56 473.744C384.882 473.559 385.241 473.418 385.639 473.324C386.037 473.229 386.442 473.157 386.855 473.108C387.378 473.047 387.802 472.998 388.128 472.96C388.454 472.918 388.69 472.852 388.838 472.761C388.986 472.67 389.06 472.523 389.06 472.318V472.278C389.06 471.782 388.919 471.398 388.639 471.125C388.363 470.852 387.95 470.716 387.401 470.716C386.829 470.716 386.378 470.843 386.048 471.096C385.722 471.346 385.497 471.625 385.372 471.932L383.776 471.568C383.965 471.038 384.241 470.61 384.605 470.284C384.972 469.954 385.395 469.716 385.872 469.568C386.349 469.416 386.851 469.341 387.378 469.341C387.726 469.341 388.096 469.382 388.486 469.466C388.88 469.545 389.247 469.693 389.588 469.909C389.933 470.125 390.215 470.434 390.435 470.835C390.654 471.233 390.764 471.75 390.764 472.386V478.182H389.105V476.988H389.037C388.927 477.208 388.762 477.424 388.543 477.636C388.323 477.848 388.041 478.024 387.696 478.165C387.351 478.305 386.938 478.375 386.457 478.375ZM386.827 477.011C387.296 477.011 387.698 476.918 388.031 476.733C388.368 476.547 388.624 476.305 388.798 476.006C388.976 475.702 389.065 475.379 389.065 475.034V473.909C389.005 473.97 388.887 474.026 388.713 474.079C388.543 474.129 388.347 474.172 388.128 474.21C387.908 474.244 387.694 474.276 387.486 474.307C387.277 474.333 387.103 474.356 386.963 474.375C386.633 474.416 386.332 474.487 386.06 474.585C385.791 474.684 385.575 474.826 385.412 475.011C385.253 475.193 385.173 475.435 385.173 475.738C385.173 476.159 385.329 476.477 385.639 476.693C385.95 476.905 386.346 477.011 386.827 477.011ZM396.925 469.454V470.818H392.158V469.454H396.925ZM393.436 467.363H395.135V475.619C395.135 475.949 395.184 476.197 395.283 476.363C395.381 476.526 395.508 476.638 395.663 476.699C395.823 476.756 395.995 476.784 396.18 476.784C396.317 476.784 396.436 476.774 396.538 476.756C396.641 476.737 396.72 476.721 396.777 476.71L397.084 478.113C396.985 478.151 396.845 478.189 396.663 478.227C396.482 478.269 396.254 478.291 395.982 478.295C395.535 478.303 395.118 478.223 394.732 478.057C394.345 477.89 394.033 477.632 393.794 477.284C393.555 476.935 393.436 476.498 393.436 475.971V467.363ZM401.168 478.375C400.615 478.375 400.115 478.273 399.668 478.068C399.221 477.86 398.867 477.559 398.605 477.165C398.348 476.771 398.219 476.288 398.219 475.716C398.219 475.223 398.314 474.818 398.503 474.5C398.692 474.182 398.948 473.93 399.27 473.744C399.592 473.559 399.952 473.418 400.35 473.324C400.747 473.229 401.153 473.157 401.566 473.108C402.088 473.047 402.513 472.998 402.838 472.96C403.164 472.918 403.401 472.852 403.549 472.761C403.696 472.67 403.77 472.523 403.77 472.318V472.278C403.77 471.782 403.63 471.398 403.35 471.125C403.073 470.852 402.66 470.716 402.111 470.716C401.539 470.716 401.088 470.843 400.759 471.096C400.433 471.346 400.208 471.625 400.083 471.932L398.486 471.568C398.675 471.038 398.952 470.61 399.316 470.284C399.683 469.954 400.105 469.716 400.583 469.568C401.06 469.416 401.562 469.341 402.088 469.341C402.437 469.341 402.806 469.382 403.196 469.466C403.59 469.545 403.958 469.693 404.299 469.909C404.643 470.125 404.925 470.434 405.145 470.835C405.365 471.233 405.475 471.75 405.475 472.386V478.182H403.816V476.988H403.747C403.638 477.208 403.473 477.424 403.253 477.636C403.033 477.848 402.751 478.024 402.406 478.165C402.062 478.305 401.649 478.375 401.168 478.375ZM401.537 477.011C402.007 477.011 402.408 476.918 402.742 476.733C403.079 476.547 403.334 476.305 403.509 476.006C403.687 475.702 403.776 475.379 403.776 475.034V473.909C403.715 473.97 403.598 474.026 403.424 474.079C403.253 474.129 403.058 474.172 402.838 474.21C402.619 474.244 402.405 474.276 402.196 474.307C401.988 474.333 401.814 474.356 401.674 474.375C401.344 474.416 401.043 474.487 400.77 474.585C400.501 474.684 400.285 474.826 400.122 475.011C399.963 475.193 399.884 475.435 399.884 475.738C399.884 476.159 400.039 476.477 400.35 476.693C400.66 476.905 401.056 477.011 401.537 477.011Z" fill="#1E1E1E"/>
<path d="M190.428 223.886L63.0723 197.114" stroke="#757575" stroke-width="3" stroke-miterlimit="0" stroke-linecap="round" stroke-linejoin="bevel"/>
<path d="M123.484 425.091L50.0164 211.908" stroke="#757575" stroke-width="3" stroke-miterlimit="0" stroke-linecap="round" stroke-linejoin="bevel"/>
<path d="M460.223 207.965L394.778 424.853" stroke="#757575" stroke-width="3" stroke-miterlimit="0" stroke-linecap="round" stroke-linejoin="bevel"/>
<path d="M285 228H230" stroke="#757575" stroke-width="3" stroke-miterlimit="0" stroke-linecap="round" stroke-linejoin="bevel"/>
<path d="M221.149 244.604L245.851 281.396" stroke="#757575" stroke-width="3" stroke-miterlimit="0" stroke-linecap="round" stroke-linejoin="bevel"/>
<path d="M268.311 281.506L293.689 244.495" stroke="#757575" stroke-width="3" stroke-miterlimit="0" stroke-linecap="round" stroke-linejoin="bevel"/>
<path d="M203.054 246.755L136.946 425.245" stroke="#757575" stroke-width="3" stroke-miterlimit="0" stroke-linecap="round" stroke-linejoin="bevel"/>
<path d="M369 444H150" stroke="#757575" stroke-width="3" stroke-miterlimit="0" stroke-linecap="round" stroke-linejoin="bevel"/>
<path d="M270.413 312.835L375.587 429.164" stroke="#757575" stroke-width="3" stroke-miterlimit="0" stroke-linecap="round" stroke-linejoin="bevel"/>
<path d="M324.433 223.271L446.567 193.547" stroke="#757575" stroke-width="3" stroke-miterlimit="0" stroke-linecap="round" stroke-linejoin="bevel"/>
<path d="M273.285 51.4287L449.715 177.208" stroke="#757575" stroke-width="3" stroke-miterlimit="0" stroke-linecap="round" stroke-linejoin="bevel"/>
<path d="M300.057 208.62L261.943 59.1973" stroke="#757575" stroke-width="3" stroke-miterlimit="0" stroke-linecap="round" stroke-linejoin="bevel"/>
<path d="M214.846 208.596L252.154 59.2227" stroke="#757575" stroke-width="3" stroke-miterlimit="0" stroke-linecap="round" stroke-linejoin="bevel"/>
<path d="M243.874 313.09L143.126 428.91" stroke="#757575" stroke-width="3" stroke-miterlimit="0" stroke-linecap="round" stroke-linejoin="bevel"/>
</svg>
